<svg xmlns="http://www.w3.org/2000/svg" xmlns:xlink="http://www.w3.org/1999/xlink" width="0" height="0" style="display:none;"><symbol viewBox="0 0 24 24" id="book-2-line"><path d="M21 18H6C5.44772 18 5 18.4477 5 19C5 19.5523 5.44772 20 6 20H21V22H6C4.34315 22 3 20.6569 3 19V4C3 2.89543 3.89543 2 5 2H21V18ZM5 16.05C5.16156 16.0172 5.32877 16 5.5 16H19V4H5V16.05ZM16 9H8V7H16V9Z"></path></symbol><symbol viewBox="0 0 24 24" id="english-input"><path d="M14 10H16L16.0005 10.7574C16.7154 10.279 17.5751 10 18.5 10C20.9853 10 23 12.0147 23 14.5V20H21V14.5C21 13.07 19.8255 12 18.5 12C17.1745 12 16 13.07 16 14.5V20H14V10ZM12 4V6H4V11H12V13H4V18H12V20H2V4H12Z"></path></symbol><symbol viewBox="0 0 24 24" id="money-cny-circle-line"><path d="M12.0049 22.0029C6.48204 22.0029 2.00488 17.5258 2.00488 12.0029C2.00488 6.48008 6.48204 2.00293 12.0049 2.00293C17.5277 2.00293 22.0049 6.48008 22.0049 12.0029C22.0049 17.5258 17.5277 22.0029 12.0049 22.0029ZM12.0049 20.0029C16.4232 20.0029 20.0049 16.4212 20.0049 12.0029C20.0049 7.58465 16.4232 4.00293 12.0049 4.00293C7.5866 4.00293 4.00488 7.58465 4.00488 12.0029C4.00488 16.4212 7.5866 20.0029 12.0049 20.0029ZM13.0049 13.0029H16.0049V15.0029H13.0049V17.0029H11.0049V15.0029H8.00488V13.0029H11.0049V12.0029H8.00488V10.0029H10.5907L8.46935 7.88161L9.88356 6.4674L12.0049 8.58872L14.1262 6.4674L15.5404 7.88161L13.4191 10.0029H16.0049V12.0029H13.0049V13.0029Z"></path></symbol><symbol viewBox="0 0 24 24" id="computer-line"><path d="M4 16H20V5H4V16ZM13 18V20H17V22H7V20H11V18H2.9918C2.44405 18 2 17.5511 2 16.9925V4.00748C2 3.45107 2.45531 3 2.9918 3H21.0082C21.556 3 22 3.44892 22 4.00748V16.9925C22 17.5489 21.5447 18 21.0082 18H13Z"></path></symbol><symbol viewBox="0 0 24 24" id="edit-2-line"><path d="M5 18.89H6.41421L15.7279 9.57629L14.3137 8.16207L5 17.4758V18.89ZM21 20.89H3V16.6474L16.435 3.21233C16.8256 2.8218 17.4587 2.8218 17.8492 3.21233L20.6777 6.04075C21.0682 6.43128 21.0682 7.06444 20.6777 7.45497L9.24264 18.89H21V20.89ZM15.7279 6.74786L17.1421 8.16207L18.5563 6.74786L17.1421 5.33365L15.7279 6.74786Z"></path></symbol><symbol viewBox="0 0 24 24" id="palette-line"><path d="M12 2C17.5222 2 22 5.97778 22 10.8889C22 13.9556 19.5111 16.4444 16.4444 16.4444H14.4778C13.5556 16.4444 12.8111 17.1889 12.8111 18.1111C12.8111 18.5333 12.9778 18.9222 13.2333 19.2111C13.5 19.5111 13.6667 19.9 13.6667 20.3333C13.6667 21.2556 12.9 22 12 22C6.47778 22 2 17.5222 2 12C2 6.47778 6.47778 2 12 2ZM10.8111 18.1111C10.8111 16.0843 12.451 14.4444 14.4778 14.4444H16.4444C18.4065 14.4444 20 12.851 20 10.8889C20 7.1392 16.4677 4 12 4C7.58235 4 4 7.58235 4 12C4 16.19 7.2226 19.6285 11.324 19.9718C10.9948 19.4168 10.8111 18.7761 10.8111 18.1111ZM7.5 12C6.67157 12 6 11.3284 6 10.5C6 9.67157 6.67157 9 7.5 9C8.32843 9 9 9.67157 9 10.5C9 11.3284 8.32843 12 7.5 12ZM16.5 12C15.6716 12 15 11.3284 15 10.5C15 9.67157 15.6716 9 16.5 9C17.3284 9 18 9.67157 18 10.5C18 11.3284 17.3284 12 16.5 12ZM12 9C11.1716 9 10.5 8.32843 10.5 7.5C10.5 6.67157 11.1716 6 12 6C12.8284 6 13.5 6.67157 13.5 7.5C13.5 8.32843 12.8284 9 12 9Z"></path></symbol><symbol viewBox="0 0 24 24" id="send-plane-fill"><path d="M1.94631 9.31555C1.42377 9.14137 1.41965 8.86034 1.95706 8.6812L21.0433 2.31913C21.5717 2.14297 21.8748 2.43878 21.7268 2.95706L16.2736 22.0433C16.1226 22.5718 15.8179 22.5901 15.5946 22.0877L12.0002 14.0002L18.0002 6.00017L10.0002 12.0002L1.94631 9.31555Z"></path></symbol><symbol viewBox="0 0 24 24" id="tools-line"><path d="M5.32894 3.27158C6.56203 2.8332 7.99181 3.10749 8.97878 4.09446C10.0997 5.21537 10.3014 6.90741 9.58382 8.23385L20.2925 18.9437L18.8783 20.3579L8.16933 9.64875C6.84277 10.3669 5.1502 10.1654 4.02903 9.04421C3.04178 8.05696 2.76761 6.62665 3.20652 5.39332L5.44325 7.63C6.02903 8.21578 6.97878 8.21578 7.56457 7.63C8.15035 7.04421 8.15035 6.09446 7.56457 5.50868L5.32894 3.27158ZM15.6963 5.15512L18.8783 3.38736L20.2925 4.80157L18.5247 7.98355L16.757 8.3371L14.6356 10.4584L13.2214 9.04421L15.3427 6.92289L15.6963 5.15512ZM8.97878 13.2868L10.393 14.7011L5.08969 20.0044C4.69917 20.3949 4.066 20.3949 3.67548 20.0044C3.31285 19.6417 3.28695 19.0699 3.59777 18.6774L3.67548 18.5902L8.97878 13.2868Z"></path></symbol><symbol viewBox="0 0 24 24" id="translate"><path d="M5 15V17C5 18.0544 5.81588 18.9182 6.85074 18.9945L7 19H10V21H7C4.79086 21 3 19.2091 3 17V15H5ZM18 10L22.4 21H20.245L19.044 18H14.954L13.755 21H11.601L16 10H18ZM17 12.8852L15.753 16H18.245L17 12.8852ZM8 2V4H12V11H8V14H6V11H2V4H6V2H8ZM17 3C19.2091 3 21 4.79086 21 7V9H19V7C19 5.89543 18.1046 5 17 5H14V3H17ZM6 6H4V9H6V6ZM10 6H8V9H10V6Z"></path></symbol><symbol viewBox="0 0 24 24" id="code-box-line"><path d="M3 3H21C21.5523 3 22 3.44772 22 4V20C22 20.5523 21.5523 21 21 21H3C2.44772 21 2 20.5523 2 20V4C2 3.44772 2.44772 3 3 3ZM4 5V19H20V5H4ZM20 12L16.4645 15.5355L15.0503 14.1213L17.1716 12L15.0503 9.87868L16.4645 8.46447L20 12ZM6.82843 12L8.94975 14.1213L7.53553 15.5355L4 12L7.53553 8.46447L8.94975 9.87868L6.82843 12ZM11.2443 17H9.11597L12.7557 7H14.884L11.2443 17Z"></path></symbol><symbol viewBox="0 0 24 24" id="cake-3-line"><path d="M15.5 2C17.433 2 19 3.567 19 5.5C19 5.72679 18.9784 5.94854 18.9372 6.16332L18.9223 6.22941C20.7106 6.82471 22 8.51178 22 10.5C22 12.3741 20.8544 13.9806 19.2253 14.6574L18.1393 21.1644C18.0589 21.6466 17.6417 22 17.1529 22H6.84713C6.35829 22 5.9411 21.6466 5.86073 21.1644L4.832 14.994C3.24892 14.9037 2 13.5977 2 12C2 10.6926 2.83627 9.5806 4.00306 9.16963L4 9C4 5.68629 6.68629 3 10 3C10.9212 3 11.794 3.20761 12.574 3.5786C13.1984 2.62849 14.2758 2 15.5 2ZM9 15H6.86L7.694 20H9V15ZM13 15H11V20H13V15ZM17.139 15H15V20H16.305L17.139 15ZM10 5C7.8578 5 6.10892 6.68397 6.0046 8.76748L5.99967 8.96394L6.00273 9.13357C6.0173 9.94127 5.54534 10.6726 4.8166 10.9967L4.6675 11.056C4.27121 11.1956 4 11.5722 4 12C4 12.5523 4.44772 13 5 13H17.5C18.8807 13 20 11.8807 20 10.5C20 9.11929 18.8807 8 17.5 8C17.1643 8 16.8417 8.06519 16.5442 8.18959L16.3688 8.27129C15.4021 8.76932 14.2253 8.40165 13.7059 7.46716L13.6362 7.32984C12.9876 5.92108 11.5778 5 10 5ZM15.5 4C14.9536 4 14.4755 4.29211 14.2132 4.72868C14.7264 5.2345 15.1481 5.83144 15.4529 6.49336C15.8966 6.26481 16.3838 6.10867 16.8988 6.03984C16.9645 5.87263 17 5.69046 17 5.5C17 4.67157 16.3284 4 15.5 4Z"></path></symbol><symbol viewBox="0 0 24 24" id="exchange-line"><path d="M12.0049 22.0029C6.48204 22.0029 2.00488 17.5258 2.00488 12.0029C2.00488 6.48008 6.48204 2.00293 12.0049 2.00293C17.5277 2.00293 22.0049 6.48008 22.0049 12.0029C22.0049 17.5258 17.5277 22.0029 12.0049 22.0029ZM12.0049 20.0029C16.4232 20.0029 20.0049 16.4212 20.0049 12.0029C20.0049 7.58465 16.4232 4.00293 12.0049 4.00293C7.5866 4.00293 4.00488 7.58465 4.00488 12.0029C4.00488 16.4212 7.5866 20.0029 12.0049 20.0029ZM7.00488 13.0029H16.0049V15.0029H12.0049V18.0029L7.00488 13.0029ZM12.0049 9.00293V6.00293L17.0049 11.0029H8.00488V9.00293H12.0049Z"></path></symbol><symbol viewBox="0 0 24 24" id="github-fill"><path d="M12.001 2C6.47598 2 2.00098 6.475 2.00098 12C2.00098 16.425 4.86348 20.1625 8.83848 21.4875C9.33848 21.575 9.52598 21.275 9.52598 21.0125C9.52598 20.775 9.51348 19.9875 9.51348 19.15C7.00098 19.6125 6.35098 18.5375 6.15098 17.975C6.03848 17.6875 5.55098 16.8 5.12598 16.5625C4.77598 16.375 4.27598 15.9125 5.11348 15.9C5.90098 15.8875 6.46348 16.625 6.65098 16.925C7.55098 18.4375 8.98848 18.0125 9.56348 17.75C9.65098 17.1 9.91348 16.6625 10.201 16.4125C7.97598 16.1625 5.65098 15.3 5.65098 11.475C5.65098 10.3875 6.03848 9.4875 6.67598 8.7875C6.57598 8.5375 6.22598 7.5125 6.77598 6.1375C6.77598 6.1375 7.61348 5.875 9.52598 7.1625C10.326 6.9375 11.176 6.825 12.026 6.825C12.876 6.825 13.726 6.9375 14.526 7.1625C16.4385 5.8625 17.276 6.1375 17.276 6.1375C17.826 7.5125 17.476 8.5375 17.376 8.7875C18.0135 9.4875 18.401 10.375 18.401 11.475C18.401 15.3125 16.0635 16.1625 13.8385 16.4125C14.201 16.725 14.5135 17.325 14.5135 18.2625C14.5135 19.6 14.501 20.675 14.501 21.0125C14.501 21.275 14.6885 21.5875 15.1885 21.4875C19.259 20.1133 21.9999 16.2963 22.001 12C22.001 6.475 17.526 2 12.001 2Z"></path></symbol><symbol viewBox="0 0 24 24" id="book-3-line"><path d="M21 4H7C5.89543 4 5 4.89543 5 6C5 7.10457 5.89543 8 7 8H21V21C21 21.5523 20.5523 22 20 22H7C4.79086 22 3 20.2091 3 18V6C3 3.79086 4.79086 2 7 2H20C20.5523 2 21 2.44772 21 3V4ZM5 18C5 19.1046 5.89543 20 7 20H19V10H7C6.27143 10 5.58835 9.80521 5 9.46487V18ZM20 7H7C6.44772 7 6 6.55228 6 6C6 5.44772 6.44772 5 7 5H20V7Z"></path></symbol><symbol viewBox="0 0 24 24" id="menu-fill"><path d="M3 4H21V6H3V4ZM3 11H21V13H3V11ZM3 18H21V20H3V18Z"></path></symbol><symbol viewBox="0 0 24 24" id="arrow-right-s-line"><path d="M13.1714 12.0007L8.22168 7.05093L9.63589 5.63672L15.9999 12.0007L9.63589 18.3646L8.22168 16.9504L13.1714 12.0007Z"></path></symbol><symbol viewBox="0 0 24 24" id="price-tag-line"><path d="M3.00488 6.99981L11.4502 1.36961C11.7861 1.14568 12.2237 1.14568 12.5596 1.36961L21.0049 6.99981V20.9998C21.0049 21.5521 20.5572 21.9998 20.0049 21.9998H4.00488C3.4526 21.9998 3.00488 21.5521 3.00488 20.9998V6.99981ZM5.00488 8.07018V19.9998H19.0049V8.07018L12.0049 3.40351L5.00488 8.07018ZM12.0049 10.9998C10.9003 10.9998 10.0049 10.1044 10.0049 8.99981C10.0049 7.89524 10.9003 6.99981 12.0049 6.99981C13.1095 6.99981 14.0049 7.89524 14.0049 8.99981C14.0049 10.1044 13.1095 10.9998 12.0049 10.9998Z"></path></symbol><symbol viewBox="0 0 24 24" id="sparkling-2-line"><path d="M17.0007 1.20801 18.3195 3.68083 20.7923 4.99968 18.3195 6.31852 17.0007 8.79134 15.6818 6.31852 13.209 4.99968 15.6818 3.68083 17.0007 1.20801ZM10.6673 9.33301 15.6673 11.9997 10.6673 14.6663 8.00065 19.6663 5.33398 14.6663.333984 11.9997 5.33398 9.33301 8.00065 4.33301 10.6673 9.33301ZM11.4173 11.9997 9.18905 10.8113 8.00065 8.58301 6.81224 10.8113 4.58398 11.9997 6.81224 13.1881 8.00065 15.4163 9.18905 13.1881 11.4173 11.9997ZM19.6673 16.333 18.0007 13.208 16.334 16.333 13.209 17.9997 16.334 19.6663 18.0007 22.7913 19.6673 19.6663 22.7923 17.9997 19.6673 16.333Z"></path></symbol></svg>