<svg xmlns="http://www.w3.org/2000/svg">
  <g>
    <path
      d="M17.89,40.65a10.61,10.61,0,0,1-10.6-10.6V7.29H33.11a10.61,10.61,0,0,1,10.6,10.6V31H51V17.89A17.89,17.89,0,0,0,33.11,0H0V30.05A17.89,17.89,0,0,0,17.89,47.94H43.71V40.65Z"
      fill="#36f"></path>
    <path d="M33.31,16.39H29.14v2.77h3.5v1.78h-3.5V31h7.29V19.52A3.13,3.13,0,0,0,33.31,16.39Z" fill="#36f"></path>
    <path d="M18.73,16.39H14.57v2.77h3.87v1.78H14.57V31h7.29V19.52A3.13,3.13,0,0,0,18.73,16.39Z" fill="#36f"></path>
  </g>
</svg>