<?xml version="1.0" encoding="utf-8"?>
<!-- Generator: Adobe Illustrator 16.0.4, SVG Export Plug-In . SVG Version: 6.00 Build 0)  -->
<!DOCTYPE svg PUBLIC "-//W3C//DTD SVG 1.1//EN" "http://www.w3.org/Graphics/SVG/1.1/DTD/svg11.dtd">
<svg version="1.1" id="Layer_1" xmlns="http://www.w3.org/2000/svg" xmlns:xlink="http://www.w3.org/1999/xlink" x="0px" y="0px"
	 width="51.243px" height="26.476px" viewBox="0 0 51.243 26.476" enable-background="new 0 0 51.243 26.476" xml:space="preserve">
<g>
	<path fill="#4EB7D9" d="M25.621,0C11.496,0,0,11.496,0,25.621c0,0.471,0.384,0.854,0.854,0.854c0.47,0,0.854-0.384,0.854-0.854
		c0-13.186,10.727-23.913,23.913-23.913c13.188,0,23.914,10.727,23.914,23.913c0,0.471,0.385,0.854,0.854,0.854
		c0.471,0,0.854-0.384,0.854-0.854C51.243,11.496,39.748,0,25.621,0z"/>
	<path fill="#FFE538" d="M25.621,5.218c-11.256,0-20.403,9.147-20.403,20.403c0,0.471,0.384,0.854,0.854,0.854
		s0.854-0.384,0.854-0.854c0-10.309,8.387-18.695,18.695-18.695c10.309,0,18.695,8.386,18.695,18.695
		c0,0.471,0.385,0.854,0.854,0.854c0.471,0,0.855-0.384,0.855-0.854C46.025,14.365,36.878,5.218,25.621,5.218z"/>
	<path fill="#FA5A5A" d="M25.621,10.428c-8.378,0-15.193,6.815-15.193,15.193c0,0.471,0.384,0.854,0.854,0.854
		c0.469,0,0.854-0.384,0.854-0.854c0-7.438,6.047-13.485,13.485-13.485c7.439,0,13.486,6.047,13.486,13.485
		c0,0.471,0.384,0.854,0.854,0.854s0.854-0.384,0.854-0.854C40.814,17.243,34,10.428,25.621,10.428z"/>
	<path fill="#FFE538" d="M25.621,15.646c-5.5,0-9.975,4.475-9.975,9.975c0,0.471,0.384,0.854,0.854,0.854s0.854-0.384,0.854-0.854
		c0-4.561,3.707-8.267,8.267-8.267c4.561,0,8.268,3.706,8.268,8.267c0,0.471,0.385,0.854,0.854,0.854
		c0.471,0,0.854-0.384,0.854-0.854C35.597,20.121,31.121,15.646,25.621,15.646z"/>
	<path fill="#4EB7D9" d="M25.621,20.855c-2.63,0-4.765,2.136-4.765,4.766c0,0.471,0.384,0.854,0.854,0.854
		c0.47,0,0.854-0.384,0.854-0.854c0-1.682,1.375-3.057,3.057-3.057c1.683,0,3.058,1.375,3.058,3.057
		c0,0.471,0.384,0.854,0.854,0.854c0.47,0,0.854-0.384,0.854-0.854C30.387,22.991,28.252,20.855,25.621,20.855z"/>
</g>
</svg>
