<?xml version="1.0" standalone="no"?><!DOCTYPE svg PUBLIC "-//W3C//DTD SVG 1.1//EN" "http://www.w3.org/Graphics/SVG/1.1/DTD/svg11.dtd"><svg t="1656526227242" class="icon" viewBox="0 0 1024 1024" version="1.1" xmlns="http://www.w3.org/2000/svg" p-id="1710" xmlns:xlink="http://www.w3.org/1999/xlink" width="200" height="200"><defs><style type="text/css"></style></defs><path d="M304.859429 455.153371h138.971428v47.8208h-138.971428z m0-118.418285h227.722971v47.8208H304.859429z" fill="#F2B53B" p-id="1711"></path><path d="M512 0a512 512 0 1 0 512 512A512.775314 512.775314 0 0 0 512 0z m-25.073371 723.631543v77.370514h-204.8a33.060571 33.060571 0 0 1-34.128458-31.861028V250.309486a31.714743 31.714743 0 0 1 34.128458-31.861029h318.581028l143.36 143.36v84.158172s-113.781029-40.96-168.3456 47.835428a118.769371 118.769371 0 0 0 6.831543 138.810514 99.620571 99.620571 0 0 0-68.271543 27.311543c-27.311543 20.48-27.311543 63.722057-27.311543 63.722057z m323.130514 79.637943H552.96v-31.861029h257.141029v31.861029z m15.930514-50.058972H537.029486v-40.96a40.784457 40.784457 0 0 1 40.96-40.96h72.777143v-38.677943a80.1792 80.1792 0 0 1-47.791543-75.088457 81.92 81.92 0 1 1 116.048457 75.088457v38.634058h72.821028a40.784457 40.784457 0 0 1 40.96 40.96v40.96z" fill="#FEB31E" p-id="1712"></path><path d="M598.4256 254.844343v107.022628h107.022629z" fill="#F2B53B" p-id="1713"></path></svg>