<svg version="1" xmlns="http://www.w3.org/2000/svg" width="933.333" height="933.333" viewBox="0 0 700.000000 700.000000"><path d="M554 70.1c-23.3 5.6-40 17.9-40 29.4 0 3.2 10.8 26 14.3 30.1 3.9 4.6 9.1 4.5 20.5-.5 13.6-6 18.6-7.1 31.7-7.1 14.9-.1 24.3 3.4 35.9 13 6.7 5.7 11.9 12.6 16.2 21.5 4.3 9.1 4.8 11.7 4.9 25.5 0 14.1-1.8 21.7-8.6 35.5-11.9 24.4-30.2 41.4-56.2 52.4-19.7 8.4-47.8 8.8-70.7 1.1-5.9-1.9-14.2-5.4-17.4-7.2-1.1-.5-4-2.2-6.5-3.6s-10.9-6.6-18.6-11.7c-27.8-18.2-46.3-28.2-66.5-35.9-5.2-2-10.4-4.1-11.5-4.5-7.8-3.4-35.4-10-48-11.6-2.7-.3-6.3-.8-8-1-13-1.7-41.7-2.2-54.8-1-29.1 2.7-39.2 4.5-66.1 12.1-42.9 12.1-65.4 24.3-72.8 39.4-2.6 5.3-3.2 17-1.2 23.6 1.1 3.9 6 15.1 8.8 20.4.7 1.4 4.4 8.3 8.1 15.5 3.8 7.1 7.7 14.2 8.7 15.8 1.1 1.5 1.6 2.7 1.3 2.7-.3 0 .2 1.2 1.3 2.7 1 1.6 3.4 5.5 5.1 8.8 1.8 3.3 5.2 9 7.4 12.8 2.3 3.7 5.6 9 7.2 11.7 7.2 11.8 17.4 20.7 27.6 23.9 4.2 1.3 15.6 1.7 21.3.8 21.2-3.8 48-20.4 75.8-47 2.6-2.5 2.2-.6-.6 2.9-1.3 1.6-5.2 6.5-8.7 10.9-9.6 12.1-26.7 28.5-36.1 34.8-16.2 10.8-27.8 14.7-42.5 14.2-12.6-.4-15.2-1-24-5.2-17.7-8.5-27.7-22.2-51.2-70.3-10.6-21.7-10.6-21.6-13.3-21.2-3.7.4-25.6 11.5-33.7 17-20.3 13.8-36.9 31.1-51 53.1-5.6 8.8-18.1 33.8-18.1 36.3 0 .8-.4 1.8-.9 2.3-.7.8-2.8 6.4-3.6 9.5-.1.3-.5 1.2-.8 2-2.1 5-9.4 33.4-11.3 44-2.1 11.5-3 17.5-3.9 25-.4 3-.8 6.6-1 8-1.4 8.9-1.9 24.5-2 52.5 0 28.1.4 40 1.9 53.5.2 1.9.7 6.8 1.1 10.7.4 4 .8 8.1 1 9 .2 1 .4 2.8.4 4L5 633h84.9l1.1-4.3c8-31.7 22.9-55.3 40.7-64.3 5.3-2.6 6.7-2.9 15.8-2.9 9.1 0 10.5.3 15.6 2.9 17.6 9 30.4 31.4 36.6 63.6l.8 4.5H265.2l3.8-11c11.1-32.2 24.2-52.2 42.6-64.7 25.3-17.2 58-10.4 98.9 20.5 12.3 9.4 47.4 45.1 52.9 53.9 1 1.7 4.2 1.8 43.5 1.8h42.3l-.7-4.6c-.3-2.5-.8-5.5-1.1-6.7-.2-1.2-.6-5.1-1-8.7-.3-3.6-.8-7.4-1-8.5-.7-2.9-.6-36.3.1-41 2.2-16.1 2.2-16.6 4.5-26 6.4-27.3 19-52.7 42.4-85.5 4.1-5.8 7.8-11 8.3-11.5.5-.6 2.4-3.3 4.3-6 1.9-2.8 3.7-5.2 4-5.5.7-.7 6.4-8.7 14.4-20.3 23.9-34.8 48.4-82.5 61.5-120.1 3.9-11.1 9.4-30.3 10.6-37.1.3-1.7 1.2-7.1 2.1-12 2.3-12.3 2.7-48.7.7-58.2-.7-3.7-1.5-7.5-1.7-8.3-1.4-6.8-5.7-21.3-6.8-22.5-.4-.5-.8-1.5-.8-2.2 0-1.8-9.4-20.8-12.8-25.9-1.5-2.3-4-6.1-5.6-8.5-4.6-6.8-19.3-21-27.3-26.2-11.4-7.5-30.5-15.9-39.1-17.3-1.5-.2-3.8-.7-5.2-1-1.4-.4-10.4-.7-20-.9-14.2-.2-18.9.1-25 1.6z"/></svg>