<svg width="100" height="100" viewBox="0 0 100 100" fill="none" xmlns="http://www.w3.org/2000/svg">
<path d="M0 16C0 7.16345 7.16344 0 16 0H84C92.8366 0 100 7.16344 100 16V84C100 92.8366 92.8366 100 84 100H16C7.16345 100 0 92.8366 0 84V16Z" fill="#1681FF"/>
<path d="M30.9605 70.3324C32.5741 58.4791 27.5988 53.7199 24.9095 52.8219C50.1892 37.1972 65.9218 42.7198 72.6451 49.4545C79.3685 56.1893 82.8646 62.52 88.7811 101.312C94.6977 140.105 106.038 155.191 110.968 157.885C123.742 163.272 139.341 174.183 99.5385 174.722C49.7858 175.395 30.9605 149.129 24.9095 132.292C18.8585 115.455 28.9435 85.1489 30.9605 70.3324Z" fill="url(#paint0_linear_0_18)"/>
<path d="M65.3964 20.6752L61.7424 32.6162C61.635 32.967 61.3465 33.2292 60.9841 33.2861C59.7028 33.4874 56.3277 33.9203 51 33.9203C45.6723 33.9203 42.2972 33.4874 41.0159 33.2861C40.6535 33.2292 40.365 32.967 40.2576 32.6162L36.6036 20.6752C36.3591 19.8764 37.1439 19.1477 37.9224 19.4506L44.8636 22.151L51 24.1855L57.1364 22.151L64.0776 19.4506C64.8561 19.1477 65.6409 19.8764 65.3964 20.6752Z" fill="url(#paint1_linear_0_18)"/>
<path d="M51.8413 14.4773L56.8911 22.231L51 24.1855L45.1445 22.248L50.1634 14.4803C50.5565 13.8719 51.446 13.8703 51.8413 14.4773Z" fill="url(#paint2_linear_0_18)"/>
<path d="M46.5 61C48.433 61 50 59.433 50 57.5C50 55.567 48.433 54 46.5 54C44.567 54 43 55.567 43 57.5C43 59.433 44.567 61 46.5 61Z" fill="#1681FF"/>
<defs>
<linearGradient id="paint0_linear_0_18" x1="74" y1="42.7342" x2="74" y2="128.734" gradientUnits="userSpaceOnUse">
<stop stop-color="white"/>
<stop offset="1" stop-color="#78B6FF"/>
</linearGradient>
<linearGradient id="paint1_linear_0_18" x1="51" y1="18.7027" x2="51" y2="33.1855" gradientUnits="userSpaceOnUse">
<stop stop-color="white"/>
<stop offset="1" stop-color="white"/>
</linearGradient>
<linearGradient id="paint2_linear_0_18" x1="51" y1="13.1855" x2="51" y2="24.1855" gradientUnits="userSpaceOnUse">
<stop stop-color="white"/>
<stop offset="0.0001" stop-color="white"/>
<stop offset="1" stop-color="#E1EFFF"/>
</linearGradient>
</defs>
</svg>
