<?xml version="1.0" encoding="utf-8"?>
<svg width="100%" height="100%" viewBox="0 0 50 50" fill="none" xmlns="http://www.w3.org/2000/svg">
    <path d="M24.6178 47.452C35.7512 47.452 44.7766 38.4266 44.7766 27.2933C44.7766 16.1599 35.7512 7.13446 24.6178 7.13446C13.4844 7.13446 4.45898 16.1599 4.45898 27.2933C4.45898 38.4266 13.4844 47.452 24.6178 47.452Z"
          fill="#312E81"></path>
    <path d="M39.7024 29.6068C40.025 29.3266 40.2864 28.983 40.4705 28.5974C40.6545 28.2119 40.7573 27.7925 40.7723 27.3655C40.7873 26.9385 40.7143 26.513 40.5578 26.1154C40.4013 25.7179 40.1647 25.3568 39.8626 25.0546C39.5605 24.7524 39.1995 24.5157 38.802 24.359C38.4045 24.2024 37.979 24.1292 37.552 24.1441C37.125 24.159 36.7056 24.2616 36.32 24.4455C35.9343 24.6294 35.5907 24.8907 35.3104 25.2132C36.5232 24.0004 37.4387 21.1185 36.2258 19.9057C35.0114 18.6929 32.1296 19.6083 30.9167 20.8212C32.1296 19.6083 33.045 16.7265 31.8322 15.5121C30.6194 14.2977 27.7375 15.2147 26.5247 16.4276C26.8177 16.1328 27.0488 15.7824 27.2042 15.397C27.3597 15.0115 27.4364 14.5989 27.4299 14.1833C27.4234 13.7677 27.3337 13.3577 27.1662 12.9773C26.9987 12.597 26.7568 12.254 26.4547 11.9686C25.2169 10.8025 23.2412 10.9239 22.0393 12.1243L18.2451 15.9216C18.1716 15.9937 18.1024 16.0701 18.038 16.1504L18.0271 16.1395L11.9349 22.2302C11.3085 22.8565 10.8116 23.6 10.4725 24.4184C10.1335 25.2368 9.95901 26.1139 9.95901 26.9997C9.95901 27.8856 10.1335 28.7627 10.4725 29.5811C10.8116 30.3995 11.3085 31.143 11.9349 31.7693L11.0708 30.9052L5.5 33.7046C6.84673 38.0483 6.06079 37.812 9.5 41.259C12.9392 44.706 13.6802 45.1517 18.0271 46.5L20.8327 40.6608L19.9686 39.7968C20.5947 40.4231 21.3382 40.92 22.1564 41.259C22.9747 41.598 23.8517 41.7725 24.7374 41.7725C25.6231 41.7725 26.5001 41.598 27.3183 41.259C28.1366 40.92 28.88 40.4231 29.5062 39.7968L35.5984 33.7046L35.5875 33.6937C35.6678 33.6293 35.7442 33.5601 35.8164 33.4866L39.7024 29.6068Z"
          fill="#FBBF24"></path>
    <path opacity="0.6"
          d="M29.8145 39.4884L32.248 36.879L17.9587 22.2737L17.476 27.1904L23.1899 32.9042L20.3874 32.775L14.876 27.4971L15.3181 30.0146L18.7169 33.4134C19.3974 34.0937 20.3092 34.4929 21.2707 34.5315C22.2322 34.5702 23.1731 34.2455 23.906 33.622L29.8145 39.4884Z"
          fill="#D0830B"></path>
    <path opacity="0.6"
          d="M19.7681 39.8154L19.0566 39.339L15.7847 45.9271L17.5004 46.5L20.7489 40.7963L19.7681 39.8154Z"
          fill="#D0830B"></path>
    <path d="M18.0274 16.1333L11.9353 22.2255C11.3089 22.8517 10.812 23.5951 10.473 24.4133C10.134 25.2316 9.95947 26.1086 9.95947 26.9943C9.95947 27.88 10.134 28.757 10.473 29.5752C10.812 30.3935 11.3089 31.1369 11.9353 31.7631"
          stroke="#0F172A" stroke-width="0.862527" stroke-miterlimit="10"></path>
    <path d="M35.5986 33.7046L29.5064 39.7968C28.8802 40.4232 28.1368 40.92 27.3185 41.2591C26.5003 41.5981 25.6233 41.7726 24.7376 41.7726C23.8519 41.7726 22.9749 41.5981 22.1566 41.2591C21.3384 40.92 20.5949 40.4232 19.9688 39.7968"
          stroke="#0F172A" stroke-width="0.862527" stroke-miterlimit="10"></path>
    <path d="M20.833 40.6593L18 46.5" stroke="#0F172A" stroke-width="0.862527" stroke-miterlimit="10"></path>
    <path d="M11.0709 30.899L5.5 34" stroke="#0F172A" stroke-width="0.862527" stroke-miterlimit="10"></path>
    <path d="M9.68359 34.1577L6.5 36" stroke="#0F172A" stroke-width="0.862527" stroke-miterlimit="10"
          stroke-linecap="round"></path>
    <path d="M12.0977 22.0806L13.0629 21.1154" stroke="#0F172A" stroke-width="0.862527" stroke-miterlimit="10"></path>
    <path d="M13.1722 33.6095L11.6309 32.0682L12.2412 31.4579L14.7416 33.9583C14.7602 33.9762 14.7721 34.0001 14.7752 34.0258C14.7782 34.0516 14.7723 34.0776 14.7583 34.0994C14.7444 34.1212 14.7233 34.1376 14.6987 34.1456C14.674 34.1537 14.6474 34.1529 14.6232 34.1436L13.1722 33.6095Z"
          fill="#0F172A"></path>
    <path d="M19.19 32.0293L14.8789 27.7166Z" fill="#FBBF24"></path>
    <path d="M19.6635 40.1018L18.6312 39.0696C18.6128 39.0522 18.6009 39.029 18.5973 39.004C18.5937 38.9789 18.5988 38.9533 18.6116 38.9315C18.6244 38.9096 18.6443 38.8927 18.6679 38.8836C18.6915 38.8745 18.7176 38.8736 18.7418 38.8812L20.034 39.2518L20.2738 39.4915L19.6635 40.1018Z"
          fill="#0F172A"></path>
    <path d="M24.6178 47.452C35.7512 47.452 44.7766 38.4266 44.7766 27.2933C44.7766 16.1599 35.7512 7.13446 24.6178 7.13446C13.4844 7.13446 4.45898 16.1599 4.45898 27.2933C4.45898 38.4266 13.4844 47.452 24.6178 47.452Z"
          stroke="#1B1966" stroke-width="1.51676" stroke-miterlimit="10"></path>
    <path d="M14.9494 12.9072L3 1L10.4104 22.3794L10.7439 16.1015L36.8456 42.2032L37.2121 37.1606L49.2366 49.1429L41.6074 27.2876L41.0537 33.5774L15.2131 7.96608L14.9494 12.9072Z"
          fill="#FDE047" stroke="#0F172A" stroke-width="0.833187" stroke-linecap="round" stroke-linejoin="round"></path>
    <path d="M26.5171 16.4258C27.7301 15.2128 27.7301 13.2462 26.5171 12.0332C25.3041 10.8202 23.3375 10.8202 22.1245 12.0332L18.2438 15.9139C17.0309 17.1268 17.0309 19.0935 18.2438 20.3064C19.4568 21.5194 21.4234 21.5194 22.6364 20.3064L26.5171 16.4258Z"
          fill="#FBBF24" stroke="#0F172A" stroke-width="0.862527" stroke-miterlimit="10"></path>
    <path d="M31.9639 19.7669C33.1769 18.5539 33.1769 16.5873 31.9639 15.3743C30.7509 14.1613 28.7843 14.1613 27.5713 15.3743L22.6381 20.3074C21.4252 21.5204 21.4252 23.487 22.6381 24.7C23.8511 25.913 25.8178 25.913 27.0307 24.7L31.9639 19.7669Z"
          fill="#FBBF24" stroke="#0F172A" stroke-width="0.862527" stroke-miterlimit="10"></path>
    <path d="M36.3579 24.1607C37.5709 22.9477 37.5709 20.9811 36.3579 19.7681C35.1449 18.5552 33.1783 18.5552 31.9653 19.7681L27.0322 24.7013C25.8192 25.9142 25.8192 27.8809 27.0322 29.0939C28.2452 30.3068 30.2118 30.3068 31.4248 29.0939L36.3579 24.1607Z"
          fill="#FBBF24" stroke="#0F172A" stroke-width="0.862527" stroke-miterlimit="10"></path>
    <path d="M39.6973 29.6056C40.9103 28.3926 40.9103 26.426 39.6973 25.213C38.4843 24 36.5177 24 35.3047 25.213L31.424 29.0937C30.211 30.3067 30.211 32.2733 31.424 33.4863C32.637 34.6993 34.6036 34.6993 35.8166 33.4863L39.6973 29.6056Z"
          fill="#FBBF24" stroke="#0F172A" stroke-width="0.862527" stroke-miterlimit="10"></path>
    <path d="M12.8564 21.3022C13.44 20.7213 14.2299 20.3951 15.0532 20.3951C15.8766 20.3951 16.6665 20.7213 17.25 21.3022L23.5835 27.6357C24.1644 28.2192 24.4906 29.0091 24.4906 29.8325C24.4906 30.6559 24.1644 31.4457 23.5835 32.0293C23 32.6102 22.2101 32.9363 21.3867 32.9363C20.5634 32.9363 19.7735 32.6102 19.1899 32.0293"
          fill="#FBBF24"></path>
    <path d="M12.8564 21.3022C13.44 20.7213 14.2299 20.3951 15.0532 20.3951C15.8766 20.3951 16.6665 20.7213 17.25 21.3022L23.5835 27.6357C24.1644 28.2192 24.4906 29.0091 24.4906 29.8325C24.4906 30.6559 24.1644 31.4457 23.5835 32.0293C23 32.6102 22.2101 32.9363 21.3867 32.9363C20.5634 32.9363 19.7735 32.6102 19.1899 32.0293"
          stroke="#0F172A" stroke-width="0.862527" stroke-miterlimit="10"></path>
    <path d="M22.313 16.5691L21.9816 16.2377C21.4867 15.7428 20.6842 15.7428 20.1893 16.2377L19.1314 17.2957C18.6364 17.7906 18.6364 18.593 19.1313 19.0879L19.4627 19.4193C19.9576 19.9142 20.7601 19.9142 21.255 19.4193L22.313 18.3614C22.8079 17.8664 22.8079 17.064 22.313 16.5691Z"
          fill="#F59E0B"></path>
    <path d="M21.5713 27.892C20.9845 27.3053 20.0335 27.305 19.4471 27.8915C18.8606 28.4779 18.8609 29.4289 19.4476 30.0156L20.1731 30.7411C20.7598 31.3279 21.7109 31.3281 22.2973 30.7417C22.8837 30.1553 22.8835 29.2042 22.2968 28.6175L21.5713 27.892Z"
          fill="#F59E0B"></path>
    <path d="M26.7094 20.9614L26.3781 20.63C25.8831 20.1351 25.0807 20.1351 24.5858 20.6301L23.5278 21.688C23.0329 22.1829 23.0329 22.9854 23.5278 23.4803L23.8592 23.8117C24.3541 24.3066 25.1565 24.3066 25.6515 23.8116L26.7094 22.7537C27.2044 22.2588 27.2044 21.4563 26.7094 20.9614Z"
          fill="#F59E0B"></path>
    <path d="M31.1015 25.3549L30.7702 25.0235C30.2752 24.5286 29.4728 24.5286 28.9779 25.0235L27.9199 26.0815C27.425 26.5764 27.425 27.3789 27.9199 27.8738L28.2513 28.2051C28.7462 28.7001 29.5486 28.7001 30.0436 28.2051L31.1015 27.1472C31.5964 26.6523 31.5964 25.8498 31.1015 25.3549Z"
          fill="#F59E0B"></path>
    <path d="M35.4946 29.7462L35.1632 29.4149C34.6683 28.9199 33.8659 28.9199 33.371 29.4149L32.313 30.4728C31.8181 30.9678 31.8181 31.7702 32.313 32.2651L32.6444 32.5965C33.1393 33.0914 33.9417 33.0914 34.4366 32.5965L35.4946 31.5385C35.9895 31.0436 35.9895 30.2412 35.4946 29.7462Z"
          fill="#F59E0B"></path>
    <path d="M18.8863 32.3346L14.5752 28.0219L14.3682 26.8854C14.3643 26.8618 14.368 26.8376 14.3788 26.8162C14.3895 26.7948 14.4067 26.7774 14.4279 26.7663C14.4491 26.7553 14.4733 26.7512 14.4969 26.7547C14.5206 26.7582 14.5425 26.769 14.5597 26.7857L19.4966 31.7242L18.8863 32.3346Z"
          fill="#0F172A"></path>

    <defs>
        <clipPath id="clip0_444_4251">
            <rect width="146" height="20" fill="white" transform="translate(50 17)"></rect>
        </clipPath>
    </defs>
</svg>
