<svg width="64" height="64" viewBox="0 0 64 64" fill="none" xmlns="http://www.w3.org/2000/svg">
<path d="M20.9379 27.7689H3.12012V20.5155H20.9379C21.1601 20.5155 21.3423 20.3333 21.3423 20.1111V3.23553H28.5957V20.1111C28.5912 24.3333 25.1557 27.7689 20.9379 27.7689Z" fill="#293B8F"/>
<path d="M28.391 60.9555H21.1377V46.1022C21.1377 32.5511 32.1644 21.5244 45.7155 21.5244H61.0266V28.7777H45.7155C36.1644 28.7777 28.391 36.5511 28.391 46.1022V60.9555Z" fill="#EF5B35"/>
<path d="M42.0888 60.9556H34.8354V51.7422C34.8354 42.6356 42.2443 35.2222 51.3555 35.2222H61.3332V42.4756H51.3555C46.2443 42.4756 42.0888 46.6311 42.0888 51.7422V60.9556Z" fill="#FBB04C"/>
<path d="M17.5111 35.2222H3.00439V42.4756H17.5111V35.2222Z" fill="#1A9248"/>
<path d="M42.8935 2.98669H35.6401V17.8934H42.8935V2.98669Z" fill="#1A9248"/>
</svg>
