<?xml version="1.0" encoding="UTF-8"?>
<svg width="512px" height="512px" viewBox="0 0 512 512" version="1.1" xmlns="http://www.w3.org/2000/svg" xmlns:xlink="http://www.w3.org/1999/xlink">
  <defs>
    <rect id="path-1" x="0" y="0" width="512" height="512" rx="71.1111111"></rect>
  </defs>
  <g stroke="none" stroke-width="1" fill="none" fill-rule="evenodd">
    <g>
      <mask id="mask-2" fill="white">
        <use xlink:href="#path-1"></use>
      </mask>
      <rect id="Background" fill="#e02443" mask="url(#mask-2)" x="0" y="0" width="512" height="512"></rect>
      <g>
        <g transform="translate(77.000000, 133.000000)">
          <g>
            <path d="M101.757375,95.6621571 L90.6250238,92.2128496 C70.0488974,85.7224365 59.7608342,77.762496 59.7608342,68.333028 C59.6429502,62.7226987 62.2449949,57.4011077 66.7466402,54.0459552 C71.4038442,50.3721365 77.6543022,48.5420305 85.4980142,48.5556373 C92.7046507,49.0033643 99.8237426,50.3752901 106.680122,52.637658 C115.974103,55.3317918 122.714793,56.7196788 126.861339,56.7196788 C134.276098,56.7196788 140.077177,54.6786684 144.285001,50.7803386 C148.607761,46.428567 150.885869,40.4523568 150.555886,34.3297948 C150.555886,24.5737651 144.618632,16.4097236 132.744123,9.8376701 C120.869615,3.26561663 105.774554,-0.013606736 87.4589422,-1.20628002e-13 C62.5388156,-1.20628002e-13 42.3099368,6.80336798 26.772306,20.4101039 C11.2346751,34.0168399 3.47266846,51.6375629 3.48628601,73.2722731 C3.48628601,90.0085583 8.30690067,103.322749 17.94813,113.214847 C27.5893593,123.106944 44.5568335,131.66558 68.8505526,138.890757 C85.6001459,143.96607 96.4941903,148.728427 101.532686,153.17783 C106.39568,157.62809 109.176705,163.906127 109.203858,170.49515 C109.231011,177.084174 106.501822,183.384882 101.67567,187.875007 C96.585825,192.461846 89.9181097,194.904489 83.0672805,194.691981 C72.3412673,194.271787 61.7354346,192.277467 51.5903009,188.773051 C39.1098113,184.854311 30.8575726,182.894941 26.9357166,182.894941 C18.9830642,182.894941 12.6509009,185.065216 7.93922667,189.405764 C3.18107654,193.798986 0.565218883,200.039291 0.769583684,206.509432 C0.769583684,216.469562 8.08901978,225.157463 22.727892,232.573134 C37.3667642,239.988805 55.0151161,243.696641 75.6729479,243.696641 C102.608473,243.696641 124.314856,236.519088 140.792098,222.163981 C157.269341,207.808875 165.51477,189.031579 165.528388,165.832094 C165.528388,148.973349 160.435422,134.910787 150.249491,123.64441 C140.063559,112.378032 123.899521,103.050615 101.757375,95.6621571 Z" fill="#FFFFFF"></path>
            <path d="M333.637111,62.1487665 C328.66914,61.9967643 323.831148,63.7493256 320.114878,67.0471914 C315.828902,71.4457317 312.619936,76.775788 310.739191,82.6201007 L279.241785,164.260516 L250.297671,86.9266326 C246.797959,77.4019175 243.114411,70.884291 239.247025,67.3737531 C235.092974,63.782007 229.721978,61.9127788 224.23367,62.1487665 C217.580693,62.0087729 211.172981,64.6586437 206.564892,69.4555837 C201.813352,74.2735188 199.231793,80.8180987 199.415675,87.579756 C199.382521,90.2671461 199.594469,92.9519663 200.048891,95.6009268 C200.433688,97.7658683 201.078367,99.8765429 201.968967,101.887239 L253.811001,222.633414 L232.649319,268.413277 C231.307689,271.267834 230.253936,274.248816 229.503664,277.312082 C228.768085,280.166105 228.390705,283.10048 228.380216,286.047607 C228.040331,292.770761 230.520061,299.331276 235.223037,304.151369 C239.771301,308.614378 245.974097,310.83908 253.831427,310.825473 C258.39457,310.932147 262.829879,309.313962 266.250637,306.29443 C269.620982,303.294144 272.970901,297.844647 276.259541,289.966347 L354.451545,104.458912 C355.72622,101.300954 356.790707,98.0623024 357.638053,94.7641126 C358.343396,92.0985391 358.720665,89.3569415 358.761501,86.600071 C359.077113,79.9356527 356.571204,73.4462065 351.8574,68.7208199 C346.901299,64.1945849 340.343833,61.8293085 333.637111,62.1487665 L333.637111,62.1487665 Z" fill="#FFFFFF"></path>
          </g>
        </g>
      </g>
    </g>
  </g>
</svg>