<?xml version="1.0" encoding="UTF-8" standalone="no"?>
<!DOCTYPE svg PUBLIC "-//W3C//DTD SVG 1.1//EN" "http://www.w3.org/Graphics/SVG/1.1/DTD/svg11.dtd">
<svg xmlns="http://www.w3.org/2000/svg" version="1.1" viewBox="0 0 180 180">
<g stroke-width="2.00" fill="none" stroke-linecap="butt">
<path stroke="#a7d5d6" vector-effect="non-scaling-stroke" d="
  M 82.13 22.00
  A 7.60 7.60 0.0 0 0 74.53 14.40
  A 7.60 7.60 0.0 0 0 66.93 22.00
  A 7.60 7.60 0.0 0 0 74.53 29.60
  A 7.60 7.60 0.0 0 0 82.13 22.00"
/>
<path stroke="#a7d5d6" vector-effect="non-scaling-stroke" d="
  M 111.63 22.02
  A 7.59 7.59 0.0 0 0 104.04 14.43
  A 7.59 7.59 0.0 0 0 96.45 22.02
  A 7.59 7.59 0.0 0 0 104.04 29.61
  A 7.59 7.59 0.0 0 0 111.63 22.02"
/>
<path stroke="#a7d5d6" vector-effect="non-scaling-stroke" d="
  M 56.73 33.00
  A 7.60 7.60 0.0 0 0 49.13 25.40
  A 7.60 7.60 0.0 0 0 41.53 33.00
  A 7.60 7.60 0.0 0 0 49.13 40.60
  A 7.60 7.60 0.0 0 0 56.73 33.00"
/>
<path stroke="#a7d5d6" vector-effect="non-scaling-stroke" d="
  M 137.00 32.99
  A 7.59 7.59 0.0 0 0 129.41 25.40
  A 7.59 7.59 0.0 0 0 121.82 32.99
  A 7.59 7.59 0.0 0 0 129.41 40.58
  A 7.59 7.59 0.0 0 0 137.00 32.99"
/>
<path stroke="#a7d5d6" vector-effect="non-scaling-stroke" d="
  M 108.30 58.76
  A 18.96 18.96 0.0 0 0 89.34 39.80
  A 18.96 18.96 0.0 0 0 70.38 58.76
  A 18.96 18.96 0.0 0 0 89.34 77.72
  A 18.96 18.96 0.0 0 0 108.30 58.76"
/>
<path stroke="#baa6b0" vector-effect="non-scaling-stroke" d="
  M 37.82 51.92
  A 7.60 7.60 0.0 0 0 30.22 44.32
  A 7.60 7.60 0.0 0 0 22.62 51.92
  A 7.60 7.60 0.0 0 0 30.22 59.52
  A 7.60 7.60 0.0 0 0 37.82 51.92"
/>
<path stroke="#f2e493" vector-effect="non-scaling-stroke" d="
  M 155.88 51.92
  A 7.57 7.57 0.0 0 0 148.31 44.35
  A 7.57 7.57 0.0 0 0 140.74 51.92
  A 7.57 7.57 0.0 0 0 148.31 59.49
  A 7.57 7.57 0.0 0 0 155.88 51.92"
/>
<path stroke="#baa6b0" vector-effect="non-scaling-stroke" d="
  M 26.83 77.29
  A 7.60 7.60 0.0 0 0 19.23 69.69
  A 7.60 7.60 0.0 0 0 11.63 77.29
  A 7.60 7.60 0.0 0 0 19.23 84.89
  A 7.60 7.60 0.0 0 0 26.83 77.29"
/>
<path stroke="#f2e493" vector-effect="non-scaling-stroke" d="
  M 166.86 77.32
  A 7.58 7.58 0.0 0 0 159.28 69.74
  A 7.58 7.58 0.0 0 0 151.70 77.32
  A 7.58 7.58 0.0 0 0 159.28 84.90
  A 7.58 7.58 0.0 0 0 166.86 77.32"
/>
<path stroke="#baa6b0" vector-effect="non-scaling-stroke" d="
  M 74.92 91.93
  A 18.96 18.96 0.0 0 0 55.96 72.97
  A 18.96 18.96 0.0 0 0 37.00 91.93
  A 18.96 18.96 0.0 0 0 55.96 110.89
  A 18.96 18.96 0.0 0 0 74.92 91.93"
/>
<path stroke="#f2e493" vector-effect="non-scaling-stroke" d="
  M 141.52 91.93
  A 18.94 18.94 0.0 0 0 122.58 72.99
  A 18.94 18.94 0.0 0 0 103.64 91.93
  A 18.94 18.94 0.0 0 0 122.58 110.87
  A 18.94 18.94 0.0 0 0 141.52 91.93"
/>
<path stroke="#baa6b0" vector-effect="non-scaling-stroke" d="
  M 26.85 106.85
  A 7.61 7.61 0.0 0 0 19.24 99.24
  A 7.61 7.61 0.0 0 0 11.63 106.85
  A 7.61 7.61 0.0 0 0 19.24 114.46
  A 7.61 7.61 0.0 0 0 26.85 106.85"
/>
<path stroke="#f2e493" vector-effect="non-scaling-stroke" d="
  M 166.86 106.85
  A 7.59 7.59 0.0 0 0 159.27 99.26
  A 7.59 7.59 0.0 0 0 151.68 106.85
  A 7.59 7.59 0.0 0 0 159.27 114.44
  A 7.59 7.59 0.0 0 0 166.86 106.85"
/>
<path stroke="#bac7ab" vector-effect="non-scaling-stroke" d="
  M 108.30 125.43
  A 18.96 18.96 0.0 0 0 89.34 106.47
  A 18.96 18.96 0.0 0 0 70.38 125.43
  A 18.96 18.96 0.0 0 0 89.34 144.39
  A 18.96 18.96 0.0 0 0 108.30 125.43"
/>
<path stroke="#baa6b0" vector-effect="non-scaling-stroke" d="
  M 37.81 132.27
  A 7.59 7.59 0.0 0 0 30.22 124.68
  A 7.59 7.59 0.0 0 0 22.63 132.27
  A 7.59 7.59 0.0 0 0 30.22 139.86
  A 7.59 7.59 0.0 0 0 37.81 132.27"
/>
<path stroke="#f2e493" vector-effect="non-scaling-stroke" d="
  M 155.90 132.27
  A 7.58 7.58 0.0 0 0 148.32 124.69
  A 7.58 7.58 0.0 0 0 140.74 132.27
  A 7.58 7.58 0.0 0 0 148.32 139.85
  A 7.58 7.58 0.0 0 0 155.90 132.27"
/>
<path stroke="#bac7ab" vector-effect="non-scaling-stroke" d="
  M 56.73 151.21
  A 7.60 7.60 0.0 0 0 49.13 143.61
  A 7.60 7.60 0.0 0 0 41.53 151.21
  A 7.60 7.60 0.0 0 0 49.13 158.81
  A 7.60 7.60 0.0 0 0 56.73 151.21"
/>
<path stroke="#bac7ab" vector-effect="non-scaling-stroke" d="
  M 137.01 151.21
  A 7.61 7.61 0.0 0 0 129.40 143.60
  A 7.61 7.61 0.0 0 0 121.79 151.21
  A 7.61 7.61 0.0 0 0 129.40 158.82
  A 7.61 7.61 0.0 0 0 137.01 151.21"
/>
<path stroke="#bac7ab" vector-effect="non-scaling-stroke" d="
  M 82.13 162.19
  A 7.60 7.60 0.0 0 0 74.53 154.59
  A 7.60 7.60 0.0 0 0 66.93 162.19
  A 7.60 7.60 0.0 0 0 74.53 169.79
  A 7.60 7.60 0.0 0 0 82.13 162.19"
/>
<path stroke="#bac7ab" vector-effect="non-scaling-stroke" d="
  M 111.63 162.21
  A 7.58 7.58 0.0 0 0 104.05 154.63
  A 7.58 7.58 0.0 0 0 96.47 162.21
  A 7.58 7.58 0.0 0 0 104.05 169.79
  A 7.58 7.58 0.0 0 0 111.63 162.21"
/>
</g>
<path fill="#ffffff" d="
  M 0.00 0.00
  L 180.00 0.00
  L 180.00 180.00
  L 0.00 180.00
  L 0.00 0.00
  Z
  M 82.13 22.00
  A 7.60 7.60 0.0 0 0 74.53 14.40
  A 7.60 7.60 0.0 0 0 66.93 22.00
  A 7.60 7.60 0.0 0 0 74.53 29.60
  A 7.60 7.60 0.0 0 0 82.13 22.00
  Z
  M 111.63 22.02
  A 7.59 7.59 0.0 0 0 104.04 14.43
  A 7.59 7.59 0.0 0 0 96.45 22.02
  A 7.59 7.59 0.0 0 0 104.04 29.61
  A 7.59 7.59 0.0 0 0 111.63 22.02
  Z
  M 56.73 33.00
  A 7.60 7.60 0.0 0 0 49.13 25.40
  A 7.60 7.60 0.0 0 0 41.53 33.00
  A 7.60 7.60 0.0 0 0 49.13 40.60
  A 7.60 7.60 0.0 0 0 56.73 33.00
  Z
  M 137.00 32.99
  A 7.59 7.59 0.0 0 0 129.41 25.40
  A 7.59 7.59 0.0 0 0 121.82 32.99
  A 7.59 7.59 0.0 0 0 129.41 40.58
  A 7.59 7.59 0.0 0 0 137.00 32.99
  Z
  M 108.30 58.76
  A 18.96 18.96 0.0 0 0 89.34 39.80
  A 18.96 18.96 0.0 0 0 70.38 58.76
  A 18.96 18.96 0.0 0 0 89.34 77.72
  A 18.96 18.96 0.0 0 0 108.30 58.76
  Z
  M 37.82 51.92
  A 7.60 7.60 0.0 0 0 30.22 44.32
  A 7.60 7.60 0.0 0 0 22.62 51.92
  A 7.60 7.60 0.0 0 0 30.22 59.52
  A 7.60 7.60 0.0 0 0 37.82 51.92
  Z
  M 155.88 51.92
  A 7.57 7.57 0.0 0 0 148.31 44.35
  A 7.57 7.57 0.0 0 0 140.74 51.92
  A 7.57 7.57 0.0 0 0 148.31 59.49
  A 7.57 7.57 0.0 0 0 155.88 51.92
  Z
  M 26.83 77.29
  A 7.60 7.60 0.0 0 0 19.23 69.69
  A 7.60 7.60 0.0 0 0 11.63 77.29
  A 7.60 7.60 0.0 0 0 19.23 84.89
  A 7.60 7.60 0.0 0 0 26.83 77.29
  Z
  M 166.86 77.32
  A 7.58 7.58 0.0 0 0 159.28 69.74
  A 7.58 7.58 0.0 0 0 151.70 77.32
  A 7.58 7.58 0.0 0 0 159.28 84.90
  A 7.58 7.58 0.0 0 0 166.86 77.32
  Z
  M 74.92 91.93
  A 18.96 18.96 0.0 0 0 55.96 72.97
  A 18.96 18.96 0.0 0 0 37.00 91.93
  A 18.96 18.96 0.0 0 0 55.96 110.89
  A 18.96 18.96 0.0 0 0 74.92 91.93
  Z
  M 141.52 91.93
  A 18.94 18.94 0.0 0 0 122.58 72.99
  A 18.94 18.94 0.0 0 0 103.64 91.93
  A 18.94 18.94 0.0 0 0 122.58 110.87
  A 18.94 18.94 0.0 0 0 141.52 91.93
  Z
  M 26.85 106.85
  A 7.61 7.61 0.0 0 0 19.24 99.24
  A 7.61 7.61 0.0 0 0 11.63 106.85
  A 7.61 7.61 0.0 0 0 19.24 114.46
  A 7.61 7.61 0.0 0 0 26.85 106.85
  Z
  M 166.86 106.85
  A 7.59 7.59 0.0 0 0 159.27 99.26
  A 7.59 7.59 0.0 0 0 151.68 106.85
  A 7.59 7.59 0.0 0 0 159.27 114.44
  A 7.59 7.59 0.0 0 0 166.86 106.85
  Z
  M 108.30 125.43
  A 18.96 18.96 0.0 0 0 89.34 106.47
  A 18.96 18.96 0.0 0 0 70.38 125.43
  A 18.96 18.96 0.0 0 0 89.34 144.39
  A 18.96 18.96 0.0 0 0 108.30 125.43
  Z
  M 37.81 132.27
  A 7.59 7.59 0.0 0 0 30.22 124.68
  A 7.59 7.59 0.0 0 0 22.63 132.27
  A 7.59 7.59 0.0 0 0 30.22 139.86
  A 7.59 7.59 0.0 0 0 37.81 132.27
  Z
  M 155.90 132.27
  A 7.58 7.58 0.0 0 0 148.32 124.69
  A 7.58 7.58 0.0 0 0 140.74 132.27
  A 7.58 7.58 0.0 0 0 148.32 139.85
  A 7.58 7.58 0.0 0 0 155.90 132.27
  Z
  M 56.73 151.21
  A 7.60 7.60 0.0 0 0 49.13 143.61
  A 7.60 7.60 0.0 0 0 41.53 151.21
  A 7.60 7.60 0.0 0 0 49.13 158.81
  A 7.60 7.60 0.0 0 0 56.73 151.21
  Z
  M 137.01 151.21
  A 7.61 7.61 0.0 0 0 129.40 143.60
  A 7.61 7.61 0.0 0 0 121.79 151.21
  A 7.61 7.61 0.0 0 0 129.40 158.82
  A 7.61 7.61 0.0 0 0 137.01 151.21
  Z
  M 82.13 162.19
  A 7.60 7.60 0.0 0 0 74.53 154.59
  A 7.60 7.60 0.0 0 0 66.93 162.19
  A 7.60 7.60 0.0 0 0 74.53 169.79
  A 7.60 7.60 0.0 0 0 82.13 162.19
  Z
  M 111.63 162.21
  A 7.58 7.58 0.0 0 0 104.05 154.63
  A 7.58 7.58 0.0 0 0 96.47 162.21
  A 7.58 7.58 0.0 0 0 104.05 169.79
  A 7.58 7.58 0.0 0 0 111.63 162.21
  Z"
/>
<circle fill="#4eabac" cx="74.53" cy="22.00" r="7.60"/>
<circle fill="#4eabac" cx="104.04" cy="22.02" r="7.59"/>
<circle fill="#4eabac" cx="49.13" cy="33.00" r="7.60"/>
<circle fill="#4eabac" cx="129.41" cy="32.99" r="7.59"/>
<circle fill="#4eabac" cx="89.34" cy="58.76" r="18.96"/>
<circle fill="#754c60" cx="30.22" cy="51.92" r="7.60"/>
<circle fill="#e5c927" cx="148.31" cy="51.92" r="7.57"/>
<circle fill="#754c60" cx="19.23" cy="77.29" r="7.60"/>
<circle fill="#e5c927" cx="159.28" cy="77.32" r="7.58"/>
<circle fill="#754c60" cx="55.96" cy="91.93" r="18.96"/>
<circle fill="#e5c927" cx="122.58" cy="91.93" r="18.94"/>
<circle fill="#754c60" cx="19.24" cy="106.85" r="7.61"/>
<circle fill="#e5c927" cx="159.27" cy="106.85" r="7.59"/>
<circle fill="#748f57" cx="89.34" cy="125.43" r="18.96"/>
<circle fill="#754c60" cx="30.22" cy="132.27" r="7.59"/>
<circle fill="#e5c927" cx="148.32" cy="132.27" r="7.58"/>
<circle fill="#748f57" cx="49.13" cy="151.21" r="7.60"/>
<circle fill="#748f57" cx="129.40" cy="151.21" r="7.61"/>
<circle fill="#748f57" cx="74.53" cy="162.19" r="7.60"/>
<circle fill="#748f57" cx="104.05" cy="162.21" r="7.58"/>
</svg>
