<?xml version="1.0" encoding="UTF-8" standalone="no"?>
<!DOCTYPE svg PUBLIC "-//W3C//DTD SVG 1.1//EN" "http://www.w3.org/Graphics/SVG/1.1/DTD/svg11.dtd">
<svg xmlns="http://www.w3.org/2000/svg" version="1.1" viewBox="0 0 1000 1000">
<g stroke-width="2.0" fill="none" stroke-linecap="butt">
<path stroke="#80918e" vector-effect="non-scaling-stroke" d="
  M 503.75 33.21
  Q 498.97 33.25 498.06 33.31
  Q 497.39 33.36 497.54 34.00"
/>
<path stroke="#656357" vector-effect="non-scaling-stroke" d="
  M 497.54 34.00
  L 497.21 37.25"
/>
<path stroke="#764d26" vector-effect="non-scaling-stroke" d="
  M 497.21 37.25
  Q 497.22 34.84 496.46 35.30
  Q 496.04 35.55 495.86 36.38
  Q 483.82 91.00 471.21 145.50"
/>
<path stroke="#80572e" vector-effect="non-scaling-stroke" d="
  M 471.21 145.50
  Q 470.50 145.41 470.25 144.71
  Q 461.38 119.37 452.44 94.06
  Q 452.08 93.05 451.94 94.19
  Q 448.63 121.32 445.70 148.49
  Q 445.62 149.16 445.00 149.29"
/>
<path stroke="#764d26" vector-effect="non-scaling-stroke" d="
  M 445.00 149.29
  Q 420.07 97.89 395.54 46.29
  Q 395.41 46.02 395.25 45.91
  Q 395.00 45.76 394.75 45.82
  C 394.49 45.88 394.31 46.19 394.31 46.56
  L 394.21 162.75"
/>
<path stroke="#80572e" vector-effect="non-scaling-stroke" d="
  M 394.21 162.75
  L 364.05 115.08
  Q 362.80 113.11 363.06 115.43
  L 369.21 170.50"
/>
<path stroke="#764d26" vector-effect="non-scaling-stroke" d="
  M 369.21 170.50
  L 297.43 80.80
  Q 295.53 78.43 296.20 81.39
  Q 308.63 136.15 321.19 191.81
  Q 321.33 192.40 321.21 193.00"
/>
<path stroke="#80572e" vector-effect="non-scaling-stroke" d="
  M 321.21 193.00
  L 281.18 153.05
  Q 280.61 152.49 280.88 153.25
  L 299.62 206.50
  C 299.65 206.58 299.62 206.70 299.55 206.83
  L 299.46 207.00"
/>
<path stroke="#764d26" vector-effect="non-scaling-stroke" d="
  M 299.46 207.00
  Q 240.97 160.86 209.56 135.69
  Q 208.92 135.17 208.55 135.36
  C 208.33 135.47 208.30 135.85 208.47 136.21
  L 258.25 240.21"
/>
<path stroke="#80572e" vector-effect="non-scaling-stroke" d="
  M 258.25 240.21
  L 210.42 210.05
  Q 209.25 209.32 209.99 210.49
  Q 223.88 232.51 237.69 254.56
  Q 238.96 256.59 239.21 257.75"
/>
<path stroke="#764d26" vector-effect="non-scaling-stroke" d="
  M 239.21 257.75
  Q 187.62 233.14 136.10 208.39
  Q 135.90 208.30 135.76 208.32
  Q 135.55 208.36 135.44 208.52
  C 135.32 208.70 135.38 209.02 135.59 209.29
  L 207.04 299.50"
/>
<path stroke="#80572e" vector-effect="non-scaling-stroke" d="
  M 207.04 299.50
  Q 206.55 299.87 206.06 299.61
  Q 205.58 299.36 205.54 299.34
  Q 179.80 290.20 153.98 281.24
  Q 152.46 280.72 153.60 281.85
  Q 171.82 299.93 190.25 318.50
  Q 192.36 320.63 192.71 321.25"
/>
<path stroke="#764d26" vector-effect="non-scaling-stroke" d="
  M 192.71 321.25
  L 81.31 296.09
  Q 79.57 295.70 80.41 297.27
  Q 80.72 297.84 81.69 298.41
  Q 82.67 299.00 83.10 299.34
  Q 126.61 333.99 170.04 368.75"
/>
<path stroke="#80572e" vector-effect="non-scaling-stroke" d="
  M 170.04 368.75
  Q 168.45 369.14 165.00 368.75
  Q 139.63 365.84 113.97 362.97
  Q 113.36 362.90 113.88 363.23
  Q 137.69 378.48 161.63 393.65
  Q 162.42 394.15 161.50 394.29"
/>
<path stroke="#764d26" vector-effect="non-scaling-stroke" d="
  M 161.50 394.29
  Q 104.87 394.43 48.25 394.25
  Q 46.01 394.24 44.79 393.50"
/>
<path stroke="#48798d" vector-effect="non-scaling-stroke" d="
  M 523.79 147.25
  L 532.42 184.77
  Q 532.66 185.79 533.11 184.85
  L 550.00 149.54"
/>
<path stroke="#48798d" vector-effect="non-scaling-stroke" d="
  M 600.79 162.25
  L 600.95 200.56
  Q 600.96 201.38 601.48 200.73
  L 626.46 169.50"
/>
<path stroke="#48798d" vector-effect="non-scaling-stroke" d="
  M 673.75 192.46
  L 664.92 230.94
  Q 664.80 231.46 665.21 231.14
  L 695.25 207.29"
/>
<path stroke="#48798d" vector-effect="non-scaling-stroke" d="
  M 736.46 239.75
  L 719.82 274.60
  Q 719.39 275.51 720.30 275.07
  L 755.54 258.00"
/>
<path stroke="#48798d" vector-effect="non-scaling-stroke" d="
  M 788.21 299.00
  L 763.80 329.58
  Q 763.34 330.15 764.06 329.99
  L 802.29 321.25"
/>
<path stroke="#48798d" vector-effect="non-scaling-stroke" d="
  M 824.71 369.00
  L 793.69 393.88
  Q 793.30 394.19 793.82 394.19
  L 833.00 394.21"
/>
<path stroke="#48798d" vector-effect="non-scaling-stroke" d="
  M 845.25 445.04
  L 810.41 461.89
  Q 809.58 462.29 810.48 462.50
  L 848.75 471.21"
/>
<path stroke="#48798d" vector-effect="non-scaling-stroke" d="
  M 847.25 524.04
  L 809.68 532.38
  Q 809.08 532.52 809.63 532.79
  L 845.00 549.96"
/>
<path stroke="#48798d" vector-effect="non-scaling-stroke" d="
  M 832.75 600.79
  L 794.70 600.75
  Q 793.42 600.75 794.42 601.55
  L 824.75 625.79"
/>
<path stroke="#48798d" vector-effect="non-scaling-stroke" d="
  M 802.50 673.71
  L 763.74 664.75
  Q 763.09 664.60 763.50 665.11
  L 787.71 695.50"
/>
<path stroke="#48798d" vector-effect="non-scaling-stroke" d="
  M 755.04 736.50
  L 719.98 719.49
  Q 719.19 719.11 719.57 719.90
  L 736.71 755.50"
/>
<path stroke="#48798d" vector-effect="non-scaling-stroke" d="
  M 695.29 787.75
  L 665.58 763.90
  Q 664.60 763.11 664.89 764.34
  L 673.71 802.75"
/>
<path stroke="#48798d" vector-effect="non-scaling-stroke" d="
  M 626.29 825.50
  L 601.83 794.81
  Q 600.75 793.44 600.75 795.19
  L 600.79 833.25"
/>
<path stroke="#48798d" vector-effect="non-scaling-stroke" d="
  M 549.96 845.00
  L 533.22 810.25
  Q 532.60 808.97 532.28 810.37
  L 523.54 848.25"
/>
<path stroke="#48798d" vector-effect="non-scaling-stroke" d="
  M 471.21 849.25
  L 462.44 810.43
  Q 462.24 809.54 461.84 810.37
  L 445.21 845.00"
/>
<path stroke="#48798d" vector-effect="non-scaling-stroke" d="
  M 394.21 832.75
  L 394.01 794.00
  Q 394.01 793.48 393.68 793.89
  L 368.96 824.75"
/>
<path stroke="#48798d" vector-effect="non-scaling-stroke" d="
  M 321.21 802.25
  L 330.00 763.98
  Q 330.20 763.14 329.52 763.69
  L 299.25 787.96"
/>
<path stroke="#48798d" vector-effect="non-scaling-stroke" d="
  M 257.96 755.75
  L 274.95 720.40
  Q 275.38 719.50 274.48 719.93
  L 239.50 736.71"
/>
<path stroke="#48798d" vector-effect="non-scaling-stroke" d="
  M 207.25 695.29
  L 231.33 665.21
  Q 231.78 664.65 231.09 664.82
  L 192.71 673.75"
/>
<path stroke="#48798d" vector-effect="non-scaling-stroke" d="
  M 169.54 626.25
  L 200.44 601.70
  Q 201.64 600.75 200.10 600.75
  L 161.75 600.79"
/>
<path stroke="#48798d" vector-effect="non-scaling-stroke" d="
  M 150.00 549.71
  L 184.69 533.14
  Q 185.54 532.73 184.62 532.52
  L 146.79 523.75"
/>
<path stroke="#656357" vector-effect="non-scaling-stroke" d="
  M 33.04 495.25
  Q 33.69 496.11 34.75 496.29"
/>
<path stroke="#4f4f45" vector-effect="non-scaling-stroke" d="
  M 34.75 496.29
  Q 36.91 497.19 38.56 497.19
  Q 93.16 497.26 147.75 497.29"
/>
<path stroke="#404341" vector-effect="non-scaling-stroke" d="
  M 147.75 497.29
  Q 148.30 497.63 149.00 497.54"
/>
<path stroke="#305869" vector-effect="non-scaling-stroke" d="
  M 149.00 497.54
  Q 153.29 498.38 172.00 502.75
  Q 217.44 513.36 262.15 523.51
  Q 263.62 523.84 262.27 524.49
  L 159.93 573.94
  Q 156.57 575.56 160.29 575.49
  Q 184.21 575.01 208.50 575.33
  Q 221.35 575.50 228.50 575.49
  Q 250.89 575.46 273.31 575.25
  Q 274.88 575.23 273.65 576.21
  L 184.30 647.57
  Q 182.64 648.90 184.71 648.43
  L 296.89 623.03
  Q 298.44 622.67 297.45 623.92
  L 226.03 713.86
  Q 224.70 715.53 226.62 714.60
  L 330.07 664.56
  Q 330.63 664.29 330.36 664.85
  L 280.19 769.07
  Q 279.75 769.98 280.56 769.38
  Q 284.97 766.11 289.48 762.48
  Q 330.27 729.74 370.96 697.59
  Q 372.48 696.39 372.05 698.27
  L 346.78 809.97
  Q 346.20 812.53 347.83 810.47
  L 418.93 720.95
  Q 419.75 719.91 419.75 721.24
  L 419.75 835.52
  Q 419.75 837.59 420.65 835.72
  L 470.26 733.41
  Q 471.04 731.81 471.43 733.55
  L 496.81 845.19
  Q 497.12 846.55 497.44 845.19
  L 523.50 733.23
  Q 523.97 731.21 524.87 733.08
  L 574.57 836.20
  Q 575.44 838.00 575.44 836.00
  L 575.44 721.33
  Q 575.44 720.02 576.25 721.05
  L 647.23 810.43
  Q 648.95 812.60 648.34 809.90
  L 623.00 697.99
  Q 622.73 696.80 623.68 697.56
  L 714.14 769.27
  Q 715.38 770.26 714.69 768.83
  L 665.17 665.88
  Q 664.42 664.34 665.97 665.08
  L 768.80 714.57
  Q 770.07 715.17 769.20 714.07
  L 697.74 623.98
  Q 696.73 622.71 698.31 623.07
  L 810.32 648.44
  Q 812.64 648.96 810.78 647.49
  L 721.30 576.43
  Q 719.89 575.31 721.70 575.31
  L 836.44 575.44
  Q 838.12 575.44 836.56 574.69
  L 732.33 524.45
  Q 731.30 523.95 732.42 523.69
  L 844.52 497.55
  Q 846.80 497.02 844.52 496.50
  L 733.17 471.25
  Q 731.77 470.93 733.06 470.31
  L 836.32 420.56
  Q 838.00 419.75 836.14 419.75
  L 721.24 419.75
  Q 719.95 419.75 720.96 418.95
  L 811.50 347.00
  Q 812.48 346.22 811.25 346.50
  L 698.48 372.00
  Q 696.38 372.48 697.72 370.79
  L 769.28 280.88
  Q 770.31 279.59 768.82 280.31
  L 665.29 330.21
  Q 664.26 330.71 664.76 329.68
  L 715.07 225.80
  Q 715.61 224.68 714.63 225.45
  L 624.04 297.28
  Q 622.65 298.38 623.04 296.65
  L 648.50 184.23
  Q 648.93 182.33 647.72 183.86
  L 576.22 273.49
  Q 575.44 274.46 575.44 273.21
  Q 575.27 220.25 575.46 167.31
  Q 575.48 162.68 575.22 158.06
  Q 575.19 157.56 574.97 158.02
  L 524.49 262.49
  Q 523.93 263.64 523.65 262.39
  Q 511.54 209.18 499.02 156.74
  Q 498.78 155.71 498.04 155.00"
/>
<path stroke="#404341" vector-effect="non-scaling-stroke" d="
  M 498.04 155.00
  L 497.46 149.25"
/>
<path stroke="#4f4f45" vector-effect="non-scaling-stroke" d="
  M 497.46 149.25
  L 497.21 37.25"
/>
<path stroke="#512d0f" vector-effect="non-scaling-stroke" d="
  M 497.46 149.25
  Q 496.78 149.26 496.69 149.69
  Q 486.08 197.12 480.56 219.31
  Q 475.41 240.05 471.36 262.14
  Q 471.11 263.52 470.51 262.26
  L 420.43 158.54
  Q 419.75 157.14 419.75 158.70
  L 419.69 273.93
  Q 419.69 274.44 419.37 274.04
  L 347.02 183.57
  Q 346.32 182.69 346.56 183.79
  L 372.42 298.23
  Q 372.58 298.95 372.00 298.49
  L 280.74 225.74
  Q 279.59 224.82 280.23 226.15
  L 330.57 329.95
  Q 331.17 331.20 329.93 330.59
  L 226.07 280.25
  Q 224.82 279.65 225.69 280.73
  L 298.26 371.76
  Q 298.96 372.64 297.86 372.39
  L 224.00 355.73
  Q 223.83 355.69 223.98 355.60
  L 224.13 355.52
  Q 224.49 355.32 224.06 355.31
  Q 221.94 355.30 219.91 354.77
  Q 216.58 353.91 216.55 353.90
  Q 200.83 350.65 185.23 346.75
  Q 182.08 345.96 184.62 347.98
  Q 226.37 381.12 269.31 415.44
  Q 272.39 417.90 273.65 419.53
  Q 273.96 419.93 273.44 419.93
  L 159.26 419.75
  Q 157.15 419.75 159.05 420.67
  L 261.53 470.13
  Q 263.78 471.21 261.33 471.71
  Q 244.48 475.18 226.44 479.69
  Q 222.98 480.55 220.00 480.85
  Q 215.68 481.28 213.59 481.81
  Q 181.56 489.95 149.18 496.59
  C 149.06 496.61 148.77 496.82 148.44 497.12
  Q 148.19 497.34 147.75 497.29"
/>
<path stroke="#764d26" vector-effect="non-scaling-stroke" d="
  M 34.75 496.29
  L 146.25 471.21"
/>
<path stroke="#6a421c" vector-effect="non-scaling-stroke" d="
  M 146.25 471.21
  L 184.35 462.48
  Q 185.17 462.29 184.41 461.93
  L 148.79 444.75"
/>
<path stroke="#764d26" vector-effect="non-scaling-stroke" d="
  M 148.79 444.75
  Q 107.71 424.90 66.56 405.19
  Q 53.07 398.73 47.44 396.31
  Q 45.32 395.40 44.29 395.75"
/>
<path stroke="#6a421c" vector-effect="non-scaling-stroke" d="
  M 161.50 394.29
  L 200.74 394.25
  Q 201.99 394.25 201.02 393.47
  L 170.04 368.75"
/>
<path stroke="#6a421c" vector-effect="non-scaling-stroke" d="
  M 192.71 321.25
  L 230.89 329.94
  Q 231.41 330.06 231.08 329.64
  L 207.04 299.50"
/>
<path stroke="#6a421c" vector-effect="non-scaling-stroke" d="
  M 239.21 257.75
  L 274.23 274.48
  Q 274.71 274.71 274.48 274.23
  L 258.25 240.21"
/>
<path stroke="#6a421c" vector-effect="non-scaling-stroke" d="
  M 299.46 207.00
  L 329.09 230.68
  Q 329.98 231.39 329.75 230.27
  Q 325.97 211.51 321.21 193.00"
/>
<path stroke="#6a421c" vector-effect="non-scaling-stroke" d="
  M 369.21 170.50
  L 393.80 201.22
  Q 394.31 201.87 394.31 201.04
  L 394.21 162.75"
/>
<path stroke="#6a421c" vector-effect="non-scaling-stroke" d="
  M 445.00 149.29
  L 461.78 184.36
  Q 462.21 185.27 462.43 184.29
  L 471.21 145.50"
/>
<path stroke="#5993ad" vector-effect="non-scaling-stroke" d="
  M 33.21 507.75
  L 33.25 498.60
  C 33.25 498.18 33.62 497.87 34.02 497.93
  Q 41.20 499.02 47.79 500.58
  Q 97.27 512.27 146.79 523.75"
/>
<path stroke="#62a7c3" vector-effect="non-scaling-stroke" d="
  M 146.79 523.75
  Q 146.82 524.20 146.52 524.30
  Q 119.99 533.40 94.16 542.60
  Q 92.81 543.08 94.23 543.25
  L 150.00 549.71"
/>
<path stroke="#5993ad" vector-effect="non-scaling-stroke" d="
  M 150.00 549.71
  Q 98.18 574.88 46.19 599.69
  Q 45.12 600.20 45.83 600.75
  C 46.03 600.91 46.37 600.97 46.75 600.91
  Q 47.89 600.75 50.00 600.75
  Q 105.87 600.72 161.75 600.79"
/>
<path stroke="#62a7c3" vector-effect="non-scaling-stroke" d="
  M 161.75 600.79
  Q 161.81 601.49 161.00 602.00
  Q 137.69 616.67 114.52 631.39
  Q 113.29 632.17 114.73 632.00
  Q 141.37 628.96 168.00 626.00
  Q 168.99 625.89 169.54 626.25"
/>
<path stroke="#5993ad" vector-effect="non-scaling-stroke" d="
  M 169.54 626.25
  L 80.44 697.69
  Q 77.94 699.69 81.00 699.00
  L 192.71 673.75"
/>
<path stroke="#62a7c3" vector-effect="non-scaling-stroke" d="
  M 192.71 673.75
  Q 192.54 674.33 191.56 675.31
  Q 172.92 693.92 153.99 712.89
  Q 152.38 714.49 154.53 713.74
  L 207.25 695.29"
/>
<path stroke="#5993ad" vector-effect="non-scaling-stroke" d="
  M 207.25 695.29
  L 135.44 785.77
  Q 133.81 787.84 136.18 786.69
  L 239.50 736.71"
/>
<path stroke="#62a7c3" vector-effect="non-scaling-stroke" d="
  M 239.50 736.71
  Q 239.73 737.18 239.42 737.67
  Q 224.85 761.19 210.16 784.42
  Q 209.26 785.83 210.68 784.94
  Q 233.43 770.68 256.19 756.44
  Q 257.31 755.74 257.96 755.75"
/>
<path stroke="#5993ad" vector-effect="non-scaling-stroke" d="
  M 257.96 755.75
  L 208.74 858.51
  Q 207.52 861.07 209.74 859.30
  L 299.25 787.96"
/>
<path stroke="#62a7c3" vector-effect="non-scaling-stroke" d="
  M 299.25 787.96
  Q 299.63 788.40 299.31 789.31
  Q 290.24 815.25 281.18 841.20
  Q 280.79 842.33 281.64 841.49
  L 321.21 802.25"
/>
<path stroke="#5993ad" vector-effect="non-scaling-stroke" d="
  M 321.21 802.25
  Q 308.97 858.64 295.80 914.81
  Q 295.65 915.45 296.02 915.65
  C 296.24 915.78 296.57 915.65 296.81 915.36
  L 368.96 824.75"
/>
<path stroke="#62a7c3" vector-effect="non-scaling-stroke" d="
  M 368.96 824.75
  Q 369.05 827.21 368.31 833.81
  Q 365.72 856.87 363.19 879.95
  Q 362.99 881.78 363.98 880.22
  L 394.21 832.75"
/>
<path stroke="#5993ad" vector-effect="non-scaling-stroke" d="
  M 394.21 832.75
  Q 394.28 884.50 394.42 936.25
  Q 394.44 942.59 394.56 948.94
  Q 394.59 950.56 395.31 949.06
  L 445.21 845.00"
/>
<path stroke="#62a7c3" vector-effect="non-scaling-stroke" d="
  M 445.21 845.00
  Q 445.60 846.16 446.06 850.19
  Q 448.93 875.09 451.80 900.47
  Q 451.99 902.17 452.58 900.56
  Q 461.69 875.30 470.56 849.52
  Q 470.70 849.09 471.21 849.25"
/>
<path stroke="#5993ad" vector-effect="non-scaling-stroke" d="
  M 471.21 849.25
  Q 483.86 904.07 496.01 959.00
  Q 497.10 963.91 498.16 959.29
  Q 510.91 903.78 523.54 848.25"
/>
<path stroke="#62a7c3" vector-effect="non-scaling-stroke" d="
  M 523.54 848.25
  Q 524.05 848.09 524.19 848.52
  Q 533.27 874.85 542.69 901.07
  Q 543.13 902.30 543.28 901.00
  Q 546.40 873.38 549.56 845.51
  Q 549.60 845.13 549.96 845.00"
/>
<path stroke="#5993ad" vector-effect="non-scaling-stroke" d="
  M 549.96 845.00
  L 599.65 948.44
  Q 600.81 950.87 600.81 948.18
  L 600.79 833.25"
/>
<path stroke="#62a7c3" vector-effect="non-scaling-stroke" d="
  M 600.79 833.25
  Q 601.30 833.09 601.54 833.47
  Q 616.46 856.94 631.09 880.09
  Q 632.25 881.93 632.00 879.77
  Q 628.92 853.38 626.00 827.00
  Q 625.87 825.80 626.29 825.50"
/>
<path stroke="#5993ad" vector-effect="non-scaling-stroke" d="
  M 626.29 825.50
  L 697.51 914.26
  Q 699.78 917.09 698.97 913.55
  L 673.71 802.75"
/>
<path stroke="#62a7c3" vector-effect="non-scaling-stroke" d="
  M 673.71 802.75
  Q 674.01 802.39 674.44 802.81
  Q 693.74 821.89 712.83 841.20
  Q 714.48 842.87 713.70 840.66
  L 695.29 787.75"
/>
<path stroke="#5993ad" vector-effect="non-scaling-stroke" d="
  M 695.29 787.75
  Q 738.21 821.53 780.87 855.61
  Q 783.67 857.84 786.07 859.58
  Q 787.55 860.65 786.76 859.01
  L 736.71 755.50"
/>
<path stroke="#62a7c3" vector-effect="non-scaling-stroke" d="
  M 736.71 755.50
  Q 737.27 755.07 737.69 755.47
  Q 738.23 756.00 738.30 756.04
  Q 761.50 770.55 785.05 785.29
  Q 785.77 785.74 785.32 785.01
  L 755.04 736.50"
/>
<path stroke="#5993ad" vector-effect="non-scaling-stroke" d="
  M 755.04 736.50
  Q 807.04 761.36 858.78 786.75
  Q 859.72 787.21 859.72 786.43
  Q 859.73 786.11 859.45 785.76
  Q 823.69 740.54 787.71 695.50"
/>
<path stroke="#62a7c3" vector-effect="non-scaling-stroke" d="
  M 787.71 695.50
  Q 788.23 695.14 788.72 695.41
  Q 789.48 695.83 789.49 695.84
  Q 815.19 704.89 841.12 713.88
  Q 842.44 714.33 841.47 713.33
  Q 822.49 693.75 802.43 674.30
  Q 802.29 674.16 802.26 674.03
  Q 802.21 673.78 802.50 673.71"
/>
<path stroke="#5993ad" vector-effect="non-scaling-stroke" d="
  M 802.50 673.71
  L 913.26 698.75
  Q 917.02 699.60 914.01 697.20
  L 824.75 625.79"
/>
<path stroke="#62a7c3" vector-effect="non-scaling-stroke" d="
  M 824.75 625.79
  L 879.51 632.00
  Q 881.96 632.28 879.88 630.96
  Q 856.72 616.27 833.00 601.25
  Q 832.67 601.04 832.75 600.79"
/>
<path stroke="#5993ad" vector-effect="non-scaling-stroke" d="
  M 832.75 600.79
  L 948.18 600.93
  C 948.54 600.93 948.87 600.82 949.07 600.62
  Q 949.95 599.78 948.66 599.34
  Q 947.73 599.03 947.51 598.93
  Q 896.15 574.67 845.00 549.96"
/>
<path stroke="#62a7c3" vector-effect="non-scaling-stroke" d="
  M 845.00 549.96
  Q 845.13 549.60 845.51 549.56
  Q 873.37 546.33 901.26 543.25
  Q 902.52 543.11 901.32 542.69
  Q 880.86 535.55 860.46 528.23
  Q 853.94 525.89 847.25 524.04"
/>
<path stroke="#5993ad" vector-effect="non-scaling-stroke" d="
  M 847.25 524.04
  L 960.51 497.61
  C 960.91 497.52 961.20 497.28 961.20 497.04
  Q 961.21 496.66 960.50 496.50
  Q 904.64 483.81 848.75 471.21"
/>
<path stroke="#62a7c3" vector-effect="non-scaling-stroke" d="
  M 848.75 471.21
  Q 849.54 470.48 851.56 469.81
  Q 870.65 463.51 901.10 452.24
  Q 901.56 452.06 901.06 452.00
  Q 874.05 448.67 847.00 445.74
  Q 845.99 445.63 845.25 445.04"
/>
<path stroke="#5993ad" vector-effect="non-scaling-stroke" d="
  M 845.25 445.04
  L 948.06 395.81
  Q 951.32 394.25 947.75 394.25
  L 833.00 394.21"
/>
<path stroke="#62a7c3" vector-effect="non-scaling-stroke" d="
  M 833.00 394.21
  Q 833.72 393.30 835.31 392.31
  Q 858.18 378.15 881.02 363.22
  Q 881.54 362.88 880.93 362.95
  Q 853.13 366.18 825.75 369.25
  Q 825.00 369.33 824.71 369.00"
/>
<path stroke="#5993ad" vector-effect="non-scaling-stroke" d="
  M 824.71 369.00
  L 915.04 297.00
  C 915.34 296.76 915.48 296.44 915.39 296.20
  Q 915.21 295.75 914.44 295.94
  Q 876.27 305.02 802.29 321.25"
/>
<path stroke="#62a7c3" vector-effect="non-scaling-stroke" d="
  M 802.29 321.25
  L 842.20 281.18
  Q 842.76 280.61 842.01 280.87
  Q 815.46 290.12 788.72 299.41
  Q 788.17 299.61 788.21 299.00"
/>
<path stroke="#5993ad" vector-effect="non-scaling-stroke" d="
  M 788.21 299.00
  L 859.62 209.33
  C 859.85 209.05 859.94 208.73 859.88 208.45
  Q 859.70 207.66 859.03 208.14
  Q 858.48 208.54 858.29 208.63
  Q 806.98 233.45 755.54 258.00"
/>
<path stroke="#62a7c3" vector-effect="non-scaling-stroke" d="
  M 755.54 258.00
  L 784.90 210.89
  Q 785.85 209.36 784.32 210.31
  Q 760.91 224.82 737.64 239.56
  Q 737.57 239.60 737.28 239.87
  Q 736.89 240.23 736.46 239.75"
/>
<path stroke="#5993ad" vector-effect="non-scaling-stroke" d="
  M 736.46 239.75
  L 786.51 136.75
  Q 788.00 133.68 785.33 135.80
  L 695.25 207.29"
/>
<path stroke="#62a7c3" vector-effect="non-scaling-stroke" d="
  M 695.25 207.29
  Q 694.87 206.75 695.18 206.24
  Q 695.54 205.67 695.58 205.56
  Q 704.97 179.91 713.82 154.05
  Q 714.33 152.54 713.21 153.67
  Q 694.44 172.44 675.44 191.44
  Q 674.44 192.44 673.75 192.46"
/>
<path stroke="#5993ad" vector-effect="non-scaling-stroke" d="
  M 673.75 192.46
  L 699.19 80.50
  C 699.24 80.30 699.22 80.12 699.13 80.01
  L 698.97 79.82
  C 698.81 79.62 698.47 79.68 698.26 79.94
  L 626.46 169.50"
/>
<path stroke="#62a7c3" vector-effect="non-scaling-stroke" d="
  M 626.46 169.50
  Q 625.89 169.26 626.00 168.25
  Q 628.97 141.50 631.87 115.88
  Q 632.17 113.24 630.76 115.49
  Q 616.81 137.66 602.75 159.75
  Q 601.65 161.48 600.79 162.25"
/>
<path stroke="#5993ad" vector-effect="non-scaling-stroke" d="
  M 600.79 162.25
  Q 600.72 106.25 600.78 50.25
  Q 600.79 48.57 600.96 46.90
  Q 601.00 46.44 600.89 46.11
  Q 600.50 44.91 599.81 46.31
  Q 589.50 67.37 550.00 149.54"
/>
<path stroke="#62a7c3" vector-effect="non-scaling-stroke" d="
  M 550.00 149.54
  Q 549.41 149.48 549.45 149.00
  Q 549.48 148.59 549.47 148.50
  Q 546.43 121.49 543.26 94.58
  Q 543.06 92.90 542.50 94.49
  L 524.66 145.52
  Q 524.64 145.59 524.54 146.50
  Q 524.48 147.08 523.79 147.25"
/>
<path stroke="#5993ad" vector-effect="non-scaling-stroke" d="
  M 523.79 147.25
  L 497.54 34.00"
/>
<path stroke="#80572e" vector-effect="non-scaling-stroke" d="
  M 148.79 444.75
  Q 148.85 445.63 147.75 445.75
  Q 123.49 448.45 99.25 451.25
  Q 96.10 451.61 94.30 452.06
  Q 93.80 452.18 94.28 452.36
  Q 120.06 461.71 145.94 470.81
  Q 146.11 470.87 146.25 471.21"
/>
<path stroke="#11262e" vector-effect="non-scaling-stroke" d="
  M 220.00 497.29
  Q 221.91 497.56 231.81 499.81
  Q 248.39 503.58 264.94 507.45
  C 265.24 507.52 265.45 507.76 265.47 508.06
  Q 266.50 522.50 268.92 537.82
  C 269.00 538.35 268.73 538.86 268.26 539.09
  L 229.42 557.84
  Q 227.13 558.94 229.68 558.94
  L 272.74 558.81
  C 273.21 558.80 273.63 559.12 273.77 559.58
  Q 278.30 575.00 283.91 588.60
  C 284.03 588.91 283.94 589.26 283.68 589.47
  L 249.17 616.70
  Q 248.01 617.62 249.45 617.28
  L 292.00 607.40
  C 292.45 607.30 292.91 607.51 293.12 607.91
  Q 300.16 621.15 309.26 633.97
  C 309.43 634.21 309.42 634.53 309.24 634.76
  L 282.05 668.83
  Q 281.57 669.42 282.26 669.10
  L 320.90 650.78
  C 321.47 650.51 322.14 650.64 322.55 651.10
  Q 332.71 662.66 343.73 672.59
  C 344.02 672.85 344.10 673.27 343.93 673.63
  L 325.17 712.45
  Q 324.54 713.74 325.66 712.85
  L 359.48 686.10
  C 359.91 685.76 360.51 685.75 360.96 686.06
  Q 373.99 695.15 386.88 702.14
  C 387.26 702.35 387.45 702.78 387.36 703.20
  L 377.75 745.77
  Q 377.44 747.14 378.31 746.03
  L 405.56 711.54
  C 405.74 711.30 406.06 711.22 406.34 711.33
  Q 420.59 717.21 435.50 721.39
  C 435.94 721.51 436.25 721.92 436.25 722.38
  L 436.25 766.01
  Q 436.25 767.84 437.03 766.19
  L 455.47 727.10
  C 455.75 726.50 456.41 726.15 457.07 726.26
  Q 471.58 728.60 486.32 729.65
  C 486.62 729.67 486.86 729.88 486.93 730.17
  L 496.50 772.51
  Q 497.02 774.78 497.55 772.52
  L 507.57 730.17
  C 507.64 729.88 507.89 729.67 508.19 729.65
  Q 523.16 728.53 538.06 726.24
  C 538.46 726.18 538.86 726.39 539.04 726.76
  L 558.31 766.44
  Q 558.94 767.74 558.94 766.19
  L 558.76 722.35
  C 558.75 721.80 559.12 721.32 559.66 721.17
  Q 574.50 717.10 588.08 711.41
  C 588.68 711.16 589.36 711.34 589.76 711.84
  L 616.75 746.00
  Q 617.54 747.00 617.25 745.76
  L 607.34 703.06
  C 607.26 702.69 607.43 702.31 607.76 702.13
  Q 621.51 694.67 633.79 686.00
  C 634.16 685.74 634.65 685.76 635.01 686.04
  L 668.37 712.78
  Q 669.65 713.81 668.94 712.33
  L 650.66 673.80
  C 650.47 673.41 650.57 672.95 650.90 672.67
  Q 662.63 662.64 672.68 650.89
  C 672.94 650.58 673.37 650.49 673.74 650.66
  L 712.47 668.99
  Q 713.69 669.56 712.85 668.51
  L 686.01 634.97
  C 685.74 634.63 685.73 634.14 685.98 633.78
  Q 694.81 621.27 702.04 607.85
  C 702.23 607.49 702.65 607.31 703.05 607.40
  L 745.38 617.28
  Q 747.06 617.67 745.70 616.60
  L 711.31 589.44
  C 711.07 589.25 710.99 588.93 711.10 588.64
  Q 717.06 574.18 721.54 559.42
  C 721.63 559.13 721.89 558.93 722.19 558.93
  L 766.07 558.93
  C 766.38 558.93 766.64 558.81 766.67 558.65
  Q 766.71 558.42 766.30 558.22
  Q 746.83 548.84 727.02 539.11
  C 726.42 538.81 726.08 538.15 726.20 537.49
  Q 728.77 522.50 729.49 508.21
  C 729.51 507.81 729.79 507.47 730.19 507.38
  L 772.84 497.37
  Q 774.30 497.03 772.83 496.69
  L 730.06 486.98
  C 729.76 486.91 729.54 486.65 729.52 486.34
  Q 728.62 471.42 726.18 456.60
  C 726.12 456.23 726.31 455.86 726.65 455.70
  L 765.98 437.04
  Q 767.63 436.25 765.80 436.25
  L 722.06 436.19
  C 721.76 436.19 721.51 435.99 721.43 435.71
  Q 717.27 420.80 711.44 406.46
  C 711.33 406.18 711.40 405.87 711.63 405.69
  L 745.70 378.68
  Q 747.21 377.48 745.34 377.90
  L 703.29 387.30
  C 702.75 387.42 702.20 387.17 701.94 386.68
  Q 694.95 373.60 686.07 360.99
  C 685.74 360.51 685.75 359.88 686.11 359.42
  L 712.63 326.01
  Q 713.88 324.43 712.08 325.31
  L 673.93 343.75
  C 673.35 344.03 672.65 343.89 672.22 343.41
  Q 661.90 331.83 650.90 322.38
  C 650.58 322.10 650.48 321.64 650.66 321.26
  L 669.01 282.73
  Q 669.69 281.31 668.46 282.30
  L 634.89 309.19
  C 634.66 309.37 634.33 309.38 634.08 309.21
  Q 621.78 300.76 608.06 293.11
  C 607.61 292.86 607.38 292.35 607.50 291.86
  L 617.44 249.18
  Q 617.72 247.99 616.96 248.94
  L 589.32 283.61
  C 589.13 283.84 588.81 283.92 588.54 283.81
  Q 574.43 278.12 559.59 273.87
  C 559.09 273.73 558.75 273.27 558.75 272.76
  L 558.75 229.20
  Q 558.75 227.64 558.07 229.05
  L 538.97 268.50
  C 538.83 268.78 538.53 268.94 538.23 268.89
  Q 522.94 266.65 508.07 265.48
  C 507.77 265.46 507.51 265.25 507.44 264.96
  Q 501.94 242.72 497.46 220.25"
/>
<path stroke="#323633" vector-effect="non-scaling-stroke" d="
  M 498.04 155.00
  Q 497.27 157.29 497.25 161.75
  Q 497.09 191.00 497.46 220.25"
/>
<path stroke="#211106" vector-effect="non-scaling-stroke" d="
  M 497.46 220.25
  Q 497.21 220.40 497.00 220.60
  Q 496.82 220.79 496.75 221.10
  Q 491.63 242.96 487.04 264.95
  C 486.98 265.24 486.74 265.45 486.45 265.47
  Q 471.91 266.49 456.69 268.95
  C 456.27 269.02 455.85 268.80 455.67 268.41
  Q 449.41 254.93 442.88 241.81
  Q 441.95 239.95 440.22 235.36
  Q 438.92 231.93 437.11 229.07
  Q 436.25 227.71 436.25 229.32
  L 436.24 272.52
  C 436.24 273.01 435.91 273.44 435.44 273.58
  Q 420.85 277.88 406.27 283.74
  C 405.99 283.86 405.66 283.77 405.47 283.53
  L 378.35 249.19
  Q 377.41 248.00 377.75 249.48
  L 387.39 292.02
  C 387.46 292.30 387.32 292.60 387.06 292.74
  Q 374.09 300.01 360.72 309.05
  C 360.36 309.29 359.88 309.28 359.55 309.01
  L 326.50 282.88
  Q 324.36 281.19 325.54 283.65
  L 343.89 321.59
  C 344.05 321.93 343.96 322.33 343.68 322.59
  Q 332.35 332.60 322.55 343.70
  C 322.30 343.98 321.89 344.06 321.55 343.90
  L 282.43 324.96
  Q 281.21 324.37 282.06 325.43
  L 309.19 359.57
  C 309.42 359.85 309.43 360.24 309.23 360.53
  Q 300.47 373.35 292.80 386.88
  C 292.66 387.14 292.36 387.28 292.07 387.21
  L 249.89 377.86
  Q 248.06 377.46 249.52 378.61
  L 283.09 405.13
  C 283.59 405.52 283.78 406.19 283.54 406.77
  Q 277.90 420.65 273.69 435.59
  C 273.61 435.87 273.36 436.07 273.07 436.08
  L 230.22 436.23
  Q 227.45 436.24 229.89 437.57
  L 235.63 440.69
  C 235.89 440.83 236.22 440.90 236.57 440.89
  Q 238.09 440.84 239.50 442.00
  Q 240.78 443.05 243.12 443.99
  Q 246.08 445.17 246.92 445.57
  Q 257.53 450.63 268.20 455.57
  C 268.59 455.75 268.81 456.17 268.73 456.59
  Q 268.03 460.60 267.49 464.68
  Q 267.16 467.22 266.87 472.84
  Q 266.51 479.69 265.28 486.44
  C 265.23 486.74 265.00 486.98 264.70 487.04
  Q 243.35 491.77 222.00 496.52
  Q 220.95 496.75 220.00 497.29"
/>
<path stroke="#323633" vector-effect="non-scaling-stroke" d="
  M 220.00 497.29
  L 149.00 497.54"
/>
</g>
<path fill="#8c6138" d="
  M 503.75 33.21
  Q 498.97 33.25 498.06 33.31
  Q 497.39 33.36 497.54 34.00
  L 497.21 37.25
  Q 497.22 34.84 496.46 35.30
  Q 496.04 35.55 495.86 36.38
  Q 483.82 91.00 471.21 145.50
  Q 470.50 145.41 470.25 144.71
  Q 461.38 119.37 452.44 94.06
  Q 452.08 93.05 451.94 94.19
  Q 448.63 121.32 445.70 148.49
  Q 445.62 149.16 445.00 149.29
  Q 420.07 97.89 395.54 46.29
  Q 395.41 46.02 395.25 45.91
  Q 395.00 45.76 394.75 45.82
  C 394.49 45.88 394.31 46.19 394.31 46.56
  L 394.21 162.75
  L 364.05 115.08
  Q 362.80 113.11 363.06 115.43
  L 369.21 170.50
  L 297.43 80.80
  Q 295.53 78.43 296.20 81.39
  Q 308.63 136.15 321.19 191.81
  Q 321.33 192.40 321.21 193.00
  L 281.18 153.05
  Q 280.61 152.49 280.88 153.25
  L 299.62 206.50
  C 299.65 206.58 299.62 206.70 299.55 206.83
  L 299.46 207.00
  Q 240.97 160.86 209.56 135.69
  Q 208.92 135.17 208.55 135.36
  C 208.33 135.47 208.30 135.85 208.47 136.21
  L 258.25 240.21
  L 210.42 210.05
  Q 209.25 209.32 209.99 210.49
  Q 223.88 232.51 237.69 254.56
  Q 238.96 256.59 239.21 257.75
  Q 187.62 233.14 136.10 208.39
  Q 135.90 208.30 135.76 208.32
  Q 135.55 208.36 135.44 208.52
  C 135.32 208.70 135.38 209.02 135.59 209.29
  L 207.04 299.50
  Q 206.55 299.87 206.06 299.61
  Q 205.58 299.36 205.54 299.34
  Q 179.80 290.20 153.98 281.24
  Q 152.46 280.72 153.60 281.85
  Q 171.82 299.93 190.25 318.50
  Q 192.36 320.63 192.71 321.25
  L 81.31 296.09
  Q 79.57 295.70 80.41 297.27
  Q 80.72 297.84 81.69 298.41
  Q 82.67 299.00 83.10 299.34
  Q 126.61 333.99 170.04 368.75
  Q 168.45 369.14 165.00 368.75
  Q 139.63 365.84 113.97 362.97
  Q 113.36 362.90 113.88 363.23
  Q 137.69 378.48 161.63 393.65
  Q 162.42 394.15 161.50 394.29
  Q 104.87 394.43 48.25 394.25
  Q 46.01 394.24 44.79 393.50
  Q 54.51 349.09 72.81 308.81
  Q 88.18 274.99 108.85 242.68
  Q 114.35 234.09 120.08 226.14
  Q 188.84 130.79 295.17 79.08
  Q 356.74 49.14 424.48 38.59
  Q 455.86 33.71 493.00 33.00
  Q 500.94 32.85 503.75 33.21
  Z"
/>
<path fill="#73c0e3" d="
  M 503.75 33.21
  Q 581.26 34.17 654.81 60.44
  Q 732.11 88.05 794.45 140.33
  Q 865.08 199.56 908.68 280.82
  Q 921.04 303.86 930.33 328.32
  Q 951.03 382.84 958.26 440.75
  Q 968.20 520.27 951.17 598.20
  Q 949.04 607.94 946.44 617.62
  Q 924.68 698.66 876.00 767.27
  Q 827.40 835.79 757.70 882.71
  Q 691.80 927.06 614.25 947.25
  Q 558.77 961.69 502.25 961.99
  Q 432.68 962.36 363.75 942.25
  Q 326.49 931.38 295.25 915.94
  Q 195.05 866.42 127.21 778.30
  Q 121.06 770.31 115.43 762.14
  Q 64.97 688.94 44.88 601.83
  Q 34.17 555.40 33.21 507.75
  L 33.25 498.60
  C 33.25 498.18 33.62 497.87 34.02 497.93
  Q 41.20 499.02 47.79 500.58
  Q 97.27 512.27 146.79 523.75
  Q 146.82 524.20 146.52 524.30
  Q 119.99 533.40 94.16 542.60
  Q 92.81 543.08 94.23 543.25
  L 150.00 549.71
  Q 98.18 574.88 46.19 599.69
  Q 45.12 600.20 45.83 600.75
  C 46.03 600.91 46.37 600.97 46.75 600.91
  Q 47.89 600.75 50.00 600.75
  Q 105.87 600.72 161.75 600.79
  Q 161.81 601.49 161.00 602.00
  Q 137.69 616.67 114.52 631.39
  Q 113.29 632.17 114.73 632.00
  Q 141.37 628.96 168.00 626.00
  Q 168.99 625.89 169.54 626.25
  L 80.44 697.69
  Q 77.94 699.69 81.00 699.00
  L 192.71 673.75
  Q 192.54 674.33 191.56 675.31
  Q 172.92 693.92 153.99 712.89
  Q 152.38 714.49 154.53 713.74
  L 207.25 695.29
  L 135.44 785.77
  Q 133.81 787.84 136.18 786.69
  L 239.50 736.71
  Q 239.73 737.18 239.42 737.67
  Q 224.85 761.19 210.16 784.42
  Q 209.26 785.83 210.68 784.94
  Q 233.43 770.68 256.19 756.44
  Q 257.31 755.74 257.96 755.75
  L 208.74 858.51
  Q 207.52 861.07 209.74 859.30
  L 299.25 787.96
  Q 299.63 788.40 299.31 789.31
  Q 290.24 815.25 281.18 841.20
  Q 280.79 842.33 281.64 841.49
  L 321.21 802.25
  Q 308.97 858.64 295.80 914.81
  Q 295.65 915.45 296.02 915.65
  C 296.24 915.78 296.57 915.65 296.81 915.36
  L 368.96 824.75
  Q 369.05 827.21 368.31 833.81
  Q 365.72 856.87 363.19 879.95
  Q 362.99 881.78 363.98 880.22
  L 394.21 832.75
  Q 394.28 884.50 394.42 936.25
  Q 394.44 942.59 394.56 948.94
  Q 394.59 950.56 395.31 949.06
  L 445.21 845.00
  Q 445.60 846.16 446.06 850.19
  Q 448.93 875.09 451.80 900.47
  Q 451.99 902.17 452.58 900.56
  Q 461.69 875.30 470.56 849.52
  Q 470.70 849.09 471.21 849.25
  Q 483.86 904.07 496.01 959.00
  Q 497.10 963.91 498.16 959.29
  Q 510.91 903.78 523.54 848.25
  Q 524.05 848.09 524.19 848.52
  Q 533.27 874.85 542.69 901.07
  Q 543.13 902.30 543.28 901.00
  Q 546.40 873.38 549.56 845.51
  Q 549.60 845.13 549.96 845.00
  L 599.65 948.44
  Q 600.81 950.87 600.81 948.18
  L 600.79 833.25
  Q 601.30 833.09 601.54 833.47
  Q 616.46 856.94 631.09 880.09
  Q 632.25 881.93 632.00 879.77
  Q 628.92 853.38 626.00 827.00
  Q 625.87 825.80 626.29 825.50
  L 697.51 914.26
  Q 699.78 917.09 698.97 913.55
  L 673.71 802.75
  Q 674.01 802.39 674.44 802.81
  Q 693.74 821.89 712.83 841.20
  Q 714.48 842.87 713.70 840.66
  L 695.29 787.75
  Q 738.21 821.53 780.87 855.61
  Q 783.67 857.84 786.07 859.58
  Q 787.55 860.65 786.76 859.01
  L 736.71 755.50
  Q 737.27 755.07 737.69 755.47
  Q 738.23 756.00 738.30 756.04
  Q 761.50 770.55 785.05 785.29
  Q 785.77 785.74 785.32 785.01
  L 755.04 736.50
  Q 807.04 761.36 858.78 786.75
  Q 859.72 787.21 859.72 786.43
  Q 859.73 786.11 859.45 785.76
  Q 823.69 740.54 787.71 695.50
  Q 788.23 695.14 788.72 695.41
  Q 789.48 695.83 789.49 695.84
  Q 815.19 704.89 841.12 713.88
  Q 842.44 714.33 841.47 713.33
  Q 822.49 693.75 802.43 674.30
  Q 802.29 674.16 802.26 674.03
  Q 802.21 673.78 802.50 673.71
  L 913.26 698.75
  Q 917.02 699.60 914.01 697.20
  L 824.75 625.79
  L 879.51 632.00
  Q 881.96 632.28 879.88 630.96
  Q 856.72 616.27 833.00 601.25
  Q 832.67 601.04 832.75 600.79
  L 948.18 600.93
  C 948.54 600.93 948.87 600.82 949.07 600.62
  Q 949.95 599.78 948.66 599.34
  Q 947.73 599.03 947.51 598.93
  Q 896.15 574.67 845.00 549.96
  Q 845.13 549.60 845.51 549.56
  Q 873.37 546.33 901.26 543.25
  Q 902.52 543.11 901.32 542.69
  Q 880.86 535.55 860.46 528.23
  Q 853.94 525.89 847.25 524.04
  L 960.51 497.61
  C 960.91 497.52 961.20 497.28 961.20 497.04
  Q 961.21 496.66 960.50 496.50
  Q 904.64 483.81 848.75 471.21
  Q 849.54 470.48 851.56 469.81
  Q 870.65 463.51 901.10 452.24
  Q 901.56 452.06 901.06 452.00
  Q 874.05 448.67 847.00 445.74
  Q 845.99 445.63 845.25 445.04
  L 948.06 395.81
  Q 951.32 394.25 947.75 394.25
  L 833.00 394.21
  Q 833.72 393.30 835.31 392.31
  Q 858.18 378.15 881.02 363.22
  Q 881.54 362.88 880.93 362.95
  Q 853.13 366.18 825.75 369.25
  Q 825.00 369.33 824.71 369.00
  L 915.04 297.00
  C 915.34 296.76 915.48 296.44 915.39 296.20
  Q 915.21 295.75 914.44 295.94
  Q 876.27 305.02 802.29 321.25
  L 842.20 281.18
  Q 842.76 280.61 842.01 280.87
  Q 815.46 290.12 788.72 299.41
  Q 788.17 299.61 788.21 299.00
  L 859.62 209.33
  C 859.85 209.05 859.94 208.73 859.88 208.45
  Q 859.70 207.66 859.03 208.14
  Q 858.48 208.54 858.29 208.63
  Q 806.98 233.45 755.54 258.00
  L 784.90 210.89
  Q 785.85 209.36 784.32 210.31
  Q 760.91 224.82 737.64 239.56
  Q 737.57 239.60 737.28 239.87
  Q 736.89 240.23 736.46 239.75
  L 786.51 136.75
  Q 788.00 133.68 785.33 135.80
  L 695.25 207.29
  Q 694.87 206.75 695.18 206.24
  Q 695.54 205.67 695.58 205.56
  Q 704.97 179.91 713.82 154.05
  Q 714.33 152.54 713.21 153.67
  Q 694.44 172.44 675.44 191.44
  Q 674.44 192.44 673.75 192.46
  L 699.19 80.50
  C 699.24 80.30 699.22 80.12 699.13 80.01
  L 698.97 79.82
  C 698.81 79.62 698.47 79.68 698.26 79.94
  L 626.46 169.50
  Q 625.89 169.26 626.00 168.25
  Q 628.97 141.50 631.87 115.88
  Q 632.17 113.24 630.76 115.49
  Q 616.81 137.66 602.75 159.75
  Q 601.65 161.48 600.79 162.25
  Q 600.72 106.25 600.78 50.25
  Q 600.79 48.57 600.96 46.90
  Q 601.00 46.44 600.89 46.11
  Q 600.50 44.91 599.81 46.31
  Q 589.50 67.37 550.00 149.54
  Q 549.41 149.48 549.45 149.00
  Q 549.48 148.59 549.47 148.50
  Q 546.43 121.49 543.26 94.58
  Q 543.06 92.90 542.50 94.49
  L 524.66 145.52
  Q 524.64 145.59 524.54 146.50
  Q 524.48 147.08 523.79 147.25
  L 497.54 34.00
  Q 497.39 33.36 498.06 33.31
  Q 498.97 33.25 503.75 33.21
  Z"
/>
<path fill="#3e6576" d="
  M 497.54 34.00
  L 523.79 147.25
  L 532.42 184.77
  Q 532.66 185.79 533.11 184.85
  L 550.00 149.54
  Q 589.50 67.37 599.81 46.31
  Q 600.50 44.91 600.89 46.11
  Q 601.00 46.44 600.96 46.90
  Q 600.79 48.57 600.78 50.25
  Q 600.72 106.25 600.79 162.25
  L 600.95 200.56
  Q 600.96 201.38 601.48 200.73
  L 626.46 169.50
  L 698.26 79.94
  C 698.47 79.68 698.81 79.62 698.97 79.82
  L 699.13 80.01
  C 699.22 80.12 699.24 80.30 699.19 80.50
  L 673.75 192.46
  L 664.92 230.94
  Q 664.80 231.46 665.21 231.14
  L 695.25 207.29
  L 785.33 135.80
  Q 788.00 133.68 786.51 136.75
  L 736.46 239.75
  L 719.82 274.60
  Q 719.39 275.51 720.30 275.07
  L 755.54 258.00
  Q 806.98 233.45 858.29 208.63
  Q 858.48 208.54 859.03 208.14
  Q 859.70 207.66 859.88 208.45
  C 859.94 208.73 859.85 209.05 859.62 209.33
  L 788.21 299.00
  L 763.80 329.58
  Q 763.34 330.15 764.06 329.99
  L 802.29 321.25
  Q 876.27 305.02 914.44 295.94
  Q 915.21 295.75 915.39 296.20
  C 915.48 296.44 915.34 296.76 915.04 297.00
  L 824.71 369.00
  L 793.69 393.88
  Q 793.30 394.19 793.82 394.19
  L 833.00 394.21
  L 947.75 394.25
  Q 951.32 394.25 948.06 395.81
  L 845.25 445.04
  L 810.41 461.89
  Q 809.58 462.29 810.48 462.50
  L 848.75 471.21
  Q 904.64 483.81 960.50 496.50
  Q 961.21 496.66 961.20 497.04
  C 961.20 497.28 960.91 497.52 960.51 497.61
  L 847.25 524.04
  L 809.68 532.38
  Q 809.08 532.52 809.63 532.79
  L 845.00 549.96
  Q 896.15 574.67 947.51 598.93
  Q 947.73 599.03 948.66 599.34
  Q 949.95 599.78 949.07 600.62
  C 948.87 600.82 948.54 600.93 948.18 600.93
  L 832.75 600.79
  L 794.70 600.75
  Q 793.42 600.75 794.42 601.55
  L 824.75 625.79
  L 914.01 697.20
  Q 917.02 699.60 913.26 698.75
  L 802.50 673.71
  L 763.74 664.75
  Q 763.09 664.60 763.50 665.11
  L 787.71 695.50
  Q 823.69 740.54 859.45 785.76
  Q 859.73 786.11 859.72 786.43
  Q 859.72 787.21 858.78 786.75
  Q 807.04 761.36 755.04 736.50
  L 719.98 719.49
  Q 719.19 719.11 719.57 719.90
  L 736.71 755.50
  L 786.76 859.01
  Q 787.55 860.65 786.07 859.58
  Q 783.67 857.84 780.87 855.61
  Q 738.21 821.53 695.29 787.75
  L 665.58 763.90
  Q 664.60 763.11 664.89 764.34
  L 673.71 802.75
  L 698.97 913.55
  Q 699.78 917.09 697.51 914.26
  L 626.29 825.50
  L 601.83 794.81
  Q 600.75 793.44 600.75 795.19
  L 600.79 833.25
  L 600.81 948.18
  Q 600.81 950.87 599.65 948.44
  L 549.96 845.00
  L 533.22 810.25
  Q 532.60 808.97 532.28 810.37
  L 523.54 848.25
  Q 510.91 903.78 498.16 959.29
  Q 497.10 963.91 496.01 959.00
  Q 483.86 904.07 471.21 849.25
  L 462.44 810.43
  Q 462.24 809.54 461.84 810.37
  L 445.21 845.00
  L 395.31 949.06
  Q 394.59 950.56 394.56 948.94
  Q 394.44 942.59 394.42 936.25
  Q 394.28 884.50 394.21 832.75
  L 394.01 794.00
  Q 394.01 793.48 393.68 793.89
  L 368.96 824.75
  L 296.81 915.36
  C 296.57 915.65 296.24 915.78 296.02 915.65
  Q 295.65 915.45 295.80 914.81
  Q 308.97 858.64 321.21 802.25
  L 330.00 763.98
  Q 330.20 763.14 329.52 763.69
  L 299.25 787.96
  L 209.74 859.30
  Q 207.52 861.07 208.74 858.51
  L 257.96 755.75
  L 274.95 720.40
  Q 275.38 719.50 274.48 719.93
  L 239.50 736.71
  L 136.18 786.69
  Q 133.81 787.84 135.44 785.77
  L 207.25 695.29
  L 231.33 665.21
  Q 231.78 664.65 231.09 664.82
  L 192.71 673.75
  L 81.00 699.00
  Q 77.94 699.69 80.44 697.69
  L 169.54 626.25
  L 200.44 601.70
  Q 201.64 600.75 200.10 600.75
  L 161.75 600.79
  Q 105.87 600.72 50.00 600.75
  Q 47.89 600.75 46.75 600.91
  C 46.37 600.97 46.03 600.91 45.83 600.75
  Q 45.12 600.20 46.19 599.69
  Q 98.18 574.88 150.00 549.71
  L 184.69 533.14
  Q 185.54 532.73 184.62 532.52
  L 146.79 523.75
  Q 97.27 512.27 47.79 500.58
  Q 41.20 499.02 34.02 497.93
  C 33.62 497.87 33.25 498.18 33.25 498.60
  L 33.21 507.75
  Q 32.97 502.22 32.68 496.69
  Q 32.63 495.90 33.04 495.25
  Q 33.69 496.11 34.75 496.29
  Q 36.91 497.19 38.56 497.19
  Q 93.16 497.26 147.75 497.29
  Q 148.30 497.63 149.00 497.54
  Q 153.29 498.38 172.00 502.75
  Q 217.44 513.36 262.15 523.51
  Q 263.62 523.84 262.27 524.49
  L 159.93 573.94
  Q 156.57 575.56 160.29 575.49
  Q 184.21 575.01 208.50 575.33
  Q 221.35 575.50 228.50 575.49
  Q 250.89 575.46 273.31 575.25
  Q 274.88 575.23 273.65 576.21
  L 184.30 647.57
  Q 182.64 648.90 184.71 648.43
  L 296.89 623.03
  Q 298.44 622.67 297.45 623.92
  L 226.03 713.86
  Q 224.70 715.53 226.62 714.60
  L 330.07 664.56
  Q 330.63 664.29 330.36 664.85
  L 280.19 769.07
  Q 279.75 769.98 280.56 769.38
  Q 284.97 766.11 289.48 762.48
  Q 330.27 729.74 370.96 697.59
  Q 372.48 696.39 372.05 698.27
  L 346.78 809.97
  Q 346.20 812.53 347.83 810.47
  L 418.93 720.95
  Q 419.75 719.91 419.75 721.24
  L 419.75 835.52
  Q 419.75 837.59 420.65 835.72
  L 470.26 733.41
  Q 471.04 731.81 471.43 733.55
  L 496.81 845.19
  Q 497.12 846.55 497.44 845.19
  L 523.50 733.23
  Q 523.97 731.21 524.87 733.08
  L 574.57 836.20
  Q 575.44 838.00 575.44 836.00
  L 575.44 721.33
  Q 575.44 720.02 576.25 721.05
  L 647.23 810.43
  Q 648.95 812.60 648.34 809.90
  L 623.00 697.99
  Q 622.73 696.80 623.68 697.56
  L 714.14 769.27
  Q 715.38 770.26 714.69 768.83
  L 665.17 665.88
  Q 664.42 664.34 665.97 665.08
  L 768.80 714.57
  Q 770.07 715.17 769.20 714.07
  L 697.74 623.98
  Q 696.73 622.71 698.31 623.07
  L 810.32 648.44
  Q 812.64 648.96 810.78 647.49
  L 721.30 576.43
  Q 719.89 575.31 721.70 575.31
  L 836.44 575.44
  Q 838.12 575.44 836.56 574.69
  L 732.33 524.45
  Q 731.30 523.95 732.42 523.69
  L 844.52 497.55
  Q 846.80 497.02 844.52 496.50
  L 733.17 471.25
  Q 731.77 470.93 733.06 470.31
  L 836.32 420.56
  Q 838.00 419.75 836.14 419.75
  L 721.24 419.75
  Q 719.95 419.75 720.96 418.95
  L 811.50 347.00
  Q 812.48 346.22 811.25 346.50
  L 698.48 372.00
  Q 696.38 372.48 697.72 370.79
  L 769.28 280.88
  Q 770.31 279.59 768.82 280.31
  L 665.29 330.21
  Q 664.26 330.71 664.76 329.68
  L 715.07 225.80
  Q 715.61 224.68 714.63 225.45
  L 624.04 297.28
  Q 622.65 298.38 623.04 296.65
  L 648.50 184.23
  Q 648.93 182.33 647.72 183.86
  L 576.22 273.49
  Q 575.44 274.46 575.44 273.21
  Q 575.27 220.25 575.46 167.31
  Q 575.48 162.68 575.22 158.06
  Q 575.19 157.56 574.97 158.02
  L 524.49 262.49
  Q 523.93 263.64 523.65 262.39
  Q 511.54 209.18 499.02 156.74
  Q 498.78 155.71 498.04 155.00
  L 497.46 149.25
  L 497.21 37.25
  L 497.54 34.00
  Z"
/>
<path fill="#603813" d="
  M 497.21 37.25
  L 497.46 149.25
  Q 496.78 149.26 496.69 149.69
  Q 486.08 197.12 480.56 219.31
  Q 475.41 240.05 471.36 262.14
  Q 471.11 263.52 470.51 262.26
  L 420.43 158.54
  Q 419.75 157.14 419.75 158.70
  L 419.69 273.93
  Q 419.69 274.44 419.37 274.04
  L 347.02 183.57
  Q 346.32 182.69 346.56 183.79
  L 372.42 298.23
  Q 372.58 298.95 372.00 298.49
  L 280.74 225.74
  Q 279.59 224.82 280.23 226.15
  L 330.57 329.95
  Q 331.17 331.20 329.93 330.59
  L 226.07 280.25
  Q 224.82 279.65 225.69 280.73
  L 298.26 371.76
  Q 298.96 372.64 297.86 372.39
  L 224.00 355.73
  Q 223.83 355.69 223.98 355.60
  L 224.13 355.52
  Q 224.49 355.32 224.06 355.31
  Q 221.94 355.30 219.91 354.77
  Q 216.58 353.91 216.55 353.90
  Q 200.83 350.65 185.23 346.75
  Q 182.08 345.96 184.62 347.98
  Q 226.37 381.12 269.31 415.44
  Q 272.39 417.90 273.65 419.53
  Q 273.96 419.93 273.44 419.93
  L 159.26 419.75
  Q 157.15 419.75 159.05 420.67
  L 261.53 470.13
  Q 263.78 471.21 261.33 471.71
  Q 244.48 475.18 226.44 479.69
  Q 222.98 480.55 220.00 480.85
  Q 215.68 481.28 213.59 481.81
  Q 181.56 489.95 149.18 496.59
  C 149.06 496.61 148.77 496.82 148.44 497.12
  Q 148.19 497.34 147.75 497.29
  Q 93.16 497.26 38.56 497.19
  Q 36.91 497.19 34.75 496.29
  L 146.25 471.21
  L 184.35 462.48
  Q 185.17 462.29 184.41 461.93
  L 148.79 444.75
  Q 107.71 424.90 66.56 405.19
  Q 53.07 398.73 47.44 396.31
  Q 45.32 395.40 44.29 395.75
  Q 44.22 394.56 44.79 393.50
  Q 46.01 394.24 48.25 394.25
  Q 104.87 394.43 161.50 394.29
  L 200.74 394.25
  Q 201.99 394.25 201.02 393.47
  L 170.04 368.75
  Q 126.61 333.99 83.10 299.34
  Q 82.67 299.00 81.69 298.41
  Q 80.72 297.84 80.41 297.27
  Q 79.57 295.70 81.31 296.09
  L 192.71 321.25
  L 230.89 329.94
  Q 231.41 330.06 231.08 329.64
  L 207.04 299.50
  L 135.59 209.29
  C 135.38 209.02 135.32 208.70 135.44 208.52
  Q 135.55 208.36 135.76 208.32
  Q 135.90 208.30 136.10 208.39
  Q 187.62 233.14 239.21 257.75
  L 274.23 274.48
  Q 274.71 274.71 274.48 274.23
  L 258.25 240.21
  L 208.47 136.21
  C 208.30 135.85 208.33 135.47 208.55 135.36
  Q 208.92 135.17 209.56 135.69
  Q 240.97 160.86 299.46 207.00
  L 329.09 230.68
  Q 329.98 231.39 329.75 230.27
  Q 325.97 211.51 321.21 193.00
  Q 321.33 192.40 321.19 191.81
  Q 308.63 136.15 296.20 81.39
  Q 295.53 78.43 297.43 80.80
  L 369.21 170.50
  L 393.80 201.22
  Q 394.31 201.87 394.31 201.04
  L 394.21 162.75
  L 394.31 46.56
  C 394.31 46.19 394.49 45.88 394.75 45.82
  Q 395.00 45.76 395.25 45.91
  Q 395.41 46.02 395.54 46.29
  Q 420.07 97.89 445.00 149.29
  L 461.78 184.36
  Q 462.21 185.27 462.43 184.29
  L 471.21 145.50
  Q 483.82 91.00 495.86 36.38
  Q 496.04 35.55 496.46 35.30
  Q 497.22 34.84 497.21 37.25
  Z"
/>
<path fill="#518da3" d="
  M 550.00 149.54
  L 533.11 184.85
  Q 532.66 185.79 532.42 184.77
  L 523.79 147.25
  Q 524.48 147.08 524.54 146.50
  Q 524.64 145.59 524.66 145.52
  L 542.50 94.49
  Q 543.06 92.90 543.26 94.58
  Q 546.43 121.49 549.47 148.50
  Q 549.48 148.59 549.45 149.00
  Q 549.41 149.48 550.00 149.54
  Z"
/>
<path fill="#744c24" d="
  M 471.21 145.50
  L 462.43 184.29
  Q 462.21 185.27 461.78 184.36
  L 445.00 149.29
  Q 445.62 149.16 445.70 148.49
  Q 448.63 121.32 451.94 94.19
  Q 452.08 93.05 452.44 94.06
  Q 461.38 119.37 470.25 144.71
  Q 470.50 145.41 471.21 145.50
  Z"
/>
<path fill="#744c24" d="
  M 394.21 162.75
  L 394.31 201.04
  Q 394.31 201.87 393.80 201.22
  L 369.21 170.50
  L 363.06 115.43
  Q 362.80 113.11 364.05 115.08
  L 394.21 162.75
  Z"
/>
<path fill="#518da3" d="
  M 626.46 169.50
  L 601.48 200.73
  Q 600.96 201.38 600.95 200.56
  L 600.79 162.25
  Q 601.65 161.48 602.75 159.75
  Q 616.81 137.66 630.76 115.49
  Q 632.17 113.24 631.87 115.88
  Q 628.97 141.50 626.00 168.25
  Q 625.89 169.26 626.46 169.50
  Z"
/>
<path fill="#42210b" d="
  M 497.46 149.25
  L 498.04 155.00
  Q 497.27 157.29 497.25 161.75
  Q 497.09 191.00 497.46 220.25
  Q 497.21 220.40 497.00 220.60
  Q 496.82 220.79 496.75 221.10
  Q 491.63 242.96 487.04 264.95
  C 486.98 265.24 486.74 265.45 486.45 265.47
  Q 471.91 266.49 456.69 268.95
  C 456.27 269.02 455.85 268.80 455.67 268.41
  Q 449.41 254.93 442.88 241.81
  Q 441.95 239.95 440.22 235.36
  Q 438.92 231.93 437.11 229.07
  Q 436.25 227.71 436.25 229.32
  L 436.24 272.52
  C 436.24 273.01 435.91 273.44 435.44 273.58
  Q 420.85 277.88 406.27 283.74
  C 405.99 283.86 405.66 283.77 405.47 283.53
  L 378.35 249.19
  Q 377.41 248.00 377.75 249.48
  L 387.39 292.02
  C 387.46 292.30 387.32 292.60 387.06 292.74
  Q 374.09 300.01 360.72 309.05
  C 360.36 309.29 359.88 309.28 359.55 309.01
  L 326.50 282.88
  Q 324.36 281.19 325.54 283.65
  L 343.89 321.59
  C 344.05 321.93 343.96 322.33 343.68 322.59
  Q 332.35 332.60 322.55 343.70
  C 322.30 343.98 321.89 344.06 321.55 343.90
  L 282.43 324.96
  Q 281.21 324.37 282.06 325.43
  L 309.19 359.57
  C 309.42 359.85 309.43 360.24 309.23 360.53
  Q 300.47 373.35 292.80 386.88
  C 292.66 387.14 292.36 387.28 292.07 387.21
  L 249.89 377.86
  Q 248.06 377.46 249.52 378.61
  L 283.09 405.13
  C 283.59 405.52 283.78 406.19 283.54 406.77
  Q 277.90 420.65 273.69 435.59
  C 273.61 435.87 273.36 436.07 273.07 436.08
  L 230.22 436.23
  Q 227.45 436.24 229.89 437.57
  L 235.63 440.69
  C 235.89 440.83 236.22 440.90 236.57 440.89
  Q 238.09 440.84 239.50 442.00
  Q 240.78 443.05 243.12 443.99
  Q 246.08 445.17 246.92 445.57
  Q 257.53 450.63 268.20 455.57
  C 268.59 455.75 268.81 456.17 268.73 456.59
  Q 268.03 460.60 267.49 464.68
  Q 267.16 467.22 266.87 472.84
  Q 266.51 479.69 265.28 486.44
  C 265.23 486.74 265.00 486.98 264.70 487.04
  Q 243.35 491.77 222.00 496.52
  Q 220.95 496.75 220.00 497.29
  L 149.00 497.54
  Q 148.30 497.63 147.75 497.29
  Q 148.19 497.34 148.44 497.12
  C 148.77 496.82 149.06 496.61 149.18 496.59
  Q 181.56 489.95 213.59 481.81
  Q 215.68 481.28 220.00 480.85
  Q 222.98 480.55 226.44 479.69
  Q 244.48 475.18 261.33 471.71
  Q 263.78 471.21 261.53 470.13
  L 159.05 420.67
  Q 157.15 419.75 159.26 419.75
  L 273.44 419.93
  Q 273.96 419.93 273.65 419.53
  Q 272.39 417.90 269.31 415.44
  Q 226.37 381.12 184.62 347.98
  Q 182.08 345.96 185.23 346.75
  Q 200.83 350.65 216.55 353.90
  Q 216.58 353.91 219.91 354.77
  Q 221.94 355.30 224.06 355.31
  Q 224.49 355.32 224.13 355.52
  L 223.98 355.60
  Q 223.83 355.69 224.00 355.73
  L 297.86 372.39
  Q 298.96 372.64 298.26 371.76
  L 225.69 280.73
  Q 224.82 279.65 226.07 280.25
  L 329.93 330.59
  Q 331.17 331.20 330.57 329.95
  L 280.23 226.15
  Q 279.59 224.82 280.74 225.74
  L 372.00 298.49
  Q 372.58 298.95 372.42 298.23
  L 346.56 183.79
  Q 346.32 182.69 347.02 183.57
  L 419.37 274.04
  Q 419.69 274.44 419.69 273.93
  L 419.75 158.70
  Q 419.75 157.14 420.43 158.54
  L 470.51 262.26
  Q 471.11 263.52 471.36 262.14
  Q 475.41 240.05 480.56 219.31
  Q 486.08 197.12 496.69 149.69
  Q 496.78 149.26 497.46 149.25
  Z"
/>
<path fill="#744c24" d="
  M 321.21 193.00
  Q 325.97 211.51 329.75 230.27
  Q 329.98 231.39 329.09 230.68
  L 299.46 207.00
  L 299.55 206.83
  C 299.62 206.70 299.65 206.58 299.62 206.50
  L 280.88 153.25
  Q 280.61 152.49 281.18 153.05
  L 321.21 193.00
  Z"
/>
<path fill="#518da3" d="
  M 695.25 207.29
  L 665.21 231.14
  Q 664.80 231.46 664.92 230.94
  L 673.75 192.46
  Q 674.44 192.44 675.44 191.44
  Q 694.44 172.44 713.21 153.67
  Q 714.33 152.54 713.82 154.05
  Q 704.97 179.91 695.58 205.56
  Q 695.54 205.67 695.18 206.24
  Q 694.87 206.75 695.25 207.29
  Z"
/>
<path fill="#224b5b" d="
  M 498.04 155.00
  Q 498.78 155.71 499.02 156.74
  Q 511.54 209.18 523.65 262.39
  Q 523.93 263.64 524.49 262.49
  L 574.97 158.02
  Q 575.19 157.56 575.22 158.06
  Q 575.48 162.68 575.46 167.31
  Q 575.27 220.25 575.44 273.21
  Q 575.44 274.46 576.22 273.49
  L 647.72 183.86
  Q 648.93 182.33 648.50 184.23
  L 623.04 296.65
  Q 622.65 298.38 624.04 297.28
  L 714.63 225.45
  Q 715.61 224.68 715.07 225.80
  L 664.76 329.68
  Q 664.26 330.71 665.29 330.21
  L 768.82 280.31
  Q 770.31 279.59 769.28 280.88
  L 697.72 370.79
  Q 696.38 372.48 698.48 372.00
  L 811.25 346.50
  Q 812.48 346.22 811.50 347.00
  L 720.96 418.95
  Q 719.95 419.75 721.24 419.75
  L 836.14 419.75
  Q 838.00 419.75 836.32 420.56
  L 733.06 470.31
  Q 731.77 470.93 733.17 471.25
  L 844.52 496.50
  Q 846.80 497.02 844.52 497.55
  L 732.42 523.69
  Q 731.30 523.95 732.33 524.45
  L 836.56 574.69
  Q 838.12 575.44 836.44 575.44
  L 721.70 575.31
  Q 719.89 575.31 721.30 576.43
  L 810.78 647.49
  Q 812.64 648.96 810.32 648.44
  L 698.31 623.07
  Q 696.73 622.71 697.74 623.98
  L 769.20 714.07
  Q 770.07 715.17 768.80 714.57
  L 665.97 665.08
  Q 664.42 664.34 665.17 665.88
  L 714.69 768.83
  Q 715.38 770.26 714.14 769.27
  L 623.68 697.56
  Q 622.73 696.80 623.00 697.99
  L 648.34 809.90
  Q 648.95 812.60 647.23 810.43
  L 576.25 721.05
  Q 575.44 720.02 575.44 721.33
  L 575.44 836.00
  Q 575.44 838.00 574.57 836.20
  L 524.87 733.08
  Q 523.97 731.21 523.50 733.23
  L 497.44 845.19
  Q 497.12 846.55 496.81 845.19
  L 471.43 733.55
  Q 471.04 731.81 470.26 733.41
  L 420.65 835.72
  Q 419.75 837.59 419.75 835.52
  L 419.75 721.24
  Q 419.75 719.91 418.93 720.95
  L 347.83 810.47
  Q 346.20 812.53 346.78 809.97
  L 372.05 698.27
  Q 372.48 696.39 370.96 697.59
  Q 330.27 729.74 289.48 762.48
  Q 284.97 766.11 280.56 769.38
  Q 279.75 769.98 280.19 769.07
  L 330.36 664.85
  Q 330.63 664.29 330.07 664.56
  L 226.62 714.60
  Q 224.70 715.53 226.03 713.86
  L 297.45 623.92
  Q 298.44 622.67 296.89 623.03
  L 184.71 648.43
  Q 182.64 648.90 184.30 647.57
  L 273.65 576.21
  Q 274.88 575.23 273.31 575.25
  Q 250.89 575.46 228.50 575.49
  Q 221.35 575.50 208.50 575.33
  Q 184.21 575.01 160.29 575.49
  Q 156.57 575.56 159.93 573.94
  L 262.27 524.49
  Q 263.62 523.84 262.15 523.51
  Q 217.44 513.36 172.00 502.75
  Q 153.29 498.38 149.00 497.54
  L 220.00 497.29
  Q 221.91 497.56 231.81 499.81
  Q 248.39 503.58 264.94 507.45
  C 265.24 507.52 265.45 507.76 265.47 508.06
  Q 266.50 522.50 268.92 537.82
  C 269.00 538.35 268.73 538.86 268.26 539.09
  L 229.42 557.84
  Q 227.13 558.94 229.68 558.94
  L 272.74 558.81
  C 273.21 558.80 273.63 559.12 273.77 559.58
  Q 278.30 575.00 283.91 588.60
  C 284.03 588.91 283.94 589.26 283.68 589.47
  L 249.17 616.70
  Q 248.01 617.62 249.45 617.28
  L 292.00 607.40
  C 292.45 607.30 292.91 607.51 293.12 607.91
  Q 300.16 621.15 309.26 633.97
  C 309.43 634.21 309.42 634.53 309.24 634.76
  L 282.05 668.83
  Q 281.57 669.42 282.26 669.10
  L 320.90 650.78
  C 321.47 650.51 322.14 650.64 322.55 651.10
  Q 332.71 662.66 343.73 672.59
  C 344.02 672.85 344.10 673.27 343.93 673.63
  L 325.17 712.45
  Q 324.54 713.74 325.66 712.85
  L 359.48 686.10
  C 359.91 685.76 360.51 685.75 360.96 686.06
  Q 373.99 695.15 386.88 702.14
  C 387.26 702.35 387.45 702.78 387.36 703.20
  L 377.75 745.77
  Q 377.44 747.14 378.31 746.03
  L 405.56 711.54
  C 405.74 711.30 406.06 711.22 406.34 711.33
  Q 420.59 717.21 435.50 721.39
  C 435.94 721.51 436.25 721.92 436.25 722.38
  L 436.25 766.01
  Q 436.25 767.84 437.03 766.19
  L 455.47 727.10
  C 455.75 726.50 456.41 726.15 457.07 726.26
  Q 471.58 728.60 486.32 729.65
  C 486.62 729.67 486.86 729.88 486.93 730.17
  L 496.50 772.51
  Q 497.02 774.78 497.55 772.52
  L 507.57 730.17
  C 507.64 729.88 507.89 729.67 508.19 729.65
  Q 523.16 728.53 538.06 726.24
  C 538.46 726.18 538.86 726.39 539.04 726.76
  L 558.31 766.44
  Q 558.94 767.74 558.94 766.19
  L 558.76 722.35
  C 558.75 721.80 559.12 721.32 559.66 721.17
  Q 574.50 717.10 588.08 711.41
  C 588.68 711.16 589.36 711.34 589.76 711.84
  L 616.75 746.00
  Q 617.54 747.00 617.25 745.76
  L 607.34 703.06
  C 607.26 702.69 607.43 702.31 607.76 702.13
  Q 621.51 694.67 633.79 686.00
  C 634.16 685.74 634.65 685.76 635.01 686.04
  L 668.37 712.78
  Q 669.65 713.81 668.94 712.33
  L 650.66 673.80
  C 650.47 673.41 650.57 672.95 650.90 672.67
  Q 662.63 662.64 672.68 650.89
  C 672.94 650.58 673.37 650.49 673.74 650.66
  L 712.47 668.99
  Q 713.69 669.56 712.85 668.51
  L 686.01 634.97
  C 685.74 634.63 685.73 634.14 685.98 633.78
  Q 694.81 621.27 702.04 607.85
  C 702.23 607.49 702.65 607.31 703.05 607.40
  L 745.38 617.28
  Q 747.06 617.67 745.70 616.60
  L 711.31 589.44
  C 711.07 589.25 710.99 588.93 711.10 588.64
  Q 717.06 574.18 721.54 559.42
  C 721.63 559.13 721.89 558.93 722.19 558.93
  L 766.07 558.93
  C 766.38 558.93 766.64 558.81 766.67 558.65
  Q 766.71 558.42 766.30 558.22
  Q 746.83 548.84 727.02 539.11
  C 726.42 538.81 726.08 538.15 726.20 537.49
  Q 728.77 522.50 729.49 508.21
  C 729.51 507.81 729.79 507.47 730.19 507.38
  L 772.84 497.37
  Q 774.30 497.03 772.83 496.69
  L 730.06 486.98
  C 729.76 486.91 729.54 486.65 729.52 486.34
  Q 728.62 471.42 726.18 456.60
  C 726.12 456.23 726.31 455.86 726.65 455.70
  L 765.98 437.04
  Q 767.63 436.25 765.80 436.25
  L 722.06 436.19
  C 721.76 436.19 721.51 435.99 721.43 435.71
  Q 717.27 420.80 711.44 406.46
  C 711.33 406.18 711.40 405.87 711.63 405.69
  L 745.70 378.68
  Q 747.21 377.48 745.34 377.90
  L 703.29 387.30
  C 702.75 387.42 702.20 387.17 701.94 386.68
  Q 694.95 373.60 686.07 360.99
  C 685.74 360.51 685.75 359.88 686.11 359.42
  L 712.63 326.01
  Q 713.88 324.43 712.08 325.31
  L 673.93 343.75
  C 673.35 344.03 672.65 343.89 672.22 343.41
  Q 661.90 331.83 650.90 322.38
  C 650.58 322.10 650.48 321.64 650.66 321.26
  L 669.01 282.73
  Q 669.69 281.31 668.46 282.30
  L 634.89 309.19
  C 634.66 309.37 634.33 309.38 634.08 309.21
  Q 621.78 300.76 608.06 293.11
  C 607.61 292.86 607.38 292.35 607.50 291.86
  L 617.44 249.18
  Q 617.72 247.99 616.96 248.94
  L 589.32 283.61
  C 589.13 283.84 588.81 283.92 588.54 283.81
  Q 574.43 278.12 559.59 273.87
  C 559.09 273.73 558.75 273.27 558.75 272.76
  L 558.75 229.20
  Q 558.75 227.64 558.07 229.05
  L 538.97 268.50
  C 538.83 268.78 538.53 268.94 538.23 268.89
  Q 522.94 266.65 508.07 265.48
  C 507.77 265.46 507.51 265.25 507.44 264.96
  Q 501.94 242.72 497.46 220.25
  Q 497.09 191.00 497.25 161.75
  Q 497.27 157.29 498.04 155.00
  Z"
/>
<path fill="#744c24" d="
  M 258.25 240.21
  L 274.48 274.23
  Q 274.71 274.71 274.23 274.48
  L 239.21 257.75
  Q 238.96 256.59 237.69 254.56
  Q 223.88 232.51 209.99 210.49
  Q 209.25 209.32 210.42 210.05
  L 258.25 240.21
  Z"
/>
<path fill="#518da3" d="
  M 755.54 258.00
  L 720.30 275.07
  Q 719.39 275.51 719.82 274.60
  L 736.46 239.75
  Q 736.89 240.23 737.28 239.87
  Q 737.57 239.60 737.64 239.56
  Q 760.91 224.82 784.32 210.31
  Q 785.85 209.36 784.90 210.89
  L 755.54 258.00
  Z"
/>
<path fill="#000000" d="
  M 497.46 220.25
  Q 501.94 242.72 507.44 264.96
  C 507.51 265.25 507.77 265.46 508.07 265.48
  Q 522.94 266.65 538.23 268.89
  C 538.53 268.94 538.83 268.78 538.97 268.50
  L 558.07 229.05
  Q 558.75 227.64 558.75 229.20
  L 558.75 272.76
  C 558.75 273.27 559.09 273.73 559.59 273.87
  Q 574.43 278.12 588.54 283.81
  C 588.81 283.92 589.13 283.84 589.32 283.61
  L 616.96 248.94
  Q 617.72 247.99 617.44 249.18
  L 607.50 291.86
  C 607.38 292.35 607.61 292.86 608.06 293.11
  Q 621.78 300.76 634.08 309.21
  C 634.33 309.38 634.66 309.37 634.89 309.19
  L 668.46 282.30
  Q 669.69 281.31 669.01 282.73
  L 650.66 321.26
  C 650.48 321.64 650.58 322.10 650.90 322.38
  Q 661.90 331.83 672.22 343.41
  C 672.65 343.89 673.35 344.03 673.93 343.75
  L 712.08 325.31
  Q 713.88 324.43 712.63 326.01
  L 686.11 359.42
  C 685.75 359.88 685.74 360.51 686.07 360.99
  Q 694.95 373.60 701.94 386.68
  C 702.20 387.17 702.75 387.42 703.29 387.30
  L 745.34 377.90
  Q 747.21 377.48 745.70 378.68
  L 711.63 405.69
  C 711.40 405.87 711.33 406.18 711.44 406.46
  Q 717.27 420.80 721.43 435.71
  C 721.51 435.99 721.76 436.19 722.06 436.19
  L 765.80 436.25
  Q 767.63 436.25 765.98 437.04
  L 726.65 455.70
  C 726.31 455.86 726.12 456.23 726.18 456.60
  Q 728.62 471.42 729.52 486.34
  C 729.54 486.65 729.76 486.91 730.06 486.98
  L 772.83 496.69
  Q 774.30 497.03 772.84 497.37
  L 730.19 507.38
  C 729.79 507.47 729.51 507.81 729.49 508.21
  Q 728.77 522.50 726.20 537.49
  C 726.08 538.15 726.42 538.81 727.02 539.11
  Q 746.83 548.84 766.30 558.22
  Q 766.71 558.42 766.67 558.65
  C 766.64 558.81 766.38 558.93 766.07 558.93
  L 722.19 558.93
  C 721.89 558.93 721.63 559.13 721.54 559.42
  Q 717.06 574.18 711.10 588.64
  C 710.99 588.93 711.07 589.25 711.31 589.44
  L 745.70 616.60
  Q 747.06 617.67 745.38 617.28
  L 703.05 607.40
  C 702.65 607.31 702.23 607.49 702.04 607.85
  Q 694.81 621.27 685.98 633.78
  C 685.73 634.14 685.74 634.63 686.01 634.97
  L 712.85 668.51
  Q 713.69 669.56 712.47 668.99
  L 673.74 650.66
  C 673.37 650.49 672.94 650.58 672.68 650.89
  Q 662.63 662.64 650.90 672.67
  C 650.57 672.95 650.47 673.41 650.66 673.80
  L 668.94 712.33
  Q 669.65 713.81 668.37 712.78
  L 635.01 686.04
  C 634.65 685.76 634.16 685.74 633.79 686.00
  Q 621.51 694.67 607.76 702.13
  C 607.43 702.31 607.26 702.69 607.34 703.06
  L 617.25 745.76
  Q 617.54 747.00 616.75 746.00
  L 589.76 711.84
  C 589.36 711.34 588.68 711.16 588.08 711.41
  Q 574.50 717.10 559.66 721.17
  C 559.12 721.32 558.75 721.80 558.76 722.35
  L 558.94 766.19
  Q 558.94 767.74 558.31 766.44
  L 539.04 726.76
  C 538.86 726.39 538.46 726.18 538.06 726.24
  Q 523.16 728.53 508.19 729.65
  C 507.89 729.67 507.64 729.88 507.57 730.17
  L 497.55 772.52
  Q 497.02 774.78 496.50 772.51
  L 486.93 730.17
  C 486.86 729.88 486.62 729.67 486.32 729.65
  Q 471.58 728.60 457.07 726.26
  C 456.41 726.15 455.75 726.50 455.47 727.10
  L 437.03 766.19
  Q 436.25 767.84 436.25 766.01
  L 436.25 722.38
  C 436.25 721.92 435.94 721.51 435.50 721.39
  Q 420.59 717.21 406.34 711.33
  C 406.06 711.22 405.74 711.30 405.56 711.54
  L 378.31 746.03
  Q 377.44 747.14 377.75 745.77
  L 387.36 703.20
  C 387.45 702.78 387.26 702.35 386.88 702.14
  Q 373.99 695.15 360.96 686.06
  C 360.51 685.75 359.91 685.76 359.48 686.10
  L 325.66 712.85
  Q 324.54 713.74 325.17 712.45
  L 343.93 673.63
  C 344.10 673.27 344.02 672.85 343.73 672.59
  Q 332.71 662.66 322.55 651.10
  C 322.14 650.64 321.47 650.51 320.90 650.78
  L 282.26 669.10
  Q 281.57 669.42 282.05 668.83
  L 309.24 634.76
  C 309.42 634.53 309.43 634.21 309.26 633.97
  Q 300.16 621.15 293.12 607.91
  C 292.91 607.51 292.45 607.30 292.00 607.40
  L 249.45 617.28
  Q 248.01 617.62 249.17 616.70
  L 283.68 589.47
  C 283.94 589.26 284.03 588.91 283.91 588.60
  Q 278.30 575.00 273.77 559.58
  C 273.63 559.12 273.21 558.80 272.74 558.81
  L 229.68 558.94
  Q 227.13 558.94 229.42 557.84
  L 268.26 539.09
  C 268.73 538.86 269.00 538.35 268.92 537.82
  Q 266.50 522.50 265.47 508.06
  C 265.45 507.76 265.24 507.52 264.94 507.45
  Q 248.39 503.58 231.81 499.81
  Q 221.91 497.56 220.00 497.29
  Q 220.95 496.75 222.00 496.52
  Q 243.35 491.77 264.70 487.04
  C 265.00 486.98 265.23 486.74 265.28 486.44
  Q 266.51 479.69 266.87 472.84
  Q 267.16 467.22 267.49 464.68
  Q 268.03 460.60 268.73 456.59
  C 268.81 456.17 268.59 455.75 268.20 455.57
  Q 257.53 450.63 246.92 445.57
  Q 246.08 445.17 243.12 443.99
  Q 240.78 443.05 239.50 442.00
  Q 238.09 440.84 236.57 440.89
  C 236.22 440.90 235.89 440.83 235.63 440.69
  L 229.89 437.57
  Q 227.45 436.24 230.22 436.23
  L 273.07 436.08
  C 273.36 436.07 273.61 435.87 273.69 435.59
  Q 277.90 420.65 283.54 406.77
  C 283.78 406.19 283.59 405.52 283.09 405.13
  L 249.52 378.61
  Q 248.06 377.46 249.89 377.86
  L 292.07 387.21
  C 292.36 387.28 292.66 387.14 292.80 386.88
  Q 300.47 373.35 309.23 360.53
  C 309.43 360.24 309.42 359.85 309.19 359.57
  L 282.06 325.43
  Q 281.21 324.37 282.43 324.96
  L 321.55 343.90
  C 321.89 344.06 322.30 343.98 322.55 343.70
  Q 332.35 332.60 343.68 322.59
  C 343.96 322.33 344.05 321.93 343.89 321.59
  L 325.54 283.65
  Q 324.36 281.19 326.50 282.88
  L 359.55 309.01
  C 359.88 309.28 360.36 309.29 360.72 309.05
  Q 374.09 300.01 387.06 292.74
  C 387.32 292.60 387.46 292.30 387.39 292.02
  L 377.75 249.48
  Q 377.41 248.00 378.35 249.19
  L 405.47 283.53
  C 405.66 283.77 405.99 283.86 406.27 283.74
  Q 420.85 277.88 435.44 273.58
  C 435.91 273.44 436.24 273.01 436.24 272.52
  L 436.25 229.32
  Q 436.25 227.71 437.11 229.07
  Q 438.92 231.93 440.22 235.36
  Q 441.95 239.95 442.88 241.81
  Q 449.41 254.93 455.67 268.41
  C 455.85 268.80 456.27 269.02 456.69 268.95
  Q 471.91 266.49 486.45 265.47
  C 486.74 265.45 486.98 265.24 487.04 264.95
  Q 491.63 242.96 496.75 221.10
  Q 496.82 220.79 497.00 220.60
  Q 497.21 220.40 497.46 220.25
  Z"
/>
<path fill="#518da3" d="
  M 802.29 321.25
  L 764.06 329.99
  Q 763.34 330.15 763.80 329.58
  L 788.21 299.00
  Q 788.17 299.61 788.72 299.41
  Q 815.46 290.12 842.01 280.87
  Q 842.76 280.61 842.20 281.18
  L 802.29 321.25
  Z"
/>
<path fill="#744c24" d="
  M 207.04 299.50
  L 231.08 329.64
  Q 231.41 330.06 230.89 329.94
  L 192.71 321.25
  Q 192.36 320.63 190.25 318.50
  Q 171.82 299.93 153.60 281.85
  Q 152.46 280.72 153.98 281.24
  Q 179.80 290.20 205.54 299.34
  Q 205.58 299.36 206.06 299.61
  Q 206.55 299.87 207.04 299.50
  Z"
/>
<path fill="#744c24" d="
  M 170.04 368.75
  L 201.02 393.47
  Q 201.99 394.25 200.74 394.25
  L 161.50 394.29
  Q 162.42 394.15 161.63 393.65
  Q 137.69 378.48 113.88 363.23
  Q 113.36 362.90 113.97 362.97
  Q 139.63 365.84 165.00 368.75
  Q 168.45 369.14 170.04 368.75
  Z"
/>
<path fill="#518da3" d="
  M 833.00 394.21
  L 793.82 394.19
  Q 793.30 394.19 793.69 393.88
  L 824.71 369.00
  Q 825.00 369.33 825.75 369.25
  Q 853.13 366.18 880.93 362.95
  Q 881.54 362.88 881.02 363.22
  Q 858.18 378.15 835.31 392.31
  Q 833.72 393.30 833.00 394.21
  Z"
/>
<path fill="#8c6138" d="
  M 148.79 444.75
  Q 148.85 445.63 147.75 445.75
  Q 123.49 448.45 99.25 451.25
  Q 96.10 451.61 94.30 452.06
  Q 93.80 452.18 94.28 452.36
  Q 120.06 461.71 145.94 470.81
  Q 146.11 470.87 146.25 471.21
  L 34.75 496.29
  Q 33.69 496.11 33.04 495.25
  Q 33.02 444.85 44.29 395.75
  Q 45.32 395.40 47.44 396.31
  Q 53.07 398.73 66.56 405.19
  Q 107.71 424.90 148.79 444.75
  Z"
/>
<path fill="#744c24" d="
  M 148.79 444.75
  L 184.41 461.93
  Q 185.17 462.29 184.35 462.48
  L 146.25 471.21
  Q 146.11 470.87 145.94 470.81
  Q 120.06 461.71 94.28 452.36
  Q 93.80 452.18 94.30 452.06
  Q 96.10 451.61 99.25 451.25
  Q 123.49 448.45 147.75 445.75
  Q 148.85 445.63 148.79 444.75
  Z"
/>
<path fill="#518da3" d="
  M 845.25 445.04
  Q 845.99 445.63 847.00 445.74
  Q 874.05 448.67 901.06 452.00
  Q 901.56 452.06 901.10 452.24
  Q 870.65 463.51 851.56 469.81
  Q 849.54 470.48 848.75 471.21
  L 810.48 462.50
  Q 809.58 462.29 810.41 461.89
  L 845.25 445.04
  Z"
/>
<path fill="#518da3" d="
  M 146.79 523.75
  L 184.62 532.52
  Q 185.54 532.73 184.69 533.14
  L 150.00 549.71
  L 94.23 543.25
  Q 92.81 543.08 94.16 542.60
  Q 119.99 533.40 146.52 524.30
  Q 146.82 524.20 146.79 523.75
  Z"
/>
<path fill="#518da3" d="
  M 847.25 524.04
  Q 853.94 525.89 860.46 528.23
  Q 880.86 535.55 901.32 542.69
  Q 902.52 543.11 901.26 543.25
  Q 873.37 546.33 845.51 549.56
  Q 845.13 549.60 845.00 549.96
  L 809.63 532.79
  Q 809.08 532.52 809.68 532.38
  L 847.25 524.04
  Z"
/>
<path fill="#518da3" d="
  M 161.75 600.79
  L 200.10 600.75
  Q 201.64 600.75 200.44 601.70
  L 169.54 626.25
  Q 168.99 625.89 168.00 626.00
  Q 141.37 628.96 114.73 632.00
  Q 113.29 632.17 114.52 631.39
  Q 137.69 616.67 161.00 602.00
  Q 161.81 601.49 161.75 600.79
  Z"
/>
<path fill="#518da3" d="
  M 832.75 600.79
  Q 832.67 601.04 833.00 601.25
  Q 856.72 616.27 879.88 630.96
  Q 881.96 632.28 879.51 632.00
  L 824.75 625.79
  L 794.42 601.55
  Q 793.42 600.75 794.70 600.75
  L 832.75 600.79
  Z"
/>
<path fill="#518da3" d="
  M 207.25 695.29
  L 154.53 713.74
  Q 152.38 714.49 153.99 712.89
  Q 172.92 693.92 191.56 675.31
  Q 192.54 674.33 192.71 673.75
  L 231.09 664.82
  Q 231.78 664.65 231.33 665.21
  L 207.25 695.29
  Z"
/>
<path fill="#518da3" d="
  M 802.50 673.71
  Q 802.21 673.78 802.26 674.03
  Q 802.29 674.16 802.43 674.30
  Q 822.49 693.75 841.47 713.33
  Q 842.44 714.33 841.12 713.88
  Q 815.19 704.89 789.49 695.84
  Q 789.48 695.83 788.72 695.41
  Q 788.23 695.14 787.71 695.50
  L 763.50 665.11
  Q 763.09 664.60 763.74 664.75
  L 802.50 673.71
  Z"
/>
<path fill="#518da3" d="
  M 755.04 736.50
  L 785.32 785.01
  Q 785.77 785.74 785.05 785.29
  Q 761.50 770.55 738.30 756.04
  Q 738.23 756.00 737.69 755.47
  Q 737.27 755.07 736.71 755.50
  L 719.57 719.90
  Q 719.19 719.11 719.98 719.49
  L 755.04 736.50
  Z"
/>
<path fill="#518da3" d="
  M 257.96 755.75
  Q 257.31 755.74 256.19 756.44
  Q 233.43 770.68 210.68 784.94
  Q 209.26 785.83 210.16 784.42
  Q 224.85 761.19 239.42 737.67
  Q 239.73 737.18 239.50 736.71
  L 274.48 719.93
  Q 275.38 719.50 274.95 720.40
  L 257.96 755.75
  Z"
/>
<path fill="#518da3" d="
  M 321.21 802.25
  L 281.64 841.49
  Q 280.79 842.33 281.18 841.20
  Q 290.24 815.25 299.31 789.31
  Q 299.63 788.40 299.25 787.96
  L 329.52 763.69
  Q 330.20 763.14 330.00 763.98
  L 321.21 802.25
  Z"
/>
<path fill="#518da3" d="
  M 695.29 787.75
  L 713.70 840.66
  Q 714.48 842.87 712.83 841.20
  Q 693.74 821.89 674.44 802.81
  Q 674.01 802.39 673.71 802.75
  L 664.89 764.34
  Q 664.60 763.11 665.58 763.90
  L 695.29 787.75
  Z"
/>
<path fill="#518da3" d="
  M 394.21 832.75
  L 363.98 880.22
  Q 362.99 881.78 363.19 879.95
  Q 365.72 856.87 368.31 833.81
  Q 369.05 827.21 368.96 824.75
  L 393.68 793.89
  Q 394.01 793.48 394.01 794.00
  L 394.21 832.75
  Z"
/>
<path fill="#518da3" d="
  M 626.29 825.50
  Q 625.87 825.80 626.00 827.00
  Q 628.92 853.38 632.00 879.77
  Q 632.25 881.93 631.09 880.09
  Q 616.46 856.94 601.54 833.47
  Q 601.30 833.09 600.79 833.25
  L 600.75 795.19
  Q 600.75 793.44 601.83 794.81
  L 626.29 825.50
  Z"
/>
<path fill="#518da3" d="
  M 549.96 845.00
  Q 549.60 845.13 549.56 845.51
  Q 546.40 873.38 543.28 901.00
  Q 543.13 902.30 542.69 901.07
  Q 533.27 874.85 524.19 848.52
  Q 524.05 848.09 523.54 848.25
  L 532.28 810.37
  Q 532.60 808.97 533.22 810.25
  L 549.96 845.00
  Z"
/>
<path fill="#518da3" d="
  M 471.21 849.25
  Q 470.70 849.09 470.56 849.52
  Q 461.69 875.30 452.58 900.56
  Q 451.99 902.17 451.80 900.47
  Q 448.93 875.09 446.06 850.19
  Q 445.60 846.16 445.21 845.00
  L 461.84 810.37
  Q 462.24 809.54 462.44 810.43
  L 471.21 849.25
  Z"
/>
</svg>
