<svg xmlns="http://www.w3.org/2000/svg" width="2048" height="2048" version="1.1" viewBox="0 0 2048 2048"><ellipse cx="560.751" cy="914.63" rx="151.534" ry="252.599" style="fill:#fff"/><ellipse cx="915.415" cy="917.289" rx="151.534" ry="252.599" style="fill:#fff"/><path id="document" fill="#000" fill-opacity="1" d="M-735.015 18.242c0 406.604 328.411 735.015 735.015 735.015 403.477 0 731.888-328.411 735.016-731.888-3.128 100.088-84.449 178.281-184.536 178.281S365.944 118.329 365.944 15.114v-217.891c0-303.39-247.09-550.48-550.48-550.48-303.389 0-550.479 247.09-550.479 550.48V18.242Zm274.98-321.243c64.477 0 117.411 52.536 117.013 117.013v163.977C-343.022 42.465-395.956 95-460.035 95c-64.078 0-117.013-52.138-117.013-117.012v-163.977c0-64.477 52.537-117.013 117.013-117.013Zm343.02 0c64.476 0 117.41 52.536 117.013 117.013v163.977C-.002 42.465-52.937 95-117.015 95S-234.028 42.863-234.028-22.01v-163.977c0-64.477 52.537-117.013 117.013-117.013Z" transform="translate(1024 1024)"/><ellipse cx="950.169" cy="838.197" rx=".661" ry="5.465" style="fill:#d8d8d8"/></svg>