<?xml version="1.0" encoding="UTF-8" standalone="no"?>
<!DOCTYPE svg PUBLIC "-//W3C//DTD SVG 1.1//EN" "http://www.w3.org/Graphics/SVG/1.1/DTD/svg11.dtd">
<svg xmlns="http://www.w3.org/2000/svg" version="1.1" viewBox="0 0 585 585">
<path fill="#000000" d="
  M 25.46 200.69
  Q 32.40 180.21 41.25 163.50
  Q 45.75 155.01 48.90 148.30
  Q 54.94 135.45 54.95 135.42
  Q 80.86 84.94 130.48 57.55
  Q 134.63 55.25 144.88 50.56
  Q 152.71 46.97 159.25 43.50
  Q 228.51 6.73 306.25 10.25
  Q 370.33 13.15 427.75 44.00
  Q 433.52 47.10 442.13 51.04
  Q 451.89 55.51 456.50 58.08
  Q 510.23 88.15 535.50 144.75
  Q 539.18 153.00 540.63 155.65
  Q 576.58 221.34 575.99 296.01
  Q 575.91 306.04 575.09 315.97
  Q 570.22 375.09 542.44 426.94
  Q 538.62 434.06 537.25 437.25
  Q 506.87 508.15 435.69 537.94
  Q 432.86 539.12 425.39 543.09
  Q 390.62 561.53 352.30 569.81
  Q 342.76 571.87 332.62 573.23
  Q 239.60 585.74 156.94 541.31
  Q 150.81 538.02 145.86 535.83
  Q 80.48 506.95 50.98 441.86
  Q 48.56 436.54 45.75 431.41
  Q 31.04 404.60 22.29 375.28
  Q -3.91 287.42 25.46 200.69
  Z
  M 222.18 35.62
  Q 258.09 36.71 291.82 51.45
  C 292.66 51.81 293.61 51.81 294.45 51.44
  Q 348.52 27.27 407.53 39.70
  C 407.70 39.74 407.86 39.71 407.94 39.62
  Q 408.03 39.53 408.03 39.40
  C 408.04 39.22 407.86 39.03 407.60 38.94
  Q 405.61 38.22 401.50 36.50
  Q 342.26 11.64 277.50 15.00
  Q 227.07 17.62 179.21 38.80
  Q 178.85 38.96 178.25 38.96
  Q 177.52 38.97 177.62 39.48
  C 177.67 39.74 177.98 39.90 178.31 39.83
  Q 199.96 34.95 222.18 35.62
  Z
  M 293.64 524.03
  Q 336.06 544.16 381.00 540.75
  Q 416.12 538.08 447.00 522.50
  Q 462.55 514.65 475.88 503.02
  Q 481.76 497.89 490.42 489.28
  Q 498.73 481.01 506.26 472.00
  Q 513.73 463.05 519.35 452.84
  Q 543.99 408.07 540.54 356.76
  Q 538.33 323.82 524.41 294.53
  Q 523.68 293.00 524.39 291.47
  Q 546.64 243.32 539.09 191.52
  Q 535.12 164.29 522.90 139.68
  Q 515.96 125.71 506.81 114.69
  Q 492.52 97.46 474.11 81.65
  Q 458.50 68.26 438.81 59.69
  Q 391.03 38.89 339.78 47.42
  Q 316.38 51.31 293.96 61.90
  C 293.38 62.17 292.72 62.18 292.14 61.91
  Q 225.22 30.91 155.90 56.30
  Q 133.31 64.57 117.31 77.06
  Q 97.31 92.69 79.27 114.72
  Q 72.55 122.92 67.85 131.10
  Q 44.80 171.20 44.75 217.25
  Q 44.71 256.07 62.04 292.55
  C 62.17 292.84 62.17 293.16 62.04 293.45
  Q 36.69 347.02 48.99 405.45
  Q 54.18 430.11 66.27 452.21
  Q 71.80 462.33 79.81 471.94
  Q 95.78 491.08 114.48 506.49
  Q 122.51 513.11 130.83 517.93
  Q 170.87 541.15 216.75 541.25
  Q 255.68 541.34 292.73 524.02
  C 293.02 523.89 293.36 523.89 293.64 524.03
  Z
  M 25.90 214.42
  Q 10.58 266.69 16.09 320.99
  Q 20.68 366.28 38.90 407.17
  Q 40.23 410.14 39.57 406.96
  Q 27.47 348.40 51.54 294.11
  C 51.85 293.43 51.85 292.65 51.54 291.97
  Q 28.12 238.55 38.96 181.49
  Q 39.20 180.21 39.76 179.04
  Q 39.94 178.66 39.92 178.30
  Q 39.77 176.25 38.95 178.63
  Q 38.78 179.12 38.63 179.47
  Q 31.14 196.54 25.90 214.42
  Z
  M 550.44 222.44
  Q 549.15 259.09 534.57 291.78
  C 534.23 292.56 534.22 293.45 534.56 294.23
  Q 556.66 345.18 547.91 399.18
  Q 546.82 405.86 546.19 407.19
  Q 545.74 408.13 546.01 408.29
  C 546.21 408.41 546.53 408.18 546.70 407.79
  Q 586.26 318.22 562.75 223.75
  Q 557.39 202.21 546.54 177.60
  C 546.51 177.53 546.45 177.48 546.39 177.49
  L 546.27 177.50
  C 546.15 177.51 546.08 177.64 546.11 177.79
  Q 551.20 200.70 550.44 222.44
  Z
  M 257.44 569.02
  Q 327.01 577.84 392.30 553.03
  Q 400.17 550.04 407.97 546.88
  C 408.28 546.75 408.45 546.44 408.34 546.19
  Q 408.15 545.76 407.60 546.03
  Q 407.09 546.28 406.84 546.34
  Q 348.91 558.44 294.49 534.62
  Q 293.00 533.96 291.51 534.62
  Q 237.29 558.32 179.21 546.44
  Q 176.05 545.79 178.99 547.11
  Q 216.45 563.83 257.44 569.02
  Z"
/>
<path fill="#000000" d="
  M 219.01 211.56
  L 205.43 211.44
  C 205.05 211.44 204.75 211.13 204.75 210.75
  L 204.75 131.67
  C 204.75 131.16 205.16 130.75 205.67 130.75
  L 218.74 130.75
  C 219.16 130.75 219.50 130.43 219.50 130.03
  L 219.67 112.70
  C 219.67 112.35 219.94 112.06 220.28 112.06
  L 364.31 112.00
  C 364.83 112.00 365.25 112.41 365.24 112.91
  L 365.07 130.19
  C 365.07 130.54 365.35 130.83 365.70 130.82
  L 379.49 130.76
  C 379.91 130.76 380.25 131.10 380.25 131.53
  L 380.25 210.41
  C 380.25 211.01 379.76 211.50 379.16 211.50
  L 365.90 211.50
  C 365.54 211.50 365.25 211.79 365.25 212.15
  L 365.19 292.93
  C 365.19 293.20 364.95 293.40 364.69 293.36
  Q 362.62 293.03 360.55 292.64
  Q 358.43 292.25 356.41 292.25
  Q 332.58 292.25 308.84 292.25
  C 308.63 292.25 308.50 292.01 308.61 291.81
  L 312.81 284.31
  Q 313.52 283.06 316.00 282.50
  Q 323.82 280.75 326.00 273.00
  Q 327.54 267.54 325.55 263.28
  Q 324.41 260.82 322.40 259.69
  Q 320.22 258.46 317.38 258.76
  C 316.97 258.81 316.59 258.46 316.50 257.97
  L 315.65 253.25
  C 315.57 252.82 315.16 252.50 314.66 252.50
  L 271.50 252.50
  C 271.08 252.50 270.72 252.80 270.63 253.21
  Q 266.27 273.96 277.63 291.57
  Q 278.07 292.25 277.26 292.25
  Q 254.25 292.25 231.25 292.01
  Q 225.84 291.95 220.59 293.81
  C 220.15 293.97 219.69 293.64 219.69 293.17
  L 219.75 212.31
  C 219.75 211.90 219.42 211.56 219.01 211.56
  Z
  M 370.26 141.29
  C 370.26 141.00 370.02 140.76 369.73 140.76
  L 215.03 140.76
  C 214.74 140.76 214.50 141.00 214.50 141.29
  L 214.50 200.97
  C 214.50 201.26 214.74 201.50 215.03 201.50
  L 369.73 201.50
  C 370.02 201.50 370.26 201.26 370.26 200.97
  L 370.26 141.29
  Z
  M 318.31 234.31
  Q 322.23 229.82 321.99 223.99
  Q 321.75 218.00 321.75 212.14
  C 321.75 211.80 321.47 211.52 321.13 211.51
  L 315.94 211.44
  C 315.66 211.43 315.43 211.66 315.41 211.95
  Q 315.23 216.17 315.25 224.50
  Q 315.26 229.61 311.60 231.38
  Q 309.80 232.25 304.77 232.25
  Q 292.13 232.25 279.50 232.24
  Q 275.56 232.24 273.58 229.65
  Q 272.26 227.93 272.11 224.02
  Q 271.87 218.10 272.06 212.17
  C 272.08 211.69 271.60 211.29 271.02 211.30
  L 266.28 211.40
  C 265.85 211.41 265.50 211.72 265.50 212.11
  Q 265.50 219.00 265.70 224.99
  Q 266.01 234.01 273.09 237.45
  Q 275.77 238.75 280.64 238.75
  Q 293.42 238.75 306.20 238.75
  Q 310.84 238.75 312.71 238.13
  Q 315.90 237.07 318.31 234.31
  Z"
/>
<path fill="#000000" d="
  M 273.72 171.12
  C 273.72 182.20 264.74 191.18 253.66 191.18
  C 242.58 191.18 233.60 182.20 233.60 171.12
  C 233.60 160.04 242.58 151.06 253.66 151.06
  C 264.74 151.06 273.72 160.04 273.72 171.12
  Z
  M 263.80 171.14
  C 263.80 165.54 259.26 161.00 253.66 161.00
  C 248.06 161.00 243.52 165.54 243.52 171.14
  C 243.52 176.74 248.06 181.28 253.66 181.28
  C 259.26 181.28 263.80 176.74 263.80 171.14
  Z"
/>
<circle fill="#000000" cx="302.17" cy="171.11" r="9.65"/>
<circle fill="#000000" cx="336.89" cy="171.12" r="9.65"/>
<path fill="#000000" d="
  M 317.30 265.34
  Q 318.35 264.49 319.54 265.26
  C 319.79 265.43 319.99 265.70 320.09 266.04
  Q 321.80 271.92 316.93 275.69
  Q 315.57 276.74 315.79 275.01
  L 316.90 266.19
  C 316.94 265.82 317.09 265.51 317.30 265.34
  Z"
/>
<path fill="#000000" d="
  M 370.29 304.22
  Q 378.74 311.36 382.14 321.96
  Q 385.66 332.94 384.97 345.05
  C 384.95 345.30 384.74 345.50 384.49 345.50
  L 201.86 345.50
  C 201.41 345.50 201.05 345.15 201.03 344.70
  Q 200.63 334.65 202.90 325.58
  Q 205.49 315.23 212.52 307.26
  Q 220.02 298.75 231.50 298.75
  Q 292.75 298.75 354.00 298.75
  Q 363.82 298.75 370.29 304.22
  Z"
/>
<ellipse fill="#000000" cx="0.00" cy="0.00" transform="translate(229.74,388.25) rotate(-34.0)" rx="9.21" ry="7.45"/>
<path fill="#000000" d="
  M 131.67 456.75
  L 168.21 388.18
  C 168.41 387.80 168.80 387.56 169.21 387.56
  L 177.85 387.52
  C 178.38 387.51 178.83 387.92 178.90 388.46
  L 187.64 457.12
  C 187.70 457.57 188.07 457.91 188.52 457.94
  Q 191.29 458.11 194.01 458.34
  Q 195.80 458.50 195.21 460.05
  Q 195.09 460.36 195.03 460.99
  Q 194.99 461.47 194.61 461.78
  Q 194.34 462.00 193.82 462.00
  Q 178.84 462.00 163.86 462.00
  Q 163.72 462.00 162.66 462.09
  Q 160.29 462.29 161.88 459.02
  C 162.03 458.72 162.34 458.51 162.70 458.47
  L 170.03 457.67
  C 170.34 457.64 170.56 457.35 170.53 457.04
  L 168.70 439.41
  C 168.64 438.89 168.20 438.50 167.67 438.50
  L 146.68 438.50
  C 146.13 438.50 145.63 438.82 145.37 439.33
  L 136.63 456.73
  C 136.47 457.04 136.66 457.41 137.00 457.46
  L 144.74 458.63
  C 145.05 458.68 145.28 458.96 145.27 459.28
  Q 145.21 460.66 144.72 461.53
  C 144.58 461.78 144.28 461.94 143.95 461.94
  Q 134.09 462.04 124.23 462.00
  Q 124.14 462.00 123.27 462.05
  Q 121.47 462.14 122.24 460.68
  Q 122.44 460.30 122.44 459.76
  Q 122.43 459.16 122.84 458.78
  Q 123.12 458.51 123.75 458.47
  Q 127.41 458.20 130.95 457.31
  C 131.26 457.23 131.52 457.03 131.67 456.75
  Z
  M 164.13 402.31
  L 148.04 434.25
  C 147.93 434.46 148.08 434.72 148.31 434.72
  L 167.53 434.97
  C 168.00 434.98 168.37 434.56 168.32 434.07
  L 165.00 402.47
  Q 164.83 400.90 164.13 402.31
  Z"
/>
<path fill="#000000" d="
  M 286.11 401.67
  Q 285.41 400.25 285.09 401.79
  L 274.05 456.00
  C 273.91 456.68 274.40 457.32 275.11 457.40
  L 286.07 458.62
  C 286.37 458.65 286.60 458.88 286.63 459.18
  Q 286.92 462.30 283.81 462.10
  Q 282.28 462.00 282.16 462.00
  Q 271.30 462.00 259.58 462.00
  C 259.27 462.00 259.03 461.76 259.02 461.46
  Q 258.97 458.54 260.67 458.41
  Q 261.65 458.34 261.70 458.33
  Q 264.58 457.77 267.52 457.50
  C 268.18 457.44 268.73 456.96 268.87 456.31
  L 282.39 395.48
  Q 283.12 392.16 279.90 391.88
  L 275.31 391.48
  C 275.02 391.45 274.79 391.22 274.78 390.94
  Q 274.72 388.56 275.79 388.06
  Q 275.93 388.00 278.23 388.00
  Q 288.25 388.00 298.51 388.00
  C 298.82 388.00 299.11 388.18 299.26 388.46
  L 325.10 439.03
  Q 325.56 439.93 325.77 438.93
  L 335.01 393.47
  C 335.10 393.00 334.77 392.55 334.29 392.50
  L 323.18 391.37
  C 322.86 391.34 322.61 391.13 322.54 390.84
  Q 322.22 389.56 322.96 388.40
  C 323.12 388.15 323.42 388.00 323.74 388.00
  L 349.69 388.06
  C 349.99 388.06 350.22 388.30 350.16 388.56
  L 349.64 390.73
  C 349.57 391.02 349.29 391.25 348.95 391.29
  L 341.20 392.24
  C 340.60 392.32 340.12 392.72 340.00 393.24
  L 324.83 461.33
  C 324.71 461.87 324.23 462.25 323.68 462.25
  L 316.67 462.25
  C 316.28 462.25 315.92 462.03 315.75 461.68
  L 286.11 401.67
  Z"
/>
<path fill="#000000" d="
  M 374.52 456.38
  Q 374.36 454.80 373.23 455.91
  Q 366.77 462.24 358.74 463.45
  Q 355.14 464.00 351.77 463.12
  Q 348.00 462.14 345.95 459.74
  Q 343.25 456.58 344.00 451.75
  Q 345.57 441.66 354.89 437.23
  Q 366.32 431.80 378.75 429.25
  C 379.11 429.18 379.41 428.91 379.51 428.55
  Q 381.71 421.14 381.50 414.25
  Q 381.40 410.87 377.34 410.04
  Q 373.68 409.29 369.85 410.03
  C 369.50 410.10 369.22 410.37 369.13 410.72
  Q 367.78 416.26 365.69 420.97
  Q 363.74 425.36 358.99 426.22
  Q 354.21 427.09 352.81 423.77
  Q 351.82 421.43 353.39 418.40
  Q 356.35 412.69 362.19 409.94
  Q 373.75 404.48 386.31 406.88
  Q 390.98 407.77 393.16 409.83
  Q 396.09 412.59 396.27 417.25
  Q 396.43 421.62 395.52 425.90
  Q 390.57 449.02 389.75 454.50
  Q 389.05 459.17 392.77 458.11
  Q 393.82 457.82 394.89 456.86
  Q 395.82 456.04 396.71 455.16
  C 396.94 454.93 397.27 454.85 397.55 454.94
  Q 399.07 455.45 397.94 456.94
  Q 392.08 464.61 382.25 463.53
  Q 375.13 462.75 374.52 456.38
  Z
  M 361.45 456.07
  Q 362.86 456.99 364.55 456.92
  Q 370.23 456.68 374.36 452.30
  C 374.57 452.08 374.72 451.78 374.79 451.44
  L 378.91 432.56
  C 378.99 432.19 378.66 431.86 378.29 431.94
  Q 372.03 433.30 367.05 436.82
  Q 359.89 441.87 358.96 450.66
  Q 358.58 454.20 361.45 456.07
  Z"
/>
<path fill="#000000" d="
  M 215.93 416.35
  C 216.04 415.85 215.68 415.36 215.17 415.30
  L 209.81 414.73
  C 209.46 414.69 209.17 414.51 209.05 414.26
  Q 208.69 413.45 209.16 412.60
  C 209.30 412.35 209.58 412.15 209.93 412.06
  L 232.20 406.51
  Q 234.61 405.91 234.04 408.33
  Q 228.25 433.02 223.50 457.74
  C 223.43 458.10 223.69 458.44 224.06 458.46
  L 228.46 458.76
  C 228.76 458.78 229.00 459.02 229.02 459.31
  Q 229.24 462.22 226.95 462.06
  Q 226.15 462.00 226.04 462.00
  Q 213.17 462.04 200.31 461.94
  C 200.02 461.94 199.78 461.72 199.77 461.44
  Q 199.73 460.28 200.42 459.38
  C 200.60 459.14 200.90 458.98 201.24 458.94
  L 206.17 458.32
  C 206.66 458.26 207.05 457.90 207.15 457.43
  L 215.93 416.35
  Z"
/>
<path fill="#000000" d="
  M 409.56 407.94
  Q 423.38 407.57 437.19 407.80
  C 437.51 407.81 437.79 407.99 437.87 408.26
  Q 438.25 409.40 437.57 410.37
  C 437.39 410.63 437.09 410.80 436.76 410.84
  L 430.87 411.49
  C 430.54 411.53 430.30 411.81 430.34 412.12
  L 434.92 445.70
  Q 435.13 447.26 435.89 445.87
  L 454.07 412.89
  C 454.39 412.31 453.99 411.59 453.31 411.51
  L 447.93 410.91
  C 447.62 410.87 447.37 410.65 447.30 410.34
  Q 446.68 407.79 449.50 407.78
  Q 457.63 407.75 465.82 407.75
  C 466.34 407.75 466.76 408.17 466.75 408.69
  Q 466.72 411.01 464.94 411.09
  Q 463.74 411.15 463.69 411.16
  Q 461.61 411.50 459.55 411.95
  C 459.24 412.02 458.97 412.22 458.80 412.50
  L 429.44 461.51
  C 429.27 461.79 429.01 461.98 428.71 462.04
  Q 425.75 462.62 422.80 462.04
  C 422.51 461.99 422.27 461.75 422.22 461.44
  L 413.29 412.51
  C 413.20 412.01 412.77 411.61 412.21 411.52
  L 408.00 410.86
  C 407.69 410.81 407.44 410.57 407.38 410.26
  Q 406.96 408.01 409.56 407.94
  Z"
/>
</svg>
