<svg id="图层_1" data-name="图层 1" xmlns="http://www.w3.org/2000/svg" viewBox="0 0 1000 1000"><title>Ali-Drive</title><rect width="1000" height="1000" style="fill:#6a7dfd"/><path d="M750.5673,548.7317a293.0175,293.0175,0,0,0,1.43-122.9953c-7.9352-38.7-31.1473-111.1674-100.1125-165.9006-19.3589-15.3639-82.2249-60.9982-171.6213-60.0675-99.4173,1.035-188.0844,59.2057-234.5492,135.8669-71.9823,118.7623-39.7068,276.9953,54.3468,371.8463,76.8293,77.4807,192.0712,109.8341,300.3373,82.95,112.4193-27.9151,201.3128-115.7252,231.6888-228.8285Zm-71.5089,70.0788c-7.7508,9.2268-62.3567,72.286-150.1687,74.3692C443.745,695.2,362.3346,639.5326,332.9554,558.743c-21.1385-58.1287-18.9023-139.0557,32.8941-194.5042,8.605-9.2118,50.0488-51.41,115.8444-52.9166,86.7579-1.9863,136.6164,69.1343,140.1574,74.3693,40.687,60.15,26.89,124.7084,24.313,135.8669l74.3693,17.1621A209.1684,209.1684,0,0,1,679.0584,618.8105Z" style="fill:#fff;isolation:isolate"/></svg>