<?xml version="1.0" encoding="UTF-8" standalone="no"?>
<!DOCTYPE svg PUBLIC "-//W3C//DTD SVG 1.1//EN" "http://www.w3.org/Graphics/SVG/1.1/DTD/svg11.dtd">
<svg xmlns="http://www.w3.org/2000/svg" version="1.1" viewBox="0 0 124 139">
<g stroke-width="2.0" fill="none" stroke-linecap="butt">
<path stroke="#fcd6d6" vector-effect="non-scaling-stroke" d="
  M 44.00 11.71
  L 21.50 24.71"
/>
<path stroke="#e9b6b6" vector-effect="non-scaling-stroke" d="
  M 21.50 24.71
  Q 20.97 24.95 20.96 25.50"
/>
<path stroke="#ffecec" vector-effect="non-scaling-stroke" d="
  M 20.96 25.50
  Q 20.15 25.36 19.47 25.74
  Q 12.44 29.70 5.18 33.84
  C 4.85 34.03 4.84 34.50 5.16 34.70
  Q 16.19 41.44 27.82 47.68
  Q 28.30 47.93 28.50 48.54"
/>
<path stroke="#e9b6b6" vector-effect="non-scaling-stroke" d="
  M 28.50 48.54
  Q 28.40 49.28 28.96 49.50
  Q 29.33 49.64 29.39 49.68
  Q 44.43 58.37 60.04 67.31
  C 60.44 67.54 60.93 67.54 61.33 67.31
  L 116.78 35.42
  C 117.10 35.24 117.28 34.95 117.23 34.71
  Q 117.18 34.45 116.96 34.25"
/>
<path stroke="#fcd6d6" vector-effect="non-scaling-stroke" d="
  M 116.96 34.25
  Q 102.03 25.23 86.81 16.69
  Q 85.15 15.75 84.50 15.71"
/>
<path stroke="#ffecec" vector-effect="non-scaling-stroke" d="
  M 84.50 15.71
  Q 84.43 15.19 83.56 14.69
  Q 72.69 8.43 61.68 2.11
  C 61.33 1.91 60.90 1.90 60.57 2.09
  L 44.00 11.71"
/>
<path stroke="#fcc3c2" vector-effect="non-scaling-stroke" d="
  M 84.50 15.71
  L 68.50 25.19
  C 68.25 25.34 67.92 25.34 67.64 25.18
  L 44.00 11.71"
/>
<path stroke="#e68d8d" vector-effect="non-scaling-stroke" d="
  M 116.96 34.25
  L 61.63 66.23
  C 61.14 66.51 60.53 66.51 60.04 66.23
  Q 46.36 58.46 32.57 50.55
  Q 30.82 49.55 29.25 48.29"
/>
<path stroke="#fcc3c2" vector-effect="non-scaling-stroke" d="
  M 29.25 48.29
  Q 29.55 47.58 30.69 46.94
  Q 40.99 41.11 43.56 39.81
  Q 44.15 39.52 44.00 39.04"
/>
<path stroke="#e68d8d" vector-effect="non-scaling-stroke" d="
  M 44.00 39.04
  Q 45.11 39.24 44.62 38.36
  Q 44.47 38.08 44.12 37.88
  Q 32.82 31.29 21.50 24.71"
/>
<path stroke="#e9a3a3" vector-effect="non-scaling-stroke" d="
  M 29.25 48.29
  Q 28.81 48.21 28.50 48.54"
/>
<path stroke="#e9a3a3" vector-effect="non-scaling-stroke" d="
  M 44.00 39.04
  L 20.96 25.50"
/>
<path stroke="#b58f8d" vector-effect="non-scaling-stroke" d="
  M 11.75 107.54
  L 53.21 131.50"
/>
<path stroke="#d48687" vector-effect="non-scaling-stroke" d="
  M 53.21 131.50
  L 58.47 134.58
  Q 59.50 135.19 59.51 134.03
  L 59.74 70.47
  C 59.75 69.88 59.44 69.34 58.94 69.06
  L 37.04 56.50"
/>
<path stroke="#e0a6a7" vector-effect="non-scaling-stroke" d="
  M 37.04 56.50
  L 26.04 50.25"
/>
<path stroke="#d48687" vector-effect="non-scaling-stroke" d="
  M 26.04 50.25
  L 3.36 37.06
  Q 2.75 36.70 2.75 37.43
  L 2.75 101.87
  C 2.75 102.20 2.92 102.51 3.19 102.66
  L 11.75 107.54"
/>
<path stroke="#b52d2e" vector-effect="non-scaling-stroke" d="
  M 26.04 50.25
  L 25.80 76.93
  C 25.80 77.25 25.97 77.55 26.24 77.70
  L 35.99 83.20
  C 36.19 83.32 36.44 83.17 36.44 82.93
  Q 36.55 70.84 36.50 58.75
  Q 36.50 57.80 37.04 56.50"
/>
<path stroke="#891614" vector-effect="non-scaling-stroke" d="
  M 53.21 131.50
  Q 53.04 130.39 51.50 129.50
  Q 33.00 118.85 14.44 108.31
  Q 12.90 107.44 11.75 107.54"
/>
<path stroke="#fdb3b3" vector-effect="non-scaling-stroke" d="
  M 62.25 96.79
  L 62.29 108.25"
/>
<path stroke="#f79999" vector-effect="non-scaling-stroke" d="
  M 62.29 108.25
  Q 61.85 109.36 61.75 112.25
  Q 61.37 123.75 61.50 134.99
  Q 61.51 136.03 62.36 135.48
  L 65.50 133.46"
/>
<path stroke="#d48687" vector-effect="non-scaling-stroke" d="
  M 65.50 133.46
  Q 91.39 118.63 117.25 103.75
  Q 117.87 103.39 118.46 102.25"
/>
<path stroke="#f79999" vector-effect="non-scaling-stroke" d="
  M 118.46 102.25
  Q 118.75 101.76 118.75 100.50
  Q 118.75 69.50 118.75 37.69
  C 118.75 37.33 118.36 37.10 118.05 37.28
  L 63.29 68.84
  Q 61.75 69.73 61.75 71.48
  L 61.81 96.16
  C 61.81 96.38 61.89 96.56 62.01 96.64
  L 62.25 96.79"
/>
<path stroke="#cc2020" vector-effect="non-scaling-stroke" d="
  M 118.46 102.25
  Q 103.20 110.80 65.94 132.44
  Q 65.16 132.89 65.50 133.46"
/>
<path stroke="#f54d4d" vector-effect="non-scaling-stroke" d="
  M 62.29 108.25
  L 85.08 95.26
  C 85.35 95.11 85.51 94.81 85.50 94.50
  L 85.45 83.81
  C 85.45 83.58 85.20 83.44 85.00 83.55
  L 62.25 96.79"
/>
<path stroke="#fcc3c2" vector-effect="non-scaling-stroke" d="
  M 36.00 26.29
  Q 46.53 32.86 57.44 38.81
  Q 57.75 38.98 58.50 39.96"
/>
<path stroke="#e68d8d" vector-effect="non-scaling-stroke" d="
  M 58.50 39.96
  Q 50.96 44.93 43.14 49.45
  Q 41.51 50.39 43.25 50.29"
/>
<path stroke="#fcc3c2" vector-effect="non-scaling-stroke" d="
  M 43.25 50.29
  L 58.06 58.77
  C 58.32 58.92 58.65 58.92 58.93 58.76
  L 102.56 33.86
  C 102.68 33.79 102.75 33.66 102.75 33.52
  L 102.75 33.29"
/>
<path stroke="#e68d8d" vector-effect="non-scaling-stroke" d="
  M 102.75 33.29
  Q 104.42 33.73 103.42 32.57
  Q 103.21 32.33 102.87 32.14
  Q 95.72 28.23 88.78 24.02
  C 88.31 23.74 87.73 23.72 87.27 23.99
  L 71.57 32.95
  C 71.01 33.27 70.31 33.27 69.74 32.95
  L 47.05 19.90
  C 46.43 19.55 45.66 19.55 45.03 19.91
  Q 40.75 22.35 35.83 25.34
  Q 34.50 26.15 36.00 26.29"
/>
<path stroke="#e9a3a3" vector-effect="non-scaling-stroke" d="
  M 102.75 33.29
  L 87.94 24.98
  C 87.67 24.83 87.34 24.84 87.06 25.00
  L 71.00 34.15
  C 70.65 34.35 70.22 34.35 69.87 34.15
  L 46.82 20.93
  C 46.29 20.63 45.66 20.63 45.15 20.92
  L 36.00 26.29"
/>
<path stroke="#e9a3a3" vector-effect="non-scaling-stroke" d="
  M 43.25 50.29
  Q 50.74 45.86 58.29 41.53
  Q 59.95 40.59 58.50 39.96"
/>
<path stroke="#a80d0e" vector-effect="non-scaling-stroke" d="
  M 53.79 117.50
  Q 54.53 106.46 54.50 103.75
  Q 54.36 90.15 54.68 76.87
  C 54.70 76.14 54.33 75.45 53.70 75.07
  Q 48.95 72.13 44.01 69.54
  Q 42.30 68.65 42.79 70.50"
/>
<path stroke="#b52d2e" vector-effect="non-scaling-stroke" d="
  M 42.79 70.50
  L 42.46 96.50"
/>
<path stroke="#891614" vector-effect="non-scaling-stroke" d="
  M 42.46 96.50
  L 19.54 83.50"
/>
<path stroke="#b52d2e" vector-effect="non-scaling-stroke" d="
  M 19.54 83.50
  L 19.50 57.03
  C 19.50 56.63 19.27 56.25 18.89 56.04
  L 9.39 50.73
  C 8.99 50.51 8.50 50.78 8.50 51.23
  L 8.50 95.15
  C 8.50 95.47 8.67 95.77 8.95 95.92
  L 52.82 121.18
  C 53.05 121.31 53.33 121.16 53.36 120.90
  L 53.79 117.50"
/>
<path stroke="#963634" vector-effect="non-scaling-stroke" d="
  M 19.54 83.50
  Q 19.21 84.60 19.81 84.94
  Q 30.73 91.09 41.57 97.38
  Q 42.78 98.09 42.46 96.50"
/>
<path stroke="#b52d2e" vector-effect="non-scaling-stroke" d="
  M 42.79 70.50
  Q 43.47 70.17 44.00 70.59
  Q 44.65 71.12 44.74 71.17
  Q 49.02 73.51 53.08 76.22
  C 53.34 76.39 53.50 76.69 53.50 77.00
  L 53.79 117.50"
/>
<path stroke="#f54d4d" vector-effect="non-scaling-stroke" d="
  M 70.46 72.25
  Q 69.93 77.88 70.45 83.50
  C 70.47 83.74 70.73 83.87 70.94 83.75
  L 93.84 70.67
  Q 94.58 70.25 94.57 71.09
  L 94.25 96.79"
/>
<path stroke="#da2e2e" vector-effect="non-scaling-stroke" d="
  M 94.25 96.79
  Q 85.09 101.74 71.06 110.06
  Q 70.02 110.68 70.25 111.54"
/>
<path stroke="#f54d4d" vector-effect="non-scaling-stroke" d="
  M 70.25 111.54
  L 70.09 122.57
  Q 70.07 123.67 71.01 123.13
  L 109.79 100.75"
/>
<path stroke="#da2e2e" vector-effect="non-scaling-stroke" d="
  M 109.79 100.75
  Q 110.75 100.37 110.75 99.50
  Q 110.75 74.13 110.75 48.73
  Q 110.75 47.67 109.83 48.20
  Q 90.57 59.33 71.06 70.56
  Q 69.94 71.21 70.46 72.25"
/>
<path stroke="#e04848" vector-effect="non-scaling-stroke" d="
  M 109.79 100.75
  L 110.00 50.57
  Q 110.01 49.43 109.01 50.00
  L 70.46 72.25"
/>
<path stroke="#e04848" vector-effect="non-scaling-stroke" d="
  M 70.25 111.54
  Q 81.77 105.25 93.06 98.56
  Q 94.25 97.86 94.25 96.79"
/>
</g>
<path fill="#ffffff" d="
  M 0.00 0.00
  Q 62.00 0.00 124.00 0.00
  Q 124.00 69.50 124.00 139.00
  Q 62.00 139.00 0.00 139.00
  Q 0.00 69.50 0.00 0.00
  Z
  M 44.00 11.71
  L 21.50 24.71
  Q 20.97 24.95 20.96 25.50
  Q 20.15 25.36 19.47 25.74
  Q 12.44 29.70 5.18 33.84
  C 4.85 34.03 4.84 34.50 5.16 34.70
  Q 16.19 41.44 27.82 47.68
  Q 28.30 47.93 28.50 48.54
  Q 28.40 49.28 28.96 49.50
  Q 29.33 49.64 29.39 49.68
  Q 44.43 58.37 60.04 67.31
  C 60.44 67.54 60.93 67.54 61.33 67.31
  L 116.78 35.42
  C 117.10 35.24 117.28 34.95 117.23 34.71
  Q 117.18 34.45 116.96 34.25
  Q 102.03 25.23 86.81 16.69
  Q 85.15 15.75 84.50 15.71
  Q 84.43 15.19 83.56 14.69
  Q 72.69 8.43 61.68 2.11
  C 61.33 1.91 60.90 1.90 60.57 2.09
  L 44.00 11.71
  Z
  M 11.75 107.54
  L 53.21 131.50
  L 58.47 134.58
  Q 59.50 135.19 59.51 134.03
  L 59.74 70.47
  C 59.75 69.88 59.44 69.34 58.94 69.06
  L 37.04 56.50
  L 26.04 50.25
  L 3.36 37.06
  Q 2.75 36.70 2.75 37.43
  L 2.75 101.87
  C 2.75 102.20 2.92 102.51 3.19 102.66
  L 11.75 107.54
  Z
  M 62.25 96.79
  L 62.29 108.25
  Q 61.85 109.36 61.75 112.25
  Q 61.37 123.75 61.50 134.99
  Q 61.51 136.03 62.36 135.48
  L 65.50 133.46
  Q 91.39 118.63 117.25 103.75
  Q 117.87 103.39 118.46 102.25
  Q 118.75 101.76 118.75 100.50
  Q 118.75 69.50 118.75 37.69
  C 118.75 37.33 118.36 37.10 118.05 37.28
  L 63.29 68.84
  Q 61.75 69.73 61.75 71.48
  L 61.81 96.16
  C 61.81 96.38 61.89 96.56 62.01 96.64
  L 62.25 96.79
  Z"
/>
<path fill="#ffd9d8" d="
  M 84.50 15.71
  L 68.50 25.19
  C 68.25 25.34 67.92 25.34 67.64 25.18
  L 44.00 11.71
  L 60.57 2.09
  C 60.90 1.90 61.33 1.91 61.68 2.11
  Q 72.69 8.43 83.56 14.69
  Q 84.43 15.19 84.50 15.71
  Z"
/>
<path fill="#f8acac" d="
  M 44.00 11.71
  L 67.64 25.18
  C 67.92 25.34 68.25 25.34 68.50 25.19
  L 84.50 15.71
  Q 85.15 15.75 86.81 16.69
  Q 102.03 25.23 116.96 34.25
  L 61.63 66.23
  C 61.14 66.51 60.53 66.51 60.04 66.23
  Q 46.36 58.46 32.57 50.55
  Q 30.82 49.55 29.25 48.29
  Q 29.55 47.58 30.69 46.94
  Q 40.99 41.11 43.56 39.81
  Q 44.15 39.52 44.00 39.04
  Q 45.11 39.24 44.62 38.36
  Q 44.47 38.08 44.12 37.88
  Q 32.82 31.29 21.50 24.71
  L 44.00 11.71
  Z
  M 36.00 26.29
  Q 46.53 32.86 57.44 38.81
  Q 57.75 38.98 58.50 39.96
  Q 50.96 44.93 43.14 49.45
  Q 41.51 50.39 43.25 50.29
  L 58.06 58.77
  C 58.32 58.92 58.65 58.92 58.93 58.76
  L 102.56 33.86
  C 102.68 33.79 102.75 33.66 102.75 33.52
  L 102.75 33.29
  Q 104.42 33.73 103.42 32.57
  Q 103.21 32.33 102.87 32.14
  Q 95.72 28.23 88.78 24.02
  C 88.31 23.74 87.73 23.72 87.27 23.99
  L 71.57 32.95
  C 71.01 33.27 70.31 33.27 69.74 32.95
  L 47.05 19.90
  C 46.43 19.55 45.66 19.55 45.03 19.91
  Q 40.75 22.35 35.83 25.34
  Q 34.50 26.15 36.00 26.29
  Z"
/>
<path fill="#d36d6d" d="
  M 102.75 33.29
  L 87.94 24.98
  C 87.67 24.83 87.34 24.84 87.06 25.00
  L 71.00 34.15
  C 70.65 34.35 70.22 34.35 69.87 34.15
  L 46.82 20.93
  C 46.29 20.63 45.66 20.63 45.15 20.92
  L 36.00 26.29
  Q 34.50 26.15 35.83 25.34
  Q 40.75 22.35 45.03 19.91
  C 45.66 19.55 46.43 19.55 47.05 19.90
  L 69.74 32.95
  C 70.31 33.27 71.01 33.27 71.57 32.95
  L 87.27 23.99
  C 87.73 23.72 88.31 23.74 88.78 24.02
  Q 95.72 28.23 102.87 32.14
  Q 103.21 32.33 103.42 32.57
  Q 104.42 33.73 102.75 33.29
  Z"
/>
<path fill="#ffd9d8" d="
  M 102.75 33.29
  L 102.75 33.52
  C 102.75 33.66 102.68 33.79 102.56 33.86
  L 58.93 58.76
  C 58.65 58.92 58.32 58.92 58.06 58.77
  L 43.25 50.29
  Q 50.74 45.86 58.29 41.53
  Q 59.95 40.59 58.50 39.96
  Q 57.75 38.98 57.44 38.81
  Q 46.53 32.86 36.00 26.29
  L 45.15 20.92
  C 45.66 20.63 46.29 20.63 46.82 20.93
  L 69.87 34.15
  C 70.22 34.35 70.65 34.35 71.00 34.15
  L 87.06 25.00
  C 87.34 24.84 87.67 24.83 87.94 24.98
  L 102.75 33.29
  Z"
/>
<path fill="#d36d6d" d="
  M 21.50 24.71
  Q 32.82 31.29 44.12 37.88
  Q 44.47 38.08 44.62 38.36
  Q 45.11 39.24 44.00 39.04
  L 20.96 25.50
  Q 20.97 24.95 21.50 24.71
  Z"
/>
<path fill="#ffd9d8" d="
  M 20.96 25.50
  L 44.00 39.04
  Q 44.15 39.52 43.56 39.81
  Q 40.99 41.11 30.69 46.94
  Q 29.55 47.58 29.25 48.29
  Q 28.81 48.21 28.50 48.54
  Q 28.30 47.93 27.82 47.68
  Q 16.19 41.44 5.16 34.70
  C 4.84 34.50 4.85 34.03 5.18 33.84
  Q 12.44 29.70 19.47 25.74
  Q 20.15 25.36 20.96 25.50
  Z"
/>
<path fill="#d36d6d" d="
  M 116.96 34.25
  Q 117.18 34.45 117.23 34.71
  C 117.28 34.95 117.10 35.24 116.78 35.42
  L 61.33 67.31
  C 60.93 67.54 60.44 67.54 60.04 67.31
  Q 44.43 58.37 29.39 49.68
  Q 29.33 49.64 28.96 49.50
  Q 28.40 49.28 28.50 48.54
  Q 28.81 48.21 29.25 48.29
  Q 30.82 49.55 32.57 50.55
  Q 46.36 58.46 60.04 66.23
  C 60.53 66.51 61.14 66.51 61.63 66.23
  L 116.96 34.25
  Z"
/>
<path fill="#a80d0e" d="
  M 26.04 50.25
  L 25.80 76.93
  C 25.80 77.25 25.97 77.55 26.24 77.70
  L 35.99 83.20
  C 36.19 83.32 36.44 83.17 36.44 82.93
  Q 36.55 70.84 36.50 58.75
  Q 36.50 57.80 37.04 56.50
  L 58.94 69.06
  C 59.44 69.34 59.75 69.88 59.74 70.47
  L 59.51 134.03
  Q 59.50 135.19 58.47 134.58
  L 53.21 131.50
  Q 53.04 130.39 51.50 129.50
  Q 33.00 118.85 14.44 108.31
  Q 12.90 107.44 11.75 107.54
  L 3.19 102.66
  C 2.92 102.51 2.75 102.20 2.75 101.87
  L 2.75 37.43
  Q 2.75 36.70 3.36 37.06
  L 26.04 50.25
  Z
  M 53.79 117.50
  Q 54.53 106.46 54.50 103.75
  Q 54.36 90.15 54.68 76.87
  C 54.70 76.14 54.33 75.45 53.70 75.07
  Q 48.95 72.13 44.01 69.54
  Q 42.30 68.65 42.79 70.50
  L 42.46 96.50
  L 19.54 83.50
  L 19.50 57.03
  C 19.50 56.63 19.27 56.25 18.89 56.04
  L 9.39 50.73
  C 8.99 50.51 8.50 50.78 8.50 51.23
  L 8.50 95.15
  C 8.50 95.47 8.67 95.77 8.95 95.92
  L 52.82 121.18
  C 53.05 121.31 53.33 121.16 53.36 120.90
  L 53.79 117.50
  Z"
/>
<path fill="#ef3232" d="
  M 118.46 102.25
  Q 103.20 110.80 65.94 132.44
  Q 65.16 132.89 65.50 133.46
  L 62.36 135.48
  Q 61.51 136.03 61.50 134.99
  Q 61.37 123.75 61.75 112.25
  Q 61.85 109.36 62.29 108.25
  L 85.08 95.26
  C 85.35 95.11 85.51 94.81 85.50 94.50
  L 85.45 83.81
  C 85.45 83.58 85.20 83.44 85.00 83.55
  L 62.25 96.79
  L 62.01 96.64
  C 61.89 96.56 61.81 96.38 61.81 96.16
  L 61.75 71.48
  Q 61.75 69.73 63.29 68.84
  L 118.05 37.28
  C 118.36 37.10 118.75 37.33 118.75 37.69
  Q 118.75 69.50 118.75 100.50
  Q 118.75 101.76 118.46 102.25
  Z
  M 70.46 72.25
  Q 69.93 77.88 70.45 83.50
  C 70.47 83.74 70.73 83.87 70.94 83.75
  L 93.84 70.67
  Q 94.58 70.25 94.57 71.09
  L 94.25 96.79
  Q 85.09 101.74 71.06 110.06
  Q 70.02 110.68 70.25 111.54
  L 70.09 122.57
  Q 70.07 123.67 71.01 123.13
  L 109.79 100.75
  Q 110.75 100.37 110.75 99.50
  Q 110.75 74.13 110.75 48.73
  Q 110.75 47.67 109.83 48.20
  Q 90.57 59.33 71.06 70.56
  Q 69.94 71.21 70.46 72.25
  Z"
/>
<path fill="#d36d6d" d="
  M 58.50 39.96
  Q 59.95 40.59 58.29 41.53
  Q 50.74 45.86 43.25 50.29
  Q 41.51 50.39 43.14 49.45
  Q 50.96 44.93 58.50 39.96
  Z"
/>
<path fill="#c42929" d="
  M 109.79 100.75
  L 110.00 50.57
  Q 110.01 49.43 109.01 50.00
  L 70.46 72.25
  Q 69.94 71.21 71.06 70.56
  Q 90.57 59.33 109.83 48.20
  Q 110.75 47.67 110.75 48.73
  Q 110.75 74.13 110.75 99.50
  Q 110.75 100.37 109.79 100.75
  Z"
/>
<path fill="#fb6767" d="
  M 109.79 100.75
  L 71.01 123.13
  Q 70.07 123.67 70.09 122.57
  L 70.25 111.54
  Q 81.77 105.25 93.06 98.56
  Q 94.25 97.86 94.25 96.79
  L 94.57 71.09
  Q 94.58 70.25 93.84 70.67
  L 70.94 83.75
  C 70.73 83.87 70.47 83.74 70.45 83.50
  Q 69.93 77.88 70.46 72.25
  L 109.01 50.00
  Q 110.01 49.43 110.00 50.57
  L 109.79 100.75
  Z"
/>
<path fill="#c14d4e" d="
  M 26.04 50.25
  L 37.04 56.50
  Q 36.50 57.80 36.50 58.75
  Q 36.55 70.84 36.44 82.93
  C 36.44 83.17 36.19 83.32 35.99 83.20
  L 26.24 77.70
  C 25.97 77.55 25.80 77.25 25.80 76.93
  L 26.04 50.25
  Z"
/>
<path fill="#c14d4e" d="
  M 19.54 83.50
  Q 19.21 84.60 19.81 84.94
  Q 30.73 91.09 41.57 97.38
  Q 42.78 98.09 42.46 96.50
  L 42.79 70.50
  Q 43.47 70.17 44.00 70.59
  Q 44.65 71.12 44.74 71.17
  Q 49.02 73.51 53.08 76.22
  C 53.34 76.39 53.50 76.69 53.50 77.00
  L 53.79 117.50
  L 53.36 120.90
  C 53.33 121.16 53.05 121.31 52.82 121.18
  L 8.95 95.92
  C 8.67 95.77 8.50 95.47 8.50 95.15
  L 8.50 51.23
  C 8.50 50.78 8.99 50.51 9.39 50.73
  L 18.89 56.04
  C 19.27 56.25 19.50 56.63 19.50 57.03
  L 19.54 83.50
  Z"
/>
<path fill="#a80d0e" d="
  M 53.79 117.50
  L 53.50 77.00
  C 53.50 76.69 53.34 76.39 53.08 76.22
  Q 49.02 73.51 44.74 71.17
  Q 44.65 71.12 44.00 70.59
  Q 43.47 70.17 42.79 70.50
  Q 42.30 68.65 44.01 69.54
  Q 48.95 72.13 53.70 75.07
  C 54.33 75.45 54.70 76.14 54.68 76.87
  Q 54.36 90.15 54.50 103.75
  Q 54.53 106.46 53.79 117.50
  Z"
/>
<path fill="#fb6767" d="
  M 62.29 108.25
  L 62.25 96.79
  L 85.00 83.55
  C 85.20 83.44 85.45 83.58 85.45 83.81
  L 85.50 94.50
  C 85.51 94.81 85.35 95.11 85.08 95.26
  L 62.29 108.25
  Z"
/>
<path fill="#6a1e1a" d="
  M 19.54 83.50
  L 42.46 96.50
  Q 42.78 98.09 41.57 97.38
  Q 30.73 91.09 19.81 84.94
  Q 19.21 84.60 19.54 83.50
  Z"
/>
<path fill="#c42929" d="
  M 94.25 96.79
  Q 94.25 97.86 93.06 98.56
  Q 81.77 105.25 70.25 111.54
  Q 70.02 110.68 71.06 110.06
  Q 85.09 101.74 94.25 96.79
  Z"
/>
<path fill="#a80d0e" d="
  M 118.46 102.25
  Q 117.87 103.39 117.25 103.75
  Q 91.39 118.63 65.50 133.46
  Q 65.16 132.89 65.94 132.44
  Q 103.20 110.80 118.46 102.25
  Z"
/>
<path fill="#6a1e1a" d="
  M 11.75 107.54
  Q 12.90 107.44 14.44 108.31
  Q 33.00 118.85 51.50 129.50
  Q 53.04 130.39 53.21 131.50
  L 11.75 107.54
  Z"
/>
</svg>
