<?xml version="1.0" encoding="UTF-8" standalone="no"?>
<!DOCTYPE svg PUBLIC "-//W3C//DTD SVG 1.1//EN" "http://www.w3.org/Graphics/SVG/1.1/DTD/svg11.dtd">
<svg xmlns="http://www.w3.org/2000/svg" version="1.1" viewBox="0 0 32 32">
<g stroke-width="2.0" fill="none" stroke-linecap="butt">
<path stroke="#878787" vector-effect="non-scaling-stroke" d="
  M 16.92 22.95
  Q 18.09 23.22 19.22 22.86
  C 19.49 22.78 19.64 22.49 19.55 22.22
  L 14.86 8.29
  C 14.76 7.99 14.49 7.78 14.19 7.78
  L 10.81 7.78
  C 10.50 7.78 10.23 7.98 10.13 8.27
  L 5.45 22.20
  C 5.35 22.48 5.50 22.78 5.77 22.89
  Q 7.45 23.53 8.81 22.51
  C 9.02 22.35 9.17 22.05 9.25 21.68
  Q 9.51 20.36 10.80 20.36
  Q 12.49 20.36 12.70 20.34
  Q 15.21 20.11 16.25 22.35
  C 16.39 22.66 16.64 22.89 16.92 22.95"
/>
<path stroke="#878787" vector-effect="non-scaling-stroke" d="
  M 24.75 8.17
  C 24.75 7.93 24.56 7.74 24.32 7.74
  L 21.68 7.74
  C 21.44 7.74 21.25 7.93 21.25 8.17
  L 21.25 22.55
  C 21.25 22.79 21.44 22.98 21.68 22.98
  L 24.32 22.98
  C 24.56 22.98 24.75 22.79 24.75 22.55
  L 24.75 8.17"
/>
<path stroke="#878787" vector-effect="non-scaling-stroke" d="
  M 11.40 14.93
  Q 9.45 18.41 13.77 17.15
  C 14.03 17.07 14.17 16.79 14.08 16.53
  Q 13.69 15.38 13.40 14.21
  Q 12.49 10.52 11.80 13.87
  Q 11.68 14.42 11.40 14.93"
/>
</g>
<path fill="#030202" fill-opacity="0.004" d="
  M 0.00 0.00
  Q 4.41 0.00 8.81 0.00
  Q 1.48 1.61 0.00 8.94
  Q 0.00 4.47 0.00 0.00
  Z"
/>
<path fill="#ffffff" d="
  M 8.81 0.00
  Q 15.94 0.00 23.06 0.00
  Q 30.55 1.54 32.00 9.06
  Q 32.00 16.06 32.00 23.06
  Q 30.54 30.64 22.94 32.00
  Q 15.81 32.00 8.69 32.00
  Q 1.36 30.30 0.00 22.94
  Q 0.00 15.94 0.00 8.94
  Q 1.48 1.61 8.81 0.00
  Z
  M 16.92 22.95
  Q 18.09 23.22 19.22 22.86
  C 19.49 22.78 19.64 22.49 19.55 22.22
  L 14.86 8.29
  C 14.76 7.99 14.49 7.78 14.19 7.78
  L 10.81 7.78
  C 10.50 7.78 10.23 7.98 10.13 8.27
  L 5.45 22.20
  C 5.35 22.48 5.50 22.78 5.77 22.89
  Q 7.45 23.53 8.81 22.51
  C 9.02 22.35 9.17 22.05 9.25 21.68
  Q 9.51 20.36 10.80 20.36
  Q 12.49 20.36 12.70 20.34
  Q 15.21 20.11 16.25 22.35
  C 16.39 22.66 16.64 22.89 16.92 22.95
  Z
  M 24.75 8.17
  C 24.75 7.93 24.56 7.74 24.32 7.74
  L 21.68 7.74
  C 21.44 7.74 21.25 7.93 21.25 8.17
  L 21.25 22.55
  C 21.25 22.79 21.44 22.98 21.68 22.98
  L 24.32 22.98
  C 24.56 22.98 24.75 22.79 24.75 22.55
  L 24.75 8.17
  Z"
/>
<path fill="#030202" fill-opacity="0.004" d="
  M 23.06 0.00
  Q 27.53 0.00 32.00 0.00
  Q 32.00 4.53 32.00 9.06
  Q 30.55 1.54 23.06 0.00
  Z"
/>
<path fill="#0e0f0f" d="
  M 16.25 22.35
  Q 15.21 20.11 12.70 20.34
  Q 12.49 20.36 10.80 20.36
  Q 9.51 20.36 9.25 21.68
  C 9.17 22.05 9.02 22.35 8.81 22.51
  Q 7.45 23.53 5.77 22.89
  C 5.50 22.78 5.35 22.48 5.45 22.20
  L 10.13 8.27
  C 10.23 7.98 10.50 7.78 10.81 7.78
  L 14.19 7.78
  C 14.49 7.78 14.76 7.99 14.86 8.29
  L 19.55 22.22
  C 19.64 22.49 19.49 22.78 19.22 22.86
  Q 18.09 23.22 16.92 22.95
  C 16.64 22.89 16.39 22.66 16.25 22.35
  Z
  M 11.40 14.93
  Q 9.45 18.41 13.77 17.15
  C 14.03 17.07 14.17 16.79 14.08 16.53
  Q 13.69 15.38 13.40 14.21
  Q 12.49 10.52 11.80 13.87
  Q 11.68 14.42 11.40 14.93
  Z"
/>
<rect fill="#0e0f0f" x="21.25" y="7.74" width="3.50" height="15.24" rx="0.43"/>
<path fill="#ffffff" d="
  M 11.80 13.87
  Q 12.49 10.52 13.40 14.21
  Q 13.69 15.38 14.08 16.53
  C 14.17 16.79 14.03 17.07 13.77 17.15
  Q 9.45 18.41 11.40 14.93
  Q 11.68 14.42 11.80 13.87
  Z"
/>
<path fill="#030202" fill-opacity="0.004" d="
  M 0.00 22.94
  Q 1.36 30.30 8.69 32.00
  Q 4.34 32.00 0.00 32.00
  Q 0.00 27.47 0.00 22.94
  Z"
/>
<path fill="#030202" fill-opacity="0.004" d="
  M 32.00 23.06
  Q 32.00 27.53 32.00 32.00
  Q 27.47 32.00 22.94 32.00
  Q 30.54 30.64 32.00 23.06
  Z"
/>
</svg>
