<?xml version="1.0" encoding="UTF-8" standalone="no"?>
<!DOCTYPE svg PUBLIC "-//W3C//DTD SVG 1.1//EN" "http://www.w3.org/Graphics/SVG/1.1/DTD/svg11.dtd">
<svg xmlns="http://www.w3.org/2000/svg" version="1.1" viewBox="0 0 192 192">
<g stroke-width="2.0" fill="none" stroke-linecap="butt">
<path stroke="#808080" vector-effect="non-scaling-stroke" d="
  M 160.76 91.94
  Q 158.59 90.16 161.38 90.51
  Q 167.44 91.28 172.12 85.70
  Q 172.44 85.32 171.95 85.45
  Q 164.45 87.51 157.45 83.97
  Q 155.95 83.22 157.63 83.24
  Q 164.01 83.33 169.46 81.50
  Q 169.87 81.36 170.00 81.18
  Q 170.45 80.61 169.56 80.89
  Q 156.19 85.08 147.72 74.32
  Q 143.49 68.93 141.81 65.19
  Q 139.18 59.29 136.39 53.48
  Q 131.63 43.57 130.65 41.93
  Q 124.60 31.84 114.19 27.31
  Q 102.14 22.07 87.00 23.00
  Q 71.37 23.95 59.79 31.97
  Q 50.92 38.12 47.53 44.30
  Q 42.93 52.69 47.37 63.23
  Q 47.52 63.59 47.97 63.99
  Q 48.68 64.61 48.77 65.55
  Q 48.88 66.80 48.91 66.94
  Q 49.76 70.80 49.26 74.70
  C 49.23 74.92 49.01 75.12 48.69 75.22
  Q 47.99 75.44 48.62 76.79
  C 48.92 77.41 48.85 78.13 48.45 78.68
  Q 44.97 83.44 39.70 86.03
  C 39.42 86.17 39.23 86.45 39.21 86.75
  Q 38.95 91.17 42.42 94.08
  Q 44.70 95.99 43.44 98.17
  Q 42.48 99.83 44.05 100.93
  Q 45.79 102.15 44.62 104.23
  Q 43.61 106.02 45.47 106.90
  Q 46.85 107.55 47.38 108.72
  Q 47.72 109.48 47.47 111.16
  Q 45.90 121.65 56.19 122.29
  C 56.50 122.31 56.79 122.48 56.96 122.74
  Q 63.58 132.91 73.95 139.32
  Q 75.54 140.30 74.30 138.90
  Q 72.88 137.32 71.15 135.76
  Q 71.05 135.68 71.02 135.57
  Q 70.97 135.42 71.04 135.33
  C 71.10 135.26 71.27 135.30 71.43 135.42
  L 77.01 139.79
  Q 77.48 140.15 77.63 140.53
  Q 80.71 148.10 80.04 156.26
  C 80.01 156.58 79.89 156.89 79.68 157.14
  Q 75.92 161.64 71.52 165.52
  Q 69.23 167.55 68.26 170.46
  Q 67.71 172.10 68.68 170.98
  Q 68.80 170.83 68.90 170.60
  Q 70.23 167.35 73.04 165.33
  Q 73.76 164.81 73.59 165.68
  Q 73.22 167.57 74.57 168.68
  Q 77.36 170.98 80.84 169.63
  Q 83.53 168.59 85.83 166.84
  Q 90.53 163.24 95.31 159.76
  Q 104.64 152.94 116.68 150.62
  C 117.11 150.53 117.55 150.70 117.83 151.05
  Q 124.54 159.49 129.36 168.08
  C 129.51 168.35 129.72 168.54 129.93 168.61
  Q 130.59 168.82 129.99 167.73
  Q 123.82 156.45 115.34 146.80
  Q 114.98 146.39 113.83 145.59
  Q 112.98 144.99 112.50 144.06
  Q 111.79 142.71 111.75 142.63
  Q 110.54 140.68 109.73 138.53
  C 109.65 138.32 109.83 138.10 110.06 138.11
  Q 111.74 138.21 111.23 137.25
  Q 110.84 136.49 110.86 136.29
  Q 110.94 135.63 112.26 135.94
  Q 114.77 136.52 117.56 137.34
  Q 118.79 137.70 117.90 136.78
  Q 117.21 136.07 117.30 135.46
  C 117.35 135.17 117.67 134.98 118.01 135.04
  L 125.83 136.33
  C 126.33 136.41 126.75 135.98 126.63 135.51
  Q 126.17 133.72 126.88 132.84
  C 127.05 132.64 127.38 132.63 127.62 132.83
  Q 128.97 133.93 130.69 133.95
  C 130.97 133.96 131.23 133.76 131.33 133.46
  Q 132.27 130.78 135.25 130.78
  Q 138.40 130.79 141.15 129.52
  Q 143.60 128.39 145.10 128.31
  Q 148.31 128.14 151.52 128.67
  C 151.86 128.72 152.18 128.68 152.45 128.56
  Q 154.70 127.53 155.77 125.00
  C 155.99 124.46 156.43 124.03 156.98 123.83
  Q 163.65 121.31 166.89 116.97
  C 167.06 116.75 167.02 116.43 166.80 116.25
  Q 164.02 113.97 163.10 110.58
  C 162.94 109.99 163.43 109.42 164.04 109.48
  Q 167.04 109.79 168.92 107.87
  C 169.13 107.65 169.10 107.30 168.86 107.18
  L 167.31 106.44
  Q 165.58 105.60 167.44 104.69
  Q 172.14 102.36 172.31 97.18
  C 172.32 96.91 172.10 96.68 171.82 96.65
  Q 165.76 96.04 160.76 91.94"
/>
<path stroke="#808080" vector-effect="non-scaling-stroke" d="
  M 47.75 61.31
  L 48.38 55.97
  Q 48.49 55.07 48.09 55.88
  Q 46.70 58.71 47.52 61.34
  Q 47.68 61.86 47.75 61.31"
/>
<path stroke="#808080" vector-effect="non-scaling-stroke" d="
  M 43.70 93.50
  Q 46.07 95.20 44.52 97.66
  Q 43.32 99.58 46.03 101.53
  C 46.26 101.70 46.36 102.00 46.27 102.28
  Q 45.13 105.74 48.02 107.79
  C 48.30 107.98 48.48 108.25 48.53 108.54
  Q 48.96 110.87 48.75 113.25
  Q 48.21 119.30 52.95 120.60
  Q 54.25 120.96 57.44 120.71
  Q 59.72 120.53 62.00 120.57
  Q 66.00 120.64 68.77 122.90
  Q 70.36 124.19 73.07 128.22
  Q 81.38 140.57 81.29 155.66
  Q 81.28 157.57 80.46 159.15
  Q 79.62 160.79 78.56 162.31
  Q 78.07 163.02 78.75 163.47
  C 78.98 163.62 79.32 163.62 79.64 163.47
  Q 81.96 162.36 82.94 161.44
  Q 94.58 150.47 111.15 145.93
  C 111.61 145.81 111.83 145.26 111.60 144.81
  L 108.49 138.66
  C 108.33 138.35 108.10 138.13 107.84 138.05
  Q 105.75 137.36 103.31 135.69
  Q 88.29 125.36 81.58 108.93
  Q 76.26 95.90 73.73 82.05
  Q 73.47 80.62 72.85 79.60
  Q 72.11 78.40 71.30 77.46
  Q 70.45 76.48 70.75 77.74
  Q 71.65 81.55 73.36 85.04
  Q 73.85 86.03 73.06 84.97
  Q 66.98 76.79 65.63 66.68
  C 65.59 66.37 65.38 66.10 65.10 66.00
  Q 63.69 65.47 62.20 65.41
  Q 59.97 65.33 58.95 64.81
  Q 53.95 62.25 51.96 56.64
  Q 51.53 55.42 51.11 56.65
  Q 50.01 59.90 49.90 63.59
  Q 49.89 63.96 50.64 70.34
  Q 51.95 81.51 40.85 86.66
  C 40.48 86.83 40.25 87.20 40.26 87.61
  Q 40.34 91.09 43.70 93.50"
/>
<path stroke="#808080" vector-effect="non-scaling-stroke" d="
  M 93.81 80.44
  Q 92.51 80.04 90.30 80.26
  C 90.02 80.29 89.81 80.53 89.80 80.82
  Q 89.73 86.19 90.84 91.44
  Q 91.09 92.64 91.74 93.21
  Q 93.10 94.41 94.13 92.41
  Q 96.05 88.67 96.30 84.49
  Q 96.50 81.27 93.81 80.44"
/>
<path stroke="#808080" vector-effect="non-scaling-stroke" d="
  M 74.56 134.94
  Q 73.56 134.42 71.44 132.31
  Q 70.95 131.84 70.98 132.34
  Q 70.99 132.49 71.10 132.63
  Q 73.23 135.37 75.86 137.50
  Q 77.19 138.58 76.50 137.01
  Q 75.90 135.62 74.56 134.94"
/>
<path stroke="#808080" vector-effect="non-scaling-stroke" d="
  M 77.66 162.46
  Q 78.72 161.29 78.95 159.75
  Q 79.03 159.21 78.61 159.55
  Q 77.04 160.82 76.51 162.64
  Q 75.98 164.47 77.10 165.64
  Q 78.51 167.10 80.98 165.48
  Q 85.62 162.43 89.88 158.86
  Q 99.97 150.41 112.83 147.64
  Q 115.94 146.96 112.89 146.55
  Q 112.51 146.50 112.11 146.59
  Q 95.53 150.47 82.57 162.77
  Q 81.27 164.01 79.49 164.25
  Q 77.93 164.47 77.45 163.29
  C 77.35 163.04 77.43 162.72 77.66 162.46"
/>
<path stroke="#808080" vector-effect="non-scaling-stroke" d="
  M 65.08 70.78
  Q 60.46 67.65 54.99 66.59
  C 54.66 66.53 54.33 66.57 54.04 66.71
  Q 52.04 67.70 54.74 68.06
  Q 60.31 68.81 65.19 71.57
  C 65.41 71.69 65.65 71.70 65.82 71.59
  Q 66.24 71.31 65.57 71.03
  Q 65.27 70.91 65.08 70.78"
/>
<path stroke="#808080" vector-effect="non-scaling-stroke" d="
  M 58.82 79.58
  Q 59.50 78.15 60.37 79.47
  Q 61.26 80.79 62.51 81.51
  Q 64.00 82.36 63.17 80.85
  Q 61.09 77.11 57.18 75.07
  Q 55.86 74.38 54.86 75.16
  C 54.66 75.31 54.66 75.63 54.85 75.86
  Q 55.71 76.90 55.40 78.27
  Q 55.26 78.84 55.35 79.23
  Q 56.52 84.37 58.82 79.58"
/>
<path stroke="#808080" vector-effect="non-scaling-stroke" d="
  M 60.34 75.57
  Q 61.25 76.86 61.98 77.53
  Q 62.47 77.98 62.46 77.55
  C 62.46 77.40 62.39 77.24 62.26 77.12
  L 60.49 75.44
  Q 59.77 74.77 60.34 75.57"
/>
</g>
<path fill="#ffffff" d="
  M 0.00 0.00
  Q 96.00 0.00 192.00 0.00
  Q 192.00 96.00 192.00 192.00
  Q 96.00 192.00 0.00 192.00
  Q 0.00 96.00 0.00 0.00
  Z
  M 160.76 91.94
  Q 158.59 90.16 161.38 90.51
  Q 167.44 91.28 172.12 85.70
  Q 172.44 85.32 171.95 85.45
  Q 164.45 87.51 157.45 83.97
  Q 155.95 83.22 157.63 83.24
  Q 164.01 83.33 169.46 81.50
  Q 169.87 81.36 170.00 81.18
  Q 170.45 80.61 169.56 80.89
  Q 156.19 85.08 147.72 74.32
  Q 143.49 68.93 141.81 65.19
  Q 139.18 59.29 136.39 53.48
  Q 131.63 43.57 130.65 41.93
  Q 124.60 31.84 114.19 27.31
  Q 102.14 22.07 87.00 23.00
  Q 71.37 23.95 59.79 31.97
  Q 50.92 38.12 47.53 44.30
  Q 42.93 52.69 47.37 63.23
  Q 47.52 63.59 47.97 63.99
  Q 48.68 64.61 48.77 65.55
  Q 48.88 66.80 48.91 66.94
  Q 49.76 70.80 49.26 74.70
  C 49.23 74.92 49.01 75.12 48.69 75.22
  Q 47.99 75.44 48.62 76.79
  C 48.92 77.41 48.85 78.13 48.45 78.68
  Q 44.97 83.44 39.70 86.03
  C 39.42 86.17 39.23 86.45 39.21 86.75
  Q 38.95 91.17 42.42 94.08
  Q 44.70 95.99 43.44 98.17
  Q 42.48 99.83 44.05 100.93
  Q 45.79 102.15 44.62 104.23
  Q 43.61 106.02 45.47 106.90
  Q 46.85 107.55 47.38 108.72
  Q 47.72 109.48 47.47 111.16
  Q 45.90 121.65 56.19 122.29
  C 56.50 122.31 56.79 122.48 56.96 122.74
  Q 63.58 132.91 73.95 139.32
  Q 75.54 140.30 74.30 138.90
  Q 72.88 137.32 71.15 135.76
  Q 71.05 135.68 71.02 135.57
  Q 70.97 135.42 71.04 135.33
  C 71.10 135.26 71.27 135.30 71.43 135.42
  L 77.01 139.79
  Q 77.48 140.15 77.63 140.53
  Q 80.71 148.10 80.04 156.26
  C 80.01 156.58 79.89 156.89 79.68 157.14
  Q 75.92 161.64 71.52 165.52
  Q 69.23 167.55 68.26 170.46
  Q 67.71 172.10 68.68 170.98
  Q 68.80 170.83 68.90 170.60
  Q 70.23 167.35 73.04 165.33
  Q 73.76 164.81 73.59 165.68
  Q 73.22 167.57 74.57 168.68
  Q 77.36 170.98 80.84 169.63
  Q 83.53 168.59 85.83 166.84
  Q 90.53 163.24 95.31 159.76
  Q 104.64 152.94 116.68 150.62
  C 117.11 150.53 117.55 150.70 117.83 151.05
  Q 124.54 159.49 129.36 168.08
  C 129.51 168.35 129.72 168.54 129.93 168.61
  Q 130.59 168.82 129.99 167.73
  Q 123.82 156.45 115.34 146.80
  Q 114.98 146.39 113.83 145.59
  Q 112.98 144.99 112.50 144.06
  Q 111.79 142.71 111.75 142.63
  Q 110.54 140.68 109.73 138.53
  C 109.65 138.32 109.83 138.10 110.06 138.11
  Q 111.74 138.21 111.23 137.25
  Q 110.84 136.49 110.86 136.29
  Q 110.94 135.63 112.26 135.94
  Q 114.77 136.52 117.56 137.34
  Q 118.79 137.70 117.90 136.78
  Q 117.21 136.07 117.30 135.46
  C 117.35 135.17 117.67 134.98 118.01 135.04
  L 125.83 136.33
  C 126.33 136.41 126.75 135.98 126.63 135.51
  Q 126.17 133.72 126.88 132.84
  C 127.05 132.64 127.38 132.63 127.62 132.83
  Q 128.97 133.93 130.69 133.95
  C 130.97 133.96 131.23 133.76 131.33 133.46
  Q 132.27 130.78 135.25 130.78
  Q 138.40 130.79 141.15 129.52
  Q 143.60 128.39 145.10 128.31
  Q 148.31 128.14 151.52 128.67
  C 151.86 128.72 152.18 128.68 152.45 128.56
  Q 154.70 127.53 155.77 125.00
  C 155.99 124.46 156.43 124.03 156.98 123.83
  Q 163.65 121.31 166.89 116.97
  C 167.06 116.75 167.02 116.43 166.80 116.25
  Q 164.02 113.97 163.10 110.58
  C 162.94 109.99 163.43 109.42 164.04 109.48
  Q 167.04 109.79 168.92 107.87
  C 169.13 107.65 169.10 107.30 168.86 107.18
  L 167.31 106.44
  Q 165.58 105.60 167.44 104.69
  Q 172.14 102.36 172.31 97.18
  C 172.32 96.91 172.10 96.68 171.82 96.65
  Q 165.76 96.04 160.76 91.94
  Z"
/>
<path fill="#000000" d="
  M 160.76 91.94
  Q 165.76 96.04 171.82 96.65
  C 172.10 96.68 172.32 96.91 172.31 97.18
  Q 172.14 102.36 167.44 104.69
  Q 165.58 105.60 167.31 106.44
  L 168.86 107.18
  C 169.10 107.30 169.13 107.65 168.92 107.87
  Q 167.04 109.79 164.04 109.48
  C 163.43 109.42 162.94 109.99 163.10 110.58
  Q 164.02 113.97 166.80 116.25
  C 167.02 116.43 167.06 116.75 166.89 116.97
  Q 163.65 121.31 156.98 123.83
  C 156.43 124.03 155.99 124.46 155.77 125.00
  Q 154.70 127.53 152.45 128.56
  C 152.18 128.68 151.86 128.72 151.52 128.67
  Q 148.31 128.14 145.10 128.31
  Q 143.60 128.39 141.15 129.52
  Q 138.40 130.79 135.25 130.78
  Q 132.27 130.78 131.33 133.46
  C 131.23 133.76 130.97 133.96 130.69 133.95
  Q 128.97 133.93 127.62 132.83
  C 127.38 132.63 127.05 132.64 126.88 132.84
  Q 126.17 133.72 126.63 135.51
  C 126.75 135.98 126.33 136.41 125.83 136.33
  L 118.01 135.04
  C 117.67 134.98 117.35 135.17 117.30 135.46
  Q 117.21 136.07 117.90 136.78
  Q 118.79 137.70 117.56 137.34
  Q 114.77 136.52 112.26 135.94
  Q 110.94 135.63 110.86 136.29
  Q 110.84 136.49 111.23 137.25
  Q 111.74 138.21 110.06 138.11
  C 109.83 138.10 109.65 138.32 109.73 138.53
  Q 110.54 140.68 111.75 142.63
  Q 111.79 142.71 112.50 144.06
  Q 112.98 144.99 113.83 145.59
  Q 114.98 146.39 115.34 146.80
  Q 123.82 156.45 129.99 167.73
  Q 130.59 168.82 129.93 168.61
  C 129.72 168.54 129.51 168.35 129.36 168.08
  Q 124.54 159.49 117.83 151.05
  C 117.55 150.70 117.11 150.53 116.68 150.62
  Q 104.64 152.94 95.31 159.76
  Q 90.53 163.24 85.83 166.84
  Q 83.53 168.59 80.84 169.63
  Q 77.36 170.98 74.57 168.68
  Q 73.22 167.57 73.59 165.68
  Q 73.76 164.81 73.04 165.33
  Q 70.23 167.35 68.90 170.60
  Q 68.80 170.83 68.68 170.98
  Q 67.71 172.10 68.26 170.46
  Q 69.23 167.55 71.52 165.52
  Q 75.92 161.64 79.68 157.14
  C 79.89 156.89 80.01 156.58 80.04 156.26
  Q 80.71 148.10 77.63 140.53
  Q 77.48 140.15 77.01 139.79
  L 71.43 135.42
  C 71.27 135.30 71.10 135.26 71.04 135.33
  Q 70.97 135.42 71.02 135.57
  Q 71.05 135.68 71.15 135.76
  Q 72.88 137.32 74.30 138.90
  Q 75.54 140.30 73.95 139.32
  Q 63.58 132.91 56.96 122.74
  C 56.79 122.48 56.50 122.31 56.19 122.29
  Q 45.90 121.65 47.47 111.16
  Q 47.72 109.48 47.38 108.72
  Q 46.85 107.55 45.47 106.90
  Q 43.61 106.02 44.62 104.23
  Q 45.79 102.15 44.05 100.93
  Q 42.48 99.83 43.44 98.17
  Q 44.70 95.99 42.42 94.08
  Q 38.95 91.17 39.21 86.75
  C 39.23 86.45 39.42 86.17 39.70 86.03
  Q 44.97 83.44 48.45 78.68
  C 48.85 78.13 48.92 77.41 48.62 76.79
  Q 47.99 75.44 48.69 75.22
  C 49.01 75.12 49.23 74.92 49.26 74.70
  Q 49.76 70.80 48.91 66.94
  Q 48.88 66.80 48.77 65.55
  Q 48.68 64.61 47.97 63.99
  Q 47.52 63.59 47.37 63.23
  Q 42.93 52.69 47.53 44.30
  Q 50.92 38.12 59.79 31.97
  Q 71.37 23.95 87.00 23.00
  Q 102.14 22.07 114.19 27.31
  Q 124.60 31.84 130.65 41.93
  Q 131.63 43.57 136.39 53.48
  Q 139.18 59.29 141.81 65.19
  Q 143.49 68.93 147.72 74.32
  Q 156.19 85.08 169.56 80.89
  Q 170.45 80.61 170.00 81.18
  Q 169.87 81.36 169.46 81.50
  Q 164.01 83.33 157.63 83.24
  Q 155.95 83.22 157.45 83.97
  Q 164.45 87.51 171.95 85.45
  Q 172.44 85.32 172.12 85.70
  Q 167.44 91.28 161.38 90.51
  Q 158.59 90.16 160.76 91.94
  Z
  M 47.75 61.31
  L 48.38 55.97
  Q 48.49 55.07 48.09 55.88
  Q 46.70 58.71 47.52 61.34
  Q 47.68 61.86 47.75 61.31
  Z
  M 43.70 93.50
  Q 46.07 95.20 44.52 97.66
  Q 43.32 99.58 46.03 101.53
  C 46.26 101.70 46.36 102.00 46.27 102.28
  Q 45.13 105.74 48.02 107.79
  C 48.30 107.98 48.48 108.25 48.53 108.54
  Q 48.96 110.87 48.75 113.25
  Q 48.21 119.30 52.95 120.60
  Q 54.25 120.96 57.44 120.71
  Q 59.72 120.53 62.00 120.57
  Q 66.00 120.64 68.77 122.90
  Q 70.36 124.19 73.07 128.22
  Q 81.38 140.57 81.29 155.66
  Q 81.28 157.57 80.46 159.15
  Q 79.62 160.79 78.56 162.31
  Q 78.07 163.02 78.75 163.47
  C 78.98 163.62 79.32 163.62 79.64 163.47
  Q 81.96 162.36 82.94 161.44
  Q 94.58 150.47 111.15 145.93
  C 111.61 145.81 111.83 145.26 111.60 144.81
  L 108.49 138.66
  C 108.33 138.35 108.10 138.13 107.84 138.05
  Q 105.75 137.36 103.31 135.69
  Q 88.29 125.36 81.58 108.93
  Q 76.26 95.90 73.73 82.05
  Q 73.47 80.62 72.85 79.60
  Q 72.11 78.40 71.30 77.46
  Q 70.45 76.48 70.75 77.74
  Q 71.65 81.55 73.36 85.04
  Q 73.85 86.03 73.06 84.97
  Q 66.98 76.79 65.63 66.68
  C 65.59 66.37 65.38 66.10 65.10 66.00
  Q 63.69 65.47 62.20 65.41
  Q 59.97 65.33 58.95 64.81
  Q 53.95 62.25 51.96 56.64
  Q 51.53 55.42 51.11 56.65
  Q 50.01 59.90 49.90 63.59
  Q 49.89 63.96 50.64 70.34
  Q 51.95 81.51 40.85 86.66
  C 40.48 86.83 40.25 87.20 40.26 87.61
  Q 40.34 91.09 43.70 93.50
  Z
  M 93.81 80.44
  Q 92.51 80.04 90.30 80.26
  C 90.02 80.29 89.81 80.53 89.80 80.82
  Q 89.73 86.19 90.84 91.44
  Q 91.09 92.64 91.74 93.21
  Q 93.10 94.41 94.13 92.41
  Q 96.05 88.67 96.30 84.49
  Q 96.50 81.27 93.81 80.44
  Z
  M 74.56 134.94
  Q 73.56 134.42 71.44 132.31
  Q 70.95 131.84 70.98 132.34
  Q 70.99 132.49 71.10 132.63
  Q 73.23 135.37 75.86 137.50
  Q 77.19 138.58 76.50 137.01
  Q 75.90 135.62 74.56 134.94
  Z
  M 77.66 162.46
  Q 78.72 161.29 78.95 159.75
  Q 79.03 159.21 78.61 159.55
  Q 77.04 160.82 76.51 162.64
  Q 75.98 164.47 77.10 165.64
  Q 78.51 167.10 80.98 165.48
  Q 85.62 162.43 89.88 158.86
  Q 99.97 150.41 112.83 147.64
  Q 115.94 146.96 112.89 146.55
  Q 112.51 146.50 112.11 146.59
  Q 95.53 150.47 82.57 162.77
  Q 81.27 164.01 79.49 164.25
  Q 77.93 164.47 77.45 163.29
  C 77.35 163.04 77.43 162.72 77.66 162.46
  Z"
/>
<path fill="#ffffff" d="
  M 47.52 61.34
  Q 46.70 58.71 48.09 55.88
  Q 48.49 55.07 48.38 55.97
  L 47.75 61.31
  Q 47.68 61.86 47.52 61.34
  Z"
/>
<path fill="#ffffff" d="
  M 43.70 93.50
  Q 40.34 91.09 40.26 87.61
  C 40.25 87.20 40.48 86.83 40.85 86.66
  Q 51.95 81.51 50.64 70.34
  Q 49.89 63.96 49.90 63.59
  Q 50.01 59.90 51.11 56.65
  Q 51.53 55.42 51.96 56.64
  Q 53.95 62.25 58.95 64.81
  Q 59.97 65.33 62.20 65.41
  Q 63.69 65.47 65.10 66.00
  C 65.38 66.10 65.59 66.37 65.63 66.68
  Q 66.98 76.79 73.06 84.97
  Q 73.85 86.03 73.36 85.04
  Q 71.65 81.55 70.75 77.74
  Q 70.45 76.48 71.30 77.46
  Q 72.11 78.40 72.85 79.60
  Q 73.47 80.62 73.73 82.05
  Q 76.26 95.90 81.58 108.93
  Q 88.29 125.36 103.31 135.69
  Q 105.75 137.36 107.84 138.05
  C 108.10 138.13 108.33 138.35 108.49 138.66
  L 111.60 144.81
  C 111.83 145.26 111.61 145.81 111.15 145.93
  Q 94.58 150.47 82.94 161.44
  Q 81.96 162.36 79.64 163.47
  C 79.32 163.62 78.98 163.62 78.75 163.47
  Q 78.07 163.02 78.56 162.31
  Q 79.62 160.79 80.46 159.15
  Q 81.28 157.57 81.29 155.66
  Q 81.38 140.57 73.07 128.22
  Q 70.36 124.19 68.77 122.90
  Q 66.00 120.64 62.00 120.57
  Q 59.72 120.53 57.44 120.71
  Q 54.25 120.96 52.95 120.60
  Q 48.21 119.30 48.75 113.25
  Q 48.96 110.87 48.53 108.54
  C 48.48 108.25 48.30 107.98 48.02 107.79
  Q 45.13 105.74 46.27 102.28
  C 46.36 102.00 46.26 101.70 46.03 101.53
  Q 43.32 99.58 44.52 97.66
  Q 46.07 95.20 43.70 93.50
  Z
  M 65.08 70.78
  Q 60.46 67.65 54.99 66.59
  C 54.66 66.53 54.33 66.57 54.04 66.71
  Q 52.04 67.70 54.74 68.06
  Q 60.31 68.81 65.19 71.57
  C 65.41 71.69 65.65 71.70 65.82 71.59
  Q 66.24 71.31 65.57 71.03
  Q 65.27 70.91 65.08 70.78
  Z
  M 58.82 79.58
  Q 59.50 78.15 60.37 79.47
  Q 61.26 80.79 62.51 81.51
  Q 64.00 82.36 63.17 80.85
  Q 61.09 77.11 57.18 75.07
  Q 55.86 74.38 54.86 75.16
  C 54.66 75.31 54.66 75.63 54.85 75.86
  Q 55.71 76.90 55.40 78.27
  Q 55.26 78.84 55.35 79.23
  Q 56.52 84.37 58.82 79.58
  Z
  M 60.34 75.57
  Q 61.25 76.86 61.98 77.53
  Q 62.47 77.98 62.46 77.55
  C 62.46 77.40 62.39 77.24 62.26 77.12
  L 60.49 75.44
  Q 59.77 74.77 60.34 75.57
  Z"
/>
<path fill="#000000" d="
  M 65.57 71.03
  Q 66.24 71.31 65.82 71.59
  C 65.65 71.70 65.41 71.69 65.19 71.57
  Q 60.31 68.81 54.74 68.06
  Q 52.04 67.70 54.04 66.71
  C 54.33 66.57 54.66 66.53 54.99 66.59
  Q 60.46 67.65 65.08 70.78
  Q 65.27 70.91 65.57 71.03
  Z"
/>
<path fill="#000000" d="
  M 58.82 79.58
  Q 56.52 84.37 55.35 79.23
  Q 55.26 78.84 55.40 78.27
  Q 55.71 76.90 54.85 75.86
  C 54.66 75.63 54.66 75.31 54.86 75.16
  Q 55.86 74.38 57.18 75.07
  Q 61.09 77.11 63.17 80.85
  Q 64.00 82.36 62.51 81.51
  Q 61.26 80.79 60.37 79.47
  Q 59.50 78.15 58.82 79.58
  Z"
/>
<path fill="#000000" d="
  M 60.34 75.57
  Q 59.77 74.77 60.49 75.44
  L 62.26 77.12
  C 62.39 77.24 62.46 77.40 62.46 77.55
  Q 62.47 77.98 61.98 77.53
  Q 61.25 76.86 60.34 75.57
  Z"
/>
<path fill="#ffffff" d="
  M 93.81 80.44
  Q 96.50 81.27 96.30 84.49
  Q 96.05 88.67 94.13 92.41
  Q 93.10 94.41 91.74 93.21
  Q 91.09 92.64 90.84 91.44
  Q 89.73 86.19 89.80 80.82
  C 89.81 80.53 90.02 80.29 90.30 80.26
  Q 92.51 80.04 93.81 80.44
  Z"
/>
<path fill="#ffffff" d="
  M 74.56 134.94
  Q 75.90 135.62 76.50 137.01
  Q 77.19 138.58 75.86 137.50
  Q 73.23 135.37 71.10 132.63
  Q 70.99 132.49 70.98 132.34
  Q 70.95 131.84 71.44 132.31
  Q 73.56 134.42 74.56 134.94
  Z"
/>
<path fill="#ffffff" d="
  M 77.45 163.29
  Q 77.93 164.47 79.49 164.25
  Q 81.27 164.01 82.57 162.77
  Q 95.53 150.47 112.11 146.59
  Q 112.51 146.50 112.89 146.55
  Q 115.94 146.96 112.83 147.64
  Q 99.97 150.41 89.88 158.86
  Q 85.62 162.43 80.98 165.48
  Q 78.51 167.10 77.10 165.64
  Q 75.98 164.47 76.51 162.64
  Q 77.04 160.82 78.61 159.55
  Q 79.03 159.21 78.95 159.75
  Q 78.72 161.29 77.66 162.46
  C 77.43 162.72 77.35 163.04 77.45 163.29
  Z"
/>
</svg>
