<?xml version="1.0" encoding="UTF-8" standalone="no"?>
<!DOCTYPE svg PUBLIC "-//W3C//DTD SVG 1.1//EN" "http://www.w3.org/Graphics/SVG/1.1/DTD/svg11.dtd">
<svg xmlns="http://www.w3.org/2000/svg" version="1.1" viewBox="0 0 512 512">
<g stroke-width="2.0" fill="none" stroke-linecap="butt">
<path stroke="#da9288" vector-effect="non-scaling-stroke" d="
  M 397.83 73.28
  C 397.83 54.02 382.22 38.41 362.96 38.41
  C 343.70 38.41 328.09 54.02 328.09 73.28
  C 328.09 92.54 343.70 108.15 362.96 108.15
  C 382.22 108.15 397.83 92.54 397.83 73.28"
/>
<path stroke="#da9288" vector-effect="non-scaling-stroke" d="
  M 208.17 160.38
  Q 186.04 143.13 163.58 126.29
  Q 160.81 124.21 157.81 123.29
  Q 151.38 121.33 143.82 120.00
  Q 142.81 119.82 141.82 120.06
  L 127.65 123.52
  Q 127.04 123.67 126.52 124.03
  Q 123.42 126.19 120.61 128.21
  Q 118.14 129.99 116.23 132.63
  Q 114.78 134.63 113.30 136.61
  Q 111.79 138.61 111.19 140.94
  Q 110.03 145.48 108.97 150.03
  Q 108.00 154.16 108.07 158.59
  Q 108.66 195.92 109.00 233.25
  Q 109.03 236.01 107.85 237.88
  Q 107.80 237.94 104.76 241.25
  Q 96.24 250.48 87.87 259.85
  Q 79.01 269.74 69.79 279.28
  Q 67.93 281.20 66.38 283.33
  Q 64.82 285.46 63.25 287.58
  Q 61.68 289.70 61.06 292.22
  Q 59.54 298.40 58.06 304.60
  Q 57.56 306.68 58.09 308.77
  Q 59.53 314.56 60.89 320.37
  Q 61.51 323.04 63.06 325.21
  Q 65.39 328.48 67.81 331.69
  Q 68.98 333.23 74.50 336.89
  Q 77.70 339.01 81.88 341.05
  Q 101.51 350.62 122.98 360.98
  Q 124.73 361.83 125.19 363.71
  Q 127.47 373.09 130.31 383.94
  Q 130.81 385.83 130.98 387.26
  Q 131.28 389.83 131.47 390.57
  Q 133.71 399.64 135.98 408.70
  Q 137.37 414.27 140.14 426.90
  Q 142.88 439.43 146.57 452.39
  Q 146.78 453.12 147.22 453.74
  Q 149.28 456.71 151.32 459.48
  Q 153.43 462.35 156.24 464.44
  Q 158.57 466.17 160.95 467.82
  Q 163.26 469.43 166.10 470.09
  Q 171.55 471.37 177.84 472.81
  Q 178.66 473.00 179.48 472.80
  Q 184.21 471.65 188.73 470.60
  Q 193.16 469.57 196.24 467.73
  Q 201.00 464.88 203.69 461.94
  Q 207.50 457.75 212.31 449.39
  Q 212.31 449.38 213.69 446.67
  Q 214.82 444.45 217.44 440.44
  Q 231.80 418.44 245.55 396.08
  C 245.85 395.59 246.44 395.36 246.99 395.50
  Q 251.23 396.57 255.48 397.54
  Q 257.23 397.94 259.50 397.53
  Q 262.53 396.97 265.56 397.38
  Q 271.10 398.12 271.50 398.15
  Q 276.28 398.46 281.75 399.25
  Q 289.52 400.37 304.25 402.00
  Q 310.01 402.64 313.36 403.51
  Q 314.74 403.87 316.31 403.88
  Q 317.84 403.89 319.34 404.18
  Q 321.93 404.68 323.74 404.71
  Q 326.72 404.76 329.63 405.34
  Q 332.17 405.84 333.79 405.88
  Q 335.90 405.95 338.02 405.95
  Q 341.04 405.97 344.26 405.16
  Q 350.32 403.65 353.50 403.00
  Q 355.97 402.49 357.85 401.11
  Q 360.34 399.27 360.42 399.22
  Q 364.62 396.55 365.69 394.94
  Q 367.36 392.41 369.17 389.99
  Q 371.04 387.48 371.79 384.92
  Q 373.45 379.30 374.45 373.54
  Q 375.06 370.04 374.42 366.47
  Q 373.45 361.07 372.02 355.78
  Q 371.25 352.90 369.41 350.30
  Q 345.37 316.36 321.11 282.58
  Q 313.88 272.51 307.22 262.12
  C 307.02 261.79 306.95 261.40 307.04 261.03
  Q 308.65 254.50 310.03 248.45
  Q 310.22 247.64 310.86 246.72
  Q 311.51 245.79 311.69 244.94
  Q 313.10 238.30 314.89 231.76
  Q 315.15 230.83 315.83 229.78
  Q 316.62 228.57 316.75 227.75
  Q 317.77 221.36 320.06 215.31
  Q 320.92 213.04 322.27 207.26
  Q 322.93 204.44 324.65 199.27
  Q 326.04 195.11 326.79 190.76
  Q 327.05 189.20 327.74 187.81
  Q 328.58 186.09 328.82 185.00
  Q 330.60 176.74 333.19 168.69
  Q 334.55 164.46 336.74 152.16
  Q 337.27 149.21 336.71 146.35
  Q 335.50 140.17 333.88 134.07
  Q 333.28 131.80 331.84 129.82
  Q 330.42 127.88 329.02 125.93
  Q 327.00 123.11 324.37 121.17
  Q 322.25 119.60 320.10 118.08
  Q 317.95 116.56 315.37 115.92
  Q 309.61 114.51 303.81 113.28
  Q 301.24 112.74 298.69 113.26
  Q 292.18 114.57 285.74 116.21
  Q 283.56 116.76 280.94 118.94
  Q 278.11 121.28 271.16 125.10
  Q 262.84 129.67 261.06 130.70
  Q 235.08 145.66 209.00 160.44
  C 208.73 160.59 208.41 160.57 208.17 160.38"
/>
<path stroke="#da9288" vector-effect="non-scaling-stroke" d="
  M 228.57 357.87
  Q 280.04 363.47 331.51 369.13
  Q 335.38 369.55 339.44 370.36
  Q 339.97 370.47 339.66 370.02
  L 268.64 269.30
  C 268.24 268.72 268.11 268.00 268.31 267.33
  L 302.12 148.84
  Q 302.62 147.09 301.37 148.42
  Q 301.08 148.73 299.92 149.40
  Q 253.31 176.09 206.68 202.75
  C 206.42 202.90 206.09 202.88 205.85 202.69
  L 143.46 155.12
  Q 143.06 154.81 143.07 155.31
  L 144.24 249.49
  C 144.25 249.82 144.13 250.13 143.91 250.37
  L 92.67 306.44
  C 92.47 306.66 92.54 307.00 92.80 307.13
  L 153.67 336.69
  C 154.25 336.97 154.67 337.49 154.82 338.12
  Q 166.17 386.01 177.50 434.50
  Q 177.73 435.50 177.75 436.78
  Q 177.76 437.43 178.11 436.88
  L 227.79 358.24
  C 227.95 357.98 228.26 357.83 228.57 357.87"
/>
</g>
<path fill="#b52511" d="
  M 240.06 0.00
  Q 256.19 0.00 272.31 0.00
  Q 275.36 0.28 278.43 0.41
  Q 282.26 0.57 284.56 0.84
  Q 340.87 7.33 387.69 35.56
  Q 465.71 82.60 497.75 169.50
  Q 510.20 203.27 512.00 240.81
  Q 512.00 256.19 512.00 271.56
  Q 511.53 283.73 509.94 294.19
  Q 502.38 343.73 476.69 387.19
  Q 436.51 455.16 363.03 489.26
  Q 319.59 509.42 271.69 512.00
  Q 255.94 512.00 240.19 512.00
  Q 226.12 511.41 212.25 508.99
  Q 168.44 501.32 129.83 479.36
  Q 58.50 438.79 23.42 364.57
  Q 2.63 320.59 0.00 271.94
  Q 0.00 256.19 0.00 240.44
  Q 0.24 237.13 0.38 233.82
  Q 0.55 229.89 0.87 227.20
  Q 8.57 161.34 46.31 107.81
  Q 74.96 67.18 117.69 39.69
  Q 166.41 8.34 225.75 1.00
  Q 228.34 0.68 240.06 0.00
  Z
  M 397.83 73.28
  C 397.83 54.02 382.22 38.41 362.96 38.41
  C 343.70 38.41 328.09 54.02 328.09 73.28
  C 328.09 92.54 343.70 108.15 362.96 108.15
  C 382.22 108.15 397.83 92.54 397.83 73.28
  Z
  M 208.17 160.38
  Q 186.04 143.13 163.58 126.29
  Q 160.81 124.21 157.81 123.29
  Q 151.38 121.33 143.82 120.00
  Q 142.81 119.82 141.82 120.06
  L 127.65 123.52
  Q 127.04 123.67 126.52 124.03
  Q 123.42 126.19 120.61 128.21
  Q 118.14 129.99 116.23 132.63
  Q 114.78 134.63 113.30 136.61
  Q 111.79 138.61 111.19 140.94
  Q 110.03 145.48 108.97 150.03
  Q 108.00 154.16 108.07 158.59
  Q 108.66 195.92 109.00 233.25
  Q 109.03 236.01 107.85 237.88
  Q 107.80 237.94 104.76 241.25
  Q 96.24 250.48 87.87 259.85
  Q 79.01 269.74 69.79 279.28
  Q 67.93 281.20 66.38 283.33
  Q 64.82 285.46 63.25 287.58
  Q 61.68 289.70 61.06 292.22
  Q 59.54 298.40 58.06 304.60
  Q 57.56 306.68 58.09 308.77
  Q 59.53 314.56 60.89 320.37
  Q 61.51 323.04 63.06 325.21
  Q 65.39 328.48 67.81 331.69
  Q 68.98 333.23 74.50 336.89
  Q 77.70 339.01 81.88 341.05
  Q 101.51 350.62 122.98 360.98
  Q 124.73 361.83 125.19 363.71
  Q 127.47 373.09 130.31 383.94
  Q 130.81 385.83 130.98 387.26
  Q 131.28 389.83 131.47 390.57
  Q 133.71 399.64 135.98 408.70
  Q 137.37 414.27 140.14 426.90
  Q 142.88 439.43 146.57 452.39
  Q 146.78 453.12 147.22 453.74
  Q 149.28 456.71 151.32 459.48
  Q 153.43 462.35 156.24 464.44
  Q 158.57 466.17 160.95 467.82
  Q 163.26 469.43 166.10 470.09
  Q 171.55 471.37 177.84 472.81
  Q 178.66 473.00 179.48 472.80
  Q 184.21 471.65 188.73 470.60
  Q 193.16 469.57 196.24 467.73
  Q 201.00 464.88 203.69 461.94
  Q 207.50 457.75 212.31 449.39
  Q 212.31 449.38 213.69 446.67
  Q 214.82 444.45 217.44 440.44
  Q 231.80 418.44 245.55 396.08
  C 245.85 395.59 246.44 395.36 246.99 395.50
  Q 251.23 396.57 255.48 397.54
  Q 257.23 397.94 259.50 397.53
  Q 262.53 396.97 265.56 397.38
  Q 271.10 398.12 271.50 398.15
  Q 276.28 398.46 281.75 399.25
  Q 289.52 400.37 304.25 402.00
  Q 310.01 402.64 313.36 403.51
  Q 314.74 403.87 316.31 403.88
  Q 317.84 403.89 319.34 404.18
  Q 321.93 404.68 323.74 404.71
  Q 326.72 404.76 329.63 405.34
  Q 332.17 405.84 333.79 405.88
  Q 335.90 405.95 338.02 405.95
  Q 341.04 405.97 344.26 405.16
  Q 350.32 403.65 353.50 403.00
  Q 355.97 402.49 357.85 401.11
  Q 360.34 399.27 360.42 399.22
  Q 364.62 396.55 365.69 394.94
  Q 367.36 392.41 369.17 389.99
  Q 371.04 387.48 371.79 384.92
  Q 373.45 379.30 374.45 373.54
  Q 375.06 370.04 374.42 366.47
  Q 373.45 361.07 372.02 355.78
  Q 371.25 352.90 369.41 350.30
  Q 345.37 316.36 321.11 282.58
  Q 313.88 272.51 307.22 262.12
  C 307.02 261.79 306.95 261.40 307.04 261.03
  Q 308.65 254.50 310.03 248.45
  Q 310.22 247.64 310.86 246.72
  Q 311.51 245.79 311.69 244.94
  Q 313.10 238.30 314.89 231.76
  Q 315.15 230.83 315.83 229.78
  Q 316.62 228.57 316.75 227.75
  Q 317.77 221.36 320.06 215.31
  Q 320.92 213.04 322.27 207.26
  Q 322.93 204.44 324.65 199.27
  Q 326.04 195.11 326.79 190.76
  Q 327.05 189.20 327.74 187.81
  Q 328.58 186.09 328.82 185.00
  Q 330.60 176.74 333.19 168.69
  Q 334.55 164.46 336.74 152.16
  Q 337.27 149.21 336.71 146.35
  Q 335.50 140.17 333.88 134.07
  Q 333.28 131.80 331.84 129.82
  Q 330.42 127.88 329.02 125.93
  Q 327.00 123.11 324.37 121.17
  Q 322.25 119.60 320.10 118.08
  Q 317.95 116.56 315.37 115.92
  Q 309.61 114.51 303.81 113.28
  Q 301.24 112.74 298.69 113.26
  Q 292.18 114.57 285.74 116.21
  Q 283.56 116.76 280.94 118.94
  Q 278.11 121.28 271.16 125.10
  Q 262.84 129.67 261.06 130.70
  Q 235.08 145.66 209.00 160.44
  C 208.73 160.59 208.41 160.57 208.17 160.38
  Z"
/>
<circle fill="#ffffff" cx="362.96" cy="73.28" r="34.87"/>
<path fill="#ffffff" d="
  M 209.00 160.44
  Q 235.08 145.66 261.06 130.70
  Q 262.84 129.67 271.16 125.10
  Q 278.11 121.28 280.94 118.94
  Q 283.56 116.76 285.74 116.21
  Q 292.18 114.57 298.69 113.26
  Q 301.24 112.74 303.81 113.28
  Q 309.61 114.51 315.37 115.92
  Q 317.95 116.56 320.10 118.08
  Q 322.25 119.60 324.37 121.17
  Q 327.00 123.11 329.02 125.93
  Q 330.42 127.88 331.84 129.82
  Q 333.28 131.80 333.88 134.07
  Q 335.50 140.17 336.71 146.35
  Q 337.27 149.21 336.74 152.16
  Q 334.55 164.46 333.19 168.69
  Q 330.60 176.74 328.82 185.00
  Q 328.58 186.09 327.74 187.81
  Q 327.05 189.20 326.79 190.76
  Q 326.04 195.11 324.65 199.27
  Q 322.93 204.44 322.27 207.26
  Q 320.92 213.04 320.06 215.31
  Q 317.77 221.36 316.75 227.75
  Q 316.62 228.57 315.83 229.78
  Q 315.15 230.83 314.89 231.76
  Q 313.10 238.30 311.69 244.94
  Q 311.51 245.79 310.86 246.72
  Q 310.22 247.64 310.03 248.45
  Q 308.65 254.50 307.04 261.03
  C 306.95 261.40 307.02 261.79 307.22 262.12
  Q 313.88 272.51 321.11 282.58
  Q 345.37 316.36 369.41 350.30
  Q 371.25 352.90 372.02 355.78
  Q 373.45 361.07 374.42 366.47
  Q 375.06 370.04 374.45 373.54
  Q 373.45 379.30 371.79 384.92
  Q 371.04 387.48 369.17 389.99
  Q 367.36 392.41 365.69 394.94
  Q 364.62 396.55 360.42 399.22
  Q 360.34 399.27 357.85 401.11
  Q 355.97 402.49 353.50 403.00
  Q 350.32 403.65 344.26 405.16
  Q 341.04 405.97 338.02 405.95
  Q 335.90 405.95 333.79 405.88
  Q 332.17 405.84 329.63 405.34
  Q 326.72 404.76 323.74 404.71
  Q 321.93 404.68 319.34 404.18
  Q 317.84 403.89 316.31 403.88
  Q 314.74 403.87 313.36 403.51
  Q 310.01 402.64 304.25 402.00
  Q 289.52 400.37 281.75 399.25
  Q 276.28 398.46 271.50 398.15
  Q 271.10 398.12 265.56 397.38
  Q 262.53 396.97 259.50 397.53
  Q 257.23 397.94 255.48 397.54
  Q 251.23 396.57 246.99 395.50
  C 246.44 395.36 245.85 395.59 245.55 396.08
  Q 231.80 418.44 217.44 440.44
  Q 214.82 444.45 213.69 446.67
  Q 212.31 449.38 212.31 449.39
  Q 207.50 457.75 203.69 461.94
  Q 201.00 464.88 196.24 467.73
  Q 193.16 469.57 188.73 470.60
  Q 184.21 471.65 179.48 472.80
  Q 178.66 473.00 177.84 472.81
  Q 171.55 471.37 166.10 470.09
  Q 163.26 469.43 160.95 467.82
  Q 158.57 466.17 156.24 464.44
  Q 153.43 462.35 151.32 459.48
  Q 149.28 456.71 147.22 453.74
  Q 146.78 453.12 146.57 452.39
  Q 142.88 439.43 140.14 426.90
  Q 137.37 414.27 135.98 408.70
  Q 133.71 399.64 131.47 390.57
  Q 131.28 389.83 130.98 387.26
  Q 130.81 385.83 130.31 383.94
  Q 127.47 373.09 125.19 363.71
  Q 124.73 361.83 122.98 360.98
  Q 101.51 350.62 81.88 341.05
  Q 77.70 339.01 74.50 336.89
  Q 68.98 333.23 67.81 331.69
  Q 65.39 328.48 63.06 325.21
  Q 61.51 323.04 60.89 320.37
  Q 59.53 314.56 58.09 308.77
  Q 57.56 306.68 58.06 304.60
  Q 59.54 298.40 61.06 292.22
  Q 61.68 289.70 63.25 287.58
  Q 64.82 285.46 66.38 283.33
  Q 67.93 281.20 69.79 279.28
  Q 79.01 269.74 87.87 259.85
  Q 96.24 250.48 104.76 241.25
  Q 107.80 237.94 107.85 237.88
  Q 109.03 236.01 109.00 233.25
  Q 108.66 195.92 108.07 158.59
  Q 108.00 154.16 108.97 150.03
  Q 110.03 145.48 111.19 140.94
  Q 111.79 138.61 113.30 136.61
  Q 114.78 134.63 116.23 132.63
  Q 118.14 129.99 120.61 128.21
  Q 123.42 126.19 126.52 124.03
  Q 127.04 123.67 127.65 123.52
  L 141.82 120.06
  Q 142.81 119.82 143.82 120.00
  Q 151.38 121.33 157.81 123.29
  Q 160.81 124.21 163.58 126.29
  Q 186.04 143.13 208.17 160.38
  C 208.41 160.57 208.73 160.59 209.00 160.44
  Z
  M 228.57 357.87
  Q 280.04 363.47 331.51 369.13
  Q 335.38 369.55 339.44 370.36
  Q 339.97 370.47 339.66 370.02
  L 268.64 269.30
  C 268.24 268.72 268.11 268.00 268.31 267.33
  L 302.12 148.84
  Q 302.62 147.09 301.37 148.42
  Q 301.08 148.73 299.92 149.40
  Q 253.31 176.09 206.68 202.75
  C 206.42 202.90 206.09 202.88 205.85 202.69
  L 143.46 155.12
  Q 143.06 154.81 143.07 155.31
  L 144.24 249.49
  C 144.25 249.82 144.13 250.13 143.91 250.37
  L 92.67 306.44
  C 92.47 306.66 92.54 307.00 92.80 307.13
  L 153.67 336.69
  C 154.25 336.97 154.67 337.49 154.82 338.12
  Q 166.17 386.01 177.50 434.50
  Q 177.73 435.50 177.75 436.78
  Q 177.76 437.43 178.11 436.88
  L 227.79 358.24
  C 227.95 357.98 228.26 357.83 228.57 357.87
  Z"
/>
<path fill="#b52511" d="
  M 227.79 358.24
  L 178.11 436.88
  Q 177.76 437.43 177.75 436.78
  Q 177.73 435.50 177.50 434.50
  Q 166.17 386.01 154.82 338.12
  C 154.67 337.49 154.25 336.97 153.67 336.69
  L 92.80 307.13
  C 92.54 307.00 92.47 306.66 92.67 306.44
  L 143.91 250.37
  C 144.13 250.13 144.25 249.82 144.24 249.49
  L 143.07 155.31
  Q 143.06 154.81 143.46 155.12
  L 205.85 202.69
  C 206.09 202.88 206.42 202.90 206.68 202.75
  Q 253.31 176.09 299.92 149.40
  Q 301.08 148.73 301.37 148.42
  Q 302.62 147.09 302.12 148.84
  L 268.31 267.33
  C 268.11 268.00 268.24 268.72 268.64 269.30
  L 339.66 370.02
  Q 339.97 370.47 339.44 370.36
  Q 335.38 369.55 331.51 369.13
  Q 280.04 363.47 228.57 357.87
  C 228.26 357.83 227.95 357.98 227.79 358.24
  Z"
/>
</svg>
