<?xml version="1.0" encoding="UTF-8" standalone="no"?>
<!DOCTYPE svg PUBLIC "-//W3C//DTD SVG 1.1//EN" "http://www.w3.org/Graphics/SVG/1.1/DTD/svg11.dtd">
<svg xmlns="http://www.w3.org/2000/svg" version="1.1" viewBox="0 0 200 200">
<g stroke-width="2.0" fill="none" stroke-linecap="butt">
<path stroke="#d9dada" vector-effect="non-scaling-stroke" d="
  M 200.00 0.56
  Q 199.01 -0.01 199.17 1.12
  Q 199.25 1.64 199.25 1.90
  Q 199.09 21.45 199.18 41.00
  Q 199.22 48.82 199.10 61.01
  Q 198.91 79.80 199.25 107.25
  Q 199.51 128.79 199.06 177.69
  Q 198.93 192.56 199.44 200.00"
/>
<path stroke="#808080" vector-effect="non-scaling-stroke" d="
  M 190.46 99.72
  C 190.46 49.75 149.96 9.25 99.99 9.25
  C 50.02 9.25 9.52 49.75 9.52 99.72
  C 9.52 149.69 50.02 190.19 99.99 190.19
  C 149.96 190.19 190.46 149.69 190.46 99.72"
/>
<path stroke="#d9dada" vector-effect="non-scaling-stroke" d="
  M 200.00 1.31
  Q 199.37 4.19 200.00 7.06"
/>
<path stroke="#d9dada" vector-effect="non-scaling-stroke" d="
  M 200.00 108.81
  Q 199.37 117.94 200.00 127.06"
/>
<path stroke="#d9dada" vector-effect="non-scaling-stroke" d="
  M 200.00 148.31
  Q 199.37 154.69 200.00 161.06"
/>
<path stroke="#808080" vector-effect="non-scaling-stroke" d="
  M 85.89 105.31
  Q 109.44 124.02 132.88 142.86
  Q 137.03 146.19 140.94 143.44
  Q 145.24 140.41 142.94 134.92
  Q 125.14 92.51 107.44 50.06
  Q 105.78 46.09 102.43 45.39
  Q 100.42 44.97 98.67 45.90
  Q 96.85 46.87 95.97 48.95
  Q 76.14 95.99 56.75 143.22
  C 56.66 143.45 56.82 143.70 57.06 143.70
  L 69.22 143.75
  C 69.61 143.75 69.96 143.51 70.12 143.13
  L 85.30 105.46
  C 85.39 105.23 85.69 105.15 85.89 105.31"
/>
<path stroke="#808080" vector-effect="non-scaling-stroke" d="
  M 90.02 94.78
  L 123.82 121.52
  Q 125.13 122.56 124.50 121.01
  L 101.96 65.39
  Q 101.56 64.42 101.18 65.39
  L 89.77 93.87
  C 89.64 94.19 89.74 94.56 90.02 94.78"
/>
</g>
<path fill="#ffffff" d="
  M 0.00 0.00
  Q 100.00 0.00 200.00 0.00
  Q 200.00 0.28 200.00 0.56
  Q 199.01 -0.01 199.17 1.12
  Q 199.25 1.64 199.25 1.90
  Q 199.09 21.45 199.18 41.00
  Q 199.22 48.82 199.10 61.01
  Q 198.91 79.80 199.25 107.25
  Q 199.51 128.79 199.06 177.69
  Q 198.93 192.56 199.44 200.00
  Q 99.72 200.00 0.00 200.00
  Q 0.00 100.00 0.00 0.00
  Z
  M 190.46 99.72
  C 190.46 49.75 149.96 9.25 99.99 9.25
  C 50.02 9.25 9.52 49.75 9.52 99.72
  C 9.52 149.69 50.02 190.19 99.99 190.19
  C 149.96 190.19 190.46 149.69 190.46 99.72
  Z"
/>
<path fill="#b3b4b5" d="
  M 200.00 0.56
  Q 200.00 0.94 200.00 1.31
  Q 199.37 4.19 200.00 7.06
  Q 200.00 57.94 200.00 108.81
  Q 199.37 117.94 200.00 127.06
  Q 200.00 137.69 200.00 148.31
  Q 199.37 154.69 200.00 161.06
  Q 200.00 180.53 200.00 200.00
  Q 199.72 200.00 199.44 200.00
  Q 198.93 192.56 199.06 177.69
  Q 199.51 128.79 199.25 107.25
  Q 198.91 79.80 199.10 61.01
  Q 199.22 48.82 199.18 41.00
  Q 199.09 21.45 199.25 1.90
  Q 199.25 1.64 199.17 1.12
  Q 199.01 -0.01 200.00 0.56
  Z"
/>
<path fill="#ffffff" d="
  M 200.00 1.31
  Q 200.00 4.19 200.00 7.06
  Q 199.37 4.19 200.00 1.31
  Z"
/>
<path fill="#000000" d="
  M 190.46 99.72
  C 190.46 149.69 149.96 190.19 99.99 190.19
  C 50.02 190.19 9.52 149.69 9.52 99.72
  C 9.52 49.75 50.02 9.25 99.99 9.25
  C 149.96 9.25 190.46 49.75 190.46 99.72
  Z
  M 85.89 105.31
  Q 109.44 124.02 132.88 142.86
  Q 137.03 146.19 140.94 143.44
  Q 145.24 140.41 142.94 134.92
  Q 125.14 92.51 107.44 50.06
  Q 105.78 46.09 102.43 45.39
  Q 100.42 44.97 98.67 45.90
  Q 96.85 46.87 95.97 48.95
  Q 76.14 95.99 56.75 143.22
  C 56.66 143.45 56.82 143.70 57.06 143.70
  L 69.22 143.75
  C 69.61 143.75 69.96 143.51 70.12 143.13
  L 85.30 105.46
  C 85.39 105.23 85.69 105.15 85.89 105.31
  Z"
/>
<path fill="#ffffff" d="
  M 85.30 105.46
  L 70.12 143.13
  C 69.96 143.51 69.61 143.75 69.22 143.75
  L 57.06 143.70
  C 56.82 143.70 56.66 143.45 56.75 143.22
  Q 76.14 95.99 95.97 48.95
  Q 96.85 46.87 98.67 45.90
  Q 100.42 44.97 102.43 45.39
  Q 105.78 46.09 107.44 50.06
  Q 125.14 92.51 142.94 134.92
  Q 145.24 140.41 140.94 143.44
  Q 137.03 146.19 132.88 142.86
  Q 109.44 124.02 85.89 105.31
  C 85.69 105.15 85.39 105.23 85.30 105.46
  Z
  M 90.02 94.78
  L 123.82 121.52
  Q 125.13 122.56 124.50 121.01
  L 101.96 65.39
  Q 101.56 64.42 101.18 65.39
  L 89.77 93.87
  C 89.64 94.19 89.74 94.56 90.02 94.78
  Z"
/>
<path fill="#000000" d="
  M 90.02 94.78
  C 89.74 94.56 89.64 94.19 89.77 93.87
  L 101.18 65.39
  Q 101.56 64.42 101.96 65.39
  L 124.50 121.01
  Q 125.13 122.56 123.82 121.52
  L 90.02 94.78
  Z"
/>
<path fill="#ffffff" d="
  M 200.00 108.81
  Q 200.00 117.94 200.00 127.06
  Q 199.37 117.94 200.00 108.81
  Z"
/>
<path fill="#ffffff" d="
  M 200.00 148.31
  Q 200.00 154.69 200.00 161.06
  Q 199.37 154.69 200.00 148.31
  Z"
/>
</svg>
