<?xml version="1.0" encoding="UTF-8" standalone="no"?>
<!DOCTYPE svg PUBLIC "-//W3C//DTD SVG 1.1//EN" "http://www.w3.org/Graphics/SVG/1.1/DTD/svg11.dtd">
<svg xmlns="http://www.w3.org/2000/svg" version="1.1" viewBox="0 0 512 512">
<g stroke-width="2.0" fill="none" stroke-linecap="butt">
<path stroke="#fb3f63" vector-effect="non-scaling-stroke" d="
  M 324.00 39.29
  Q 323.66 41.44 326.01 41.71
  Q 326.37 41.76 326.89 42.05
  L 333.09 45.50
  C 333.38 45.66 333.56 45.92 333.58 46.18
  Q 333.71 48.25 335.20 49.73
  Q 335.52 50.04 335.06 50.01
  Q 331.59 49.76 332.15 53.02
  C 332.20 53.28 332.36 53.57 332.61 53.85
  Q 334.02 55.41 332.22 56.97
  Q 330.63 58.35 328.56 58.34
  C 328.29 58.33 328.04 58.53 327.98 58.81
  Q 327.67 60.08 326.73 59.59
  C 326.50 59.47 326.23 59.58 326.22 59.80
  Q 326.18 60.47 326.61 60.93
  C 326.79 61.13 326.83 61.42 326.69 61.64
  L 325.75 63.23
  C 325.63 63.45 325.66 63.78 325.84 64.10
  Q 326.44 65.13 324.94 64.81
  Q 323.89 64.59 323.88 63.99
  Q 323.87 63.68 323.66 63.88
  Q 322.87 64.63 321.74 64.57
  C 321.47 64.55 321.18 64.68 320.95 64.91
  L 318.41 67.45
  C 318.10 67.76 317.91 68.05 317.88 68.24
  Q 317.77 69.07 318.40 69.64
  C 318.71 69.91 318.90 70.20 318.94 70.42
  Q 319.21 71.79 317.56 71.31
  Q 316.10 70.89 315.00 74.25
  Q 313.82 77.85 310.46 79.31
  Q 309.99 79.52 309.68 79.90
  Q 304.59 86.31 298.67 91.97
  C 298.46 92.17 298.34 92.47 298.31 92.81
  Q 298.23 93.76 297.59 94.19
  Q 297.13 94.50 295.87 94.28
  Q 293.27 93.83 292.18 96.29
  Q 291.98 96.74 291.63 97.09
  Q 289.98 98.69 289.78 101.01
  C 289.75 101.36 289.64 101.68 289.47 101.92
  Q 288.17 103.73 285.98 104.79
  C 285.69 104.93 285.35 104.93 285.05 104.78
  Q 282.38 103.43 282.22 106.05
  C 282.19 106.59 281.73 107.01 281.19 107.00
  Q 278.10 106.99 276.56 108.81
  Q 276.12 109.34 273.00 110.00
  Q 270.12 110.61 269.51 113.45
  Q 268.72 117.16 264.27 120.50
  Q 262.77 121.63 260.93 122.05
  Q 259.37 122.41 260.26 125.27
  Q 260.87 127.25 258.82 127.53
  Q 255.89 127.92 253.34 129.65
  C 253.10 129.81 252.95 130.11 252.92 130.44
  Q 252.64 134.13 249.12 134.53
  C 248.17 134.64 247.53 135.56 247.75 136.49
  Q 248.02 137.64 247.55 138.48
  Q 247.31 138.89 246.09 139.61
  Q 244.38 140.61 243.61 142.47
  C 243.50 142.75 243.25 142.94 242.95 142.97
  Q 240.56 143.25 240.13 145.56
  C 240.07 145.91 239.89 146.18 239.64 146.31
  Q 238.47 146.91 237.19 146.77
  C 236.80 146.72 236.46 146.76 236.24 146.88
  Q 235.27 147.40 236.07 147.99
  C 236.28 148.15 236.60 148.08 236.79 147.84
  Q 237.56 146.89 237.50 148.44
  C 237.48 149.03 237.08 149.54 236.51 149.71
  Q 231.38 151.18 229.58 153.74
  Q 228.06 155.90 228.02 155.94
  Q 226.20 157.70 223.80 158.43
  Q 220.75 159.36 220.43 159.51
  Q 218.74 160.31 217.37 161.33
  Q 215.58 162.66 216.56 164.67
  Q 217.66 166.96 215.76 169.16
  C 215.44 169.54 215.47 170.09 215.82 170.43
  Q 216.64 171.23 216.16 172.24
  Q 215.84 172.90 214.91 173.22
  Q 213.86 173.58 212.99 173.74
  C 212.07 173.90 211.57 174.91 211.99 175.74
  Q 213.32 178.36 212.69 181.21
  Q 212.59 181.64 212.38 181.22
  Q 211.73 179.87 210.12 180.69
  C 209.84 180.84 209.50 180.63 209.50 180.31
  Q 209.50 178.46 209.50 176.94
  Q 209.50 176.89 209.69 175.08
  Q 209.87 173.37 208.67 172.04
  C 208.45 171.80 208.34 171.49 208.35 171.18
  Q 208.45 168.11 206.08 166.12
  C 205.84 165.92 205.67 165.64 205.60 165.32
  Q 205.29 163.85 204.28 162.65
  C 204.08 162.42 203.71 162.48 203.60 162.76
  Q 202.91 164.52 202.44 163.70
  C 202.33 163.51 202.38 163.18 202.59 162.88
  Q 202.98 162.33 202.20 162.04
  Q 197.86 160.42 193.24 160.49
  C 192.91 160.50 192.61 160.35 192.43 160.11
  Q 191.58 158.95 191.83 157.54
  C 191.87 157.27 191.71 157.01 191.45 156.92
  Q 190.19 156.46 189.41 155.31
  Q 188.29 153.67 185.42 154.13
  C 184.96 154.20 184.52 153.98 184.30 153.58
  Q 182.62 150.52 183.59 147.25
  Q 186.06 138.88 190.99 131.73
  Q 191.04 131.66 192.12 130.35
  Q 193.99 128.09 192.25 125.46"
/>
<path stroke="#f898ad" vector-effect="non-scaling-stroke" d="
  M 192.25 125.46
  L 195.65 120.72
  Q 195.95 120.31 195.49 120.52
  Q 177.51 128.98 162.25 141.71"
/>
<path stroke="#fe9eb3" vector-effect="non-scaling-stroke" d="
  M 162.25 141.71
  Q 144.91 156.22 132.71 175.25"
/>
<path stroke="#fb9ab0" vector-effect="non-scaling-stroke" d="
  M 132.71 175.25
  Q 125.73 185.98 120.71 197.75"
/>
<path stroke="#fb3f63" vector-effect="non-scaling-stroke" d="
  M 120.71 197.75
  Q 117.44 198.32 116.56 201.57
  Q 116.11 203.24 114.45 203.73
  Q 112.83 204.20 112.70 206.68
  C 112.68 206.98 112.52 207.26 112.26 207.43
  Q 110.89 208.31 110.71 209.94
  C 110.68 210.26 110.54 210.55 110.31 210.78
  Q 109.15 211.91 107.96 214.23
  Q 107.71 214.72 107.38 215.15
  Q 105.16 218.04 103.86 221.11
  Q 102.75 223.72 101.36 225.94
  Q 99.32 229.18 98.28 232.88
  Q 97.83 234.48 96.76 236.50
  Q 95.80 238.30 95.42 240.29
  Q 94.97 242.68 94.20 244.36
  Q 92.48 248.11 92.14 252.24
  Q 91.89 255.36 91.66 256.36
  Q 91.11 258.72 90.31 260.31
  Q 88.48 263.98 88.38 267.61
  Q 88.29 270.70 87.88 272.32
  Q 86.80 276.61 86.15 280.99
  Q 86.14 281.05 86.13 283.00
  Q 86.12 283.95 85.75 285.25
  Q 85.18 287.25 85.24 294.87
  Q 85.25 295.34 85.32 296.12
  Q 85.53 298.54 84.59 297.24
  Q 84.34 296.90 84.40 297.30
  Q 84.69 299.34 83.75 302.00
  Q 82.67 305.06 83.26 308.87
  Q 83.73 311.95 83.74 312.04
  Q 84.22 316.04 84.91 320.01
  C 84.96 320.29 85.14 320.57 85.41 320.78
  Q 86.98 322.01 85.45 323.98
  Q 84.79 324.84 83.78 324.27
  C 83.43 324.07 82.98 324.24 82.86 324.63
  Q 81.74 328.28 81.96 325.17
  Q 82.18 322.14 82.83 319.18
  C 82.90 318.87 82.87 318.54 82.77 318.22
  L 80.89 312.48
  Q 80.79 312.15 80.76 312.51
  Q 80.71 313.37 80.10 313.90
  C 79.84 314.13 79.68 314.42 79.66 314.69
  Q 79.18 322.80 77.25 315.00
  Q 76.51 311.99 77.00 310.50
  Q 77.71 308.35 75.98 309.31
  C 75.75 309.44 75.63 309.73 75.68 310.05
  Q 75.80 310.99 75.13 311.68
  C 74.88 311.93 74.72 312.22 74.67 312.50
  Q 73.97 316.21 71.58 319.12
  C 71.39 319.35 71.32 319.66 71.38 319.98
  Q 71.70 321.55 70.18 321.59
  Q 68.49 321.63 68.31 321.66
  Q 65.49 322.21 63.22 323.36
  C 62.62 323.66 62.44 324.42 62.84 324.96
  Q 64.43 327.13 61.92 327.25
  C 61.26 327.29 60.64 327.59 60.20 328.08
  Q 58.16 330.38 56.06 330.35
  C 55.72 330.35 55.42 330.49 55.28 330.71
  Q 54.15 332.45 55.56 333.69
  Q 57.55 335.44 55.49 335.10
  C 55.20 335.05 54.88 335.13 54.63 335.33
  Q 53.81 335.95 52.81 335.89
  C 52.54 335.87 52.29 336.04 52.21 336.30
  Q 51.83 337.59 50.56 337.60
  C 50.29 337.61 49.99 337.71 49.70 337.91
  L 47.70 339.29
  C 47.50 339.43 47.45 339.70 47.59 339.87
  Q 48.46 340.99 47.35 341.90
  Q 47.07 342.13 46.44 342.23
  Q 45.14 342.44 44.79 343.69
  C 44.69 344.02 44.50 344.28 44.25 344.42
  Q 41.85 345.75 41.19 347.44
  Q 40.49 349.22 38.88 348.63
  Q 37.78 348.23 38.13 349.35
  Q 39.20 352.83 36.76 354.49
  C 36.57 354.62 36.31 354.50 36.28 354.27
  Q 35.19 344.40 35.51 334.75
  Q 35.52 334.25 35.31 333.88
  Q 35.00 333.33 35.00 333.01
  Q 35.00 317.50 34.88 302.00
  Q 34.85 297.98 34.86 302.25
  Q 34.91 327.75 34.54 353.25"
/>
<path stroke="#f297a5" vector-effect="non-scaling-stroke" d="
  M 114.46 215.75
  L 111.71 227.00"
/>
<path stroke="#f8455b" vector-effect="non-scaling-stroke" d="
  M 429.75 100.46
  Q 429.57 101.23 430.15 101.59
  C 430.44 101.77 430.65 101.95 430.71 102.08
  Q 430.88 102.48 430.46 102.52
  C 430.18 102.55 429.95 102.72 429.91 102.93
  Q 429.64 104.38 429.58 105.85
  Q 429.53 106.94 429.07 107.63
  Q 428.52 108.43 427.82 109.10
  C 427.61 109.30 427.29 109.39 426.96 109.33
  Q 424.82 108.98 423.73 110.81
  C 423.55 111.11 423.58 111.46 423.79 111.66
  L 425.26 113.05
  C 425.56 113.34 425.72 113.66 425.63 113.80
  Q 425.40 114.20 424.35 113.88
  C 423.85 113.73 423.31 113.91 423.02 114.34
  Q 421.86 116.00 419.81 115.32
  Q 418.94 115.02 418.52 115.09
  Q 417.78 115.22 417.30 115.76
  Q 416.85 116.26 416.86 117.50
  Q 416.88 122.24 412.06 122.44
  Q 411.04 122.48 410.78 123.19
  C 410.63 123.60 410.46 123.91 410.31 124.03
  Q 409.23 124.91 407.82 125.04
  C 407.46 125.07 407.14 125.20 406.93 125.39
  Q 404.56 127.46 403.90 130.57
  C 403.83 130.91 403.65 131.19 403.40 131.34
  Q 402.54 131.87 401.49 131.97
  C 401.28 132.00 401.04 132.19 400.85 132.48
  L 399.12 135.02
  C 398.91 135.33 398.83 135.65 398.89 135.90
  Q 399.99 140.18 396.75 140.04
  C 396.50 140.03 396.19 139.91 395.85 139.69
  Q 395.00 139.15 394.04 139.40
  C 393.75 139.47 393.61 139.79 393.77 140.01
  Q 394.03 140.36 394.50 140.46
  C 394.86 140.53 395.14 140.72 395.23 140.94
  Q 395.49 141.61 395.10 142.15
  C 394.95 142.36 394.62 142.44 394.27 142.36
  Q 392.49 141.96 392.19 143.69
  Q 391.91 145.25 390.74 145.64
  C 390.49 145.73 390.34 145.99 390.40 146.23
  Q 390.93 148.26 389.01 148.28
  C 388.68 148.28 388.36 148.37 388.10 148.55
  Q 386.28 149.73 385.21 147.70
  C 385.04 147.37 384.80 147.12 384.56 147.02
  L 379.11 144.78
  C 378.85 144.67 378.54 144.81 378.42 145.09
  Q 377.45 147.43 378.81 149.07
  Q 379.80 150.27 378.25 150.30
  Q 375.76 150.35 376.49 151.82
  Q 376.77 152.39 376.77 152.75
  Q 376.77 154.67 375.25 153.50
  Q 371.92 150.95 370.60 154.46
  C 370.48 154.78 370.18 154.96 369.94 154.87
  L 368.42 154.28
  C 368.20 154.20 367.96 154.29 367.89 154.49
  Q 367.58 155.43 366.50 155.79"
/>
<path stroke="#fba0ae" vector-effect="non-scaling-stroke" d="
  M 366.50 155.79
  Q 355.35 142.58 340.79 133.25"
/>
<path stroke="#f69ba9" vector-effect="non-scaling-stroke" d="
  M 340.79 133.25
  Q 327.98 124.73 313.56 120.34
  Q 312.72 120.09 313.24 120.80
  Q 332.09 146.31 330.26 177.99
  Q 328.89 201.57 315.53 221.97
  C 315.35 222.25 315.28 222.59 315.33 222.92
  Q 317.51 236.59 316.25 249.29"
/>
<path stroke="#e64154" vector-effect="non-scaling-stroke" d="
  M 316.25 249.29
  Q 319.06 253.54 323.83 252.50
  Q 326.53 251.92 327.24 251.87
  Q 328.99 251.75 330.74 251.70
  Q 331.16 251.69 331.60 251.55
  Q 333.61 250.93 332.25 252.46"
/>
<path stroke="#fca1af" vector-effect="non-scaling-stroke" d="
  M 332.25 252.46
  Q 320.48 259.12 307.08 261.71
  C 306.81 261.76 306.58 261.53 306.63 261.27
  Q 309.11 247.27 306.99 233.91
  Q 306.80 232.69 305.93 233.57
  Q 290.24 249.36 269.63 255.75
  Q 260.08 258.72 250.01 259.36
  Q 227.02 260.83 205.39 250.55
  Q 204.20 249.99 205.42 249.49
  Q 212.71 246.49 219.28 242.26
  C 219.70 241.99 219.67 241.37 219.23 241.14
  Q 191.13 226.65 180.46 196.75"
/>
<path stroke="#f69ba9" vector-effect="non-scaling-stroke" d="
  M 180.46 196.75
  Q 168.38 157.76 192.25 125.46"
/>
<path stroke="#e59ca1" vector-effect="non-scaling-stroke" d="
  M 352.75 280.29
  L 362.86 276.20
  C 363.24 276.04 363.67 276.29 363.70 276.69
  Q 364.82 290.12 361.80 303.30
  C 361.74 303.55 361.94 303.79 362.20 303.78
  L 370.00 303.46"
/>
<path stroke="#f2f2f2" vector-effect="non-scaling-stroke" d="
  M 370.00 303.46
  Q 371.64 303.53 370.08 303.83
  C 369.59 303.92 369.17 304.23 368.94 304.66
  Q 366.39 309.26 362.90 312.66
  Q 353.97 321.37 343.59 328.30
  Q 331.39 336.45 320.48 346.22
  Q 315.29 350.87 311.74 352.77
  Q 303.04 357.43 292.50 359.00
  Q 278.29 361.12 265.55 361.10
  Q 263.12 361.09 255.52 360.21
  Q 246.88 359.21 238.21 360.76
  Q 235.11 361.32 228.25 363.25
  Q 224.33 364.35 219.20 364.18
  Q 214.79 364.03 210.35 362.52
  Q 204.50 360.53 198.56 357.19
  Q 176.05 344.54 159.53 325.72
  Q 158.00 323.98 151.62 315.28
  Q 143.05 303.59 131.30 295.06
  Q 126.70 291.72 124.77 289.30
  Q 119.07 282.12 116.81 272.19
  Q 112.43 252.86 112.66 235.47
  Q 112.67 234.88 112.41 232.94
  Q 112.22 231.63 112.55 230.34
  Q 113.41 226.95 113.41 226.92
  Q 114.00 222.41 114.25 221.50
  Q 115.19 218.03 114.46 215.75"
/>
<path stroke="#f89dab" vector-effect="non-scaling-stroke" d="
  M 114.46 215.75
  Q 116.95 206.53 120.71 197.75"
/>
<path stroke="#f9f9f9" vector-effect="non-scaling-stroke" d="
  M 180.46 196.75
  Q 179.14 197.16 178.48 196.04
  Q 166.72 175.91 166.75 152.50
  Q 166.76 146.17 163.60 141.71
  C 163.49 141.55 163.21 141.52 162.96 141.66
  Q 162.66 141.82 162.25 141.71"
/>
<path stroke="#e99fa4" vector-effect="non-scaling-stroke" d="
  M 332.25 252.46
  Q 332.81 252.52 332.80 252.95
  Q 332.80 253.51 332.81 253.55
  Q 335.62 268.23 332.86 283.36
  C 332.83 283.53 332.97 283.69 333.14 283.68
  Q 343.10 283.14 352.75 280.29"
/>
<path stroke="#fcfcfc" vector-effect="non-scaling-stroke" d="
  M 352.75 280.29
  L 352.32 282.00
  C 352.25 282.30 352.30 282.63 352.47 282.95
  Q 353.28 284.45 355.44 287.06
  Q 359.91 292.48 360.18 299.51
  Q 360.22 300.41 359.83 301.22
  Q 358.00 305.06 355.60 307.84
  Q 354.40 309.24 349.96 313.22
  Q 343.49 319.02 336.11 323.67
  Q 331.01 326.87 326.02 330.26
  Q 323.05 332.28 319.81 335.56
  Q 315.39 340.05 309.91 343.67
  Q 304.75 347.08 298.36 348.85
  Q 290.35 351.06 282.00 351.75
  Q 267.74 352.94 253.51 351.39
  Q 245.46 350.52 240.75 351.00
  Q 235.89 351.50 225.50 354.25
  Q 216.44 356.65 207.10 352.12
  Q 180.31 339.11 162.04 315.95
  Q 160.85 314.44 156.13 307.08
  Q 150.16 297.78 141.21 291.16
  Q 141.18 291.13 138.11 289.05
  Q 128.42 282.46 125.75 271.75
  Q 115.37 230.16 130.94 188.94
  Q 131.91 186.35 132.50 183.67
  Q 132.66 182.94 133.68 180.69
  Q 134.42 179.08 133.96 177.30
  Q 133.94 177.24 133.85 176.32
  Q 133.77 175.54 132.71 175.25"
/>
<path stroke="#f34558" vector-effect="non-scaling-stroke" d="
  M 159.96 456.50
  Q 159.77 455.43 160.50 455.47
  Q 160.79 455.49 161.30 455.84
  Q 162.28 456.53 163.75 456.93
  Q 165.42 457.39 164.37 456.01
  Q 163.04 454.26 164.58 453.70
  C 164.83 453.61 165.07 453.40 165.26 453.10
  Q 165.50 452.72 165.87 452.92
  C 166.21 453.11 166.54 453.17 166.73 453.09
  Q 168.11 452.50 167.17 450.79
  Q 166.60 449.74 167.37 449.22
  C 167.51 449.13 167.73 449.18 167.87 449.35
  Q 168.11 449.62 168.31 449.36
  Q 168.77 448.78 168.81 448.74
  Q 169.85 447.75 169.14 446.34
  Q 168.44 444.95 168.84 443.48
  Q 168.97 443.00 168.94 442.50
  Q 168.85 441.08 169.94 441.10
  Q 170.29 441.10 171.46 441.68
  Q 173.35 442.61 174.46 440.75
  C 174.60 440.51 174.62 440.18 174.51 439.85
  Q 173.90 438.04 175.13 437.13
  C 175.60 436.79 176.22 436.76 176.72 437.05
  Q 178.88 438.31 180.17 437.77
  Q 181.18 437.34 182.15 435.54
  Q 182.98 433.99 182.47 432.16
  C 182.38 431.84 182.18 431.57 181.90 431.42
  L 171.70 425.72
  Q 171.23 425.45 171.00 425.06
  Q 168.49 420.87 164.00 419.25
  Q 160.72 418.07 159.23 415.22
  Q 158.99 414.77 158.95 414.24
  Q 158.85 412.90 159.19 413.22
  Q 159.40 413.41 159.48 413.98
  Q 159.84 416.23 162.02 416.77
  Q 163.72 417.19 162.20 416.32
  Q 160.21 415.18 159.58 413.06
  Q 159.48 412.72 159.34 412.47
  Q 156.75 407.96 160.24 412.12
  Q 160.87 412.87 160.56 411.95
  Q 160.06 410.41 158.83 409.76
  Q 156.37 408.46 154.62 406.33
  C 154.43 406.10 154.34 405.78 154.36 405.44
  Q 154.44 403.99 153.81 402.75
  Q 153.57 402.27 154.07 402.33
  Q 155.24 402.48 155.91 403.57
  Q 156.22 404.07 156.69 404.18
  Q 157.34 404.32 156.81 403.86
  Q 154.21 401.55 152.02 398.87
  Q 151.59 398.34 150.11 397.01
  Q 149.06 396.07 148.51 394.80
  Q 147.07 391.49 147.01 391.40
  Q 144.71 387.86 141.78 384.86
  Q 138.45 381.45 136.66 379.25
  Q 134.24 376.29 131.56 373.55
  Q 131.28 373.27 129.24 370.72
  Q 128.07 369.24 126.38 368.30
  Q 125.93 368.04 125.67 367.64
  Q 123.46 364.16 121.81 362.19
  Q 115.28 354.36 109.86 345.73
  Q 109.50 345.14 108.64 343.00
  Q 108.15 341.78 107.19 340.31
  Q 105.34 337.52 104.63 332.44
  C 104.59 332.19 104.39 331.94 104.09 331.77
  L 102.96 331.13
  C 102.77 331.02 102.54 331.12 102.52 331.31
  L 102.28 333.19
  Q 102.21 333.73 102.13 333.19
  Q 101.80 330.72 100.31 327.44
  Q 99.03 324.59 98.55 320.00
  C 98.52 319.71 98.39 319.41 98.17 319.12
  Q 97.74 318.56 97.59 317.89
  Q 97.46 317.32 97.86 316.18
  Q 98.63 314.03 97.35 312.09
  C 97.16 311.80 97.07 311.49 97.08 311.19
  Q 97.14 308.60 97.28 306.01
  Q 97.39 304.09 97.03 300.88
  Q 96.75 298.42 96.95 295.94
  Q 97.20 292.72 97.18 291.04
  Q 97.14 287.25 97.52 283.49
  Q 97.86 280.10 98.11 275.97
  Q 98.51 269.60 100.25 263.46
  Q 100.68 261.91 101.21 258.44
  Q 101.60 255.84 102.73 253.49
  Q 104.25 250.29 104.63 248.75
  Q 105.25 246.24 105.79 243.71
  Q 106.97 238.22 109.12 233.03
  C 109.20 232.83 109.47 232.67 109.81 232.61
  Q 110.17 232.56 110.33 232.17
  C 110.42 231.94 110.30 231.63 110.04 231.40
  Q 109.24 230.71 110.04 229.99
  C 110.28 229.77 110.42 229.49 110.45 229.19
  Q 110.59 227.85 111.71 227.00"
/>
<path stroke="#ed999f" vector-effect="non-scaling-stroke" d="
  M 111.71 227.00
  Q 106.40 253.90 110.71 281.00"
/>
<path stroke="#e84550" vector-effect="non-scaling-stroke" d="
  M 110.71 281.00
  Q 109.16 282.46 109.25 283.75
  Q 109.55 288.05 111.39 296.40
  Q 111.52 296.96 112.50 299.46
  Q 113.11 301.02 113.04 302.75
  C 113.02 303.08 113.09 303.40 113.25 303.69
  Q 114.71 306.40 114.54 309.50
  C 114.52 309.82 114.61 310.14 114.79 310.42
  Q 115.96 312.24 116.25 315.00
  Q 117.04 322.53 121.02 330.04
  Q 122.11 332.11 122.40 334.42
  Q 122.88 338.39 126.06 342.44
  Q 126.92 343.54 126.86 344.94
  C 126.85 345.27 126.92 345.59 127.08 345.86
  L 131.25 353.00
  Q 132.39 354.95 132.56 355.69
  Q 133.18 358.34 135.21 359.95
  Q 137.22 361.55 137.29 361.61
  Q 143.71 367.80 148.42 375.38
  C 148.58 375.65 148.83 375.87 149.14 376.01
  Q 150.64 376.72 151.61 377.98
  Q 153.25 380.11 153.85 380.63
  Q 157.01 383.36 159.74 386.55
  C 159.94 386.79 160.07 387.10 160.10 387.44
  Q 160.33 390.08 161.81 390.94
  Q 164.47 392.48 165.00 395.50
  Q 165.46 398.10 167.31 399.69
  Q 168.44 400.65 167.26 400.51
  Q 166.84 400.46 167.13 400.77
  Q 170.91 404.66 175.09 408.12
  Q 176.70 409.46 180.77 411.84
  Q 183.73 413.58 186.33 415.83
  Q 188.95 418.11 191.01 419.10
  Q 193.62 420.36 196.31 421.44
  Q 197.68 421.99 197.05 421.21
  C 196.92 421.05 196.96 420.83 197.12 420.77
  Q 197.51 420.64 197.82 420.91
  Q 198.32 421.34 198.39 421.38
  Q 200.65 422.59 203.04 421.69
  C 203.34 421.58 203.66 421.60 203.93 421.75
  Q 205.43 422.61 207.08 423.13
  Q 209.63 423.93 208.19 422.84
  Q 207.75 422.51 208.28 422.57
  Q 209.03 422.66 209.65 423.28
  C 209.99 423.62 210.47 423.81 210.95 423.78
  Q 215.53 423.59 219.23 424.35
  Q 222.96 425.11 226.75 425.02
  Q 226.85 425.02 228.22 424.80
  Q 229.41 424.61 230.39 425.41
  C 230.64 425.62 230.95 425.71 231.24 425.66
  Q 237.97 424.51 244.78 424.73
  Q 246.58 424.78 248.58 424.55
  Q 250.49 424.32 252.41 424.26
  Q 252.94 424.25 255.99 423.65
  Q 258.64 423.12 261.69 424.81
  Q 264.73 426.50 269.99 425.92
  Q 277.12 425.14 284.28 424.97
  Q 286.34 424.92 288.37 423.96
  Q 290.27 423.05 293.75 421.50
  Q 295.73 420.62 297.26 420.70
  Q 297.80 420.73 298.21 420.54
  Q 306.91 416.57 313.25 415.00
  Q 318.19 413.78 321.98 411.46
  Q 323.30 410.66 327.03 406.98
  Q 329.47 404.58 332.42 402.80
  Q 333.89 401.91 335.21 400.73
  Q 336.52 399.56 337.97 398.57
  Q 341.47 396.16 342.24 395.54
  Q 348.78 390.29 355.37 385.09
  Q 355.46 385.02 357.99 382.77
  Q 359.77 381.18 362.48 379.66
  C 362.90 379.42 363.25 379.05 363.46 378.61
  Q 365.32 374.72 368.06 372.31
  Q 370.34 370.31 375.56 361.81
  Q 378.41 357.17 379.85 353.75
  Q 381.15 350.65 382.49 348.76
  Q 386.54 343.07 387.44 340.19
  Q 388.36 337.23 389.21 335.91
  Q 389.50 335.45 389.58 335.00
  Q 390.51 329.48 394.50 325.50
  Q 395.77 324.23 397.28 320.82
  Q 398.61 317.81 399.67 315.97
  Q 402.20 311.58 402.75 310.25
  Q 403.36 308.79 403.94 308.14
  Q 404.40 307.64 404.52 307.36
  L 406.49 303.01
  C 406.60 302.77 406.89 302.68 407.10 302.83
  L 407.54 303.13
  C 407.73 303.26 408.00 303.17 408.05 302.95
  Q 408.39 301.60 408.93 300.33
  Q 410.78 295.98 410.50 291.23
  Q 410.38 289.29 412.02 288.22
  Q 414.33 286.71 412.21 284.98
  C 411.96 284.78 411.81 284.49 411.82 284.20
  Q 411.92 279.70 411.88 275.20
  Q 411.85 270.91 410.89 266.28
  Q 409.65 260.27 408.50 254.25
  Q 408.24 252.90 406.75 248.25
  Q 406.12 246.28 405.83 243.13
  Q 405.67 241.36 404.72 239.23
  Q 403.77 237.12 403.47 234.75
  Q 403.34 233.76 402.54 233.25"
/>
<path stroke="#df959a" vector-effect="non-scaling-stroke" d="
  M 370.00 303.46
  Q 379.48 302.51 388.96 299.35
  Q 389.83 299.06 389.41 299.87
  Q 371.78 334.36 338.61 353.90
  Q 330.43 358.73 321.19 362.12
  Q 320.00 362.55 321.05 363.27
  L 328.35 368.22
  Q 328.76 368.50 328.30 368.72
  Q 280.87 391.24 228.89 376.10
  Q 227.71 375.75 228.23 376.86
  Q 232.04 385.04 237.05 391.92
  Q 237.58 392.64 236.70 392.47
  Q 217.05 388.47 199.39 379.29
  Q 153.38 355.37 132.65 307.53
  Q 132.45 307.05 132.25 307.53
  Q 128.47 316.76 127.17 327.12
  Q 127.07 327.91 126.69 327.21
  Q 122.14 319.01 118.71 310.00"
/>
<path stroke="#e6979d" vector-effect="non-scaling-stroke" d="
  M 118.71 310.00
  Q 113.44 295.85 110.71 281.00"
/>
<path stroke="#f6a2a8" vector-effect="non-scaling-stroke" d="
  M 386.00 188.54
  Q 390.14 200.00 392.31 211.99
  Q 392.38 212.40 392.75 212.21"
/>
<path stroke="#f8f8f8" vector-effect="non-scaling-stroke" d="
  M 340.79 133.25
  L 339.81 133.30
  C 339.49 133.32 339.21 133.49 339.08 133.75
  Q 338.02 135.91 338.00 139.00
  Q 337.93 147.84 338.54 154.25
  Q 338.71 156.10 338.38 158.23
  Q 338.06 160.22 337.98 162.24
  Q 337.80 167.04 337.63 168.24
  Q 336.03 179.76 331.75 190.60
  Q 331.61 190.94 331.17 191.37
  Q 330.51 192.00 330.64 193.01
  C 330.69 193.37 330.65 193.69 330.52 193.94
  Q 328.07 198.63 326.94 203.19
  Q 325.82 207.70 327.39 211.84
  Q 328.38 214.45 330.95 217.04
  Q 333.39 219.50 335.94 221.06
  Q 342.95 225.35 347.19 231.72
  Q 349.46 235.14 351.12 236.61
  Q 358.39 243.01 367.73 246.05
  Q 370.68 247.01 372.19 248.56
  Q 374.56 251.02 376.59 252.70
  Q 379.43 255.05 381.91 255.23
  Q 385.27 255.48 387.91 252.67
  Q 390.77 249.62 391.75 245.25
  Q 395.20 229.80 393.31 214.50
  Q 393.26 214.09 393.45 213.54
  Q 393.81 212.46 392.75 212.21"
/>
<path stroke="#f19da3" vector-effect="non-scaling-stroke" d="
  M 392.75 212.21
  L 396.19 205.43
  Q 396.98 203.87 397.43 205.50
  Q 401.23 219.28 402.54 233.25"
/>
<path stroke="#ea9ba1" vector-effect="non-scaling-stroke" d="
  M 402.54 233.25
  Q 403.12 245.66 401.79 258.00"
/>
<path stroke="#e3999e" vector-effect="non-scaling-stroke" d="
  M 401.79 258.00
  Q 400.05 273.42 394.21 287.75"
/>
<path stroke="#de989c" vector-effect="non-scaling-stroke" d="
  M 394.21 287.75
  Q 383.16 291.50 371.50 292.21"
/>
<path stroke="#e3999e" vector-effect="non-scaling-stroke" d="
  M 371.50 292.21
  Q 373.95 277.62 371.75 263.02
  C 371.72 262.82 371.50 262.71 371.33 262.81
  Q 358.19 270.00 342.89 271.86
  C 342.54 271.91 342.24 271.60 342.29 271.25
  Q 344.45 255.58 340.31 239.76
  C 340.21 239.37 339.75 239.19 339.41 239.41
  Q 328.72 246.20 316.25 249.29"
/>
<path stroke="#cd3e47" vector-effect="non-scaling-stroke" d="
  M 371.50 292.21
  L 371.09 292.44
  C 370.87 292.57 370.75 292.87 370.78 293.21
  Q 371.14 297.09 375.75 296.75
  Q 379.50 296.48 382.16 295.78
  Q 385.90 294.80 386.91 294.50
  Q 389.01 293.86 391.50 292.50
  Q 394.22 291.01 394.69 288.62
  C 394.74 288.38 394.66 288.14 394.49 287.99
  L 394.21 287.75"
/>
<path stroke="#f54b52" vector-effect="non-scaling-stroke" d="
  M 477.54 162.50
  L 477.44 232.66
  C 477.44 232.77 477.32 232.83 477.20 232.79
  Q 477.01 232.71 476.89 232.81
  Q 476.75 232.91 476.74 233.24
  Q 476.62 237.24 476.51 241.25
  C 476.50 241.62 476.37 241.93 476.14 242.09
  Q 475.49 242.54 475.66 240.99
  Q 476.00 238.01 475.42 235.09
  Q 475.32 234.56 475.42 234.04
  Q 475.93 231.47 474.92 232.99
  C 474.83 233.12 474.66 233.15 474.51 233.08
  Q 474.33 232.99 474.18 233.03
  C 473.96 233.08 473.86 233.41 473.95 233.76
  Q 474.68 236.50 472.69 238.69
  Q 470.55 241.04 469.06 238.44
  Q 468.57 237.57 468.18 238.00
  C 467.97 238.24 467.69 238.38 467.44 238.35
  Q 466.22 238.23 466.91 239.39
  Q 467.11 239.73 467.62 240.04
  Q 468.30 240.45 468.74 241.08
  C 468.91 241.32 468.91 241.66 468.74 241.93
  Q 467.64 243.63 465.82 244.59
  Q 464.47 245.30 464.50 244.11
  Q 464.51 243.40 463.90 243.76
  Q 463.27 244.13 462.62 244.33
  Q 462.09 244.49 461.82 244.69
  Q 460.70 245.57 462.40 245.67
  Q 462.62 245.69 462.95 245.56
  Q 463.57 245.33 463.53 245.94
  C 463.52 246.16 463.33 246.45 463.03 246.72
  L 460.59 248.88
  Q 460.16 249.25 459.78 249.40
  Q 457.94 250.13 456.25 252.89
  C 456.04 253.23 455.70 253.52 455.28 253.70
  L 449.00 256.40
  C 448.30 256.70 448.06 257.57 448.49 258.23
  Q 450.32 261.00 448.25 261.23
  C 447.99 261.26 447.67 261.16 447.35 260.95
  Q 445.75 259.90 445.50 262.25
  Q 445.34 263.78 443.78 263.25
  C 443.57 263.18 443.33 263.32 443.28 263.56
  Q 443.17 264.07 442.71 264.33
  C 442.47 264.46 442.36 264.73 442.45 264.96
  Q 443.56 267.73 440.22 266.66
  C 439.94 266.57 439.63 266.65 439.41 266.86
  Q 437.93 268.31 435.93 268.03
  C 435.62 267.99 435.31 268.09 435.08 268.30
  Q 432.02 271.21 429.64 267.32
  Q 428.99 266.24 429.21 268.25"
/>
<path stroke="#f24755" vector-effect="non-scaling-stroke" d="
  M 429.21 268.25
  Q 427.38 266.57 427.80 263.63
  Q 428.06 261.88 427.16 260.34
  Q 426.08 258.47 427.37 256.07
  Q 428.77 253.49 426.60 251.35
  C 425.90 250.66 425.57 249.67 425.72 248.70
  Q 426.36 244.53 425.77 240.56
  C 425.73 240.26 425.54 239.98 425.26 239.80
  Q 423.02 238.31 422.74 235.38
  Q 422.56 233.48 420.84 232.67
  Q 419.23 231.92 419.27 228.44
  C 419.27 228.03 419.04 227.65 418.67 227.47
  Q 416.48 226.41 416.04 225.05
  C 415.94 224.73 415.70 224.50 415.44 224.46
  Q 414.42 224.31 415.00 225.23
  Q 415.92 226.68 415.25 228.06
  C 415.13 228.32 414.79 228.38 414.60 228.19
  Q 413.81 227.39 414.07 225.83
  C 414.12 225.55 414.04 225.22 413.87 224.89
  L 412.24 221.82
  Q 411.86 221.10 411.79 221.02
  L 407.96 216.99
  Q 407.43 216.43 407.25 216.32
  Q 405.14 215.02 404.06 211.94
  Q 402.73 208.13 398.26 203.30
  Q 397.52 202.51 396.94 201.56
  Q 396.36 200.62 395.73 199.72
  C 395.51 199.41 395.22 199.23 394.95 199.23
  Q 394.65 199.23 394.41 199.38
  C 394.30 199.44 394.16 199.42 394.08 199.32
  Q 388.58 192.60 386.55 188.54
  C 386.48 188.39 386.31 188.33 386.20 188.40
  L 386.00 188.54"
/>
<path stroke="#faa2aa" vector-effect="non-scaling-stroke" d="
  M 386.00 188.54
  Q 378.85 170.61 366.50 155.79"
/>
<path stroke="#f14b50" vector-effect="non-scaling-stroke" d="
  M 223.46 493.00
  Q 225.10 492.28 223.53 491.40
  Q 220.90 489.91 218.25 488.43
  Q 217.77 488.16 218.32 488.20
  Q 219.07 488.26 219.78 488.52
  Q 221.16 489.01 221.67 489.00
  Q 223.98 488.91 224.38 486.43
  C 224.43 486.13 224.57 485.83 224.79 485.58
  Q 225.53 484.71 225.60 483.51
  Q 225.69 481.82 227.15 481.36
  C 227.57 481.23 227.83 480.82 227.77 480.39
  Q 227.33 477.05 231.71 476.98
  C 232.07 476.97 232.37 476.69 232.40 476.33
  Q 232.66 472.88 234.81 472.81
  Q 236.38 472.76 235.69 470.31
  Q 235.04 468.02 237.28 468.76
  C 238.22 469.07 239.25 468.87 240.00 468.23
  Q 242.15 466.41 243.94 466.21
  C 244.32 466.16 244.64 466.05 244.83 465.89
  Q 246.61 464.36 244.49 462.74
  Q 243.50 461.99 244.60 461.78
  C 244.91 461.72 245.22 461.90 245.32 462.20
  Q 245.91 463.99 246.95 463.61
  Q 251.47 461.96 247.21 460.18
  C 246.93 460.06 246.76 459.79 246.81 459.51
  Q 247.19 457.35 249.30 455.67
  C 249.52 455.49 249.59 455.20 249.47 454.95
  Q 248.19 452.19 251.25 451.50
  Q 253.31 451.03 255.58 449.60
  Q 257.98 448.09 259.76 447.63
  Q 263.58 446.63 267.50 446.04
  Q 267.78 446.00 267.98 445.91
  Q 269.08 445.42 267.58 445.25
  Q 265.71 445.04 268.86 444.95
  C 269.17 444.94 269.46 444.80 269.66 444.55
  Q 271.02 442.83 273.27 443.37
  C 273.60 443.45 273.93 443.42 274.21 443.30
  Q 276.64 442.23 279.05 441.11
  Q 279.60 440.85 280.58 439.94
  Q 281.46 439.13 282.50 439.25
  Q 284.47 439.48 285.25 438.43
  C 285.48 438.13 285.73 437.92 285.97 437.83
  Q 289.90 436.42 284.66 437.38
  Q 284.15 437.47 283.36 437.69
  Q 280.38 438.54 277.72 438.14
  Q 276.86 438.01 277.66 437.65
  Q 279.40 436.88 280.94 437.09
  C 281.27 437.14 281.59 437.06 281.84 436.89
  Q 283.86 435.49 286.23 435.24
  Q 290.62 434.77 290.73 434.74
  Q 299.26 432.73 307.44 429.52
  Q 308.79 428.99 310.17 428.92
  Q 311.58 428.84 313.00 428.77
  C 313.32 428.76 313.62 428.63 313.87 428.41
  Q 315.71 426.78 317.98 426.02
  Q 321.44 424.87 322.28 424.35
  Q 324.47 422.99 326.40 421.28
  Q 328.80 419.16 330.49 418.24
  Q 334.45 416.07 338.61 414.30
  Q 340.58 413.45 342.21 411.79
  Q 345.60 408.31 349.31 406.31
  Q 352.00 404.87 353.21 402.64
  Q 353.47 402.17 353.86 401.91
  Q 356.32 400.28 358.64 398.46
  Q 359.70 397.63 361.15 395.84
  Q 362.46 394.21 363.81 393.31
  Q 367.29 391.01 369.13 388.36
  Q 369.58 387.73 369.53 388.48
  Q 369.51 388.73 369.66 388.52
  Q 371.44 385.97 374.13 384.32
  C 374.41 384.15 374.62 383.89 374.74 383.59
  Q 376.06 380.18 378.59 377.62
  Q 380.14 376.05 381.15 374.26
  Q 382.63 371.64 384.79 369.53
  Q 385.32 369.01 386.56 368.45
  Q 387.54 368.01 388.34 367.28
  C 388.54 367.09 388.67 366.79 388.69 366.44
  Q 388.77 365.02 389.70 364.12
  Q 391.23 362.66 391.37 362.44
  Q 392.26 361.04 392.89 359.50
  Q 393.34 358.37 394.52 356.69
  Q 395.79 354.88 395.82 352.57
  C 395.83 352.25 395.96 351.95 396.20 351.75
  Q 396.88 351.19 397.47 350.55
  Q 398.10 349.86 398.53 348.62
  Q 399.08 347.06 399.86 345.61
  Q 400.72 344.00 401.17 342.62
  Q 402.84 337.50 405.73 332.93
  Q 405.97 332.54 406.03 332.00
  Q 406.29 329.74 408.56 328.56
  Q 410.35 327.64 410.54 325.57
  C 410.57 325.18 410.69 324.85 410.86 324.66
  L 413.60 321.51
  C 413.93 321.13 414.11 320.66 414.09 320.22
  Q 413.92 316.76 416.69 315.94
  Q 417.50 315.70 418.25 313.00
  Q 419.01 310.28 419.37 312.82
  Q 419.47 313.47 419.90 313.13
  Q 420.35 312.78 420.50 311.75
  Q 421.47 305.27 424.35 296.72
  C 424.45 296.40 424.44 296.06 424.30 295.76
  Q 423.63 294.30 424.25 292.50
  Q 424.73 291.10 424.12 288.48
  C 424.05 288.18 424.09 287.85 424.23 287.56
  Q 425.11 285.80 425.26 283.87
  Q 425.43 281.52 425.95 280.79
  Q 427.06 279.23 429.20 279.38
  C 429.51 279.40 429.78 279.24 429.87 278.98
  Q 430.61 276.88 429.51 274.93
  C 429.36 274.65 429.31 274.32 429.39 274.02
  Q 430.14 271.10 429.21 268.25"
/>
<path stroke="#da414c" vector-effect="non-scaling-stroke" d="
  M 118.71 310.00
  Q 116.31 311.24 117.81 313.94
  Q 119.93 317.74 122.98 326.11
  Q 124.09 329.15 125.24 329.94
  Q 127.40 331.42 130.54 329.00
  Q 131.87 327.97 131.94 329.66
  Q 132.01 331.39 133.34 332.46
  C 133.60 332.67 133.79 332.94 133.87 333.23
  Q 134.04 333.87 134.32 334.46
  Q 134.61 335.08 135.47 335.79
  Q 137.61 337.58 138.32 340.31
  C 138.40 340.64 138.58 340.93 138.81 341.14
  Q 141.91 343.90 144.39 347.18
  Q 147.83 351.75 149.49 353.54
  Q 154.92 359.42 159.94 365.66
  Q 160.04 365.78 163.36 369.56
  Q 166.54 373.19 168.38 377.72
  C 168.49 377.99 168.72 378.23 169.03 378.39
  Q 170.20 378.98 170.44 380.26
  Q 170.55 380.81 170.81 381.14
  Q 174.34 385.61 177.30 390.46
  Q 178.85 393.01 180.84 394.49
  Q 183.27 396.29 188.06 399.69
  Q 195.01 404.61 201.29 406.07
  Q 202.01 406.24 203.58 406.03
  Q 204.96 405.85 205.94 406.56
  Q 207.45 407.67 208.90 408.05
  Q 211.70 408.79 211.98 408.90
  Q 216.16 410.55 220.76 410.28
  C 221.07 410.27 221.40 410.34 221.69 410.50
  Q 225.68 412.67 230.69 412.21
  C 231.05 412.18 231.40 412.27 231.69 412.47
  Q 235.97 415.42 240.50 414.75
  Q 244.74 414.12 245.94 414.31
  Q 249.04 414.80 251.15 414.57
  Q 254.32 414.23 254.38 414.23
  Q 262.19 414.11 270.00 414.01
  Q 270.40 414.00 270.91 414.27
  Q 271.99 414.85 273.50 414.25
  Q 275.48 413.46 279.49 413.29
  Q 279.54 413.29 282.46 412.82
  Q 284.04 412.57 285.55 413.27
  C 285.86 413.41 286.19 413.46 286.50 413.41
  Q 288.57 413.05 290.66 412.99
  Q 292.96 412.92 294.71 412.26
  Q 303.38 409.01 312.05 405.77
  Q 315.71 404.41 318.63 401.84
  C 318.86 401.63 319.17 401.51 319.50 401.50
  Q 323.06 401.38 325.15 398.60
  Q 325.43 398.22 325.90 397.99
  Q 327.36 397.28 328.81 395.31
  Q 330.89 392.49 335.10 390.75
  Q 335.56 390.56 335.87 390.18
  Q 337.53 388.17 339.66 386.65
  Q 348.73 380.20 356.49 372.24
  Q 360.10 368.54 365.56 360.56
  Q 368.87 355.73 370.10 351.36
  Q 370.43 350.19 371.59 347.50
  Q 372.44 345.54 372.34 343.31
  C 372.33 342.99 372.42 342.68 372.60 342.41
  Q 374.12 340.10 373.82 337.25
  C 373.78 336.91 373.83 336.58 373.95 336.30
  Q 375.38 333.17 376.85 330.07
  Q 377.30 329.12 378.73 327.39
  Q 379.56 326.39 380.69 324.69
  Q 381.83 322.97 382.89 321.20
  Q 383.85 319.63 385.18 317.79
  Q 388.50 313.19 389.81 309.31
  Q 390.25 308.03 390.76 307.35
  Q 391.64 306.18 391.68 306.11
  Q 396.56 296.63 398.89 286.23
  Q 398.99 285.81 399.32 285.36
  Q 400.27 284.12 400.26 282.50
  Q 400.26 280.09 400.84 277.81
  Q 401.63 274.70 401.73 273.22
  Q 402.25 265.87 402.48 258.50
  Q 402.50 257.77 401.79 258.00"
/>
</g>
<path fill="#fd3c67" d="
  M 324.00 39.29
  Q 323.66 41.44 326.01 41.71
  Q 326.37 41.76 326.89 42.05
  L 333.09 45.50
  C 333.38 45.66 333.56 45.92 333.58 46.18
  Q 333.71 48.25 335.20 49.73
  Q 335.52 50.04 335.06 50.01
  Q 331.59 49.76 332.15 53.02
  C 332.20 53.28 332.36 53.57 332.61 53.85
  Q 334.02 55.41 332.22 56.97
  Q 330.63 58.35 328.56 58.34
  C 328.29 58.33 328.04 58.53 327.98 58.81
  Q 327.67 60.08 326.73 59.59
  C 326.50 59.47 326.23 59.58 326.22 59.80
  Q 326.18 60.47 326.61 60.93
  C 326.79 61.13 326.83 61.42 326.69 61.64
  L 325.75 63.23
  C 325.63 63.45 325.66 63.78 325.84 64.10
  Q 326.44 65.13 324.94 64.81
  Q 323.89 64.59 323.88 63.99
  Q 323.87 63.68 323.66 63.88
  Q 322.87 64.63 321.74 64.57
  C 321.47 64.55 321.18 64.68 320.95 64.91
  L 318.41 67.45
  C 318.10 67.76 317.91 68.05 317.88 68.24
  Q 317.77 69.07 318.40 69.64
  C 318.71 69.91 318.90 70.20 318.94 70.42
  Q 319.21 71.79 317.56 71.31
  Q 316.10 70.89 315.00 74.25
  Q 313.82 77.85 310.46 79.31
  Q 309.99 79.52 309.68 79.90
  Q 304.59 86.31 298.67 91.97
  C 298.46 92.17 298.34 92.47 298.31 92.81
  Q 298.23 93.76 297.59 94.19
  Q 297.13 94.50 295.87 94.28
  Q 293.27 93.83 292.18 96.29
  Q 291.98 96.74 291.63 97.09
  Q 289.98 98.69 289.78 101.01
  C 289.75 101.36 289.64 101.68 289.47 101.92
  Q 288.17 103.73 285.98 104.79
  C 285.69 104.93 285.35 104.93 285.05 104.78
  Q 282.38 103.43 282.22 106.05
  C 282.19 106.59 281.73 107.01 281.19 107.00
  Q 278.10 106.99 276.56 108.81
  Q 276.12 109.34 273.00 110.00
  Q 270.12 110.61 269.51 113.45
  Q 268.72 117.16 264.27 120.50
  Q 262.77 121.63 260.93 122.05
  Q 259.37 122.41 260.26 125.27
  Q 260.87 127.25 258.82 127.53
  Q 255.89 127.92 253.34 129.65
  C 253.10 129.81 252.95 130.11 252.92 130.44
  Q 252.64 134.13 249.12 134.53
  C 248.17 134.64 247.53 135.56 247.75 136.49
  Q 248.02 137.64 247.55 138.48
  Q 247.31 138.89 246.09 139.61
  Q 244.38 140.61 243.61 142.47
  C 243.50 142.75 243.25 142.94 242.95 142.97
  Q 240.56 143.25 240.13 145.56
  C 240.07 145.91 239.89 146.18 239.64 146.31
  Q 238.47 146.91 237.19 146.77
  C 236.80 146.72 236.46 146.76 236.24 146.88
  Q 235.27 147.40 236.07 147.99
  C 236.28 148.15 236.60 148.08 236.79 147.84
  Q 237.56 146.89 237.50 148.44
  C 237.48 149.03 237.08 149.54 236.51 149.71
  Q 231.38 151.18 229.58 153.74
  Q 228.06 155.90 228.02 155.94
  Q 226.20 157.70 223.80 158.43
  Q 220.75 159.36 220.43 159.51
  Q 218.74 160.31 217.37 161.33
  Q 215.58 162.66 216.56 164.67
  Q 217.66 166.96 215.76 169.16
  C 215.44 169.54 215.47 170.09 215.82 170.43
  Q 216.64 171.23 216.16 172.24
  Q 215.84 172.90 214.91 173.22
  Q 213.86 173.58 212.99 173.74
  C 212.07 173.90 211.57 174.91 211.99 175.74
  Q 213.32 178.36 212.69 181.21
  Q 212.59 181.64 212.38 181.22
  Q 211.73 179.87 210.12 180.69
  C 209.84 180.84 209.50 180.63 209.50 180.31
  Q 209.50 178.46 209.50 176.94
  Q 209.50 176.89 209.69 175.08
  Q 209.87 173.37 208.67 172.04
  C 208.45 171.80 208.34 171.49 208.35 171.18
  Q 208.45 168.11 206.08 166.12
  C 205.84 165.92 205.67 165.64 205.60 165.32
  Q 205.29 163.85 204.28 162.65
  C 204.08 162.42 203.71 162.48 203.60 162.76
  Q 202.91 164.52 202.44 163.70
  C 202.33 163.51 202.38 163.18 202.59 162.88
  Q 202.98 162.33 202.20 162.04
  Q 197.86 160.42 193.24 160.49
  C 192.91 160.50 192.61 160.35 192.43 160.11
  Q 191.58 158.95 191.83 157.54
  C 191.87 157.27 191.71 157.01 191.45 156.92
  Q 190.19 156.46 189.41 155.31
  Q 188.29 153.67 185.42 154.13
  C 184.96 154.20 184.52 153.98 184.30 153.58
  Q 182.62 150.52 183.59 147.25
  Q 186.06 138.88 190.99 131.73
  Q 191.04 131.66 192.12 130.35
  Q 193.99 128.09 192.25 125.46
  L 195.65 120.72
  Q 195.95 120.31 195.49 120.52
  Q 177.51 128.98 162.25 141.71
  Q 144.91 156.22 132.71 175.25
  Q 125.73 185.98 120.71 197.75
  Q 117.44 198.32 116.56 201.57
  Q 116.11 203.24 114.45 203.73
  Q 112.83 204.20 112.70 206.68
  C 112.68 206.98 112.52 207.26 112.26 207.43
  Q 110.89 208.31 110.71 209.94
  C 110.68 210.26 110.54 210.55 110.31 210.78
  Q 109.15 211.91 107.96 214.23
  Q 107.71 214.72 107.38 215.15
  Q 105.16 218.04 103.86 221.11
  Q 102.75 223.72 101.36 225.94
  Q 99.32 229.18 98.28 232.88
  Q 97.83 234.48 96.76 236.50
  Q 95.80 238.30 95.42 240.29
  Q 94.97 242.68 94.20 244.36
  Q 92.48 248.11 92.14 252.24
  Q 91.89 255.36 91.66 256.36
  Q 91.11 258.72 90.31 260.31
  Q 88.48 263.98 88.38 267.61
  Q 88.29 270.70 87.88 272.32
  Q 86.80 276.61 86.15 280.99
  Q 86.14 281.05 86.13 283.00
  Q 86.12 283.95 85.75 285.25
  Q 85.18 287.25 85.24 294.87
  Q 85.25 295.34 85.32 296.12
  Q 85.53 298.54 84.59 297.24
  Q 84.34 296.90 84.40 297.30
  Q 84.69 299.34 83.75 302.00
  Q 82.67 305.06 83.26 308.87
  Q 83.73 311.95 83.74 312.04
  Q 84.22 316.04 84.91 320.01
  C 84.96 320.29 85.14 320.57 85.41 320.78
  Q 86.98 322.01 85.45 323.98
  Q 84.79 324.84 83.78 324.27
  C 83.43 324.07 82.98 324.24 82.86 324.63
  Q 81.74 328.28 81.96 325.17
  Q 82.18 322.14 82.83 319.18
  C 82.90 318.87 82.87 318.54 82.77 318.22
  L 80.89 312.48
  Q 80.79 312.15 80.76 312.51
  Q 80.71 313.37 80.10 313.90
  C 79.84 314.13 79.68 314.42 79.66 314.69
  Q 79.18 322.80 77.25 315.00
  Q 76.51 311.99 77.00 310.50
  Q 77.71 308.35 75.98 309.31
  C 75.75 309.44 75.63 309.73 75.68 310.05
  Q 75.80 310.99 75.13 311.68
  C 74.88 311.93 74.72 312.22 74.67 312.50
  Q 73.97 316.21 71.58 319.12
  C 71.39 319.35 71.32 319.66 71.38 319.98
  Q 71.70 321.55 70.18 321.59
  Q 68.49 321.63 68.31 321.66
  Q 65.49 322.21 63.22 323.36
  C 62.62 323.66 62.44 324.42 62.84 324.96
  Q 64.43 327.13 61.92 327.25
  C 61.26 327.29 60.64 327.59 60.20 328.08
  Q 58.16 330.38 56.06 330.35
  C 55.72 330.35 55.42 330.49 55.28 330.71
  Q 54.15 332.45 55.56 333.69
  Q 57.55 335.44 55.49 335.10
  C 55.20 335.05 54.88 335.13 54.63 335.33
  Q 53.81 335.95 52.81 335.89
  C 52.54 335.87 52.29 336.04 52.21 336.30
  Q 51.83 337.59 50.56 337.60
  C 50.29 337.61 49.99 337.71 49.70 337.91
  L 47.70 339.29
  C 47.50 339.43 47.45 339.70 47.59 339.87
  Q 48.46 340.99 47.35 341.90
  Q 47.07 342.13 46.44 342.23
  Q 45.14 342.44 44.79 343.69
  C 44.69 344.02 44.50 344.28 44.25 344.42
  Q 41.85 345.75 41.19 347.44
  Q 40.49 349.22 38.88 348.63
  Q 37.78 348.23 38.13 349.35
  Q 39.20 352.83 36.76 354.49
  C 36.57 354.62 36.31 354.50 36.28 354.27
  Q 35.19 344.40 35.51 334.75
  Q 35.52 334.25 35.31 333.88
  Q 35.00 333.33 35.00 333.01
  Q 35.00 317.50 34.88 302.00
  Q 34.85 297.98 34.86 302.25
  Q 34.91 327.75 34.54 353.25
  Q 34.25 343.65 34.25 321.50
  Q 34.26 210.61 34.46 162.50
  Q 34.51 148.52 36.01 142.63
  Q 39.94 127.24 53.31 117.56
  Q 54.71 116.55 62.93 111.77
  Q 138.79 67.65 214.81 23.81
  Q 228.87 15.71 235.71 12.24
  Q 253.88 3.02 272.94 10.56
  Q 276.45 11.95 283.68 16.07
  Q 303.90 27.58 324.00 39.29
  Z"
/>
<path fill="#f9425f" d="
  M 324.00 39.29
  L 429.75 100.46
  Q 429.57 101.23 430.15 101.59
  C 430.44 101.77 430.65 101.95 430.71 102.08
  Q 430.88 102.48 430.46 102.52
  C 430.18 102.55 429.95 102.72 429.91 102.93
  Q 429.64 104.38 429.58 105.85
  Q 429.53 106.94 429.07 107.63
  Q 428.52 108.43 427.82 109.10
  C 427.61 109.30 427.29 109.39 426.96 109.33
  Q 424.82 108.98 423.73 110.81
  C 423.55 111.11 423.58 111.46 423.79 111.66
  L 425.26 113.05
  C 425.56 113.34 425.72 113.66 425.63 113.80
  Q 425.40 114.20 424.35 113.88
  C 423.85 113.73 423.31 113.91 423.02 114.34
  Q 421.86 116.00 419.81 115.32
  Q 418.94 115.02 418.52 115.09
  Q 417.78 115.22 417.30 115.76
  Q 416.85 116.26 416.86 117.50
  Q 416.88 122.24 412.06 122.44
  Q 411.04 122.48 410.78 123.19
  C 410.63 123.60 410.46 123.91 410.31 124.03
  Q 409.23 124.91 407.82 125.04
  C 407.46 125.07 407.14 125.20 406.93 125.39
  Q 404.56 127.46 403.90 130.57
  C 403.83 130.91 403.65 131.19 403.40 131.34
  Q 402.54 131.87 401.49 131.97
  C 401.28 132.00 401.04 132.19 400.85 132.48
  L 399.12 135.02
  C 398.91 135.33 398.83 135.65 398.89 135.90
  Q 399.99 140.18 396.75 140.04
  C 396.50 140.03 396.19 139.91 395.85 139.69
  Q 395.00 139.15 394.04 139.40
  C 393.75 139.47 393.61 139.79 393.77 140.01
  Q 394.03 140.36 394.50 140.46
  C 394.86 140.53 395.14 140.72 395.23 140.94
  Q 395.49 141.61 395.10 142.15
  C 394.95 142.36 394.62 142.44 394.27 142.36
  Q 392.49 141.96 392.19 143.69
  Q 391.91 145.25 390.74 145.64
  C 390.49 145.73 390.34 145.99 390.40 146.23
  Q 390.93 148.26 389.01 148.28
  C 388.68 148.28 388.36 148.37 388.10 148.55
  Q 386.28 149.73 385.21 147.70
  C 385.04 147.37 384.80 147.12 384.56 147.02
  L 379.11 144.78
  C 378.85 144.67 378.54 144.81 378.42 145.09
  Q 377.45 147.43 378.81 149.07
  Q 379.80 150.27 378.25 150.30
  Q 375.76 150.35 376.49 151.82
  Q 376.77 152.39 376.77 152.75
  Q 376.77 154.67 375.25 153.50
  Q 371.92 150.95 370.60 154.46
  C 370.48 154.78 370.18 154.96 369.94 154.87
  L 368.42 154.28
  C 368.20 154.20 367.96 154.29 367.89 154.49
  Q 367.58 155.43 366.50 155.79
  Q 355.35 142.58 340.79 133.25
  Q 327.98 124.73 313.56 120.34
  Q 312.72 120.09 313.24 120.80
  Q 332.09 146.31 330.26 177.99
  Q 328.89 201.57 315.53 221.97
  C 315.35 222.25 315.28 222.59 315.33 222.92
  Q 317.51 236.59 316.25 249.29
  Q 319.06 253.54 323.83 252.50
  Q 326.53 251.92 327.24 251.87
  Q 328.99 251.75 330.74 251.70
  Q 331.16 251.69 331.60 251.55
  Q 333.61 250.93 332.25 252.46
  Q 320.48 259.12 307.08 261.71
  C 306.81 261.76 306.58 261.53 306.63 261.27
  Q 309.11 247.27 306.99 233.91
  Q 306.80 232.69 305.93 233.57
  Q 290.24 249.36 269.63 255.75
  Q 260.08 258.72 250.01 259.36
  Q 227.02 260.83 205.39 250.55
  Q 204.20 249.99 205.42 249.49
  Q 212.71 246.49 219.28 242.26
  C 219.70 241.99 219.67 241.37 219.23 241.14
  Q 191.13 226.65 180.46 196.75
  Q 168.38 157.76 192.25 125.46
  Q 193.99 128.09 192.12 130.35
  Q 191.04 131.66 190.99 131.73
  Q 186.06 138.88 183.59 147.25
  Q 182.62 150.52 184.30 153.58
  C 184.52 153.98 184.96 154.20 185.42 154.13
  Q 188.29 153.67 189.41 155.31
  Q 190.19 156.46 191.45 156.92
  C 191.71 157.01 191.87 157.27 191.83 157.54
  Q 191.58 158.95 192.43 160.11
  C 192.61 160.35 192.91 160.50 193.24 160.49
  Q 197.86 160.42 202.20 162.04
  Q 202.98 162.33 202.59 162.88
  C 202.38 163.18 202.33 163.51 202.44 163.70
  Q 202.91 164.52 203.60 162.76
  C 203.71 162.48 204.08 162.42 204.28 162.65
  Q 205.29 163.85 205.60 165.32
  C 205.67 165.64 205.84 165.92 206.08 166.12
  Q 208.45 168.11 208.35 171.18
  C 208.34 171.49 208.45 171.80 208.67 172.04
  Q 209.87 173.37 209.69 175.08
  Q 209.50 176.89 209.50 176.94
  Q 209.50 178.46 209.50 180.31
  C 209.50 180.63 209.84 180.84 210.12 180.69
  Q 211.73 179.87 212.38 181.22
  Q 212.59 181.64 212.69 181.21
  Q 213.32 178.36 211.99 175.74
  C 211.57 174.91 212.07 173.90 212.99 173.74
  Q 213.86 173.58 214.91 173.22
  Q 215.84 172.90 216.16 172.24
  Q 216.64 171.23 215.82 170.43
  C 215.47 170.09 215.44 169.54 215.76 169.16
  Q 217.66 166.96 216.56 164.67
  Q 215.58 162.66 217.37 161.33
  Q 218.74 160.31 220.43 159.51
  Q 220.75 159.36 223.80 158.43
  Q 226.20 157.70 228.02 155.94
  Q 228.06 155.90 229.58 153.74
  Q 231.38 151.18 236.51 149.71
  C 237.08 149.54 237.48 149.03 237.50 148.44
  Q 237.56 146.89 236.79 147.84
  C 236.60 148.08 236.28 148.15 236.07 147.99
  Q 235.27 147.40 236.24 146.88
  C 236.46 146.76 236.80 146.72 237.19 146.77
  Q 238.47 146.91 239.64 146.31
  C 239.89 146.18 240.07 145.91 240.13 145.56
  Q 240.56 143.25 242.95 142.97
  C 243.25 142.94 243.50 142.75 243.61 142.47
  Q 244.38 140.61 246.09 139.61
  Q 247.31 138.89 247.55 138.48
  Q 248.02 137.64 247.75 136.49
  C 247.53 135.56 248.17 134.64 249.12 134.53
  Q 252.64 134.13 252.92 130.44
  C 252.95 130.11 253.10 129.81 253.34 129.65
  Q 255.89 127.92 258.82 127.53
  Q 260.87 127.25 260.26 125.27
  Q 259.37 122.41 260.93 122.05
  Q 262.77 121.63 264.27 120.50
  Q 268.72 117.16 269.51 113.45
  Q 270.12 110.61 273.00 110.00
  Q 276.12 109.34 276.56 108.81
  Q 278.10 106.99 281.19 107.00
  C 281.73 107.01 282.19 106.59 282.22 106.05
  Q 282.38 103.43 285.05 104.78
  C 285.35 104.93 285.69 104.93 285.98 104.79
  Q 288.17 103.73 289.47 101.92
  C 289.64 101.68 289.75 101.36 289.78 101.01
  Q 289.98 98.69 291.63 97.09
  Q 291.98 96.74 292.18 96.29
  Q 293.27 93.83 295.87 94.28
  Q 297.13 94.50 297.59 94.19
  Q 298.23 93.76 298.31 92.81
  C 298.34 92.47 298.46 92.17 298.67 91.97
  Q 304.59 86.31 309.68 79.90
  Q 309.99 79.52 310.46 79.31
  Q 313.82 77.85 315.00 74.25
  Q 316.10 70.89 317.56 71.31
  Q 319.21 71.79 318.94 70.42
  C 318.90 70.20 318.71 69.91 318.40 69.64
  Q 317.77 69.07 317.88 68.24
  C 317.91 68.05 318.10 67.76 318.41 67.45
  L 320.95 64.91
  C 321.18 64.68 321.47 64.55 321.74 64.57
  Q 322.87 64.63 323.66 63.88
  Q 323.87 63.68 323.88 63.99
  Q 323.89 64.59 324.94 64.81
  Q 326.44 65.13 325.84 64.10
  C 325.66 63.78 325.63 63.45 325.75 63.23
  L 326.69 61.64
  C 326.83 61.42 326.79 61.13 326.61 60.93
  Q 326.18 60.47 326.22 59.80
  C 326.23 59.58 326.50 59.47 326.73 59.59
  Q 327.67 60.08 327.98 58.81
  C 328.04 58.53 328.29 58.33 328.56 58.34
  Q 330.63 58.35 332.22 56.97
  Q 334.02 55.41 332.61 53.85
  C 332.36 53.57 332.20 53.28 332.15 53.02
  Q 331.59 49.76 335.06 50.01
  Q 335.52 50.04 335.20 49.73
  Q 333.71 48.25 333.58 46.18
  C 333.56 45.92 333.38 45.66 333.09 45.50
  L 326.89 42.05
  Q 326.37 41.76 326.01 41.71
  Q 323.66 41.44 324.00 39.29
  Z"
/>
<path fill="#f64757" d="
  M 429.75 100.46
  Q 441.91 106.99 453.54 114.40
  Q 462.69 120.22 466.80 125.02
  Q 475.67 135.36 477.25 149.75
  Q 477.62 153.11 477.54 162.50
  L 477.44 232.66
  C 477.44 232.77 477.32 232.83 477.20 232.79
  Q 477.01 232.71 476.89 232.81
  Q 476.75 232.91 476.74 233.24
  Q 476.62 237.24 476.51 241.25
  C 476.50 241.62 476.37 241.93 476.14 242.09
  Q 475.49 242.54 475.66 240.99
  Q 476.00 238.01 475.42 235.09
  Q 475.32 234.56 475.42 234.04
  Q 475.93 231.47 474.92 232.99
  C 474.83 233.12 474.66 233.15 474.51 233.08
  Q 474.33 232.99 474.18 233.03
  C 473.96 233.08 473.86 233.41 473.95 233.76
  Q 474.68 236.50 472.69 238.69
  Q 470.55 241.04 469.06 238.44
  Q 468.57 237.57 468.18 238.00
  C 467.97 238.24 467.69 238.38 467.44 238.35
  Q 466.22 238.23 466.91 239.39
  Q 467.11 239.73 467.62 240.04
  Q 468.30 240.45 468.74 241.08
  C 468.91 241.32 468.91 241.66 468.74 241.93
  Q 467.64 243.63 465.82 244.59
  Q 464.47 245.30 464.50 244.11
  Q 464.51 243.40 463.90 243.76
  Q 463.27 244.13 462.62 244.33
  Q 462.09 244.49 461.82 244.69
  Q 460.70 245.57 462.40 245.67
  Q 462.62 245.69 462.95 245.56
  Q 463.57 245.33 463.53 245.94
  C 463.52 246.16 463.33 246.45 463.03 246.72
  L 460.59 248.88
  Q 460.16 249.25 459.78 249.40
  Q 457.94 250.13 456.25 252.89
  C 456.04 253.23 455.70 253.52 455.28 253.70
  L 449.00 256.40
  C 448.30 256.70 448.06 257.57 448.49 258.23
  Q 450.32 261.00 448.25 261.23
  C 447.99 261.26 447.67 261.16 447.35 260.95
  Q 445.75 259.90 445.50 262.25
  Q 445.34 263.78 443.78 263.25
  C 443.57 263.18 443.33 263.32 443.28 263.56
  Q 443.17 264.07 442.71 264.33
  C 442.47 264.46 442.36 264.73 442.45 264.96
  Q 443.56 267.73 440.22 266.66
  C 439.94 266.57 439.63 266.65 439.41 266.86
  Q 437.93 268.31 435.93 268.03
  C 435.62 267.99 435.31 268.09 435.08 268.30
  Q 432.02 271.21 429.64 267.32
  Q 428.99 266.24 429.21 268.25
  Q 427.38 266.57 427.80 263.63
  Q 428.06 261.88 427.16 260.34
  Q 426.08 258.47 427.37 256.07
  Q 428.77 253.49 426.60 251.35
  C 425.90 250.66 425.57 249.67 425.72 248.70
  Q 426.36 244.53 425.77 240.56
  C 425.73 240.26 425.54 239.98 425.26 239.80
  Q 423.02 238.31 422.74 235.38
  Q 422.56 233.48 420.84 232.67
  Q 419.23 231.92 419.27 228.44
  C 419.27 228.03 419.04 227.65 418.67 227.47
  Q 416.48 226.41 416.04 225.05
  C 415.94 224.73 415.70 224.50 415.44 224.46
  Q 414.42 224.31 415.00 225.23
  Q 415.92 226.68 415.25 228.06
  C 415.13 228.32 414.79 228.38 414.60 228.19
  Q 413.81 227.39 414.07 225.83
  C 414.12 225.55 414.04 225.22 413.87 224.89
  L 412.24 221.82
  Q 411.86 221.10 411.79 221.02
  L 407.96 216.99
  Q 407.43 216.43 407.25 216.32
  Q 405.14 215.02 404.06 211.94
  Q 402.73 208.13 398.26 203.30
  Q 397.52 202.51 396.94 201.56
  Q 396.36 200.62 395.73 199.72
  C 395.51 199.41 395.22 199.23 394.95 199.23
  Q 394.65 199.23 394.41 199.38
  C 394.30 199.44 394.16 199.42 394.08 199.32
  Q 388.58 192.60 386.55 188.54
  C 386.48 188.39 386.31 188.33 386.20 188.40
  L 386.00 188.54
  Q 378.85 170.61 366.50 155.79
  Q 367.58 155.43 367.89 154.49
  C 367.96 154.29 368.20 154.20 368.42 154.28
  L 369.94 154.87
  C 370.18 154.96 370.48 154.78 370.60 154.46
  Q 371.92 150.95 375.25 153.50
  Q 376.77 154.67 376.77 152.75
  Q 376.77 152.39 376.49 151.82
  Q 375.76 150.35 378.25 150.30
  Q 379.80 150.27 378.81 149.07
  Q 377.45 147.43 378.42 145.09
  C 378.54 144.81 378.85 144.67 379.11 144.78
  L 384.56 147.02
  C 384.80 147.12 385.04 147.37 385.21 147.70
  Q 386.28 149.73 388.10 148.55
  C 388.36 148.37 388.68 148.28 389.01 148.28
  Q 390.93 148.26 390.40 146.23
  C 390.34 145.99 390.49 145.73 390.74 145.64
  Q 391.91 145.25 392.19 143.69
  Q 392.49 141.96 394.27 142.36
  C 394.62 142.44 394.95 142.36 395.10 142.15
  Q 395.49 141.61 395.23 140.94
  C 395.14 140.72 394.86 140.53 394.50 140.46
  Q 394.03 140.36 393.77 140.01
  C 393.61 139.79 393.75 139.47 394.04 139.40
  Q 395.00 139.15 395.85 139.69
  C 396.19 139.91 396.50 140.03 396.75 140.04
  Q 399.99 140.18 398.89 135.90
  C 398.83 135.65 398.91 135.33 399.12 135.02
  L 400.85 132.48
  C 401.04 132.19 401.28 132.00 401.49 131.97
  Q 402.54 131.87 403.40 131.34
  C 403.65 131.19 403.83 130.91 403.90 130.57
  Q 404.56 127.46 406.93 125.39
  C 407.14 125.20 407.46 125.07 407.82 125.04
  Q 409.23 124.91 410.31 124.03
  C 410.46 123.91 410.63 123.60 410.78 123.19
  Q 411.04 122.48 412.06 122.44
  Q 416.88 122.24 416.86 117.50
  Q 416.85 116.26 417.30 115.76
  Q 417.78 115.22 418.52 115.09
  Q 418.94 115.02 419.81 115.32
  Q 421.86 116.00 423.02 114.34
  C 423.31 113.91 423.85 113.73 424.35 113.88
  Q 425.40 114.20 425.63 113.80
  C 425.72 113.66 425.56 113.34 425.26 113.05
  L 423.79 111.66
  C 423.58 111.46 423.55 111.11 423.73 110.81
  Q 424.82 108.98 426.96 109.33
  C 427.29 109.39 427.61 109.30 427.82 109.10
  Q 428.52 108.43 429.07 107.63
  Q 429.53 106.94 429.58 105.85
  Q 429.64 104.38 429.91 102.93
  C 429.95 102.72 430.18 102.55 430.46 102.52
  Q 430.88 102.48 430.71 102.08
  C 430.65 101.95 430.44 101.77 430.15 101.59
  Q 429.57 101.23 429.75 100.46
  Z"
/>
<path fill="#f3f3f3" d="
  M 192.25 125.46
  Q 168.38 157.76 180.46 196.75
  Q 179.14 197.16 178.48 196.04
  Q 166.72 175.91 166.75 152.50
  Q 166.76 146.17 163.60 141.71
  C 163.49 141.55 163.21 141.52 162.96 141.66
  Q 162.66 141.82 162.25 141.71
  Q 177.51 128.98 195.49 120.52
  Q 195.95 120.31 195.65 120.72
  L 192.25 125.46
  Z"
/>
<path fill="#f3f3f3" d="
  M 340.79 133.25
  L 339.81 133.30
  C 339.49 133.32 339.21 133.49 339.08 133.75
  Q 338.02 135.91 338.00 139.00
  Q 337.93 147.84 338.54 154.25
  Q 338.71 156.10 338.38 158.23
  Q 338.06 160.22 337.98 162.24
  Q 337.80 167.04 337.63 168.24
  Q 336.03 179.76 331.75 190.60
  Q 331.61 190.94 331.17 191.37
  Q 330.51 192.00 330.64 193.01
  C 330.69 193.37 330.65 193.69 330.52 193.94
  Q 328.07 198.63 326.94 203.19
  Q 325.82 207.70 327.39 211.84
  Q 328.38 214.45 330.95 217.04
  Q 333.39 219.50 335.94 221.06
  Q 342.95 225.35 347.19 231.72
  Q 349.46 235.14 351.12 236.61
  Q 358.39 243.01 367.73 246.05
  Q 370.68 247.01 372.19 248.56
  Q 374.56 251.02 376.59 252.70
  Q 379.43 255.05 381.91 255.23
  Q 385.27 255.48 387.91 252.67
  Q 390.77 249.62 391.75 245.25
  Q 395.20 229.80 393.31 214.50
  Q 393.26 214.09 393.45 213.54
  Q 393.81 212.46 392.75 212.21
  L 396.19 205.43
  Q 396.98 203.87 397.43 205.50
  Q 401.23 219.28 402.54 233.25
  Q 403.12 245.66 401.79 258.00
  Q 400.05 273.42 394.21 287.75
  Q 383.16 291.50 371.50 292.21
  Q 373.95 277.62 371.75 263.02
  C 371.72 262.82 371.50 262.71 371.33 262.81
  Q 358.19 270.00 342.89 271.86
  C 342.54 271.91 342.24 271.60 342.29 271.25
  Q 344.45 255.58 340.31 239.76
  C 340.21 239.37 339.75 239.19 339.41 239.41
  Q 328.72 246.20 316.25 249.29
  Q 317.51 236.59 315.33 222.92
  C 315.28 222.59 315.35 222.25 315.53 221.97
  Q 328.89 201.57 330.26 177.99
  Q 332.09 146.31 313.24 120.80
  Q 312.72 120.09 313.56 120.34
  Q 327.98 124.73 340.79 133.25
  Z"
/>
<path fill="#fdfdfd" d="
  M 340.79 133.25
  Q 355.35 142.58 366.50 155.79
  Q 378.85 170.61 386.00 188.54
  Q 390.14 200.00 392.31 211.99
  Q 392.38 212.40 392.75 212.21
  Q 393.81 212.46 393.45 213.54
  Q 393.26 214.09 393.31 214.50
  Q 395.20 229.80 391.75 245.25
  Q 390.77 249.62 387.91 252.67
  Q 385.27 255.48 381.91 255.23
  Q 379.43 255.05 376.59 252.70
  Q 374.56 251.02 372.19 248.56
  Q 370.68 247.01 367.73 246.05
  Q 358.39 243.01 351.12 236.61
  Q 349.46 235.14 347.19 231.72
  Q 342.95 225.35 335.94 221.06
  Q 333.39 219.50 330.95 217.04
  Q 328.38 214.45 327.39 211.84
  Q 325.82 207.70 326.94 203.19
  Q 328.07 198.63 330.52 193.94
  C 330.65 193.69 330.69 193.37 330.64 193.01
  Q 330.51 192.00 331.17 191.37
  Q 331.61 190.94 331.75 190.60
  Q 336.03 179.76 337.63 168.24
  Q 337.80 167.04 337.98 162.24
  Q 338.06 160.22 338.38 158.23
  Q 338.71 156.10 338.54 154.25
  Q 337.93 147.84 338.00 139.00
  Q 338.02 135.91 339.08 133.75
  C 339.21 133.49 339.49 133.32 339.81 133.30
  L 340.79 133.25
  Z"
/>
<path fill="#ffffff" d="
  M 180.46 196.75
  Q 191.13 226.65 219.23 241.14
  C 219.67 241.37 219.70 241.99 219.28 242.26
  Q 212.71 246.49 205.42 249.49
  Q 204.20 249.99 205.39 250.55
  Q 227.02 260.83 250.01 259.36
  Q 260.08 258.72 269.63 255.75
  Q 290.24 249.36 305.93 233.57
  Q 306.80 232.69 306.99 233.91
  Q 309.11 247.27 306.63 261.27
  C 306.58 261.53 306.81 261.76 307.08 261.71
  Q 320.48 259.12 332.25 252.46
  Q 332.81 252.52 332.80 252.95
  Q 332.80 253.51 332.81 253.55
  Q 335.62 268.23 332.86 283.36
  C 332.83 283.53 332.97 283.69 333.14 283.68
  Q 343.10 283.14 352.75 280.29
  L 352.32 282.00
  C 352.25 282.30 352.30 282.63 352.47 282.95
  Q 353.28 284.45 355.44 287.06
  Q 359.91 292.48 360.18 299.51
  Q 360.22 300.41 359.83 301.22
  Q 358.00 305.06 355.60 307.84
  Q 354.40 309.24 349.96 313.22
  Q 343.49 319.02 336.11 323.67
  Q 331.01 326.87 326.02 330.26
  Q 323.05 332.28 319.81 335.56
  Q 315.39 340.05 309.91 343.67
  Q 304.75 347.08 298.36 348.85
  Q 290.35 351.06 282.00 351.75
  Q 267.74 352.94 253.51 351.39
  Q 245.46 350.52 240.75 351.00
  Q 235.89 351.50 225.50 354.25
  Q 216.44 356.65 207.10 352.12
  Q 180.31 339.11 162.04 315.95
  Q 160.85 314.44 156.13 307.08
  Q 150.16 297.78 141.21 291.16
  Q 141.18 291.13 138.11 289.05
  Q 128.42 282.46 125.75 271.75
  Q 115.37 230.16 130.94 188.94
  Q 131.91 186.35 132.50 183.67
  Q 132.66 182.94 133.68 180.69
  Q 134.42 179.08 133.96 177.30
  Q 133.94 177.24 133.85 176.32
  Q 133.77 175.54 132.71 175.25
  Q 144.91 156.22 162.25 141.71
  Q 162.66 141.82 162.96 141.66
  C 163.21 141.52 163.49 141.55 163.60 141.71
  Q 166.76 146.17 166.75 152.50
  Q 166.72 175.91 178.48 196.04
  Q 179.14 197.16 180.46 196.75
  Z"
/>
<path fill="#f44f4d" d="
  M 477.54 162.50
  Q 478.06 255.13 477.56 347.75
  Q 477.48 362.44 476.35 367.68
  Q 472.56 385.25 456.54 395.78
  Q 451.83 398.88 446.95 401.70
  Q 372.12 445.03 297.19 488.19
  Q 284.31 495.60 279.18 498.52
  Q 258.17 510.43 236.31 500.19
  Q 230.27 497.36 223.46 493.00
  Q 225.10 492.28 223.53 491.40
  Q 220.90 489.91 218.25 488.43
  Q 217.77 488.16 218.32 488.20
  Q 219.07 488.26 219.78 488.52
  Q 221.16 489.01 221.67 489.00
  Q 223.98 488.91 224.38 486.43
  C 224.43 486.13 224.57 485.83 224.79 485.58
  Q 225.53 484.71 225.60 483.51
  Q 225.69 481.82 227.15 481.36
  C 227.57 481.23 227.83 480.82 227.77 480.39
  Q 227.33 477.05 231.71 476.98
  C 232.07 476.97 232.37 476.69 232.40 476.33
  Q 232.66 472.88 234.81 472.81
  Q 236.38 472.76 235.69 470.31
  Q 235.04 468.02 237.28 468.76
  C 238.22 469.07 239.25 468.87 240.00 468.23
  Q 242.15 466.41 243.94 466.21
  C 244.32 466.16 244.64 466.05 244.83 465.89
  Q 246.61 464.36 244.49 462.74
  Q 243.50 461.99 244.60 461.78
  C 244.91 461.72 245.22 461.90 245.32 462.20
  Q 245.91 463.99 246.95 463.61
  Q 251.47 461.96 247.21 460.18
  C 246.93 460.06 246.76 459.79 246.81 459.51
  Q 247.19 457.35 249.30 455.67
  C 249.52 455.49 249.59 455.20 249.47 454.95
  Q 248.19 452.19 251.25 451.50
  Q 253.31 451.03 255.58 449.60
  Q 257.98 448.09 259.76 447.63
  Q 263.58 446.63 267.50 446.04
  Q 267.78 446.00 267.98 445.91
  Q 269.08 445.42 267.58 445.25
  Q 265.71 445.04 268.86 444.95
  C 269.17 444.94 269.46 444.80 269.66 444.55
  Q 271.02 442.83 273.27 443.37
  C 273.60 443.45 273.93 443.42 274.21 443.30
  Q 276.64 442.23 279.05 441.11
  Q 279.60 440.85 280.58 439.94
  Q 281.46 439.13 282.50 439.25
  Q 284.47 439.48 285.25 438.43
  C 285.48 438.13 285.73 437.92 285.97 437.83
  Q 289.90 436.42 284.66 437.38
  Q 284.15 437.47 283.36 437.69
  Q 280.38 438.54 277.72 438.14
  Q 276.86 438.01 277.66 437.65
  Q 279.40 436.88 280.94 437.09
  C 281.27 437.14 281.59 437.06 281.84 436.89
  Q 283.86 435.49 286.23 435.24
  Q 290.62 434.77 290.73 434.74
  Q 299.26 432.73 307.44 429.52
  Q 308.79 428.99 310.17 428.92
  Q 311.58 428.84 313.00 428.77
  C 313.32 428.76 313.62 428.63 313.87 428.41
  Q 315.71 426.78 317.98 426.02
  Q 321.44 424.87 322.28 424.35
  Q 324.47 422.99 326.40 421.28
  Q 328.80 419.16 330.49 418.24
  Q 334.45 416.07 338.61 414.30
  Q 340.58 413.45 342.21 411.79
  Q 345.60 408.31 349.31 406.31
  Q 352.00 404.87 353.21 402.64
  Q 353.47 402.17 353.86 401.91
  Q 356.32 400.28 358.64 398.46
  Q 359.70 397.63 361.15 395.84
  Q 362.46 394.21 363.81 393.31
  Q 367.29 391.01 369.13 388.36
  Q 369.58 387.73 369.53 388.48
  Q 369.51 388.73 369.66 388.52
  Q 371.44 385.97 374.13 384.32
  C 374.41 384.15 374.62 383.89 374.74 383.59
  Q 376.06 380.18 378.59 377.62
  Q 380.14 376.05 381.15 374.26
  Q 382.63 371.64 384.79 369.53
  Q 385.32 369.01 386.56 368.45
  Q 387.54 368.01 388.34 367.28
  C 388.54 367.09 388.67 366.79 388.69 366.44
  Q 388.77 365.02 389.70 364.12
  Q 391.23 362.66 391.37 362.44
  Q 392.26 361.04 392.89 359.50
  Q 393.34 358.37 394.52 356.69
  Q 395.79 354.88 395.82 352.57
  C 395.83 352.25 395.96 351.95 396.20 351.75
  Q 396.88 351.19 397.47 350.55
  Q 398.10 349.86 398.53 348.62
  Q 399.08 347.06 399.86 345.61
  Q 400.72 344.00 401.17 342.62
  Q 402.84 337.50 405.73 332.93
  Q 405.97 332.54 406.03 332.00
  Q 406.29 329.74 408.56 328.56
  Q 410.35 327.64 410.54 325.57
  C 410.57 325.18 410.69 324.85 410.86 324.66
  L 413.60 321.51
  C 413.93 321.13 414.11 320.66 414.09 320.22
  Q 413.92 316.76 416.69 315.94
  Q 417.50 315.70 418.25 313.00
  Q 419.01 310.28 419.37 312.82
  Q 419.47 313.47 419.90 313.13
  Q 420.35 312.78 420.50 311.75
  Q 421.47 305.27 424.35 296.72
  C 424.45 296.40 424.44 296.06 424.30 295.76
  Q 423.63 294.30 424.25 292.50
  Q 424.73 291.10 424.12 288.48
  C 424.05 288.18 424.09 287.85 424.23 287.56
  Q 425.11 285.80 425.26 283.87
  Q 425.43 281.52 425.95 280.79
  Q 427.06 279.23 429.20 279.38
  C 429.51 279.40 429.78 279.24 429.87 278.98
  Q 430.61 276.88 429.51 274.93
  C 429.36 274.65 429.31 274.32 429.39 274.02
  Q 430.14 271.10 429.21 268.25
  Q 428.99 266.24 429.64 267.32
  Q 432.02 271.21 435.08 268.30
  C 435.31 268.09 435.62 267.99 435.93 268.03
  Q 437.93 268.31 439.41 266.86
  C 439.63 266.65 439.94 266.57 440.22 266.66
  Q 443.56 267.73 442.45 264.96
  C 442.36 264.73 442.47 264.46 442.71 264.33
  Q 443.17 264.07 443.28 263.56
  C 443.33 263.32 443.57 263.18 443.78 263.25
  Q 445.34 263.78 445.50 262.25
  Q 445.75 259.90 447.35 260.95
  C 447.67 261.16 447.99 261.26 448.25 261.23
  Q 450.32 261.00 448.49 258.23
  C 448.06 257.57 448.30 256.70 449.00 256.40
  L 455.28 253.70
  C 455.70 253.52 456.04 253.23 456.25 252.89
  Q 457.94 250.13 459.78 249.40
  Q 460.16 249.25 460.59 248.88
  L 463.03 246.72
  C 463.33 246.45 463.52 246.16 463.53 245.94
  Q 463.57 245.33 462.95 245.56
  Q 462.62 245.69 462.40 245.67
  Q 460.70 245.57 461.82 244.69
  Q 462.09 244.49 462.62 244.33
  Q 463.27 244.13 463.90 243.76
  Q 464.51 243.40 464.50 244.11
  Q 464.47 245.30 465.82 244.59
  Q 467.64 243.63 468.74 241.93
  C 468.91 241.66 468.91 241.32 468.74 241.08
  Q 468.30 240.45 467.62 240.04
  Q 467.11 239.73 466.91 239.39
  Q 466.22 238.23 467.44 238.35
  C 467.69 238.38 467.97 238.24 468.18 238.00
  Q 468.57 237.57 469.06 238.44
  Q 470.55 241.04 472.69 238.69
  Q 474.68 236.50 473.95 233.76
  C 473.86 233.41 473.96 233.08 474.18 233.03
  Q 474.33 232.99 474.51 233.08
  C 474.66 233.15 474.83 233.12 474.92 232.99
  Q 475.93 231.47 475.42 234.04
  Q 475.32 234.56 475.42 235.09
  Q 476.00 238.01 475.66 240.99
  Q 475.49 242.54 476.14 242.09
  C 476.37 241.93 476.50 241.62 476.51 241.25
  Q 476.62 237.24 476.74 233.24
  Q 476.75 232.91 476.89 232.81
  Q 477.01 232.71 477.20 232.79
  C 477.32 232.83 477.44 232.77 477.44 232.66
  L 477.54 162.50
  Z"
/>
<path fill="#f8f8f8" d="
  M 132.71 175.25
  Q 133.77 175.54 133.85 176.32
  Q 133.94 177.24 133.96 177.30
  Q 134.42 179.08 133.68 180.69
  Q 132.66 182.94 132.50 183.67
  Q 131.91 186.35 130.94 188.94
  Q 115.37 230.16 125.75 271.75
  Q 128.42 282.46 138.11 289.05
  Q 141.18 291.13 141.21 291.16
  Q 150.16 297.78 156.13 307.08
  Q 160.85 314.44 162.04 315.95
  Q 180.31 339.11 207.10 352.12
  Q 216.44 356.65 225.50 354.25
  Q 235.89 351.50 240.75 351.00
  Q 245.46 350.52 253.51 351.39
  Q 267.74 352.94 282.00 351.75
  Q 290.35 351.06 298.36 348.85
  Q 304.75 347.08 309.91 343.67
  Q 315.39 340.05 319.81 335.56
  Q 323.05 332.28 326.02 330.26
  Q 331.01 326.87 336.11 323.67
  Q 343.49 319.02 349.96 313.22
  Q 354.40 309.24 355.60 307.84
  Q 358.00 305.06 359.83 301.22
  Q 360.22 300.41 360.18 299.51
  Q 359.91 292.48 355.44 287.06
  Q 353.28 284.45 352.47 282.95
  C 352.30 282.63 352.25 282.30 352.32 282.00
  L 352.75 280.29
  L 362.86 276.20
  C 363.24 276.04 363.67 276.29 363.70 276.69
  Q 364.82 290.12 361.80 303.30
  C 361.74 303.55 361.94 303.79 362.20 303.78
  L 370.00 303.46
  Q 371.64 303.53 370.08 303.83
  C 369.59 303.92 369.17 304.23 368.94 304.66
  Q 366.39 309.26 362.90 312.66
  Q 353.97 321.37 343.59 328.30
  Q 331.39 336.45 320.48 346.22
  Q 315.29 350.87 311.74 352.77
  Q 303.04 357.43 292.50 359.00
  Q 278.29 361.12 265.55 361.10
  Q 263.12 361.09 255.52 360.21
  Q 246.88 359.21 238.21 360.76
  Q 235.11 361.32 228.25 363.25
  Q 224.33 364.35 219.20 364.18
  Q 214.79 364.03 210.35 362.52
  Q 204.50 360.53 198.56 357.19
  Q 176.05 344.54 159.53 325.72
  Q 158.00 323.98 151.62 315.28
  Q 143.05 303.59 131.30 295.06
  Q 126.70 291.72 124.77 289.30
  Q 119.07 282.12 116.81 272.19
  Q 112.43 252.86 112.66 235.47
  Q 112.67 234.88 112.41 232.94
  Q 112.22 231.63 112.55 230.34
  Q 113.41 226.95 113.41 226.92
  Q 114.00 222.41 114.25 221.50
  Q 115.19 218.03 114.46 215.75
  Q 116.95 206.53 120.71 197.75
  Q 125.73 185.98 132.71 175.25
  Z"
/>
<path fill="#ee4752" d="
  M 429.21 268.25
  Q 430.14 271.10 429.39 274.02
  C 429.31 274.32 429.36 274.65 429.51 274.93
  Q 430.61 276.88 429.87 278.98
  C 429.78 279.24 429.51 279.40 429.20 279.38
  Q 427.06 279.23 425.95 280.79
  Q 425.43 281.52 425.26 283.87
  Q 425.11 285.80 424.23 287.56
  C 424.09 287.85 424.05 288.18 424.12 288.48
  Q 424.73 291.10 424.25 292.50
  Q 423.63 294.30 424.30 295.76
  C 424.44 296.06 424.45 296.40 424.35 296.72
  Q 421.47 305.27 420.50 311.75
  Q 420.35 312.78 419.90 313.13
  Q 419.47 313.47 419.37 312.82
  Q 419.01 310.28 418.25 313.00
  Q 417.50 315.70 416.69 315.94
  Q 413.92 316.76 414.09 320.22
  C 414.11 320.66 413.93 321.13 413.60 321.51
  L 410.86 324.66
  C 410.69 324.85 410.57 325.18 410.54 325.57
  Q 410.35 327.64 408.56 328.56
  Q 406.29 329.74 406.03 332.00
  Q 405.97 332.54 405.73 332.93
  Q 402.84 337.50 401.17 342.62
  Q 400.72 344.00 399.86 345.61
  Q 399.08 347.06 398.53 348.62
  Q 398.10 349.86 397.47 350.55
  Q 396.88 351.19 396.20 351.75
  C 395.96 351.95 395.83 352.25 395.82 352.57
  Q 395.79 354.88 394.52 356.69
  Q 393.34 358.37 392.89 359.50
  Q 392.26 361.04 391.37 362.44
  Q 391.23 362.66 389.70 364.12
  Q 388.77 365.02 388.69 366.44
  C 388.67 366.79 388.54 367.09 388.34 367.28
  Q 387.54 368.01 386.56 368.45
  Q 385.32 369.01 384.79 369.53
  Q 382.63 371.64 381.15 374.26
  Q 380.14 376.05 378.59 377.62
  Q 376.06 380.18 374.74 383.59
  C 374.62 383.89 374.41 384.15 374.13 384.32
  Q 371.44 385.97 369.66 388.52
  Q 369.51 388.73 369.53 388.48
  Q 369.58 387.73 369.13 388.36
  Q 367.29 391.01 363.81 393.31
  Q 362.46 394.21 361.15 395.84
  Q 359.70 397.63 358.64 398.46
  Q 356.32 400.28 353.86 401.91
  Q 353.47 402.17 353.21 402.64
  Q 352.00 404.87 349.31 406.31
  Q 345.60 408.31 342.21 411.79
  Q 340.58 413.45 338.61 414.30
  Q 334.45 416.07 330.49 418.24
  Q 328.80 419.16 326.40 421.28
  Q 324.47 422.99 322.28 424.35
  Q 321.44 424.87 317.98 426.02
  Q 315.71 426.78 313.87 428.41
  C 313.62 428.63 313.32 428.76 313.00 428.77
  Q 311.58 428.84 310.17 428.92
  Q 308.79 428.99 307.44 429.52
  Q 299.26 432.73 290.73 434.74
  Q 290.62 434.77 286.23 435.24
  Q 283.86 435.49 281.84 436.89
  C 281.59 437.06 281.27 437.14 280.94 437.09
  Q 279.40 436.88 277.66 437.65
  Q 276.86 438.01 277.72 438.14
  Q 280.38 438.54 283.36 437.69
  Q 284.15 437.47 284.66 437.38
  Q 289.90 436.42 285.97 437.83
  C 285.73 437.92 285.48 438.13 285.25 438.43
  Q 284.47 439.48 282.50 439.25
  Q 281.46 439.13 280.58 439.94
  Q 279.60 440.85 279.05 441.11
  Q 276.64 442.23 274.21 443.30
  C 273.93 443.42 273.60 443.45 273.27 443.37
  Q 271.02 442.83 269.66 444.55
  C 269.46 444.80 269.17 444.94 268.86 444.95
  Q 265.71 445.04 267.58 445.25
  Q 269.08 445.42 267.98 445.91
  Q 267.78 446.00 267.50 446.04
  Q 263.58 446.63 259.76 447.63
  Q 257.98 448.09 255.58 449.60
  Q 253.31 451.03 251.25 451.50
  Q 248.19 452.19 249.47 454.95
  C 249.59 455.20 249.52 455.49 249.30 455.67
  Q 247.19 457.35 246.81 459.51
  C 246.76 459.79 246.93 460.06 247.21 460.18
  Q 251.47 461.96 246.95 463.61
  Q 245.91 463.99 245.32 462.20
  C 245.22 461.90 244.91 461.72 244.60 461.78
  Q 243.50 461.99 244.49 462.74
  Q 246.61 464.36 244.83 465.89
  C 244.64 466.05 244.32 466.16 243.94 466.21
  Q 242.15 466.41 240.00 468.23
  C 239.25 468.87 238.22 469.07 237.28 468.76
  Q 235.04 468.02 235.69 470.31
  Q 236.38 472.76 234.81 472.81
  Q 232.66 472.88 232.40 476.33
  C 232.37 476.69 232.07 476.97 231.71 476.98
  Q 227.33 477.05 227.77 480.39
  C 227.83 480.82 227.57 481.23 227.15 481.36
  Q 225.69 481.82 225.60 483.51
  Q 225.53 484.71 224.79 485.58
  C 224.57 485.83 224.43 486.13 224.38 486.43
  Q 223.98 488.91 221.67 489.00
  Q 221.16 489.01 219.78 488.52
  Q 219.07 488.26 218.32 488.20
  Q 217.77 488.16 218.25 488.43
  Q 220.90 489.91 223.53 491.40
  Q 225.10 492.28 223.46 493.00
  L 159.96 456.50
  Q 159.77 455.43 160.50 455.47
  Q 160.79 455.49 161.30 455.84
  Q 162.28 456.53 163.75 456.93
  Q 165.42 457.39 164.37 456.01
  Q 163.04 454.26 164.58 453.70
  C 164.83 453.61 165.07 453.40 165.26 453.10
  Q 165.50 452.72 165.87 452.92
  C 166.21 453.11 166.54 453.17 166.73 453.09
  Q 168.11 452.50 167.17 450.79
  Q 166.60 449.74 167.37 449.22
  C 167.51 449.13 167.73 449.18 167.87 449.35
  Q 168.11 449.62 168.31 449.36
  Q 168.77 448.78 168.81 448.74
  Q 169.85 447.75 169.14 446.34
  Q 168.44 444.95 168.84 443.48
  Q 168.97 443.00 168.94 442.50
  Q 168.85 441.08 169.94 441.10
  Q 170.29 441.10 171.46 441.68
  Q 173.35 442.61 174.46 440.75
  C 174.60 440.51 174.62 440.18 174.51 439.85
  Q 173.90 438.04 175.13 437.13
  C 175.60 436.79 176.22 436.76 176.72 437.05
  Q 178.88 438.31 180.17 437.77
  Q 181.18 437.34 182.15 435.54
  Q 182.98 433.99 182.47 432.16
  C 182.38 431.84 182.18 431.57 181.90 431.42
  L 171.70 425.72
  Q 171.23 425.45 171.00 425.06
  Q 168.49 420.87 164.00 419.25
  Q 160.72 418.07 159.23 415.22
  Q 158.99 414.77 158.95 414.24
  Q 158.85 412.90 159.19 413.22
  Q 159.40 413.41 159.48 413.98
  Q 159.84 416.23 162.02 416.77
  Q 163.72 417.19 162.20 416.32
  Q 160.21 415.18 159.58 413.06
  Q 159.48 412.72 159.34 412.47
  Q 156.75 407.96 160.24 412.12
  Q 160.87 412.87 160.56 411.95
  Q 160.06 410.41 158.83 409.76
  Q 156.37 408.46 154.62 406.33
  C 154.43 406.10 154.34 405.78 154.36 405.44
  Q 154.44 403.99 153.81 402.75
  Q 153.57 402.27 154.07 402.33
  Q 155.24 402.48 155.91 403.57
  Q 156.22 404.07 156.69 404.18
  Q 157.34 404.32 156.81 403.86
  Q 154.21 401.55 152.02 398.87
  Q 151.59 398.34 150.11 397.01
  Q 149.06 396.07 148.51 394.80
  Q 147.07 391.49 147.01 391.40
  Q 144.71 387.86 141.78 384.86
  Q 138.45 381.45 136.66 379.25
  Q 134.24 376.29 131.56 373.55
  Q 131.28 373.27 129.24 370.72
  Q 128.07 369.24 126.38 368.30
  Q 125.93 368.04 125.67 367.64
  Q 123.46 364.16 121.81 362.19
  Q 115.28 354.36 109.86 345.73
  Q 109.50 345.14 108.64 343.00
  Q 108.15 341.78 107.19 340.31
  Q 105.34 337.52 104.63 332.44
  C 104.59 332.19 104.39 331.94 104.09 331.77
  L 102.96 331.13
  C 102.77 331.02 102.54 331.12 102.52 331.31
  L 102.28 333.19
  Q 102.21 333.73 102.13 333.19
  Q 101.80 330.72 100.31 327.44
  Q 99.03 324.59 98.55 320.00
  C 98.52 319.71 98.39 319.41 98.17 319.12
  Q 97.74 318.56 97.59 317.89
  Q 97.46 317.32 97.86 316.18
  Q 98.63 314.03 97.35 312.09
  C 97.16 311.80 97.07 311.49 97.08 311.19
  Q 97.14 308.60 97.28 306.01
  Q 97.39 304.09 97.03 300.88
  Q 96.75 298.42 96.95 295.94
  Q 97.20 292.72 97.18 291.04
  Q 97.14 287.25 97.52 283.49
  Q 97.86 280.10 98.11 275.97
  Q 98.51 269.60 100.25 263.46
  Q 100.68 261.91 101.21 258.44
  Q 101.60 255.84 102.73 253.49
  Q 104.25 250.29 104.63 248.75
  Q 105.25 246.24 105.79 243.71
  Q 106.97 238.22 109.12 233.03
  C 109.20 232.83 109.47 232.67 109.81 232.61
  Q 110.17 232.56 110.33 232.17
  C 110.42 231.94 110.30 231.63 110.04 231.40
  Q 109.24 230.71 110.04 229.99
  C 110.28 229.77 110.42 229.49 110.45 229.19
  Q 110.59 227.85 111.71 227.00
  Q 106.40 253.90 110.71 281.00
  Q 109.16 282.46 109.25 283.75
  Q 109.55 288.05 111.39 296.40
  Q 111.52 296.96 112.50 299.46
  Q 113.11 301.02 113.04 302.75
  C 113.02 303.08 113.09 303.40 113.25 303.69
  Q 114.71 306.40 114.54 309.50
  C 114.52 309.82 114.61 310.14 114.79 310.42
  Q 115.96 312.24 116.25 315.00
  Q 117.04 322.53 121.02 330.04
  Q 122.11 332.11 122.40 334.42
  Q 122.88 338.39 126.06 342.44
  Q 126.92 343.54 126.86 344.94
  C 126.85 345.27 126.92 345.59 127.08 345.86
  L 131.25 353.00
  Q 132.39 354.95 132.56 355.69
  Q 133.18 358.34 135.21 359.95
  Q 137.22 361.55 137.29 361.61
  Q 143.71 367.80 148.42 375.38
  C 148.58 375.65 148.83 375.87 149.14 376.01
  Q 150.64 376.72 151.61 377.98
  Q 153.25 380.11 153.85 380.63
  Q 157.01 383.36 159.74 386.55
  C 159.94 386.79 160.07 387.10 160.10 387.44
  Q 160.33 390.08 161.81 390.94
  Q 164.47 392.48 165.00 395.50
  Q 165.46 398.10 167.31 399.69
  Q 168.44 400.65 167.26 400.51
  Q 166.84 400.46 167.13 400.77
  Q 170.91 404.66 175.09 408.12
  Q 176.70 409.46 180.77 411.84
  Q 183.73 413.58 186.33 415.83
  Q 188.95 418.11 191.01 419.10
  Q 193.62 420.36 196.31 421.44
  Q 197.68 421.99 197.05 421.21
  C 196.92 421.05 196.96 420.83 197.12 420.77
  Q 197.51 420.64 197.82 420.91
  Q 198.32 421.34 198.39 421.38
  Q 200.65 422.59 203.04 421.69
  C 203.34 421.58 203.66 421.60 203.93 421.75
  Q 205.43 422.61 207.08 423.13
  Q 209.63 423.93 208.19 422.84
  Q 207.75 422.51 208.28 422.57
  Q 209.03 422.66 209.65 423.28
  C 209.99 423.62 210.47 423.81 210.95 423.78
  Q 215.53 423.59 219.23 424.35
  Q 222.96 425.11 226.75 425.02
  Q 226.85 425.02 228.22 424.80
  Q 229.41 424.61 230.39 425.41
  C 230.64 425.62 230.95 425.71 231.24 425.66
  Q 237.97 424.51 244.78 424.73
  Q 246.58 424.78 248.58 424.55
  Q 250.49 424.32 252.41 424.26
  Q 252.94 424.25 255.99 423.65
  Q 258.64 423.12 261.69 424.81
  Q 264.73 426.50 269.99 425.92
  Q 277.12 425.14 284.28 424.97
  Q 286.34 424.92 288.37 423.96
  Q 290.27 423.05 293.75 421.50
  Q 295.73 420.62 297.26 420.70
  Q 297.80 420.73 298.21 420.54
  Q 306.91 416.57 313.25 415.00
  Q 318.19 413.78 321.98 411.46
  Q 323.30 410.66 327.03 406.98
  Q 329.47 404.58 332.42 402.80
  Q 333.89 401.91 335.21 400.73
  Q 336.52 399.56 337.97 398.57
  Q 341.47 396.16 342.24 395.54
  Q 348.78 390.29 355.37 385.09
  Q 355.46 385.02 357.99 382.77
  Q 359.77 381.18 362.48 379.66
  C 362.90 379.42 363.25 379.05 363.46 378.61
  Q 365.32 374.72 368.06 372.31
  Q 370.34 370.31 375.56 361.81
  Q 378.41 357.17 379.85 353.75
  Q 381.15 350.65 382.49 348.76
  Q 386.54 343.07 387.44 340.19
  Q 388.36 337.23 389.21 335.91
  Q 389.50 335.45 389.58 335.00
  Q 390.51 329.48 394.50 325.50
  Q 395.77 324.23 397.28 320.82
  Q 398.61 317.81 399.67 315.97
  Q 402.20 311.58 402.75 310.25
  Q 403.36 308.79 403.94 308.14
  Q 404.40 307.64 404.52 307.36
  L 406.49 303.01
  C 406.60 302.77 406.89 302.68 407.10 302.83
  L 407.54 303.13
  C 407.73 303.26 408.00 303.17 408.05 302.95
  Q 408.39 301.60 408.93 300.33
  Q 410.78 295.98 410.50 291.23
  Q 410.38 289.29 412.02 288.22
  Q 414.33 286.71 412.21 284.98
  C 411.96 284.78 411.81 284.49 411.82 284.20
  Q 411.92 279.70 411.88 275.20
  Q 411.85 270.91 410.89 266.28
  Q 409.65 260.27 408.50 254.25
  Q 408.24 252.90 406.75 248.25
  Q 406.12 246.28 405.83 243.13
  Q 405.67 241.36 404.72 239.23
  Q 403.77 237.12 403.47 234.75
  Q 403.34 233.76 402.54 233.25
  Q 401.23 219.28 397.43 205.50
  Q 396.98 203.87 396.19 205.43
  L 392.75 212.21
  Q 392.38 212.40 392.31 211.99
  Q 390.14 200.00 386.00 188.54
  L 386.20 188.40
  C 386.31 188.33 386.48 188.39 386.55 188.54
  Q 388.58 192.60 394.08 199.32
  C 394.16 199.42 394.30 199.44 394.41 199.38
  Q 394.65 199.23 394.95 199.23
  C 395.22 199.23 395.51 199.41 395.73 199.72
  Q 396.36 200.62 396.94 201.56
  Q 397.52 202.51 398.26 203.30
  Q 402.73 208.13 404.06 211.94
  Q 405.14 215.02 407.25 216.32
  Q 407.43 216.43 407.96 216.99
  L 411.79 221.02
  Q 411.86 221.10 412.24 221.82
  L 413.87 224.89
  C 414.04 225.22 414.12 225.55 414.07 225.83
  Q 413.81 227.39 414.60 228.19
  C 414.79 228.38 415.13 228.32 415.25 228.06
  Q 415.92 226.68 415.00 225.23
  Q 414.42 224.31 415.44 224.46
  C 415.70 224.50 415.94 224.73 416.04 225.05
  Q 416.48 226.41 418.67 227.47
  C 419.04 227.65 419.27 228.03 419.27 228.44
  Q 419.23 231.92 420.84 232.67
  Q 422.56 233.48 422.74 235.38
  Q 423.02 238.31 425.26 239.80
  C 425.54 239.98 425.73 240.26 425.77 240.56
  Q 426.36 244.53 425.72 248.70
  C 425.57 249.67 425.90 250.66 426.60 251.35
  Q 428.77 253.49 427.37 256.07
  Q 426.08 258.47 427.16 260.34
  Q 428.06 261.88 427.80 263.63
  Q 427.38 266.57 429.21 268.25
  Z"
/>
<path fill="#f8425e" d="
  M 120.71 197.75
  Q 116.95 206.53 114.46 215.75
  L 111.71 227.00
  Q 110.59 227.85 110.45 229.19
  C 110.42 229.49 110.28 229.77 110.04 229.99
  Q 109.24 230.71 110.04 231.40
  C 110.30 231.63 110.42 231.94 110.33 232.17
  Q 110.17 232.56 109.81 232.61
  C 109.47 232.67 109.20 232.83 109.12 233.03
  Q 106.97 238.22 105.79 243.71
  Q 105.25 246.24 104.63 248.75
  Q 104.25 250.29 102.73 253.49
  Q 101.60 255.84 101.21 258.44
  Q 100.68 261.91 100.25 263.46
  Q 98.51 269.60 98.11 275.97
  Q 97.86 280.10 97.52 283.49
  Q 97.14 287.25 97.18 291.04
  Q 97.20 292.72 96.95 295.94
  Q 96.75 298.42 97.03 300.88
  Q 97.39 304.09 97.28 306.01
  Q 97.14 308.60 97.08 311.19
  C 97.07 311.49 97.16 311.80 97.35 312.09
  Q 98.63 314.03 97.86 316.18
  Q 97.46 317.32 97.59 317.89
  Q 97.74 318.56 98.17 319.12
  C 98.39 319.41 98.52 319.71 98.55 320.00
  Q 99.03 324.59 100.31 327.44
  Q 101.80 330.72 102.13 333.19
  Q 102.21 333.73 102.28 333.19
  L 102.52 331.31
  C 102.54 331.12 102.77 331.02 102.96 331.13
  L 104.09 331.77
  C 104.39 331.94 104.59 332.19 104.63 332.44
  Q 105.34 337.52 107.19 340.31
  Q 108.15 341.78 108.64 343.00
  Q 109.50 345.14 109.86 345.73
  Q 115.28 354.36 121.81 362.19
  Q 123.46 364.16 125.67 367.64
  Q 125.93 368.04 126.38 368.30
  Q 128.07 369.24 129.24 370.72
  Q 131.28 373.27 131.56 373.55
  Q 134.24 376.29 136.66 379.25
  Q 138.45 381.45 141.78 384.86
  Q 144.71 387.86 147.01 391.40
  Q 147.07 391.49 148.51 394.80
  Q 149.06 396.07 150.11 397.01
  Q 151.59 398.34 152.02 398.87
  Q 154.21 401.55 156.81 403.86
  Q 157.34 404.32 156.69 404.18
  Q 156.22 404.07 155.91 403.57
  Q 155.24 402.48 154.07 402.33
  Q 153.57 402.27 153.81 402.75
  Q 154.44 403.99 154.36 405.44
  C 154.34 405.78 154.43 406.10 154.62 406.33
  Q 156.37 408.46 158.83 409.76
  Q 160.06 410.41 160.56 411.95
  Q 160.87 412.87 160.24 412.12
  Q 156.75 407.96 159.34 412.47
  Q 159.48 412.72 159.58 413.06
  Q 160.21 415.18 162.20 416.32
  Q 163.72 417.19 162.02 416.77
  Q 159.84 416.23 159.48 413.98
  Q 159.40 413.41 159.19 413.22
  Q 158.85 412.90 158.95 414.24
  Q 158.99 414.77 159.23 415.22
  Q 160.72 418.07 164.00 419.25
  Q 168.49 420.87 171.00 425.06
  Q 171.23 425.45 171.70 425.72
  L 181.90 431.42
  C 182.18 431.57 182.38 431.84 182.47 432.16
  Q 182.98 433.99 182.15 435.54
  Q 181.18 437.34 180.17 437.77
  Q 178.88 438.31 176.72 437.05
  C 176.22 436.76 175.60 436.79 175.13 437.13
  Q 173.90 438.04 174.51 439.85
  C 174.62 440.18 174.60 440.51 174.46 440.75
  Q 173.35 442.61 171.46 441.68
  Q 170.29 441.10 169.94 441.10
  Q 168.85 441.08 168.94 442.50
  Q 168.97 443.00 168.84 443.48
  Q 168.44 444.95 169.14 446.34
  Q 169.85 447.75 168.81 448.74
  Q 168.77 448.78 168.31 449.36
  Q 168.11 449.62 167.87 449.35
  C 167.73 449.18 167.51 449.13 167.37 449.22
  Q 166.60 449.74 167.17 450.79
  Q 168.11 452.50 166.73 453.09
  C 166.54 453.17 166.21 453.11 165.87 452.92
  Q 165.50 452.72 165.26 453.10
  C 165.07 453.40 164.83 453.61 164.58 453.70
  Q 163.04 454.26 164.37 456.01
  Q 165.42 457.39 163.75 456.93
  Q 162.28 456.53 161.30 455.84
  Q 160.79 455.49 160.50 455.47
  Q 159.77 455.43 159.96 456.50
  Q 101.40 422.91 58.31 397.69
  Q 33.27 383.02 34.54 353.25
  Q 34.91 327.75 34.86 302.25
  Q 34.85 297.98 34.88 302.00
  Q 35.00 317.50 35.00 333.01
  Q 35.00 333.33 35.31 333.88
  Q 35.52 334.25 35.51 334.75
  Q 35.19 344.40 36.28 354.27
  C 36.31 354.50 36.57 354.62 36.76 354.49
  Q 39.20 352.83 38.13 349.35
  Q 37.78 348.23 38.88 348.63
  Q 40.49 349.22 41.19 347.44
  Q 41.85 345.75 44.25 344.42
  C 44.50 344.28 44.69 344.02 44.79 343.69
  Q 45.14 342.44 46.44 342.23
  Q 47.07 342.13 47.35 341.90
  Q 48.46 340.99 47.59 339.87
  C 47.45 339.70 47.50 339.43 47.70 339.29
  L 49.70 337.91
  C 49.99 337.71 50.29 337.61 50.56 337.60
  Q 51.83 337.59 52.21 336.30
  C 52.29 336.04 52.54 335.87 52.81 335.89
  Q 53.81 335.95 54.63 335.33
  C 54.88 335.13 55.20 335.05 55.49 335.10
  Q 57.55 335.44 55.56 333.69
  Q 54.15 332.45 55.28 330.71
  C 55.42 330.49 55.72 330.35 56.06 330.35
  Q 58.16 330.38 60.20 328.08
  C 60.64 327.59 61.26 327.29 61.92 327.25
  Q 64.43 327.13 62.84 324.96
  C 62.44 324.42 62.62 323.66 63.22 323.36
  Q 65.49 322.21 68.31 321.66
  Q 68.49 321.63 70.18 321.59
  Q 71.70 321.55 71.38 319.98
  C 71.32 319.66 71.39 319.35 71.58 319.12
  Q 73.97 316.21 74.67 312.50
  C 74.72 312.22 74.88 311.93 75.13 311.68
  Q 75.80 310.99 75.68 310.05
  C 75.63 309.73 75.75 309.44 75.98 309.31
  Q 77.71 308.35 77.00 310.50
  Q 76.51 311.99 77.25 315.00
  Q 79.18 322.80 79.66 314.69
  C 79.68 314.42 79.84 314.13 80.10 313.90
  Q 80.71 313.37 80.76 312.51
  Q 80.79 312.15 80.89 312.48
  L 82.77 318.22
  C 82.87 318.54 82.90 318.87 82.83 319.18
  Q 82.18 322.14 81.96 325.17
  Q 81.74 328.28 82.86 324.63
  C 82.98 324.24 83.43 324.07 83.78 324.27
  Q 84.79 324.84 85.45 323.98
  Q 86.98 322.01 85.41 320.78
  C 85.14 320.57 84.96 320.29 84.91 320.01
  Q 84.22 316.04 83.74 312.04
  Q 83.73 311.95 83.26 308.87
  Q 82.67 305.06 83.75 302.00
  Q 84.69 299.34 84.40 297.30
  Q 84.34 296.90 84.59 297.24
  Q 85.53 298.54 85.32 296.12
  Q 85.25 295.34 85.24 294.87
  Q 85.18 287.25 85.75 285.25
  Q 86.12 283.95 86.13 283.00
  Q 86.14 281.05 86.15 280.99
  Q 86.80 276.61 87.88 272.32
  Q 88.29 270.70 88.38 267.61
  Q 88.48 263.98 90.31 260.31
  Q 91.11 258.72 91.66 256.36
  Q 91.89 255.36 92.14 252.24
  Q 92.48 248.11 94.20 244.36
  Q 94.97 242.68 95.42 240.29
  Q 95.80 238.30 96.76 236.50
  Q 97.83 234.48 98.28 232.88
  Q 99.32 229.18 101.36 225.94
  Q 102.75 223.72 103.86 221.11
  Q 105.16 218.04 107.38 215.15
  Q 107.71 214.72 107.96 214.23
  Q 109.15 211.91 110.31 210.78
  C 110.54 210.55 110.68 210.26 110.71 209.94
  Q 110.89 208.31 112.26 207.43
  C 112.52 207.26 112.68 206.98 112.70 206.68
  Q 112.83 204.20 114.45 203.73
  Q 116.11 203.24 116.56 201.57
  Q 117.44 198.32 120.71 197.75
  Z"
/>
<path fill="#ebebeb" d="
  M 114.46 215.75
  Q 115.19 218.03 114.25 221.50
  Q 114.00 222.41 113.41 226.92
  Q 113.41 226.95 112.55 230.34
  Q 112.22 231.63 112.41 232.94
  Q 112.67 234.88 112.66 235.47
  Q 112.43 252.86 116.81 272.19
  Q 119.07 282.12 124.77 289.30
  Q 126.70 291.72 131.30 295.06
  Q 143.05 303.59 151.62 315.28
  Q 158.00 323.98 159.53 325.72
  Q 176.05 344.54 198.56 357.19
  Q 204.50 360.53 210.35 362.52
  Q 214.79 364.03 219.20 364.18
  Q 224.33 364.35 228.25 363.25
  Q 235.11 361.32 238.21 360.76
  Q 246.88 359.21 255.52 360.21
  Q 263.12 361.09 265.55 361.10
  Q 278.29 361.12 292.50 359.00
  Q 303.04 357.43 311.74 352.77
  Q 315.29 350.87 320.48 346.22
  Q 331.39 336.45 343.59 328.30
  Q 353.97 321.37 362.90 312.66
  Q 366.39 309.26 368.94 304.66
  C 369.17 304.23 369.59 303.92 370.08 303.83
  Q 371.64 303.53 370.00 303.46
  Q 379.48 302.51 388.96 299.35
  Q 389.83 299.06 389.41 299.87
  Q 371.78 334.36 338.61 353.90
  Q 330.43 358.73 321.19 362.12
  Q 320.00 362.55 321.05 363.27
  L 328.35 368.22
  Q 328.76 368.50 328.30 368.72
  Q 280.87 391.24 228.89 376.10
  Q 227.71 375.75 228.23 376.86
  Q 232.04 385.04 237.05 391.92
  Q 237.58 392.64 236.70 392.47
  Q 217.05 388.47 199.39 379.29
  Q 153.38 355.37 132.65 307.53
  Q 132.45 307.05 132.25 307.53
  Q 128.47 316.76 127.17 327.12
  Q 127.07 327.91 126.69 327.21
  Q 122.14 319.01 118.71 310.00
  Q 113.44 295.85 110.71 281.00
  Q 106.40 253.90 111.71 227.00
  L 114.46 215.75
  Z"
/>
<path fill="#e1434e" d="
  M 402.54 233.25
  Q 403.34 233.76 403.47 234.75
  Q 403.77 237.12 404.72 239.23
  Q 405.67 241.36 405.83 243.13
  Q 406.12 246.28 406.75 248.25
  Q 408.24 252.90 408.50 254.25
  Q 409.65 260.27 410.89 266.28
  Q 411.85 270.91 411.88 275.20
  Q 411.92 279.70 411.82 284.20
  C 411.81 284.49 411.96 284.78 412.21 284.98
  Q 414.33 286.71 412.02 288.22
  Q 410.38 289.29 410.50 291.23
  Q 410.78 295.98 408.93 300.33
  Q 408.39 301.60 408.05 302.95
  C 408.00 303.17 407.73 303.26 407.54 303.13
  L 407.10 302.83
  C 406.89 302.68 406.60 302.77 406.49 303.01
  L 404.52 307.36
  Q 404.40 307.64 403.94 308.14
  Q 403.36 308.79 402.75 310.25
  Q 402.20 311.58 399.67 315.97
  Q 398.61 317.81 397.28 320.82
  Q 395.77 324.23 394.50 325.50
  Q 390.51 329.48 389.58 335.00
  Q 389.50 335.45 389.21 335.91
  Q 388.36 337.23 387.44 340.19
  Q 386.54 343.07 382.49 348.76
  Q 381.15 350.65 379.85 353.75
  Q 378.41 357.17 375.56 361.81
  Q 370.34 370.31 368.06 372.31
  Q 365.32 374.72 363.46 378.61
  C 363.25 379.05 362.90 379.42 362.48 379.66
  Q 359.77 381.18 357.99 382.77
  Q 355.46 385.02 355.37 385.09
  Q 348.78 390.29 342.24 395.54
  Q 341.47 396.16 337.97 398.57
  Q 336.52 399.56 335.21 400.73
  Q 333.89 401.91 332.42 402.80
  Q 329.47 404.58 327.03 406.98
  Q 323.30 410.66 321.98 411.46
  Q 318.19 413.78 313.25 415.00
  Q 306.91 416.57 298.21 420.54
  Q 297.80 420.73 297.26 420.70
  Q 295.73 420.62 293.75 421.50
  Q 290.27 423.05 288.37 423.96
  Q 286.34 424.92 284.28 424.97
  Q 277.12 425.14 269.99 425.92
  Q 264.73 426.50 261.69 424.81
  Q 258.64 423.12 255.99 423.65
  Q 252.94 424.25 252.41 424.26
  Q 250.49 424.32 248.58 424.55
  Q 246.58 424.78 244.78 424.73
  Q 237.97 424.51 231.24 425.66
  C 230.95 425.71 230.64 425.62 230.39 425.41
  Q 229.41 424.61 228.22 424.80
  Q 226.85 425.02 226.75 425.02
  Q 222.96 425.11 219.23 424.35
  Q 215.53 423.59 210.95 423.78
  C 210.47 423.81 209.99 423.62 209.65 423.28
  Q 209.03 422.66 208.28 422.57
  Q 207.75 422.51 208.19 422.84
  Q 209.63 423.93 207.08 423.13
  Q 205.43 422.61 203.93 421.75
  C 203.66 421.60 203.34 421.58 203.04 421.69
  Q 200.65 422.59 198.39 421.38
  Q 198.32 421.34 197.82 420.91
  Q 197.51 420.64 197.12 420.77
  C 196.96 420.83 196.92 421.05 197.05 421.21
  Q 197.68 421.99 196.31 421.44
  Q 193.62 420.36 191.01 419.10
  Q 188.95 418.11 186.33 415.83
  Q 183.73 413.58 180.77 411.84
  Q 176.70 409.46 175.09 408.12
  Q 170.91 404.66 167.13 400.77
  Q 166.84 400.46 167.26 400.51
  Q 168.44 400.65 167.31 399.69
  Q 165.46 398.10 165.00 395.50
  Q 164.47 392.48 161.81 390.94
  Q 160.33 390.08 160.10 387.44
  C 160.07 387.10 159.94 386.79 159.74 386.55
  Q 157.01 383.36 153.85 380.63
  Q 153.25 380.11 151.61 377.98
  Q 150.64 376.72 149.14 376.01
  C 148.83 375.87 148.58 375.65 148.42 375.38
  Q 143.71 367.80 137.29 361.61
  Q 137.22 361.55 135.21 359.95
  Q 133.18 358.34 132.56 355.69
  Q 132.39 354.95 131.25 353.00
  L 127.08 345.86
  C 126.92 345.59 126.85 345.27 126.86 344.94
  Q 126.92 343.54 126.06 342.44
  Q 122.88 338.39 122.40 334.42
  Q 122.11 332.11 121.02 330.04
  Q 117.04 322.53 116.25 315.00
  Q 115.96 312.24 114.79 310.42
  C 114.61 310.14 114.52 309.82 114.54 309.50
  Q 114.71 306.40 113.25 303.69
  C 113.09 303.40 113.02 303.08 113.04 302.75
  Q 113.11 301.02 112.50 299.46
  Q 111.52 296.96 111.39 296.40
  Q 109.55 288.05 109.25 283.75
  Q 109.16 282.46 110.71 281.00
  Q 113.44 295.85 118.71 310.00
  Q 116.31 311.24 117.81 313.94
  Q 119.93 317.74 122.98 326.11
  Q 124.09 329.15 125.24 329.94
  Q 127.40 331.42 130.54 329.00
  Q 131.87 327.97 131.94 329.66
  Q 132.01 331.39 133.34 332.46
  C 133.60 332.67 133.79 332.94 133.87 333.23
  Q 134.04 333.87 134.32 334.46
  Q 134.61 335.08 135.47 335.79
  Q 137.61 337.58 138.32 340.31
  C 138.40 340.64 138.58 340.93 138.81 341.14
  Q 141.91 343.90 144.39 347.18
  Q 147.83 351.75 149.49 353.54
  Q 154.92 359.42 159.94 365.66
  Q 160.04 365.78 163.36 369.56
  Q 166.54 373.19 168.38 377.72
  C 168.49 377.99 168.72 378.23 169.03 378.39
  Q 170.20 378.98 170.44 380.26
  Q 170.55 380.81 170.81 381.14
  Q 174.34 385.61 177.30 390.46
  Q 178.85 393.01 180.84 394.49
  Q 183.27 396.29 188.06 399.69
  Q 195.01 404.61 201.29 406.07
  Q 202.01 406.24 203.58 406.03
  Q 204.96 405.85 205.94 406.56
  Q 207.45 407.67 208.90 408.05
  Q 211.70 408.79 211.98 408.90
  Q 216.16 410.55 220.76 410.28
  C 221.07 410.27 221.40 410.34 221.69 410.50
  Q 225.68 412.67 230.69 412.21
  C 231.05 412.18 231.40 412.27 231.69 412.47
  Q 235.97 415.42 240.50 414.75
  Q 244.74 414.12 245.94 414.31
  Q 249.04 414.80 251.15 414.57
  Q 254.32 414.23 254.38 414.23
  Q 262.19 414.11 270.00 414.01
  Q 270.40 414.00 270.91 414.27
  Q 271.99 414.85 273.50 414.25
  Q 275.48 413.46 279.49 413.29
  Q 279.54 413.29 282.46 412.82
  Q 284.04 412.57 285.55 413.27
  C 285.86 413.41 286.19 413.46 286.50 413.41
  Q 288.57 413.05 290.66 412.99
  Q 292.96 412.92 294.71 412.26
  Q 303.38 409.01 312.05 405.77
  Q 315.71 404.41 318.63 401.84
  C 318.86 401.63 319.17 401.51 319.50 401.50
  Q 323.06 401.38 325.15 398.60
  Q 325.43 398.22 325.90 397.99
  Q 327.36 397.28 328.81 395.31
  Q 330.89 392.49 335.10 390.75
  Q 335.56 390.56 335.87 390.18
  Q 337.53 388.17 339.66 386.65
  Q 348.73 380.20 356.49 372.24
  Q 360.10 368.54 365.56 360.56
  Q 368.87 355.73 370.10 351.36
  Q 370.43 350.19 371.59 347.50
  Q 372.44 345.54 372.34 343.31
  C 372.33 342.99 372.42 342.68 372.60 342.41
  Q 374.12 340.10 373.82 337.25
  C 373.78 336.91 373.83 336.58 373.95 336.30
  Q 375.38 333.17 376.85 330.07
  Q 377.30 329.12 378.73 327.39
  Q 379.56 326.39 380.69 324.69
  Q 381.83 322.97 382.89 321.20
  Q 383.85 319.63 385.18 317.79
  Q 388.50 313.19 389.81 309.31
  Q 390.25 308.03 390.76 307.35
  Q 391.64 306.18 391.68 306.11
  Q 396.56 296.63 398.89 286.23
  Q 398.99 285.81 399.32 285.36
  Q 400.27 284.12 400.26 282.50
  Q 400.26 280.09 400.84 277.81
  Q 401.63 274.70 401.73 273.22
  Q 402.25 265.87 402.48 258.50
  Q 402.50 257.77 401.79 258.00
  Q 403.12 245.66 402.54 233.25
  Z"
/>
<path fill="#d23f49" d="
  M 371.50 292.21
  L 371.09 292.44
  C 370.87 292.57 370.75 292.87 370.78 293.21
  Q 371.14 297.09 375.75 296.75
  Q 379.50 296.48 382.16 295.78
  Q 385.90 294.80 386.91 294.50
  Q 389.01 293.86 391.50 292.50
  Q 394.22 291.01 394.69 288.62
  C 394.74 288.38 394.66 288.14 394.49 287.99
  L 394.21 287.75
  Q 400.05 273.42 401.79 258.00
  Q 402.50 257.77 402.48 258.50
  Q 402.25 265.87 401.73 273.22
  Q 401.63 274.70 400.84 277.81
  Q 400.26 280.09 400.26 282.50
  Q 400.27 284.12 399.32 285.36
  Q 398.99 285.81 398.89 286.23
  Q 396.56 296.63 391.68 306.11
  Q 391.64 306.18 390.76 307.35
  Q 390.25 308.03 389.81 309.31
  Q 388.50 313.19 385.18 317.79
  Q 383.85 319.63 382.89 321.20
  Q 381.83 322.97 380.69 324.69
  Q 379.56 326.39 378.73 327.39
  Q 377.30 329.12 376.85 330.07
  Q 375.38 333.17 373.95 336.30
  C 373.83 336.58 373.78 336.91 373.82 337.25
  Q 374.12 340.10 372.60 342.41
  C 372.42 342.68 372.33 342.99 372.34 343.31
  Q 372.44 345.54 371.59 347.50
  Q 370.43 350.19 370.10 351.36
  Q 368.87 355.73 365.56 360.56
  Q 360.10 368.54 356.49 372.24
  Q 348.73 380.20 339.66 386.65
  Q 337.53 388.17 335.87 390.18
  Q 335.56 390.56 335.10 390.75
  Q 330.89 392.49 328.81 395.31
  Q 327.36 397.28 325.90 397.99
  Q 325.43 398.22 325.15 398.60
  Q 323.06 401.38 319.50 401.50
  C 319.17 401.51 318.86 401.63 318.63 401.84
  Q 315.71 404.41 312.05 405.77
  Q 303.38 409.01 294.71 412.26
  Q 292.96 412.92 290.66 412.99
  Q 288.57 413.05 286.50 413.41
  C 286.19 413.46 285.86 413.41 285.55 413.27
  Q 284.04 412.57 282.46 412.82
  Q 279.54 413.29 279.49 413.29
  Q 275.48 413.46 273.50 414.25
  Q 271.99 414.85 270.91 414.27
  Q 270.40 414.00 270.00 414.01
  Q 262.19 414.11 254.38 414.23
  Q 254.32 414.23 251.15 414.57
  Q 249.04 414.80 245.94 414.31
  Q 244.74 414.12 240.50 414.75
  Q 235.97 415.42 231.69 412.47
  C 231.40 412.27 231.05 412.18 230.69 412.21
  Q 225.68 412.67 221.69 410.50
  C 221.40 410.34 221.07 410.27 220.76 410.28
  Q 216.16 410.55 211.98 408.90
  Q 211.70 408.79 208.90 408.05
  Q 207.45 407.67 205.94 406.56
  Q 204.96 405.85 203.58 406.03
  Q 202.01 406.24 201.29 406.07
  Q 195.01 404.61 188.06 399.69
  Q 183.27 396.29 180.84 394.49
  Q 178.85 393.01 177.30 390.46
  Q 174.34 385.61 170.81 381.14
  Q 170.55 380.81 170.44 380.26
  Q 170.20 378.98 169.03 378.39
  C 168.72 378.23 168.49 377.99 168.38 377.72
  Q 166.54 373.19 163.36 369.56
  Q 160.04 365.78 159.94 365.66
  Q 154.92 359.42 149.49 353.54
  Q 147.83 351.75 144.39 347.18
  Q 141.91 343.90 138.81 341.14
  C 138.58 340.93 138.40 340.64 138.32 340.31
  Q 137.61 337.58 135.47 335.79
  Q 134.61 335.08 134.32 334.46
  Q 134.04 333.87 133.87 333.23
  C 133.79 332.94 133.60 332.67 133.34 332.46
  Q 132.01 331.39 131.94 329.66
  Q 131.87 327.97 130.54 329.00
  Q 127.40 331.42 125.24 329.94
  Q 124.09 329.15 122.98 326.11
  Q 119.93 317.74 117.81 313.94
  Q 116.31 311.24 118.71 310.00
  Q 122.14 319.01 126.69 327.21
  Q 127.07 327.91 127.17 327.12
  Q 128.47 316.76 132.25 307.53
  Q 132.45 307.05 132.65 307.53
  Q 153.38 355.37 199.39 379.29
  Q 217.05 388.47 236.70 392.47
  Q 237.58 392.64 237.05 391.92
  Q 232.04 385.04 228.23 376.86
  Q 227.71 375.75 228.89 376.10
  Q 280.87 391.24 328.30 368.72
  Q 328.76 368.50 328.35 368.22
  L 321.05 363.27
  Q 320.00 362.55 321.19 362.12
  Q 330.43 358.73 338.61 353.90
  Q 371.78 334.36 389.41 299.87
  Q 389.83 299.06 388.96 299.35
  Q 379.48 302.51 370.00 303.46
  L 362.20 303.78
  C 361.94 303.79 361.74 303.55 361.80 303.30
  Q 364.82 290.12 363.70 276.69
  C 363.67 276.29 363.24 276.04 362.86 276.20
  L 352.75 280.29
  Q 343.10 283.14 333.14 283.68
  C 332.97 283.69 332.83 283.53 332.86 283.36
  Q 335.62 268.23 332.81 253.55
  Q 332.80 253.51 332.80 252.95
  Q 332.81 252.52 332.25 252.46
  Q 333.61 250.93 331.60 251.55
  Q 331.16 251.69 330.74 251.70
  Q 328.99 251.75 327.24 251.87
  Q 326.53 251.92 323.83 252.50
  Q 319.06 253.54 316.25 249.29
  Q 328.72 246.20 339.41 239.41
  C 339.75 239.19 340.21 239.37 340.31 239.76
  Q 344.45 255.58 342.29 271.25
  C 342.24 271.60 342.54 271.91 342.89 271.86
  Q 358.19 270.00 371.33 262.81
  C 371.50 262.71 371.72 262.82 371.75 263.02
  Q 373.95 277.62 371.50 292.21
  Z"
/>
<path fill="#c83d45" d="
  M 394.21 287.75
  L 394.49 287.99
  C 394.66 288.14 394.74 288.38 394.69 288.62
  Q 394.22 291.01 391.50 292.50
  Q 389.01 293.86 386.91 294.50
  Q 385.90 294.80 382.16 295.78
  Q 379.50 296.48 375.75 296.75
  Q 371.14 297.09 370.78 293.21
  C 370.75 292.87 370.87 292.57 371.09 292.44
  L 371.50 292.21
  Q 383.16 291.50 394.21 287.75
  Z"
/>
</svg>
