<?xml version="1.0" encoding="UTF-8" standalone="no"?>
<!DOCTYPE svg PUBLIC "-//W3C//DTD SVG 1.1//EN" "http://www.w3.org/Graphics/SVG/1.1/DTD/svg11.dtd">
<svg xmlns="http://www.w3.org/2000/svg" version="1.1" viewBox="0 0 512 512">
<g stroke-width="2.0" fill="none" stroke-linecap="butt">
<path stroke="#808080" vector-effect="non-scaling-stroke" d="
  M 91.06 0.00
  Q 91.82 0.45 92.76 0.32
  Q 94.65 0.05 94.28 0.44
  Q 94.05 0.68 93.53 0.72
  Q 62.46 3.19 38.56 22.56
  Q 4.58 50.10 0.26 94.23
  Q 0.15 95.26 0.33 93.51
  Q 0.44 92.40 0.00 91.44"
/>
<path stroke="#808080" vector-effect="non-scaling-stroke" d="
  M 420.81 0.00
  Q 415.52 0.66 419.23 0.97
  Q 449.61 3.50 473.21 22.56
  Q 507.41 50.18 511.46 94.25
  Q 511.50 94.70 511.52 94.25
  Q 511.61 92.51 512.00 90.81"
/>
<path stroke="#808080" vector-effect="non-scaling-stroke" d="
  M 512.00 420.31
  Q 511.40 416.88 511.12 419.99
  Q 509.37 439.30 500.35 456.42
  Q 481.37 492.44 442.98 506.19
  Q 430.86 510.54 417.99 511.09
  Q 415.73 511.19 417.79 511.70
  Q 417.99 511.75 418.22 511.73
  Q 419.74 511.59 421.19 512.00"
/>
<path stroke="#808080" vector-effect="non-scaling-stroke" d="
  M 91.19 512.00
  Q 92.29 511.56 93.50 511.71
  Q 95.40 511.96 95.03 511.56
  Q 94.80 511.32 94.27 511.30
  Q 86.30 510.99 79.25 509.25
  Q 37.18 498.89 14.64 461.89
  Q 2.00 441.13 0.59 416.82
  Q 0.56 416.35 0.54 416.82
  Q 0.40 419.39 0.00 421.94"
/>
<path stroke="#a1e2c7" vector-effect="non-scaling-stroke" d="
  M 187.29 115.75
  L 160.79 170.00"
/>
<path stroke="#9ddcbf" vector-effect="non-scaling-stroke" d="
  M 160.79 170.00
  L 119.00 255.46"
/>
<path stroke="#97d6b7" vector-effect="non-scaling-stroke" d="
  M 119.00 255.46
  L 84.54 325.75"
/>
<path stroke="#93d0b2" vector-effect="non-scaling-stroke" d="
  M 84.54 325.75
  L 73.20 348.91
  C 72.93 349.46 72.93 350.11 73.20 350.66
  L 117.75 442.54"
/>
<path stroke="#f3f8f5" vector-effect="non-scaling-stroke" d="
  M 117.75 442.54
  Q 118.90 442.76 119.34 443.48
  Q 120.13 444.81 120.82 443.42
  Q 126.99 431.03 133.14 418.87
  Q 133.99 417.17 136.18 412.13
  Q 137.66 408.72 139.53 405.51
  Q 140.46 403.91 141.23 401.20
  Q 142.20 397.78 144.75 394.00
  Q 148.01 389.16 148.94 386.19
  Q 150.12 382.40 151.17 380.35
  Q 152.11 378.53 152.13 378.48
  Q 156.13 369.82 160.39 361.28
  Q 161.15 359.75 163.13 357.57
  Q 166.59 353.74 167.00 348.29"
/>
<path stroke="#a7c7f8" vector-effect="non-scaling-stroke" d="
  M 167.00 348.29
  L 240.00 348.21"
/>
<path stroke="#adccfa" vector-effect="non-scaling-stroke" d="
  M 240.00 348.21
  L 276.25 348.21"
/>
<path stroke="#b5d4fb" vector-effect="non-scaling-stroke" d="
  M 276.25 348.21
  L 342.50 348.21"
/>
<path stroke="#bcd2eb" vector-effect="non-scaling-stroke" d="
  M 342.50 348.21
  L 346.21 348.50"
/>
<path stroke="#ffe9ae" vector-effect="non-scaling-stroke" d="
  M 346.21 348.50
  Q 346.62 349.06 347.11 348.94
  Q 347.44 348.86 347.70 348.35
  Q 370.02 302.99 392.99 256.58
  C 393.29 255.97 393.29 255.26 392.99 254.66
  L 375.25 218.96"
/>
<path stroke="#ffeeb8" vector-effect="non-scaling-stroke" d="
  M 375.25 218.96
  L 304.21 74.50"
/>
<path stroke="#f0ebbc" vector-effect="non-scaling-stroke" d="
  M 304.21 74.50
  Q 303.71 73.43 303.29 72.31
  Q 303.23 72.15 303.02 71.03
  Q 302.81 69.85 301.50 70.46"
/>
<path stroke="#a5e6cc" vector-effect="non-scaling-stroke" d="
  M 301.50 70.46
  Q 302.33 68.21 300.26 68.38
  Q 298.83 68.50 298.74 68.50
  Q 254.74 68.32 210.75 68.75
  C 210.44 68.75 210.16 68.92 210.03 69.20
  L 187.29 115.75"
/>
<path stroke="#96d189" vector-effect="non-scaling-stroke" d="
  M 301.50 70.46
  Q 291.92 88.91 280.25 113.00
  Q 273.64 126.64 261.54 150.75"
/>
<path stroke="#47c894" vector-effect="non-scaling-stroke" d="
  M 261.54 150.75
  Q 261.63 150.12 261.31 150.01
  C 261.08 149.94 260.78 150.16 260.63 150.52
  Q 259.64 152.82 257.71 154.39
  Q 257.35 154.68 257.34 154.19
  Q 257.32 152.75 256.17 151.83
  Q 254.62 150.60 252.79 150.00
  Q 250.05 149.10 249.25 148.68
  Q 241.93 144.86 234.58 141.09
  Q 234.50 141.05 231.94 140.08
  Q 230.25 139.44 229.09 137.91
  Q 227.56 135.88 225.12 136.23
  C 224.24 136.36 223.34 136.17 222.58 135.70
  Q 214.77 130.82 205.99 128.21
  Q 203.93 127.59 201.78 126.13
  Q 198.17 123.67 193.86 122.63
  Q 191.52 122.06 190.44 121.16
  Q 188.94 119.92 187.98 118.19
  C 187.85 117.96 187.85 117.63 187.99 117.31
  Q 188.45 116.25 187.29 115.75"
/>
<path stroke="#f0d974" vector-effect="non-scaling-stroke" d="
  M 304.21 74.50
  Q 303.23 74.32 302.44 74.74
  Q 301.82 75.07 301.47 76.06
  Q 300.08 79.97 298.23 83.60
  Q 298.09 83.88 297.98 84.17
  Q 296.65 87.70 295.38 89.88
  Q 293.73 92.70 293.13 94.32
  Q 291.99 97.36 290.40 100.21
  Q 289.71 101.45 288.99 103.47
  Q 288.38 105.18 287.41 106.70
  Q 285.30 110.01 284.76 111.26
  Q 281.33 119.18 279.44 122.44
  Q 277.25 126.21 276.09 128.82
  Q 275.52 130.13 274.37 131.83
  Q 273.38 133.31 272.80 134.97
  Q 271.58 138.48 270.95 139.66
  Q 268.40 144.44 265.19 151.94
  Q 262.98 157.08 258.45 163.97
  Q 258.13 164.47 257.48 164.99
  Q 256.93 165.45 256.46 166.00"
/>
<path stroke="#dce3ad" vector-effect="non-scaling-stroke" d="
  M 256.46 166.00
  Q 255.64 164.89 255.46 163.50"
/>
<path stroke="#92cd83" vector-effect="non-scaling-stroke" d="
  M 255.46 163.50
  L 261.54 150.75"
/>
<path stroke="#8ddab8" vector-effect="non-scaling-stroke" d="
  M 255.46 163.50
  L 235.50 203.54"
/>
<path stroke="#3fbe87" vector-effect="non-scaling-stroke" d="
  M 235.50 203.54
  L 234.66 203.48
  C 234.44 203.47 234.15 203.25 233.91 202.90
  Q 232.01 200.22 229.08 199.07
  Q 225.62 197.72 224.77 197.25
  Q 219.43 194.28 213.54 192.57
  C 213.25 192.49 212.99 192.28 212.84 191.99
  Q 212.00 190.38 210.94 190.06
  Q 206.75 188.82 202.88 186.80
  Q 202.53 186.61 201.94 186.62
  Q 201.04 186.63 199.69 186.06
  Q 191.11 182.49 188.45 181.03
  Q 182.93 177.99 178.56 177.44
  Q 175.88 177.10 173.98 175.99
  Q 172.20 174.94 171.12 174.73
  Q 169.55 174.42 167.95 174.19
  Q 163.58 173.58 162.73 169.51
  Q 162.67 169.25 162.50 169.45
  Q 161.59 170.50 160.79 170.00"
/>
<path stroke="#def0e6" vector-effect="non-scaling-stroke" d="
  M 263.71 180.00
  Q 261.79 180.50 261.32 178.48
  Q 260.89 176.65 259.62 175.35
  C 259.39 175.12 259.23 174.82 259.17 174.50
  Q 258.78 172.38 257.42 170.81
  Q 256.58 169.84 255.65 169.90
  Q 254.39 169.98 254.04 171.75"
/>
<path stroke="#ebf7f0" vector-effect="non-scaling-stroke" d="
  M 254.04 171.75
  Q 251.88 174.23 251.49 177.45
  C 251.45 177.78 251.28 178.07 251.04 178.24
  L 250.11 178.91
  C 249.85 179.09 249.67 179.36 249.60 179.68
  Q 249.28 181.17 248.19 182.23
  Q 247.80 182.61 247.65 183.04
  Q 246.02 187.75 244.94 189.19
  Q 243.71 190.82 243.40 192.06
  Q 243.27 192.59 242.96 192.92
  Q 240.50 195.52 240.44 199.19
  C 240.43 199.52 240.33 199.84 240.15 200.09
  Q 238.47 202.51 237.00 205.05
  Q 236.96 205.12 235.94 206.44
  Q 235.35 207.22 235.26 208.25
  C 235.23 208.57 235.08 208.85 234.84 209.02
  Q 232.71 210.58 232.68 213.44
  C 232.67 213.73 232.51 214.00 232.25 214.16
  Q 231.08 214.86 230.81 216.10
  Q 230.35 218.24 230.32 218.32
  Q 229.32 220.62 227.80 222.61
  C 227.62 222.86 227.53 223.17 227.55 223.50
  Q 227.71 225.67 226.57 227.31
  Q 225.03 229.53 224.84 229.97
  Q 224.20 231.46 223.62 232.97
  C 223.51 233.24 223.30 233.51 223.03 233.73
  Q 221.69 234.79 221.52 236.51
  C 221.49 236.84 221.36 237.14 221.15 237.37
  L 219.91 238.69
  C 219.70 238.91 219.58 239.22 219.57 239.57
  Q 219.51 241.34 218.20 242.50
  C 217.95 242.73 217.77 243.01 217.69 243.30
  Q 217.20 245.21 216.34 246.96
  Q 215.98 247.70 215.25 250.23
  Q 214.51 252.81 211.56 253.56
  Q 211.19 253.94 211.21 253.25"
/>
<path stroke="#88d4b0" vector-effect="non-scaling-stroke" d="
  M 211.21 253.25
  L 235.50 203.54"
/>
<path stroke="#ffd867" vector-effect="non-scaling-stroke" d="
  M 375.25 218.96
  Q 374.38 219.40 374.54 218.96
  C 374.62 218.76 374.59 218.55 374.48 218.45
  L 372.72 216.85
  C 372.54 216.69 372.25 216.80 372.17 217.05
  Q 371.43 219.37 369.63 220.93
  C 369.41 221.13 369.08 221.19 368.77 221.09
  Q 364.26 219.65 360.59 222.23
  Q 358.77 223.51 358.70 223.55
  Q 353.85 226.54 352.06 226.81
  Q 349.54 227.20 347.15 228.03
  Q 345.64 228.55 344.20 230.04
  Q 342.45 231.84 341.31 232.31
  Q 337.71 233.81 334.21 235.55
  Q 333.47 235.91 331.54 236.49
  Q 330.12 236.91 328.95 237.77
  Q 326.16 239.83 325.58 240.11
  Q 323.74 241.03 321.90 241.93
  Q 320.25 242.73 318.13 243.49
  Q 309.68 246.56 305.94 249.44
  Q 302.33 252.21 303.78 257.07
  Q 304.30 258.81 303.68 258.03
  Q 303.36 257.63 302.72 256.03
  C 302.67 255.91 302.56 255.82 302.43 255.81
  Q 301.19 255.69 301.71 257.00"
/>
<path stroke="#bcc0a4" vector-effect="non-scaling-stroke" d="
  M 301.71 257.00
  Q 301.11 255.64 300.00 254.71"
/>
<path stroke="#f3e6ad" vector-effect="non-scaling-stroke" d="
  M 300.00 254.71
  Q 300.06 254.17 299.56 253.19
  Q 285.28 224.89 263.71 180.00"
/>
<path stroke="#ebe6a9" vector-effect="non-scaling-stroke" d="
  M 263.71 180.00
  Q 260.85 172.59 256.46 166.00"
/>
<path stroke="#9ddcbf" vector-effect="non-scaling-stroke" d="
  M 211.21 253.25
  Q 210.70 253.77 210.71 254.50"
/>
<path stroke="#4ba9ba" vector-effect="non-scaling-stroke" d="
  M 210.71 254.50
  L 186.29 304.25"
/>
<path stroke="#34b277" vector-effect="non-scaling-stroke" d="
  M 186.29 304.25
  Q 186.57 301.97 188.25 299.00
  Q 189.16 297.38 188.95 295.41
  Q 188.76 293.73 187.34 292.41
  Q 185.38 290.58 183.25 290.00
  Q 180.23 289.18 179.34 286.79
  C 179.23 286.49 179.00 286.26 178.71 286.15
  Q 176.63 285.37 174.81 283.44
  Q 173.01 281.52 170.45 280.72
  Q 166.26 279.40 166.17 279.36
  Q 164.08 278.45 162.01 277.49
  Q 160.63 276.85 158.92 275.43
  Q 157.47 274.22 155.84 273.29
  Q 154.74 272.67 152.86 272.51
  Q 150.62 272.32 149.81 271.44
  Q 148.33 269.82 146.64 269.42
  Q 144.57 268.93 142.80 267.76
  Q 140.91 266.51 139.02 266.04
  Q 135.93 265.26 135.15 264.89
  Q 132.80 263.77 130.51 262.52
  Q 129.30 261.86 125.76 260.54
  Q 122.64 259.39 120.24 256.99
  C 120.11 256.86 119.89 256.82 119.68 256.89
  Q 119.06 257.10 119.42 256.37
  Q 119.73 255.74 119.00 255.46"
/>
<path stroke="#bcd2eb" vector-effect="non-scaling-stroke" d="
  M 298.54 254.75
  Q 297.98 255.15 297.25 255.04"
/>
<path stroke="#b5d4fb" vector-effect="non-scaling-stroke" d="
  M 297.25 255.04
  L 240.75 255.04"
/>
<path stroke="#adccfa" vector-effect="non-scaling-stroke" d="
  M 240.75 255.04
  Q 228.57 255.45 216.38 255.04
  Q 216.29 255.04 214.12 255.12
  Q 212.37 255.18 210.71 254.50"
/>
<path stroke="#afcae1" vector-effect="non-scaling-stroke" d="
  M 300.00 254.71
  L 298.54 254.75"
/>
<path stroke="#f3f8f5" vector-effect="non-scaling-stroke" d="
  M 298.54 254.75
  Q 298.62 253.56 297.39 253.22
  C 296.53 252.98 295.81 252.40 295.39 251.61
  Q 292.90 246.92 290.65 241.94
  Q 287.39 234.74 286.12 232.16
  Q 271.29 202.01 256.16 172.00
  C 256.00 171.70 255.73 171.49 255.44 171.47
  Q 254.70 171.40 254.04 171.75"
/>
<path stroke="#71a6e7" vector-effect="non-scaling-stroke" d="
  M 342.50 348.21
  Q 342.76 346.05 341.66 344.47
  Q 339.89 341.92 339.79 341.71
  Q 337.01 335.61 334.43 329.41
  Q 334.41 329.38 333.47 326.38
  Q 332.68 323.85 330.48 322.23
  C 330.24 322.05 330.07 321.77 330.01 321.44
  Q 329.76 319.90 328.19 317.56
  Q 324.29 311.78 321.50 302.00
  Q 321.00 300.23 317.23 295.20
  C 317.06 294.97 316.98 294.65 317.01 294.31
  Q 317.21 291.88 315.06 289.44
  Q 312.12 286.09 307.94 276.56
  Q 307.48 275.51 306.17 273.52
  Q 305.28 272.16 304.75 270.37
  Q 303.81 267.15 302.19 264.81
  Q 300.09 261.79 299.57 258.74
  C 299.52 258.44 299.35 258.16 299.10 257.95
  Q 297.72 256.82 297.25 255.04"
/>
<path stroke="#bcbc9a" vector-effect="non-scaling-stroke" d="
  M 346.21 348.50
  Q 346.24 347.77 345.31 345.94
  Q 332.29 320.17 301.71 257.00"
/>
<path stroke="#63a1f5" vector-effect="non-scaling-stroke" d="
  M 240.75 255.04
  Q 242.06 255.65 243.49 255.56
  C 243.83 255.53 244.16 255.63 244.38 255.83
  Q 249.66 260.52 252.44 266.31
  Q 253.02 267.53 253.31 269.25
  Q 253.61 271.01 254.08 272.16
  Q 258.83 283.78 266.56 304.44
  Q 267.34 306.50 267.09 308.26
  C 267.05 308.57 267.15 308.89 267.36 309.10
  Q 270.68 312.47 271.78 316.94
  Q 272.79 321.03 273.35 322.38
  Q 275.37 327.31 277.17 332.34
  Q 277.21 332.46 277.84 335.74
  Q 278.21 337.65 279.80 339.00
  Q 280.09 339.25 280.29 339.80
  L 282.52 345.82
  C 282.62 346.09 282.60 346.40 282.45 346.65
  Q 282.19 347.12 282.51 347.43
  Q 282.81 347.72 282.44 347.74
  L 276.25 348.21"
/>
<path stroke="#5594f3" vector-effect="non-scaling-stroke" d="
  M 240.00 348.21
  Q 240.70 347.84 241.58 348.02
  Q 242.18 348.13 241.79 347.66
  Q 240.17 345.66 239.97 342.55
  C 239.93 341.94 239.45 341.45 238.84 341.40
  Q 235.98 341.17 236.86 337.97
  C 236.94 337.68 236.89 337.35 236.72 337.08
  Q 235.67 335.37 236.11 333.48
  C 236.19 333.14 236.18 332.81 236.08 332.54
  Q 232.99 324.37 229.95 316.18
  Q 229.93 316.13 228.81 313.49
  Q 227.80 311.09 226.50 306.50
  Q 225.69 303.63 219.11 288.85
  Q 215.84 281.51 213.75 273.75
  Q 213.51 272.84 212.27 270.91
  C 212.10 270.65 212.01 270.33 212.01 270.00
  Q 212.02 267.48 210.90 265.52
  C 210.67 265.10 210.64 264.57 210.84 264.08
  L 213.56 257.30
  C 213.67 257.02 213.55 256.69 213.28 256.52
  Q 211.75 255.56 211.49 257.10
  Q 211.30 258.23 211.08 258.69
  Q 205.97 269.54 200.38 280.16
  Q 199.43 281.97 198.71 283.89
  Q 197.85 286.19 197.08 287.59
  Q 186.59 306.74 176.76 326.24
  Q 176.71 326.34 172.67 335.46
  Q 170.62 340.09 167.72 344.28
  C 167.53 344.56 167.45 344.88 167.49 345.18
  Q 167.68 346.52 168.57 347.44
  C 168.69 347.57 168.64 347.78 168.47 347.82
  Q 165.45 348.58 165.46 346.50"
/>
<path stroke="#45a3b2" vector-effect="non-scaling-stroke" d="
  M 165.46 346.50
  L 186.29 304.25"
/>
<path stroke="#3f9eb0" vector-effect="non-scaling-stroke" d="
  M 165.46 346.50
  L 164.54 348.25"
/>
<path stroke="#8acead" vector-effect="non-scaling-stroke" d="
  M 164.54 348.25
  L 154.79 367.75"
/>
<path stroke="#2ba76a" vector-effect="non-scaling-stroke" d="
  M 154.79 367.75
  Q 153.34 364.96 154.99 362.09
  Q 156.01 360.32 154.33 359.16
  Q 149.86 356.08 145.36 353.25
  Q 144.03 352.42 141.90 350.40
  Q 140.24 348.81 138.19 347.72
  C 137.92 347.58 137.60 347.54 137.27 347.59
  Q 134.90 347.97 133.94 346.56
  Q 132.61 344.62 130.31 344.56
  C 129.67 344.55 128.75 344.04 127.81 343.19
  Q 123.84 339.58 118.50 339.04
  C 118.18 339.01 117.87 338.89 117.60 338.70
  Q 115.63 337.26 112.69 336.56
  Q 109.68 335.85 106.11 334.42
  Q 105.26 334.08 99.88 331.45
  Q 96.35 329.72 92.59 328.49
  Q 90.98 327.97 89.75 326.89
  Q 88.51 325.80 87.24 324.74
  C 86.90 324.46 86.39 324.60 86.24 325.01
  Q 85.87 326.06 84.54 325.75"
/>
<path stroke="#9bc0ee" vector-effect="non-scaling-stroke" d="
  M 167.00 348.29
  L 164.54 348.25"
/>
<path stroke="#87c9a7" vector-effect="non-scaling-stroke" d="
  M 154.79 367.75
  Q 137.08 404.26 119.03 440.62
  Q 119.01 440.66 118.71 441.56
  Q 118.47 442.27 117.75 442.54"
/>
<path stroke="#ccf5d7" vector-effect="non-scaling-stroke" d="
  M 458.75 331.54
  L 405.44 332.00
  C 405.05 332.00 404.80 332.42 404.97 332.77
  L 417.25 357.71"
/>
<path stroke="#b6f0c6" vector-effect="non-scaling-stroke" d="
  M 417.25 357.71
  L 350.92 357.99
  C 350.48 357.99 350.20 358.45 350.39 358.84
  L 393.24 444.98
  Q 393.75 446.01 394.26 444.98
  L 427.54 378.25"
/>
<path stroke="#ccf5d7" vector-effect="non-scaling-stroke" d="
  M 427.54 378.25
  L 432.82 388.71
  Q 433.50 390.05 434.17 388.73
  L 460.04 337.00"
/>
<path stroke="#e2f9e8" vector-effect="non-scaling-stroke" d="
  M 460.04 337.00
  Q 460.86 336.94 461.00 337.75
  Q 462.24 339.11 463.00 337.50
  Q 470.71 321.18 478.92 304.84
  C 479.06 304.57 478.86 304.25 478.56 304.25
  L 445.84 304.27
  C 445.48 304.27 445.24 304.65 445.40 304.98
  Q 451.41 317.85 457.81 330.44
  Q 458.27 331.33 458.75 331.54"
/>
<path stroke="#afeec0" vector-effect="non-scaling-stroke" d="
  M 460.04 337.00
  L 462.19 333.17
  C 462.55 332.53 462.20 331.74 461.54 331.70
  L 458.75 331.54"
/>
<path stroke="#83e69e" vector-effect="non-scaling-stroke" d="
  M 427.54 378.25
  L 437.06 358.97
  C 437.29 358.51 436.95 357.97 436.43 357.96
  L 417.25 357.71"
/>
</g>
<path fill="#000000" d="
  M 0.00 0.00
  Q 45.53 0.00 91.06 0.00
  Q 91.82 0.45 92.76 0.32
  Q 94.65 0.05 94.28 0.44
  Q 94.05 0.68 93.53 0.72
  Q 62.46 3.19 38.56 22.56
  Q 4.58 50.10 0.26 94.23
  Q 0.15 95.26 0.33 93.51
  Q 0.44 92.40 0.00 91.44
  Q 0.00 45.72 0.00 0.00
  Z"
/>
<path fill="#ffffff" d="
  M 91.06 0.00
  Q 255.94 0.00 420.81 0.00
  Q 415.52 0.66 419.23 0.97
  Q 449.61 3.50 473.21 22.56
  Q 507.41 50.18 511.46 94.25
  Q 511.50 94.70 511.52 94.25
  Q 511.61 92.51 512.00 90.81
  Q 512.00 255.56 512.00 420.31
  Q 511.40 416.88 511.12 419.99
  Q 509.37 439.30 500.35 456.42
  Q 481.37 492.44 442.98 506.19
  Q 430.86 510.54 417.99 511.09
  Q 415.73 511.19 417.79 511.70
  Q 417.99 511.75 418.22 511.73
  Q 419.74 511.59 421.19 512.00
  Q 256.19 512.00 91.19 512.00
  Q 92.29 511.56 93.50 511.71
  Q 95.40 511.96 95.03 511.56
  Q 94.80 511.32 94.27 511.30
  Q 86.30 510.99 79.25 509.25
  Q 37.18 498.89 14.64 461.89
  Q 2.00 441.13 0.59 416.82
  Q 0.56 416.35 0.54 416.82
  Q 0.40 419.39 0.00 421.94
  Q 0.00 256.69 0.00 91.44
  Q 0.44 92.40 0.33 93.51
  Q 0.15 95.26 0.26 94.23
  Q 4.58 50.10 38.56 22.56
  Q 62.46 3.19 93.53 0.72
  Q 94.05 0.68 94.28 0.44
  Q 94.65 0.05 92.76 0.32
  Q 91.82 0.45 91.06 0.00
  Z
  M 187.29 115.75
  L 160.79 170.00
  L 119.00 255.46
  L 84.54 325.75
  L 73.20 348.91
  C 72.93 349.46 72.93 350.11 73.20 350.66
  L 117.75 442.54
  Q 118.90 442.76 119.34 443.48
  Q 120.13 444.81 120.82 443.42
  Q 126.99 431.03 133.14 418.87
  Q 133.99 417.17 136.18 412.13
  Q 137.66 408.72 139.53 405.51
  Q 140.46 403.91 141.23 401.20
  Q 142.20 397.78 144.75 394.00
  Q 148.01 389.16 148.94 386.19
  Q 150.12 382.40 151.17 380.35
  Q 152.11 378.53 152.13 378.48
  Q 156.13 369.82 160.39 361.28
  Q 161.15 359.75 163.13 357.57
  Q 166.59 353.74 167.00 348.29
  L 240.00 348.21
  L 276.25 348.21
  L 342.50 348.21
  L 346.21 348.50
  Q 346.62 349.06 347.11 348.94
  Q 347.44 348.86 347.70 348.35
  Q 370.02 302.99 392.99 256.58
  C 393.29 255.97 393.29 255.26 392.99 254.66
  L 375.25 218.96
  L 304.21 74.50
  Q 303.71 73.43 303.29 72.31
  Q 303.23 72.15 303.02 71.03
  Q 302.81 69.85 301.50 70.46
  Q 302.33 68.21 300.26 68.38
  Q 298.83 68.50 298.74 68.50
  Q 254.74 68.32 210.75 68.75
  C 210.44 68.75 210.16 68.92 210.03 69.20
  L 187.29 115.75
  Z
  M 458.75 331.54
  L 405.44 332.00
  C 405.05 332.00 404.80 332.42 404.97 332.77
  L 417.25 357.71
  L 350.92 357.99
  C 350.48 357.99 350.20 358.45 350.39 358.84
  L 393.24 444.98
  Q 393.75 446.01 394.26 444.98
  L 427.54 378.25
  L 432.82 388.71
  Q 433.50 390.05 434.17 388.73
  L 460.04 337.00
  Q 460.86 336.94 461.00 337.75
  Q 462.24 339.11 463.00 337.50
  Q 470.71 321.18 478.92 304.84
  C 479.06 304.57 478.86 304.25 478.56 304.25
  L 445.84 304.27
  C 445.48 304.27 445.24 304.65 445.40 304.98
  Q 451.41 317.85 457.81 330.44
  Q 458.27 331.33 458.75 331.54
  Z"
/>
<path fill="#000000" d="
  M 420.81 0.00
  Q 466.41 0.00 512.00 0.00
  Q 512.00 45.41 512.00 90.81
  Q 511.61 92.51 511.52 94.25
  Q 511.50 94.70 511.46 94.25
  Q 507.41 50.18 473.21 22.56
  Q 449.61 3.50 419.23 0.97
  Q 415.52 0.66 420.81 0.00
  Z"
/>
<path fill="#4bcc99" d="
  M 301.50 70.46
  Q 291.92 88.91 280.25 113.00
  Q 273.64 126.64 261.54 150.75
  Q 261.63 150.12 261.31 150.01
  C 261.08 149.94 260.78 150.16 260.63 150.52
  Q 259.64 152.82 257.71 154.39
  Q 257.35 154.68 257.34 154.19
  Q 257.32 152.75 256.17 151.83
  Q 254.62 150.60 252.79 150.00
  Q 250.05 149.10 249.25 148.68
  Q 241.93 144.86 234.58 141.09
  Q 234.50 141.05 231.94 140.08
  Q 230.25 139.44 229.09 137.91
  Q 227.56 135.88 225.12 136.23
  C 224.24 136.36 223.34 136.17 222.58 135.70
  Q 214.77 130.82 205.99 128.21
  Q 203.93 127.59 201.78 126.13
  Q 198.17 123.67 193.86 122.63
  Q 191.52 122.06 190.44 121.16
  Q 188.94 119.92 187.98 118.19
  C 187.85 117.96 187.85 117.63 187.99 117.31
  Q 188.45 116.25 187.29 115.75
  L 210.03 69.20
  C 210.16 68.92 210.44 68.75 210.75 68.75
  Q 254.74 68.32 298.74 68.50
  Q 298.83 68.50 300.26 68.38
  Q 302.33 68.21 301.50 70.46
  Z"
/>
<path fill="#e1d678" d="
  M 304.21 74.50
  Q 303.23 74.32 302.44 74.74
  Q 301.82 75.07 301.47 76.06
  Q 300.08 79.97 298.23 83.60
  Q 298.09 83.88 297.98 84.17
  Q 296.65 87.70 295.38 89.88
  Q 293.73 92.70 293.13 94.32
  Q 291.99 97.36 290.40 100.21
  Q 289.71 101.45 288.99 103.47
  Q 288.38 105.18 287.41 106.70
  Q 285.30 110.01 284.76 111.26
  Q 281.33 119.18 279.44 122.44
  Q 277.25 126.21 276.09 128.82
  Q 275.52 130.13 274.37 131.83
  Q 273.38 133.31 272.80 134.97
  Q 271.58 138.48 270.95 139.66
  Q 268.40 144.44 265.19 151.94
  Q 262.98 157.08 258.45 163.97
  Q 258.13 164.47 257.48 164.99
  Q 256.93 165.45 256.46 166.00
  Q 255.64 164.89 255.46 163.50
  L 261.54 150.75
  Q 273.64 126.64 280.25 113.00
  Q 291.92 88.91 301.50 70.46
  Q 302.81 69.85 303.02 71.03
  Q 303.23 72.15 303.29 72.31
  Q 303.71 73.43 304.21 74.50
  Z"
/>
<path fill="#ffdc70" d="
  M 304.21 74.50
  L 375.25 218.96
  Q 374.38 219.40 374.54 218.96
  C 374.62 218.76 374.59 218.55 374.48 218.45
  L 372.72 216.85
  C 372.54 216.69 372.25 216.80 372.17 217.05
  Q 371.43 219.37 369.63 220.93
  C 369.41 221.13 369.08 221.19 368.77 221.09
  Q 364.26 219.65 360.59 222.23
  Q 358.77 223.51 358.70 223.55
  Q 353.85 226.54 352.06 226.81
  Q 349.54 227.20 347.15 228.03
  Q 345.64 228.55 344.20 230.04
  Q 342.45 231.84 341.31 232.31
  Q 337.71 233.81 334.21 235.55
  Q 333.47 235.91 331.54 236.49
  Q 330.12 236.91 328.95 237.77
  Q 326.16 239.83 325.58 240.11
  Q 323.74 241.03 321.90 241.93
  Q 320.25 242.73 318.13 243.49
  Q 309.68 246.56 305.94 249.44
  Q 302.33 252.21 303.78 257.07
  Q 304.30 258.81 303.68 258.03
  Q 303.36 257.63 302.72 256.03
  C 302.67 255.91 302.56 255.82 302.43 255.81
  Q 301.19 255.69 301.71 257.00
  Q 301.11 255.64 300.00 254.71
  Q 300.06 254.17 299.56 253.19
  Q 285.28 224.89 263.71 180.00
  Q 260.85 172.59 256.46 166.00
  Q 256.93 165.45 257.48 164.99
  Q 258.13 164.47 258.45 163.97
  Q 262.98 157.08 265.19 151.94
  Q 268.40 144.44 270.95 139.66
  Q 271.58 138.48 272.80 134.97
  Q 273.38 133.31 274.37 131.83
  Q 275.52 130.13 276.09 128.82
  Q 277.25 126.21 279.44 122.44
  Q 281.33 119.18 284.76 111.26
  Q 285.30 110.01 287.41 106.70
  Q 288.38 105.18 288.99 103.47
  Q 289.71 101.45 290.40 100.21
  Q 291.99 97.36 293.13 94.32
  Q 293.73 92.70 295.38 89.88
  Q 296.65 87.70 297.98 84.17
  Q 298.09 83.88 298.23 83.60
  Q 300.08 79.97 301.47 76.06
  Q 301.82 75.07 302.44 74.74
  Q 303.23 74.32 304.21 74.50
  Z"
/>
<path fill="#43c48e" d="
  M 187.29 115.75
  Q 188.45 116.25 187.99 117.31
  C 187.85 117.63 187.85 117.96 187.98 118.19
  Q 188.94 119.92 190.44 121.16
  Q 191.52 122.06 193.86 122.63
  Q 198.17 123.67 201.78 126.13
  Q 203.93 127.59 205.99 128.21
  Q 214.77 130.82 222.58 135.70
  C 223.34 136.17 224.24 136.36 225.12 136.23
  Q 227.56 135.88 229.09 137.91
  Q 230.25 139.44 231.94 140.08
  Q 234.50 141.05 234.58 141.09
  Q 241.93 144.86 249.25 148.68
  Q 250.05 149.10 252.79 150.00
  Q 254.62 150.60 256.17 151.83
  Q 257.32 152.75 257.34 154.19
  Q 257.35 154.68 257.71 154.39
  Q 259.64 152.82 260.63 150.52
  C 260.78 150.16 261.08 149.94 261.31 150.01
  Q 261.63 150.12 261.54 150.75
  L 255.46 163.50
  L 235.50 203.54
  L 234.66 203.48
  C 234.44 203.47 234.15 203.25 233.91 202.90
  Q 232.01 200.22 229.08 199.07
  Q 225.62 197.72 224.77 197.25
  Q 219.43 194.28 213.54 192.57
  C 213.25 192.49 212.99 192.28 212.84 191.99
  Q 212.00 190.38 210.94 190.06
  Q 206.75 188.82 202.88 186.80
  Q 202.53 186.61 201.94 186.62
  Q 201.04 186.63 199.69 186.06
  Q 191.11 182.49 188.45 181.03
  Q 182.93 177.99 178.56 177.44
  Q 175.88 177.10 173.98 175.99
  Q 172.20 174.94 171.12 174.73
  Q 169.55 174.42 167.95 174.19
  Q 163.58 173.58 162.73 169.51
  Q 162.67 169.25 162.50 169.45
  Q 161.59 170.50 160.79 170.00
  L 187.29 115.75
  Z"
/>
<path fill="#d6efe1" d="
  M 255.46 163.50
  Q 255.64 164.89 256.46 166.00
  Q 260.85 172.59 263.71 180.00
  Q 261.79 180.50 261.32 178.48
  Q 260.89 176.65 259.62 175.35
  C 259.39 175.12 259.23 174.82 259.17 174.50
  Q 258.78 172.38 257.42 170.81
  Q 256.58 169.84 255.65 169.90
  Q 254.39 169.98 254.04 171.75
  Q 251.88 174.23 251.49 177.45
  C 251.45 177.78 251.28 178.07 251.04 178.24
  L 250.11 178.91
  C 249.85 179.09 249.67 179.36 249.60 179.68
  Q 249.28 181.17 248.19 182.23
  Q 247.80 182.61 247.65 183.04
  Q 246.02 187.75 244.94 189.19
  Q 243.71 190.82 243.40 192.06
  Q 243.27 192.59 242.96 192.92
  Q 240.50 195.52 240.44 199.19
  C 240.43 199.52 240.33 199.84 240.15 200.09
  Q 238.47 202.51 237.00 205.05
  Q 236.96 205.12 235.94 206.44
  Q 235.35 207.22 235.26 208.25
  C 235.23 208.57 235.08 208.85 234.84 209.02
  Q 232.71 210.58 232.68 213.44
  C 232.67 213.73 232.51 214.00 232.25 214.16
  Q 231.08 214.86 230.81 216.10
  Q 230.35 218.24 230.32 218.32
  Q 229.32 220.62 227.80 222.61
  C 227.62 222.86 227.53 223.17 227.55 223.50
  Q 227.71 225.67 226.57 227.31
  Q 225.03 229.53 224.84 229.97
  Q 224.20 231.46 223.62 232.97
  C 223.51 233.24 223.30 233.51 223.03 233.73
  Q 221.69 234.79 221.52 236.51
  C 221.49 236.84 221.36 237.14 221.15 237.37
  L 219.91 238.69
  C 219.70 238.91 219.58 239.22 219.57 239.57
  Q 219.51 241.34 218.20 242.50
  C 217.95 242.73 217.77 243.01 217.69 243.30
  Q 217.20 245.21 216.34 246.96
  Q 215.98 247.70 215.25 250.23
  Q 214.51 252.81 211.56 253.56
  Q 211.19 253.94 211.21 253.25
  L 235.50 203.54
  L 255.46 163.50
  Z"
/>
<path fill="#3ab87f" d="
  M 235.50 203.54
  L 211.21 253.25
  Q 210.70 253.77 210.71 254.50
  L 186.29 304.25
  Q 186.57 301.97 188.25 299.00
  Q 189.16 297.38 188.95 295.41
  Q 188.76 293.73 187.34 292.41
  Q 185.38 290.58 183.25 290.00
  Q 180.23 289.18 179.34 286.79
  C 179.23 286.49 179.00 286.26 178.71 286.15
  Q 176.63 285.37 174.81 283.44
  Q 173.01 281.52 170.45 280.72
  Q 166.26 279.40 166.17 279.36
  Q 164.08 278.45 162.01 277.49
  Q 160.63 276.85 158.92 275.43
  Q 157.47 274.22 155.84 273.29
  Q 154.74 272.67 152.86 272.51
  Q 150.62 272.32 149.81 271.44
  Q 148.33 269.82 146.64 269.42
  Q 144.57 268.93 142.80 267.76
  Q 140.91 266.51 139.02 266.04
  Q 135.93 265.26 135.15 264.89
  Q 132.80 263.77 130.51 262.52
  Q 129.30 261.86 125.76 260.54
  Q 122.64 259.39 120.24 256.99
  C 120.11 256.86 119.89 256.82 119.68 256.89
  Q 119.06 257.10 119.42 256.37
  Q 119.73 255.74 119.00 255.46
  L 160.79 170.00
  Q 161.59 170.50 162.50 169.45
  Q 162.67 169.25 162.73 169.51
  Q 163.58 173.58 167.95 174.19
  Q 169.55 174.42 171.12 174.73
  Q 172.20 174.94 173.98 175.99
  Q 175.88 177.10 178.56 177.44
  Q 182.93 177.99 188.45 181.03
  Q 191.11 182.49 199.69 186.06
  Q 201.04 186.63 201.94 186.62
  Q 202.53 186.61 202.88 186.80
  Q 206.75 188.82 210.94 190.06
  Q 212.00 190.38 212.84 191.99
  C 212.99 192.28 213.25 192.49 213.54 192.57
  Q 219.43 194.28 224.77 197.25
  Q 225.62 197.72 229.08 199.07
  Q 232.01 200.22 233.91 202.90
  C 234.15 203.25 234.44 203.47 234.66 203.48
  L 235.50 203.54
  Z"
/>
<path fill="#e6f0ea" d="
  M 263.71 180.00
  Q 285.28 224.89 299.56 253.19
  Q 300.06 254.17 300.00 254.71
  L 298.54 254.75
  Q 298.62 253.56 297.39 253.22
  C 296.53 252.98 295.81 252.40 295.39 251.61
  Q 292.90 246.92 290.65 241.94
  Q 287.39 234.74 286.12 232.16
  Q 271.29 202.01 256.16 172.00
  C 256.00 171.70 255.73 171.49 255.44 171.47
  Q 254.70 171.40 254.04 171.75
  Q 254.39 169.98 255.65 169.90
  Q 256.58 169.84 257.42 170.81
  Q 258.78 172.38 259.17 174.50
  C 259.23 174.82 259.39 175.12 259.62 175.35
  Q 260.89 176.65 261.32 178.48
  Q 261.79 180.50 263.71 180.00
  Z"
/>
<path fill="#ffffff" d="
  M 298.54 254.75
  Q 297.98 255.15 297.25 255.04
  L 240.75 255.04
  Q 228.57 255.45 216.38 255.04
  Q 216.29 255.04 214.12 255.12
  Q 212.37 255.18 210.71 254.50
  Q 210.70 253.77 211.21 253.25
  Q 211.19 253.94 211.56 253.56
  Q 214.51 252.81 215.25 250.23
  Q 215.98 247.70 216.34 246.96
  Q 217.20 245.21 217.69 243.30
  C 217.77 243.01 217.95 242.73 218.20 242.50
  Q 219.51 241.34 219.57 239.57
  C 219.58 239.22 219.70 238.91 219.91 238.69
  L 221.15 237.37
  C 221.36 237.14 221.49 236.84 221.52 236.51
  Q 221.69 234.79 223.03 233.73
  C 223.30 233.51 223.51 233.24 223.62 232.97
  Q 224.20 231.46 224.84 229.97
  Q 225.03 229.53 226.57 227.31
  Q 227.71 225.67 227.55 223.50
  C 227.53 223.17 227.62 222.86 227.80 222.61
  Q 229.32 220.62 230.32 218.32
  Q 230.35 218.24 230.81 216.10
  Q 231.08 214.86 232.25 214.16
  C 232.51 214.00 232.67 213.73 232.68 213.44
  Q 232.71 210.58 234.84 209.02
  C 235.08 208.85 235.23 208.57 235.26 208.25
  Q 235.35 207.22 235.94 206.44
  Q 236.96 205.12 237.00 205.05
  Q 238.47 202.51 240.15 200.09
  C 240.33 199.84 240.43 199.52 240.44 199.19
  Q 240.50 195.52 242.96 192.92
  Q 243.27 192.59 243.40 192.06
  Q 243.71 190.82 244.94 189.19
  Q 246.02 187.75 247.65 183.04
  Q 247.80 182.61 248.19 182.23
  Q 249.28 181.17 249.60 179.68
  C 249.67 179.36 249.85 179.09 250.11 178.91
  L 251.04 178.24
  C 251.28 178.07 251.45 177.78 251.49 177.45
  Q 251.88 174.23 254.04 171.75
  Q 254.70 171.40 255.44 171.47
  C 255.73 171.49 256.00 171.70 256.16 172.00
  Q 271.29 202.01 286.12 232.16
  Q 287.39 234.74 290.65 241.94
  Q 292.90 246.92 295.39 251.61
  C 295.81 252.40 296.53 252.98 297.39 253.22
  Q 298.62 253.56 298.54 254.75
  Z"
/>
<path fill="#ffd35d" d="
  M 375.25 218.96
  L 392.99 254.66
  C 393.29 255.26 393.29 255.97 392.99 256.58
  Q 370.02 302.99 347.70 348.35
  Q 347.44 348.86 347.11 348.94
  Q 346.62 349.06 346.21 348.50
  Q 346.24 347.77 345.31 345.94
  Q 332.29 320.17 301.71 257.00
  Q 301.19 255.69 302.43 255.81
  C 302.56 255.82 302.67 255.91 302.72 256.03
  Q 303.36 257.63 303.68 258.03
  Q 304.30 258.81 303.78 257.07
  Q 302.33 252.21 305.94 249.44
  Q 309.68 246.56 318.13 243.49
  Q 320.25 242.73 321.90 241.93
  Q 323.74 241.03 325.58 240.11
  Q 326.16 239.83 328.95 237.77
  Q 330.12 236.91 331.54 236.49
  Q 333.47 235.91 334.21 235.55
  Q 337.71 233.81 341.31 232.31
  Q 342.45 231.84 344.20 230.04
  Q 345.64 228.55 347.15 228.03
  Q 349.54 227.20 352.06 226.81
  Q 353.85 226.54 358.70 223.55
  Q 358.77 223.51 360.59 222.23
  Q 364.26 219.65 368.77 221.09
  C 369.08 221.19 369.41 221.13 369.63 220.93
  Q 371.43 219.37 372.17 217.05
  C 372.25 216.80 372.54 216.69 372.72 216.85
  L 374.48 218.45
  C 374.59 218.55 374.62 218.76 374.54 218.96
  Q 374.38 219.40 375.25 218.96
  Z"
/>
<path fill="#5b99f4" d="
  M 210.71 254.50
  Q 212.37 255.18 214.12 255.12
  Q 216.29 255.04 216.38 255.04
  Q 228.57 255.45 240.75 255.04
  Q 242.06 255.65 243.49 255.56
  C 243.83 255.53 244.16 255.63 244.38 255.83
  Q 249.66 260.52 252.44 266.31
  Q 253.02 267.53 253.31 269.25
  Q 253.61 271.01 254.08 272.16
  Q 258.83 283.78 266.56 304.44
  Q 267.34 306.50 267.09 308.26
  C 267.05 308.57 267.15 308.89 267.36 309.10
  Q 270.68 312.47 271.78 316.94
  Q 272.79 321.03 273.35 322.38
  Q 275.37 327.31 277.17 332.34
  Q 277.21 332.46 277.84 335.74
  Q 278.21 337.65 279.80 339.00
  Q 280.09 339.25 280.29 339.80
  L 282.52 345.82
  C 282.62 346.09 282.60 346.40 282.45 346.65
  Q 282.19 347.12 282.51 347.43
  Q 282.81 347.72 282.44 347.74
  L 276.25 348.21
  L 240.00 348.21
  Q 240.70 347.84 241.58 348.02
  Q 242.18 348.13 241.79 347.66
  Q 240.17 345.66 239.97 342.55
  C 239.93 341.94 239.45 341.45 238.84 341.40
  Q 235.98 341.17 236.86 337.97
  C 236.94 337.68 236.89 337.35 236.72 337.08
  Q 235.67 335.37 236.11 333.48
  C 236.19 333.14 236.18 332.81 236.08 332.54
  Q 232.99 324.37 229.95 316.18
  Q 229.93 316.13 228.81 313.49
  Q 227.80 311.09 226.50 306.50
  Q 225.69 303.63 219.11 288.85
  Q 215.84 281.51 213.75 273.75
  Q 213.51 272.84 212.27 270.91
  C 212.10 270.65 212.01 270.33 212.01 270.00
  Q 212.02 267.48 210.90 265.52
  C 210.67 265.10 210.64 264.57 210.84 264.08
  L 213.56 257.30
  C 213.67 257.02 213.55 256.69 213.28 256.52
  Q 211.75 255.56 211.49 257.10
  Q 211.30 258.23 211.08 258.69
  Q 205.97 269.54 200.38 280.16
  Q 199.43 281.97 198.71 283.89
  Q 197.85 286.19 197.08 287.59
  Q 186.59 306.74 176.76 326.24
  Q 176.71 326.34 172.67 335.46
  Q 170.62 340.09 167.72 344.28
  C 167.53 344.56 167.45 344.88 167.49 345.18
  Q 167.68 346.52 168.57 347.44
  C 168.69 347.57 168.64 347.78 168.47 347.82
  Q 165.45 348.58 165.46 346.50
  L 186.29 304.25
  L 210.71 254.50
  Z"
/>
<path fill="#78a4d7" d="
  M 298.54 254.75
  L 300.00 254.71
  Q 301.11 255.64 301.71 257.00
  Q 332.29 320.17 345.31 345.94
  Q 346.24 347.77 346.21 348.50
  L 342.50 348.21
  Q 342.76 346.05 341.66 344.47
  Q 339.89 341.92 339.79 341.71
  Q 337.01 335.61 334.43 329.41
  Q 334.41 329.38 333.47 326.38
  Q 332.68 323.85 330.48 322.23
  C 330.24 322.05 330.07 321.77 330.01 321.44
  Q 329.76 319.90 328.19 317.56
  Q 324.29 311.78 321.50 302.00
  Q 321.00 300.23 317.23 295.20
  C 317.06 294.97 316.98 294.65 317.01 294.31
  Q 317.21 291.88 315.06 289.44
  Q 312.12 286.09 307.94 276.56
  Q 307.48 275.51 306.17 273.52
  Q 305.28 272.16 304.75 270.37
  Q 303.81 267.15 302.19 264.81
  Q 300.09 261.79 299.57 258.74
  C 299.52 258.44 299.35 258.16 299.10 257.95
  Q 297.72 256.82 297.25 255.04
  Q 297.98 255.15 298.54 254.75
  Z"
/>
<path fill="#6aa8f6" d="
  M 240.75 255.04
  L 297.25 255.04
  Q 297.72 256.82 299.10 257.95
  C 299.35 258.16 299.52 258.44 299.57 258.74
  Q 300.09 261.79 302.19 264.81
  Q 303.81 267.15 304.75 270.37
  Q 305.28 272.16 306.17 273.52
  Q 307.48 275.51 307.94 276.56
  Q 312.12 286.09 315.06 289.44
  Q 317.21 291.88 317.01 294.31
  C 316.98 294.65 317.06 294.97 317.23 295.20
  Q 321.00 300.23 321.50 302.00
  Q 324.29 311.78 328.19 317.56
  Q 329.76 319.90 330.01 321.44
  C 330.07 321.77 330.24 322.05 330.48 322.23
  Q 332.68 323.85 333.47 326.38
  Q 334.41 329.38 334.43 329.41
  Q 337.01 335.61 339.79 341.71
  Q 339.89 341.92 341.66 344.47
  Q 342.76 346.05 342.50 348.21
  L 276.25 348.21
  L 282.44 347.74
  Q 282.81 347.72 282.51 347.43
  Q 282.19 347.12 282.45 346.65
  C 282.60 346.40 282.62 346.09 282.52 345.82
  L 280.29 339.80
  Q 280.09 339.25 279.80 339.00
  Q 278.21 337.65 277.84 335.74
  Q 277.21 332.46 277.17 332.34
  Q 275.37 327.31 273.35 322.38
  Q 272.79 321.03 271.78 316.94
  Q 270.68 312.47 267.36 309.10
  C 267.15 308.89 267.05 308.57 267.09 308.26
  Q 267.34 306.50 266.56 304.44
  Q 258.83 283.78 254.08 272.16
  Q 253.61 271.01 253.31 269.25
  Q 253.02 267.53 252.44 266.31
  Q 249.66 260.52 244.38 255.83
  C 244.16 255.63 243.83 255.53 243.49 255.56
  Q 242.06 255.65 240.75 255.04
  Z"
/>
<path fill="#2eac6f" d="
  M 119.00 255.46
  Q 119.73 255.74 119.42 256.37
  Q 119.06 257.10 119.68 256.89
  C 119.89 256.82 120.11 256.86 120.24 256.99
  Q 122.64 259.39 125.76 260.54
  Q 129.30 261.86 130.51 262.52
  Q 132.80 263.77 135.15 264.89
  Q 135.93 265.26 139.02 266.04
  Q 140.91 266.51 142.80 267.76
  Q 144.57 268.93 146.64 269.42
  Q 148.33 269.82 149.81 271.44
  Q 150.62 272.32 152.86 272.51
  Q 154.74 272.67 155.84 273.29
  Q 157.47 274.22 158.92 275.43
  Q 160.63 276.85 162.01 277.49
  Q 164.08 278.45 166.17 279.36
  Q 166.26 279.40 170.45 280.72
  Q 173.01 281.52 174.81 283.44
  Q 176.63 285.37 178.71 286.15
  C 179.00 286.26 179.23 286.49 179.34 286.79
  Q 180.23 289.18 183.25 290.00
  Q 185.38 290.58 187.34 292.41
  Q 188.76 293.73 188.95 295.41
  Q 189.16 297.38 188.25 299.00
  Q 186.57 301.97 186.29 304.25
  L 165.46 346.50
  L 164.54 348.25
  L 154.79 367.75
  Q 153.34 364.96 154.99 362.09
  Q 156.01 360.32 154.33 359.16
  Q 149.86 356.08 145.36 353.25
  Q 144.03 352.42 141.90 350.40
  Q 140.24 348.81 138.19 347.72
  C 137.92 347.58 137.60 347.54 137.27 347.59
  Q 134.90 347.97 133.94 346.56
  Q 132.61 344.62 130.31 344.56
  C 129.67 344.55 128.75 344.04 127.81 343.19
  Q 123.84 339.58 118.50 339.04
  C 118.18 339.01 117.87 338.89 117.60 338.70
  Q 115.63 337.26 112.69 336.56
  Q 109.68 335.85 106.11 334.42
  Q 105.26 334.08 99.88 331.45
  Q 96.35 329.72 92.59 328.49
  Q 90.98 327.97 89.75 326.89
  Q 88.51 325.80 87.24 324.74
  C 86.90 324.46 86.39 324.60 86.24 325.01
  Q 85.87 326.06 84.54 325.75
  L 119.00 255.46
  Z"
/>
<path fill="#4f8ff1" d="
  M 240.00 348.21
  L 167.00 348.29
  L 164.54 348.25
  L 165.46 346.50
  Q 165.45 348.58 168.47 347.82
  C 168.64 347.78 168.69 347.57 168.57 347.44
  Q 167.68 346.52 167.49 345.18
  C 167.45 344.88 167.53 344.56 167.72 344.28
  Q 170.62 340.09 172.67 335.46
  Q 176.71 326.34 176.76 326.24
  Q 186.59 306.74 197.08 287.59
  Q 197.85 286.19 198.71 283.89
  Q 199.43 281.97 200.38 280.16
  Q 205.97 269.54 211.08 258.69
  Q 211.30 258.23 211.49 257.10
  Q 211.75 255.56 213.28 256.52
  C 213.55 256.69 213.67 257.02 213.56 257.30
  L 210.84 264.08
  C 210.64 264.57 210.67 265.10 210.90 265.52
  Q 212.02 267.48 212.01 270.00
  C 212.01 270.33 212.10 270.65 212.27 270.91
  Q 213.51 272.84 213.75 273.75
  Q 215.84 281.51 219.11 288.85
  Q 225.69 303.63 226.50 306.50
  Q 227.80 311.09 228.81 313.49
  Q 229.93 316.13 229.95 316.18
  Q 232.99 324.37 236.08 332.54
  C 236.18 332.81 236.19 333.14 236.11 333.48
  Q 235.67 335.37 236.72 337.08
  C 236.89 337.35 236.94 337.68 236.86 337.97
  Q 235.98 341.17 238.84 341.40
  C 239.45 341.45 239.93 341.94 239.97 342.55
  Q 240.17 345.66 241.79 347.66
  Q 242.18 348.13 241.58 348.02
  Q 240.70 347.84 240.00 348.21
  Z"
/>
<path fill="#c5f2d1" d="
  M 460.04 337.00
  L 462.19 333.17
  C 462.55 332.53 462.20 331.74 461.54 331.70
  L 458.75 331.54
  Q 458.27 331.33 457.81 330.44
  Q 451.41 317.85 445.40 304.98
  C 445.24 304.65 445.48 304.27 445.84 304.27
  L 478.56 304.25
  C 478.86 304.25 479.06 304.57 478.92 304.84
  Q 470.71 321.18 463.00 337.50
  Q 462.24 339.11 461.00 337.75
  Q 460.86 336.94 460.04 337.00
  Z"
/>
<path fill="#27a164" d="
  M 154.79 367.75
  Q 137.08 404.26 119.03 440.62
  Q 119.01 440.66 118.71 441.56
  Q 118.47 442.27 117.75 442.54
  L 73.20 350.66
  C 72.93 350.11 72.93 349.46 73.20 348.91
  L 84.54 325.75
  Q 85.87 326.06 86.24 325.01
  C 86.39 324.60 86.90 324.46 87.24 324.74
  Q 88.51 325.80 89.75 326.89
  Q 90.98 327.97 92.59 328.49
  Q 96.35 329.72 99.88 331.45
  Q 105.26 334.08 106.11 334.42
  Q 109.68 335.85 112.69 336.56
  Q 115.63 337.26 117.60 338.70
  C 117.87 338.89 118.18 339.01 118.50 339.04
  Q 123.84 339.58 127.81 343.19
  C 128.75 344.04 129.67 344.55 130.31 344.56
  Q 132.61 344.62 133.94 346.56
  Q 134.90 347.97 137.27 347.59
  C 137.60 347.54 137.92 347.58 138.19 347.72
  Q 140.24 348.81 141.90 350.40
  Q 144.03 352.42 145.36 353.25
  Q 149.86 356.08 154.33 359.16
  Q 156.01 360.32 154.99 362.09
  Q 153.34 364.96 154.79 367.75
  Z"
/>
<path fill="#99eaaf" d="
  M 458.75 331.54
  L 461.54 331.70
  C 462.20 331.74 462.55 332.53 462.19 333.17
  L 460.04 337.00
  L 434.17 388.73
  Q 433.50 390.05 432.82 388.71
  L 427.54 378.25
  L 437.06 358.97
  C 437.29 358.51 436.95 357.97 436.43 357.96
  L 417.25 357.71
  L 404.97 332.77
  C 404.80 332.42 405.05 332.00 405.44 332.00
  L 458.75 331.54
  Z"
/>
<path fill="#e6f0ea" d="
  M 164.54 348.25
  L 167.00 348.29
  Q 166.59 353.74 163.13 357.57
  Q 161.15 359.75 160.39 361.28
  Q 156.13 369.82 152.13 378.48
  Q 152.11 378.53 151.17 380.35
  Q 150.12 382.40 148.94 386.19
  Q 148.01 389.16 144.75 394.00
  Q 142.20 397.78 141.23 401.20
  Q 140.46 403.91 139.53 405.51
  Q 137.66 408.72 136.18 412.13
  Q 133.99 417.17 133.14 418.87
  Q 126.99 431.03 120.82 443.42
  Q 120.13 444.81 119.34 443.48
  Q 118.90 442.76 117.75 442.54
  Q 118.47 442.27 118.71 441.56
  Q 119.01 440.66 119.03 440.62
  Q 137.08 404.26 154.79 367.75
  L 164.54 348.25
  Z"
/>
<path fill="#6de18c" d="
  M 417.25 357.71
  L 436.43 357.96
  C 436.95 357.97 437.29 358.51 437.06 358.97
  L 427.54 378.25
  L 394.26 444.98
  Q 393.75 446.01 393.24 444.98
  L 350.39 358.84
  C 350.20 358.45 350.48 357.99 350.92 357.99
  L 417.25 357.71
  Z"
/>
<path fill="#000000" d="
  M 91.19 512.00
  Q 45.59 512.00 0.00 512.00
  Q 0.00 466.97 0.00 421.94
  Q 0.40 419.39 0.54 416.82
  Q 0.56 416.35 0.59 416.82
  Q 2.00 441.13 14.64 461.89
  Q 37.18 498.89 79.25 509.25
  Q 86.30 510.99 94.27 511.30
  Q 94.80 511.32 95.03 511.56
  Q 95.40 511.96 93.50 511.71
  Q 92.29 511.56 91.19 512.00
  Z"
/>
<path fill="#000000" d="
  M 512.00 420.31
  Q 512.00 466.16 512.00 512.00
  Q 466.59 512.00 421.19 512.00
  Q 419.74 511.59 418.22 511.73
  Q 417.99 511.75 417.79 511.70
  Q 415.73 511.19 417.99 511.09
  Q 430.86 510.54 442.98 506.19
  Q 481.37 492.44 500.35 456.42
  Q 509.37 439.30 511.12 419.99
  Q 511.40 416.88 512.00 420.31
  Z"
/>
</svg>
