<?xml version="1.0" encoding="UTF-8" standalone="no"?>
<!DOCTYPE svg PUBLIC "-//W3C//DTD SVG 1.1//EN" "http://www.w3.org/Graphics/SVG/1.1/DTD/svg11.dtd">
<svg xmlns="http://www.w3.org/2000/svg" version="1.1" viewBox="0 0 64 64">
<path fill="#ffc800" d="
  M 13.31 7.82
  L 13.25 56.34
  C 13.25 56.72 13.58 57.02 13.98 57.00
  L 21.25 56.73
  C 21.57 56.72 21.83 56.95 21.84 57.24
  L 22.00 61.95
  C 22.01 62.22 21.75 62.44 21.43 62.44
  L 3.18 62.56
  C 2.90 62.56 2.68 62.34 2.68 62.06
  L 2.50 1.80
  C 2.50 1.50 2.75 1.25 3.06 1.25
  L 21.06 1.25
  C 21.68 1.25 22.17 1.85 22.13 2.57
  L 21.98 5.42
  C 21.92 6.50 21.19 7.34 20.32 7.33
  L 13.81 7.28
  C 13.54 7.27 13.31 7.52 13.31 7.82
  Z"
/>
<path fill="#ffc800" d="
  M 50.70 56.18
  Q 51.40 31.69 50.60 8.17
  C 50.57 7.31 49.75 6.69 48.91 6.90
  Q 45.37 7.77 42.29 6.84
  C 41.98 6.75 41.76 6.48 41.77 6.19
  L 41.87 1.94
  C 41.88 1.65 42.13 1.42 42.44 1.42
  L 60.59 1.26
  C 61.09 1.26 61.50 1.68 61.50 2.19
  L 61.50 62.06
  C 61.50 62.34 61.27 62.57 60.98 62.57
  L 43.02 62.50
  C 42.54 62.49 42.13 62.17 42.02 61.71
  Q 40.65 55.65 45.50 56.75
  Q 47.00 57.09 50.19 56.74
  C 50.48 56.71 50.69 56.47 50.70 56.18
  Z"
/>
<path fill="#2c2c2c" d="
  M 40.17 49.45
  Q 40.06 48.71 39.56 49.16
  Q 32.36 55.60 23.81 54.19
  Q 18.30 53.28 15.69 48.71
  Q 13.52 44.91 14.01 39.85
  Q 14.95 30.17 25.44 27.06
  Q 31.22 25.35 38.15 25.52
  C 38.65 25.53 39.04 25.10 38.97 24.61
  Q 38.15 18.49 33.22 17.67
  Q 26.04 16.48 19.22 20.19
  C 18.99 20.31 18.70 20.20 18.63 19.95
  L 16.86 14.03
  C 16.72 13.57 16.94 13.07 17.38 12.87
  Q 26.37 8.81 35.47 9.99
  Q 49.59 11.82 49.42 26.25
  Q 49.27 39.42 50.03 52.57
  C 50.05 52.86 49.85 53.11 49.57 53.16
  Q 45.45 53.96 41.30 53.27
  C 40.96 53.22 40.69 52.99 40.65 52.71
  L 40.17 49.45
  Z
  M 38.96 39.89
  Q 39.56 37.00 39.04 33.24
  C 38.98 32.84 38.65 32.54 38.25 32.53
  Q 32.96 32.38 28.85 34.16
  Q 26.65 35.12 25.69 36.51
  Q 24.54 38.17 24.50 40.50
  Q 24.45 43.58 26.30 45.24
  Q 27.91 46.68 30.65 46.66
  Q 33.83 46.63 36.17 44.66
  Q 38.33 42.84 38.96 39.89
  Z"
/>
</svg>
