<?xml version="1.0" encoding="UTF-8" standalone="no"?>
<!DOCTYPE svg PUBLIC "-//W3C//DTD SVG 1.1//EN" "http://www.w3.org/Graphics/SVG/1.1/DTD/svg11.dtd">
<svg xmlns="http://www.w3.org/2000/svg" version="1.1" viewBox="0 0 225 225">
<g stroke-width="2.0" fill="none" stroke-linecap="butt">
<path stroke="#f8a892" vector-effect="non-scaling-stroke" d="
  M 105.31 0.00
  Q 105.16 52.41 105.31 104.81
  C 105.31 105.09 105.09 105.31 104.81 105.31
  Q 52.41 105.25 0.00 105.19"
/>
<path stroke="#bfdda1" vector-effect="non-scaling-stroke" d="
  M 119.56 0.00
  Q 119.30 52.47 119.81 104.94
  C 119.81 105.22 120.03 105.44 120.31 105.44
  Q 172.66 105.07 225.00 105.31"
/>
<path stroke="#fedc89" vector-effect="non-scaling-stroke" d="
  M 225.00 119.81
  Q 172.59 119.75 120.19 119.69
  C 119.91 119.69 119.69 119.91 119.69 120.19
  Q 119.66 172.59 119.94 225.00"
/>
<path stroke="#99d0ed" vector-effect="non-scaling-stroke" d="
  M 105.19 225.00
  Q 105.52 223.36 105.42 221.70
  Q 105.25 218.87 105.25 218.79
  Q 105.25 169.64 105.25 120.27
  C 105.25 119.98 105.02 119.75 104.74 119.75
  Q 52.12 119.61 0.00 119.94"
/>
</g>
<path fill="#f05125" d="
  M 0.00 0.00
  Q 52.66 0.00 105.31 0.00
  Q 105.16 52.41 105.31 104.81
  C 105.31 105.09 105.09 105.31 104.81 105.31
  Q 52.41 105.25 0.00 105.19
  Q 0.00 52.59 0.00 0.00
  Z"
/>
<path fill="#ffffff" d="
  M 105.31 0.00
  Q 112.44 0.00 119.56 0.00
  Q 119.30 52.47 119.81 104.94
  C 119.81 105.22 120.03 105.44 120.31 105.44
  Q 172.66 105.07 225.00 105.31
  Q 225.00 112.56 225.00 119.81
  Q 172.59 119.75 120.19 119.69
  C 119.91 119.69 119.69 119.91 119.69 120.19
  Q 119.66 172.59 119.94 225.00
  Q 112.56 225.00 105.19 225.00
  Q 105.52 223.36 105.42 221.70
  Q 105.25 218.87 105.25 218.79
  Q 105.25 169.64 105.25 120.27
  C 105.25 119.98 105.02 119.75 104.74 119.75
  Q 52.12 119.61 0.00 119.94
  Q 0.00 112.56 0.00 105.19
  Q 52.41 105.25 104.81 105.31
  C 105.09 105.31 105.31 105.09 105.31 104.81
  Q 105.16 52.41 105.31 0.00
  Z"
/>
<path fill="#7fbb42" d="
  M 119.56 0.00
  Q 172.28 0.00 225.00 0.00
  Q 225.00 52.66 225.00 105.31
  Q 172.66 105.07 120.31 105.44
  C 120.03 105.44 119.81 105.22 119.81 104.94
  Q 119.30 52.47 119.56 0.00
  Z"
/>
<path fill="#fdb813" d="
  M 225.00 119.81
  Q 225.00 172.41 225.00 225.00
  Q 172.47 225.00 119.94 225.00
  Q 119.66 172.59 119.69 120.19
  C 119.69 119.91 119.91 119.69 120.19 119.69
  Q 172.59 119.75 225.00 119.81
  Z"
/>
<path fill="#32a0da" d="
  M 105.19 225.00
  Q 52.59 225.00 0.00 225.00
  Q 0.00 172.47 0.00 119.94
  Q 52.12 119.61 104.74 119.75
  C 105.02 119.75 105.25 119.98 105.25 120.27
  Q 105.25 169.64 105.25 218.79
  Q 105.25 218.87 105.42 221.70
  Q 105.52 223.36 105.19 225.00
  Z"
/>
</svg>
