<?xml version="1.0" encoding="UTF-8" standalone="no"?>
<!DOCTYPE svg PUBLIC "-//W3C//DTD SVG 1.1//EN" "http://www.w3.org/Graphics/SVG/1.1/DTD/svg11.dtd">
<svg xmlns="http://www.w3.org/2000/svg" version="1.1" viewBox="0 0 32 32">
<path fill="#00b763" d="
  M 15.83 7.59
  Q 16.23 7.98 16.18 7.42
  Q 15.84 3.88 14.54 2.05
  Q 13.66 0.82 15.05 1.43
  Q 20.49 3.83 24.18 9.40
  Q 24.69 10.16 24.99 9.30
  Q 25.69 7.27 27.51 6.07
  Q 27.93 5.79 27.89 6.31
  Q 27.55 10.14 28.50 13.25
  Q 29.79 17.51 29.37 21.23
  Q 28.39 29.67 19.98 30.88
  Q 12.30 31.98 8.25 26.75
  Q 4.52 21.94 5.25 15.73
  Q 5.38 14.63 6.35 15.39
  L 10.13 18.38
  Q 12.52 20.27 12.08 17.09
  Q 10.61 6.47 1.25 2.23
  Q 0.21 1.76 1.35 1.75
  Q 9.74 1.69 15.83 7.59
  Z"
/>
</svg>
