<?xml version="1.0" encoding="UTF-8" standalone="no"?>
<!DOCTYPE svg PUBLIC "-//W3C//DTD SVG 1.1//EN" "http://www.w3.org/Graphics/SVG/1.1/DTD/svg11.dtd">
<svg xmlns="http://www.w3.org/2000/svg" version="1.1" viewBox="0 0 512 512">
<g stroke-width="2.0" fill="none" stroke-linecap="butt">
<path stroke="#5c6161" stroke-opacity="0.576" vector-effect="non-scaling-stroke" d="
  M 424.46 24.75
  L 435.00 29.04"
/>
<path stroke="#4e5253" stroke-opacity="0.678" vector-effect="non-scaling-stroke" d="
  M 435.00 29.04
  Q 476.08 48.96 488.54 93.00"
/>
<path stroke="#474a4b" stroke-opacity="0.753" vector-effect="non-scaling-stroke" d="
  M 488.54 93.00
  Q 491.12 101.95 491.54 111.25"
/>
<path stroke="#5e6465" vector-effect="non-scaling-stroke" d="
  M 491.54 111.25
  Q 491.61 130.72 491.32 150.19
  Q 491.32 150.52 491.32 150.19
  Q 491.43 140.86 490.60 147.83
  Q 490.56 148.25 490.42 148.53
  Q 489.96 149.49 489.94 147.31
  C 489.93 147.06 489.71 146.87 489.44 146.88
  Q 488.78 146.91 488.22 146.60
  C 488.05 146.50 487.83 146.61 487.80 146.81
  Q 487.69 147.54 487.04 148.00"
/>
<path stroke="#4c5253" vector-effect="non-scaling-stroke" d="
  M 487.04 148.00
  Q 486.93 133.96 487.00 129.25
  Q 487.43 99.42 472.15 75.02
  Q 466.92 66.68 459.77 59.37
  Q 433.43 32.43 395.25 30.17
  Q 392.32 30.00 375.26 30.00
  Q 249.88 30.00 124.50 30.05
  Q 75.74 30.07 46.55 65.80
  Q 40.01 73.81 35.59 82.48
  Q 25.00 103.26 25.01 127.25
  Q 25.03 150.00 24.96 172.75"
/>
<path stroke="#5c6163" vector-effect="non-scaling-stroke" d="
  M 24.96 172.75
  Q 24.54 173.16 24.33 173.70
  C 24.25 173.91 23.98 173.99 23.82 173.84
  Q 21.60 171.90 21.18 175.52
  Q 20.83 178.60 20.60 181.69
  Q 20.58 181.91 20.58 181.69
  L 20.04 166.75"
/>
<path stroke="#2b2f30" stroke-opacity="0.753" vector-effect="non-scaling-stroke" d="
  M 492.04 196.75
  L 491.96 118.00"
/>
<path stroke="#373b3c" stroke-opacity="0.753" vector-effect="non-scaling-stroke" d="
  M 491.96 118.00
  L 491.54 111.25"
/>
<path stroke="#4a5051" vector-effect="non-scaling-stroke" d="
  M 491.96 118.00
  Q 491.74 170.58 491.51 223.15
  Q 491.51 223.22 491.58 228.86
  Q 491.66 235.26 490.82 241.28
  Q 490.60 242.85 490.37 241.30
  L 489.71 236.81
  C 489.68 236.55 489.45 236.35 489.19 236.35
  Q 487.89 236.37 487.04 235.25"
/>
<path stroke="#484d4f" vector-effect="non-scaling-stroke" d="
  M 24.96 237.50
  Q 24.82 239.62 23.06 239.41
  C 22.80 239.38 22.49 239.46 22.19 239.64
  Q 21.88 239.83 21.52 239.76
  C 21.28 239.71 21.06 239.86 21.04 240.07
  L 20.64 244.18
  Q 20.57 244.86 20.55 244.18
  L 20.04 229.50"
/>
<path stroke="#404648" vector-effect="non-scaling-stroke" d="
  M 487.04 148.00
  L 487.04 235.25"
/>
<path stroke="#383e3f" vector-effect="non-scaling-stroke" d="
  M 487.04 235.25
  L 487.00 313.94
  C 487.00 314.35 487.29 314.71 487.70 314.79
  Q 490.10 315.28 489.89 317.86
  Q 489.83 318.54 489.99 318.98
  Q 490.81 321.39 491.33 319.30
  Q 491.44 318.87 491.44 319.32
  Q 491.55 350.41 491.50 381.50
  Q 491.47 400.91 489.79 413.50"
/>
<path stroke="#1d2022" stroke-opacity="0.804" vector-effect="non-scaling-stroke" d="
  M 489.79 413.50
  L 488.75 417.54"
/>
<path stroke="#272c2e" vector-effect="non-scaling-stroke" d="
  M 488.75 417.54
  Q 488.06 417.57 487.74 417.08
  Q 487.31 416.44 487.25 416.38
  Q 455.77 384.90 424.29 353.42
  Q 424.18 353.31 423.81 352.58
  Q 423.55 352.07 422.79 352.25"
/>
<path stroke="#518326" vector-effect="non-scaling-stroke" d="
  M 422.79 352.25
  Q 422.57 352.01 422.29 351.87
  Q 422.05 351.75 421.69 351.77
  Q 413.84 352.22 406.00 351.71"
/>
<path stroke="#272c2e" vector-effect="non-scaling-stroke" d="
  M 406.00 351.71
  Q 405.65 350.28 403.69 348.31
  Q 315.10 259.67 226.50 171.04"
/>
<path stroke="#518326" vector-effect="non-scaling-stroke" d="
  M 226.50 171.04
  L 89.78 120.49
  C 89.55 120.40 89.31 120.57 89.31 120.81
  L 89.31 158.18
  C 89.31 158.55 89.47 158.86 89.71 158.98
  L 91.29 159.75"
/>
<path stroke="#272c2e" vector-effect="non-scaling-stroke" d="
  M 91.29 159.75
  Q 91.03 161.23 92.05 161.97
  Q 93.11 162.74 93.20 162.83
  Q 121.90 191.72 133.19 202.56
  Q 133.95 203.29 133.79 204.00"
/>
<path stroke="#518326" vector-effect="non-scaling-stroke" d="
  M 133.79 204.00
  L 89.86 218.20
  C 89.50 218.32 89.25 218.65 89.25 219.03
  L 89.31 255.19
  C 89.31 255.48 89.53 255.72 89.81 255.72
  Q 90.69 255.71 91.50 255.29"
/>
<path stroke="#272c2e" vector-effect="non-scaling-stroke" d="
  M 91.50 255.29
  Q 89.69 256.30 90.94 257.56
  Q 167.17 334.51 315.25 481.96"
/>
<path stroke="#2a2f31" vector-effect="non-scaling-stroke" d="
  M 315.25 481.96
  Q 219.25 482.03 123.25 482.22
  Q 92.89 482.28 68.19 466.06
  Q 64.08 463.37 59.47 459.19
  Q 57.33 457.26 54.85 455.58
  Q 52.41 453.93 50.07 452.11
  C 49.78 451.89 49.45 451.79 49.18 451.85
  L 43.03 453.14
  C 42.72 453.21 42.46 453.44 42.33 453.75
  L 41.95 454.70
  C 41.88 454.87 41.66 454.91 41.54 454.77
  L 38.25 450.79"
/>
<path stroke="#1d2022" stroke-opacity="0.804" vector-effect="non-scaling-stroke" d="
  M 38.25 450.79
  L 34.54 445.50"
/>
<path stroke="#1f2324" stroke-opacity="0.753" vector-effect="non-scaling-stroke" d="
  M 34.54 445.50
  L 29.46 436.50"
/>
<path stroke="#383e3f" vector-effect="non-scaling-stroke" d="
  M 20.04 302.75
  L 20.68 321.19
  Q 20.71 321.91 20.61 321.19
  Q 19.94 316.32 23.93 317.36
  C 24.05 317.40 24.11 317.54 24.05 317.66
  Q 23.91 317.96 24.15 317.97
  C 24.31 317.99 24.46 317.85 24.51 317.66
  Q 25.00 315.82 25.00 312.75
  Q 25.03 275.12 24.96 237.50"
/>
<path stroke="#3e4446" vector-effect="non-scaling-stroke" d="
  M 24.96 237.50
  L 24.96 172.75"
/>
<path stroke="#222628" stroke-opacity="0.678" vector-effect="non-scaling-stroke" d="
  M 21.54 414.00
  L 22.35 418.02
  Q 22.46 418.57 22.40 418.99
  Q 22.21 420.45 23.33 420.83
  C 23.63 420.93 23.86 421.15 23.96 421.42
  L 29.46 436.50"
/>
<path stroke="#292c2d" stroke-opacity="0.804" vector-effect="non-scaling-stroke" d="
  M 492.04 196.75
  Q 491.97 294.00 492.03 391.25
  Q 492.03 402.50 489.79 413.50"
/>
<path stroke="#171a1c" stroke-opacity="0.804" vector-effect="non-scaling-stroke" d="
  M 38.25 450.79
  Q 42.94 458.06 49.24 464.02
  Q 75.81 489.16 112.51 491.66
  Q 118.75 492.08 129.94 492.06
  Q 190.41 491.96 325.75 492.21"
/>
<path stroke="#4a7b1e" vector-effect="non-scaling-stroke" d="
  M 226.50 171.04
  L 225.99 206.81
  C 225.98 207.72 225.41 208.52 224.56 208.82
  L 91.50 255.29"
/>
<path stroke="#4a7b1e" vector-effect="non-scaling-stroke" d="
  M 133.79 204.00
  L 179.58 189.39
  Q 180.65 189.05 179.58 188.69
  L 91.29 159.75"
/>
<path stroke="#4a7b1e" vector-effect="non-scaling-stroke" d="
  M 406.00 351.71
  Q 398.90 352.05 391.79 351.95
  Q 378.29 351.76 378.20 351.76
  Q 333.53 351.79 288.01 352.00
  C 287.73 352.01 287.50 352.24 287.50 352.52
  L 287.50 391.13
  C 287.50 391.61 287.89 392.00 288.37 392.00
  L 422.09 392.00
  C 422.45 392.00 422.75 391.70 422.75 391.33
  L 422.79 352.25"
/>
<path stroke="#141617" stroke-opacity="0.804" vector-effect="non-scaling-stroke" d="
  M 488.75 417.54
  Q 487.05 426.16 482.75 435.25
  Q 465.95 470.74 429.73 484.98
  Q 411.92 491.98 391.56 492.06
  Q 338.06 492.29 325.75 492.21"
/>
<path stroke="#232729" vector-effect="non-scaling-stroke" d="
  M 325.75 492.21
  L 315.25 481.96"
/>
</g>
<path fill="#6a6f70" d="
  M 424.46 24.75
  L 435.00 29.04
  Q 476.08 48.96 488.54 93.00
  Q 491.12 101.95 491.54 111.25
  Q 491.61 130.72 491.32 150.19
  Q 491.32 150.52 491.32 150.19
  Q 491.43 140.86 490.60 147.83
  Q 490.56 148.25 490.42 148.53
  Q 489.96 149.49 489.94 147.31
  C 489.93 147.06 489.71 146.87 489.44 146.88
  Q 488.78 146.91 488.22 146.60
  C 488.05 146.50 487.83 146.61 487.80 146.81
  Q 487.69 147.54 487.04 148.00
  Q 486.93 133.96 487.00 129.25
  Q 487.43 99.42 472.15 75.02
  Q 466.92 66.68 459.77 59.37
  Q 433.43 32.43 395.25 30.17
  Q 392.32 30.00 375.26 30.00
  Q 249.88 30.00 124.50 30.05
  Q 75.74 30.07 46.55 65.80
  Q 40.01 73.81 35.59 82.48
  Q 25.00 103.26 25.01 127.25
  Q 25.03 150.00 24.96 172.75
  Q 24.54 173.16 24.33 173.70
  C 24.25 173.91 23.98 173.99 23.82 173.84
  Q 21.60 171.90 21.18 175.52
  Q 20.83 178.60 20.60 181.69
  Q 20.58 181.91 20.58 181.69
  L 20.04 166.75
  Q 19.84 143.19 20.12 119.63
  Q 20.25 107.97 21.69 100.47
  Q 29.94 57.28 67.56 34.06
  Q 90.40 19.97 119.25 19.97
  Q 248.38 20.00 377.50 20.00
  Q 394.79 20.00 405.69 20.65
  Q 410.25 20.93 415.16 22.24
  Q 419.81 23.49 424.46 24.75
  Z"
/>
<path fill="#000000" fill-opacity="0.149" d="
  M 438.75 24.21
  L 432.81 23.91
  Q 432.50 23.89 432.76 24.01
  Q 445.28 29.38 447.94 30.31
  Q 454.86 32.75 459.85 36.47
  Q 464.21 39.72 466.35 41.20
  Q 470.15 43.83 473.30 47.24
  Q 474.88 48.94 476.29 50.15
  Q 477.89 51.52 479.42 52.97
  Q 479.88 53.40 481.22 55.30
  Q 482.12 56.58 483.54 57.29
  Q 484.02 57.53 484.28 57.91
  Q 486.87 61.69 489.67 65.33
  Q 491.89 68.22 493.38 71.49
  Q 495.57 76.26 496.48 77.91
  Q 499.29 83.03 500.69 87.31
  Q 503.65 96.39 505.28 106.83
  Q 506.49 114.61 506.53 126.75
  Q 506.91 262.02 507.23 397.29
  Q 507.25 405.63 506.94 411.20
  Q 506.45 420.06 505.56 425.06
  Q 503.77 435.16 498.78 446.90
  Q 496.92 451.29 493.56 456.75
  Q 490.63 461.51 487.76 466.32
  C 487.61 466.57 487.35 466.77 487.03 466.90
  Q 486.17 467.25 485.72 468.02
  Q 485.06 469.18 484.99 469.26
  Q 481.81 473.27 474.06 480.81
  Q 471.56 483.26 469.98 484.29
  Q 468.27 485.42 468.22 485.45
  Q 464.82 488.05 461.54 490.80
  Q 460.59 491.59 459.43 491.85
  C 459.15 491.91 458.88 492.09 458.67 492.35
  Q 458.10 493.05 456.75 493.75
  Q 448.80 497.85 446.48 498.69
  Q 439.96 501.03 433.39 503.20
  Q 425.90 505.66 419.97 506.35
  Q 412.20 507.25 402.50 507.25
  Q 259.12 507.25 115.75 507.26
  Q 113.28 507.26 110.87 506.81
  Q 108.23 506.31 106.06 506.19
  Q 100.38 505.88 95.04 503.87
  Q 93.78 503.39 91.84 503.09
  Q 90.18 502.83 88.65 502.17
  Q 85.56 500.84 84.13 500.38
  Q 81.68 499.61 79.47 498.30
  Q 73.70 494.92 68.03 491.39
  Q 67.44 491.02 65.84 490.41
  Q 64.68 489.96 63.74 489.15
  Q 61.81 487.47 61.73 487.41
  Q 48.87 478.11 41.00 467.50
  Q 39.48 465.44 38.44 464.23
  Q 36.74 462.24 36.03 460.92
  Q 32.92 455.18 29.29 449.75
  L 26.83 441.79
  Q 26.66 441.27 26.93 441.75
  Q 28.94 445.42 30.74 449.20
  Q 32.73 453.35 34.85 456.47
  Q 40.05 464.12 41.50 466.00
  Q 47.41 473.66 54.59 480.16
  Q 55.22 480.73 56.09 481.08
  Q 56.91 481.41 57.73 481.76
  Q 58.66 482.17 59.78 483.33
  Q 61.03 484.62 62.72 485.27
  Q 63.23 485.47 62.79 485.14
  Q 58.74 482.11 55.11 478.60
  Q 54.74 478.25 55.13 478.56
  Q 67.24 488.18 81.25 494.75
  Q 83.53 495.82 88.82 497.40
  Q 88.94 497.44 91.09 498.30
  Q 92.36 498.82 93.75 498.78
  C 94.06 498.77 94.37 498.88 94.62 499.07
  Q 95.96 500.10 97.76 499.84
  C 98.05 499.80 98.36 499.89 98.62 500.08
  Q 99.66 500.89 101.25 500.75
  Q 103.48 500.56 106.04 501.75
  Q 114.56 503.25 120.50 503.25
  Q 248.75 503.25 377.00 503.41
  Q 392.75 503.43 408.50 502.93
  Q 411.49 502.84 407.75 502.71
  Q 414.15 501.60 416.00 501.75
  Q 418.16 501.92 419.18 500.89
  C 419.40 500.67 419.71 500.57 419.99 500.63
  Q 422.13 501.14 424.10 500.43
  Q 425.61 499.88 426.37 499.78
  Q 427.56 499.63 428.75 499.46
  Q 430.84 500.00 432.52 499.19
  Q 434.90 498.06 435.02 498.02
  Q 443.43 495.31 451.08 490.89
  Q 451.75 490.51 452.48 490.26
  Q 453.23 490.00 453.96 489.74
  Q 454.40 489.58 454.75 489.17
  Q 455.80 487.95 457.33 487.45
  C 457.62 487.35 457.87 487.15 458.04 486.87
  Q 458.71 485.75 460.01 485.54
  C 460.36 485.49 460.67 485.36 460.89 485.17
  Q 465.40 481.29 470.12 477.66
  Q 473.46 475.09 476.75 471.00
  Q 484.92 460.82 486.81 458.31
  Q 487.85 456.94 489.98 452.77
  Q 490.46 451.84 491.75 449.88
  Q 492.69 448.47 493.34 446.89
  Q 494.83 443.27 494.86 443.20
  Q 500.34 431.45 501.98 418.59
  Q 502.02 418.31 502.85 413.97
  Q 503.25 411.84 503.25 409.25
  Q 503.15 272.62 502.78 135.99
  Q 502.73 118.64 502.56 116.01
  Q 501.76 103.98 498.27 92.32
  Q 496.91 87.81 495.73 83.26
  Q 494.87 79.97 493.35 76.97
  Q 492.77 75.82 490.04 71.15
  Q 483.48 59.93 474.55 50.48
  Q 472.58 48.40 469.02 46.12
  Q 464.80 43.42 461.11 39.98
  Q 460.93 39.81 460.70 39.75
  Q 460.47 39.69 460.23 39.63
  C 459.92 39.54 459.64 39.37 459.41 39.13
  Q 456.86 36.52 450.93 32.73
  Q 450.64 32.54 450.32 32.44
  Q 445.42 30.94 440.76 28.39
  Q 440.49 28.25 440.23 28.16
  Q 435.61 26.53 440.00 28.96
  Q 438.44 28.14 436.75 28.21
  Q 436.26 28.23 436.56 28.63
  Q 437.61 30.04 435.00 29.04
  L 424.46 24.75
  Q 424.38 24.41 424.18 24.15
  C 424.01 23.93 424.02 23.64 424.21 23.50
  Q 426.21 22.03 428.54 22.59
  Q 430.96 23.16 431.02 23.17
  Q 434.88 23.69 438.75 24.21
  Z"
/>
<path fill="#010001" fill-opacity="0.082" d="
  M 438.75 24.21
  L 444.26 25.94
  Q 444.95 26.16 445.15 26.30
  Q 447.78 28.23 451.01 28.69
  Q 451.50 28.76 451.90 29.05
  Q 454.54 30.99 457.70 31.92
  C 458.01 32.01 458.28 32.20 458.48 32.47
  Q 459.53 33.85 461.04 34.61
  Q 463.34 35.77 463.88 36.17
  Q 467.68 39.07 471.25 42.25
  Q 471.84 42.78 472.83 43.07
  C 473.16 43.16 473.44 43.33 473.65 43.55
  Q 475.66 45.74 477.90 47.69
  Q 479.71 49.25 481.99 51.91
  Q 483.97 54.22 486.45 56.03
  Q 486.72 56.23 487.12 56.32
  Q 488.23 56.56 487.65 57.01
  C 487.45 57.16 487.41 57.43 487.55 57.60
  Q 495.57 66.91 500.47 78.15
  Q 500.72 78.73 502.38 81.66
  Q 503.05 82.85 503.44 84.17
  Q 503.90 85.75 504.37 86.72
  Q 507.14 92.38 507.77 98.69
  Q 507.81 99.14 508.09 99.60
  Q 508.72 100.65 508.80 101.85
  Q 508.94 104.06 508.95 104.13
  Q 511.25 117.17 511.25 124.25
  Q 511.24 265.75 510.92 407.25
  Q 510.90 416.58 509.19 425.74
  Q 508.34 430.26 507.58 434.79
  Q 507.26 436.69 506.43 438.56
  Q 505.32 441.10 505.00 442.25
  Q 503.19 448.87 497.75 458.25
  Q 489.70 472.14 481.03 480.78
  Q 461.27 500.46 433.31 507.81
  Q 428.46 509.09 425.31 509.06
  Q 424.91 509.06 424.08 509.46
  Q 423.46 509.75 422.86 509.77
  Q 419.55 509.92 416.28 510.30
  Q 412.28 510.77 409.70 510.82
  Q 398.95 511.00 377.25 511.00
  Q 247.88 511.00 118.50 511.03
  Q 116.72 511.04 115.18 510.24
  C 114.89 510.09 114.57 510.02 114.26 510.05
  Q 111.03 510.36 107.94 509.64
  Q 106.19 509.24 103.46 508.91
  Q 101.66 508.69 98.94 508.06
  Q 84.12 504.66 71.03 496.95
  Q 69.85 496.25 69.04 495.17
  C 68.85 494.91 68.56 494.73 68.25 494.68
  Q 66.47 494.36 65.11 493.27
  Q 62.59 491.22 62.51 491.17
  Q 54.69 486.13 48.70 479.03
  Q 48.30 478.56 45.53 475.74
  Q 44.25 474.43 42.50 472.25
  Q 37.40 465.91 34.67 461.17
  Q 34.34 460.59 31.86 457.15
  Q 29.94 454.48 29.71 451.00
  Q 29.20 450.44 29.29 449.75
  Q 32.92 455.18 36.03 460.92
  Q 36.74 462.24 38.44 464.23
  Q 39.48 465.44 41.00 467.50
  Q 48.87 478.11 61.73 487.41
  Q 61.81 487.47 63.74 489.15
  Q 64.68 489.96 65.84 490.41
  Q 67.44 491.02 68.03 491.39
  Q 73.70 494.92 79.47 498.30
  Q 81.68 499.61 84.13 500.38
  Q 85.56 500.84 88.65 502.17
  Q 90.18 502.83 91.84 503.09
  Q 93.78 503.39 95.04 503.87
  Q 100.38 505.88 106.06 506.19
  Q 108.23 506.31 110.87 506.81
  Q 113.28 507.26 115.75 507.26
  Q 259.12 507.25 402.50 507.25
  Q 412.20 507.25 419.97 506.35
  Q 425.90 505.66 433.39 503.20
  Q 439.96 501.03 446.48 498.69
  Q 448.80 497.85 456.75 493.75
  Q 458.10 493.05 458.67 492.35
  C 458.88 492.09 459.15 491.91 459.43 491.85
  Q 460.59 491.59 461.54 490.80
  Q 464.82 488.05 468.22 485.45
  Q 468.27 485.42 469.98 484.29
  Q 471.56 483.26 474.06 480.81
  Q 481.81 473.27 484.99 469.26
  Q 485.06 469.18 485.72 468.02
  Q 486.17 467.25 487.03 466.90
  C 487.35 466.77 487.61 466.57 487.76 466.32
  Q 490.63 461.51 493.56 456.75
  Q 496.92 451.29 498.78 446.90
  Q 503.77 435.16 505.56 425.06
  Q 506.45 420.06 506.94 411.20
  Q 507.25 405.63 507.23 397.29
  Q 506.91 262.02 506.53 126.75
  Q 506.49 114.61 505.28 106.83
  Q 503.65 96.39 500.69 87.31
  Q 499.29 83.03 496.48 77.91
  Q 495.57 76.26 493.38 71.49
  Q 491.89 68.22 489.67 65.33
  Q 486.87 61.69 484.28 57.91
  Q 484.02 57.53 483.54 57.29
  Q 482.12 56.58 481.22 55.30
  Q 479.88 53.40 479.42 52.97
  Q 477.89 51.52 476.29 50.15
  Q 474.88 48.94 473.30 47.24
  Q 470.15 43.83 466.35 41.20
  Q 464.21 39.72 459.85 36.47
  Q 454.86 32.75 447.94 30.31
  Q 445.28 29.38 432.76 24.01
  Q 432.50 23.89 432.81 23.91
  L 438.75 24.21
  Z"
/>
<path fill="#000000" fill-opacity="0.247" d="
  M 428.75 499.46
  Q 432.23 498.18 435.73 496.96
  Q 440.12 495.43 442.65 494.29
  Q 456.98 487.86 468.71 477.44
  Q 470.96 475.44 474.22 471.97
  Q 476.88 469.15 479.56 466.34
  Q 480.22 465.65 480.59 464.87
  Q 480.98 464.06 481.32 463.22
  C 481.42 462.96 481.68 462.75 482.00 462.68
  Q 482.88 462.48 483.27 461.72
  Q 483.89 460.47 483.95 460.39
  Q 491.80 449.75 496.94 435.19
  Q 497.58 433.37 497.55 432.25
  C 497.54 431.91 497.62 431.59 497.76 431.34
  Q 498.50 430.05 498.31 428.49
  Q 498.20 427.49 498.86 426.82
  C 499.09 426.59 499.20 426.29 499.16 426.01
  Q 498.94 424.33 499.91 423.12
  C 500.12 422.86 500.22 422.55 500.19 422.25
  Q 500.01 420.29 500.55 418.48
  Q 501.21 416.27 501.21 414.87
  Q 501.19 411.11 501.77 407.41
  Q 502.49 402.83 502.48 400.02
  Q 502.27 366.38 502.19 332.74
  C 502.19 332.39 502.06 332.10 501.87 332.01
  L 501.49 331.83
  C 501.19 331.68 500.99 331.45 500.99 331.24
  L 500.93 319.31
  Q 500.93 318.64 500.51 319.04
  Q 500.08 319.46 500.25 320.50
  Q 500.67 323.06 500.04 331.99
  Q 500.00 332.54 499.89 332.02
  Q 499.49 330.03 499.50 326.50
  Q 499.69 264.12 499.25 123.00
  Q 499.21 109.34 496.36 94.43
  Q 496.28 94.03 495.69 92.81
  Q 495.29 91.98 495.41 90.99
  C 495.45 90.65 495.39 90.33 495.23 90.08
  Q 494.56 89.02 494.01 87.89
  Q 493.66 87.15 493.42 85.50
  Q 493.13 83.50 491.82 81.88
  C 491.61 81.61 491.51 81.30 491.54 81.01
  L 491.68 79.74
  C 491.71 79.46 491.55 79.19 491.29 79.08
  Q 489.96 78.52 489.48 77.23
  Q 488.81 75.42 488.77 75.36
  Q 487.70 73.31 486.79 71.20
  Q 485.95 69.23 484.38 67.82
  C 484.14 67.60 483.96 67.32 483.88 67.01
  Q 483.37 65.09 482.17 63.60
  Q 480.22 61.16 480.17 61.09
  Q 477.69 57.48 474.67 54.30
  C 474.49 54.12 474.38 53.81 474.36 53.44
  Q 474.32 52.85 473.75 52.75
  Q 467.40 46.77 460.82 41.04
  Q 460.53 40.79 458.35 39.40
  Q 457.05 38.57 456.24 37.18
  C 456.07 36.90 455.81 36.70 455.51 36.60
  Q 452.03 35.46 446.75 32.00
  Q 445.68 31.30 440.00 28.96
  Q 435.61 26.53 440.23 28.16
  Q 440.49 28.25 440.76 28.39
  Q 445.42 30.94 450.32 32.44
  Q 450.64 32.54 450.93 32.73
  Q 456.86 36.52 459.41 39.13
  C 459.64 39.37 459.92 39.54 460.23 39.63
  Q 460.47 39.69 460.70 39.75
  Q 460.93 39.81 461.11 39.98
  Q 464.80 43.42 469.02 46.12
  Q 472.58 48.40 474.55 50.48
  Q 483.48 59.93 490.04 71.15
  Q 492.77 75.82 493.35 76.97
  Q 494.87 79.97 495.73 83.26
  Q 496.91 87.81 498.27 92.32
  Q 501.76 103.98 502.56 116.01
  Q 502.73 118.64 502.78 135.99
  Q 503.15 272.62 503.25 409.25
  Q 503.25 411.84 502.85 413.97
  Q 502.02 418.31 501.98 418.59
  Q 500.34 431.45 494.86 443.20
  Q 494.83 443.27 493.34 446.89
  Q 492.69 448.47 491.75 449.88
  Q 490.46 451.84 489.98 452.77
  Q 487.85 456.94 486.81 458.31
  Q 484.92 460.82 476.75 471.00
  Q 473.46 475.09 470.12 477.66
  Q 465.40 481.29 460.89 485.17
  C 460.67 485.36 460.36 485.49 460.01 485.54
  Q 458.71 485.75 458.04 486.87
  C 457.87 487.15 457.62 487.35 457.33 487.45
  Q 455.80 487.95 454.75 489.17
  Q 454.40 489.58 453.96 489.74
  Q 453.23 490.00 452.48 490.26
  Q 451.75 490.51 451.08 490.89
  Q 443.43 495.31 435.02 498.02
  Q 434.90 498.06 432.52 499.19
  Q 430.84 500.00 428.75 499.46
  Z"
/>
<path fill="#000000" fill-opacity="0.353" d="
  M 440.00 28.96
  Q 445.68 31.30 446.75 32.00
  Q 452.03 35.46 455.51 36.60
  C 455.81 36.70 456.07 36.90 456.24 37.18
  Q 457.05 38.57 458.35 39.40
  Q 460.53 40.79 460.82 41.04
  Q 467.40 46.77 473.75 52.75
  Q 474.32 52.85 474.36 53.44
  C 474.38 53.81 474.49 54.12 474.67 54.30
  Q 477.69 57.48 480.17 61.09
  Q 480.22 61.16 482.17 63.60
  Q 483.37 65.09 483.88 67.01
  C 483.96 67.32 484.14 67.60 484.38 67.82
  Q 485.95 69.23 486.79 71.20
  Q 487.70 73.31 488.77 75.36
  Q 488.81 75.42 489.48 77.23
  Q 489.96 78.52 491.29 79.08
  C 491.55 79.19 491.71 79.46 491.68 79.74
  L 491.54 81.01
  C 491.51 81.30 491.61 81.61 491.82 81.88
  Q 493.13 83.50 493.42 85.50
  Q 493.66 87.15 494.01 87.89
  Q 494.56 89.02 495.23 90.08
  C 495.39 90.33 495.45 90.65 495.41 90.99
  Q 495.29 91.98 495.69 92.81
  Q 496.28 94.03 496.36 94.43
  Q 499.21 109.34 499.25 123.00
  Q 499.69 264.12 499.50 326.50
  Q 499.49 330.03 499.89 332.02
  Q 500.00 332.54 500.04 331.99
  Q 500.67 323.06 500.25 320.50
  Q 500.08 319.46 500.51 319.04
  Q 500.93 318.64 500.93 319.31
  L 500.99 331.24
  C 500.99 331.45 501.19 331.68 501.49 331.83
  L 501.87 332.01
  C 502.06 332.10 502.19 332.39 502.19 332.74
  Q 502.27 366.38 502.48 400.02
  Q 502.49 402.83 501.77 407.41
  Q 501.19 411.11 501.21 414.87
  Q 501.21 416.27 500.55 418.48
  Q 500.01 420.29 500.19 422.25
  C 500.22 422.55 500.12 422.86 499.91 423.12
  Q 498.94 424.33 499.16 426.01
  C 499.20 426.29 499.09 426.59 498.86 426.82
  Q 498.20 427.49 498.31 428.49
  Q 498.50 430.05 497.76 431.34
  C 497.62 431.59 497.54 431.91 497.55 432.25
  Q 497.58 433.37 496.94 435.19
  Q 491.80 449.75 483.95 460.39
  Q 483.89 460.47 483.27 461.72
  Q 482.88 462.48 482.00 462.68
  C 481.68 462.75 481.42 462.96 481.32 463.22
  Q 480.98 464.06 480.59 464.87
  Q 480.22 465.65 479.56 466.34
  Q 476.88 469.15 474.22 471.97
  Q 470.96 475.44 468.71 477.44
  Q 456.98 487.86 442.65 494.29
  Q 440.12 495.43 435.73 496.96
  Q 432.23 498.18 428.75 499.46
  Q 427.56 499.63 426.37 499.78
  Q 425.61 499.88 424.10 500.43
  Q 422.13 501.14 419.99 500.63
  C 419.71 500.57 419.40 500.67 419.18 500.89
  Q 418.16 501.92 416.00 501.75
  Q 414.15 501.60 407.75 502.71
  Q 264.31 502.78 120.87 502.75
  Q 118.54 502.75 113.72 502.02
  Q 109.92 501.44 106.04 501.75
  Q 103.48 500.56 101.25 500.75
  Q 99.66 500.89 98.62 500.08
  C 98.36 499.89 98.05 499.80 97.76 499.84
  Q 95.96 500.10 94.62 499.07
  C 94.37 498.88 94.06 498.77 93.75 498.78
  Q 92.36 498.82 91.09 498.30
  Q 88.94 497.44 88.82 497.40
  Q 83.53 495.82 81.25 494.75
  Q 67.24 488.18 55.13 478.56
  Q 54.74 478.25 55.11 478.60
  Q 58.74 482.11 62.79 485.14
  Q 63.23 485.47 62.72 485.27
  Q 61.03 484.62 59.78 483.33
  Q 58.66 482.17 57.73 481.76
  Q 56.91 481.41 56.09 481.08
  Q 55.22 480.73 54.59 480.16
  Q 47.41 473.66 41.50 466.00
  Q 40.05 464.12 34.85 456.47
  Q 32.73 453.35 30.74 449.20
  Q 28.94 445.42 26.93 441.75
  Q 26.66 441.27 26.83 441.79
  L 29.29 449.75
  Q 29.20 450.44 29.71 451.00
  Q 28.44 450.77 28.19 450.06
  Q 25.66 442.98 23.35 432.16
  Q 23.32 432.04 22.32 428.93
  Q 21.79 427.29 21.94 425.50
  Q 21.99 425.00 21.81 424.55
  Q 21.19 422.96 21.25 421.30
  Q 21.36 417.72 21.36 417.67
  Q 21.30 415.83 21.54 414.00
  L 22.35 418.02
  Q 22.46 418.57 22.40 418.99
  Q 22.21 420.45 23.33 420.83
  C 23.63 420.93 23.86 421.15 23.96 421.42
  L 29.46 436.50
  Q 28.87 436.03 29.22 436.59
  Q 30.78 439.06 30.50 442.00
  Q 30.38 443.23 31.49 443.85
  C 31.78 444.02 32.00 444.26 32.08 444.54
  Q 33.12 447.89 34.50 450.00
  Q 38.02 455.35 39.29 457.75
  Q 39.84 459.68 41.50 461.75
  Q 46.11 467.51 49.48 471.16
  Q 50.07 471.81 51.83 472.92
  Q 53.09 473.73 53.98 475.02
  Q 55.17 476.75 56.90 477.76
  Q 59.46 479.25 60.19 479.82
  Q 62.62 481.71 66.75 484.25
  Q 79.16 491.87 91.11 495.21
  Q 91.24 495.25 91.40 495.26
  Q 92.84 495.35 91.27 495.69
  Q 91.00 495.75 91.24 495.89
  Q 92.66 496.73 92.67 496.06
  C 92.67 495.83 92.86 495.65 93.05 495.70
  Q 105.87 499.25 117.50 499.25
  Q 262.50 499.25 407.50 499.25
  Q 409.29 499.25 416.46 497.50
  Q 417.44 496.75 418.63 496.67
  Q 420.51 496.56 420.84 496.48
  Q 433.26 493.36 437.00 491.50
  Q 439.16 490.43 440.66 489.87
  Q 443.18 488.93 444.26 488.27
  Q 448.09 485.93 451.94 483.62
  Q 456.28 481.02 459.35 478.56
  Q 465.65 473.52 471.40 467.85
  Q 471.50 467.75 473.36 465.46
  Q 474.35 464.22 475.80 463.47
  C 476.09 463.31 476.32 463.08 476.45 462.79
  Q 477.74 459.90 480.69 456.44
  Q 483.46 453.18 486.53 446.96
  Q 486.70 446.60 486.67 446.01
  Q 486.63 445.31 487.19 445.19
  C 487.51 445.13 487.75 444.94 487.81 444.71
  Q 488.44 442.45 490.25 439.25
  Q 491.47 437.08 492.34 433.59
  Q 492.69 432.18 493.56 430.05
  Q 494.28 428.28 494.59 426.39
  Q 494.85 424.72 495.18 423.68
  Q 495.60 422.35 495.97 421.01
  Q 496.32 419.74 496.42 416.91
  Q 496.48 415.21 496.95 413.58
  Q 497.47 411.75 497.42 410.34
  Q 497.29 406.38 497.67 402.45
  Q 498.12 397.88 497.97 394.64
  Q 497.49 385.11 497.68 375.56
  C 497.68 375.32 497.57 375.01 497.36 374.69
  Q 496.95 374.05 496.94 372.81
  Q 496.84 362.25 496.81 351.69
  Q 496.80 344.18 496.42 331.69
  Q 495.95 316.23 496.00 294.00
  Q 496.17 219.29 494.44 109.06
  C 494.44 108.76 494.31 108.46 494.08 108.22
  Q 492.94 107.03 492.97 105.50
  Q 493.02 102.80 492.96 102.49
  Q 492.02 97.74 490.81 93.05
  Q 489.73 88.91 488.54 93.00
  Q 476.08 48.96 435.00 29.04
  Q 437.61 30.04 436.56 28.63
  Q 436.26 28.23 436.75 28.21
  Q 438.44 28.14 440.00 28.96
  Z
  M 404.47 499.76
  C 404.47 499.62 404.35 499.50 404.21 499.50
  L 115.31 499.50
  C 115.17 499.50 115.05 499.62 115.05 499.76
  L 115.05 499.98
  C 115.05 500.12 115.17 500.24 115.31 500.24
  L 404.21 500.24
  C 404.35 500.24 404.47 500.12 404.47 499.98
  L 404.47 499.76
  Z"
/>
<path fill="#2e3436" d="
  M 487.04 148.00
  L 487.04 235.25
  L 487.00 313.94
  C 487.00 314.35 487.29 314.71 487.70 314.79
  Q 490.10 315.28 489.89 317.86
  Q 489.83 318.54 489.99 318.98
  Q 490.81 321.39 491.33 319.30
  Q 491.44 318.87 491.44 319.32
  Q 491.55 350.41 491.50 381.50
  Q 491.47 400.91 489.79 413.50
  L 488.75 417.54
  Q 488.06 417.57 487.74 417.08
  Q 487.31 416.44 487.25 416.38
  Q 455.77 384.90 424.29 353.42
  Q 424.18 353.31 423.81 352.58
  Q 423.55 352.07 422.79 352.25
  Q 422.57 352.01 422.29 351.87
  Q 422.05 351.75 421.69 351.77
  Q 413.84 352.22 406.00 351.71
  Q 405.65 350.28 403.69 348.31
  Q 315.10 259.67 226.50 171.04
  L 89.78 120.49
  C 89.55 120.40 89.31 120.57 89.31 120.81
  L 89.31 158.18
  C 89.31 158.55 89.47 158.86 89.71 158.98
  L 91.29 159.75
  Q 91.03 161.23 92.05 161.97
  Q 93.11 162.74 93.20 162.83
  Q 121.90 191.72 133.19 202.56
  Q 133.95 203.29 133.79 204.00
  L 89.86 218.20
  C 89.50 218.32 89.25 218.65 89.25 219.03
  L 89.31 255.19
  C 89.31 255.48 89.53 255.72 89.81 255.72
  Q 90.69 255.71 91.50 255.29
  Q 89.69 256.30 90.94 257.56
  Q 167.17 334.51 315.25 481.96
  Q 219.25 482.03 123.25 482.22
  Q 92.89 482.28 68.19 466.06
  Q 64.08 463.37 59.47 459.19
  Q 57.33 457.26 54.85 455.58
  Q 52.41 453.93 50.07 452.11
  C 49.78 451.89 49.45 451.79 49.18 451.85
  L 43.03 453.14
  C 42.72 453.21 42.46 453.44 42.33 453.75
  L 41.95 454.70
  C 41.88 454.87 41.66 454.91 41.54 454.77
  L 38.25 450.79
  L 34.54 445.50
  L 29.46 436.50
  L 23.96 421.42
  C 23.86 421.15 23.63 420.93 23.33 420.83
  Q 22.21 420.45 22.40 418.99
  Q 22.46 418.57 22.35 418.02
  L 21.54 414.00
  Q 20.30 408.24 20.25 404.25
  Q 19.73 364.12 20.04 302.75
  L 20.68 321.19
  Q 20.71 321.91 20.61 321.19
  Q 19.94 316.32 23.93 317.36
  C 24.05 317.40 24.11 317.54 24.05 317.66
  Q 23.91 317.96 24.15 317.97
  C 24.31 317.99 24.46 317.85 24.51 317.66
  Q 25.00 315.82 25.00 312.75
  Q 25.03 275.12 24.96 237.50
  L 24.96 172.75
  Q 25.03 150.00 25.01 127.25
  Q 25.00 103.26 35.59 82.48
  Q 40.01 73.81 46.55 65.80
  Q 75.74 30.07 124.50 30.05
  Q 249.88 30.00 375.26 30.00
  Q 392.32 30.00 395.25 30.17
  Q 433.43 32.43 459.77 59.37
  Q 466.92 66.68 472.15 75.02
  Q 487.43 99.42 487.00 129.25
  Q 486.93 133.96 487.04 148.00
  Z"
/>
<path fill="#000001" fill-opacity="0.502" d="
  M 416.46 497.50
  Q 414.97 497.47 408.75 498.50
  Q 405.73 499.00 393.00 498.98
  Q 254.50 498.75 116.00 498.75
  Q 110.94 498.75 100.25 497.00
  Q 98.84 496.77 98.27 496.16
  C 98.03 495.90 97.74 495.75 97.49 495.74
  Q 92.08 495.55 87.21 493.22
  Q 86.83 493.04 86.25 493.06
  Q 85.32 493.09 84.77 492.42
  C 84.55 492.15 84.28 491.96 84.01 491.90
  Q 81.87 491.39 77.25 489.25
  Q 72.04 486.84 69.75 485.29
  Q 69.44 485.09 68.13 484.45
  Q 67.26 484.03 66.74 483.19
  C 66.56 482.91 66.30 482.70 66.02 482.60
  Q 62.09 481.31 59.50 478.00
  Q 58.47 476.68 51.81 470.94
  Q 46.44 466.30 40.53 458.73
  Q 40.00 458.05 39.29 457.75
  Q 38.02 455.35 34.50 450.00
  Q 33.12 447.89 32.08 444.54
  C 32.00 444.26 31.78 444.02 31.49 443.85
  Q 30.38 443.23 30.50 442.00
  Q 30.78 439.06 29.22 436.59
  Q 28.87 436.03 29.46 436.50
  L 34.54 445.50
  Q 34.17 446.96 35.19 448.56
  Q 43.20 461.16 52.40 470.35
  Q 58.33 476.28 67.69 481.81
  Q 77.52 487.63 86.26 490.21
  Q 88.78 490.95 91.11 492.14
  Q 92.36 492.77 93.54 492.93
  Q 94.83 493.11 96.13 493.25
  Q 97.56 493.40 99.87 494.16
  Q 102.04 494.88 104.00 494.75
  Q 105.17 494.67 105.88 494.95
  Q 106.48 495.19 106.81 495.19
  Q 255.75 495.30 404.68 495.25
  Q 408.32 495.25 411.76 494.59
  Q 415.25 493.92 418.74 493.21
  Q 425.45 491.82 431.73 489.13
  Q 432.17 488.94 431.69 488.92
  Q 429.36 488.78 430.79 487.98
  Q 431.23 487.74 431.74 487.67
  Q 432.95 487.51 432.82 488.01
  C 432.77 488.19 432.90 488.37 433.06 488.34
  Q 435.03 487.90 436.81 487.00
  Q 438.81 485.98 440.38 485.44
  Q 444.10 484.17 447.23 481.74
  Q 448.19 480.99 449.01 480.55
  Q 449.95 480.05 450.90 479.55
  Q 452.11 478.92 453.43 477.67
  Q 455.08 476.13 457.03 475.00
  Q 459.38 473.64 460.60 472.46
  Q 470.57 462.86 473.19 459.69
  Q 477.37 454.63 481.45 447.83
  C 481.66 447.47 481.76 447.06 481.71 446.65
  Q 481.62 445.84 482.26 445.31
  Q 483.07 444.65 483.14 444.56
  Q 484.10 443.43 484.72 442.10
  Q 485.24 441.00 486.18 439.63
  Q 487.03 438.39 487.50 436.75
  Q 488.56 433.00 490.37 428.58
  Q 491.16 426.65 491.68 424.29
  Q 492.17 422.08 492.86 419.93
  Q 493.99 416.42 494.36 413.39
  Q 494.66 410.99 495.07 408.61
  Q 495.50 406.06 495.54 403.85
  Q 496.00 372.17 495.64 340.49
  Q 495.50 328.62 495.48 320.50
  Q 495.30 253.65 494.44 186.80
  C 494.44 186.49 494.17 186.26 493.94 186.37
  Q 493.53 186.56 493.53 187.31
  Q 493.30 221.53 493.10 255.75
  Q 493.08 260.29 492.59 256.41
  Q 492.56 256.19 492.56 255.95
  Q 492.50 221.51 492.44 187.07
  Q 492.44 186.63 492.42 187.06
  L 492.04 196.75
  L 491.96 118.00
  L 491.54 111.25
  Q 491.12 101.95 488.54 93.00
  Q 489.73 88.91 490.81 93.05
  Q 492.02 97.74 492.96 102.49
  Q 493.02 102.80 492.97 105.50
  Q 492.94 107.03 494.08 108.22
  C 494.31 108.46 494.44 108.76 494.44 109.06
  Q 496.17 219.29 496.00 294.00
  Q 495.95 316.23 496.42 331.69
  Q 496.80 344.18 496.81 351.69
  Q 496.84 362.25 496.94 372.81
  Q 496.95 374.05 497.36 374.69
  C 497.57 375.01 497.68 375.32 497.68 375.56
  Q 497.49 385.11 497.97 394.64
  Q 498.12 397.88 497.67 402.45
  Q 497.29 406.38 497.42 410.34
  Q 497.47 411.75 496.95 413.58
  Q 496.48 415.21 496.42 416.91
  Q 496.32 419.74 495.97 421.01
  Q 495.60 422.35 495.18 423.68
  Q 494.85 424.72 494.59 426.39
  Q 494.28 428.28 493.56 430.05
  Q 492.69 432.18 492.34 433.59
  Q 491.47 437.08 490.25 439.25
  Q 488.44 442.45 487.81 444.71
  C 487.75 444.94 487.51 445.13 487.19 445.19
  Q 486.63 445.31 486.67 446.01
  Q 486.70 446.60 486.53 446.96
  Q 483.46 453.18 480.69 456.44
  Q 477.74 459.90 476.45 462.79
  C 476.32 463.08 476.09 463.31 475.80 463.47
  Q 474.35 464.22 473.36 465.46
  Q 471.50 467.75 471.40 467.85
  Q 465.65 473.52 459.35 478.56
  Q 456.28 481.02 451.94 483.62
  Q 448.09 485.93 444.26 488.27
  Q 443.18 488.93 440.66 489.87
  Q 439.16 490.43 437.00 491.50
  Q 433.26 493.36 420.84 496.48
  Q 420.51 496.56 418.63 496.67
  Q 417.44 496.75 416.46 497.50
  Z"
/>
<path fill="#525859" d="
  M 491.54 111.25
  L 491.96 118.00
  Q 491.74 170.58 491.51 223.15
  Q 491.51 223.22 491.58 228.86
  Q 491.66 235.26 490.82 241.28
  Q 490.60 242.85 490.37 241.30
  L 489.71 236.81
  C 489.68 236.55 489.45 236.35 489.19 236.35
  Q 487.89 236.37 487.04 235.25
  L 487.04 148.00
  Q 487.69 147.54 487.80 146.81
  C 487.83 146.61 488.05 146.50 488.22 146.60
  Q 488.78 146.91 489.44 146.88
  C 489.71 146.87 489.93 147.06 489.94 147.31
  Q 489.96 149.49 490.42 148.53
  Q 490.56 148.25 490.60 147.83
  Q 491.43 140.86 491.32 150.19
  Q 491.32 150.52 491.32 150.19
  Q 491.61 130.72 491.54 111.25
  Z"
/>
<path fill="#414748" d="
  M 491.96 118.00
  L 492.04 196.75
  Q 491.97 294.00 492.03 391.25
  Q 492.03 402.50 489.79 413.50
  Q 491.47 400.91 491.50 381.50
  Q 491.55 350.41 491.44 319.32
  Q 491.44 318.87 491.33 319.30
  Q 490.81 321.39 489.99 318.98
  Q 489.83 318.54 489.89 317.86
  Q 490.10 315.28 487.70 314.79
  C 487.29 314.71 487.00 314.35 487.00 313.94
  L 487.04 235.25
  Q 487.89 236.37 489.19 236.35
  C 489.45 236.35 489.68 236.55 489.71 236.81
  L 490.37 241.30
  Q 490.60 242.85 490.82 241.28
  Q 491.66 235.26 491.58 228.86
  Q 491.51 223.22 491.51 223.15
  Q 491.74 170.58 491.96 118.00
  Z"
/>
<path fill="#73d216" d="
  M 226.50 171.04
  L 225.99 206.81
  C 225.98 207.72 225.41 208.52 224.56 208.82
  L 91.50 255.29
  Q 90.69 255.71 89.81 255.72
  C 89.53 255.72 89.31 255.48 89.31 255.19
  L 89.25 219.03
  C 89.25 218.65 89.50 218.32 89.86 218.20
  L 133.79 204.00
  L 179.58 189.39
  Q 180.65 189.05 179.58 188.69
  L 91.29 159.75
  L 89.71 158.98
  C 89.47 158.86 89.31 158.55 89.31 158.18
  L 89.31 120.81
  C 89.31 120.57 89.55 120.40 89.78 120.49
  L 226.50 171.04
  Z"
/>
<path fill="#202425" d="
  M 91.29 159.75
  L 179.58 188.69
  Q 180.65 189.05 179.58 189.39
  L 133.79 204.00
  Q 133.95 203.29 133.19 202.56
  Q 121.90 191.72 93.20 162.83
  Q 93.11 162.74 92.05 161.97
  Q 91.03 161.23 91.29 159.75
  Z"
/>
<path fill="#4e5355" d="
  M 20.04 166.75
  L 20.58 181.69
  Q 20.58 181.91 20.60 181.69
  Q 20.83 178.60 21.18 175.52
  Q 21.60 171.90 23.82 173.84
  C 23.98 173.99 24.25 173.91 24.33 173.70
  Q 24.54 173.16 24.96 172.75
  L 24.96 237.50
  Q 24.82 239.62 23.06 239.41
  C 22.80 239.38 22.49 239.46 22.19 239.64
  Q 21.88 239.83 21.52 239.76
  C 21.28 239.71 21.06 239.86 21.04 240.07
  L 20.64 244.18
  Q 20.57 244.86 20.55 244.18
  L 20.04 229.50
  L 20.04 166.75
  Z"
/>
<path fill="#202425" d="
  M 226.50 171.04
  Q 315.10 259.67 403.69 348.31
  Q 405.65 350.28 406.00 351.71
  Q 398.90 352.05 391.79 351.95
  Q 378.29 351.76 378.20 351.76
  Q 333.53 351.79 288.01 352.00
  C 287.73 352.01 287.50 352.24 287.50 352.52
  L 287.50 391.13
  C 287.50 391.61 287.89 392.00 288.37 392.00
  L 422.09 392.00
  C 422.45 392.00 422.75 391.70 422.75 391.33
  L 422.79 352.25
  Q 423.55 352.07 423.81 352.58
  Q 424.18 353.31 424.29 353.42
  Q 455.77 384.90 487.25 416.38
  Q 487.31 416.44 487.74 417.08
  Q 488.06 417.57 488.75 417.54
  Q 487.05 426.16 482.75 435.25
  Q 465.95 470.74 429.73 484.98
  Q 411.92 491.98 391.56 492.06
  Q 338.06 492.29 325.75 492.21
  L 315.25 481.96
  Q 167.17 334.51 90.94 257.56
  Q 89.69 256.30 91.50 255.29
  L 224.56 208.82
  C 225.41 208.52 225.98 207.72 225.99 206.81
  L 226.50 171.04
  Z"
/>
<path fill="#010001" fill-opacity="0.608" d="
  M 34.54 445.50
  L 38.25 450.79
  Q 42.94 458.06 49.24 464.02
  Q 75.81 489.16 112.51 491.66
  Q 118.75 492.08 129.94 492.06
  Q 190.41 491.96 325.75 492.21
  Q 338.06 492.29 391.56 492.06
  Q 411.92 491.98 429.73 484.98
  Q 465.95 470.74 482.75 435.25
  Q 487.05 426.16 488.75 417.54
  L 489.79 413.50
  Q 492.03 402.50 492.03 391.25
  Q 491.97 294.00 492.04 196.75
  L 492.42 187.06
  Q 492.44 186.63 492.44 187.07
  Q 492.50 221.51 492.56 255.95
  Q 492.56 256.19 492.59 256.41
  Q 493.08 260.29 493.10 255.75
  Q 493.30 221.53 493.53 187.31
  Q 493.53 186.56 493.94 186.37
  C 494.17 186.26 494.44 186.49 494.44 186.80
  Q 495.30 253.65 495.48 320.50
  Q 495.50 328.62 495.64 340.49
  Q 496.00 372.17 495.54 403.85
  Q 495.50 406.06 495.07 408.61
  Q 494.66 410.99 494.36 413.39
  Q 493.99 416.42 492.86 419.93
  Q 492.17 422.08 491.68 424.29
  Q 491.16 426.65 490.37 428.58
  Q 488.56 433.00 487.50 436.75
  Q 487.03 438.39 486.18 439.63
  Q 485.24 441.00 484.72 442.10
  Q 484.10 443.43 483.14 444.56
  Q 483.07 444.65 482.26 445.31
  Q 481.62 445.84 481.71 446.65
  C 481.76 447.06 481.66 447.47 481.45 447.83
  Q 477.37 454.63 473.19 459.69
  Q 470.57 462.86 460.60 472.46
  Q 459.38 473.64 457.03 475.00
  Q 455.08 476.13 453.43 477.67
  Q 452.11 478.92 450.90 479.55
  Q 449.95 480.05 449.01 480.55
  Q 448.19 480.99 447.23 481.74
  Q 444.10 484.17 440.38 485.44
  Q 438.81 485.98 436.81 487.00
  Q 435.03 487.90 433.06 488.34
  C 432.90 488.37 432.77 488.19 432.82 488.01
  Q 432.95 487.51 431.74 487.67
  Q 431.23 487.74 430.79 487.98
  Q 429.36 488.78 431.69 488.92
  Q 432.17 488.94 431.73 489.13
  Q 425.45 491.82 418.74 493.21
  Q 415.25 493.92 411.76 494.59
  Q 408.32 495.25 404.68 495.25
  Q 255.75 495.30 106.81 495.19
  Q 106.48 495.19 105.88 494.95
  Q 105.17 494.67 104.00 494.75
  Q 102.04 494.88 99.87 494.16
  Q 97.56 493.40 96.13 493.25
  Q 94.83 493.11 93.54 492.93
  Q 92.36 492.77 91.11 492.14
  Q 88.78 490.95 86.26 490.21
  Q 77.52 487.63 67.69 481.81
  Q 58.33 476.28 52.40 470.35
  Q 43.20 461.16 35.19 448.56
  Q 34.17 446.96 34.54 445.50
  Z"
/>
<path fill="#414748" d="
  M 20.04 229.50
  L 20.55 244.18
  Q 20.57 244.86 20.64 244.18
  L 21.04 240.07
  C 21.06 239.86 21.28 239.71 21.52 239.76
  Q 21.88 239.83 22.19 239.64
  C 22.49 239.46 22.80 239.38 23.06 239.41
  Q 24.82 239.62 24.96 237.50
  Q 25.03 275.12 25.00 312.75
  Q 25.00 315.82 24.51 317.66
  C 24.46 317.85 24.31 317.99 24.15 317.97
  Q 23.91 317.96 24.05 317.66
  C 24.11 317.54 24.05 317.40 23.93 317.36
  Q 19.94 316.32 20.61 321.19
  Q 20.71 321.91 20.68 321.19
  L 20.04 302.75
  L 20.04 229.50
  Z"
/>
<path fill="#73d216" d="
  M 406.00 351.71
  Q 413.84 352.22 421.69 351.77
  Q 422.05 351.75 422.29 351.87
  Q 422.57 352.01 422.79 352.25
  L 422.75 391.33
  C 422.75 391.70 422.45 392.00 422.09 392.00
  L 288.37 392.00
  C 287.89 392.00 287.50 391.61 287.50 391.13
  L 287.50 352.52
  C 287.50 352.24 287.73 352.01 288.01 352.00
  Q 333.53 351.79 378.20 351.76
  Q 378.29 351.76 391.79 351.95
  Q 398.90 352.05 406.00 351.71
  Z"
/>
<path fill="#252a2c" d="
  M 38.25 450.79
  L 41.54 454.77
  C 41.66 454.91 41.88 454.87 41.95 454.70
  L 42.33 453.75
  C 42.46 453.44 42.72 453.21 43.03 453.14
  L 49.18 451.85
  C 49.45 451.79 49.78 451.89 50.07 452.11
  Q 52.41 453.93 54.85 455.58
  Q 57.33 457.26 59.47 459.19
  Q 64.08 463.37 68.19 466.06
  Q 92.89 482.28 123.25 482.22
  Q 219.25 482.03 315.25 481.96
  L 325.75 492.21
  Q 190.41 491.96 129.94 492.06
  Q 118.75 492.08 112.51 491.66
  Q 75.81 489.16 49.24 464.02
  Q 42.94 458.06 38.25 450.79
  Z"
/>
<path fill="#000001" fill-opacity="0.427" d="
  M 39.29 457.75
  Q 40.00 458.05 40.53 458.73
  Q 46.44 466.30 51.81 470.94
  Q 58.47 476.68 59.50 478.00
  Q 62.09 481.31 66.02 482.60
  C 66.30 482.70 66.56 482.91 66.74 483.19
  Q 67.26 484.03 68.13 484.45
  Q 69.44 485.09 69.75 485.29
  Q 72.04 486.84 77.25 489.25
  Q 81.87 491.39 84.01 491.90
  C 84.28 491.96 84.55 492.15 84.77 492.42
  Q 85.32 493.09 86.25 493.06
  Q 86.83 493.04 87.21 493.22
  Q 92.08 495.55 97.49 495.74
  C 97.74 495.75 98.03 495.90 98.27 496.16
  Q 98.84 496.77 100.25 497.00
  Q 110.94 498.75 116.00 498.75
  Q 254.50 498.75 393.00 498.98
  Q 405.73 499.00 408.75 498.50
  Q 414.97 497.47 416.46 497.50
  Q 409.29 499.25 407.50 499.25
  Q 262.50 499.25 117.50 499.25
  Q 105.87 499.25 93.05 495.70
  C 92.86 495.65 92.67 495.83 92.67 496.06
  Q 92.66 496.73 91.24 495.89
  Q 91.00 495.75 91.27 495.69
  Q 92.84 495.35 91.40 495.26
  Q 91.24 495.25 91.11 495.21
  Q 79.16 491.87 66.75 484.25
  Q 62.62 481.71 60.19 479.82
  Q 59.46 479.25 56.90 477.76
  Q 55.17 476.75 53.98 475.02
  Q 53.09 473.73 51.83 472.92
  Q 50.07 471.81 49.48 471.16
  Q 46.11 467.51 41.50 461.75
  Q 39.84 459.68 39.29 457.75
  Z"
/>
<rect fill="#000000" fill-opacity="0.302" x="115.05" y="499.50" width="289.42" height="0.74" rx="0.26"/>
<path fill="#000000" fill-opacity="0.275" d="
  M 407.75 502.71
  Q 411.49 502.84 408.50 502.93
  Q 392.75 503.43 377.00 503.41
  Q 248.75 503.25 120.50 503.25
  Q 114.56 503.25 106.04 501.75
  Q 109.92 501.44 113.72 502.02
  Q 118.54 502.75 120.87 502.75
  Q 264.31 502.78 407.75 502.71
  Z"
/>
</svg>
