<svg width="1024" height="1024" viewBox="0 0 1024 1024" fill="none" xmlns="http://www.w3.org/2000/svg">
<rect width="1024" height="1024" rx="180" fill="white"/>
<path fill-rule="evenodd" clip-rule="evenodd" d="M705.72 738.393C705.72 629.334 616.798 540.787 507.27 540.787C397.742 540.787 308.82 629.334 308.82 738.393C308.82 847.459 397.742 936 507.27 936C616.798 936 705.72 847.459 705.72 738.393ZM419.952 716.87C417.029 716.87 414.66 719.204 414.66 722.087V868.17C414.66 871.053 417.029 873.387 419.952 873.387H454.35V834.258H529.598C532.027 834.258 534.143 832.628 534.732 830.306L535.889 825.743C536.803 822.138 537.851 818.004 538.701 814.654C539.096 813.095 538.741 811.445 537.738 810.18C536.735 808.915 535.197 808.172 533.567 808.172H454.35V788.607H529.598C532.027 788.607 534.143 786.976 534.732 784.655L535.966 779.79C536.862 776.257 537.875 772.26 538.701 769.003C539.096 767.444 538.741 765.794 537.738 764.529C536.735 763.264 535.197 762.521 533.567 762.521H454.35V742.956H560.19V847.301H553.738C552.108 847.301 550.57 848.045 549.567 849.31C548.564 850.575 548.209 852.225 548.604 853.784C549.388 856.876 550.342 860.636 551.203 864.033L552.573 869.435C553.162 871.757 555.278 873.387 557.707 873.387H594.588C595.992 873.387 597.338 872.84 598.33 871.861C599.322 870.883 599.88 869.553 599.88 868.17V722.087C599.88 719.204 597.511 716.87 594.588 716.87H419.952ZM388.2 630.785C388.2 627.902 390.569 625.568 393.492 625.568H454.35V604.699C454.35 601.816 456.719 599.481 459.642 599.481H488.748C490.152 599.481 491.498 600.029 492.49 601.007C493.482 601.986 494.04 603.316 494.04 604.699V692.388C494.04 695.146 491.856 697.435 489.059 697.592C470.658 698.661 406.58 702.379 387.188 703.5C385.733 703.585 384.307 703.076 383.247 702.092C382.186 701.107 381.585 699.731 381.585 698.296V682.657C381.585 679.899 383.769 677.616 386.566 677.453C402.984 676.501 454.35 673.521 454.35 673.521V651.654H393.492C390.569 651.654 388.2 649.319 388.2 646.437V630.785ZM620.244 619.972C603.874 622.457 560.19 629.083 560.19 629.083V604.699C560.19 601.816 557.821 599.481 554.898 599.481H525.792C524.388 599.481 523.042 600.029 522.05 601.007C521.058 601.986 520.5 603.316 520.5 604.699V692.388C520.5 695.146 522.684 697.435 525.481 697.592C543.882 698.661 607.96 702.379 627.352 703.5C628.807 703.585 630.233 703.076 631.293 702.092C632.354 701.107 632.955 699.731 632.955 698.296V676.436C632.955 675.053 632.397 673.723 631.405 672.745C630.413 671.766 629.067 671.219 627.663 671.219H606.495V676.208L560.19 673.521V655.169C560.19 655.169 606.972 648.074 621.852 645.811C624.434 645.419 626.34 643.234 626.34 640.658V625.131C626.34 623.605 625.666 622.157 624.494 621.165C623.322 620.174 621.77 619.737 620.244 619.972Z" fill="#FF6800"/>
<path fill-rule="evenodd" clip-rule="evenodd" d="M507.76 88C622.458 88 715.52 180.726 715.52 294.877C715.52 409.028 622.458 501.754 507.76 501.754C393.062 501.754 300 409.028 300 294.877C300 180.726 393.062 88 507.76 88ZM507.76 105.738C403.099 105.738 318.066 190.465 318.066 294.877C318.066 399.289 403.099 484.015 507.76 484.015C612.421 484.015 697.454 399.289 697.454 294.877C697.454 190.465 612.421 105.738 507.76 105.738ZM636.037 210.766C637.031 209.786 637.589 208.453 637.589 207.067V184.851C637.589 183.466 637.031 182.133 636.037 181.153C635.043 180.173 633.694 179.624 632.288 179.624H391.072C389.666 179.624 388.317 180.173 387.323 181.153C386.329 182.133 385.771 183.466 385.771 184.851V207.067C385.771 209.956 388.144 212.295 391.072 212.295H505.053C505.053 212.295 403.799 312.138 382.893 332.747C381.899 333.727 381.34 335.06 381.34 336.445C381.34 337.83 381.899 339.163 382.893 340.144C385.468 342.682 389.053 346.216 392.617 349.73C396.035 353.099 399.433 356.449 401.902 358.884C402.896 359.864 404.245 360.419 405.651 360.419C407.057 360.419 408.406 359.864 409.4 358.884C425.967 342.548 491.8 277.637 491.8 277.637V435.765C491.8 438.653 494.173 440.993 497.101 440.993H526.259C529.187 440.993 531.56 438.653 531.56 435.765V238.432L558.068 212.295H632.288C633.694 212.295 635.043 211.746 636.037 210.766ZM560.491 253.892C558.975 252.395 556.695 251.945 554.714 252.755C552.732 253.565 551.441 255.473 551.441 257.584C551.441 270.266 551.441 288.804 551.441 295.077C551.441 296.462 551.999 297.789 552.993 298.769C561.39 307.048 601.441 346.54 613.96 358.884C614.954 359.864 616.303 360.419 617.709 360.419C619.115 360.419 620.464 359.864 621.458 358.884C626.502 353.911 635.423 345.116 640.467 340.143C641.461 339.163 642.02 337.83 642.02 336.445C642.02 335.06 641.461 333.727 640.467 332.747C626.93 319.397 580.324 273.449 560.491 253.892Z" fill="#FF6800"/>
</svg>
