<?xml version="1.0" encoding="utf-8"?>
<!-- Generator: Adobe Illustrator 23.0.0, SVG Export Plug-In . SVG Version: 6.00 Build 0)  -->
<svg version="1.1" id="图层_1"
  xmlns="http://www.w3.org/2000/svg"
  xmlns:xlink="http://www.w3.org/1999/xlink" x="0px" y="0px" viewBox="0 0 68 68" style="enable-background:new 0 0 68 68;" xml:space="preserve">
  <style type="text/css">
	.st0{fill:#2465B1;}
  </style>
  <path class="st0" d="M65.4,18.9c-2.4-2.5-5.7-4.3-9.5-4.8C55.4,14.1,55,14,54.5,14l5.1-6.9c1-1.3,0.6-3.1-0.8-4
	c-1.4-0.9-3.3-0.6-4.2,0.7l-7,9.5h0c-3.9-0.3-7.8-0.4-11.7-0.4S28,13,24.1,13.3h0l-7-9.5c-1-1.3-2.9-1.6-4.2-0.7
	c-1.4,0.9-1.7,2.7-0.8,4l5.1,6.9c-0.5,0.1-0.9,0.1-1.4,0.2c-7.6,1-13.3,7.1-13.3,14.3v20c0,3.6,1.4,6.9,3.8,9.5
	c2.4,2.5,5.7,4.3,9.5,4.8c13.3,1.7,26.8,1.7,40.1,0c7.6-1,13.3-7.1,13.3-14.3v-20C69.3,24.8,67.8,21.5,65.4,18.9z M45.6,40.9l-11,8
	c-2.2,1.6-5.4,0.1-5.4-2.5V30.4c0-2.6,3.2-4.1,5.4-2.5l11,8C47.3,37.2,47.3,39.7,45.6,40.9L45.6,40.9z"/>
</svg>
