<?xml version="1.0" encoding="UTF-8" standalone="no"?>
<!DOCTYPE svg PUBLIC "-//W3C//DTD SVG 1.1//EN" "http://www.w3.org/Graphics/SVG/1.1/DTD/svg11.dtd">
<svg xmlns="http://www.w3.org/2000/svg" version="1.1" viewBox="0 0 180 180">
<path fill="#ed00ec" d="
  M 87.81 0.00
  Q 90.06 0.00 92.31 0.00
  Q 123.29 8.02 153.95 17.18
  Q 161.28 19.37 163.50 27.25
  Q 171.57 55.95 179.52 84.67
  Q 179.68 85.24 179.69 86.36
  Q 179.70 87.24 180.00 88.06
  Q 180.00 90.19 180.00 92.31
  Q 179.75 93.45 179.61 94.60
  Q 179.45 95.92 179.19 96.86
  Q 171.12 125.51 163.19 154.19
  Q 162.08 158.20 158.40 160.92
  Q 156.11 162.61 151.07 164.02
  Q 123.13 171.84 95.16 179.57
  Q 94.74 179.68 93.81 179.69
  Q 93.09 179.70 92.44 180.00
  Q 90.06 180.00 87.69 180.00
  Q 86.55 179.79 85.41 179.64
  Q 84.14 179.47 83.13 179.19
  Q 55.10 171.30 27.04 163.54
  Q 19.01 161.32 16.81 153.69
  Q 13.82 143.32 1.12 97.33
  Q 0.83 96.27 0.56 94.64
  Q 0.34 93.28 0.00 91.94
  Q 0.00 89.94 0.00 87.94
  Q 1.17 82.22 2.06 79.06
  Q 9.57 52.54 17.00 26.00
  Q 18.10 22.08 21.30 19.50
  Q 23.38 17.82 28.13 16.45
  Q 54.27 8.94 80.49 1.71
  Q 84.11 0.71 87.81 0.00
  Z
  M 100.1221 22.9909
  C 94.53 17.40 85.47 17.40 79.8847 22.9909
  L 22.9909 79.8847
  C 17.40 85.47 17.40 94.53 22.9909 100.1221
  L 79.9979 157.1291
  C 85.59 162.72 94.65 162.72 100.2353 157.1291
  L 157.1291 100.2353
  C 162.72 94.65 162.72 85.59 157.1291 79.9979
  L 100.1221 22.9909
  Z"
/>
</svg>
