<?xml version="1.0" encoding="UTF-8" standalone="no"?>
<!DOCTYPE svg PUBLIC "-//W3C//DTD SVG 1.1//EN" "http://www.w3.org/Graphics/SVG/1.1/DTD/svg11.dtd">
<svg xmlns="http://www.w3.org/2000/svg" version="1.1" viewBox="0.00 0.00 32.00 32.00">
<path fill="#000000" d="
  M 18.39 5.37
  C 20.55 7.86 22.03 11.32 23.77 14.17
  A 3.07 3.04 44.5 0 1 23.81 17.28
  L 19.20 25.36
  Q 18.41 26.74 16.82 26.74
  L 7.35 26.74
  A 2.31 2.29 75.1 0 1 5.38 25.59
  L 0.62 17.24
  A 2.88 2.86 45.1 0 1 0.61 14.39
  L 5.10 6.49
  Q 6.00 4.90 7.82 4.91
  L 17.43 4.93
  Q 18.01 4.94 18.39 5.37
  Z"
/>
<path fill="#000000" d="
  M 32.00 15.53
  L 32.00 16.28
  L 26.97 25.15
  Q 26.03 26.80 24.14 26.78
  L 23.28 26.77
  Q 21.50 26.75 22.38 25.21
  L 27.03 17.10
  A 2.54 2.54 0.0 0 0 27.03 14.58
  L 22.26 6.21
  Q 21.51 4.88 23.03 4.91
  L 24.57 4.94
  Q 26.08 4.97 26.82 6.29
  L 32.00 15.53
  Z"
/>
</svg>
