<?xml version="1.0" encoding="UTF-8" standalone="no"?>
<!DOCTYPE svg PUBLIC "-//W3C//DTD SVG 1.1//EN" "http://www.w3.org/Graphics/SVG/1.1/DTD/svg11.dtd">
<svg xmlns="http://www.w3.org/2000/svg" version="1.1" viewBox="0 0 192 192">
<g stroke-width="2.0" fill="none" stroke-linecap="butt">
<path stroke="#d5552b" vector-effect="non-scaling-stroke" d="
  M 112.95 92.73
  Q 112.12 92.50 112.92 92.19
  Q 131.92 85.00 127.89 64.52
  Q 125.67 53.28 116.19 48.31
  Q 107.26 43.64 98.25 43.50
  Q 90.83 43.38 59.56 43.56
  C 59.28 43.56 59.06 43.79 59.06 44.07
  L 59.00 148.06
  C 59.00 148.44 59.31 148.75 59.69 148.75
  Q 76.04 148.75 92.35 148.75
  Q 92.46 148.75 97.64 148.86
  Q 107.53 149.06 114.94 146.19
  Q 130.32 140.22 132.60 125.47
  Q 134.25 114.74 129.91 105.96
  Q 125.04 96.10 112.95 92.73"
/>
<path stroke="#d5552b" vector-effect="non-scaling-stroke" d="
  M 109.57 83.57
  Q 113.04 80.42 114.07 76.16
  Q 115.00 72.31 114.27 67.82
  Q 113.17 61.09 107.26 57.51
  Q 105.33 56.35 102.42 55.61
  Q 99.28 54.82 97.25 54.75
  Q 86.13 54.36 74.13 54.51
  C 73.78 54.52 73.50 54.80 73.50 55.15
  L 73.50 87.72
  C 73.50 88.00 73.73 88.23 74.02 88.24
  Q 85.86 88.41 97.14 88.10
  Q 101.42 87.99 103.75 87.12
  Q 106.96 85.94 109.57 83.57"
/>
<path stroke="#d5552b" vector-effect="non-scaling-stroke" d="
  M 113.31 103.94
  Q 107.83 99.02 99.87 99.29
  Q 95.82 99.42 95.75 99.42
  Q 85.00 99.35 74.01 99.44
  C 73.73 99.44 73.50 99.67 73.50 99.96
  L 73.56 136.93
  C 73.56 137.21 73.79 137.44 74.07 137.45
  Q 94.32 138.11 100.75 137.50
  Q 118.12 135.86 118.64 120.04
  Q 118.81 115.04 117.88 111.49
  Q 116.69 106.97 113.31 103.94"
/>
</g>
<path fill="#ffaa55" d="
  M 18.06 0.00
  Q 96.31 0.00 174.56 0.00
  Q 189.67 2.66 192.00 17.81
  Q 192.00 96.06 192.00 174.31
  Q 189.48 189.81 173.94 192.00
  Q 95.81 192.00 17.69 192.00
  Q 2.21 189.46 0.00 173.94
  Q 0.00 95.69 0.00 17.44
  Q 2.68 2.17 18.06 0.00
  Z
  M 112.95 92.73
  Q 112.12 92.50 112.92 92.19
  Q 131.92 85.00 127.89 64.52
  Q 125.67 53.28 116.19 48.31
  Q 107.26 43.64 98.25 43.50
  Q 90.83 43.38 59.56 43.56
  C 59.28 43.56 59.06 43.79 59.06 44.07
  L 59.00 148.06
  C 59.00 148.44 59.31 148.75 59.69 148.75
  Q 76.04 148.75 92.35 148.75
  Q 92.46 148.75 97.64 148.86
  Q 107.53 149.06 114.94 146.19
  Q 130.32 140.22 132.60 125.47
  Q 134.25 114.74 129.91 105.96
  Q 125.04 96.10 112.95 92.73
  Z"
/>
<path fill="#aa0000" d="
  M 112.95 92.73
  Q 125.04 96.10 129.91 105.96
  Q 134.25 114.74 132.60 125.47
  Q 130.32 140.22 114.94 146.19
  Q 107.53 149.06 97.64 148.86
  Q 92.46 148.75 92.35 148.75
  Q 76.04 148.75 59.69 148.75
  C 59.31 148.75 59.00 148.44 59.00 148.06
  L 59.06 44.07
  C 59.06 43.79 59.28 43.56 59.56 43.56
  Q 90.83 43.38 98.25 43.50
  Q 107.26 43.64 116.19 48.31
  Q 125.67 53.28 127.89 64.52
  Q 131.92 85.00 112.92 92.19
  Q 112.12 92.50 112.95 92.73
  Z
  M 109.57 83.57
  Q 113.04 80.42 114.07 76.16
  Q 115.00 72.31 114.27 67.82
  Q 113.17 61.09 107.26 57.51
  Q 105.33 56.35 102.42 55.61
  Q 99.28 54.82 97.25 54.75
  Q 86.13 54.36 74.13 54.51
  C 73.78 54.52 73.50 54.80 73.50 55.15
  L 73.50 87.72
  C 73.50 88.00 73.73 88.23 74.02 88.24
  Q 85.86 88.41 97.14 88.10
  Q 101.42 87.99 103.75 87.12
  Q 106.96 85.94 109.57 83.57
  Z
  M 113.31 103.94
  Q 107.83 99.02 99.87 99.29
  Q 95.82 99.42 95.75 99.42
  Q 85.00 99.35 74.01 99.44
  C 73.73 99.44 73.50 99.67 73.50 99.96
  L 73.56 136.93
  C 73.56 137.21 73.79 137.44 74.07 137.45
  Q 94.32 138.11 100.75 137.50
  Q 118.12 135.86 118.64 120.04
  Q 118.81 115.04 117.88 111.49
  Q 116.69 106.97 113.31 103.94
  Z"
/>
<path fill="#ffaa55" d="
  M 109.57 83.57
  Q 106.96 85.94 103.75 87.12
  Q 101.42 87.99 97.14 88.10
  Q 85.86 88.41 74.02 88.24
  C 73.73 88.23 73.50 88.00 73.50 87.72
  L 73.50 55.15
  C 73.50 54.80 73.78 54.52 74.13 54.51
  Q 86.13 54.36 97.25 54.75
  Q 99.28 54.82 102.42 55.61
  Q 105.33 56.35 107.26 57.51
  Q 113.17 61.09 114.27 67.82
  Q 115.00 72.31 114.07 76.16
  Q 113.04 80.42 109.57 83.57
  Z"
/>
<path fill="#ffaa55" d="
  M 113.31 103.94
  Q 116.69 106.97 117.88 111.49
  Q 118.81 115.04 118.64 120.04
  Q 118.12 135.86 100.75 137.50
  Q 94.32 138.11 74.07 137.45
  C 73.79 137.44 73.56 137.21 73.56 136.93
  L 73.50 99.96
  C 73.50 99.67 73.73 99.44 74.01 99.44
  Q 85.00 99.35 95.75 99.42
  Q 95.82 99.42 99.87 99.29
  Q 107.83 99.02 113.31 103.94
  Z"
/>
</svg>
