<?xml version="1.0" encoding="UTF-8" standalone="no"?>
<!DOCTYPE svg PUBLIC "-//W3C//DTD SVG 1.1//EN" "http://www.w3.org/Graphics/SVG/1.1/DTD/svg11.dtd">
<svg xmlns="http://www.w3.org/2000/svg" version="1.1" viewBox="0 0 544 544">
<g stroke-width="2.0" fill="none" stroke-linecap="butt">
<path stroke="#ec2c72" vector-effect="non-scaling-stroke" d="
  M 272.81 0.00
  Q 272.79 0.78 272.34 1.38
  C 272.12 1.67 272.00 1.98 272.00 2.25
  L 272.00 112.00"
/>
<path stroke="#ec3074" vector-effect="non-scaling-stroke" d="
  M 272.00 112.00
  Q 234.99 111.92 202.44 127.69
  Q 179.45 138.83 160.19 157.19
  Q 159.73 157.62 158.25 158.04"
/>
<path stroke="#de8b5d" vector-effect="non-scaling-stroke" d="
  M 158.25 158.04
  Q 119.17 119.10 80.23 80.01
  Q 79.94 79.71 79.50 79.71"
/>
<path stroke="#9466ad" vector-effect="non-scaling-stroke" d="
  M 464.25 79.46
  L 385.00 158.79"
/>
<path stroke="#e51957" vector-effect="non-scaling-stroke" d="
  M 385.00 158.79
  Q 383.82 158.54 383.44 157.42
  Q 383.25 156.87 382.95 156.58
  Q 368.17 142.23 349.56 131.94
  Q 313.29 111.88 272.00 112.00"
/>
<path stroke="#30a2f5" vector-effect="non-scaling-stroke" d="
  M 544.00 272.56
  Q 543.48 271.77 542.75 272.25
  Q 487.37 272.25 432.00 272.25"
/>
<path stroke="#35a2f4" vector-effect="non-scaling-stroke" d="
  M 432.00 272.25
  Q 432.26 258.76 429.75 244.75
  Q 420.91 195.39 386.25 159.75
  Q 386.07 159.56 384.96 159.00"
/>
<path stroke="#9060a1" vector-effect="non-scaling-stroke" d="
  M 384.96 159.00
  L 385.00 158.79"
/>
<path stroke="#db8250" vector-effect="non-scaling-stroke" d="
  M 158.25 158.04
  L 159.00 158.96"
/>
<path stroke="#c5d630" vector-effect="non-scaling-stroke" d="
  M 159.00 158.96
  Q 158.03 159.00 157.69 159.44
  Q 155.79 161.86 153.69 164.12
  Q 150.54 167.51 149.58 168.66
  Q 112.67 213.25 111.71 272.00"
/>
<path stroke="#d3e149" vector-effect="non-scaling-stroke" d="
  M 111.71 272.00
  Q 55.85 272.05 0.00 271.94"
/>
<path stroke="#e51d59" vector-effect="non-scaling-stroke" d="
  M 272.00 112.00
  Q 272.00 189.25 272.00 266.50
  Q 272.00 268.90 271.21 270.75"
/>
<path stroke="#d37c47" vector-effect="non-scaling-stroke" d="
  M 271.21 270.75
  Q 270.41 270.29 269.06 268.94
  Q 240.42 240.16 159.00 158.96"
/>
<path stroke="#86559f" vector-effect="non-scaling-stroke" d="
  M 384.96 159.00
  L 272.96 271.00"
/>
<path stroke="#7b489d" vector-effect="non-scaling-stroke" d="
  M 272.96 271.00
  Q 272.40 271.10 272.00 271.54"
/>
<path stroke="#cf7239" vector-effect="non-scaling-stroke" d="
  M 272.00 271.54
  Q 271.50 271.25 271.21 270.75"
/>
<path stroke="#69a78b" vector-effect="non-scaling-stroke" d="
  M 272.00 271.54
  L 271.96 272.00"
/>
<path stroke="#a17561" vector-effect="non-scaling-stroke" d="
  M 271.96 272.00
  Q 271.49 272.77 270.75 273.29"
/>
<path stroke="#c5d635" vector-effect="non-scaling-stroke" d="
  M 270.75 273.29
  Q 270.08 273.08 269.95 272.56
  C 269.88 272.27 269.67 272.06 269.44 272.06
  Q 191.47 271.95 113.50 272.00
  Q 112.41 272.00 112.00 272.29"
/>
<path stroke="#cbdb40" vector-effect="non-scaling-stroke" d="
  M 112.00 272.29
  Q 111.77 272.23 111.71 272.00"
/>
<path stroke="#208af0" vector-effect="non-scaling-stroke" d="
  M 432.00 272.25
  Q 356.00 272.25 280.00 272.33
  Q 277.12 272.33 274.25 272.02
  Q 273.26 271.91 272.96 271.00"
/>
<path stroke="#1b8af1" vector-effect="non-scaling-stroke" d="
  M 432.00 272.25
  Q 432.13 289.75 428.28 306.81
  Q 418.82 348.64 390.00 380.25
  Q 386.46 384.13 385.46 385.50"
/>
<path stroke="#6461d8" vector-effect="non-scaling-stroke" d="
  M 385.46 385.50
  L 385.29 385.50"
/>
<path stroke="#5957cf" vector-effect="non-scaling-stroke" d="
  M 385.29 385.50
  L 272.50 272.71"
/>
<path stroke="#4d4bc4" vector-effect="non-scaling-stroke" d="
  M 272.50 272.71
  Q 271.99 272.48 271.96 272.00"
/>
<path stroke="#d3e04e" vector-effect="non-scaling-stroke" d="
  M 112.00 272.29
  Q 112.80 338.54 158.79 385.25"
/>
<path stroke="#af7f7a" vector-effect="non-scaling-stroke" d="
  M 158.79 385.25
  L 158.75 385.46"
/>
<path stroke="#bb8685" vector-effect="non-scaling-stroke" d="
  M 158.75 385.46
  Q 119.79 424.27 80.94 463.19
  Q 80.86 463.26 80.51 463.74
  Q 80.16 464.22 79.54 464.25"
/>
<path stroke="#a87a6e" vector-effect="non-scaling-stroke" d="
  M 270.75 273.29
  L 158.79 385.25"
/>
<path stroke="#9025a5" vector-effect="non-scaling-stroke" d="
  M 272.50 272.71
  Q 272.00 272.67 272.00 273.25
  Q 271.97 352.50 272.04 431.75"
/>
<path stroke="#9b2fae" vector-effect="non-scaling-stroke" d="
  M 272.04 431.75
  L 271.96 432.00"
/>
<path stroke="#9020a5" vector-effect="non-scaling-stroke" d="
  M 271.96 432.00
  Q 220.28 431.90 178.81 402.19
  Q 168.73 394.97 158.75 385.46"
/>
<path stroke="#6a6edb" vector-effect="non-scaling-stroke" d="
  M 464.29 464.50
  L 385.46 385.50"
/>
<path stroke="#a73bb9" vector-effect="non-scaling-stroke" d="
  M 385.29 385.50
  Q 366.74 403.28 345.75 414.25
  Q 313.72 430.99 276.25 432.00
  Q 273.74 432.07 272.04 431.75"
/>
<path stroke="#a736b9" vector-effect="non-scaling-stroke" d="
  M 271.96 432.00
  Q 272.08 488.00 271.94 544.00"
/>
</g>
<path fill="#ef3981" d="
  M 260.31 0.00
  Q 266.56 0.00 272.81 0.00
  Q 272.79 0.78 272.34 1.38
  C 272.12 1.67 272.00 1.98 272.00 2.25
  L 272.00 112.00
  Q 234.99 111.92 202.44 127.69
  Q 179.45 138.83 160.19 157.19
  Q 159.73 157.62 158.25 158.04
  Q 119.17 119.10 80.23 80.01
  Q 79.94 79.71 79.50 79.71
  Q 134.31 24.87 209.31 7.06
  Q 233.43 1.34 260.31 0.00
  Z"
/>
<path fill="#e91e63" d="
  M 272.81 0.00
  Q 278.06 0.00 283.31 0.00
  Q 389.26 5.74 464.25 79.46
  L 385.00 158.79
  Q 383.82 158.54 383.44 157.42
  Q 383.25 156.87 382.95 156.58
  Q 368.17 142.23 349.56 131.94
  Q 313.29 111.88 272.00 112.00
  L 272.00 2.25
  C 272.00 1.98 272.12 1.67 272.34 1.38
  Q 272.79 0.78 272.81 0.00
  Z"
/>
<path fill="#3eadf6" d="
  M 464.25 79.46
  Q 476.33 91.29 485.81 103.44
  Q 539.54 172.25 544.00 260.31
  Q 544.00 266.44 544.00 272.56
  Q 543.48 271.77 542.75 272.25
  Q 487.37 272.25 432.00 272.25
  Q 432.26 258.76 429.75 244.75
  Q 420.91 195.39 386.25 159.75
  Q 386.07 159.56 384.96 159.00
  L 385.00 158.79
  L 464.25 79.46
  Z"
/>
<path fill="#cddc39" d="
  M 79.50 79.71
  Q 79.94 79.71 80.23 80.01
  Q 119.17 119.10 158.25 158.04
  L 159.00 158.96
  Q 158.03 159.00 157.69 159.44
  Q 155.79 161.86 153.69 164.12
  Q 150.54 167.51 149.58 168.66
  Q 112.67 213.25 111.71 272.00
  Q 55.85 272.05 0.00 271.94
  Q 0.00 266.81 0.00 261.69
  Q 5.33 155.10 79.50 79.71
  Z"
/>
<path fill="#e92767" d="
  M 272.00 112.00
  Q 272.00 189.25 272.00 266.50
  Q 272.00 268.90 271.21 270.75
  Q 270.41 270.29 269.06 268.94
  Q 240.42 240.16 159.00 158.96
  L 158.25 158.04
  Q 159.73 157.62 160.19 157.19
  Q 179.45 138.83 202.44 127.69
  Q 234.99 111.92 272.00 112.00
  Z"
/>
<path fill="#e1134b" d="
  M 272.00 112.00
  Q 313.29 111.88 349.56 131.94
  Q 368.17 142.23 382.95 156.58
  Q 383.25 156.87 383.44 157.42
  Q 383.82 158.54 385.00 158.79
  L 384.96 159.00
  L 272.96 271.00
  Q 272.40 271.10 272.00 271.54
  Q 271.50 271.25 271.21 270.75
  Q 272.00 268.90 272.00 266.50
  Q 272.00 189.25 272.00 112.00
  Z"
/>
<path fill="#bdd027" d="
  M 159.00 158.96
  Q 240.42 240.16 269.06 268.94
  Q 270.41 270.29 271.21 270.75
  Q 271.50 271.25 272.00 271.54
  L 271.96 272.00
  Q 271.49 272.77 270.75 273.29
  Q 270.08 273.08 269.95 272.56
  C 269.88 272.27 269.67 272.06 269.44 272.06
  Q 191.47 271.95 113.50 272.00
  Q 112.41 272.00 112.00 272.29
  Q 111.77 272.23 111.71 272.00
  Q 112.67 213.25 149.58 168.66
  Q 150.54 167.51 153.69 164.12
  Q 155.79 161.86 157.69 159.44
  Q 158.03 159.00 159.00 158.96
  Z"
/>
<path fill="#2b97f2" d="
  M 384.96 159.00
  Q 386.07 159.56 386.25 159.75
  Q 420.91 195.39 429.75 244.75
  Q 432.26 258.76 432.00 272.25
  Q 356.00 272.25 280.00 272.33
  Q 277.12 272.33 274.25 272.02
  Q 273.26 271.91 272.96 271.00
  L 384.96 159.00
  Z"
/>
<path fill="#157dee" d="
  M 272.96 271.00
  Q 273.26 271.91 274.25 272.02
  Q 277.12 272.33 280.00 272.33
  Q 356.00 272.25 432.00 272.25
  Q 432.13 289.75 428.28 306.81
  Q 418.82 348.64 390.00 380.25
  Q 386.46 384.13 385.46 385.50
  L 385.29 385.50
  L 272.50 272.71
  Q 271.99 272.48 271.96 272.00
  L 272.00 271.54
  Q 272.40 271.10 272.96 271.00
  Z"
/>
<path fill="#d9e559" d="
  M 111.71 272.00
  Q 111.77 272.23 112.00 272.29
  Q 112.80 338.54 158.79 385.25
  L 158.75 385.46
  Q 119.79 424.27 80.94 463.19
  Q 80.86 463.26 80.51 463.74
  Q 80.16 464.22 79.54 464.25
  Q 62.88 447.96 49.94 429.56
  Q 3.94 364.20 0.00 283.69
  Q 0.00 277.81 0.00 271.94
  Q 55.85 272.05 111.71 272.00
  Z"
/>
<path fill="#ccdb42" d="
  M 270.75 273.29
  L 158.79 385.25
  Q 112.80 338.54 112.00 272.29
  Q 112.41 272.00 113.50 272.00
  Q 191.47 271.95 269.44 272.06
  C 269.67 272.06 269.88 272.27 269.95 272.56
  Q 270.08 273.08 270.75 273.29
  Z"
/>
<path fill="#84199a" d="
  M 271.96 272.00
  Q 271.99 272.48 272.50 272.71
  Q 272.00 272.67 272.00 273.25
  Q 271.97 352.50 272.04 431.75
  L 271.96 432.00
  Q 220.28 431.90 178.81 402.19
  Q 168.73 394.97 158.75 385.46
  L 158.79 385.25
  L 270.75 273.29
  Q 271.49 272.77 271.96 272.00
  Z"
/>
<path fill="#2196f3" d="
  M 544.00 272.56
  Q 544.00 277.81 544.00 283.06
  Q 538.34 389.36 464.29 464.50
  L 385.46 385.50
  Q 386.46 384.13 390.00 380.25
  Q 418.82 348.64 428.28 306.81
  Q 432.13 289.75 432.00 272.25
  Q 487.37 272.25 542.75 272.25
  Q 543.48 271.77 544.00 272.56
  Z"
/>
<path fill="#9c31af" d="
  M 272.50 272.71
  L 385.29 385.50
  Q 366.74 403.28 345.75 414.25
  Q 313.72 430.99 276.25 432.00
  Q 273.74 432.07 272.04 431.75
  Q 271.97 352.50 272.00 273.25
  Q 272.00 272.67 272.50 272.71
  Z"
/>
<path fill="#9c27b0" d="
  M 158.75 385.46
  Q 168.73 394.97 178.81 402.19
  Q 220.28 431.90 271.96 432.00
  Q 272.08 488.00 271.94 544.00
  Q 266.31 544.00 260.69 544.00
  Q 240.17 542.94 222.00 539.50
  Q 139.23 523.85 79.54 464.25
  Q 80.16 464.22 80.51 463.74
  Q 80.86 463.26 80.94 463.19
  Q 119.79 424.27 158.75 385.46
  Z"
/>
<path fill="#b245c2" d="
  M 385.29 385.50
  L 385.46 385.50
  L 464.29 464.50
  Q 443.02 485.97 418.69 501.44
  Q 357.28 540.46 283.69 544.00
  Q 277.81 544.00 271.94 544.00
  Q 272.08 488.00 271.96 432.00
  L 272.04 431.75
  Q 273.74 432.07 276.25 432.00
  Q 313.72 430.99 345.75 414.25
  Q 366.74 403.28 385.29 385.50
  Z"
/>
</svg>
