<?xml version="1.0" encoding="UTF-8" standalone="no"?>
<!DOCTYPE svg PUBLIC "-//W3C//DTD SVG 1.1//EN" "http://www.w3.org/Graphics/SVG/1.1/DTD/svg11.dtd">
<svg xmlns="http://www.w3.org/2000/svg" version="1.1" viewBox="0 0 32 32">
<path stroke="#7dd0ef" stroke-width="2.0" fill="none" stroke-linecap="butt" vector-effect="non-scaling-stroke" d="
  M 13.30 8.94
  Q 13.05 5.52 9.50 5.50
  Q 5.96 5.48 5.56 8.06
  Q 5.16 10.64 6.92 9.17
  Q 9.02 7.41 9.58 9.48
  Q 9.79 10.25 9.55 11.52
  Q 8.45 17.23 7.79 23.00
  Q 7.21 27.99 11.29 25.73
  C 11.97 25.35 12.34 24.59 12.22 23.83
  Q 11.01 15.92 16.52 10.32
  Q 17.41 9.42 18.38 9.35
  Q 20.08 9.23 20.28 10.92
  Q 20.38 11.77 19.89 13.53
  Q 18.96 16.88 18.00 20.23
  Q 17.30 22.69 17.45 23.85
  Q 17.81 26.72 21.47 25.86
  Q 26.29 24.73 26.31 20.74
  Q 26.32 19.03 25.17 20.30
  Q 22.59 23.16 21.73 22.53
  Q 21.05 22.03 21.78 20.07
  Q 24.37 13.14 24.25 11.50
  Q 23.64 3.10 16.45 6.38
  Q 15.63 6.75 14.93 7.59
  Q 14.31 8.34 13.65 9.07
  Q 13.33 9.42 13.30 8.94"
/>
<path fill="#00a4e2" d="
  M 14.81 0.00
  Q 16.19 0.00 17.56 0.00
  Q 30.17 2.34 32.00 15.06
  Q 32.00 16.19 32.00 17.31
  Q 29.90 29.81 17.44 32.00
  Q 16.06 32.00 14.69 32.00
  Q 2.01 29.90 0.00 17.19
  Q 0.00 15.81 0.00 14.44
  Q 2.26 1.99 14.81 0.00
  Z
  M 13.30 8.94
  Q 13.05 5.52 9.50 5.50
  Q 5.96 5.48 5.56 8.06
  Q 5.16 10.64 6.92 9.17
  Q 9.02 7.41 9.58 9.48
  Q 9.79 10.25 9.55 11.52
  Q 8.45 17.23 7.79 23.00
  Q 7.21 27.99 11.29 25.73
  C 11.97 25.35 12.34 24.59 12.22 23.83
  Q 11.01 15.92 16.52 10.32
  Q 17.41 9.42 18.38 9.35
  Q 20.08 9.23 20.28 10.92
  Q 20.38 11.77 19.89 13.53
  Q 18.96 16.88 18.00 20.23
  Q 17.30 22.69 17.45 23.85
  Q 17.81 26.72 21.47 25.86
  Q 26.29 24.73 26.31 20.74
  Q 26.32 19.03 25.17 20.30
  Q 22.59 23.16 21.73 22.53
  Q 21.05 22.03 21.78 20.07
  Q 24.37 13.14 24.25 11.50
  Q 23.64 3.10 16.45 6.38
  Q 15.63 6.75 14.93 7.59
  Q 14.31 8.34 13.65 9.07
  Q 13.33 9.42 13.30 8.94
  Z"
/>
<path fill="#fafbfc" d="
  M 13.65 9.07
  Q 14.31 8.34 14.93 7.59
  Q 15.63 6.75 16.45 6.38
  Q 23.64 3.10 24.25 11.50
  Q 24.37 13.14 21.78 20.07
  Q 21.05 22.03 21.73 22.53
  Q 22.59 23.16 25.17 20.30
  Q 26.32 19.03 26.31 20.74
  Q 26.29 24.73 21.47 25.86
  Q 17.81 26.72 17.45 23.85
  Q 17.30 22.69 18.00 20.23
  Q 18.96 16.88 19.89 13.53
  Q 20.38 11.77 20.28 10.92
  Q 20.08 9.23 18.38 9.35
  Q 17.41 9.42 16.52 10.32
  Q 11.01 15.92 12.22 23.83
  C 12.34 24.59 11.97 25.35 11.29 25.73
  Q 7.21 27.99 7.79 23.00
  Q 8.45 17.23 9.55 11.52
  Q 9.79 10.25 9.58 9.48
  Q 9.02 7.41 6.92 9.17
  Q 5.16 10.64 5.56 8.06
  Q 5.96 5.48 9.50 5.50
  Q 13.05 5.52 13.30 8.94
  Q 13.33 9.42 13.65 9.07
  Z"
/>
</svg>
