<?xml version="1.0" encoding="UTF-8" standalone="no"?>
<!DOCTYPE svg PUBLIC "-//W3C//DTD SVG 1.1//EN" "http://www.w3.org/Graphics/SVG/1.1/DTD/svg11.dtd">
<svg xmlns="http://www.w3.org/2000/svg" version="1.1" viewBox="0 0 180 180">
<g stroke-width="2.0" fill="none" stroke-linecap="butt">
<path stroke="#808080" vector-effect="non-scaling-stroke" d="
  M 166.75 48.14
  L 91.16 13.48
  C 90.63 13.24 90.01 13.24 89.47 13.48
  L 14.05 47.95
  C 13.54 48.19 13.22 48.70 13.23 49.26
  Q 13.95 88.37 13.63 126.50
  Q 13.60 129.76 14.09 133.73
  C 14.16 134.26 14.50 134.72 14.99 134.94
  L 89.02 167.13
  C 89.85 167.49 90.79 167.49 91.62 167.13
  L 165.56 135.01
  C 166.24 134.71 166.68 134.03 166.69 133.28
  L 167.52 49.37
  C 167.53 48.84 167.22 48.36 166.75 48.14"
/>
<path stroke="#808080" vector-effect="non-scaling-stroke" d="
  M 53.19 62.30
  Q 71.32 70.21 89.48 77.99
  C 90.09 78.25 90.77 78.25 91.38 77.99
  L 158.74 48.77
  Q 159.65 48.38 158.74 47.98
  L 90.87 18.44
  C 90.57 18.31 90.23 18.31 89.92 18.44
  L 21.88 48.11
  Q 21.10 48.45 21.88 48.79
  Q 38.03 55.68 53.19 62.30"
/>
<path stroke="#808080" vector-effect="non-scaling-stroke" d="
  M 92.25 85.14
  C 92.25 84.21 91.50 83.46 90.57 83.46
  L 90.43 83.46
  C 89.50 83.46 88.75 84.21 88.75 85.14
  L 88.75 161.46
  C 88.75 162.39 89.50 163.14 90.43 163.14
  L 90.57 163.14
  C 91.50 163.14 92.25 162.39 92.25 161.46
  L 92.25 85.14"
/>
</g>
<path fill="#ffffff" d="
  M 0.00 0.00
  Q 90.00 0.00 180.00 0.00
  Q 180.00 90.00 180.00 180.00
  Q 90.00 180.00 0.00 180.00
  Q 0.00 90.00 0.00 0.00
  Z
  M 166.75 48.14
  L 91.16 13.48
  C 90.63 13.24 90.01 13.24 89.47 13.48
  L 14.05 47.95
  C 13.54 48.19 13.22 48.70 13.23 49.26
  Q 13.95 88.37 13.63 126.50
  Q 13.60 129.76 14.09 133.73
  C 14.16 134.26 14.50 134.72 14.99 134.94
  L 89.02 167.13
  C 89.85 167.49 90.79 167.49 91.62 167.13
  L 165.56 135.01
  C 166.24 134.71 166.68 134.03 166.69 133.28
  L 167.52 49.37
  C 167.53 48.84 167.22 48.36 166.75 48.14
  Z"
/>
<path fill="#000000" d="
  M 166.75 48.14
  C 167.22 48.36 167.53 48.84 167.52 49.37
  L 166.69 133.28
  C 166.68 134.03 166.24 134.71 165.56 135.01
  L 91.62 167.13
  C 90.79 167.49 89.85 167.49 89.02 167.13
  L 14.99 134.94
  C 14.50 134.72 14.16 134.26 14.09 133.73
  Q 13.60 129.76 13.63 126.50
  Q 13.95 88.37 13.23 49.26
  C 13.22 48.70 13.54 48.19 14.05 47.95
  L 89.47 13.48
  C 90.01 13.24 90.63 13.24 91.16 13.48
  L 166.75 48.14
  Z
  M 53.19 62.30
  Q 71.32 70.21 89.48 77.99
  C 90.09 78.25 90.77 78.25 91.38 77.99
  L 158.74 48.77
  Q 159.65 48.38 158.74 47.98
  L 90.87 18.44
  C 90.57 18.31 90.23 18.31 89.92 18.44
  L 21.88 48.11
  Q 21.10 48.45 21.88 48.79
  Q 38.03 55.68 53.19 62.30
  Z
  M 92.25 85.14
  C 92.25 84.21 91.50 83.46 90.57 83.46
  L 90.43 83.46
  C 89.50 83.46 88.75 84.21 88.75 85.14
  L 88.75 161.46
  C 88.75 162.39 89.50 163.14 90.43 163.14
  L 90.57 163.14
  C 91.50 163.14 92.25 162.39 92.25 161.46
  L 92.25 85.14
  Z"
/>
<path fill="#ffffff" d="
  M 53.19 62.30
  Q 38.03 55.68 21.88 48.79
  Q 21.10 48.45 21.88 48.11
  L 89.92 18.44
  C 90.23 18.31 90.57 18.31 90.87 18.44
  L 158.74 47.98
  Q 159.65 48.38 158.74 48.77
  L 91.38 77.99
  C 90.77 78.25 90.09 78.25 89.48 77.99
  Q 71.32 70.21 53.19 62.30
  Z"
/>
<rect fill="#ffffff" x="88.75" y="83.46" width="3.50" height="79.68" rx="1.68"/>
</svg>
