<?xml version="1.0" encoding="UTF-8" standalone="no"?>
<!DOCTYPE svg PUBLIC "-//W3C//DTD SVG 1.1//EN" "http://www.w3.org/Graphics/SVG/1.1/DTD/svg11.dtd">
<svg xmlns="http://www.w3.org/2000/svg" version="1.1" viewBox="0.00 0.00 56.00 56.00">
<g stroke-width="2.00" fill="none" stroke-linecap="butt">
<path stroke="#80711d" vector-effect="non-scaling-stroke" d="
  M 40.85 13.03
  Q 33.97 7.35 24.96 8.47
  Q 24.22 8.56 24.59 9.20
  L 34.01 25.53
  A 0.35 0.35 0.0 0 0 34.62 25.53
  L 41.07 14.27
  A 0.98 0.98 0.0 0 0 40.85 13.03"
/>
<path stroke="#80711d" vector-effect="non-scaling-stroke" d="
  M 10.03 19.75
  Q 9.66 20.50 10.50 20.50
  L 27.75 20.50
  Q 28.51 20.50 28.13 19.84
  L 22.27 9.66
  Q 21.97 9.14 21.42 9.36
  Q 13.68 12.33 10.03 19.75"
/>
<path stroke="#80711d" vector-effect="non-scaling-stroke" d="
  M 42.68 15.95
  L 33.24 32.30
  A 0.37 0.37 0.0 0 0 33.56 32.86
  L 46.56 32.70
  Q 47.08 32.69 47.18 32.18
  Q 48.88 23.18 43.59 15.90
  A 0.54 0.54 0.0 0 0 42.68 15.95"
/>
<path stroke="#80711d" vector-effect="non-scaling-stroke" d="
  M 13.11 40.07
  L 22.77 23.40
  Q 23.15 22.75 22.40 22.75
  L 9.48 22.75
  Q 8.92 22.75 8.80 23.30
  Q 6.79 32.58 12.45 40.11
  A 0.40 0.40 0.0 0 0 13.11 40.07"
/>
<path stroke="#80711d" vector-effect="non-scaling-stroke" d="
  M 14.58 42.02
  A 0.41 0.40 -54.2 0 0 14.66 42.53
  Q 21.90 48.74 31.49 47.33
  Q 32.12 47.23 31.80 46.68
  L 22.13 30.02
  Q 21.79 29.42 21.45 30.02
  L 14.58 42.02"
/>
<path stroke="#80711d" vector-effect="non-scaling-stroke" d="
  M 34.68 46.42
  C 39.69 44.59 44.04 40.56 46.08 35.64
  A 0.47 0.46 -78.9 0 0 45.65 35.00
  L 28.06 35.00
  A 0.31 0.31 0.0 0 0 27.80 35.47
  L 34.04 46.19
  A 0.52 0.52 0.0 0 0 34.68 46.42"
/>
</g>
<path fill="#ffe239" d="
  M 4.82 0.00
  L 51.28 0.00
  C 54.63 0.81 55.74 2.86 55.75 6.31
  Q 55.76 29.00 55.75 51.00
  A 4.76 4.76 0.0 0 1 51.00 55.75
  Q 28.87 55.76 6.28 55.75
  C 2.92 55.74 0.86 54.65 0.00 51.42
  L 0.00 4.46
  Q 1.07 0.73 4.82 0.00
  Z
  M 40.85 13.03
  Q 33.97 7.35 24.96 8.47
  Q 24.22 8.56 24.59 9.20
  L 34.01 25.53
  A 0.35 0.35 0.0 0 0 34.62 25.53
  L 41.07 14.27
  A 0.98 0.98 0.0 0 0 40.85 13.03
  Z
  M 10.03 19.75
  Q 9.66 20.50 10.50 20.50
  L 27.75 20.50
  Q 28.51 20.50 28.13 19.84
  L 22.27 9.66
  Q 21.97 9.14 21.42 9.36
  Q 13.68 12.33 10.03 19.75
  Z
  M 42.68 15.95
  L 33.24 32.30
  A 0.37 0.37 0.0 0 0 33.56 32.86
  L 46.56 32.70
  Q 47.08 32.69 47.18 32.18
  Q 48.88 23.18 43.59 15.90
  A 0.54 0.54 0.0 0 0 42.68 15.95
  Z
  M 13.11 40.07
  L 22.77 23.40
  Q 23.15 22.75 22.40 22.75
  L 9.48 22.75
  Q 8.92 22.75 8.80 23.30
  Q 6.79 32.58 12.45 40.11
  A 0.40 0.40 0.0 0 0 13.11 40.07
  Z
  M 14.58 42.02
  A 0.41 0.40 -54.2 0 0 14.66 42.53
  Q 21.90 48.74 31.49 47.33
  Q 32.12 47.23 31.80 46.68
  L 22.13 30.02
  Q 21.79 29.42 21.45 30.02
  L 14.58 42.02
  Z
  M 34.68 46.42
  C 39.69 44.59 44.04 40.56 46.08 35.64
  A 0.47 0.46 -78.9 0 0 45.65 35.00
  L 28.06 35.00
  A 0.31 0.31 0.0 0 0 27.80 35.47
  L 34.04 46.19
  A 0.52 0.52 0.0 0 0 34.68 46.42
  Z"
/>
<path fill="#000000" d="
  M 40.85 13.03
  A 0.98 0.98 0.0 0 1 41.07 14.27
  L 34.62 25.53
  A 0.35 0.35 0.0 0 1 34.01 25.53
  L 24.59 9.20
  Q 24.22 8.56 24.96 8.47
  Q 33.97 7.35 40.85 13.03
  Z"
/>
<path fill="#000000" d="
  M 10.03 19.75
  Q 13.68 12.33 21.42 9.36
  Q 21.97 9.14 22.27 9.66
  L 28.13 19.84
  Q 28.51 20.50 27.75 20.50
  L 10.50 20.50
  Q 9.66 20.50 10.03 19.75
  Z"
/>
<path fill="#000000" d="
  M 42.68 15.95
  A 0.54 0.54 0.0 0 1 43.59 15.90
  Q 48.88 23.18 47.18 32.18
  Q 47.08 32.69 46.56 32.70
  L 33.56 32.86
  A 0.37 0.37 0.0 0 1 33.24 32.30
  L 42.68 15.95
  Z"
/>
<path fill="#000000" d="
  M 13.11 40.07
  A 0.40 0.40 0.0 0 1 12.45 40.11
  Q 6.79 32.58 8.80 23.30
  Q 8.92 22.75 9.48 22.75
  L 22.40 22.75
  Q 23.15 22.75 22.77 23.40
  L 13.11 40.07
  Z"
/>
<path fill="#000000" d="
  M 14.58 42.02
  L 21.45 30.02
  Q 21.79 29.42 22.13 30.02
  L 31.80 46.68
  Q 32.12 47.23 31.49 47.33
  Q 21.90 48.74 14.66 42.53
  A 0.41 0.40 -54.2 0 1 14.58 42.02
  Z"
/>
<path fill="#000000" d="
  M 46.08 35.64
  C 44.04 40.56 39.69 44.59 34.68 46.42
  A 0.52 0.52 0.0 0 1 34.04 46.19
  L 27.80 35.47
  A 0.31 0.31 0.0 0 1 28.06 35.00
  L 45.65 35.00
  A 0.47 0.46 -78.9 0 1 46.08 35.64
  Z"
/>
</svg>
