<?xml version="1.0" encoding="UTF-8" standalone="no"?>
<!DOCTYPE svg PUBLIC "-//W3C//DTD SVG 1.1//EN" "http://www.w3.org/Graphics/SVG/1.1/DTD/svg11.dtd">
<svg xmlns="http://www.w3.org/2000/svg" version="1.1" viewBox="0 0 48 48">
<path fill="#fc5c3e" d="
  M 48.00 16.56
  L 48.00 31.56
  L 24.44 44.52
  A 1.00 0.95 44.1 0 1 23.52 44.51
  L 0.97 32.41
  Q 0.76 32.29 0.39 31.77
  Q 0.24 31.56 0.00 31.44
  L 0.00 16.69
  Q 1.25 15.48 4.31 13.81
  Q 13.72 8.70 23.56 3.49
  A 0.99 0.96 44.4 0 1 24.47 3.49
  Q 35.77 9.47 46.21 15.01
  Q 47.29 15.58 48.00 16.56
  Z
  M 8.80 18.87
  Q 11.29 20.26 14.44 21.70
  A 3.51 3.48 -41.8 0 0 17.00 21.83
  Q 20.36 20.71 22.84 18.29
  A 1.28 1.00 71.8 0 0 23.15 17.43
  L 23.02 8.17
  Q 22.99 6.39 21.51 7.31
  Q 14.58 11.60 6.66 15.27
  Q 3.88 16.55 6.70 17.82
  Q 7.77 18.30 8.80 18.87
  Z
  M 42.46 15.76
  L 26.77 7.42
  A 1.20 1.17 14.5 0 0 25.00 8.43
  Q 25.00 12.87 24.94 17.00
  Q 24.91 18.77 25.95 19.19
  Q 27.23 19.71 28.38 20.48
  Q 30.90 22.17 33.11 21.80
  Q 33.71 21.70 37.23 19.92
  Q 40.00 18.52 42.49 17.18
  Q 43.80 16.47 42.46 15.76
  Z
  M 4.32 19.19
  Q 3.07 18.25 3.06 19.80
  L 3.01 28.28
  Q 3.00 29.46 4.03 28.87
  L 11.61 24.49
  Q 12.82 23.78 11.51 23.26
  Q 7.64 21.69 4.32 19.19
  Z
  M 41.62 27.43
  Q 42.91 28.14 44.02 28.65
  A 0.70 0.69 12.1 0 0 45.00 28.02
  L 45.00 19.92
  A 0.64 0.63 -13.9 0 0 44.07 19.37
  L 36.52 23.23
  Q 35.05 23.98 36.50 24.71
  Q 39.18 26.08 41.62 27.43
  Z
  M 24.62 21.49
  A 2.12 2.08 -46.7 0 0 22.64 21.57
  L 18.92 23.72
  A 0.35 0.35 48.5 0 0 18.89 24.30
  Q 20.38 25.38 22.05 26.11
  Q 23.82 26.89 25.50 26.26
  Q 27.15 25.64 28.87 24.41
  A 0.53 0.47 -47.9 0 0 28.88 23.55
  L 24.62 21.49
  Z
  M 22.61 29.43
  L 17.01 26.04
  A 2.38 1.83 -38.3 0 0 14.95 26.07
  L 6.04 30.39
  Q 4.03 31.36 6.05 32.43
  L 21.98 40.87
  A 0.66 0.65 14.9 0 0 22.94 40.32
  L 23.20 30.75
  A 1.61 1.20 -77.4 0 0 22.61 29.43
  Z
  M 42.06 30.56
  Q 38.38 28.61 34.44 26.56
  Q 32.08 25.34 29.85 26.55
  Q 27.52 27.82 26.45 28.59
  Q 24.70 29.85 24.87 32.32
  Q 25.00 34.09 25.00 34.19
  Q 25.00 37.10 25.00 40.02
  A 0.86 0.84 -14.3 0 0 26.26 40.75
  L 42.04 32.45
  Q 43.85 31.50 42.06 30.56
  Z"
/>
</svg>
