<?xml version="1.0" encoding="UTF-8" standalone="no"?>
<!DOCTYPE svg PUBLIC "-//W3C//DTD SVG 1.1//EN" "http://www.w3.org/Graphics/SVG/1.1/DTD/svg11.dtd">
<svg xmlns="http://www.w3.org/2000/svg" version="1.1" viewBox="0 0 48 48">
<path fill="#fd5c3e" d="
  M 48.09 16.41
  L 48.00 31.56
  Q 38.38 37.35 28.26 42.21
  Q 26.27 43.17 24.80 44.57
  A 0.76 0.74 -52.7 0 1 23.92 44.70
  L -0.08 31.57
  L -0.09 16.54
  L 23.56 3.50
  A 0.92 0.90 44.4 0 1 24.45 3.50
  L 48.09 16.41
  Z
  M 5.58 17.08
  C 8.06 18.96 12.32 20.86 15.28 21.98
  A 1.55 1.52 47.4 0 0 16.23 22.03
  Q 20.05 21.05 22.82 18.30
  A 1.25 1.01 71.7 0 0 23.14 17.44
  L 23.03 8.12
  A 0.95 0.94 -14.1 0 0 21.65 7.30
  L 5.76 15.50
  A 0.96 0.92 -39.5 0 0 5.58 17.08
  Z
  M 42.64 15.85
  L 26.12 7.10
  A 0.77 0.75 14.2 0 0 25.00 7.75
  L 25.01 17.73
  A 1.00 0.83 -76.7 0 0 25.41 18.53
  L 30.20 21.56
  Q 31.85 22.60 33.71 21.64
  L 42.68 17.04
  Q 43.80 16.46 42.64 15.85
  Z
  M 11.77 24.32
  A 0.34 0.34 -42.8 0 0 11.76 23.73
  L 3.52 19.03
  A 0.34 0.34 13.1 0 0 3.01 19.32
  L 2.99 28.94
  A 0.34 0.34 78.7 0 0 3.50 29.23
  L 11.77 24.32
  Z
  M 44.49 28.67
  A 0.34 0.34 12.7 0 0 44.98 28.36
  L 45.02 19.60
  A 0.34 0.34 -13.8 0 0 44.53 19.29
  L 35.55 23.64
  A 0.34 0.34 37.4 0 0 35.54 24.25
  L 44.49 28.67
  Z
  M 28.70 23.47
  L 24.42 21.19
  A 0.97 0.94 44.7 0 0 23.53 21.18
  L 19.02 23.56
  A 0.37 0.37 -36.8 0 0 18.93 24.15
  Q 23.96 29.14 28.82 24.36
  A 0.56 0.56 -52.9 0 0 28.70 23.47
  Z
  M 22.63 29.45
  Q 19.73 27.01 16.46 25.84
  A 1.27 1.10 39.0 0 0 15.53 25.87
  L 6.15 30.43
  Q 4.06 31.44 6.23 32.58
  L 22.20 40.99
  A 0.55 0.55 -75.3 0 0 23.01 40.51
  L 23.21 30.81
  A 1.80 1.63 -70.9 0 0 22.63 29.45
  Z
  M 42.32 30.69
  L 33.20 26.07
  A 1.39 1.27 -36.5 0 0 32.25 25.97
  Q 28.37 26.94 25.36 29.69
  A 1.13 1.11 68.5 0 0 25.00 30.54
  L 25.03 40.45
  A 0.66 0.64 -14.6 0 0 26.00 41.00
  L 42.28 32.36
  Q 43.90 31.49 42.32 30.69
  Z"
/>
</svg>
