<?xml version="1.0" encoding="UTF-8" standalone="no"?>
<svg xmlns="http://www.w3.org/2000/svg" version="1.2" baseProfile="tiny" viewBox="0 0 256 256" width="256" height="256">
<g stroke-width="2.0" fill="none" stroke-linecap="butt">
<path stroke="#956943" vector-effect="non-scaling-stroke" d="
  M 152.71 20.75
  L 120.04 25.75"
/>
<path stroke="#956943" vector-effect="non-scaling-stroke" d="
  M 177.96 218.00
  L 145.29 222.75"
/>
<path stroke="#2c1101" vector-effect="non-scaling-stroke" d="
  M 70.46 28.75
  Q 69.58 29.52 68.00 29.50
  Q 46.02 29.23 14.54 29.75"
/>
<path stroke="#2c1101" vector-effect="non-scaling-stroke" d="
  M 70.54 32.75
  Q 47.78 32.33 25.01 32.48
  Q 24.82 32.48 20.05 32.00
  Q 17.27 31.72 14.54 32.75"
/>
<path stroke="#3c1801" vector-effect="non-scaling-stroke" d="
  M 70.29 182.00
  Q 70.22 180.75 70.20 179.50
  Q 70.11 172.49 70.15 179.75
  Q 70.23 195.23 69.71 210.70
  C 69.70 210.98 69.47 211.19 69.19 211.20
  Q 44.82 211.84 20.43 211.52
  Q 19.39 211.51 17.63 211.93
  Q 16.22 212.27 14.75 212.21"
/>
<path stroke="#3c1801" vector-effect="non-scaling-stroke" d="
  M 70.29 230.25
  L 70.09 219.18
  C 70.08 218.90 69.85 218.68 69.56 218.68
  L 14.79 218.50"
/>
<path stroke="#1b0b01" vector-effect="non-scaling-stroke" d="
  M 14.54 216.75
  Q 40.70 216.32 66.87 216.50
  Q 67.58 216.50 68.08 216.21
  Q 69.42 215.45 68.35 214.79
  Q 67.89 214.50 67.09 214.48
  Q 42.79 213.94 18.49 214.48
  Q 18.43 214.48 16.55 214.22
  Q 15.48 214.08 14.54 214.75"
/>
<path stroke="#809599" vector-effect="non-scaling-stroke" d="
  M 120.96 54.75
  Q 103.60 54.75 86.25 54.75
  Q 76.56 54.75 71.54 55.25"
/>
<path stroke="#809599" vector-effect="non-scaling-stroke" d="
  M 120.96 57.00
  Q 97.38 57.70 73.81 56.95
  Q 73.44 56.94 72.89 57.18
  Q 72.24 57.47 71.54 57.25"
/>
<path stroke="#809599" vector-effect="non-scaling-stroke" d="
  M 120.96 212.75
  Q 111.36 213.01 101.75 212.69
  Q 86.76 212.19 71.79 213.25"
/>
<path stroke="#809599" vector-effect="non-scaling-stroke" d="
  M 120.96 215.00
  Q 96.94 215.63 72.93 215.01
  C 72.62 215.00 72.34 215.09 72.14 215.24
  L 71.79 215.50"
/>
<path stroke="#435fdd" vector-effect="non-scaling-stroke" d="
  M 183.50 86.46
  Q 184.12 86.71 184.09 87.30
  Q 184.06 88.11 184.08 88.20
  Q 190.07 123.19 196.01 158.20
  Q 196.23 159.51 196.75 158.46"
/>
<path stroke="#6e9ae3" vector-effect="non-scaling-stroke" d="
  M 196.75 158.46
  Q 199.08 159.10 199.75 155.75
  Q 200.10 154.01 201.37 152.77
  Q 201.74 152.41 202.75 152.46
  C 203.06 152.47 203.34 152.64 203.52 152.92
  Q 206.18 157.13 207.06 157.69
  Q 210.26 159.70 210.69 156.66
  Q 210.77 156.06 210.57 154.85
  Q 210.36 153.67 210.50 153.00
  Q 210.78 151.62 210.22 151.89
  C 210.01 151.99 209.77 151.89 209.75 151.70
  Q 209.10 146.91 208.01 142.20
  Q 206.92 137.50 206.57 132.69
  Q 206.51 131.74 205.97 130.43
  Q 205.50 129.30 205.40 128.08
  Q 205.15 124.91 205.14 124.81
  Q 204.38 120.67 203.80 116.51
  Q 203.72 115.92 202.86 112.06
  Q 202.36 109.82 202.47 107.50
  C 202.48 107.21 202.37 106.90 202.16 106.64
  Q 201.57 105.93 201.46 105.00
  Q 200.33 95.45 198.29 86.05
  C 198.22 85.71 198.01 85.44 197.75 85.34
  Q 196.85 85.00 196.96 86.25"
/>
<path stroke="#435fdd" vector-effect="non-scaling-stroke" d="
  M 196.96 86.25
  L 196.50 84.04"
/>
<path stroke="#374ec1" vector-effect="non-scaling-stroke" d="
  M 196.96 86.25
  L 208.76 155.84
  Q 208.97 157.07 208.08 156.17
  L 201.56 149.60
  C 201.27 149.31 200.79 149.41 200.62 149.78
  L 196.75 158.46"
/>
<path stroke="#a68247" vector-effect="non-scaling-stroke" d="
  M 43.81 53.09
  Q 45.00 53.06 45.54 52.20
  C 45.67 51.99 45.53 51.71 45.27 51.67
  Q 43.03 51.31 40.75 51.31
  Q 38.26 51.31 39.38 52.42
  C 39.57 52.61 39.88 52.73 40.25 52.75
  Q 42.43 52.87 42.18 55.27
  Q 42.00 57.00 42.00 59.09
  C 42.00 59.45 41.70 59.75 41.34 59.75
  L 32.04 59.75
  C 31.47 59.75 31.01 59.29 31.01 58.73
  L 31.05 51.82
  C 31.05 51.50 31.22 51.21 31.49 51.08
  Q 32.44 50.61 33.51 50.48
  Q 34.03 50.41 34.33 50.27
  Q 35.86 49.53 33.72 49.18
  Q 32.06 48.91 30.97 48.45
  C 30.51 48.26 30.00 48.59 30.00 49.09
  L 30.06 65.19
  C 30.06 65.61 30.18 65.95 30.38 66.07
  Q 30.87 66.36 31.09 64.53
  C 31.16 63.94 31.64 63.50 32.21 63.49
  L 52.73 63.44
  C 53.26 63.44 53.71 63.86 53.76 64.40
  Q 53.88 65.64 54.45 65.89
  C 54.68 65.99 54.94 65.75 54.94 65.43
  L 55.00 48.71
  C 55.00 48.45 54.81 48.23 54.55 48.19
  Q 45.52 46.68 52.19 49.80
  Q 54.26 50.76 54.16 52.91
  Q 54.08 54.96 54.08 55.11
  Q 54.17 57.25 53.68 59.33
  C 53.62 59.61 53.36 59.81 53.06 59.80
  L 44.09 59.75
  C 43.54 59.74 43.09 59.35 43.10 58.86
  L 43.21 53.54
  C 43.22 53.29 43.48 53.10 43.81 53.09"
/>
<path stroke="#a67d3c" vector-effect="non-scaling-stroke" d="
  M 42.41 78.72
  Q 41.24 75.37 38.56 74.19
  Q 35.04 72.63 32.60 74.71
  Q 30.92 76.15 30.41 78.90
  Q 30.03 80.91 30.00 83.75
  Q 29.96 87.47 30.05 91.19
  C 30.06 91.59 30.27 91.91 30.50 91.89
  Q 30.94 91.86 31.07 90.52
  C 31.12 90.02 31.52 89.63 32.02 89.60
  Q 43.21 88.95 52.75 89.47
  C 53.11 89.49 53.42 89.67 53.52 89.93
  L 54.08 91.33
  C 54.25 91.74 54.43 92.05 54.57 92.13
  Q 55.23 92.54 55.19 91.24
  Q 55.06 87.53 54.95 83.81
  C 54.94 83.40 54.71 83.07 54.48 83.13
  Q 54.05 83.25 53.91 84.75
  C 53.85 85.32 53.38 85.75 52.81 85.75
  L 43.78 85.75
  C 43.39 85.75 43.07 85.46 43.03 85.08
  Q 42.81 82.93 44.35 82.04
  Q 47.90 79.99 51.46 77.98
  Q 55.45 75.72 55.00 70.95
  Q 54.72 68.08 53.81 70.81
  Q 53.15 72.80 51.13 74.02
  Q 49.17 75.19 49.07 75.26
  Q 46.15 77.28 43.01 78.95
  C 42.78 79.08 42.49 78.97 42.41 78.72"
/>
<path stroke="#a67830" vector-effect="non-scaling-stroke" d="
  M 41.21 102.00
  Q 39.51 98.89 36.30 98.35
  Q 34.10 97.97 32.41 99.21
  Q 30.56 100.57 30.25 103.00
  Q 29.77 106.68 30.13 114.49
  Q 30.26 117.40 31.25 114.22
  C 31.37 113.83 31.71 113.57 32.09 113.57
  L 52.94 113.54
  C 53.21 113.54 53.44 113.76 53.50 114.06
  Q 53.69 115.04 54.37 115.69
  Q 54.75 116.05 54.81 115.50
  Q 55.87 106.96 54.25 102.00
  Q 52.98 98.12 49.75 97.25
  Q 43.20 95.49 41.55 101.95
  Q 41.44 102.41 41.21 102.00"
/>
<path stroke="#a67428" vector-effect="non-scaling-stroke" d="
  M 53.59 128.05
  Q 55.08 132.72 55.03 127.25
  Q 55.00 124.62 55.02 122.00
  Q 55.03 120.91 54.45 121.03
  C 54.29 121.07 54.09 121.35 53.96 121.75
  L 53.45 123.27
  C 53.37 123.52 53.06 123.69 52.69 123.69
  L 32.32 123.70
  C 31.98 123.70 31.68 123.55 31.52 123.29
  Q 31.09 122.61 30.98 121.81
  C 30.93 121.45 30.72 121.17 30.48 121.12
  Q 29.78 120.98 29.83 122.26
  Q 29.94 125.56 30.05 128.88
  Q 30.07 129.78 30.45 129.81
  Q 30.86 129.85 31.24 128.25
  C 31.32 127.89 31.63 127.63 31.99 127.61
  Q 43.30 126.91 52.94 127.53
  C 53.24 127.55 53.49 127.75 53.59 128.05"
/>
<path stroke="#a6701d" vector-effect="non-scaling-stroke" d="
  M 53.58 150.04
  Q 55.10 154.84 55.05 149.00
  Q 55.00 141.75 55.00 134.76
  C 55.00 134.18 54.52 133.72 53.94 133.74
  Q 51.86 133.82 49.99 133.61
  Q 48.85 133.48 49.37 134.20
  Q 49.53 134.42 49.85 134.57
  Q 51.51 135.34 53.12 136.20
  C 53.40 136.35 53.60 136.62 53.66 136.92
  Q 54.44 141.05 53.77 145.19
  C 53.72 145.48 53.48 145.69 53.19 145.69
  Q 43.96 145.79 34.73 145.75
  Q 34.64 145.75 33.28 145.86
  Q 31.09 146.03 30.95 143.78
  Q 30.93 143.54 30.82 143.38
  Q 30.37 142.71 30.29 143.58
  Q 29.98 147.28 30.00 151.00
  C 30.00 151.43 30.15 151.77 30.36 151.83
  Q 30.84 151.97 31.20 150.35
  C 31.29 149.92 31.66 149.61 32.09 149.59
  Q 43.18 148.89 52.93 149.53
  C 53.23 149.55 53.49 149.75 53.58 150.04"
/>
<path stroke="#a66c13" vector-effect="non-scaling-stroke" d="
  M 52.72 158.13
  L 31.24 166.71
  Q 28.12 167.95 31.17 169.30
  L 52.31 178.66
  C 52.94 178.94 53.42 179.47 53.63 180.12
  Q 54.72 183.48 54.86 180.49
  Q 54.99 177.75 55.00 174.99
  C 55.00 174.59 54.86 174.26 54.64 174.14
  Q 54.03 173.82 53.62 175.68
  C 53.51 176.18 53.01 176.48 52.56 176.31
  L 45.51 173.66
  C 45.23 173.56 45.05 173.27 45.05 172.93
  L 44.99 165.75
  C 44.99 165.23 45.28 164.78 45.71 164.64
  L 52.51 162.34
  C 52.79 162.24 53.11 162.36 53.33 162.63
  Q 53.93 163.36 54.32 164.25
  Q 54.80 165.34 54.84 164.24
  Q 55.00 160.25 55.00 156.25
  Q 55.00 155.33 54.56 155.11
  C 54.37 155.02 54.11 155.23 54.01 155.56
  L 53.42 157.49
  C 53.34 157.75 53.08 157.99 52.72 158.13"
/>
<path stroke="#a66503" vector-effect="non-scaling-stroke" d="
  M 51.83 190.94
  Q 51.96 196.70 48.30 199.69
  Q 45.21 202.23 40.16 201.99
  Q 29.90 201.50 31.04 189.26
  C 31.09 188.69 31.54 188.18 32.17 187.95
  L 35.67 186.70
  Q 36.48 186.41 35.46 186.17
  L 31.05 185.15
  C 30.78 185.09 30.51 185.27 30.45 185.56
  Q 28.99 192.11 31.26 198.09
  Q 32.49 201.35 34.62 203.30
  Q 37.21 205.66 40.50 206.00
  Q 52.68 207.25 54.68 194.99
  Q 55.65 189.10 51.67 184.80
  Q 50.66 183.70 51.04 185.15
  Q 51.76 187.92 51.83 190.94"
/>
<path stroke="#889b9f" vector-effect="non-scaling-stroke" d="
  M 87.03 108.90
  C 86.56 108.76 86.22 108.37 86.14 107.89
  Q 85.78 105.63 84.88 106.18
  C 84.64 106.32 84.54 106.66 84.66 106.97
  Q 85.96 110.44 89.56 111.19
  Q 94.42 112.20 96.07 112.57
  C 96.42 112.65 96.71 112.84 96.88 113.08
  Q 97.47 113.91 97.47 114.93
  C 97.47 115.21 97.22 115.43 96.95 115.37
  L 91.79 114.21
  C 91.50 114.14 91.21 114.27 91.11 114.51
  Q 90.33 116.48 91.25 118.25
  Q 93.13 121.86 97.49 122.17
  Q 100.71 122.40 98.75 118.85
  C 98.57 118.51 98.29 118.23 97.95 118.04
  Q 97.16 117.60 99.33 117.12
  C 99.53 117.08 99.64 116.86 99.56 116.67
  Q 98.96 115.34 98.28 114.07
  Q 97.43 112.48 99.46 112.99
  Q 100.96 113.37 100.15 112.10
  L 97.98 108.71
  Q 97.55 108.02 97.33 108.65
  Q 97.23 108.95 97.60 109.39
  Q 98.71 110.73 97.69 111.08
  Q 97.26 111.22 96.45 111.08
  Q 91.35 110.20 87.03 108.90"
/>
<path stroke="#93a4a8" vector-effect="non-scaling-stroke" d="
  M 99.06 126.94
  Q 97.83 125.41 99.94 126.06
  Q 101.32 126.49 102.70 126.92
  Q 105.45 127.78 104.72 130.55
  Q 104.55 131.20 104.66 131.59
  Q 104.94 132.60 105.85 132.05
  C 106.10 131.89 106.26 131.59 106.25 131.25
  Q 106.10 125.90 100.75 124.75
  Q 96.69 123.88 92.64 123.05
  Q 91.62 122.84 92.33 124.05
  C 92.66 124.61 93.25 124.96 93.90 124.98
  Q 97.46 125.07 98.59 127.14
  Q 99.73 129.23 97.26 128.75
  L 92.56 127.85
  Q 91.98 127.73 92.22 128.28
  L 93.26 130.57
  Q 93.44 130.98 93.71 130.55
  Q 94.41 129.41 96.25 130.00
  Q 103.41 132.32 99.06 126.94"
/>
<path stroke="#a2b1b4" vector-effect="non-scaling-stroke" d="
  M 100.3892 139.3400
  C 101.44 138.03 100.49 135.53 98.2707 133.7475
  C 96.05 131.97 93.40 131.59 92.3508 132.9000
  C 91.30 134.21 92.25 136.71 94.4693 138.4925
  C 96.69 140.27 99.34 140.65 100.3892 139.3400"
/>
<path stroke="#a2b1b4" vector-effect="non-scaling-stroke" d="
  M 95.82 145.03
  Q 99.28 144.90 99.75 148.51
  Q 100.07 150.94 97.64 151.26
  Q 92.02 152.01 89.36 147.50
  Q 88.62 146.24 88.64 145.26
  Q 88.66 143.74 90.20 143.11
  Q 91.34 142.64 90.32 141.94
  Q 88.60 140.78 87.98 142.83
  Q 87.47 144.47 88.03 146.10
  Q 89.81 151.23 94.61 152.91
  Q 97.32 153.86 99.32 152.67
  Q 102.19 150.96 100.04 146.75
  C 99.93 146.52 100.06 146.25 100.30 146.21
  Q 102.71 145.81 104.00 147.81
  C 104.15 148.06 104.21 148.39 104.15 148.74
  Q 103.82 150.67 104.77 151.48
  Q 106.21 152.70 105.94 150.83
  Q 105.46 147.55 103.11 145.70
  Q 102.07 144.88 99.01 144.01
  Q 96.85 143.39 94.77 142.51
  C 94.60 142.44 94.41 142.59 94.42 142.80
  L 94.56 145.75
  C 94.59 146.17 94.67 146.50 94.78 146.67
  Q 96.55 149.19 95.46 145.54
  C 95.38 145.29 95.56 145.04 95.82 145.03"
/>
<path stroke="#a2b1b4" vector-effect="non-scaling-stroke" d="
  M 100.30 169.24
  Q 101.99 168.87 101.27 167.39
  Q 100.70 166.23 100.30 165.14
  C 100.18 164.81 100.44 164.47 100.79 164.49
  Q 102.20 164.58 101.60 163.67
  Q 100.96 162.70 100.55 161.62
  Q 100.42 161.30 100.21 161.07
  Q 98.23 158.99 99.93 162.16
  Q 100.37 162.97 99.47 162.79
  Q 94.61 161.83 90.00 160.73
  Q 88.13 160.28 87.95 158.56
  C 87.91 158.20 87.77 157.90 87.55 157.73
  Q 86.76 157.14 86.78 158.05
  Q 86.79 158.40 86.99 158.79
  Q 88.63 161.98 92.08 163.05
  C 92.38 163.14 92.61 163.37 92.71 163.66
  Q 94.06 167.79 98.33 168.83
  C 98.69 168.92 98.98 169.09 99.15 169.30
  Q 99.92 170.25 99.78 171.45
  C 99.75 171.70 99.49 171.87 99.20 171.82
  L 93.56 170.86
  Q 92.91 170.75 93.18 171.30
  L 94.19 173.36
  Q 94.51 174.01 94.88 173.44
  L 95.16 173.03
  C 95.34 172.76 95.59 172.60 95.80 172.64
  L 100.95 173.54
  Q 102.20 173.76 101.62 172.67
  L 100.06 169.74
  C 99.95 169.54 100.07 169.29 100.30 169.24"
/>
<path stroke="#a2b1b4" vector-effect="non-scaling-stroke" d="
  M 88.80 170.41
  C 88.67 170.63 88.73 170.92 88.94 171.07
  Q 90.41 172.04 90.46 170.57
  C 90.47 170.22 90.28 169.91 90.00 169.81
  Q 89.31 169.58 88.80 170.41"
/>
<path stroke="#93a4a8" vector-effect="non-scaling-stroke" d="
  M 94.98 180.84
  Q 97.19 182.25 98.31 182.69
  Q 101.07 183.76 101.58 181.88
  Q 101.89 180.72 100.94 179.45
  Q 98.28 175.90 93.76 174.93
  Q 91.12 174.37 92.07 176.25
  C 92.20 176.51 92.49 176.65 92.81 176.61
  Q 97.22 176.00 99.81 179.19
  Q 101.60 181.39 98.50 181.25
  Q 96.82 181.17 93.66 179.03
  C 93.45 178.89 93.17 178.99 93.11 179.23
  Q 91.98 183.67 96.34 183.92
  C 96.58 183.93 96.78 183.77 96.72 183.61
  Q 96.65 183.42 96.33 183.37
  Q 94.18 183.01 94.46 181.05
  C 94.49 180.82 94.77 180.70 94.98 180.84"
/>
<path stroke="#93a4a8" vector-effect="non-scaling-stroke" d="
  M 101.3970 192.2954
  C 102.44 190.96 101.48 188.46 99.2543 186.7141
  C 97.02 184.97 94.37 184.63 93.3230 185.9646
  C 92.28 187.30 93.24 189.80 95.4657 191.5459
  C 97.70 193.29 100.35 193.63 101.3970 192.2954"
/>
<path stroke="#889b9f" vector-effect="non-scaling-stroke" d="
  M 90.56 200.37
  L 99.40 202.55
  C 100.03 202.71 100.53 203.28 100.68 204.01
  Q 101.79 209.59 101.92 203.81
  Q 102.01 199.68 100.72 202.29
  C 100.61 202.50 100.33 202.56 100.12 202.42
  L 95.56 199.50
  Q 95.17 199.25 95.59 199.12
  Q 99.23 198.00 102.07 196.59
  Q 105.84 194.71 104.90 190.53
  Q 104.81 190.13 104.54 189.94
  Q 104.07 189.61 103.73 190.07
  C 103.57 190.27 103.60 190.61 103.80 190.91
  Q 105.20 193.03 102.78 194.25
  Q 98.88 196.23 94.73 197.59
  C 94.42 197.70 94.09 197.65 93.84 197.46
  Q 91.45 195.72 90.41 192.97
  C 90.33 192.74 90.32 192.40 90.40 192.02
  Q 90.59 191.01 89.56 190.84
  C 89.23 190.79 88.91 190.93 88.74 191.20
  Q 88.30 191.89 88.84 192.67
  Q 91.01 195.83 93.40 198.16
  Q 94.55 199.28 92.96 199.06
  Q 91.93 198.93 90.96 198.64
  Q 90.44 198.49 89.81 197.98
  Q 88.35 196.78 88.64 199.08
  Q 88.72 199.72 88.77 200.43
  Q 89.04 204.19 92.29 205.71
  Q 93.03 206.05 93.77 205.91
  Q 95.58 205.57 94.35 204.12
  C 94.16 203.90 93.84 203.81 93.52 203.88
  Q 89.59 204.81 90.00 200.81
  C 90.03 200.51 90.29 200.31 90.56 200.37"
/>
<path stroke="#a67d3c" vector-effect="non-scaling-stroke" d="
  M 36.78 77.61
  Q 30.23 76.75 30.99 84.88
  C 31.04 85.36 31.42 85.73 31.88 85.72
  L 41.31 85.60
  C 41.61 85.59 41.86 85.37 41.92 85.07
  Q 42.46 82.17 41.09 80.05
  Q 39.76 78.00 36.78 77.61"
/>
<path stroke="#a67830" vector-effect="non-scaling-stroke" d="
  M 53.27 109.82
  C 53.49 109.83 53.69 109.69 53.76 109.48
  Q 55.02 105.60 52.95 103.12
  Q 51.13 100.94 47.81 100.97
  Q 41.82 101.04 42.02 108.94
  C 42.03 109.39 42.40 109.75 42.86 109.75
  L 53.27 109.82"
/>
<path stroke="#a67830" vector-effect="non-scaling-stroke" d="
  M 36.39 102.09
  Q 31.23 101.27 30.71 107.96
  C 30.64 108.93 31.40 109.75 32.37 109.75
  L 40.15 109.75
  C 40.57 109.75 40.92 109.41 40.94 108.99
  Q 41.08 106.10 40.08 104.33
  Q 39.04 102.51 36.39 102.09"
/>
<path stroke="#889b9f" vector-effect="non-scaling-stroke" d="
  M 95.49 116.74
  Q 94.16 116.28 92.74 116.25
  C 92.44 116.24 92.19 116.45 92.13 116.74
  Q 91.62 119.39 94.54 120.03
  Q 99.57 121.12 97.31 118.08
  Q 96.59 117.12 95.49 116.74"
/>
<path stroke="#a2b1b4" vector-effect="non-scaling-stroke" d="
  M 99.6910 137.2834
  C 100.06 136.24 98.86 134.86 97.0042 134.1971
  C 95.15 133.53 93.34 133.84 92.9690 134.8766
  C 92.60 135.92 93.80 137.30 95.6558 137.9629
  C 97.51 138.63 99.32 138.32 99.6910 137.2834"
/>
<path stroke="#a66c13" vector-effect="non-scaling-stroke" d="
  M 34.79 169.13
  L 43.00 172.44
  C 43.40 172.60 43.84 172.32 43.84 171.90
  L 43.79 166.05
  C 43.79 165.78 43.50 165.61 43.22 165.71
  L 34.81 168.63
  Q 34.14 168.86 34.79 169.13"
/>
<path stroke="#a2b1b4" vector-effect="non-scaling-stroke" d="
  M 94.63 165.76
  Q 96.90 167.68 99.70 167.27
  C 99.97 167.23 100.14 166.96 100.07 166.70
  Q 99.16 163.49 95.41 163.56
  Q 92.09 163.62 94.63 165.76"
/>
<path stroke="#93a4a8" vector-effect="non-scaling-stroke" d="
  M 100.6729 190.3394
  C 101.06 189.32 99.89 187.92 98.0496 187.2115
  C 96.21 186.50 94.40 186.76 94.0071 187.7806
  C 93.62 188.80 94.79 190.20 96.6304 190.9085
  C 98.47 191.62 100.28 191.36 100.6729 190.3394"
/>
</g>
<path fill="#531920" d="
  M 152.71 20.75
  L 120.04 25.75
  Q 119.38 22.71 119.11 19.62
  Q 119.10 19.46 118.64 16.42
  Q 117.89 11.45 123.34 11.04
  Q 125.03 10.91 125.16 10.89
  Q 135.29 9.70 145.41 8.36
  Q 145.53 8.35 147.05 8.03
  Q 150.03 7.41 151.44 10.31
  Q 152.27 12.02 152.71 20.75
  Z"
/>
<path fill="#4d1e00" d="
  M 70.46 28.75
  Q 69.58 29.52 68.00 29.50
  Q 46.02 29.23 14.54 29.75
  Q 14.98 22.62 14.75 19.00
  Q 14.35 12.78 20.50 12.77
  Q 42.63 12.75 64.75 12.75
  Q 67.24 12.75 68.75 13.98
  Q 69.97 14.98 70.23 17.46
  Q 70.82 23.08 70.46 28.75
  Z"
/>
<path fill="#d6b865" d="
  M 152.71 20.75
  L 177.96 218.00
  L 145.29 222.75
  L 120.04 25.75
  L 152.71 20.75
  Z"
/>
<path fill="#0a0401" d="
  M 70.46 28.75
  Q 71.12 30.73 70.54 32.75
  Q 47.78 32.33 25.01 32.48
  Q 24.82 32.48 20.05 32.00
  Q 17.27 31.72 14.54 32.75
  L 14.54 29.75
  Q 46.02 29.23 68.00 29.50
  Q 69.58 29.52 70.46 28.75
  Z"
/>
<path fill="#4d1e00" d="
  M 70.54 32.75
  Q 70.63 57.88 70.37 83.00
  Q 70.26 92.98 70.37 103.00
  Q 70.78 142.50 70.29 182.00
  Q 70.22 180.75 70.20 179.50
  Q 70.11 172.49 70.15 179.75
  Q 70.23 195.23 69.71 210.70
  C 69.70 210.98 69.47 211.19 69.19 211.20
  Q 44.82 211.84 20.43 211.52
  Q 19.39 211.51 17.63 211.93
  Q 16.22 212.27 14.75 212.21
  L 14.54 32.75
  Q 17.27 31.72 20.05 32.00
  Q 24.82 32.48 25.01 32.48
  Q 47.78 32.33 70.54 32.75
  Z
  M 43.81 53.09
  Q 45.00 53.06 45.54 52.20
  C 45.67 51.99 45.53 51.71 45.27 51.67
  Q 43.03 51.31 40.75 51.31
  Q 38.26 51.31 39.38 52.42
  C 39.57 52.61 39.88 52.73 40.25 52.75
  Q 42.43 52.87 42.18 55.27
  Q 42.00 57.00 42.00 59.09
  C 42.00 59.45 41.70 59.75 41.34 59.75
  L 32.04 59.75
  C 31.47 59.75 31.01 59.29 31.01 58.73
  L 31.05 51.82
  C 31.05 51.50 31.22 51.21 31.49 51.08
  Q 32.44 50.61 33.51 50.48
  Q 34.03 50.41 34.33 50.27
  Q 35.86 49.53 33.72 49.18
  Q 32.06 48.91 30.97 48.45
  C 30.51 48.26 30.00 48.59 30.00 49.09
  L 30.06 65.19
  C 30.06 65.61 30.18 65.95 30.38 66.07
  Q 30.87 66.36 31.09 64.53
  C 31.16 63.94 31.64 63.50 32.21 63.49
  L 52.73 63.44
  C 53.26 63.44 53.71 63.86 53.76 64.40
  Q 53.88 65.64 54.45 65.89
  C 54.68 65.99 54.94 65.75 54.94 65.43
  L 55.00 48.71
  C 55.00 48.45 54.81 48.23 54.55 48.19
  Q 45.52 46.68 52.19 49.80
  Q 54.26 50.76 54.16 52.91
  Q 54.08 54.96 54.08 55.11
  Q 54.17 57.25 53.68 59.33
  C 53.62 59.61 53.36 59.81 53.06 59.80
  L 44.09 59.75
  C 43.54 59.74 43.09 59.35 43.10 58.86
  L 43.21 53.54
  C 43.22 53.29 43.48 53.10 43.81 53.09
  Z
  M 42.41 78.72
  Q 41.24 75.37 38.56 74.19
  Q 35.04 72.63 32.60 74.71
  Q 30.92 76.15 30.41 78.90
  Q 30.03 80.91 30.00 83.75
  Q 29.96 87.47 30.05 91.19
  C 30.06 91.59 30.27 91.91 30.50 91.89
  Q 30.94 91.86 31.07 90.52
  C 31.12 90.02 31.52 89.63 32.02 89.60
  Q 43.21 88.95 52.75 89.47
  C 53.11 89.49 53.42 89.67 53.52 89.93
  L 54.08 91.33
  C 54.25 91.74 54.43 92.05 54.57 92.13
  Q 55.23 92.54 55.19 91.24
  Q 55.06 87.53 54.95 83.81
  C 54.94 83.40 54.71 83.07 54.48 83.13
  Q 54.05 83.25 53.91 84.75
  C 53.85 85.32 53.38 85.75 52.81 85.75
  L 43.78 85.75
  C 43.39 85.75 43.07 85.46 43.03 85.08
  Q 42.81 82.93 44.35 82.04
  Q 47.90 79.99 51.46 77.98
  Q 55.45 75.72 55.00 70.95
  Q 54.72 68.08 53.81 70.81
  Q 53.15 72.80 51.13 74.02
  Q 49.17 75.19 49.07 75.26
  Q 46.15 77.28 43.01 78.95
  C 42.78 79.08 42.49 78.97 42.41 78.72
  Z
  M 41.21 102.00
  Q 39.51 98.89 36.30 98.35
  Q 34.10 97.97 32.41 99.21
  Q 30.56 100.57 30.25 103.00
  Q 29.77 106.68 30.13 114.49
  Q 30.26 117.40 31.25 114.22
  C 31.37 113.83 31.71 113.57 32.09 113.57
  L 52.94 113.54
  C 53.21 113.54 53.44 113.76 53.50 114.06
  Q 53.69 115.04 54.37 115.69
  Q 54.75 116.05 54.81 115.50
  Q 55.87 106.96 54.25 102.00
  Q 52.98 98.12 49.75 97.25
  Q 43.20 95.49 41.55 101.95
  Q 41.44 102.41 41.21 102.00
  Z
  M 53.59 128.05
  Q 55.08 132.72 55.03 127.25
  Q 55.00 124.62 55.02 122.00
  Q 55.03 120.91 54.45 121.03
  C 54.29 121.07 54.09 121.35 53.96 121.75
  L 53.45 123.27
  C 53.37 123.52 53.06 123.69 52.69 123.69
  L 32.32 123.70
  C 31.98 123.70 31.68 123.55 31.52 123.29
  Q 31.09 122.61 30.98 121.81
  C 30.93 121.45 30.72 121.17 30.48 121.12
  Q 29.78 120.98 29.83 122.26
  Q 29.94 125.56 30.05 128.88
  Q 30.07 129.78 30.45 129.81
  Q 30.86 129.85 31.24 128.25
  C 31.32 127.89 31.63 127.63 31.99 127.61
  Q 43.30 126.91 52.94 127.53
  C 53.24 127.55 53.49 127.75 53.59 128.05
  Z
  M 53.58 150.04
  Q 55.10 154.84 55.05 149.00
  Q 55.00 141.75 55.00 134.76
  C 55.00 134.18 54.52 133.72 53.94 133.74
  Q 51.86 133.82 49.99 133.61
  Q 48.85 133.48 49.37 134.20
  Q 49.53 134.42 49.85 134.57
  Q 51.51 135.34 53.12 136.20
  C 53.40 136.35 53.60 136.62 53.66 136.92
  Q 54.44 141.05 53.77 145.19
  C 53.72 145.48 53.48 145.69 53.19 145.69
  Q 43.96 145.79 34.73 145.75
  Q 34.64 145.75 33.28 145.86
  Q 31.09 146.03 30.95 143.78
  Q 30.93 143.54 30.82 143.38
  Q 30.37 142.71 30.29 143.58
  Q 29.98 147.28 30.00 151.00
  C 30.00 151.43 30.15 151.77 30.36 151.83
  Q 30.84 151.97 31.20 150.35
  C 31.29 149.92 31.66 149.61 32.09 149.59
  Q 43.18 148.89 52.93 149.53
  C 53.23 149.55 53.49 149.75 53.58 150.04
  Z
  M 52.72 158.13
  L 31.24 166.71
  Q 28.12 167.95 31.17 169.30
  L 52.31 178.66
  C 52.94 178.94 53.42 179.47 53.63 180.12
  Q 54.72 183.48 54.86 180.49
  Q 54.99 177.75 55.00 174.99
  C 55.00 174.59 54.86 174.26 54.64 174.14
  Q 54.03 173.82 53.62 175.68
  C 53.51 176.18 53.01 176.48 52.56 176.31
  L 45.51 173.66
  C 45.23 173.56 45.05 173.27 45.05 172.93
  L 44.99 165.75
  C 44.99 165.23 45.28 164.78 45.71 164.64
  L 52.51 162.34
  C 52.79 162.24 53.11 162.36 53.33 162.63
  Q 53.93 163.36 54.32 164.25
  Q 54.80 165.34 54.84 164.24
  Q 55.00 160.25 55.00 156.25
  Q 55.00 155.33 54.56 155.11
  C 54.37 155.02 54.11 155.23 54.01 155.56
  L 53.42 157.49
  C 53.34 157.75 53.08 157.99 52.72 158.13
  Z
  M 51.83 190.94
  Q 51.96 196.70 48.30 199.69
  Q 45.21 202.23 40.16 201.99
  Q 29.90 201.50 31.04 189.26
  C 31.09 188.69 31.54 188.18 32.17 187.95
  L 35.67 186.70
  Q 36.48 186.41 35.46 186.17
  L 31.05 185.15
  C 30.78 185.09 30.51 185.27 30.45 185.56
  Q 28.99 192.11 31.26 198.09
  Q 32.49 201.35 34.62 203.30
  Q 37.21 205.66 40.50 206.00
  Q 52.68 207.25 54.68 194.99
  Q 55.65 189.10 51.67 184.80
  Q 50.66 183.70 51.04 185.15
  Q 51.76 187.92 51.83 190.94
  Z"
/>
<path fill="#5b757b" d="
  M 120.96 54.75
  Q 103.60 54.75 86.25 54.75
  Q 76.56 54.75 71.54 55.25
  Q 71.99 44.95 71.75 38.50
  Q 71.60 34.39 74.66 33.78
  Q 74.80 33.75 79.35 33.75
  Q 97.29 33.75 115.22 33.75
  Q 115.29 33.75 116.77 33.67
  Q 119.52 33.52 120.55 35.62
  Q 121.07 36.69 121.05 39.35
  Q 120.98 47.05 120.96 54.75
  Z"
/>
<path fill="#ffe68e" d="
  M 43.21 53.54
  L 43.10 58.86
  C 43.09 59.35 43.54 59.74 44.09 59.75
  L 53.06 59.80
  C 53.36 59.81 53.62 59.61 53.68 59.33
  Q 54.17 57.25 54.08 55.11
  Q 54.08 54.96 54.16 52.91
  Q 54.26 50.76 52.19 49.80
  Q 45.52 46.68 54.55 48.19
  C 54.81 48.23 55.00 48.45 55.00 48.71
  L 54.94 65.43
  C 54.94 65.75 54.68 65.99 54.45 65.89
  Q 53.88 65.64 53.76 64.40
  C 53.71 63.86 53.26 63.44 52.73 63.44
  L 32.21 63.49
  C 31.64 63.50 31.16 63.94 31.09 64.53
  Q 30.87 66.36 30.38 66.07
  C 30.18 65.95 30.06 65.61 30.06 65.19
  L 30.00 49.09
  C 30.00 48.59 30.51 48.26 30.97 48.45
  Q 32.06 48.91 33.72 49.18
  Q 35.86 49.53 34.33 50.27
  Q 34.03 50.41 33.51 50.48
  Q 32.44 50.61 31.49 51.08
  C 31.22 51.21 31.05 51.50 31.05 51.82
  L 31.01 58.73
  C 31.01 59.29 31.47 59.75 32.04 59.75
  L 41.34 59.75
  C 41.70 59.75 42.00 59.45 42.00 59.09
  Q 42.00 57.00 42.18 55.27
  Q 42.43 52.87 40.25 52.75
  C 39.88 52.73 39.57 52.61 39.38 52.42
  Q 38.26 51.31 40.75 51.31
  Q 43.03 51.31 45.27 51.67
  C 45.53 51.71 45.67 51.99 45.54 52.20
  Q 45.00 53.06 43.81 53.09
  C 43.48 53.10 43.22 53.29 43.21 53.54
  Z"
/>
<path fill="#a5b4b7" d="
  M 120.96 54.75
  Q 121.21 55.87 120.96 57.00
  Q 97.38 57.70 73.81 56.95
  Q 73.44 56.94 72.89 57.18
  Q 72.24 57.47 71.54 57.25
  L 71.54 55.25
  Q 76.56 54.75 86.25 54.75
  Q 103.60 54.75 120.96 54.75
  Z"
/>
<path fill="#5b757b" d="
  M 120.96 57.00
  L 120.96 212.75
  Q 111.36 213.01 101.75 212.69
  Q 86.76 212.19 71.79 213.25
  L 71.54 57.25
  Q 72.24 57.47 72.89 57.18
  Q 73.44 56.94 73.81 56.95
  Q 97.38 57.70 120.96 57.00
  Z
  M 87.03 108.90
  C 86.56 108.76 86.22 108.37 86.14 107.89
  Q 85.78 105.63 84.88 106.18
  C 84.64 106.32 84.54 106.66 84.66 106.97
  Q 85.96 110.44 89.56 111.19
  Q 94.42 112.20 96.07 112.57
  C 96.42 112.65 96.71 112.84 96.88 113.08
  Q 97.47 113.91 97.47 114.93
  C 97.47 115.21 97.22 115.43 96.95 115.37
  L 91.79 114.21
  C 91.50 114.14 91.21 114.27 91.11 114.51
  Q 90.33 116.48 91.25 118.25
  Q 93.13 121.86 97.49 122.17
  Q 100.71 122.40 98.75 118.85
  C 98.57 118.51 98.29 118.23 97.95 118.04
  Q 97.16 117.60 99.33 117.12
  C 99.53 117.08 99.64 116.86 99.56 116.67
  Q 98.96 115.34 98.28 114.07
  Q 97.43 112.48 99.46 112.99
  Q 100.96 113.37 100.15 112.10
  L 97.98 108.71
  Q 97.55 108.02 97.33 108.65
  Q 97.23 108.95 97.60 109.39
  Q 98.71 110.73 97.69 111.08
  Q 97.26 111.22 96.45 111.08
  Q 91.35 110.20 87.03 108.90
  Z
  M 99.06 126.94
  Q 97.83 125.41 99.94 126.06
  Q 101.32 126.49 102.70 126.92
  Q 105.45 127.78 104.72 130.55
  Q 104.55 131.20 104.66 131.59
  Q 104.94 132.60 105.85 132.05
  C 106.10 131.89 106.26 131.59 106.25 131.25
  Q 106.10 125.90 100.75 124.75
  Q 96.69 123.88 92.64 123.05
  Q 91.62 122.84 92.33 124.05
  C 92.66 124.61 93.25 124.96 93.90 124.98
  Q 97.46 125.07 98.59 127.14
  Q 99.73 129.23 97.26 128.75
  L 92.56 127.85
  Q 91.98 127.73 92.22 128.28
  L 93.26 130.57
  Q 93.44 130.98 93.71 130.55
  Q 94.41 129.41 96.25 130.00
  Q 103.41 132.32 99.06 126.94
  Z
  M 100.3892 139.3400
  C 101.44 138.03 100.49 135.53 98.2707 133.7475
  C 96.05 131.97 93.40 131.59 92.3508 132.9000
  C 91.30 134.21 92.25 136.71 94.4693 138.4925
  C 96.69 140.27 99.34 140.65 100.3892 139.3400
  Z
  M 95.82 145.03
  Q 99.28 144.90 99.75 148.51
  Q 100.07 150.94 97.64 151.26
  Q 92.02 152.01 89.36 147.50
  Q 88.62 146.24 88.64 145.26
  Q 88.66 143.74 90.20 143.11
  Q 91.34 142.64 90.32 141.94
  Q 88.60 140.78 87.98 142.83
  Q 87.47 144.47 88.03 146.10
  Q 89.81 151.23 94.61 152.91
  Q 97.32 153.86 99.32 152.67
  Q 102.19 150.96 100.04 146.75
  C 99.93 146.52 100.06 146.25 100.30 146.21
  Q 102.71 145.81 104.00 147.81
  C 104.15 148.06 104.21 148.39 104.15 148.74
  Q 103.82 150.67 104.77 151.48
  Q 106.21 152.70 105.94 150.83
  Q 105.46 147.55 103.11 145.70
  Q 102.07 144.88 99.01 144.01
  Q 96.85 143.39 94.77 142.51
  C 94.60 142.44 94.41 142.59 94.42 142.80
  L 94.56 145.75
  C 94.59 146.17 94.67 146.50 94.78 146.67
  Q 96.55 149.19 95.46 145.54
  C 95.38 145.29 95.56 145.04 95.82 145.03
  Z
  M 100.30 169.24
  Q 101.99 168.87 101.27 167.39
  Q 100.70 166.23 100.30 165.14
  C 100.18 164.81 100.44 164.47 100.79 164.49
  Q 102.20 164.58 101.60 163.67
  Q 100.96 162.70 100.55 161.62
  Q 100.42 161.30 100.21 161.07
  Q 98.23 158.99 99.93 162.16
  Q 100.37 162.97 99.47 162.79
  Q 94.61 161.83 90.00 160.73
  Q 88.13 160.28 87.95 158.56
  C 87.91 158.20 87.77 157.90 87.55 157.73
  Q 86.76 157.14 86.78 158.05
  Q 86.79 158.40 86.99 158.79
  Q 88.63 161.98 92.08 163.05
  C 92.38 163.14 92.61 163.37 92.71 163.66
  Q 94.06 167.79 98.33 168.83
  C 98.69 168.92 98.98 169.09 99.15 169.30
  Q 99.92 170.25 99.78 171.45
  C 99.75 171.70 99.49 171.87 99.20 171.82
  L 93.56 170.86
  Q 92.91 170.75 93.18 171.30
  L 94.19 173.36
  Q 94.51 174.01 94.88 173.44
  L 95.16 173.03
  C 95.34 172.76 95.59 172.60 95.80 172.64
  L 100.95 173.54
  Q 102.20 173.76 101.62 172.67
  L 100.06 169.74
  C 99.95 169.54 100.07 169.29 100.30 169.24
  Z
  M 88.80 170.41
  C 88.67 170.63 88.73 170.92 88.94 171.07
  Q 90.41 172.04 90.46 170.57
  C 90.47 170.22 90.28 169.91 90.00 169.81
  Q 89.31 169.58 88.80 170.41
  Z
  M 94.98 180.84
  Q 97.19 182.25 98.31 182.69
  Q 101.07 183.76 101.58 181.88
  Q 101.89 180.72 100.94 179.45
  Q 98.28 175.90 93.76 174.93
  Q 91.12 174.37 92.07 176.25
  C 92.20 176.51 92.49 176.65 92.81 176.61
  Q 97.22 176.00 99.81 179.19
  Q 101.60 181.39 98.50 181.25
  Q 96.82 181.17 93.66 179.03
  C 93.45 178.89 93.17 178.99 93.11 179.23
  Q 91.98 183.67 96.34 183.92
  C 96.58 183.93 96.78 183.77 96.72 183.61
  Q 96.65 183.42 96.33 183.37
  Q 94.18 183.01 94.46 181.05
  C 94.49 180.82 94.77 180.70 94.98 180.84
  Z
  M 101.3970 192.2954
  C 102.44 190.96 101.48 188.46 99.2543 186.7141
  C 97.02 184.97 94.37 184.63 93.3230 185.9646
  C 92.28 187.30 93.24 189.80 95.4657 191.5459
  C 97.70 193.29 100.35 193.63 101.3970 192.2954
  Z
  M 90.56 200.37
  L 99.40 202.55
  C 100.03 202.71 100.53 203.28 100.68 204.01
  Q 101.79 209.59 101.92 203.81
  Q 102.01 199.68 100.72 202.29
  C 100.61 202.50 100.33 202.56 100.12 202.42
  L 95.56 199.50
  Q 95.17 199.25 95.59 199.12
  Q 99.23 198.00 102.07 196.59
  Q 105.84 194.71 104.90 190.53
  Q 104.81 190.13 104.54 189.94
  Q 104.07 189.61 103.73 190.07
  C 103.57 190.27 103.60 190.61 103.80 190.91
  Q 105.20 193.03 102.78 194.25
  Q 98.88 196.23 94.73 197.59
  C 94.42 197.70 94.09 197.65 93.84 197.46
  Q 91.45 195.72 90.41 192.97
  C 90.33 192.74 90.32 192.40 90.40 192.02
  Q 90.59 191.01 89.56 190.84
  C 89.23 190.79 88.91 190.93 88.74 191.20
  Q 88.30 191.89 88.84 192.67
  Q 91.01 195.83 93.40 198.16
  Q 94.55 199.28 92.96 199.06
  Q 91.93 198.93 90.96 198.64
  Q 90.44 198.49 89.81 197.98
  Q 88.35 196.78 88.64 199.08
  Q 88.72 199.72 88.77 200.43
  Q 89.04 204.19 92.29 205.71
  Q 93.03 206.05 93.77 205.91
  Q 95.58 205.57 94.35 204.12
  C 94.16 203.90 93.84 203.81 93.52 203.88
  Q 89.59 204.81 90.00 200.81
  C 90.03 200.51 90.29 200.31 90.56 200.37
  Z"
/>
<path fill="#fedb77" d="
  M 43.01 78.95
  Q 46.15 77.28 49.07 75.26
  Q 49.17 75.19 51.13 74.02
  Q 53.15 72.80 53.81 70.81
  Q 54.72 68.08 55.00 70.95
  Q 55.45 75.72 51.46 77.98
  Q 47.90 79.99 44.35 82.04
  Q 42.81 82.93 43.03 85.08
  C 43.07 85.46 43.39 85.75 43.78 85.75
  L 52.81 85.75
  C 53.38 85.75 53.85 85.32 53.91 84.75
  Q 54.05 83.25 54.48 83.13
  C 54.71 83.07 54.94 83.40 54.95 83.81
  Q 55.06 87.53 55.19 91.24
  Q 55.23 92.54 54.57 92.13
  C 54.43 92.05 54.25 91.74 54.08 91.33
  L 53.52 89.93
  C 53.42 89.67 53.11 89.49 52.75 89.47
  Q 43.21 88.95 32.02 89.60
  C 31.52 89.63 31.12 90.02 31.07 90.52
  Q 30.94 91.86 30.50 91.89
  C 30.27 91.91 30.06 91.59 30.05 91.19
  Q 29.96 87.47 30.00 83.75
  Q 30.03 80.91 30.41 78.90
  Q 30.92 76.15 32.60 74.71
  Q 35.04 72.63 38.56 74.19
  Q 41.24 75.37 42.41 78.72
  C 42.49 78.97 42.78 79.08 43.01 78.95
  Z
  M 36.78 77.61
  Q 30.23 76.75 30.99 84.88
  C 31.04 85.36 31.42 85.73 31.88 85.72
  L 41.31 85.60
  C 41.61 85.59 41.86 85.37 41.92 85.07
  Q 42.46 82.17 41.09 80.05
  Q 39.76 78.00 36.78 77.61
  Z"
/>
<path fill="#4d1e00" d="
  M 41.09 80.05
  Q 42.46 82.17 41.92 85.07
  C 41.86 85.37 41.61 85.59 41.31 85.60
  L 31.88 85.72
  C 31.42 85.73 31.04 85.36 30.99 84.88
  Q 30.23 76.75 36.78 77.61
  Q 39.76 78.00 41.09 80.05
  Z"
/>
<path fill="#79abff" d="
  M 183.50 86.46
  Q 184.12 86.71 184.09 87.30
  Q 184.06 88.11 184.08 88.20
  Q 190.07 123.19 196.01 158.20
  Q 196.23 159.51 196.75 158.46
  Q 199.08 159.10 199.75 155.75
  Q 200.10 154.01 201.37 152.77
  Q 201.74 152.41 202.75 152.46
  C 203.06 152.47 203.34 152.64 203.52 152.92
  Q 206.18 157.13 207.06 157.69
  Q 210.26 159.70 210.69 156.66
  Q 210.77 156.06 210.57 154.85
  Q 210.36 153.67 210.50 153.00
  Q 210.78 151.62 210.22 151.89
  C 210.01 151.99 209.77 151.89 209.75 151.70
  Q 209.10 146.91 208.01 142.20
  Q 206.92 137.50 206.57 132.69
  Q 206.51 131.74 205.97 130.43
  Q 205.50 129.30 205.40 128.08
  Q 205.15 124.91 205.14 124.81
  Q 204.38 120.67 203.80 116.51
  Q 203.72 115.92 202.86 112.06
  Q 202.36 109.82 202.47 107.50
  C 202.48 107.21 202.37 106.90 202.16 106.64
  Q 201.57 105.93 201.46 105.00
  Q 200.33 95.45 198.29 86.05
  C 198.22 85.71 198.01 85.44 197.75 85.34
  Q 196.85 85.00 196.96 86.25
  L 196.50 84.04
  Q 204.33 82.57 212.18 81.26
  Q 214.18 80.93 215.26 81.51
  Q 216.80 82.36 217.19 84.31
  Q 230.79 153.17 244.50 222.00
  Q 245.17 225.35 242.70 226.45
  Q 242.26 226.65 238.64 227.31
  Q 218.28 231.01 197.90 234.55
  Q 197.75 234.58 195.64 235.08
  Q 191.74 236.00 190.47 232.91
  Q 190.34 232.60 189.46 228.18
  Q 176.15 161.74 163.09 95.24
  Q 162.61 92.80 163.02 91.76
  Q 163.72 89.96 166.25 89.50
  Q 174.87 87.93 183.50 86.46
  Z"
/>
<path fill="#0c13ba" d="
  M 196.50 84.04
  L 196.96 86.25
  L 208.76 155.84
  Q 208.97 157.07 208.08 156.17
  L 201.56 149.60
  C 201.27 149.31 200.79 149.41 200.62 149.78
  L 196.75 158.46
  Q 196.23 159.51 196.01 158.20
  Q 190.07 123.19 184.08 88.20
  Q 184.06 88.11 184.09 87.30
  Q 184.12 86.71 183.50 86.46
  L 196.50 84.04
  Z"
/>
<path fill="#6289c7" d="
  M 196.75 158.46
  L 200.62 149.78
  C 200.79 149.41 201.27 149.31 201.56 149.60
  L 208.08 156.17
  Q 208.97 157.07 208.76 155.84
  L 196.96 86.25
  Q 196.85 85.00 197.75 85.34
  C 198.01 85.44 198.22 85.71 198.29 86.05
  Q 200.33 95.45 201.46 105.00
  Q 201.57 105.93 202.16 106.64
  C 202.37 106.90 202.48 107.21 202.47 107.50
  Q 202.36 109.82 202.86 112.06
  Q 203.72 115.92 203.80 116.51
  Q 204.38 120.67 205.14 124.81
  Q 205.15 124.91 205.40 128.08
  Q 205.50 129.30 205.97 130.43
  Q 206.51 131.74 206.57 132.69
  Q 206.92 137.50 208.01 142.20
  Q 209.10 146.91 209.75 151.70
  C 209.77 151.89 210.01 151.99 210.22 151.89
  Q 210.78 151.62 210.50 153.00
  Q 210.36 153.67 210.57 154.85
  Q 210.77 156.06 210.69 156.66
  Q 210.26 159.70 207.06 157.69
  Q 206.18 157.13 203.52 152.92
  C 203.34 152.64 203.06 152.47 202.75 152.46
  Q 201.74 152.41 201.37 152.77
  Q 200.10 154.01 199.75 155.75
  Q 199.08 159.10 196.75 158.46
  Z"
/>
<path fill="#fed160" d="
  M 41.55 101.95
  Q 43.20 95.49 49.75 97.25
  Q 52.98 98.12 54.25 102.00
  Q 55.87 106.96 54.81 115.50
  Q 54.75 116.05 54.37 115.69
  Q 53.69 115.04 53.50 114.06
  C 53.44 113.76 53.21 113.54 52.94 113.54
  L 32.09 113.57
  C 31.71 113.57 31.37 113.83 31.25 114.22
  Q 30.26 117.40 30.13 114.49
  Q 29.77 106.68 30.25 103.00
  Q 30.56 100.57 32.41 99.21
  Q 34.10 97.97 36.30 98.35
  Q 39.51 98.89 41.21 102.00
  Q 41.44 102.41 41.55 101.95
  Z
  M 53.27 109.82
  C 53.49 109.83 53.69 109.69 53.76 109.48
  Q 55.02 105.60 52.95 103.12
  Q 51.13 100.94 47.81 100.97
  Q 41.82 101.04 42.02 108.94
  C 42.03 109.39 42.40 109.75 42.86 109.75
  L 53.27 109.82
  Z
  M 36.39 102.09
  Q 31.23 101.27 30.71 107.96
  C 30.64 108.93 31.40 109.75 32.37 109.75
  L 40.15 109.75
  C 40.57 109.75 40.92 109.41 40.94 108.99
  Q 41.08 106.10 40.08 104.33
  Q 39.04 102.51 36.39 102.09
  Z"
/>
<path fill="#4d1e00" d="
  M 53.27 109.82
  L 42.86 109.75
  C 42.40 109.75 42.03 109.39 42.02 108.94
  Q 41.82 101.04 47.81 100.97
  Q 51.13 100.94 52.95 103.12
  Q 55.02 105.60 53.76 109.48
  C 53.69 109.69 53.49 109.83 53.27 109.82
  Z"
/>
<path fill="#4d1e00" d="
  M 40.08 104.33
  Q 41.08 106.10 40.94 108.99
  C 40.92 109.41 40.57 109.75 40.15 109.75
  L 32.37 109.75
  C 31.40 109.75 30.64 108.93 30.71 107.96
  Q 31.23 101.27 36.39 102.09
  Q 39.04 102.51 40.08 104.33
  Z"
/>
<path fill="#b5c1c3" d="
  M 87.03 108.90
  Q 91.35 110.20 96.45 111.08
  Q 97.26 111.22 97.69 111.08
  Q 98.71 110.73 97.60 109.39
  Q 97.23 108.95 97.33 108.65
  Q 97.55 108.02 97.98 108.71
  L 100.15 112.10
  Q 100.96 113.37 99.46 112.99
  Q 97.43 112.48 98.28 114.07
  Q 98.96 115.34 99.56 116.67
  C 99.64 116.86 99.53 117.08 99.33 117.12
  Q 97.16 117.60 97.95 118.04
  C 98.29 118.23 98.57 118.51 98.75 118.85
  Q 100.71 122.40 97.49 122.17
  Q 93.13 121.86 91.25 118.25
  Q 90.33 116.48 91.11 114.51
  C 91.21 114.27 91.50 114.14 91.79 114.21
  L 96.95 115.37
  C 97.22 115.43 97.47 115.21 97.47 114.93
  Q 97.47 113.91 96.88 113.08
  C 96.71 112.84 96.42 112.65 96.07 112.57
  Q 94.42 112.20 89.56 111.19
  Q 85.96 110.44 84.66 106.97
  C 84.54 106.66 84.64 106.32 84.88 106.18
  Q 85.78 105.63 86.14 107.89
  C 86.22 108.37 86.56 108.76 87.03 108.90
  Z
  M 95.49 116.74
  Q 94.16 116.28 92.74 116.25
  C 92.44 116.24 92.19 116.45 92.13 116.74
  Q 91.62 119.39 94.54 120.03
  Q 99.57 121.12 97.31 118.08
  Q 96.59 117.12 95.49 116.74
  Z"
/>
<path fill="#5b757b" d="
  M 97.31 118.08
  Q 99.57 121.12 94.54 120.03
  Q 91.62 119.39 92.13 116.74
  C 92.19 116.45 92.44 116.24 92.74 116.25
  Q 94.16 116.28 95.49 116.74
  Q 96.59 117.12 97.31 118.08
  Z"
/>
<path fill="#feca4f" d="
  M 52.94 127.53
  Q 43.30 126.91 31.99 127.61
  C 31.63 127.63 31.32 127.89 31.24 128.25
  Q 30.86 129.85 30.45 129.81
  Q 30.07 129.78 30.05 128.88
  Q 29.94 125.56 29.83 122.26
  Q 29.78 120.98 30.48 121.12
  C 30.72 121.17 30.93 121.45 30.98 121.81
  Q 31.09 122.61 31.52 123.29
  C 31.68 123.55 31.98 123.70 32.32 123.70
  L 52.69 123.69
  C 53.06 123.69 53.37 123.52 53.45 123.27
  L 53.96 121.75
  C 54.09 121.35 54.29 121.07 54.45 121.03
  Q 55.03 120.91 55.02 122.00
  Q 55.00 124.62 55.03 127.25
  Q 55.08 132.72 53.59 128.05
  C 53.49 127.75 53.24 127.55 52.94 127.53
  Z"
/>
<path fill="#cad3d4" d="
  M 99.06 126.94
  Q 103.41 132.32 96.25 130.00
  Q 94.41 129.41 93.71 130.55
  Q 93.44 130.98 93.26 130.57
  L 92.22 128.28
  Q 91.98 127.73 92.56 127.85
  L 97.26 128.75
  Q 99.73 129.23 98.59 127.14
  Q 97.46 125.07 93.90 124.98
  C 93.25 124.96 92.66 124.61 92.33 124.05
  Q 91.62 122.84 92.64 123.05
  Q 96.69 123.88 100.75 124.75
  Q 106.10 125.90 106.25 131.25
  C 106.26 131.59 106.10 131.89 105.85 132.05
  Q 104.94 132.60 104.66 131.59
  Q 104.55 131.20 104.72 130.55
  Q 105.45 127.78 102.70 126.92
  Q 101.32 126.49 99.94 126.06
  Q 97.83 125.41 99.06 126.94
  Z"
/>
<path fill="#e9edec" d="
  M 100.3892 139.3400
  C 99.34 140.65 96.69 140.27 94.4693 138.4925
  C 92.25 136.71 91.30 134.21 92.3508 132.9000
  C 93.40 131.59 96.05 131.97 98.2707 133.7475
  C 100.49 135.53 101.44 138.03 100.3892 139.3400
  Z
  M 99.6910 137.2834
  C 100.06 136.24 98.86 134.86 97.0042 134.1971
  C 95.15 133.53 93.34 133.84 92.9690 134.8766
  C 92.60 135.92 93.80 137.30 95.6558 137.9629
  C 97.51 138.63 99.32 138.32 99.6910 137.2834
  Z"
/>
<path fill="#ffc139" d="
  M 52.93 149.53
  Q 43.18 148.89 32.09 149.59
  C 31.66 149.61 31.29 149.92 31.20 150.35
  Q 30.84 151.97 30.36 151.83
  C 30.15 151.77 30.00 151.43 30.00 151.00
  Q 29.98 147.28 30.29 143.58
  Q 30.37 142.71 30.82 143.38
  Q 30.93 143.54 30.95 143.78
  Q 31.09 146.03 33.28 145.86
  Q 34.64 145.75 34.73 145.75
  Q 43.96 145.79 53.19 145.69
  C 53.48 145.69 53.72 145.48 53.77 145.19
  Q 54.44 141.05 53.66 136.92
  C 53.60 136.62 53.40 136.35 53.12 136.20
  Q 51.51 135.34 49.85 134.57
  Q 49.53 134.42 49.37 134.20
  Q 48.85 133.48 49.99 133.61
  Q 51.86 133.82 53.94 133.74
  C 54.52 133.72 55.00 134.18 55.00 134.76
  Q 55.00 141.75 55.05 149.00
  Q 55.10 154.84 53.58 150.04
  C 53.49 149.75 53.23 149.55 52.93 149.53
  Z"
/>
<ellipse fill="#5b757b" cx="0.00" cy="0.00" transform="translate(96.33,136.08) rotate(19.7)" rx="3.57" ry="2.00"/>
<path fill="#e9edec" d="
  M 95.46 145.54
  Q 96.55 149.19 94.78 146.67
  C 94.67 146.50 94.59 146.17 94.56 145.75
  L 94.42 142.80
  C 94.41 142.59 94.60 142.44 94.77 142.51
  Q 96.85 143.39 99.01 144.01
  Q 102.07 144.88 103.11 145.70
  Q 105.46 147.55 105.94 150.83
  Q 106.21 152.70 104.77 151.48
  Q 103.82 150.67 104.15 148.74
  C 104.21 148.39 104.15 148.06 104.00 147.81
  Q 102.71 145.81 100.30 146.21
  C 100.06 146.25 99.93 146.52 100.04 146.75
  Q 102.19 150.96 99.32 152.67
  Q 97.32 153.86 94.61 152.91
  Q 89.81 151.23 88.03 146.10
  Q 87.47 144.47 87.98 142.83
  Q 88.60 140.78 90.32 141.94
  Q 91.34 142.64 90.20 143.11
  Q 88.66 143.74 88.64 145.26
  Q 88.62 146.24 89.36 147.50
  Q 92.02 152.01 97.64 151.26
  Q 100.07 150.94 99.75 148.51
  Q 99.28 144.90 95.82 145.03
  C 95.56 145.04 95.38 145.29 95.46 145.54
  Z"
/>
<path fill="#ffb925" d="
  M 53.42 157.49
  L 54.01 155.56
  C 54.11 155.23 54.37 155.02 54.56 155.11
  Q 55.00 155.33 55.00 156.25
  Q 55.00 160.25 54.84 164.24
  Q 54.80 165.34 54.32 164.25
  Q 53.93 163.36 53.33 162.63
  C 53.11 162.36 52.79 162.24 52.51 162.34
  L 45.71 164.64
  C 45.28 164.78 44.99 165.23 44.99 165.75
  L 45.05 172.93
  C 45.05 173.27 45.23 173.56 45.51 173.66
  L 52.56 176.31
  C 53.01 176.48 53.51 176.18 53.62 175.68
  Q 54.03 173.82 54.64 174.14
  C 54.86 174.26 55.00 174.59 55.00 174.99
  Q 54.99 177.75 54.86 180.49
  Q 54.72 183.48 53.63 180.12
  C 53.42 179.47 52.94 178.94 52.31 178.66
  L 31.17 169.30
  Q 28.12 167.95 31.24 166.71
  L 52.72 158.13
  C 53.08 157.99 53.34 157.75 53.42 157.49
  Z
  M 34.79 169.13
  L 43.00 172.44
  C 43.40 172.60 43.84 172.32 43.84 171.90
  L 43.79 166.05
  C 43.79 165.78 43.50 165.61 43.22 165.71
  L 34.81 168.63
  Q 34.14 168.86 34.79 169.13
  Z"
/>
<path fill="#e9edec" d="
  M 100.06 169.74
  L 101.62 172.67
  Q 102.20 173.76 100.95 173.54
  L 95.80 172.64
  C 95.59 172.60 95.34 172.76 95.16 173.03
  L 94.88 173.44
  Q 94.51 174.01 94.19 173.36
  L 93.18 171.30
  Q 92.91 170.75 93.56 170.86
  L 99.20 171.82
  C 99.49 171.87 99.75 171.70 99.78 171.45
  Q 99.92 170.25 99.15 169.30
  C 98.98 169.09 98.69 168.92 98.33 168.83
  Q 94.06 167.79 92.71 163.66
  C 92.61 163.37 92.38 163.14 92.08 163.05
  Q 88.63 161.98 86.99 158.79
  Q 86.79 158.40 86.78 158.05
  Q 86.76 157.14 87.55 157.73
  C 87.77 157.90 87.91 158.20 87.95 158.56
  Q 88.13 160.28 90.00 160.73
  Q 94.61 161.83 99.47 162.79
  Q 100.37 162.97 99.93 162.16
  Q 98.23 158.99 100.21 161.07
  Q 100.42 161.30 100.55 161.62
  Q 100.96 162.70 101.60 163.67
  Q 102.20 164.58 100.79 164.49
  C 100.44 164.47 100.18 164.81 100.30 165.14
  Q 100.70 166.23 101.27 167.39
  Q 101.99 168.87 100.30 169.24
  C 100.07 169.29 99.95 169.54 100.06 169.74
  Z
  M 94.63 165.76
  Q 96.90 167.68 99.70 167.27
  C 99.97 167.23 100.14 166.96 100.07 166.70
  Q 99.16 163.49 95.41 163.56
  Q 92.09 163.62 94.63 165.76
  Z"
/>
<path fill="#5b757b" d="
  M 94.63 165.76
  Q 92.09 163.62 95.41 163.56
  Q 99.16 163.49 100.07 166.70
  C 100.14 166.96 99.97 167.23 99.70 167.27
  Q 96.90 167.68 94.63 165.76
  Z"
/>
<path fill="#4d1e00" d="
  M 34.79 169.13
  Q 34.14 168.86 34.81 168.63
  L 43.22 165.71
  C 43.50 165.61 43.79 165.78 43.79 166.05
  L 43.84 171.90
  C 43.84 172.32 43.40 172.60 43.00 172.44
  L 34.79 169.13
  Z"
/>
<path fill="#e9edec" d="
  M 88.80 170.41
  Q 89.31 169.58 90.00 169.81
  C 90.28 169.91 90.47 170.22 90.46 170.57
  Q 90.41 172.04 88.94 171.07
  C 88.73 170.92 88.67 170.63 88.80 170.41
  Z"
/>
<path fill="#cad3d4" d="
  M 94.46 181.05
  Q 94.18 183.01 96.33 183.37
  Q 96.65 183.42 96.72 183.61
  C 96.78 183.77 96.58 183.93 96.34 183.92
  Q 91.98 183.67 93.11 179.23
  C 93.17 178.99 93.45 178.89 93.66 179.03
  Q 96.82 181.17 98.50 181.25
  Q 101.60 181.39 99.81 179.19
  Q 97.22 176.00 92.81 176.61
  C 92.49 176.65 92.20 176.51 92.07 176.25
  Q 91.12 174.37 93.76 174.93
  Q 98.28 175.90 100.94 179.45
  Q 101.89 180.72 101.58 181.88
  Q 101.07 183.76 98.31 182.69
  Q 97.19 182.25 94.98 180.84
  C 94.77 180.70 94.49 180.82 94.46 181.05
  Z"
/>
<path fill="#2b1101" d="
  M 70.29 182.00
  L 70.29 230.25
  L 70.09 219.18
  C 70.08 218.90 69.85 218.68 69.56 218.68
  L 14.79 218.50
  Q 14.29 217.70 14.54 216.75
  Q 40.70 216.32 66.87 216.50
  Q 67.58 216.50 68.08 216.21
  Q 69.42 215.45 68.35 214.79
  Q 67.89 214.50 67.09 214.48
  Q 42.79 213.94 18.49 214.48
  Q 18.43 214.48 16.55 214.22
  Q 15.48 214.08 14.54 214.75
  Q 14.28 213.44 14.75 212.21
  Q 16.22 212.27 17.63 211.93
  Q 19.39 211.51 20.43 211.52
  Q 44.82 211.84 69.19 211.20
  C 69.47 211.19 69.70 210.98 69.71 210.70
  Q 70.23 195.23 70.15 179.75
  Q 70.11 172.49 70.20 179.50
  Q 70.22 180.75 70.29 182.00
  Z"
/>
<path fill="#feab06" d="
  M 51.83 190.94
  Q 51.76 187.92 51.04 185.15
  Q 50.66 183.70 51.67 184.80
  Q 55.65 189.10 54.68 194.99
  Q 52.68 207.25 40.50 206.00
  Q 37.21 205.66 34.62 203.30
  Q 32.49 201.35 31.26 198.09
  Q 28.99 192.11 30.45 185.56
  C 30.51 185.27 30.78 185.09 31.05 185.15
  L 35.46 186.17
  Q 36.48 186.41 35.67 186.70
  L 32.17 187.95
  C 31.54 188.18 31.09 188.69 31.04 189.26
  Q 29.90 201.50 40.16 201.99
  Q 45.21 202.23 48.30 199.69
  Q 51.96 196.70 51.83 190.94
  Z"
/>
<path fill="#cad3d4" d="
  M 101.3970 192.2954
  C 100.35 193.63 97.70 193.29 95.4657 191.5459
  C 93.24 189.80 92.28 187.30 93.3230 185.9646
  C 94.37 184.63 97.02 184.97 99.2543 186.7141
  C 101.48 188.46 102.44 190.96 101.3970 192.2954
  Z
  M 100.6729 190.3394
  C 101.06 189.32 99.89 187.92 98.0496 187.2115
  C 96.21 186.50 94.40 186.76 94.0071 187.7806
  C 93.62 188.80 94.79 190.20 96.6304 190.9085
  C 98.47 191.62 100.28 191.36 100.6729 190.3394
  Z"
/>
<ellipse fill="#5b757b" cx="0.00" cy="0.00" transform="translate(97.34,189.06) rotate(21.0)" rx="3.57" ry="1.98"/>
<path fill="#b5c1c3" d="
  M 90.00 200.81
  Q 89.59 204.81 93.52 203.88
  C 93.84 203.81 94.16 203.90 94.35 204.12
  Q 95.58 205.57 93.77 205.91
  Q 93.03 206.05 92.29 205.71
  Q 89.04 204.19 88.77 200.43
  Q 88.72 199.72 88.64 199.08
  Q 88.35 196.78 89.81 197.98
  Q 90.44 198.49 90.96 198.64
  Q 91.93 198.93 92.96 199.06
  Q 94.55 199.28 93.40 198.16
  Q 91.01 195.83 88.84 192.67
  Q 88.30 191.89 88.74 191.20
  C 88.91 190.93 89.23 190.79 89.56 190.84
  Q 90.59 191.01 90.40 192.02
  C 90.32 192.40 90.33 192.74 90.41 192.97
  Q 91.45 195.72 93.84 197.46
  C 94.09 197.65 94.42 197.70 94.73 197.59
  Q 98.88 196.23 102.78 194.25
  Q 105.20 193.03 103.80 190.91
  C 103.60 190.61 103.57 190.27 103.73 190.07
  Q 104.07 189.61 104.54 189.94
  Q 104.81 190.13 104.90 190.53
  Q 105.84 194.71 102.07 196.59
  Q 99.23 198.00 95.59 199.12
  Q 95.17 199.25 95.56 199.50
  L 100.12 202.42
  C 100.33 202.56 100.61 202.50 100.72 202.29
  Q 102.01 199.68 101.92 203.81
  Q 101.79 209.59 100.68 204.01
  C 100.53 203.28 100.03 202.71 99.40 202.55
  L 90.56 200.37
  C 90.29 200.31 90.03 200.51 90.00 200.81
  Z"
/>
<path fill="#a5b4b7" d="
  M 120.96 212.75
  L 120.96 215.00
  Q 96.94 215.63 72.93 215.01
  C 72.62 215.00 72.34 215.09 72.14 215.24
  L 71.79 215.50
  L 71.79 213.25
  Q 86.76 212.19 101.75 212.69
  Q 111.36 213.01 120.96 212.75
  Z"
/>
<path fill="#0a0401" d="
  M 14.54 216.75
  L 14.54 214.75
  Q 15.48 214.08 16.55 214.22
  Q 18.43 214.48 18.49 214.48
  Q 42.79 213.94 67.09 214.48
  Q 67.89 214.50 68.35 214.79
  Q 69.42 215.45 68.08 216.21
  Q 67.58 216.50 66.87 216.50
  Q 40.70 216.32 14.54 216.75
  Z"
/>
<path fill="#5b757b" d="
  M 120.96 215.00
  Q 121.02 222.66 121.01 230.31
  Q 121.00 232.89 120.13 233.98
  Q 118.95 235.45 116.71 235.32
  Q 115.34 235.25 115.28 235.25
  Q 95.64 235.25 76.00 235.25
  Q 71.88 235.25 71.83 231.50
  Q 71.72 223.50 71.79 215.50
  L 72.14 215.24
  C 72.34 215.09 72.62 215.00 72.93 215.01
  Q 96.94 215.63 120.96 215.00
  Z"
/>
<path fill="#531920" d="
  M 177.96 218.00
  Q 179.01 222.79 179.34 227.68
  Q 179.49 229.86 178.50 230.92
  Q 177.44 232.04 175.71 232.18
  Q 174.24 232.29 174.17 232.30
  Q 158.29 234.58 150.56 235.31
  Q 147.39 235.62 146.55 233.19
  Q 146.46 232.93 145.97 229.30
  Q 145.52 226.04 145.29 222.75
  L 177.96 218.00
  Z"
/>
<path fill="#4d1e00" d="
  M 14.79 218.50
  L 69.56 218.68
  C 69.85 218.68 70.08 218.90 70.09 219.18
  L 70.29 230.25
  Q 70.32 233.25 68.24 234.51
  Q 67.04 235.25 64.12 235.25
  Q 42.18 235.25 20.25 235.25
  Q 17.01 235.25 15.61 233.14
  Q 14.75 231.85 14.74 228.68
  Q 14.73 223.59 14.79 218.50
  Z"
/>
</svg>
