<?xml version="1.0" encoding="UTF-8" standalone="no"?>
<!DOCTYPE svg PUBLIC "-//W3C//DTD SVG 1.1//EN" "http://www.w3.org/Graphics/SVG/1.1/DTD/svg11.dtd">
<svg xmlns="http://www.w3.org/2000/svg" version="1.1" viewBox="0 0 192 192">
<g stroke-width="2.0" fill="none" stroke-linecap="butt">
<path stroke="#7f780f" vector-effect="non-scaling-stroke" d="
  M 140.50 37.06
  C 140.50 36.92 140.38 36.80 140.24 36.80
  L 52.52 36.80
  C 52.38 36.80 52.26 36.92 52.26 37.06
  L 52.26 154.24
  C 52.26 154.38 52.38 154.50 52.52 154.50
  L 140.24 154.50
  C 140.38 154.50 140.50 154.38 140.50 154.24
  L 140.50 37.06"
/>
<path stroke="#7f780f" vector-effect="non-scaling-stroke" d="
  M 137.25 40.64
  C 137.25 40.42 137.08 40.25 136.86 40.25
  L 56.14 40.25
  C 55.92 40.25 55.75 40.42 55.75 40.64
  L 55.75 150.86
  C 55.75 151.08 55.92 151.25 56.14 151.25
  L 136.86 151.25
  C 137.08 151.25 137.25 151.08 137.25 150.86
  L 137.25 40.64"
/>
<path stroke="#192124" vector-effect="non-scaling-stroke" d="
  M 75.71 77.25
  Q 74.48 77.24 73.82 78.32
  Q 67.85 88.15 67.74 99.08
  Q 67.63 110.25 71.88 117.94
  Q 77.00 127.23 89.04 129.80
  Q 94.22 130.91 101.00 129.50
  Q 107.73 128.10 111.50 123.54"
/>
<path stroke="#7f780f" vector-effect="non-scaling-stroke" d="
  M 111.50 123.54
  Q 121.53 116.41 122.16 104.06
  C 122.18 103.79 121.96 103.56 121.68 103.55
  L 106.43 103.50
  C 106.04 103.50 105.72 103.84 105.75 104.24
  Q 105.86 105.82 105.21 107.25"
/>
<path stroke="#192124" vector-effect="non-scaling-stroke" d="
  M 105.21 107.25
  Q 103.99 106.48 102.98 107.03
  C 102.71 107.17 102.53 107.47 102.49 107.81
  L 102.04 112.00"
/>
<path stroke="#7f780f" vector-effect="non-scaling-stroke" d="
  M 102.04 112.00
  Q 98.77 113.95 95.25 113.25
  Q 88.86 111.98 88.34 105.24
  Q 87.73 97.46 88.18 89.68
  Q 88.18 89.57 88.17 87.34
  Q 88.16 84.67 89.75 82.46"
/>
<path stroke="#192124" vector-effect="non-scaling-stroke" d="
  M 89.75 82.46
  Q 91.76 82.35 93.75 82.39
  Q 101.20 82.56 101.86 90.55
  C 101.92 91.21 102.45 91.72 103.09 91.71
  L 117.57 91.59
  C 117.88 91.58 118.15 91.38 118.23 91.09
  Q 118.59 89.73 117.50 88.54"
/>
<path stroke="#7f780f" vector-effect="non-scaling-stroke" d="
  M 117.50 88.54
  L 121.21 88.30
  C 121.48 88.28 121.68 88.01 121.66 87.68
  Q 120.37 68.14 101.25 65.50
  Q 84.65 63.20 75.71 77.25"
/>
<path stroke="#989933" vector-effect="non-scaling-stroke" d="
  M 117.50 88.54
  L 106.00 88.29"
/>
<path stroke="#7f780f" vector-effect="non-scaling-stroke" d="
  M 106.00 88.29
  Q 105.32 87.12 105.10 85.80
  Q 104.80 83.95 104.47 83.30
  Q 101.63 77.71 94.75 79.04"
/>
<path stroke="#989933" vector-effect="non-scaling-stroke" d="
  M 94.75 79.04
  Q 91.57 79.80 89.75 82.46"
/>
<path stroke="#989933" vector-effect="non-scaling-stroke" d="
  M 102.04 112.00
  Q 104.87 110.48 105.21 107.25"
/>
<path stroke="#989933" vector-effect="non-scaling-stroke" d="
  M 111.50 123.54
  Q 104.78 126.91 97.25 127.04"
/>
<path stroke="#7f780f" vector-effect="non-scaling-stroke" d="
  M 97.25 127.04
  Q 88.93 126.93 82.70 122.64
  Q 76.99 118.70 73.90 111.20
  Q 70.17 102.11 71.46 91.75"
/>
<path stroke="#989933" vector-effect="non-scaling-stroke" d="
  M 71.46 91.75
  Q 72.10 84.06 75.71 77.25"
/>
<path stroke="#192124" vector-effect="non-scaling-stroke" d="
  M 71.46 91.75
  Q 70.59 92.62 70.61 93.80
  Q 70.63 95.63 70.62 95.70
  Q 69.89 101.80 71.25 108.25
  Q 74.42 123.30 88.99 127.29
  Q 93.18 128.44 97.25 127.04"
/>
<path stroke="#192124" vector-effect="non-scaling-stroke" d="
  M 106.00 88.29
  Q 104.47 89.98 104.06 87.69
  Q 102.83 80.77 96.07 79.87
  Q 95.19 79.76 94.75 79.04"
/>
<path stroke="#989933" vector-effect="non-scaling-stroke" d="
  M 92.00 68.71
  Q 86.22 69.70 82.25 73.96"
/>
<path stroke="#7f780f" vector-effect="non-scaling-stroke" d="
  M 82.25 73.96
  Q 77.73 77.87 75.94 83.94
  Q 73.18 93.31 74.53 102.41
  Q 76.06 112.72 82.17 118.48
  Q 90.01 125.86 103.00 123.50
  Q 109.22 122.37 113.29 118.00"
/>
<path stroke="#989933" vector-effect="non-scaling-stroke" d="
  M 113.29 118.00
  Q 118.19 113.42 118.95 106.74
  C 118.98 106.48 118.77 106.24 118.50 106.25
  L 109.07 106.30
  C 108.77 106.31 108.50 106.51 108.42 106.80
  L 107.54 109.75"
/>
<path stroke="#7f780f" vector-effect="non-scaling-stroke" d="
  M 107.54 109.75
  Q 106.01 113.65 102.25 115.54"
/>
<path stroke="#989933" vector-effect="non-scaling-stroke" d="
  M 102.25 115.54
  Q 98.29 116.47 94.25 116.04"
/>
<path stroke="#7f780f" vector-effect="non-scaling-stroke" d="
  M 94.25 116.04
  Q 86.36 114.03 85.50 106.75
  Q 85.06 103.02 85.21 88.25"
/>
<path stroke="#989933" vector-effect="non-scaling-stroke" d="
  M 85.21 88.25
  L 86.21 82.25"
/>
<path stroke="#7f780f" vector-effect="non-scaling-stroke" d="
  M 86.21 82.25
  Q 90.70 74.79 99.49 76.28
  Q 106.38 77.45 107.88 84.87
  C 107.95 85.24 108.27 85.51 108.64 85.50
  L 114.50 85.46"
/>
<path stroke="#989933" vector-effect="non-scaling-stroke" d="
  M 114.50 85.46
  L 116.75 85.46"
/>
<path stroke="#7f780f" vector-effect="non-scaling-stroke" d="
  M 116.75 85.46
  Q 117.83 85.82 118.34 85.38
  Q 118.74 85.03 118.54 84.14
  Q 115.68 71.32 102.69 68.53
  Q 97.32 67.38 92.00 68.71"
/>
<path stroke="#192124" vector-effect="non-scaling-stroke" d="
  M 116.75 85.46
  Q 116.95 83.54 116.14 81.83
  Q 110.11 69.17 96.01 69.24
  Q 95.73 69.24 95.13 69.59
  Q 94.72 69.83 94.30 69.45
  Q 93.33 68.60 92.00 68.71"
/>
<path stroke="#192124" vector-effect="non-scaling-stroke" d="
  M 114.50 85.46
  Q 111.44 75.32 101.26 72.45
  Q 92.48 69.97 84.56 73.31
  Q 83.04 73.96 82.25 73.96"
/>
<path stroke="#192124" vector-effect="non-scaling-stroke" d="
  M 86.21 82.25
  Q 83.02 84.01 82.50 87.00
  Q 80.72 97.23 82.19 108.76
  Q 82.80 113.52 84.66 115.76
  Q 87.23 118.85 91.76 119.46
  Q 97.00 120.16 101.28 117.27
  Q 102.22 116.64 102.25 115.54"
/>
<path stroke="#192124" vector-effect="non-scaling-stroke" d="
  M 107.54 109.75
  L 114.23 109.64
  C 115.12 109.63 115.76 110.46 115.50 111.28
  L 113.29 118.00"
/>
<path stroke="#192124" vector-effect="non-scaling-stroke" d="
  M 85.21 88.25
  Q 84.51 89.19 84.44 91.44
  Q 84.17 100.06 84.48 105.98
  Q 84.74 110.65 86.04 112.78
  Q 88.00 115.98 92.25 117.00
  Q 93.98 117.42 94.25 116.04"
/>
</g>
<path fill="#000000" d="
  M 0.00 0.00
  Q 96.00 0.00 192.00 0.00
  Q 192.00 96.00 192.00 192.00
  Q 96.00 192.00 0.00 192.00
  Q 0.00 96.00 0.00 0.00
  Z
  M 140.50 37.06
  C 140.50 36.92 140.38 36.80 140.24 36.80
  L 52.52 36.80
  C 52.38 36.80 52.26 36.92 52.26 37.06
  L 52.26 154.24
  C 52.26 154.38 52.38 154.50 52.52 154.50
  L 140.24 154.50
  C 140.38 154.50 140.50 154.38 140.50 154.24
  L 140.50 37.06
  Z"
/>
<path fill="#fef01d" d="
  M 140.50 154.24
  C 140.50 154.38 140.38 154.50 140.24 154.50
  L 52.52 154.50
  C 52.38 154.50 52.26 154.38 52.26 154.24
  L 52.26 37.06
  C 52.26 36.92 52.38 36.80 52.52 36.80
  L 140.24 36.80
  C 140.38 36.80 140.50 36.92 140.50 37.06
  L 140.50 154.24
  Z
  M 137.25 40.64
  C 137.25 40.42 137.08 40.25 136.86 40.25
  L 56.14 40.25
  C 55.92 40.25 55.75 40.42 55.75 40.64
  L 55.75 150.86
  C 55.75 151.08 55.92 151.25 56.14 151.25
  L 136.86 151.25
  C 137.08 151.25 137.25 151.08 137.25 150.86
  L 137.25 40.64
  Z"
/>
<path fill="#000000" d="
  M 137.25 150.86
  C 137.25 151.08 137.08 151.25 136.86 151.25
  L 56.14 151.25
  C 55.92 151.25 55.75 151.08 55.75 150.86
  L 55.75 40.64
  C 55.75 40.42 55.92 40.25 56.14 40.25
  L 136.86 40.25
  C 137.08 40.25 137.25 40.42 137.25 40.64
  L 137.25 150.86
  Z
  M 75.71 77.25
  Q 74.48 77.24 73.82 78.32
  Q 67.85 88.15 67.74 99.08
  Q 67.63 110.25 71.88 117.94
  Q 77.00 127.23 89.04 129.80
  Q 94.22 130.91 101.00 129.50
  Q 107.73 128.10 111.50 123.54
  Q 121.53 116.41 122.16 104.06
  C 122.18 103.79 121.96 103.56 121.68 103.55
  L 106.43 103.50
  C 106.04 103.50 105.72 103.84 105.75 104.24
  Q 105.86 105.82 105.21 107.25
  Q 103.99 106.48 102.98 107.03
  C 102.71 107.17 102.53 107.47 102.49 107.81
  L 102.04 112.00
  Q 98.77 113.95 95.25 113.25
  Q 88.86 111.98 88.34 105.24
  Q 87.73 97.46 88.18 89.68
  Q 88.18 89.57 88.17 87.34
  Q 88.16 84.67 89.75 82.46
  Q 91.76 82.35 93.75 82.39
  Q 101.20 82.56 101.86 90.55
  C 101.92 91.21 102.45 91.72 103.09 91.71
  L 117.57 91.59
  C 117.88 91.58 118.15 91.38 118.23 91.09
  Q 118.59 89.73 117.50 88.54
  L 121.21 88.30
  C 121.48 88.28 121.68 88.01 121.66 87.68
  Q 120.37 68.14 101.25 65.50
  Q 84.65 63.20 75.71 77.25
  Z"
/>
<path fill="#fef01d" d="
  M 117.50 88.54
  L 106.00 88.29
  Q 105.32 87.12 105.10 85.80
  Q 104.80 83.95 104.47 83.30
  Q 101.63 77.71 94.75 79.04
  Q 91.57 79.80 89.75 82.46
  Q 88.16 84.67 88.17 87.34
  Q 88.18 89.57 88.18 89.68
  Q 87.73 97.46 88.34 105.24
  Q 88.86 111.98 95.25 113.25
  Q 98.77 113.95 102.04 112.00
  Q 104.87 110.48 105.21 107.25
  Q 105.86 105.82 105.75 104.24
  C 105.72 103.84 106.04 103.50 106.43 103.50
  L 121.68 103.55
  C 121.96 103.56 122.18 103.79 122.16 104.06
  Q 121.53 116.41 111.50 123.54
  Q 104.78 126.91 97.25 127.04
  Q 88.93 126.93 82.70 122.64
  Q 76.99 118.70 73.90 111.20
  Q 70.17 102.11 71.46 91.75
  Q 72.10 84.06 75.71 77.25
  Q 84.65 63.20 101.25 65.50
  Q 120.37 68.14 121.66 87.68
  C 121.68 88.01 121.48 88.28 121.21 88.30
  L 117.50 88.54
  Z
  M 92.00 68.71
  Q 86.22 69.70 82.25 73.96
  Q 77.73 77.87 75.94 83.94
  Q 73.18 93.31 74.53 102.41
  Q 76.06 112.72 82.17 118.48
  Q 90.01 125.86 103.00 123.50
  Q 109.22 122.37 113.29 118.00
  Q 118.19 113.42 118.95 106.74
  C 118.98 106.48 118.77 106.24 118.50 106.25
  L 109.07 106.30
  C 108.77 106.31 108.50 106.51 108.42 106.80
  L 107.54 109.75
  Q 106.01 113.65 102.25 115.54
  Q 98.29 116.47 94.25 116.04
  Q 86.36 114.03 85.50 106.75
  Q 85.06 103.02 85.21 88.25
  L 86.21 82.25
  Q 90.70 74.79 99.49 76.28
  Q 106.38 77.45 107.88 84.87
  C 107.95 85.24 108.27 85.51 108.64 85.50
  L 114.50 85.46
  L 116.75 85.46
  Q 117.83 85.82 118.34 85.38
  Q 118.74 85.03 118.54 84.14
  Q 115.68 71.32 102.69 68.53
  Q 97.32 67.38 92.00 68.71
  Z"
/>
<path fill="#000000" d="
  M 116.75 85.46
  Q 116.95 83.54 116.14 81.83
  Q 110.11 69.17 96.01 69.24
  Q 95.73 69.24 95.13 69.59
  Q 94.72 69.83 94.30 69.45
  Q 93.33 68.60 92.00 68.71
  Q 97.32 67.38 102.69 68.53
  Q 115.68 71.32 118.54 84.14
  Q 118.74 85.03 118.34 85.38
  Q 117.83 85.82 116.75 85.46
  Z"
/>
<path fill="#314148" d="
  M 92.00 68.71
  Q 93.33 68.60 94.30 69.45
  Q 94.72 69.83 95.13 69.59
  Q 95.73 69.24 96.01 69.24
  Q 110.11 69.17 116.14 81.83
  Q 116.95 83.54 116.75 85.46
  L 114.50 85.46
  Q 111.44 75.32 101.26 72.45
  Q 92.48 69.97 84.56 73.31
  Q 83.04 73.96 82.25 73.96
  Q 86.22 69.70 92.00 68.71
  Z"
/>
<path fill="#000000" d="
  M 114.50 85.46
  L 108.64 85.50
  C 108.27 85.51 107.95 85.24 107.88 84.87
  Q 106.38 77.45 99.49 76.28
  Q 90.70 74.79 86.21 82.25
  Q 83.02 84.01 82.50 87.00
  Q 80.72 97.23 82.19 108.76
  Q 82.80 113.52 84.66 115.76
  Q 87.23 118.85 91.76 119.46
  Q 97.00 120.16 101.28 117.27
  Q 102.22 116.64 102.25 115.54
  Q 106.01 113.65 107.54 109.75
  L 114.23 109.64
  C 115.12 109.63 115.76 110.46 115.50 111.28
  L 113.29 118.00
  Q 109.22 122.37 103.00 123.50
  Q 90.01 125.86 82.17 118.48
  Q 76.06 112.72 74.53 102.41
  Q 73.18 93.31 75.94 83.94
  Q 77.73 77.87 82.25 73.96
  Q 83.04 73.96 84.56 73.31
  Q 92.48 69.97 101.26 72.45
  Q 111.44 75.32 114.50 85.46
  Z"
/>
<path fill="#314148" d="
  M 75.71 77.25
  Q 72.10 84.06 71.46 91.75
  Q 70.59 92.62 70.61 93.80
  Q 70.63 95.63 70.62 95.70
  Q 69.89 101.80 71.25 108.25
  Q 74.42 123.30 88.99 127.29
  Q 93.18 128.44 97.25 127.04
  Q 104.78 126.91 111.50 123.54
  Q 107.73 128.10 101.00 129.50
  Q 94.22 130.91 89.04 129.80
  Q 77.00 127.23 71.88 117.94
  Q 67.63 110.25 67.74 99.08
  Q 67.85 88.15 73.82 78.32
  Q 74.48 77.24 75.71 77.25
  Z"
/>
<path fill="#000000" d="
  M 106.00 88.29
  Q 104.47 89.98 104.06 87.69
  Q 102.83 80.77 96.07 79.87
  Q 95.19 79.76 94.75 79.04
  Q 101.63 77.71 104.47 83.30
  Q 104.80 83.95 105.10 85.80
  Q 105.32 87.12 106.00 88.29
  Z"
/>
<path fill="#314148" d="
  M 94.75 79.04
  Q 95.19 79.76 96.07 79.87
  Q 102.83 80.77 104.06 87.69
  Q 104.47 89.98 106.00 88.29
  L 117.50 88.54
  Q 118.59 89.73 118.23 91.09
  C 118.15 91.38 117.88 91.58 117.57 91.59
  L 103.09 91.71
  C 102.45 91.72 101.92 91.21 101.86 90.55
  Q 101.20 82.56 93.75 82.39
  Q 91.76 82.35 89.75 82.46
  Q 91.57 79.80 94.75 79.04
  Z"
/>
<path fill="#314148" d="
  M 86.21 82.25
  L 85.21 88.25
  Q 84.51 89.19 84.44 91.44
  Q 84.17 100.06 84.48 105.98
  Q 84.74 110.65 86.04 112.78
  Q 88.00 115.98 92.25 117.00
  Q 93.98 117.42 94.25 116.04
  Q 98.29 116.47 102.25 115.54
  Q 102.22 116.64 101.28 117.27
  Q 97.00 120.16 91.76 119.46
  Q 87.23 118.85 84.66 115.76
  Q 82.80 113.52 82.19 108.76
  Q 80.72 97.23 82.50 87.00
  Q 83.02 84.01 86.21 82.25
  Z"
/>
<path fill="#000000" d="
  M 85.21 88.25
  Q 85.06 103.02 85.50 106.75
  Q 86.36 114.03 94.25 116.04
  Q 93.98 117.42 92.25 117.00
  Q 88.00 115.98 86.04 112.78
  Q 84.74 110.65 84.48 105.98
  Q 84.17 100.06 84.44 91.44
  Q 84.51 89.19 85.21 88.25
  Z"
/>
<path fill="#000000" d="
  M 71.46 91.75
  Q 70.17 102.11 73.90 111.20
  Q 76.99 118.70 82.70 122.64
  Q 88.93 126.93 97.25 127.04
  Q 93.18 128.44 88.99 127.29
  Q 74.42 123.30 71.25 108.25
  Q 69.89 101.80 70.62 95.70
  Q 70.63 95.63 70.61 93.80
  Q 70.59 92.62 71.46 91.75
  Z"
/>
<path fill="#314148" d="
  M 113.29 118.00
  L 115.50 111.28
  C 115.76 110.46 115.12 109.63 114.23 109.64
  L 107.54 109.75
  L 108.42 106.80
  C 108.50 106.51 108.77 106.31 109.07 106.30
  L 118.50 106.25
  C 118.77 106.24 118.98 106.48 118.95 106.74
  Q 118.19 113.42 113.29 118.00
  Z"
/>
<path fill="#314148" d="
  M 105.21 107.25
  Q 104.87 110.48 102.04 112.00
  L 102.49 107.81
  C 102.53 107.47 102.71 107.17 102.98 107.03
  Q 103.99 106.48 105.21 107.25
  Z"
/>
</svg>
