<?xml version="1.0" encoding="UTF-8" standalone="no"?>
<!DOCTYPE svg PUBLIC "-//W3C//DTD SVG 1.1//EN" "http://www.w3.org/Graphics/SVG/1.1/DTD/svg11.dtd">
<svg xmlns="http://www.w3.org/2000/svg" version="1.1" viewBox="0 0 225 225">
<g stroke-width="2.0" fill="none" stroke-linecap="butt">
<path stroke="#88d1c0" vector-effect="non-scaling-stroke" d="
  M 157.26 46.33
  Q 146.47 42.03 134.54 44.42
  C 134.34 44.46 134.13 44.39 133.99 44.24
  Q 123.21 32.70 108.48 31.04
  Q 98.41 29.90 88.83 33.51
  Q 72.24 39.76 64.67 58.05
  C 64.36 58.79 63.71 59.33 62.93 59.51
  Q 51.18 62.20 42.49 71.73
  Q 30.26 85.15 31.50 103.50
  Q 32.34 115.94 41.42 126.62
  C 41.63 126.86 41.70 127.18 41.62 127.48
  Q 37.98 141.08 42.28 153.43
  Q 45.65 163.15 52.95 170.11
  Q 61.52 178.29 73.94 180.78
  Q 81.47 182.29 89.17 180.71
  C 89.65 180.61 90.16 180.77 90.50 181.14
  Q 99.52 190.75 111.81 193.32
  Q 121.43 195.33 131.60 192.63
  Q 151.73 187.30 159.89 166.27
  C 160.00 165.99 160.24 165.77 160.54 165.68
  Q 182.51 159.64 189.88 140.15
  Q 193.61 130.30 192.46 120.52
  Q 191.01 108.26 182.50 98.07
  C 182.29 97.82 182.22 97.49 182.31 97.18
  Q 183.90 91.47 184.13 85.92
  Q 184.35 80.38 182.87 74.69
  Q 177.60 54.44 157.26 46.33"
/>
<path stroke="#88d1c0" vector-effect="non-scaling-stroke" d="
  M 122.15 47.73
  Q 117.06 44.38 112.13 42.76
  Q 107.08 41.10 101.22 41.54
  Q 86.24 42.67 77.81 55.31
  Q 73.97 61.07 73.14 68.26
  Q 73.00 69.49 73.00 81.76
  Q 73.00 95.42 73.00 109.66
  C 73.00 110.11 73.24 110.53 73.63 110.75
  L 86.04 117.82
  C 86.36 118.00 86.76 117.77 86.76 117.40
  L 86.99 71.97
  Q 87.00 69.41 89.30 68.07
  L 122.13 48.87
  C 122.56 48.62 122.57 48.01 122.15 47.73"
/>
<path stroke="#88d1c0" vector-effect="non-scaling-stroke" d="
  M 138.95 70.58
  Q 140.47 71.31 142.69 72.56
  Q 157.29 80.77 172.09 89.45
  C 172.59 89.75 173.23 89.41 173.28 88.83
  Q 174.56 72.28 163.74 62.54
  Q 156.11 55.68 146.30 54.50
  Q 136.16 53.28 126.44 58.94
  Q 121.56 61.78 95.12 76.94
  C 94.84 77.10 94.66 77.38 94.66 77.68
  L 94.72 93.01
  Q 94.72 93.52 95.18 93.25
  Q 113.27 82.65 131.44 72.19
  Q 133.63 70.92 135.35 70.31
  Q 137.09 69.68 138.95 70.58"
/>
<path stroke="#88d1c0" vector-effect="non-scaling-stroke" d="
  M 103.49 136.65
  Q 84.49 125.83 65.64 114.62
  Q 63.53 113.37 62.97 112.22
  Q 62.27 110.76 62.25 108.50
  Q 62.09 90.03 62.18 71.56
  C 62.18 71.32 61.94 71.15 61.72 71.24
  Q 50.52 75.51 45.44 85.94
  Q 39.06 99.01 45.24 112.61
  Q 49.14 121.20 56.31 125.44
  Q 72.69 135.11 89.88 144.96
  C 90.26 145.18 90.71 145.18 91.06 144.97
  L 103.51 137.74
  Q 104.45 137.20 103.49 136.65"
/>
<path stroke="#88d1c0" vector-effect="non-scaling-stroke" d="
  M 161.35 112.53
  Q 162.00 114.47 162.00 117.25
  Q 162.00 135.25 162.00 153.16
  C 162.00 153.66 162.52 153.99 162.98 153.78
  Q 173.36 148.94 178.32 139.83
  Q 183.14 130.98 181.61 120.56
  Q 179.48 105.99 165.33 97.90
  Q 150.09 89.18 134.57 80.10
  C 134.06 79.80 133.42 79.79 132.91 80.09
  L 120.38 87.32
  C 120.03 87.52 120.04 88.03 120.39 88.23
  L 160.75 111.80
  C 161.04 111.97 161.25 112.23 161.35 112.53"
/>
<path stroke="#88d1c0" vector-effect="non-scaling-stroke" d="
  M 128.86 101.61
  L 112.91 92.51
  C 112.47 92.26 111.95 92.24 111.53 92.48
  L 94.86 102.17
  C 94.60 102.33 94.44 102.61 94.44 102.93
  L 94.56 122.19
  C 94.56 122.51 94.72 122.80 94.99 122.95
  L 111.25 132.40
  C 111.78 132.71 112.45 132.70 113.01 132.38
  L 129.06 123.25
  C 129.34 123.09 129.52 122.80 129.52 122.49
  L 129.72 103.04
  C 129.73 102.46 129.40 101.91 128.86 101.61"
/>
<path stroke="#88d1c0" vector-effect="non-scaling-stroke" d="
  M 150.77 114.45
  L 138.37 107.11
  Q 137.56 106.64 137.56 107.56
  Q 137.50 129.00 137.62 150.94
  Q 137.65 155.44 134.19 157.44
  Q 118.01 166.77 101.44 176.28
  C 101.20 176.42 101.18 176.76 101.41 176.93
  Q 109.91 183.10 119.36 183.46
  Q 128.60 183.81 136.92 178.78
  Q 146.54 172.96 149.85 161.84
  Q 151.25 157.11 151.25 147.50
  Q 151.25 131.38 151.25 115.27
  C 151.25 114.94 151.07 114.62 150.77 114.45"
/>
<path stroke="#88d1c0" vector-effect="non-scaling-stroke" d="
  M 86.56 155.19
  L 52.25 135.60
  C 51.72 135.30 51.06 135.64 51.00 136.24
  Q 49.95 148.07 55.77 156.92
  Q 61.42 165.52 71.24 169.01
  Q 79.06 171.79 87.49 170.04
  Q 92.10 169.09 99.35 165.03
  Q 114.19 156.72 128.86 148.03
  C 129.40 147.72 129.73 147.16 129.72 146.57
  L 129.50 131.94
  C 129.50 131.71 129.23 131.57 129.02 131.69
  L 87.93 155.19
  C 87.51 155.43 86.99 155.43 86.56 155.19"
/>
</g>
<path fill="#11a281" d="
  M 0.00 0.00
  Q 112.50 0.00 225.00 0.00
  Q 225.00 112.50 225.00 225.00
  Q 112.50 225.00 0.00 225.00
  Q 0.00 112.50 0.00 0.00
  Z
  M 157.26 46.33
  Q 146.47 42.03 134.54 44.42
  C 134.34 44.46 134.13 44.39 133.99 44.24
  Q 123.21 32.70 108.48 31.04
  Q 98.41 29.90 88.83 33.51
  Q 72.24 39.76 64.67 58.05
  C 64.36 58.79 63.71 59.33 62.93 59.51
  Q 51.18 62.20 42.49 71.73
  Q 30.26 85.15 31.50 103.50
  Q 32.34 115.94 41.42 126.62
  C 41.63 126.86 41.70 127.18 41.62 127.48
  Q 37.98 141.08 42.28 153.43
  Q 45.65 163.15 52.95 170.11
  Q 61.52 178.29 73.94 180.78
  Q 81.47 182.29 89.17 180.71
  C 89.65 180.61 90.16 180.77 90.50 181.14
  Q 99.52 190.75 111.81 193.32
  Q 121.43 195.33 131.60 192.63
  Q 151.73 187.30 159.89 166.27
  C 160.00 165.99 160.24 165.77 160.54 165.68
  Q 182.51 159.64 189.88 140.15
  Q 193.61 130.30 192.46 120.52
  Q 191.01 108.26 182.50 98.07
  C 182.29 97.82 182.22 97.49 182.31 97.18
  Q 183.90 91.47 184.13 85.92
  Q 184.35 80.38 182.87 74.69
  Q 177.60 54.44 157.26 46.33
  Z"
/>
<path fill="#ffffff" d="
  M 157.26 46.33
  Q 177.60 54.44 182.87 74.69
  Q 184.35 80.38 184.13 85.92
  Q 183.90 91.47 182.31 97.18
  C 182.22 97.49 182.29 97.82 182.50 98.07
  Q 191.01 108.26 192.46 120.52
  Q 193.61 130.30 189.88 140.15
  Q 182.51 159.64 160.54 165.68
  C 160.24 165.77 160.00 165.99 159.89 166.27
  Q 151.73 187.30 131.60 192.63
  Q 121.43 195.33 111.81 193.32
  Q 99.52 190.75 90.50 181.14
  C 90.16 180.77 89.65 180.61 89.17 180.71
  Q 81.47 182.29 73.94 180.78
  Q 61.52 178.29 52.95 170.11
  Q 45.65 163.15 42.28 153.43
  Q 37.98 141.08 41.62 127.48
  C 41.70 127.18 41.63 126.86 41.42 126.62
  Q 32.34 115.94 31.50 103.50
  Q 30.26 85.15 42.49 71.73
  Q 51.18 62.20 62.93 59.51
  C 63.71 59.33 64.36 58.79 64.67 58.05
  Q 72.24 39.76 88.83 33.51
  Q 98.41 29.90 108.48 31.04
  Q 123.21 32.70 133.99 44.24
  C 134.13 44.39 134.34 44.46 134.54 44.42
  Q 146.47 42.03 157.26 46.33
  Z
  M 122.15 47.73
  Q 117.06 44.38 112.13 42.76
  Q 107.08 41.10 101.22 41.54
  Q 86.24 42.67 77.81 55.31
  Q 73.97 61.07 73.14 68.26
  Q 73.00 69.49 73.00 81.76
  Q 73.00 95.42 73.00 109.66
  C 73.00 110.11 73.24 110.53 73.63 110.75
  L 86.04 117.82
  C 86.36 118.00 86.76 117.77 86.76 117.40
  L 86.99 71.97
  Q 87.00 69.41 89.30 68.07
  L 122.13 48.87
  C 122.56 48.62 122.57 48.01 122.15 47.73
  Z
  M 138.95 70.58
  Q 140.47 71.31 142.69 72.56
  Q 157.29 80.77 172.09 89.45
  C 172.59 89.75 173.23 89.41 173.28 88.83
  Q 174.56 72.28 163.74 62.54
  Q 156.11 55.68 146.30 54.50
  Q 136.16 53.28 126.44 58.94
  Q 121.56 61.78 95.12 76.94
  C 94.84 77.10 94.66 77.38 94.66 77.68
  L 94.72 93.01
  Q 94.72 93.52 95.18 93.25
  Q 113.27 82.65 131.44 72.19
  Q 133.63 70.92 135.35 70.31
  Q 137.09 69.68 138.95 70.58
  Z
  M 103.49 136.65
  Q 84.49 125.83 65.64 114.62
  Q 63.53 113.37 62.97 112.22
  Q 62.27 110.76 62.25 108.50
  Q 62.09 90.03 62.18 71.56
  C 62.18 71.32 61.94 71.15 61.72 71.24
  Q 50.52 75.51 45.44 85.94
  Q 39.06 99.01 45.24 112.61
  Q 49.14 121.20 56.31 125.44
  Q 72.69 135.11 89.88 144.96
  C 90.26 145.18 90.71 145.18 91.06 144.97
  L 103.51 137.74
  Q 104.45 137.20 103.49 136.65
  Z
  M 161.35 112.53
  Q 162.00 114.47 162.00 117.25
  Q 162.00 135.25 162.00 153.16
  C 162.00 153.66 162.52 153.99 162.98 153.78
  Q 173.36 148.94 178.32 139.83
  Q 183.14 130.98 181.61 120.56
  Q 179.48 105.99 165.33 97.90
  Q 150.09 89.18 134.57 80.10
  C 134.06 79.80 133.42 79.79 132.91 80.09
  L 120.38 87.32
  C 120.03 87.52 120.04 88.03 120.39 88.23
  L 160.75 111.80
  C 161.04 111.97 161.25 112.23 161.35 112.53
  Z
  M 128.86 101.61
  L 112.91 92.51
  C 112.47 92.26 111.95 92.24 111.53 92.48
  L 94.86 102.17
  C 94.60 102.33 94.44 102.61 94.44 102.93
  L 94.56 122.19
  C 94.56 122.51 94.72 122.80 94.99 122.95
  L 111.25 132.40
  C 111.78 132.71 112.45 132.70 113.01 132.38
  L 129.06 123.25
  C 129.34 123.09 129.52 122.80 129.52 122.49
  L 129.72 103.04
  C 129.73 102.46 129.40 101.91 128.86 101.61
  Z
  M 150.77 114.45
  L 138.37 107.11
  Q 137.56 106.64 137.56 107.56
  Q 137.50 129.00 137.62 150.94
  Q 137.65 155.44 134.19 157.44
  Q 118.01 166.77 101.44 176.28
  C 101.20 176.42 101.18 176.76 101.41 176.93
  Q 109.91 183.10 119.36 183.46
  Q 128.60 183.81 136.92 178.78
  Q 146.54 172.96 149.85 161.84
  Q 151.25 157.11 151.25 147.50
  Q 151.25 131.38 151.25 115.27
  C 151.25 114.94 151.07 114.62 150.77 114.45
  Z
  M 86.56 155.19
  L 52.25 135.60
  C 51.72 135.30 51.06 135.64 51.00 136.24
  Q 49.95 148.07 55.77 156.92
  Q 61.42 165.52 71.24 169.01
  Q 79.06 171.79 87.49 170.04
  Q 92.10 169.09 99.35 165.03
  Q 114.19 156.72 128.86 148.03
  C 129.40 147.72 129.73 147.16 129.72 146.57
  L 129.50 131.94
  C 129.50 131.71 129.23 131.57 129.02 131.69
  L 87.93 155.19
  C 87.51 155.43 86.99 155.43 86.56 155.19
  Z"
/>
<path fill="#11a281" d="
  M 122.15 47.73
  C 122.57 48.01 122.56 48.62 122.13 48.87
  L 89.30 68.07
  Q 87.00 69.41 86.99 71.97
  L 86.76 117.40
  C 86.76 117.77 86.36 118.00 86.04 117.82
  L 73.63 110.75
  C 73.24 110.53 73.00 110.11 73.00 109.66
  Q 73.00 95.42 73.00 81.76
  Q 73.00 69.49 73.14 68.26
  Q 73.97 61.07 77.81 55.31
  Q 86.24 42.67 101.22 41.54
  Q 107.08 41.10 112.13 42.76
  Q 117.06 44.38 122.15 47.73
  Z"
/>
<path fill="#11a281" d="
  M 135.35 70.31
  Q 133.63 70.92 131.44 72.19
  Q 113.27 82.65 95.18 93.25
  Q 94.72 93.52 94.72 93.01
  L 94.66 77.68
  C 94.66 77.38 94.84 77.10 95.12 76.94
  Q 121.56 61.78 126.44 58.94
  Q 136.16 53.28 146.30 54.50
  Q 156.11 55.68 163.74 62.54
  Q 174.56 72.28 173.28 88.83
  C 173.23 89.41 172.59 89.75 172.09 89.45
  Q 157.29 80.77 142.69 72.56
  Q 140.47 71.31 138.95 70.58
  Q 137.09 69.68 135.35 70.31
  Z"
/>
<path fill="#11a281" d="
  M 103.49 136.65
  Q 104.45 137.20 103.51 137.74
  L 91.06 144.97
  C 90.71 145.18 90.26 145.18 89.88 144.96
  Q 72.69 135.11 56.31 125.44
  Q 49.14 121.20 45.24 112.61
  Q 39.06 99.01 45.44 85.94
  Q 50.52 75.51 61.72 71.24
  C 61.94 71.15 62.18 71.32 62.18 71.56
  Q 62.09 90.03 62.25 108.50
  Q 62.27 110.76 62.97 112.22
  Q 63.53 113.37 65.64 114.62
  Q 84.49 125.83 103.49 136.65
  Z"
/>
<path fill="#11a281" d="
  M 160.75 111.80
  L 120.39 88.23
  C 120.04 88.03 120.03 87.52 120.38 87.32
  L 132.91 80.09
  C 133.42 79.79 134.06 79.80 134.57 80.10
  Q 150.09 89.18 165.33 97.90
  Q 179.48 105.99 181.61 120.56
  Q 183.14 130.98 178.32 139.83
  Q 173.36 148.94 162.98 153.78
  C 162.52 153.99 162.00 153.66 162.00 153.16
  Q 162.00 135.25 162.00 117.25
  Q 162.00 114.47 161.35 112.53
  C 161.25 112.23 161.04 111.97 160.75 111.80
  Z"
/>
<path fill="#11a281" d="
  M 128.86 101.61
  C 129.40 101.91 129.73 102.46 129.72 103.04
  L 129.52 122.49
  C 129.52 122.80 129.34 123.09 129.06 123.25
  L 113.01 132.38
  C 112.45 132.70 111.78 132.71 111.25 132.40
  L 94.99 122.95
  C 94.72 122.80 94.56 122.51 94.56 122.19
  L 94.44 102.93
  C 94.44 102.61 94.60 102.33 94.86 102.17
  L 111.53 92.48
  C 111.95 92.24 112.47 92.26 112.91 92.51
  L 128.86 101.61
  Z"
/>
<path fill="#11a281" d="
  M 150.77 114.45
  C 151.07 114.62 151.25 114.94 151.25 115.27
  Q 151.25 131.38 151.25 147.50
  Q 151.25 157.11 149.85 161.84
  Q 146.54 172.96 136.92 178.78
  Q 128.60 183.81 119.36 183.46
  Q 109.91 183.10 101.41 176.93
  C 101.18 176.76 101.20 176.42 101.44 176.28
  Q 118.01 166.77 134.19 157.44
  Q 137.65 155.44 137.62 150.94
  Q 137.50 129.00 137.56 107.56
  Q 137.56 106.64 138.37 107.11
  L 150.77 114.45
  Z"
/>
<path fill="#11a281" d="
  M 86.56 155.19
  C 86.99 155.43 87.51 155.43 87.93 155.19
  L 129.02 131.69
  C 129.23 131.57 129.50 131.71 129.50 131.94
  L 129.72 146.57
  C 129.73 147.16 129.40 147.72 128.86 148.03
  Q 114.19 156.72 99.35 165.03
  Q 92.10 169.09 87.49 170.04
  Q 79.06 171.79 71.24 169.01
  Q 61.42 165.52 55.77 156.92
  Q 49.95 148.07 51.00 136.24
  C 51.06 135.64 51.72 135.30 52.25 135.60
  L 86.56 155.19
  Z"
/>
</svg>
