<?xml version="1.0" encoding="UTF-8" standalone="no"?>
<!DOCTYPE svg PUBLIC "-//W3C//DTD SVG 1.1//EN" "http://www.w3.org/Graphics/SVG/1.1/DTD/svg11.dtd">
<svg xmlns="http://www.w3.org/2000/svg" version="1.1" viewBox="0 0 128 128">
<path fill="#e62600" d="
  M 19.27 24.25
  Q 26.10 15.07 37.75 15.05
  Q 60.26 15.01 82.76 15.00
  Q 93.14 15.00 97.56 16.51
  Q 107.21 19.80 110.50 29.45
  Q 112.00 33.85 112.00 44.22
  Q 112.00 62.55 112.00 80.87
  Q 112.00 80.92 112.10 85.65
  Q 112.22 91.80 111.00 96.50
  Q 109.67 101.61 105.26 105.59
  Q 105.17 105.67 103.97 107.10
  Q 103.30 107.88 102.24 108.16
  Q 101.73 108.28 101.40 108.61
  Q 99.46 110.48 96.90 110.93
  Q 93.54 111.51 93.28 111.57
  Q 91.22 112.00 88.50 112.00
  Q 62.50 112.00 36.50 111.93
  Q 34.84 111.93 33.25 111.54
  Q 32.34 111.32 30.06 110.94
  Q 27.40 110.50 25.52 108.44
  C 25.32 108.23 25.03 108.09 24.69 108.05
  Q 24.17 108.00 23.73 107.74
  Q 23.39 107.54 23.06 107.00
  Q 22.25 105.69 21.06 104.76
  Q 19.46 103.50 18.94 102.74
  Q 15.83 98.20 15.25 93.00
  Q 14.76 88.58 14.85 83.16
  Q 14.99 74.92 14.99 74.85
  Q 14.93 43.25 15.06 35.81
  Q 15.17 29.75 19.27 24.25
  Z
  M 53.31 71.44
  Q 48.07 67.01 41.80 66.86
  Q 38.24 66.78 36.21 67.18
  Q 33.66 67.68 30.94 69.44
  Q 27.26 71.81 25.03 74.68
  Q 22.85 77.47 21.87 81.71
  Q 19.04 93.98 29.41 102.32
  Q 30.99 103.58 35.75 105.00
  Q 39.91 106.24 43.44 105.64
  Q 46.81 105.07 50.49 103.11
  Q 55.03 100.69 58.00 95.50
  Q 59.65 92.63 60.00 89.91
  Q 60.27 87.82 60.01 84.09
  Q 59.50 76.66 53.31 71.44
  Z
  M 99.56 71.94
  Q 93.79 66.80 86.79 66.64
  Q 80.38 66.50 74.49 70.70
  Q 64.11 78.10 67.31 91.64
  Q 68.05 94.78 70.00 97.35
  Q 75.21 104.24 83.69 105.56
  Q 88.25 106.27 92.01 104.89
  Q 92.25 104.81 95.08 104.00
  Q 97.16 103.40 98.32 101.49
  C 98.47 101.24 98.75 101.08 99.07 101.04
  Q 100.74 100.85 101.11 99.18
  C 101.18 98.86 101.36 98.58 101.60 98.41
  Q 103.19 97.25 103.77 95.47
  Q 104.60 92.90 104.67 92.74
  Q 106.58 88.15 105.62 83.44
  Q 104.95 80.07 103.59 77.23
  Q 102.19 74.28 99.56 71.94
  Z"
/>
</svg>
