<?xml version="1.0" encoding="UTF-8" standalone="no"?>
<!DOCTYPE svg PUBLIC "-//W3C//DTD SVG 1.1//EN" "http://www.w3.org/Graphics/SVG/1.1/DTD/svg11.dtd">
<svg xmlns="http://www.w3.org/2000/svg" version="1.1" viewBox="0 0 128 128">
<g stroke-width="2.0" fill="none" stroke-linecap="butt">
<path stroke="#808080" vector-effect="non-scaling-stroke" d="
  M 120.93 58.98
  L 8.01 5.70
  C 7.54 5.48 7.00 5.82 7.00 6.34
  L 7.00 121.78
  C 7.00 122.25 7.50 122.54 7.91 122.31
  L 120.95 59.50
  Q 121.44 59.22 120.93 58.98"
/>
<path stroke="#00455e" vector-effect="non-scaling-stroke" d="
  M 113.40 59.10
  L 11.47 11.10
  C 11.04 10.90 10.56 11.22 10.56 11.69
  Q 11.02 51.57 10.58 91.23
  Q 10.52 96.31 10.66 103.76
  Q 10.78 109.90 10.75 116.28
  C 10.75 116.55 11.03 116.72 11.27 116.59
  L 113.43 59.86
  Q 114.16 59.46 113.40 59.10"
/>
</g>
<path fill="#ffffff" d="
  M 0.00 0.00
  Q 64.00 0.00 128.00 0.00
  Q 128.00 64.00 128.00 128.00
  Q 64.00 128.00 0.00 128.00
  Q 0.00 64.00 0.00 0.00
  Z
  M 120.93 58.98
  L 8.01 5.70
  C 7.54 5.48 7.00 5.82 7.00 6.34
  L 7.00 121.78
  C 7.00 122.25 7.50 122.54 7.91 122.31
  L 120.95 59.50
  Q 121.44 59.22 120.93 58.98
  Z"
/>
<path fill="#000000" d="
  M 120.93 58.98
  Q 121.44 59.22 120.95 59.50
  L 7.91 122.31
  C 7.50 122.54 7.00 122.25 7.00 121.78
  L 7.00 6.34
  C 7.00 5.82 7.54 5.48 8.01 5.70
  L 120.93 58.98
  Z
  M 113.40 59.10
  L 11.47 11.10
  C 11.04 10.90 10.56 11.22 10.56 11.69
  Q 11.02 51.57 10.58 91.23
  Q 10.52 96.31 10.66 103.76
  Q 10.78 109.90 10.75 116.28
  C 10.75 116.55 11.03 116.72 11.27 116.59
  L 113.43 59.86
  Q 114.16 59.46 113.40 59.10
  Z"
/>
<path fill="#008abb" d="
  M 113.40 59.10
  Q 114.16 59.46 113.43 59.86
  L 11.27 116.59
  C 11.03 116.72 10.75 116.55 10.75 116.28
  Q 10.78 109.90 10.66 103.76
  Q 10.52 96.31 10.58 91.23
  Q 11.02 51.57 10.56 11.69
  C 10.56 11.22 11.04 10.90 11.47 11.10
  L 113.40 59.10
  Z"
/>
</svg>
