<?xml version="1.0" encoding="UTF-8" standalone="no"?>
<!DOCTYPE svg PUBLIC "-//W3C//DTD SVG 1.1//EN" "http://www.w3.org/Graphics/SVG/1.1/DTD/svg11.dtd">
<svg xmlns="http://www.w3.org/2000/svg" version="1.1" viewBox="0 0 128 128">
<g stroke-width="2.0" fill="none" stroke-linecap="butt">
<path stroke="#f5a6c4" vector-effect="non-scaling-stroke" d="
  M 37.20 60.30
  L 37.25 72.26
  C 37.25 72.64 37.53 72.95 37.88 72.94
  L 45.81 72.86
  C 46.09 72.85 46.32 72.61 46.33 72.31
  L 46.67 60.18
  C 46.68 59.91 46.91 59.69 47.19 59.69
  L 63.45 59.75
  C 63.75 59.75 64.00 59.50 64.00 59.20
  L 64.00 29.31
  C 64.00 28.86 63.64 28.50 63.19 28.50
  L 47.00 28.50
  C 46.72 28.50 46.50 28.28 46.50 28.00
  L 46.45 20.31
  C 46.45 20.04 46.22 19.82 45.93 19.81
  L 38.05 19.59
  C 37.75 19.58 37.50 19.79 37.49 20.06
  L 37.31 27.71
  C 37.30 28.15 36.97 28.50 36.56 28.50
  L 20.31 28.56
  C 20.03 28.56 19.81 28.79 19.81 29.07
  L 19.75 58.90
  C 19.75 59.37 20.14 59.75 20.61 59.75
  L 36.69 59.80
  C 36.97 59.81 37.19 60.03 37.20 60.30"
/>
<path stroke="#f5a6c4" vector-effect="non-scaling-stroke" d="
  M 89.24 33.93
  Q 91.68 34.88 93.10 36.95
  Q 94.46 38.93 94.66 43.36
  Q 94.81 46.84 94.92 50.32
  C 94.93 50.59 95.16 50.80 95.43 50.80
  L 103.39 50.76
  C 103.70 50.75 103.94 50.49 103.92 50.19
  Q 103.72 46.60 103.71 42.90
  Q 103.70 38.31 102.73 35.75
  Q 99.98 28.45 92.86 25.48
  Q 89.96 24.26 84.94 24.26
  Q 79.50 24.26 73.50 24.17
  C 72.99 24.16 72.58 24.61 72.59 25.16
  L 72.72 32.54
  C 72.73 32.94 73.03 33.26 73.41 33.25
  Q 79.10 33.21 84.56 33.28
  Q 87.67 33.32 89.24 33.93"
/>
<path stroke="#f5a6c4" vector-effect="non-scaling-stroke" d="
  M 77.57 90.80
  L 94.43 90.80
  C 94.74 90.80 95.03 90.99 95.14 91.28
  L 99.82 102.86
  C 100.11 103.59 100.86 104.07 101.68 104.05
  L 109.26 103.92
  C 109.72 103.91 110.03 103.47 109.87 103.06
  L 90.85 55.63
  C 90.70 55.25 90.34 55.00 89.94 55.00
  L 82.31 55.05
  C 81.87 55.05 81.47 55.33 81.31 55.75
  L 62.37 102.94
  C 62.17 103.45 62.54 104.00 63.09 104.00
  L 70.91 104.00
  C 71.53 104.00 72.08 103.62 72.31 103.04
  L 76.88 91.28
  C 76.99 90.99 77.26 90.80 77.57 90.80"
/>
<path stroke="#f5a6c4" vector-effect="non-scaling-stroke" d="
  M 36.54 92.78
  Q 33.36 90.32 33.30 85.50
  Q 33.25 81.75 33.25 77.77
  C 33.25 77.48 33.02 77.25 32.73 77.25
  L 24.80 77.25
  C 24.29 77.25 23.89 77.68 23.93 78.19
  Q 24.22 81.79 24.27 85.06
  Q 24.33 89.50 25.13 91.82
  Q 27.92 100.00 35.86 102.70
  Q 38.96 103.75 45.26 103.75
  Q 50.08 103.75 54.80 103.75
  C 55.10 103.75 55.35 103.50 55.34 103.20
  L 55.26 95.22
  C 55.26 94.94 55.03 94.71 54.75 94.72
  Q 48.84 94.90 43.50 94.66
  Q 38.70 94.44 36.54 92.78"
/>
<path stroke="#f5a6c4" vector-effect="non-scaling-stroke" d="
  M 37.2396 38.1726
  C 37.24 37.94 37.05 37.74 36.8089 37.7433
  L 29.1689 37.7567
  C 28.93 37.76 28.74 37.95 28.7396 38.1874
  L 28.7604 50.0674
  C 28.76 50.30 28.95 50.50 29.1911 50.4967
  L 36.8311 50.4833
  C 37.07 50.48 37.26 50.29 37.2604 50.0526
  L 37.2396 38.1726"
/>
<path stroke="#f5a6c4" vector-effect="non-scaling-stroke" d="
  M 55.0106 38.0674
  C 55.01 37.90 54.87 37.76 54.7011 37.7569
  L 46.8211 37.7431
  C 46.65 37.74 46.51 37.88 46.5106 38.0526
  L 46.4894 50.1926
  C 46.49 50.36 46.63 50.50 46.7989 50.5031
  L 54.6789 50.5169
  C 54.85 50.52 54.99 50.38 54.9894 50.2074
  L 55.0106 38.0674"
/>
<path stroke="#f5a6c4" vector-effect="non-scaling-stroke" d="
  M 85.89 68.95
  L 81.24 80.97
  C 81.15 81.20 81.32 81.45 81.57 81.45
  L 90.69 81.45
  C 90.93 81.45 91.10 81.20 91.01 80.97
  L 86.28 68.95
  Q 86.08 68.45 85.89 68.95"
/>
</g>
<path fill="#020101" fill-opacity="0.004" d="
  M 0.00 0.00
  Q 64.00 0.00 128.00 0.00
  Q 128.00 64.00 128.00 128.00
  Q 64.00 128.00 0.00 128.00
  Q 0.00 64.00 0.00 0.00
  Z
  M 127.6997 18.0892
  C 127.68 8.45 119.86 0.65 110.2193 0.6697
  L 18.1195 0.8305
  C 8.48 0.85 0.68 8.67 0.6999 18.3109
  L 0.8603 110.1708
  C 0.88 119.81 8.70 127.61 18.3407 127.5903
  L 110.4405 127.4295
  C 120.08 127.41 127.88 119.59 127.8601 109.9491
  L 127.6997 18.0892
  Z"
/>
<path fill="#ea4c89" d="
  M 127.8601 109.9491
  C 127.88 119.59 120.08 127.41 110.4405 127.4295
  L 18.3407 127.5903
  C 8.70 127.61 0.88 119.81 0.8603 110.1708
  L 0.6999 18.3109
  C 0.68 8.67 8.48 0.85 18.1195 0.8305
  L 110.2193 0.6697
  C 119.86 0.65 127.68 8.45 127.6997 18.0892
  L 127.8601 109.9491
  Z
  M 37.20 60.30
  L 37.25 72.26
  C 37.25 72.64 37.53 72.95 37.88 72.94
  L 45.81 72.86
  C 46.09 72.85 46.32 72.61 46.33 72.31
  L 46.67 60.18
  C 46.68 59.91 46.91 59.69 47.19 59.69
  L 63.45 59.75
  C 63.75 59.75 64.00 59.50 64.00 59.20
  L 64.00 29.31
  C 64.00 28.86 63.64 28.50 63.19 28.50
  L 47.00 28.50
  C 46.72 28.50 46.50 28.28 46.50 28.00
  L 46.45 20.31
  C 46.45 20.04 46.22 19.82 45.93 19.81
  L 38.05 19.59
  C 37.75 19.58 37.50 19.79 37.49 20.06
  L 37.31 27.71
  C 37.30 28.15 36.97 28.50 36.56 28.50
  L 20.31 28.56
  C 20.03 28.56 19.81 28.79 19.81 29.07
  L 19.75 58.90
  C 19.75 59.37 20.14 59.75 20.61 59.75
  L 36.69 59.80
  C 36.97 59.81 37.19 60.03 37.20 60.30
  Z
  M 89.24 33.93
  Q 91.68 34.88 93.10 36.95
  Q 94.46 38.93 94.66 43.36
  Q 94.81 46.84 94.92 50.32
  C 94.93 50.59 95.16 50.80 95.43 50.80
  L 103.39 50.76
  C 103.70 50.75 103.94 50.49 103.92 50.19
  Q 103.72 46.60 103.71 42.90
  Q 103.70 38.31 102.73 35.75
  Q 99.98 28.45 92.86 25.48
  Q 89.96 24.26 84.94 24.26
  Q 79.50 24.26 73.50 24.17
  C 72.99 24.16 72.58 24.61 72.59 25.16
  L 72.72 32.54
  C 72.73 32.94 73.03 33.26 73.41 33.25
  Q 79.10 33.21 84.56 33.28
  Q 87.67 33.32 89.24 33.93
  Z
  M 77.57 90.80
  L 94.43 90.80
  C 94.74 90.80 95.03 90.99 95.14 91.28
  L 99.82 102.86
  C 100.11 103.59 100.86 104.07 101.68 104.05
  L 109.26 103.92
  C 109.72 103.91 110.03 103.47 109.87 103.06
  L 90.85 55.63
  C 90.70 55.25 90.34 55.00 89.94 55.00
  L 82.31 55.05
  C 81.87 55.05 81.47 55.33 81.31 55.75
  L 62.37 102.94
  C 62.17 103.45 62.54 104.00 63.09 104.00
  L 70.91 104.00
  C 71.53 104.00 72.08 103.62 72.31 103.04
  L 76.88 91.28
  C 76.99 90.99 77.26 90.80 77.57 90.80
  Z
  M 36.54 92.78
  Q 33.36 90.32 33.30 85.50
  Q 33.25 81.75 33.25 77.77
  C 33.25 77.48 33.02 77.25 32.73 77.25
  L 24.80 77.25
  C 24.29 77.25 23.89 77.68 23.93 78.19
  Q 24.22 81.79 24.27 85.06
  Q 24.33 89.50 25.13 91.82
  Q 27.92 100.00 35.86 102.70
  Q 38.96 103.75 45.26 103.75
  Q 50.08 103.75 54.80 103.75
  C 55.10 103.75 55.35 103.50 55.34 103.20
  L 55.26 95.22
  C 55.26 94.94 55.03 94.71 54.75 94.72
  Q 48.84 94.90 43.50 94.66
  Q 38.70 94.44 36.54 92.78
  Z"
/>
<path fill="#ffffff" d="
  M 36.69 59.80
  L 20.61 59.75
  C 20.14 59.75 19.75 59.37 19.75 58.90
  L 19.81 29.07
  C 19.81 28.79 20.03 28.56 20.31 28.56
  L 36.56 28.50
  C 36.97 28.50 37.30 28.15 37.31 27.71
  L 37.49 20.06
  C 37.50 19.79 37.75 19.58 38.05 19.59
  L 45.93 19.81
  C 46.22 19.82 46.45 20.04 46.45 20.31
  L 46.50 28.00
  C 46.50 28.28 46.72 28.50 47.00 28.50
  L 63.19 28.50
  C 63.64 28.50 64.00 28.86 64.00 29.31
  L 64.00 59.20
  C 64.00 59.50 63.75 59.75 63.45 59.75
  L 47.19 59.69
  C 46.91 59.69 46.68 59.91 46.67 60.18
  L 46.33 72.31
  C 46.32 72.61 46.09 72.85 45.81 72.86
  L 37.88 72.94
  C 37.53 72.95 37.25 72.64 37.25 72.26
  L 37.20 60.30
  C 37.19 60.03 36.97 59.81 36.69 59.80
  Z
  M 37.2396 38.1726
  C 37.24 37.94 37.05 37.74 36.8089 37.7433
  L 29.1689 37.7567
  C 28.93 37.76 28.74 37.95 28.7396 38.1874
  L 28.7604 50.0674
  C 28.76 50.30 28.95 50.50 29.1911 50.4967
  L 36.8311 50.4833
  C 37.07 50.48 37.26 50.29 37.2604 50.0526
  L 37.2396 38.1726
  Z
  M 55.0106 38.0674
  C 55.01 37.90 54.87 37.76 54.7011 37.7569
  L 46.8211 37.7431
  C 46.65 37.74 46.51 37.88 46.5106 38.0526
  L 46.4894 50.1926
  C 46.49 50.36 46.63 50.50 46.7989 50.5031
  L 54.6789 50.5169
  C 54.85 50.52 54.99 50.38 54.9894 50.2074
  L 55.0106 38.0674
  Z"
/>
<path fill="#ffffff" d="
  M 84.56 33.28
  Q 79.10 33.21 73.41 33.25
  C 73.03 33.26 72.73 32.94 72.72 32.54
  L 72.59 25.16
  C 72.58 24.61 72.99 24.16 73.50 24.17
  Q 79.50 24.26 84.94 24.26
  Q 89.96 24.26 92.86 25.48
  Q 99.98 28.45 102.73 35.75
  Q 103.70 38.31 103.71 42.90
  Q 103.72 46.60 103.92 50.19
  C 103.94 50.49 103.70 50.75 103.39 50.76
  L 95.43 50.80
  C 95.16 50.80 94.93 50.59 94.92 50.32
  Q 94.81 46.84 94.66 43.36
  Q 94.46 38.93 93.10 36.95
  Q 91.68 34.88 89.24 33.93
  Q 87.67 33.32 84.56 33.28
  Z"
/>
<rect fill="#ea4c89" x="-4.25" y="-6.37" transform="translate(33.00,44.12) rotate(-0.1)" width="8.50" height="12.74" rx="0.43"/>
<rect fill="#ea4c89" x="-4.25" y="-6.38" transform="translate(50.75,44.13) rotate(0.1)" width="8.50" height="12.76" rx="0.31"/>
<path fill="#ffffff" d="
  M 76.88 91.28
  L 72.31 103.04
  C 72.08 103.62 71.53 104.00 70.91 104.00
  L 63.09 104.00
  C 62.54 104.00 62.17 103.45 62.37 102.94
  L 81.31 55.75
  C 81.47 55.33 81.87 55.05 82.31 55.05
  L 89.94 55.00
  C 90.34 55.00 90.70 55.25 90.85 55.63
  L 109.87 103.06
  C 110.03 103.47 109.72 103.91 109.26 103.92
  L 101.68 104.05
  C 100.86 104.07 100.11 103.59 99.82 102.86
  L 95.14 91.28
  C 95.03 90.99 94.74 90.80 94.43 90.80
  L 77.57 90.80
  C 77.26 90.80 76.99 90.99 76.88 91.28
  Z
  M 85.89 68.95
  L 81.24 80.97
  C 81.15 81.20 81.32 81.45 81.57 81.45
  L 90.69 81.45
  C 90.93 81.45 91.10 81.20 91.01 80.97
  L 86.28 68.95
  Q 86.08 68.45 85.89 68.95
  Z"
/>
<path fill="#ea4c89" d="
  M 85.89 68.95
  Q 86.08 68.45 86.28 68.95
  L 91.01 80.97
  C 91.10 81.20 90.93 81.45 90.69 81.45
  L 81.57 81.45
  C 81.32 81.45 81.15 81.20 81.24 80.97
  L 85.89 68.95
  Z"
/>
<path fill="#ffffff" d="
  M 43.50 94.66
  Q 48.84 94.90 54.75 94.72
  C 55.03 94.71 55.26 94.94 55.26 95.22
  L 55.34 103.20
  C 55.35 103.50 55.10 103.75 54.80 103.75
  Q 50.08 103.75 45.26 103.75
  Q 38.96 103.75 35.86 102.70
  Q 27.92 100.00 25.13 91.82
  Q 24.33 89.50 24.27 85.06
  Q 24.22 81.79 23.93 78.19
  C 23.89 77.68 24.29 77.25 24.80 77.25
  L 32.73 77.25
  C 33.02 77.25 33.25 77.48 33.25 77.77
  Q 33.25 81.75 33.30 85.50
  Q 33.36 90.32 36.54 92.78
  Q 38.70 94.44 43.50 94.66
  Z"
/>
</svg>
