<?xml version="1.0" encoding="UTF-8" standalone="no"?>
<!DOCTYPE svg PUBLIC "-//W3C//DTD SVG 1.1//EN" "http://www.w3.org/Graphics/SVG/1.1/DTD/svg11.dtd">
<svg xmlns="http://www.w3.org/2000/svg" version="1.1" viewBox="0 0 128 128">
<g stroke-width="2.0" fill="none" stroke-linecap="butt">
<path stroke="#a3befe" vector-effect="non-scaling-stroke" d="
  M 29.81 0.00
  Q 18.59 0.86 10.40 8.40
  Q 0.89 17.16 0.00 30.19"
/>
<path stroke="#a3befe" vector-effect="non-scaling-stroke" d="
  M 98.06 0.00
  Q 105.70 0.67 110.94 3.56
  Q 126.68 12.25 128.00 31.06"
/>
<path stroke="#a3befe" vector-effect="non-scaling-stroke" d="
  M 128.00 97.06
  Q 127.49 104.73 124.69 110.19
  Q 116.21 126.66 96.94 128.00"
/>
<path stroke="#a3befe" vector-effect="non-scaling-stroke" d="
  M 30.94 128.00
  Q 16.32 127.08 7.31 116.44
  Q 0.54 108.43 0.00 97.19"
/>
<path stroke="#a3befe" vector-effect="non-scaling-stroke" d="
  M 72.50 37.01
  C 72.50 32.44 68.80 28.74 64.23 28.74
  L 63.79 28.74
  C 59.22 28.74 55.52 32.44 55.52 37.01
  L 55.52 90.95
  C 55.52 95.52 59.22 99.22 63.79 99.22
  L 64.23 99.22
  C 68.80 99.22 72.50 95.52 72.50 90.95
  L 72.50 37.01"
/>
<path stroke="#a3befe" vector-effect="non-scaling-stroke" d="
  M 97.4697 56.8650
  C 97.48 52.30 93.78 48.59 89.2142 48.5806
  L 88.6142 48.5795
  C 84.05 48.57 80.34 52.27 80.3297 56.8351
  L 80.2703 90.8950
  C 80.26 95.46 83.96 99.17 88.5258 99.1794
  L 89.1258 99.1805
  C 93.69 99.19 97.40 95.49 97.4103 90.9249
  L 97.4697 56.8650"
/>
<path stroke="#a3befe" vector-effect="non-scaling-stroke" d="
  M 47.61 72.47
  C 47.61 68.01 43.99 64.39 39.53 64.39
  L 38.67 64.39
  C 34.21 64.39 30.59 68.01 30.59 72.47
  L 30.59 90.31
  C 30.59 94.77 34.21 98.39 38.67 98.39
  L 39.53 98.39
  C 43.99 98.39 47.61 94.77 47.61 90.31
  L 47.61 72.47"
/>
</g>
<path fill="#ffffff" d="
  M 0.00 0.00
  Q 14.91 0.00 29.81 0.00
  Q 18.59 0.86 10.40 8.40
  Q 0.89 17.16 0.00 30.19
  Q 0.00 15.09 0.00 0.00
  Z"
/>
<path fill="#477cfc" d="
  M 29.81 0.00
  Q 63.94 0.00 98.06 0.00
  Q 105.70 0.67 110.94 3.56
  Q 126.68 12.25 128.00 31.06
  Q 128.00 64.06 128.00 97.06
  Q 127.49 104.73 124.69 110.19
  Q 116.21 126.66 96.94 128.00
  Q 63.94 128.00 30.94 128.00
  Q 16.32 127.08 7.31 116.44
  Q 0.54 108.43 0.00 97.19
  Q 0.00 63.69 0.00 30.19
  Q 0.89 17.16 10.40 8.40
  Q 18.59 0.86 29.81 0.00
  Z
  M 72.50 37.01
  C 72.50 32.44 68.80 28.74 64.23 28.74
  L 63.79 28.74
  C 59.22 28.74 55.52 32.44 55.52 37.01
  L 55.52 90.95
  C 55.52 95.52 59.22 99.22 63.79 99.22
  L 64.23 99.22
  C 68.80 99.22 72.50 95.52 72.50 90.95
  L 72.50 37.01
  Z
  M 97.4697 56.8650
  C 97.48 52.30 93.78 48.59 89.2142 48.5806
  L 88.6142 48.5795
  C 84.05 48.57 80.34 52.27 80.3297 56.8351
  L 80.2703 90.8950
  C 80.26 95.46 83.96 99.17 88.5258 99.1794
  L 89.1258 99.1805
  C 93.69 99.19 97.40 95.49 97.4103 90.9249
  L 97.4697 56.8650
  Z
  M 47.61 72.47
  C 47.61 68.01 43.99 64.39 39.53 64.39
  L 38.67 64.39
  C 34.21 64.39 30.59 68.01 30.59 72.47
  L 30.59 90.31
  C 30.59 94.77 34.21 98.39 38.67 98.39
  L 39.53 98.39
  C 43.99 98.39 47.61 94.77 47.61 90.31
  L 47.61 72.47
  Z"
/>
<path fill="#ffffff" d="
  M 98.06 0.00
  Q 113.03 0.00 128.00 0.00
  Q 128.00 15.53 128.00 31.06
  Q 126.68 12.25 110.94 3.56
  Q 105.70 0.67 98.06 0.00
  Z"
/>
<rect fill="#ffffff" x="55.52" y="28.74" width="16.98" height="70.48" rx="8.27"/>
<rect fill="#ffffff" x="-8.57" y="-25.30" transform="translate(88.87,73.88) rotate(0.1)" width="17.14" height="50.60" rx="8.27"/>
<rect fill="#ffffff" x="30.59" y="64.39" width="17.02" height="34.00" rx="8.08"/>
<path fill="#ffffff" d="
  M 128.00 97.06
  Q 128.00 112.53 128.00 128.00
  Q 112.47 128.00 96.94 128.00
  Q 116.21 126.66 124.69 110.19
  Q 127.49 104.73 128.00 97.06
  Z"
/>
<path fill="#ffffff" d="
  M 0.00 97.19
  Q 0.54 108.43 7.31 116.44
  Q 16.32 127.08 30.94 128.00
  Q 15.47 128.00 0.00 128.00
  Q 0.00 112.59 0.00 97.19
  Z"
/>
</svg>
