<?xml version="1.0" encoding="UTF-8" standalone="no"?>
<!DOCTYPE svg PUBLIC "-//W3C//DTD SVG 1.1//EN" "http://www.w3.org/Graphics/SVG/1.1/DTD/svg11.dtd">
<svg xmlns="http://www.w3.org/2000/svg" version="1.1" viewBox="0 0 128 128">
<path fill="#30acbf" d="
  M 34.24 19.43
  L 16.39 50.22
  Q 15.49 51.77 13.74 51.74
  Q 10.60 51.69 10.91 48.94
  Q 11.04 47.78 12.15 45.85
  Q 21.92 28.79 31.94 11.60
  Q 32.87 10.00 34.72 10.00
  L 93.64 10.00
  C 94.46 10.00 95.21 10.43 95.63 11.14
  Q 110.22 35.97 124.69 61.31
  Q 125.96 63.54 125.43 65.35
  Q 125.41 65.42 123.56 68.65
  Q 110.89 90.78 98.24 112.92
  Q 96.84 115.37 95.37 117.19
  C 94.95 117.70 94.32 118.00 93.66 118.00
  L 34.56 117.94
  Q 32.78 117.94 31.89 116.39
  Q 17.34 91.21 3.94 67.96
  Q 2.22 64.97 2.20 64.92
  Q 1.65 63.31 2.91 62.07
  Q 3.73 61.26 5.36 61.18
  Q 12.28 60.83 20.27 61.03
  C 20.91 61.05 21.51 60.71 21.83 60.16
  L 39.85 28.90
  C 40.01 28.62 40.01 28.28 39.85 28.01
  L 34.77 19.43
  C 34.65 19.23 34.36 19.23 34.24 19.43
  Z
  M 45.93 25.56
  L 82.24 25.50
  C 82.59 25.50 82.91 25.32 83.08 25.03
  L 87.95 16.51
  C 88.07 16.31 87.92 16.06 87.69 16.06
  L 40.30 16.06
  Q 39.76 16.06 40.02 16.51
  L 45.14 25.16
  C 45.29 25.41 45.59 25.56 45.93 25.56
  Z
  M 93.70 19.42
  C 93.56 19.18 93.22 19.18 93.08 19.42
  L 79.34 43.28
  C 79.08 43.75 79.08 44.31 79.33 44.76
  L 88.31 60.50
  C 88.46 60.78 88.75 60.95 89.06 60.95
  L 99.39 61.00
  Q 99.95 61.00 99.66 60.52
  Q 95.73 53.87 91.88 47.12
  Q 90.25 44.27 90.25 44.26
  Q 89.37 42.04 91.65 40.82
  Q 94.15 39.49 95.56 41.93
  L 106.32 60.51
  C 106.47 60.78 106.76 60.95 107.07 60.95
  L 117.13 60.99
  Q 117.78 61.00 117.45 60.43
  L 93.70 19.42
  Z
  M 54.93 41.06
  L 73.44 40.94
  C 73.77 40.94 74.06 40.78 74.21 40.51
  L 78.96 32.01
  C 79.08 31.81 78.93 31.56 78.69 31.56
  L 49.24 31.50
  Q 48.60 31.50 48.92 32.03
  L 54.14 40.67
  C 54.29 40.91 54.59 41.06 54.93 41.06
  Z
  M 30.64 56.36
  Q 29.42 58.33 28.50 60.48
  C 28.41 60.71 28.57 60.96 28.81 60.96
  L 38.82 60.85
  C 39.12 60.84 39.40 60.67 39.57 60.38
  L 48.75 44.68
  C 48.91 44.40 48.92 44.07 48.78 43.81
  L 43.83 34.99
  C 43.71 34.79 43.42 34.78 43.30 34.98
  Q 37.91 43.54 33.04 52.41
  Q 32.66 53.10 30.64 56.36
  Z
  M 64.32 57.71
  L 70.02 47.69
  C 70.14 47.48 69.99 47.21 69.74 47.21
  L 58.28 47.02
  Q 57.47 47.01 57.89 47.73
  L 63.71 57.70
  Q 64.02 58.23 64.32 57.71
  Z
  M 51.95 50.67
  L 46.44 60.10
  Q 45.88 61.07 46.99 61.06
  L 58.08 60.94
  C 58.47 60.94 58.70 60.51 58.50 60.16
  L 53.07 50.69
  C 52.82 50.26 52.20 50.25 51.95 50.67
  Z
  M 75.19 50.47
  L 69.41 60.40
  Q 69.06 61.00 69.73 60.99
  L 81.14 60.94
  C 81.45 60.94 81.64 60.61 81.48 60.34
  L 75.79 50.46
  C 75.65 50.23 75.33 50.24 75.19 50.47
  Z
  M 99.34 66.94
  L 88.99 67.21
  C 88.69 67.22 88.40 67.40 88.24 67.69
  L 79.23 83.56
  C 79.07 83.84 79.07 84.18 79.23 84.45
  L 83.94 92.72
  Q 84.50 93.70 85.08 92.70
  L 99.63 67.45
  Q 99.93 66.93 99.34 66.94
  Z
  M 106.21 67.65
  L 88.31 98.59
  C 88.02 99.09 88.01 99.71 88.29 100.21
  L 93.04 108.64
  Q 93.45 109.38 93.88 108.64
  L 117.52 67.62
  Q 117.98 66.83 117.04 66.84
  L 107.42 66.98
  C 106.91 66.99 106.45 67.24 106.21 67.65
  Z
  M 44.76 102.44
  Q 41.98 102.45 40.56 100.01
  L 21.69 67.57
  C 21.49 67.22 21.12 67.00 20.73 67.00
  L 10.82 67.05
  C 10.59 67.05 10.44 67.30 10.56 67.50
  L 35.81 111.51
  C 35.96 111.78 36.25 111.94 36.57 111.94
  L 87.56 112.00
  Q 88.11 112.00 87.85 111.54
  L 82.73 102.72
  C 82.59 102.47 82.29 102.32 81.94 102.32
  L 44.76 102.44
  Z
  M 43.80 93.50
  L 48.77 84.83
  C 49.01 84.42 49.01 83.90 48.76 83.48
  L 39.50 67.43
  C 39.35 67.16 39.06 67.00 38.75 67.00
  L 28.47 67.00
  Q 27.96 67.00 28.22 67.44
  L 43.28 93.49
  Q 43.54 93.95 43.80 93.50
  Z
  M 53.01 77.66
  L 58.64 67.68
  C 58.81 67.38 58.60 67.00 58.26 67.00
  L 46.55 67.05
  C 46.33 67.05 46.19 67.30 46.30 67.49
  L 52.15 77.68
  Q 52.58 78.43 53.01 77.66
  Z
  M 75.77 77.54
  L 81.46 67.50
  C 81.57 67.30 81.42 67.05 81.19 67.05
  L 69.83 67.00
  Q 69.03 66.99 69.43 67.68
  L 75.23 77.54
  C 75.36 77.75 75.65 77.75 75.77 77.54
  Z
  M 63.40 71.06
  L 49.16 96.03
  Q 48.91 96.49 49.42 96.49
  L 78.74 96.27
  C 78.97 96.27 79.11 96.01 78.99 95.81
  L 64.74 71.07
  Q 64.07 69.89 63.40 71.06
  Z"
/>
</svg>
