<?xml version="1.0" encoding="UTF-8" standalone="no"?>
<!DOCTYPE svg PUBLIC "-//W3C//DTD SVG 1.1//EN" "http://www.w3.org/Graphics/SVG/1.1/DTD/svg11.dtd">
<svg xmlns="http://www.w3.org/2000/svg" version="1.1" viewBox="0 0 128 128">
<g stroke-width="2.0" fill="none" stroke-linecap="butt">
<path stroke="#dfeefe" vector-effect="non-scaling-stroke" d="
  M 108.52 64.01
  C 108.52 39.42 88.59 19.49 64.00 19.49
  C 39.41 19.49 19.48 39.42 19.48 64.01
  C 19.48 88.60 39.41 108.53 64.00 108.53
  C 88.59 108.53 108.52 88.60 108.52 64.01"
/>
<path stroke="#76b3f8" vector-effect="non-scaling-stroke" d="
  M 89.13 64.00
  C 89.13 50.12 77.88 38.87 64.00 38.87
  C 50.12 38.87 38.87 50.12 38.87 64.00
  C 38.87 77.88 50.12 89.13 64.00 89.13
  C 77.88 89.13 89.13 77.88 89.13 64.00"
/>
</g>
<path fill="#ffffff" d="
  M 0.00 0.00
  Q 64.00 0.00 128.00 0.00
  Q 128.00 64.00 128.00 128.00
  Q 64.00 128.00 0.00 128.00
  Q 0.00 64.00 0.00 0.00
  Z
  M 108.52 64.01
  C 108.52 39.42 88.59 19.49 64.00 19.49
  C 39.41 19.49 19.48 39.42 19.48 64.01
  C 19.48 88.60 39.41 108.53 64.00 108.53
  C 88.59 108.53 108.52 88.60 108.52 64.01
  Z"
/>
<path fill="#bfdcfc" d="
  M 108.52 64.01
  C 108.52 88.60 88.59 108.53 64.00 108.53
  C 39.41 108.53 19.48 88.60 19.48 64.01
  C 19.48 39.42 39.41 19.49 64.00 19.49
  C 88.59 19.49 108.52 39.42 108.52 64.01
  Z
  M 89.13 64.00
  C 89.13 50.12 77.88 38.87 64.00 38.87
  C 50.12 38.87 38.87 50.12 38.87 64.00
  C 38.87 77.88 50.12 89.13 64.00 89.13
  C 77.88 89.13 89.13 77.88 89.13 64.00
  Z"
/>
<circle fill="#2d8af4" cx="64.00" cy="64.00" r="25.13"/>
</svg>
