<?xml version="1.0" encoding="UTF-8" standalone="no"?>
<!DOCTYPE svg PUBLIC "-//W3C//DTD SVG 1.1//EN" "http://www.w3.org/Graphics/SVG/1.1/DTD/svg11.dtd">
<svg xmlns="http://www.w3.org/2000/svg" version="1.1" viewBox="0 0 128 128">
<path fill="#df2114" d="
  M 68.68 57.95
  Q 65.96 60.32 63.35 62.80
  Q 63.27 62.88 62.15 64.17
  Q 60.66 65.90 58.86 64.46
  Q 57.51 63.36 57.40 63.30
  Q 48.24 57.26 39.00 50.71
  C 38.74 50.53 38.39 50.57 38.17 50.80
  L 31.36 58.04
  C 31.10 58.32 31.11 58.75 31.38 59.01
  L 63.37 90.75
  C 63.73 91.11 64.33 91.03 64.59 90.60
  Q 81.37 62.74 105.73 41.23
  C 106.02 40.97 106.48 41.07 106.64 41.42
  Q 117.19 64.25 107.52 84.58
  Q 103.09 93.88 95.56 100.42
  Q 88.15 106.84 78.75 109.89
  Q 69.92 112.75 60.00 111.91
  Q 39.28 110.14 26.61 94.25
  Q 20.15 86.15 17.44 76.64
  Q 13.31 62.20 18.56 47.81
  Q 25.55 28.66 43.37 20.40
  Q 52.50 16.16 62.68 15.87
  Q 84.32 15.26 99.99 31.86
  C 100.33 32.22 100.27 32.80 99.87 33.09
  Q 83.58 44.96 68.68 57.95
  Z"
/>
</svg>
