<?xml version="1.0" encoding="UTF-8" standalone="no"?>
<!DOCTYPE svg PUBLIC "-//W3C//DTD SVG 1.1//EN" "http://www.w3.org/Graphics/SVG/1.1/DTD/svg11.dtd">
<svg xmlns="http://www.w3.org/2000/svg" version="1.1" viewBox="0 0 256 256">
<g stroke-width="2.0" fill="none" stroke-linecap="butt">
<path stroke="#73d6f5" vector-effect="non-scaling-stroke" d="
  M 192.50 42.21
  Q 192.14 43.03 191.50 42.75
  Q 183.95 39.48 177.25 38.29"
/>
<path stroke="#87d2e9" vector-effect="non-scaling-stroke" d="
  M 177.25 38.29
  Q 172.60 36.95 167.75 37.00
  Q 165.07 37.04 162.50 36.29"
/>
<path stroke="#73d6f5" vector-effect="non-scaling-stroke" d="
  M 199.29 45.50
  Q 199.27 46.41 199.94 46.69
  Q 200.80 47.06 200.86 47.10
  Q 203.01 48.58 205.06 50.19
  Q 205.95 50.89 207.00 50.46"
/>
<path stroke="#59d7f8" stroke-opacity="0.996" vector-effect="non-scaling-stroke" d="
  M 236.04 106.75
  L 235.68 113.94
  Q 235.65 114.60 235.56 113.95
  L 235.44 113.07
  Q 235.39 112.71 235.32 113.04
  Q 234.06 118.62 239.12 121.62
  Q 241.03 122.76 242.02 124.14
  L 249.17 134.14
  C 249.32 134.35 249.42 134.67 249.46 135.06
  Q 249.65 137.05 251.46 137.25"
/>
<path stroke="#7ccce9" stroke-opacity="0.996" vector-effect="non-scaling-stroke" d="
  M 254.71 172.50
  Q 254.32 172.74 254.16 172.44
  Q 254.03 172.20 253.97 172.44
  Q 250.55 186.97 239.55 196.98
  C 239.41 197.11 239.37 197.35 239.44 197.61
  L 239.54 198.00"
/>
<path stroke="#72bfd8" vector-effect="non-scaling-stroke" d="
  M 127.75 210.96
  Q 127.68 210.62 127.81 210.39
  C 128.02 210.01 128.14 209.69 128.13 209.57
  Q 127.69 205.06 128.25 200.56
  C 128.28 200.27 128.52 200.05 128.82 200.03
  Q 133.67 199.75 142.00 199.75
  Q 173.25 199.75 204.50 199.63
  Q 210.77 199.61 216.74 197.73
  Q 217.48 197.50 217.00 197.21"
/>
<path stroke="#91def7" vector-effect="non-scaling-stroke" d="
  M 217.00 197.21
  Q 237.57 189.92 243.34 170.81
  Q 246.32 160.95 244.26 151.07
  Q 240.69 133.84 224.13 123.35
  C 223.55 122.98 223.27 122.29 223.42 121.62
  Q 227.01 105.41 221.99 90.00
  Q 215.07 68.78 196.25 56.96"
/>
<path stroke="#94e0f9" vector-effect="non-scaling-stroke" d="
  M 196.25 56.96
  Q 185.16 49.75 172.00 47.96"
/>
<path stroke="#49c8f2" vector-effect="non-scaling-stroke" d="
  M 177.25 38.29
  Q 177.44 39.10 176.77 38.92
  Q 174.43 38.28 171.34 38.24
  Q 170.82 38.23 171.20 38.59
  Q 173.29 40.60 172.44 42.69
  Q 171.86 44.11 172.08 45.04
  C 172.14 45.32 172.03 45.60 171.79 45.72
  Q 169.81 46.78 172.00 47.96"
/>
<path stroke="#a9dced" vector-effect="non-scaling-stroke" d="
  M 172.00 47.96
  Q 157.04 46.14 142.96 51.25"
/>
<path stroke="#acdff0" vector-effect="non-scaling-stroke" d="
  M 142.96 51.25
  Q 131.53 55.40 122.50 63.54"
/>
<path stroke="#68c1df" vector-effect="non-scaling-stroke" d="
  M 122.50 63.54
  L 121.57 63.74
  Q 120.97 63.86 121.39 63.31
  Q 122.01 62.48 122.01 61.44
  Q 122.02 56.23 122.63 51.05
  C 122.66 50.74 122.49 50.45 122.22 50.36
  L 121.75 50.21"
/>
<path stroke="#f1f2f1" vector-effect="non-scaling-stroke" d="
  M 196.25 56.96
  Q 195.48 57.68 194.75 56.95
  C 194.57 56.77 194.29 56.76 194.10 56.92
  Q 193.49 57.44 193.05 56.76
  C 192.95 56.61 192.82 56.52 192.71 56.51
  Q 192.48 56.50 192.52 56.76
  Q 192.54 56.91 192.69 57.07
  Q 194.10 58.49 195.01 60.27
  Q 196.36 62.88 192.42 62.01
  Q 190.78 61.65 191.55 63.14
  Q 192.54 65.09 190.64 64.97
  Q 189.96 64.92 190.38 65.46
  Q 193.19 69.04 190.46 67.00"
/>
<path stroke="#a5c5dd" vector-effect="non-scaling-stroke" d="
  M 190.46 67.00
  Q 183.97 61.81 175.00 63.75
  Q 169.90 64.85 166.73 67.02
  C 166.46 67.20 166.30 67.50 166.30 67.81
  L 166.25 74.26
  Q 166.24 75.23 167.01 74.63
  Q 171.31 71.25 176.62 70.95
  Q 180.15 70.74 182.07 72.23
  Q 184.65 74.23 183.80 78.46
  Q 182.97 82.57 179.50 85.25
  Q 177.06 87.14 170.93 92.45
  Q 163.78 98.65 164.25 108.35
  C 164.27 108.72 164.57 109.00 164.94 109.00
  L 183.25 109.04"
/>
<path stroke="#f1f2f1" vector-effect="non-scaling-stroke" d="
  M 183.25 109.04
  Q 180.68 109.61 183.74 110.03
  C 184.19 110.09 184.50 110.53 184.40 110.97
  Q 184.14 112.14 185.75 112.74
  Q 188.22 113.65 186.42 114.97
  C 186.19 115.14 185.86 115.21 185.50 115.17
  Q 182.87 114.86 183.25 117.75
  Q 183.61 120.45 182.30 123.11
  C 182.16 123.38 181.88 123.55 181.56 123.56
  Q 179.21 123.60 180.15 125.28
  Q 180.80 126.45 180.84 127.01
  Q 180.95 128.77 179.64 129.94
  C 179.38 130.17 179.27 130.49 179.34 130.75
  Q 179.59 131.65 180.43 131.11
  Q 181.01 130.74 181.27 130.71
  Q 182.08 130.61 182.10 131.44
  C 182.11 131.75 182.27 132.01 182.52 132.13
  Q 184.25 132.92 182.25 133.71"
/>
<path stroke="#a9dced" vector-effect="non-scaling-stroke" d="
  M 182.25 133.71
  Q 174.60 133.25 167.13 136.05
  C 166.74 136.20 166.47 136.61 166.46 137.08
  L 166.30 143.17
  Q 166.26 144.47 167.30 143.82
  Q 172.31 140.70 178.11 140.71
  Q 180.74 140.71 182.07 141.65
  Q 183.85 142.88 184.30 145.52
  C 184.40 146.10 183.99 146.64 183.40 146.71
  Q 178.19 147.27 173.44 148.17
  Q 163.32 150.09 163.09 158.87
  Q 162.95 163.87 165.92 166.90
  Q 169.25 170.30 175.00 169.79"
/>
<path stroke="#f1f2f1" vector-effect="non-scaling-stroke" d="
  M 175.00 169.79
  Q 173.27 169.68 172.05 170.70
  Q 170.99 171.59 172.36 171.40
  Q 176.89 170.78 174.78 173.29
  Q 173.54 174.78 173.42 174.89
  Q 172.42 175.82 170.96 175.22
  C 170.60 175.07 170.26 175.05 170.02 175.15
  Q 168.73 175.72 169.50 177.50
  Q 170.13 178.95 168.80 179.43
  C 168.48 179.55 168.23 179.75 168.10 180.01
  Q 166.05 184.11 161.87 184.51
  C 160.94 184.60 160.34 185.53 160.64 186.42
  Q 161.75 189.70 159.07 189.82
  C 158.71 189.83 158.41 189.98 158.26 190.21
  Q 157.76 191.01 157.85 191.94
  C 157.88 192.24 157.71 192.51 157.46 192.56
  Q 155.81 192.90 156.07 191.40
  Q 156.18 190.80 156.09 190.46
  Q 155.73 189.16 154.84 190.39
  C 154.68 190.61 154.68 190.94 154.84 191.23
  Q 155.54 192.50 154.19 193.19
  Q 152.16 194.22 152.75 195.98
  C 152.85 196.28 152.75 196.58 152.52 196.71
  Q 151.48 197.30 150.28 196.88
  C 150.02 196.79 149.81 196.54 149.70 196.20
  Q 149.24 194.77 147.88 195.64
  Q 146.78 196.34 146.69 196.38
  Q 142.98 198.39 148.61 198.01
  Q 148.75 198.00 148.87 198.01
  Q 152.73 198.20 148.50 198.28
  Q 145.36 198.34 142.25 198.71"
/>
<path stroke="#d2d3d2" vector-effect="non-scaling-stroke" d="
  M 142.25 198.71
  Q 102.25 198.77 62.25 198.76
  Q 47.51 198.75 42.34 197.58
  Q 29.52 194.69 20.56 184.69
  Q 13.50 176.80 12.00 165.04"
/>
<path stroke="#f7f7f6" vector-effect="non-scaling-stroke" d="
  M 12.00 165.04
  Q 14.01 165.83 13.27 167.74
  C 13.16 168.02 13.25 168.33 13.48 168.47
  Q 15.58 169.76 17.31 168.56
  C 17.84 168.19 18.58 168.48 18.72 169.11
  Q 19.12 170.94 20.60 170.49
  Q 21.46 170.24 21.55 170.22
  Q 25.18 169.62 28.33 171.49
  C 28.58 171.64 28.90 171.70 29.24 171.65
  Q 31.32 171.39 32.24 174.24
  C 32.48 174.98 33.27 175.39 34.01 175.15
  Q 36.31 174.42 35.15 173.44
  Q 34.91 173.23 34.40 173.10
  Q 33.05 172.77 34.25 172.05
  C 34.51 171.89 34.84 171.95 35.03 172.17
  L 38.96 176.85
  C 39.10 177.02 39.37 176.99 39.48 176.80
  Q 39.99 175.93 40.81 175.46
  C 41.04 175.33 41.37 175.35 41.68 175.51
  Q 43.01 176.22 44.32 175.52
  C 44.55 175.39 44.84 175.48 44.96 175.71
  Q 45.84 177.33 47.20 176.16
  C 47.44 175.96 47.75 175.90 48.03 175.99
  L 48.97 176.30
  C 49.23 176.38 49.56 176.35 49.89 176.20
  Q 51.60 175.45 52.70 177.02
  Q 53.65 178.36 54.69 176.94
  Q 55.69 175.55 59.56 176.94
  Q 63.09 178.20 69.14 175.35
  C 69.44 175.21 69.78 175.21 70.09 175.34
  Q 75.30 177.65 79.09 174.04
  C 79.37 173.77 79.68 173.62 79.93 173.62
  L 84.50 173.67
  Q 85.10 173.68 85.43 173.50
  Q 86.75 172.77 88.24 172.53
  Q 88.52 172.49 89.86 172.69
  Q 90.88 172.85 91.54 171.99
  C 91.73 171.74 92.02 171.60 92.31 171.62
  Q 94.27 171.75 93.52 170.02
  Q 92.75 168.23 94.19 168.07
  C 94.46 168.04 94.76 168.18 94.99 168.45
  Q 96.06 169.66 97.00 168.68
  Q 97.35 168.32 97.68 167.17
  Q 98.54 164.12 101.96 165.00"
/>
<path stroke="#a9dced" vector-effect="non-scaling-stroke" d="
  M 101.96 165.00
  L 103.15 168.50
  C 103.25 168.80 103.51 169.00 103.81 169.00
  L 114.11 169.00
  C 114.39 169.00 114.58 168.72 114.49 168.46
  L 109.54 154.75"
/>
<path stroke="#f7f7f6" vector-effect="non-scaling-stroke" d="
  M 109.54 154.75
  Q 110.71 155.12 110.94 156.25
  Q 111.07 156.87 111.28 157.16
  Q 112.38 158.66 112.14 156.68
  C 112.09 156.33 112.14 156.00 112.27 155.73
  Q 113.30 153.62 115.12 152.13
  Q 115.59 151.74 116.03 151.05
  Q 117.02 149.48 117.86 151.80
  Q 118.20 152.75 118.40 151.76
  Q 119.18 147.77 119.46 151.75"
/>
<path stroke="#a9dced" vector-effect="non-scaling-stroke" d="
  M 119.46 151.75
  L 119.50 168.31
  C 119.50 168.69 119.81 169.00 120.19 169.00
  L 128.88 169.00
  C 129.36 169.00 129.75 168.61 129.75 168.13
  Q 129.75 161.68 129.75 155.01
  Q 129.75 148.71 131.13 146.22
  Q 133.92 141.19 141.21 143.29
  C 141.46 143.36 141.70 143.19 141.70 142.94
  L 141.75 134.65
  C 141.75 134.29 141.45 134.00 141.07 133.99
  L 137.25 133.96"
/>
<path stroke="#f7f7f6" vector-effect="non-scaling-stroke" d="
  M 137.25 133.96
  Q 138.25 133.37 138.16 132.30
  C 138.13 131.99 138.26 131.71 138.50 131.56
  Q 141.81 129.49 141.22 125.54
  Q 141.19 125.28 141.26 125.09
  Q 141.34 124.88 141.46 124.67
  C 141.62 124.39 141.66 124.06 141.56 123.79
  Q 140.50 120.88 143.28 119.90
  C 143.49 119.82 143.82 119.88 144.15 120.05
  Q 144.65 120.31 145.10 119.93
  C 145.25 119.81 145.49 119.87 145.56 120.06
  L 146.04 121.25"
/>
<path stroke="#a9dced" vector-effect="non-scaling-stroke" d="
  M 146.04 121.25
  Q 144.93 124.19 146.56 126.19
  Q 149.87 130.26 154.31 128.01
  Q 155.89 127.22 156.67 125.92
  Q 157.59 124.38 157.37 122.67
  Q 157.08 120.49 155.01 119.10
  Q 151.63 116.82 147.50 119.29"
/>
<path stroke="#f7f7f6" vector-effect="non-scaling-stroke" d="
  M 147.50 119.29
  Q 147.01 116.17 144.24 115.37
  C 143.97 115.29 143.83 115.00 143.96 114.79
  L 146.87 110.19
  C 147.00 109.98 146.99 109.70 146.84 109.46
  L 145.97 108.05
  C 145.83 107.81 145.91 107.47 146.16 107.21
  Q 148.82 104.47 150.41 101.02
  Q 150.76 100.26 150.64 99.40
  Q 150.51 98.57 150.35 97.74
  Q 150.27 97.34 150.45 96.80
  Q 150.75 95.89 150.10 95.10
  C 149.94 94.91 149.90 94.62 149.99 94.32
  L 150.73 91.76
  C 150.80 91.52 150.67 91.19 150.39 90.91
  Q 149.04 89.52 149.50 87.75
  Q 150.92 82.27 150.15 77.57
  Q 150.08 77.11 150.21 76.59
  Q 150.74 74.47 149.51 71.55
  C 149.17 70.75 149.32 69.84 149.88 69.18
  Q 151.52 67.27 150.32 66.99
  C 149.97 66.91 149.69 66.73 149.58 66.50
  Q 148.03 63.41 148.43 59.99
  C 148.46 59.73 148.63 59.44 148.89 59.19
  Q 150.00 58.17 148.69 56.81
  Q 147.36 55.44 147.00 53.30
  C 146.96 53.00 146.78 52.73 146.52 52.52
  Q 145.83 51.97 145.45 51.21
  C 145.35 51.02 145.10 51.00 144.97 51.16
  Q 143.98 52.44 142.96 51.25"
/>
<path stroke="#cfd0d0" vector-effect="non-scaling-stroke" d="
  M 217.00 197.21
  Q 211.14 198.73 204.00 198.75
  Q 173.13 198.86 142.25 198.71"
/>
<path stroke="#a6daeb" vector-effect="non-scaling-stroke" d="
  M 175.00 169.79
  Q 180.07 169.40 183.13 165.39
  Q 184.73 163.29 184.08 167.67
  C 183.98 168.34 184.47 168.95 185.12 168.94
  L 193.31 168.86
  C 193.59 168.85 193.82 168.62 193.83 168.32
  Q 194.06 162.58 193.75 147.25
  Q 193.51 135.29 182.25 133.71"
/>
<path stroke="#a2c2db" vector-effect="non-scaling-stroke" d="
  M 183.25 109.04
  L 193.58 109.00
  C 193.95 109.00 194.25 108.70 194.25 108.34
  L 194.25 101.69
  C 194.25 101.31 193.93 101.00 193.54 101.00
  L 176.86 100.87
  Q 173.43 100.85 175.98 98.49
  Q 181.30 93.60 186.81 89.51
  Q 191.12 86.30 193.00 81.29
  Q 196.03 73.23 190.46 67.00"
/>
<path stroke="#b7dce8" vector-effect="non-scaling-stroke" d="
  M 122.50 63.54
  Q 113.14 72.60 107.21 85.47
  C 107.06 85.79 106.63 85.86 106.40 85.59
  Q 97.36 75.29 84.50 73.04"
/>
<path stroke="#7fbbd0" vector-effect="non-scaling-stroke" d="
  M 84.50 73.04
  Q 85.96 72.96 85.34 72.64
  C 85.12 72.53 84.98 72.33 84.97 72.13
  Q 84.77 69.05 85.94 66.19
  Q 87.33 62.77 89.00 63.25
  Q 90.07 63.56 90.25 62.79"
/>
<path stroke="#acdff0" vector-effect="non-scaling-stroke" d="
  M 147.50 119.29
  L 146.04 121.25"
/>
<path stroke="#acdff0" vector-effect="non-scaling-stroke" d="
  M 137.25 133.96
  Q 132.28 134.92 130.33 139.57
  Q 130.21 139.85 130.02 140.01
  Q 129.64 140.32 129.64 139.69
  L 129.64 134.93
  C 129.63 134.63 129.38 134.39 129.06 134.39
  L 120.24 134.44
  C 119.96 134.45 119.74 134.69 119.73 135.00
  L 119.46 151.75"
/>
<path stroke="#acdff0" vector-effect="non-scaling-stroke" d="
  M 109.54 154.75
  L 97.48 121.15
  C 97.37 120.86 97.11 120.66 96.82 120.66
  L 86.02 120.53
  C 85.41 120.52 84.86 120.92 84.64 121.53
  L 67.64 168.13
  C 67.48 168.55 67.79 169.00 68.24 169.00
  L 77.84 169.00
  C 78.36 169.00 78.82 168.65 78.98 168.14
  L 82.02 158.65
  C 82.12 158.36 82.38 158.17 82.68 158.17
  L 99.19 158.05
  C 99.49 158.04 99.75 158.24 99.85 158.53
  L 101.96 165.00"
/>
<path stroke="#d5d6d5" vector-effect="non-scaling-stroke" d="
  M 12.00 165.04
  Q 10.63 157.75 12.69 149.69
  Q 17.13 132.29 32.00 123.29"
/>
<path stroke="#cad8dc" vector-effect="non-scaling-stroke" d="
  M 32.00 123.29
  Q 37.50 120.39 44.01 118.97
  C 44.28 118.91 44.46 118.63 44.39 118.35
  Q 39.92 99.47 51.50 85.04"
/>
<path stroke="#c3d9e1" vector-effect="non-scaling-stroke" d="
  M 51.50 85.04
  Q 64.73 70.69 84.50 73.04"
/>
<path stroke="#a5b3b8" vector-effect="non-scaling-stroke" d="
  M 32.00 123.29
  Q 29.79 123.15 31.37 121.63
  Q 34.39 118.73 33.61 114.73
  C 33.56 114.49 33.30 114.31 33.00 114.32
  L 30.55 114.36
  C 30.22 114.37 29.93 114.49 29.73 114.69
  Q 28.09 116.41 27.71 113.75"
/>
<path stroke="#afc0c9" stroke-opacity="0.996" vector-effect="non-scaling-stroke" d="
  M 34.96 91.75
  Q 35.65 93.40 36.44 91.69
  Q 36.72 91.08 37.71 88.28
  Q 38.28 86.67 39.29 85.03
  Q 41.24 81.87 42.79 78.50"
/>
<path stroke="#93b7c3" vector-effect="non-scaling-stroke" d="
  M 51.50 85.04
  Q 51.28 85.01 51.08 85.07
  C 50.85 85.14 50.62 85.09 50.52 84.95
  Q 48.65 82.32 50.50 79.75
  Q 50.14 79.20 51.11 78.48
  C 51.52 78.18 51.57 77.58 51.24 77.15
  L 48.46 73.50"
/>
<path stroke="#a9dced" vector-effect="non-scaling-stroke" d="
  M 156.51 134.56
  C 156.51 134.40 156.38 134.27 156.22 134.27
  L 146.78 134.27
  C 146.62 134.27 146.49 134.40 146.49 134.56
  L 146.49 168.70
  C 146.49 168.86 146.62 168.99 146.78 168.99
  L 156.22 168.99
  C 156.38 168.99 156.51 168.86 156.51 168.70
  L 156.51 134.56"
/>
<path stroke="#acdff0" vector-effect="non-scaling-stroke" d="
  M 90.29 131.92
  L 84.72 149.22
  C 84.64 149.47 84.81 149.74 85.07 149.74
  L 96.19 149.96
  C 96.70 149.97 97.05 149.44 96.89 148.92
  L 91.06 130.29
  Q 90.89 129.73 90.60 130.17
  Q 90.38 130.50 90.38 130.94
  Q 90.38 131.64 90.29 131.92"
/>
<path stroke="#a6daeb" vector-effect="non-scaling-stroke" d="
  M 174.21 161.59
  Q 177.92 163.31 180.82 161.27
  Q 184.91 158.38 184.26 153.32
  C 184.23 153.03 183.98 152.82 183.69 152.83
  Q 177.68 153.02 175.50 154.00
  Q 171.24 155.92 172.87 160.15
  C 173.11 160.79 173.59 161.31 174.21 161.59"
/>
</g>
<path fill="#b2e0ec" fill-opacity="0.996" d="
  M 192.50 42.21
  Q 192.14 43.03 191.50 42.75
  Q 183.95 39.48 177.25 38.29
  Q 172.60 36.95 167.75 37.00
  Q 165.07 37.04 162.50 36.29
  Q 178.36 35.07 192.50 42.21
  Z"
/>
<path fill="#5dc4e6" d="
  M 162.50 36.29
  Q 165.07 37.04 167.75 37.00
  Q 172.60 36.95 177.25 38.29
  Q 177.44 39.10 176.77 38.92
  Q 174.43 38.28 171.34 38.24
  Q 170.82 38.23 171.20 38.59
  Q 173.29 40.60 172.44 42.69
  Q 171.86 44.11 172.08 45.04
  C 172.14 45.32 172.03 45.60 171.79 45.72
  Q 169.81 46.78 172.00 47.96
  Q 157.04 46.14 142.96 51.25
  Q 131.53 55.40 122.50 63.54
  L 121.57 63.74
  Q 120.97 63.86 121.39 63.31
  Q 122.01 62.48 122.01 61.44
  Q 122.02 56.23 122.63 51.05
  C 122.66 50.74 122.49 50.45 122.22 50.36
  L 121.75 50.21
  Q 132.50 42.87 138.69 40.44
  Q 148.19 36.69 162.50 36.29
  Z"
/>
<path fill="#34ccfe" d="
  M 177.25 38.29
  Q 183.95 39.48 191.50 42.75
  Q 192.14 43.03 192.50 42.21
  L 199.29 45.50
  Q 199.27 46.41 199.94 46.69
  Q 200.80 47.06 200.86 47.10
  Q 203.01 48.58 205.06 50.19
  Q 205.95 50.89 207.00 50.46
  Q 214.07 55.83 216.81 58.94
  Q 218.11 60.41 222.80 66.98
  Q 226.09 71.60 227.93 75.54
  Q 234.83 90.28 236.04 106.75
  L 235.68 113.94
  Q 235.65 114.60 235.56 113.95
  L 235.44 113.07
  Q 235.39 112.71 235.32 113.04
  Q 234.06 118.62 239.12 121.62
  Q 241.03 122.76 242.02 124.14
  L 249.17 134.14
  C 249.32 134.35 249.42 134.67 249.46 135.06
  Q 249.65 137.05 251.46 137.25
  Q 252.46 140.72 253.31 142.19
  Q 255.59 146.10 255.44 151.19
  Q 254.91 168.76 254.71 172.50
  Q 254.32 172.74 254.16 172.44
  Q 254.03 172.20 253.97 172.44
  Q 250.55 186.97 239.55 196.98
  C 239.41 197.11 239.37 197.35 239.44 197.61
  L 239.54 198.00
  Q 228.98 206.95 215.78 209.58
  Q 211.80 210.37 202.17 210.66
  Q 197.62 210.80 193.06 211.01
  Q 188.21 211.24 183.93 211.19
  Q 155.84 210.86 127.75 210.96
  Q 127.68 210.62 127.81 210.39
  C 128.02 210.01 128.14 209.69 128.13 209.57
  Q 127.69 205.06 128.25 200.56
  C 128.28 200.27 128.52 200.05 128.82 200.03
  Q 133.67 199.75 142.00 199.75
  Q 173.25 199.75 204.50 199.63
  Q 210.77 199.61 216.74 197.73
  Q 217.48 197.50 217.00 197.21
  Q 237.57 189.92 243.34 170.81
  Q 246.32 160.95 244.26 151.07
  Q 240.69 133.84 224.13 123.35
  C 223.55 122.98 223.27 122.29 223.42 121.62
  Q 227.01 105.41 221.99 90.00
  Q 215.07 68.78 196.25 56.96
  Q 185.16 49.75 172.00 47.96
  Q 169.81 46.78 171.79 45.72
  C 172.03 45.60 172.14 45.32 172.08 45.04
  Q 171.86 44.11 172.44 42.69
  Q 173.29 40.60 171.20 38.59
  Q 170.82 38.23 171.34 38.24
  Q 174.43 38.28 176.77 38.92
  Q 177.44 39.10 177.25 38.29
  Z"
/>
<path fill="#b2e0ec" fill-opacity="0.996" d="
  M 199.29 45.50
  Q 203.59 47.28 207.00 50.46
  Q 205.95 50.89 205.06 50.19
  Q 203.01 48.58 200.86 47.10
  Q 200.80 47.06 199.94 46.69
  Q 199.27 46.41 199.29 45.50
  Z"
/>
<path fill="#f4f4f3" d="
  M 172.00 47.96
  Q 185.16 49.75 196.25 56.96
  Q 195.48 57.68 194.75 56.95
  C 194.57 56.77 194.29 56.76 194.10 56.92
  Q 193.49 57.44 193.05 56.76
  C 192.95 56.61 192.82 56.52 192.71 56.51
  Q 192.48 56.50 192.52 56.76
  Q 192.54 56.91 192.69 57.07
  Q 194.10 58.49 195.01 60.27
  Q 196.36 62.88 192.42 62.01
  Q 190.78 61.65 191.55 63.14
  Q 192.54 65.09 190.64 64.97
  Q 189.96 64.92 190.38 65.46
  Q 193.19 69.04 190.46 67.00
  Q 183.97 61.81 175.00 63.75
  Q 169.90 64.85 166.73 67.02
  C 166.46 67.20 166.30 67.50 166.30 67.81
  L 166.25 74.26
  Q 166.24 75.23 167.01 74.63
  Q 171.31 71.25 176.62 70.95
  Q 180.15 70.74 182.07 72.23
  Q 184.65 74.23 183.80 78.46
  Q 182.97 82.57 179.50 85.25
  Q 177.06 87.14 170.93 92.45
  Q 163.78 98.65 164.25 108.35
  C 164.27 108.72 164.57 109.00 164.94 109.00
  L 183.25 109.04
  Q 180.68 109.61 183.74 110.03
  C 184.19 110.09 184.50 110.53 184.40 110.97
  Q 184.14 112.14 185.75 112.74
  Q 188.22 113.65 186.42 114.97
  C 186.19 115.14 185.86 115.21 185.50 115.17
  Q 182.87 114.86 183.25 117.75
  Q 183.61 120.45 182.30 123.11
  C 182.16 123.38 181.88 123.55 181.56 123.56
  Q 179.21 123.60 180.15 125.28
  Q 180.80 126.45 180.84 127.01
  Q 180.95 128.77 179.64 129.94
  C 179.38 130.17 179.27 130.49 179.34 130.75
  Q 179.59 131.65 180.43 131.11
  Q 181.01 130.74 181.27 130.71
  Q 182.08 130.61 182.10 131.44
  C 182.11 131.75 182.27 132.01 182.52 132.13
  Q 184.25 132.92 182.25 133.71
  Q 174.60 133.25 167.13 136.05
  C 166.74 136.20 166.47 136.61 166.46 137.08
  L 166.30 143.17
  Q 166.26 144.47 167.30 143.82
  Q 172.31 140.70 178.11 140.71
  Q 180.74 140.71 182.07 141.65
  Q 183.85 142.88 184.30 145.52
  C 184.40 146.10 183.99 146.64 183.40 146.71
  Q 178.19 147.27 173.44 148.17
  Q 163.32 150.09 163.09 158.87
  Q 162.95 163.87 165.92 166.90
  Q 169.25 170.30 175.00 169.79
  Q 173.27 169.68 172.05 170.70
  Q 170.99 171.59 172.36 171.40
  Q 176.89 170.78 174.78 173.29
  Q 173.54 174.78 173.42 174.89
  Q 172.42 175.82 170.96 175.22
  C 170.60 175.07 170.26 175.05 170.02 175.15
  Q 168.73 175.72 169.50 177.50
  Q 170.13 178.95 168.80 179.43
  C 168.48 179.55 168.23 179.75 168.10 180.01
  Q 166.05 184.11 161.87 184.51
  C 160.94 184.60 160.34 185.53 160.64 186.42
  Q 161.75 189.70 159.07 189.82
  C 158.71 189.83 158.41 189.98 158.26 190.21
  Q 157.76 191.01 157.85 191.94
  C 157.88 192.24 157.71 192.51 157.46 192.56
  Q 155.81 192.90 156.07 191.40
  Q 156.18 190.80 156.09 190.46
  Q 155.73 189.16 154.84 190.39
  C 154.68 190.61 154.68 190.94 154.84 191.23
  Q 155.54 192.50 154.19 193.19
  Q 152.16 194.22 152.75 195.98
  C 152.85 196.28 152.75 196.58 152.52 196.71
  Q 151.48 197.30 150.28 196.88
  C 150.02 196.79 149.81 196.54 149.70 196.20
  Q 149.24 194.77 147.88 195.64
  Q 146.78 196.34 146.69 196.38
  Q 142.98 198.39 148.61 198.01
  Q 148.75 198.00 148.87 198.01
  Q 152.73 198.20 148.50 198.28
  Q 145.36 198.34 142.25 198.71
  Q 102.25 198.77 62.25 198.76
  Q 47.51 198.75 42.34 197.58
  Q 29.52 194.69 20.56 184.69
  Q 13.50 176.80 12.00 165.04
  Q 14.01 165.83 13.27 167.74
  C 13.16 168.02 13.25 168.33 13.48 168.47
  Q 15.58 169.76 17.31 168.56
  C 17.84 168.19 18.58 168.48 18.72 169.11
  Q 19.12 170.94 20.60 170.49
  Q 21.46 170.24 21.55 170.22
  Q 25.18 169.62 28.33 171.49
  C 28.58 171.64 28.90 171.70 29.24 171.65
  Q 31.32 171.39 32.24 174.24
  C 32.48 174.98 33.27 175.39 34.01 175.15
  Q 36.31 174.42 35.15 173.44
  Q 34.91 173.23 34.40 173.10
  Q 33.05 172.77 34.25 172.05
  C 34.51 171.89 34.84 171.95 35.03 172.17
  L 38.96 176.85
  C 39.10 177.02 39.37 176.99 39.48 176.80
  Q 39.99 175.93 40.81 175.46
  C 41.04 175.33 41.37 175.35 41.68 175.51
  Q 43.01 176.22 44.32 175.52
  C 44.55 175.39 44.84 175.48 44.96 175.71
  Q 45.84 177.33 47.20 176.16
  C 47.44 175.96 47.75 175.90 48.03 175.99
  L 48.97 176.30
  C 49.23 176.38 49.56 176.35 49.89 176.20
  Q 51.60 175.45 52.70 177.02
  Q 53.65 178.36 54.69 176.94
  Q 55.69 175.55 59.56 176.94
  Q 63.09 178.20 69.14 175.35
  C 69.44 175.21 69.78 175.21 70.09 175.34
  Q 75.30 177.65 79.09 174.04
  C 79.37 173.77 79.68 173.62 79.93 173.62
  L 84.50 173.67
  Q 85.10 173.68 85.43 173.50
  Q 86.75 172.77 88.24 172.53
  Q 88.52 172.49 89.86 172.69
  Q 90.88 172.85 91.54 171.99
  C 91.73 171.74 92.02 171.60 92.31 171.62
  Q 94.27 171.75 93.52 170.02
  Q 92.75 168.23 94.19 168.07
  C 94.46 168.04 94.76 168.18 94.99 168.45
  Q 96.06 169.66 97.00 168.68
  Q 97.35 168.32 97.68 167.17
  Q 98.54 164.12 101.96 165.00
  L 103.15 168.50
  C 103.25 168.80 103.51 169.00 103.81 169.00
  L 114.11 169.00
  C 114.39 169.00 114.58 168.72 114.49 168.46
  L 109.54 154.75
  Q 110.71 155.12 110.94 156.25
  Q 111.07 156.87 111.28 157.16
  Q 112.38 158.66 112.14 156.68
  C 112.09 156.33 112.14 156.00 112.27 155.73
  Q 113.30 153.62 115.12 152.13
  Q 115.59 151.74 116.03 151.05
  Q 117.02 149.48 117.86 151.80
  Q 118.20 152.75 118.40 151.76
  Q 119.18 147.77 119.46 151.75
  L 119.50 168.31
  C 119.50 168.69 119.81 169.00 120.19 169.00
  L 128.88 169.00
  C 129.36 169.00 129.75 168.61 129.75 168.13
  Q 129.75 161.68 129.75 155.01
  Q 129.75 148.71 131.13 146.22
  Q 133.92 141.19 141.21 143.29
  C 141.46 143.36 141.70 143.19 141.70 142.94
  L 141.75 134.65
  C 141.75 134.29 141.45 134.00 141.07 133.99
  L 137.25 133.96
  Q 138.25 133.37 138.16 132.30
  C 138.13 131.99 138.26 131.71 138.50 131.56
  Q 141.81 129.49 141.22 125.54
  Q 141.19 125.28 141.26 125.09
  Q 141.34 124.88 141.46 124.67
  C 141.62 124.39 141.66 124.06 141.56 123.79
  Q 140.50 120.88 143.28 119.90
  C 143.49 119.82 143.82 119.88 144.15 120.05
  Q 144.65 120.31 145.10 119.93
  C 145.25 119.81 145.49 119.87 145.56 120.06
  L 146.04 121.25
  Q 144.93 124.19 146.56 126.19
  Q 149.87 130.26 154.31 128.01
  Q 155.89 127.22 156.67 125.92
  Q 157.59 124.38 157.37 122.67
  Q 157.08 120.49 155.01 119.10
  Q 151.63 116.82 147.50 119.29
  Q 147.01 116.17 144.24 115.37
  C 143.97 115.29 143.83 115.00 143.96 114.79
  L 146.87 110.19
  C 147.00 109.98 146.99 109.70 146.84 109.46
  L 145.97 108.05
  C 145.83 107.81 145.91 107.47 146.16 107.21
  Q 148.82 104.47 150.41 101.02
  Q 150.76 100.26 150.64 99.40
  Q 150.51 98.57 150.35 97.74
  Q 150.27 97.34 150.45 96.80
  Q 150.75 95.89 150.10 95.10
  C 149.94 94.91 149.90 94.62 149.99 94.32
  L 150.73 91.76
  C 150.80 91.52 150.67 91.19 150.39 90.91
  Q 149.04 89.52 149.50 87.75
  Q 150.92 82.27 150.15 77.57
  Q 150.08 77.11 150.21 76.59
  Q 150.74 74.47 149.51 71.55
  C 149.17 70.75 149.32 69.84 149.88 69.18
  Q 151.52 67.27 150.32 66.99
  C 149.97 66.91 149.69 66.73 149.58 66.50
  Q 148.03 63.41 148.43 59.99
  C 148.46 59.73 148.63 59.44 148.89 59.19
  Q 150.00 58.17 148.69 56.81
  Q 147.36 55.44 147.00 53.30
  C 146.96 53.00 146.78 52.73 146.52 52.52
  Q 145.83 51.97 145.45 51.21
  C 145.35 51.02 145.10 51.00 144.97 51.16
  Q 143.98 52.44 142.96 51.25
  Q 157.04 46.14 172.00 47.96
  Z
  M 156.51 134.56
  C 156.51 134.40 156.38 134.27 156.22 134.27
  L 146.78 134.27
  C 146.62 134.27 146.49 134.40 146.49 134.56
  L 146.49 168.70
  C 146.49 168.86 146.62 168.99 146.78 168.99
  L 156.22 168.99
  C 156.38 168.99 156.51 168.86 156.51 168.70
  L 156.51 134.56
  Z"
/>
<path fill="#73bed7" d="
  M 121.75 50.21
  L 122.22 50.36
  C 122.49 50.45 122.66 50.74 122.63 51.05
  Q 122.02 56.23 122.01 61.44
  Q 122.01 62.48 121.39 63.31
  Q 120.97 63.86 121.57 63.74
  L 122.50 63.54
  Q 113.14 72.60 107.21 85.47
  C 107.06 85.79 106.63 85.86 106.40 85.59
  Q 97.36 75.29 84.50 73.04
  Q 85.96 72.96 85.34 72.64
  C 85.12 72.53 84.98 72.33 84.97 72.13
  Q 84.77 69.05 85.94 66.19
  Q 87.33 62.77 89.00 63.25
  Q 90.07 63.56 90.25 62.79
  Q 96.22 64.64 102.01 67.54
  C 102.92 67.99 104.03 67.77 104.69 67.00
  Q 107.34 63.91 109.17 60.92
  Q 110.04 59.50 111.34 58.52
  Q 113.08 57.21 113.76 56.49
  Q 117.27 52.75 121.75 50.21
  Z"
/>
<path fill="#fafaf9" d="
  M 147.50 119.29
  L 146.04 121.25
  L 145.56 120.06
  C 145.49 119.87 145.25 119.81 145.10 119.93
  Q 144.65 120.31 144.15 120.05
  C 143.82 119.88 143.49 119.82 143.28 119.90
  Q 140.50 120.88 141.56 123.79
  C 141.66 124.06 141.62 124.39 141.46 124.67
  Q 141.34 124.88 141.26 125.09
  Q 141.19 125.28 141.22 125.54
  Q 141.81 129.49 138.50 131.56
  C 138.26 131.71 138.13 131.99 138.16 132.30
  Q 138.25 133.37 137.25 133.96
  Q 132.28 134.92 130.33 139.57
  Q 130.21 139.85 130.02 140.01
  Q 129.64 140.32 129.64 139.69
  L 129.64 134.93
  C 129.63 134.63 129.38 134.39 129.06 134.39
  L 120.24 134.44
  C 119.96 134.45 119.74 134.69 119.73 135.00
  L 119.46 151.75
  Q 119.18 147.77 118.40 151.76
  Q 118.20 152.75 117.86 151.80
  Q 117.02 149.48 116.03 151.05
  Q 115.59 151.74 115.12 152.13
  Q 113.30 153.62 112.27 155.73
  C 112.14 156.00 112.09 156.33 112.14 156.68
  Q 112.38 158.66 111.28 157.16
  Q 111.07 156.87 110.94 156.25
  Q 110.71 155.12 109.54 154.75
  L 97.48 121.15
  C 97.37 120.86 97.11 120.66 96.82 120.66
  L 86.02 120.53
  C 85.41 120.52 84.86 120.92 84.64 121.53
  L 67.64 168.13
  C 67.48 168.55 67.79 169.00 68.24 169.00
  L 77.84 169.00
  C 78.36 169.00 78.82 168.65 78.98 168.14
  L 82.02 158.65
  C 82.12 158.36 82.38 158.17 82.68 158.17
  L 99.19 158.05
  C 99.49 158.04 99.75 158.24 99.85 158.53
  L 101.96 165.00
  Q 98.54 164.12 97.68 167.17
  Q 97.35 168.32 97.00 168.68
  Q 96.06 169.66 94.99 168.45
  C 94.76 168.18 94.46 168.04 94.19 168.07
  Q 92.75 168.23 93.52 170.02
  Q 94.27 171.75 92.31 171.62
  C 92.02 171.60 91.73 171.74 91.54 171.99
  Q 90.88 172.85 89.86 172.69
  Q 88.52 172.49 88.24 172.53
  Q 86.75 172.77 85.43 173.50
  Q 85.10 173.68 84.50 173.67
  L 79.93 173.62
  C 79.68 173.62 79.37 173.77 79.09 174.04
  Q 75.30 177.65 70.09 175.34
  C 69.78 175.21 69.44 175.21 69.14 175.35
  Q 63.09 178.20 59.56 176.94
  Q 55.69 175.55 54.69 176.94
  Q 53.65 178.36 52.70 177.02
  Q 51.60 175.45 49.89 176.20
  C 49.56 176.35 49.23 176.38 48.97 176.30
  L 48.03 175.99
  C 47.75 175.90 47.44 175.96 47.20 176.16
  Q 45.84 177.33 44.96 175.71
  C 44.84 175.48 44.55 175.39 44.32 175.52
  Q 43.01 176.22 41.68 175.51
  C 41.37 175.35 41.04 175.33 40.81 175.46
  Q 39.99 175.93 39.48 176.80
  C 39.37 176.99 39.10 177.02 38.96 176.85
  L 35.03 172.17
  C 34.84 171.95 34.51 171.89 34.25 172.05
  Q 33.05 172.77 34.40 173.10
  Q 34.91 173.23 35.15 173.44
  Q 36.31 174.42 34.01 175.15
  C 33.27 175.39 32.48 174.98 32.24 174.24
  Q 31.32 171.39 29.24 171.65
  C 28.90 171.70 28.58 171.64 28.33 171.49
  Q 25.18 169.62 21.55 170.22
  Q 21.46 170.24 20.60 170.49
  Q 19.12 170.94 18.72 169.11
  C 18.58 168.48 17.84 168.19 17.31 168.56
  Q 15.58 169.76 13.48 168.47
  C 13.25 168.33 13.16 168.02 13.27 167.74
  Q 14.01 165.83 12.00 165.04
  Q 10.63 157.75 12.69 149.69
  Q 17.13 132.29 32.00 123.29
  Q 37.50 120.39 44.01 118.97
  C 44.28 118.91 44.46 118.63 44.39 118.35
  Q 39.92 99.47 51.50 85.04
  Q 64.73 70.69 84.50 73.04
  Q 97.36 75.29 106.40 85.59
  C 106.63 85.86 107.06 85.79 107.21 85.47
  Q 113.14 72.60 122.50 63.54
  Q 131.53 55.40 142.96 51.25
  Q 143.98 52.44 144.97 51.16
  C 145.10 51.00 145.35 51.02 145.45 51.21
  Q 145.83 51.97 146.52 52.52
  C 146.78 52.73 146.96 53.00 147.00 53.30
  Q 147.36 55.44 148.69 56.81
  Q 150.00 58.17 148.89 59.19
  C 148.63 59.44 148.46 59.73 148.43 59.99
  Q 148.03 63.41 149.58 66.50
  C 149.69 66.73 149.97 66.91 150.32 66.99
  Q 151.52 67.27 149.88 69.18
  C 149.32 69.84 149.17 70.75 149.51 71.55
  Q 150.74 74.47 150.21 76.59
  Q 150.08 77.11 150.15 77.57
  Q 150.92 82.27 149.50 87.75
  Q 149.04 89.52 150.39 90.91
  C 150.67 91.19 150.80 91.52 150.73 91.76
  L 149.99 94.32
  C 149.90 94.62 149.94 94.91 150.10 95.10
  Q 150.75 95.89 150.45 96.80
  Q 150.27 97.34 150.35 97.74
  Q 150.51 98.57 150.64 99.40
  Q 150.76 100.26 150.41 101.02
  Q 148.82 104.47 146.16 107.21
  C 145.91 107.47 145.83 107.81 145.97 108.05
  L 146.84 109.46
  C 146.99 109.70 147.00 109.98 146.87 110.19
  L 143.96 114.79
  C 143.83 115.00 143.97 115.29 144.24 115.37
  Q 147.01 116.17 147.50 119.29
  Z"
/>
<path fill="#eeefef" d="
  M 196.25 56.96
  Q 215.07 68.78 221.99 90.00
  Q 227.01 105.41 223.42 121.62
  C 223.27 122.29 223.55 122.98 224.13 123.35
  Q 240.69 133.84 244.26 151.07
  Q 246.32 160.95 243.34 170.81
  Q 237.57 189.92 217.00 197.21
  Q 211.14 198.73 204.00 198.75
  Q 173.13 198.86 142.25 198.71
  Q 145.36 198.34 148.50 198.28
  Q 152.73 198.20 148.87 198.01
  Q 148.75 198.00 148.61 198.01
  Q 142.98 198.39 146.69 196.38
  Q 146.78 196.34 147.88 195.64
  Q 149.24 194.77 149.70 196.20
  C 149.81 196.54 150.02 196.79 150.28 196.88
  Q 151.48 197.30 152.52 196.71
  C 152.75 196.58 152.85 196.28 152.75 195.98
  Q 152.16 194.22 154.19 193.19
  Q 155.54 192.50 154.84 191.23
  C 154.68 190.94 154.68 190.61 154.84 190.39
  Q 155.73 189.16 156.09 190.46
  Q 156.18 190.80 156.07 191.40
  Q 155.81 192.90 157.46 192.56
  C 157.71 192.51 157.88 192.24 157.85 191.94
  Q 157.76 191.01 158.26 190.21
  C 158.41 189.98 158.71 189.83 159.07 189.82
  Q 161.75 189.70 160.64 186.42
  C 160.34 185.53 160.94 184.60 161.87 184.51
  Q 166.05 184.11 168.10 180.01
  C 168.23 179.75 168.48 179.55 168.80 179.43
  Q 170.13 178.95 169.50 177.50
  Q 168.73 175.72 170.02 175.15
  C 170.26 175.05 170.60 175.07 170.96 175.22
  Q 172.42 175.82 173.42 174.89
  Q 173.54 174.78 174.78 173.29
  Q 176.89 170.78 172.36 171.40
  Q 170.99 171.59 172.05 170.70
  Q 173.27 169.68 175.00 169.79
  Q 180.07 169.40 183.13 165.39
  Q 184.73 163.29 184.08 167.67
  C 183.98 168.34 184.47 168.95 185.12 168.94
  L 193.31 168.86
  C 193.59 168.85 193.82 168.62 193.83 168.32
  Q 194.06 162.58 193.75 147.25
  Q 193.51 135.29 182.25 133.71
  Q 184.25 132.92 182.52 132.13
  C 182.27 132.01 182.11 131.75 182.10 131.44
  Q 182.08 130.61 181.27 130.71
  Q 181.01 130.74 180.43 131.11
  Q 179.59 131.65 179.34 130.75
  C 179.27 130.49 179.38 130.17 179.64 129.94
  Q 180.95 128.77 180.84 127.01
  Q 180.80 126.45 180.15 125.28
  Q 179.21 123.60 181.56 123.56
  C 181.88 123.55 182.16 123.38 182.30 123.11
  Q 183.61 120.45 183.25 117.75
  Q 182.87 114.86 185.50 115.17
  C 185.86 115.21 186.19 115.14 186.42 114.97
  Q 188.22 113.65 185.75 112.74
  Q 184.14 112.14 184.40 110.97
  C 184.50 110.53 184.19 110.09 183.74 110.03
  Q 180.68 109.61 183.25 109.04
  L 193.58 109.00
  C 193.95 109.00 194.25 108.70 194.25 108.34
  L 194.25 101.69
  C 194.25 101.31 193.93 101.00 193.54 101.00
  L 176.86 100.87
  Q 173.43 100.85 175.98 98.49
  Q 181.30 93.60 186.81 89.51
  Q 191.12 86.30 193.00 81.29
  Q 196.03 73.23 190.46 67.00
  Q 193.19 69.04 190.38 65.46
  Q 189.96 64.92 190.64 64.97
  Q 192.54 65.09 191.55 63.14
  Q 190.78 61.65 192.42 62.01
  Q 196.36 62.88 195.01 60.27
  Q 194.10 58.49 192.69 57.07
  Q 192.54 56.91 192.52 56.76
  Q 192.48 56.50 192.71 56.51
  C 192.82 56.52 192.95 56.61 193.05 56.76
  Q 193.49 57.44 194.10 56.92
  C 194.29 56.76 194.57 56.77 194.75 56.95
  Q 195.48 57.68 196.25 56.96
  Z"
/>
<path fill="#8bb8c8" d="
  M 90.25 62.79
  Q 90.07 63.56 89.00 63.25
  Q 87.33 62.77 85.94 66.19
  Q 84.77 69.05 84.97 72.13
  C 84.98 72.33 85.12 72.53 85.34 72.64
  Q 85.96 72.96 84.50 73.04
  Q 64.73 70.69 51.50 85.04
  Q 51.28 85.01 51.08 85.07
  C 50.85 85.14 50.62 85.09 50.52 84.95
  Q 48.65 82.32 50.50 79.75
  Q 50.14 79.20 51.11 78.48
  C 51.52 78.18 51.57 77.58 51.24 77.15
  L 48.46 73.50
  Q 55.97 67.90 61.69 65.19
  Q 66.21 63.04 73.00 62.25
  Q 77.86 61.69 90.25 62.79
  Z"
/>
<path fill="#5695c6" d="
  M 190.46 67.00
  Q 196.03 73.23 193.00 81.29
  Q 191.12 86.30 186.81 89.51
  Q 181.30 93.60 175.98 98.49
  Q 173.43 100.85 176.86 100.87
  L 193.54 101.00
  C 193.93 101.00 194.25 101.31 194.25 101.69
  L 194.25 108.34
  C 194.25 108.70 193.95 109.00 193.58 109.00
  L 183.25 109.04
  L 164.94 109.00
  C 164.57 109.00 164.27 108.72 164.25 108.35
  Q 163.78 98.65 170.93 92.45
  Q 177.06 87.14 179.50 85.25
  Q 182.97 82.57 183.80 78.46
  Q 184.65 74.23 182.07 72.23
  Q 180.15 70.74 176.62 70.95
  Q 171.31 71.25 167.01 74.63
  Q 166.24 75.23 166.25 74.26
  L 166.30 67.81
  C 166.30 67.50 166.46 67.20 166.73 67.02
  Q 169.90 64.85 175.00 63.75
  Q 183.97 61.81 190.46 67.00
  Z"
/>
<path fill="#9ab5be" d="
  M 48.46 73.50
  L 51.24 77.15
  C 51.57 77.58 51.52 78.18 51.11 78.48
  Q 50.14 79.20 50.50 79.75
  Q 48.65 82.32 50.52 84.95
  C 50.62 85.09 50.85 85.14 51.08 85.07
  Q 51.28 85.01 51.50 85.04
  Q 39.92 99.47 44.39 118.35
  C 44.46 118.63 44.28 118.91 44.01 118.97
  Q 37.50 120.39 32.00 123.29
  Q 29.79 123.15 31.37 121.63
  Q 34.39 118.73 33.61 114.73
  C 33.56 114.49 33.30 114.31 33.00 114.32
  L 30.55 114.36
  C 30.22 114.37 29.93 114.49 29.73 114.69
  Q 28.09 116.41 27.71 113.75
  L 31.78 111.22
  C 32.03 111.07 32.18 110.76 32.16 110.43
  Q 31.66 100.79 34.96 91.75
  Q 35.65 93.40 36.44 91.69
  Q 36.72 91.08 37.71 88.28
  Q 38.28 86.67 39.29 85.03
  Q 41.24 81.87 42.79 78.50
  L 48.46 73.50
  Z"
/>
<path fill="#c5cbd4" fill-opacity="0.992" d="
  M 42.79 78.50
  Q 41.24 81.87 39.29 85.03
  Q 38.28 86.67 37.71 88.28
  Q 36.72 91.08 36.44 91.69
  Q 35.65 93.40 34.96 91.75
  Q 36.97 83.99 42.79 78.50
  Z"
/>
<path fill="#7fe3f1" fill-opacity="0.988" d="
  M 236.04 106.75
  L 236.54 117.44
  C 236.55 117.77 236.67 118.08 236.88 118.32
  Q 238.43 120.15 240.41 121.49
  Q 242.33 122.80 243.34 124.27
  Q 245.99 128.14 248.94 131.81
  Q 250.16 133.33 251.46 137.25
  Q 249.65 137.05 249.46 135.06
  C 249.42 134.67 249.32 134.35 249.17 134.14
  L 242.02 124.14
  Q 241.03 122.76 239.12 121.62
  Q 234.06 118.62 235.32 113.04
  Q 235.39 112.71 235.44 113.07
  L 235.56 113.95
  Q 235.65 114.60 235.68 113.94
  L 236.04 106.75
  Z"
/>
<path fill="#afb1b1" d="
  M 27.71 113.75
  Q 28.09 116.41 29.73 114.69
  C 29.93 114.49 30.22 114.37 30.55 114.36
  L 33.00 114.32
  C 33.30 114.31 33.56 114.49 33.61 114.73
  Q 34.39 118.73 31.37 121.63
  Q 29.79 123.15 32.00 123.29
  Q 17.13 132.29 12.69 149.69
  Q 10.63 157.75 12.00 165.04
  Q 13.50 176.80 20.56 184.69
  Q 29.52 194.69 42.34 197.58
  Q 47.51 198.75 62.25 198.76
  Q 102.25 198.77 142.25 198.71
  Q 173.13 198.86 204.00 198.75
  Q 211.14 198.73 217.00 197.21
  Q 217.48 197.50 216.74 197.73
  Q 210.77 199.61 204.50 199.63
  Q 173.25 199.75 142.00 199.75
  Q 133.67 199.75 128.82 200.03
  C 128.52 200.05 128.28 200.27 128.25 200.56
  Q 127.69 205.06 128.13 209.57
  C 128.14 209.69 128.02 210.01 127.81 210.39
  Q 127.68 210.62 127.75 210.96
  Q 74.81 210.64 54.75 210.75
  Q 47.01 210.79 41.93 210.15
  Q 33.45 209.08 26.23 204.58
  Q 10.71 194.92 3.74 178.60
  Q 1.33 172.97 0.56 166.06
  Q -0.28 158.45 0.50 153.00
  Q 1.59 145.34 5.95 134.57
  Q 7.31 131.21 9.64 128.66
  Q 17.62 119.97 27.71 113.75
  Z"
/>
<path fill="#5dc4e6" d="
  M 146.04 121.25
  L 147.50 119.29
  Q 151.63 116.82 155.01 119.10
  Q 157.08 120.49 157.37 122.67
  Q 157.59 124.38 156.67 125.92
  Q 155.89 127.22 154.31 128.01
  Q 149.87 130.26 146.56 126.19
  Q 144.93 124.19 146.04 121.25
  Z"
/>
<path fill="#5dc4e6" d="
  M 109.54 154.75
  L 114.49 168.46
  C 114.58 168.72 114.39 169.00 114.11 169.00
  L 103.81 169.00
  C 103.51 169.00 103.25 168.80 103.15 168.50
  L 101.96 165.00
  L 99.85 158.53
  C 99.75 158.24 99.49 158.04 99.19 158.05
  L 82.68 158.17
  C 82.38 158.17 82.12 158.36 82.02 158.65
  L 78.98 168.14
  C 78.82 168.65 78.36 169.00 77.84 169.00
  L 68.24 169.00
  C 67.79 169.00 67.48 168.55 67.64 168.13
  L 84.64 121.53
  C 84.86 120.92 85.41 120.52 86.02 120.53
  L 96.82 120.66
  C 97.11 120.66 97.37 120.86 97.48 121.15
  L 109.54 154.75
  Z
  M 90.29 131.92
  L 84.72 149.22
  C 84.64 149.47 84.81 149.74 85.07 149.74
  L 96.19 149.96
  C 96.70 149.97 97.05 149.44 96.89 148.92
  L 91.06 130.29
  Q 90.89 129.73 90.60 130.17
  Q 90.38 130.50 90.38 130.94
  Q 90.38 131.64 90.29 131.92
  Z"
/>
<path fill="#fafaf9" d="
  M 90.38 130.94
  Q 90.38 130.50 90.60 130.17
  Q 90.89 129.73 91.06 130.29
  L 96.89 148.92
  C 97.05 149.44 96.70 149.97 96.19 149.96
  L 85.07 149.74
  C 84.81 149.74 84.64 149.47 84.72 149.22
  L 90.29 131.92
  Q 90.38 131.64 90.38 130.94
  Z"
/>
<path fill="#5dc4e6" d="
  M 182.25 133.71
  Q 193.51 135.29 193.75 147.25
  Q 194.06 162.58 193.83 168.32
  C 193.82 168.62 193.59 168.85 193.31 168.86
  L 185.12 168.94
  C 184.47 168.95 183.98 168.34 184.08 167.67
  Q 184.73 163.29 183.13 165.39
  Q 180.07 169.40 175.00 169.79
  Q 169.25 170.30 165.92 166.90
  Q 162.95 163.87 163.09 158.87
  Q 163.32 150.09 173.44 148.17
  Q 178.19 147.27 183.40 146.71
  C 183.99 146.64 184.40 146.10 184.30 145.52
  Q 183.85 142.88 182.07 141.65
  Q 180.74 140.71 178.11 140.71
  Q 172.31 140.70 167.30 143.82
  Q 166.26 144.47 166.30 143.17
  L 166.46 137.08
  C 166.47 136.61 166.74 136.20 167.13 136.05
  Q 174.60 133.25 182.25 133.71
  Z
  M 174.21 161.59
  Q 177.92 163.31 180.82 161.27
  Q 184.91 158.38 184.26 153.32
  C 184.23 153.03 183.98 152.82 183.69 152.83
  Q 177.68 153.02 175.50 154.00
  Q 171.24 155.92 172.87 160.15
  C 173.11 160.79 173.59 161.31 174.21 161.59
  Z"
/>
<path fill="#5dc4e6" d="
  M 137.25 133.96
  L 141.07 133.99
  C 141.45 134.00 141.75 134.29 141.75 134.65
  L 141.70 142.94
  C 141.70 143.19 141.46 143.36 141.21 143.29
  Q 133.92 141.19 131.13 146.22
  Q 129.75 148.71 129.75 155.01
  Q 129.75 161.68 129.75 168.13
  C 129.75 168.61 129.36 169.00 128.88 169.00
  L 120.19 169.00
  C 119.81 169.00 119.50 168.69 119.50 168.31
  L 119.46 151.75
  L 119.73 135.00
  C 119.74 134.69 119.96 134.45 120.24 134.44
  L 129.06 134.39
  C 129.38 134.39 129.63 134.63 129.64 134.93
  L 129.64 139.69
  Q 129.64 140.32 130.02 140.01
  Q 130.21 139.85 130.33 139.57
  Q 132.28 134.92 137.25 133.96
  Z"
/>
<rect fill="#5dc4e6" x="146.49" y="134.27" width="10.02" height="34.72" rx="0.29"/>
<path fill="#eeefef" d="
  M 174.21 161.59
  C 173.59 161.31 173.11 160.79 172.87 160.15
  Q 171.24 155.92 175.50 154.00
  Q 177.68 153.02 183.69 152.83
  C 183.98 152.82 184.23 153.03 184.26 153.32
  Q 184.91 158.38 180.82 161.27
  Q 177.92 163.31 174.21 161.59
  Z"
/>
<path fill="#c5cbd4" fill-opacity="0.992" d="
  M 254.71 172.50
  Q 253.88 179.28 249.19 186.69
  Q 244.48 194.11 239.54 198.00
  L 239.44 197.61
  C 239.37 197.35 239.41 197.11 239.55 196.98
  Q 250.55 186.97 253.97 172.44
  Q 254.03 172.20 254.16 172.44
  Q 254.32 172.74 254.71 172.50
  Z"
/>
</svg>
