<?xml version="1.0" encoding="UTF-8" standalone="no"?>
<!DOCTYPE svg PUBLIC "-//W3C//DTD SVG 1.1//EN" "http://www.w3.org/Graphics/SVG/1.1/DTD/svg11.dtd">
<svg xmlns="http://www.w3.org/2000/svg" version="1.1" viewBox="0 0 128 128">
<g stroke-width="2.0" fill="none" stroke-linecap="butt">
<path stroke="#87adc9" vector-effect="non-scaling-stroke" d="
  M 101.50 31.21
  Q 100.45 31.75 98.00 31.75
  Q 40.51 31.82 28.25 31.75
  Q 27.24 31.74 27.71 30.75"
/>
<path stroke="#d0b28d" stroke-opacity="0.992" vector-effect="non-scaling-stroke" d="
  M 112.75 111.79
  Q 112.13 68.48 112.25 112.29
  C 112.25 112.72 111.91 113.06 111.48 113.06
  L 16.99 113.00
  C 16.31 113.00 15.75 112.44 15.75 111.76
  L 15.57 32.57
  C 15.56 32.18 15.69 31.86 15.91 31.70
  Q 16.16 31.51 16.50 31.46"
/>
<path stroke="#b89c86" stroke-opacity="0.996" vector-effect="non-scaling-stroke" d="
  M 27.25 31.04
  Q 21.93 32.23 16.50 31.46"
/>
<path stroke="#9b8974" stroke-opacity="0.988" vector-effect="non-scaling-stroke" d="
  M 16.50 31.46
  Q 16.07 31.12 15.50 31.21"
/>
<path stroke="#76624f" vector-effect="non-scaling-stroke" d="
  M 46.23 64.85
  C 46.23 60.42 42.63 56.82 38.20 56.82
  C 33.77 56.82 30.17 60.42 30.17 64.85
  C 30.17 69.28 33.77 72.88 38.20 72.88
  C 42.63 72.88 46.23 69.28 46.23 64.85"
/>
<path stroke="#76624f" vector-effect="non-scaling-stroke" d="
  M 97.28 64.02
  C 97.28 60.47 94.41 57.60 90.86 57.60
  C 87.31 57.60 84.44 60.47 84.44 64.02
  C 84.44 67.57 87.31 70.44 90.86 70.44
  C 94.41 70.44 97.28 67.57 97.28 64.02"
/>
<path stroke="#76624f" vector-effect="non-scaling-stroke" d="
  M 63.06 73.69
  Q 61.29 73.37 58.81 73.20
  C 58.55 73.19 58.36 73.42 58.42 73.67
  Q 59.67 78.75 63.81 79.91
  Q 66.86 80.76 69.49 79.17
  Q 72.30 77.47 72.87 73.81
  C 72.91 73.56 72.69 73.33 72.43 73.36
  Q 65.15 74.06 63.06 73.69"
/>
</g>
<path fill="#2196f3" d="
  M 101.50 31.21
  Q 100.45 31.75 98.00 31.75
  Q 40.51 31.82 28.25 31.75
  Q 27.24 31.74 27.71 30.75
  Q 28.26 28.50 30.36 28.61
  Q 32.05 28.71 32.14 28.70
  Q 34.38 28.58 36.88 28.49
  C 37.26 28.47 37.54 28.14 37.50 27.77
  Q 37.05 23.54 37.31 19.31
  Q 37.53 15.74 41.23 15.93
  Q 42.69 16.00 42.76 16.00
  Q 64.00 16.00 84.76 16.00
  Q 87.08 16.00 87.43 18.29
  Q 88.13 22.78 87.47 27.50
  C 87.39 28.03 87.80 28.50 88.34 28.50
  Q 92.19 28.50 96.11 28.50
  Q 96.18 28.50 97.88 28.37
  Q 100.80 28.14 101.50 31.21
  Z"
/>
<path fill="#83736d" fill-opacity="0.992" d="
  M 27.25 31.04
  Q 21.93 32.23 16.50 31.46
  Q 16.07 31.12 15.50 31.21
  L 27.25 31.04
  Z"
/>
<path fill="#ecc49e" d="
  M 27.71 30.75
  Q 27.24 31.74 28.25 31.75
  Q 40.51 31.82 98.00 31.75
  Q 100.45 31.75 101.50 31.21
  L 112.15 31.02
  C 112.59 31.01 112.94 31.39 112.92 31.85
  Q 112.61 39.09 112.75 46.46
  Q 112.93 55.69 112.83 61.04
  Q 112.58 75.05 112.86 89.06
  Q 112.97 94.18 112.82 100.42
  Q 112.69 106.10 112.75 111.79
  Q 112.13 68.48 112.25 112.29
  C 112.25 112.72 111.91 113.06 111.48 113.06
  L 16.99 113.00
  C 16.31 113.00 15.75 112.44 15.75 111.76
  L 15.57 32.57
  C 15.56 32.18 15.69 31.86 15.91 31.70
  Q 16.16 31.51 16.50 31.46
  Q 21.93 32.23 27.25 31.04
  L 27.71 30.75
  Z
  M 46.23 64.85
  C 46.23 60.42 42.63 56.82 38.20 56.82
  C 33.77 56.82 30.17 60.42 30.17 64.85
  C 30.17 69.28 33.77 72.88 38.20 72.88
  C 42.63 72.88 46.23 69.28 46.23 64.85
  Z
  M 97.28 64.02
  C 97.28 60.47 94.41 57.60 90.86 57.60
  C 87.31 57.60 84.44 60.47 84.44 64.02
  C 84.44 67.57 87.31 70.44 90.86 70.44
  C 94.41 70.44 97.28 67.57 97.28 64.02
  Z
  M 63.06 73.69
  Q 61.29 73.37 58.81 73.20
  C 58.55 73.19 58.36 73.42 58.42 73.67
  Q 59.67 78.75 63.81 79.91
  Q 66.86 80.76 69.49 79.17
  Q 72.30 77.47 72.87 73.81
  C 72.91 73.56 72.69 73.33 72.43 73.36
  Q 65.15 74.06 63.06 73.69
  Z"
/>
<path fill="#b39f7c" fill-opacity="0.984" d="
  M 15.50 31.21
  Q 16.07 31.12 16.50 31.46
  Q 16.16 31.51 15.91 31.70
  C 15.69 31.86 15.56 32.18 15.57 32.57
  L 15.75 111.76
  C 15.75 112.44 16.31 113.00 16.99 113.00
  L 111.48 113.06
  C 111.91 113.06 112.25 112.72 112.25 112.29
  Q 112.13 68.48 112.75 111.79
  Q 113.32 114.00 110.75 114.00
  Q 63.53 114.05 16.27 113.94
  C 15.61 113.94 15.07 113.40 15.06 112.73
  Q 14.95 72.97 15.00 32.75
  Q 15.00 31.68 15.50 31.21
  Z"
/>
<circle fill="#000000" cx="38.20" cy="64.85" r="8.03"/>
<circle fill="#000000" cx="90.86" cy="64.02" r="6.42"/>
<path fill="#000000" d="
  M 63.06 73.69
  Q 65.15 74.06 72.43 73.36
  C 72.69 73.33 72.91 73.56 72.87 73.81
  Q 72.30 77.47 69.49 79.17
  Q 66.86 80.76 63.81 79.91
  Q 59.67 78.75 58.42 73.67
  C 58.36 73.42 58.55 73.19 58.81 73.20
  Q 61.29 73.37 63.06 73.69
  Z"
/>
</svg>
