<?xml version="1.0" encoding="UTF-8" standalone="no"?>
<!DOCTYPE svg PUBLIC "-//W3C//DTD SVG 1.1//EN" "http://www.w3.org/Graphics/SVG/1.1/DTD/svg11.dtd">
<svg xmlns="http://www.w3.org/2000/svg" version="1.1" viewBox="0 0 128 128">
<g stroke-width="2.0" fill="none" stroke-linecap="butt">
<path stroke="#8a6e6c" vector-effect="non-scaling-stroke" d="
  M 41.21 26.88
  C 41.21 24.71 39.45 22.95 37.28 22.95
  C 35.11 22.95 33.35 24.71 33.35 26.88
  C 33.35 29.05 35.11 30.81 37.28 30.81
  C 39.45 30.81 41.21 29.05 41.21 26.88"
/>
<path stroke="#436585" vector-effect="non-scaling-stroke" d="
  M 51.63 26.87
  C 51.63 24.69 49.86 22.92 47.68 22.92
  C 45.50 22.92 43.73 24.69 43.73 26.87
  C 43.73 29.05 45.50 30.82 47.68 30.82
  C 49.86 30.82 51.63 29.05 51.63 26.87"
/>
<path stroke="#8a5060" vector-effect="non-scaling-stroke" d="
  M 30.83 26.88
  C 30.83 24.70 29.06 22.93 26.88 22.93
  C 24.70 22.93 22.93 24.70 22.93 26.88
  C 22.93 29.06 24.70 30.83 26.88 30.83
  C 29.06 30.83 30.83 29.06 30.83 26.88"
/>
<path stroke="#8e95c4" vector-effect="non-scaling-stroke" d="
  M 92.28 107.81
  Q 97.09 108.01 100.00 107.50
  Q 104.29 106.75 106.15 103.09
  Q 107.24 100.97 107.30 96.22
  Q 107.70 66.52 107.44 36.81
  C 107.44 36.53 107.21 36.31 106.93 36.31
  L 20.56 35.56
  C 20.42 35.56 20.31 35.67 20.31 35.81
  Q 20.00 63.29 20.00 90.77
  Q 20.00 99.45 20.52 101.18
  Q 22.39 107.42 30.75 107.43
  Q 57.66 107.45 84.58 107.55
  Q 86.13 107.55 92.28 107.81"
/>
<path stroke="#d9d9d9" vector-effect="non-scaling-stroke" d="
  M 99.2309 57.4355
  C 99.26 52.48 95.26 48.44 90.3080 48.4186
  L 37.4087 48.1416
  C 32.45 48.12 28.42 52.11 28.3919 57.0645
  L 28.3891 57.6045
  C 28.36 62.56 32.36 66.60 37.3120 66.6214
  L 90.2113 66.8984
  C 95.17 66.92 99.20 62.93 99.2281 57.9755
  L 99.2309 57.4355"
/>
<path stroke="#d9d9d9" vector-effect="non-scaling-stroke" d="
  M 79.1422 86.9518
  C 79.19 82.00 75.21 77.96 70.2607 77.9139
  L 37.3620 77.6268
  C 32.41 77.58 28.37 81.56 28.3241 86.5083
  L 28.3178 87.2282
  C 28.27 92.18 32.25 96.22 37.1993 96.2661
  L 70.0980 96.5532
  C 75.05 96.60 79.09 92.62 79.1359 87.6717
  L 79.1422 86.9518"
/>
<path stroke="#faa4a4" vector-effect="non-scaling-stroke" d="
  M 99.31 85.19
  Q 95.42 82.29 91.21 83.15
  Q 87.32 83.94 84.61 87.13
  Q 81.90 90.34 82.37 94.63
  Q 82.80 98.63 85.41 101.28
  Q 88.96 104.90 94.99 103.91
  Q 102.50 102.68 103.42 95.05
  Q 104.17 88.80 99.31 85.19"
/>
</g>
<path fill="#273493" d="
  M 111.0990 98.5516
  C 111.05 105.89 105.06 111.79 97.7266 111.7386
  L 29.0483 111.2591
  C 21.71 111.21 15.81 105.22 15.8614 97.8867
  L 16.3410 29.1884
  C 16.39 21.85 22.38 15.95 29.7134 16.0014
  L 98.3917 16.4809
  C 105.73 16.53 111.63 22.52 111.5786 29.8533
  L 111.0990 98.5516
  Z
  M 41.21 26.88
  C 41.21 24.71 39.45 22.95 37.28 22.95
  C 35.11 22.95 33.35 24.71 33.35 26.88
  C 33.35 29.05 35.11 30.81 37.28 30.81
  C 39.45 30.81 41.21 29.05 41.21 26.88
  Z
  M 51.63 26.87
  C 51.63 24.69 49.86 22.92 47.68 22.92
  C 45.50 22.92 43.73 24.69 43.73 26.87
  C 43.73 29.05 45.50 30.82 47.68 30.82
  C 49.86 30.82 51.63 29.05 51.63 26.87
  Z
  M 30.83 26.88
  C 30.83 24.70 29.06 22.93 26.88 22.93
  C 24.70 22.93 22.93 24.70 22.93 26.88
  C 22.93 29.06 24.70 30.83 26.88 30.83
  C 29.06 30.83 30.83 29.06 30.83 26.88
  Z
  M 92.28 107.81
  Q 97.09 108.01 100.00 107.50
  Q 104.29 106.75 106.15 103.09
  Q 107.24 100.97 107.30 96.22
  Q 107.70 66.52 107.44 36.81
  C 107.44 36.53 107.21 36.31 106.93 36.31
  L 20.56 35.56
  C 20.42 35.56 20.31 35.67 20.31 35.81
  Q 20.00 63.29 20.00 90.77
  Q 20.00 99.45 20.52 101.18
  Q 22.39 107.42 30.75 107.43
  Q 57.66 107.45 84.58 107.55
  Q 86.13 107.55 92.28 107.81
  Z"
/>
<circle fill="#eca844" cx="37.28" cy="26.88" r="3.93"/>
<circle fill="#5f9577" cx="47.68" cy="26.87" r="3.95"/>
<circle fill="#ed6c2c" cx="26.88" cy="26.88" r="3.95"/>
<path fill="#f5f5f5" d="
  M 84.58 107.55
  Q 57.66 107.45 30.75 107.43
  Q 22.39 107.42 20.52 101.18
  Q 20.00 99.45 20.00 90.77
  Q 20.00 63.29 20.31 35.81
  C 20.31 35.67 20.42 35.56 20.56 35.56
  L 106.93 36.31
  C 107.21 36.31 107.44 36.53 107.44 36.81
  Q 107.70 66.52 107.30 96.22
  Q 107.24 100.97 106.15 103.09
  Q 104.29 106.75 100.00 107.50
  Q 97.09 108.01 92.28 107.81
  Q 86.13 107.55 84.58 107.55
  Z
  M 99.2309 57.4355
  C 99.26 52.48 95.26 48.44 90.3080 48.4186
  L 37.4087 48.1416
  C 32.45 48.12 28.42 52.11 28.3919 57.0645
  L 28.3891 57.6045
  C 28.36 62.56 32.36 66.60 37.3120 66.6214
  L 90.2113 66.8984
  C 95.17 66.92 99.20 62.93 99.2281 57.9755
  L 99.2309 57.4355
  Z
  M 79.1422 86.9518
  C 79.19 82.00 75.21 77.96 70.2607 77.9139
  L 37.3620 77.6268
  C 32.41 77.58 28.37 81.56 28.3241 86.5083
  L 28.3178 87.2282
  C 28.27 92.18 32.25 96.22 37.1993 96.2661
  L 70.0980 96.5532
  C 75.05 96.60 79.09 92.62 79.1359 87.6717
  L 79.1422 86.9518
  Z
  M 99.31 85.19
  Q 95.42 82.29 91.21 83.15
  Q 87.32 83.94 84.61 87.13
  Q 81.90 90.34 82.37 94.63
  Q 82.80 98.63 85.41 101.28
  Q 88.96 104.90 94.99 103.91
  Q 102.50 102.68 103.42 95.05
  Q 104.17 88.80 99.31 85.19
  Z"
/>
<rect fill="#bdbdbd" x="-35.42" y="-9.24" transform="translate(63.81,57.52) rotate(0.3)" width="70.84" height="18.48" rx="8.97"/>
<rect fill="#bdbdbd" x="-25.41" y="-9.32" transform="translate(53.73,87.09) rotate(0.5)" width="50.82" height="18.64" rx="8.96"/>
<path fill="#ff5252" d="
  M 99.31 85.19
  Q 104.17 88.80 103.42 95.05
  Q 102.50 102.68 94.99 103.91
  Q 88.96 104.90 85.41 101.28
  Q 82.80 98.63 82.37 94.63
  Q 81.90 90.34 84.61 87.13
  Q 87.32 83.94 91.21 83.15
  Q 95.42 82.29 99.31 85.19
  Z"
/>
</svg>
