<?xml version="1.0" encoding="UTF-8" standalone="no"?>
<!DOCTYPE svg PUBLIC "-//W3C//DTD SVG 1.1//EN" "http://www.w3.org/Graphics/SVG/1.1/DTD/svg11.dtd">
<svg xmlns="http://www.w3.org/2000/svg" version="1.1" viewBox="0 0 180 180">
<g stroke-width="2.0" fill="none" stroke-linecap="butt">
<path stroke="#80414b" vector-effect="non-scaling-stroke" d="
  M 44.98 45.00
  C 44.98 38.79 39.95 33.76 33.74 33.76
  C 27.53 33.76 22.50 38.79 22.50 45.00
  C 22.50 51.21 27.53 56.24 33.74 56.24
  C 39.95 56.24 44.98 51.21 44.98 45.00"
/>
<path stroke="#807037" vector-effect="non-scaling-stroke" d="
  M 78.75 45.00
  C 78.75 38.79 73.71 33.75 67.50 33.75
  C 61.29 33.75 56.25 38.79 56.25 45.00
  C 56.25 51.21 61.29 56.25 67.50 56.25
  C 73.71 56.25 78.75 51.21 78.75 45.00"
/>
<path stroke="#147640" vector-effect="non-scaling-stroke" d="
  M 112.52 45.00
  C 112.52 38.78 107.48 33.74 101.26 33.74
  C 95.04 33.74 90.00 38.78 90.00 45.00
  C 90.00 51.22 95.04 56.26 101.26 56.26
  C 107.48 56.26 112.52 51.22 112.52 45.00"
/>
<path stroke="#8091a0" vector-effect="non-scaling-stroke" d="
  M 114.44 86.00
  C 114.44 84.90 113.55 84.01 112.45 84.01
  L 24.49 84.01
  C 23.39 84.01 22.50 84.90 22.50 86.00
  L 22.50 87.74
  C 22.50 88.84 23.39 89.73 24.49 89.73
  L 112.45 89.73
  C 113.55 89.73 114.44 88.84 114.44 87.74
  L 114.44 86.00"
/>
<path stroke="#8091a0" vector-effect="non-scaling-stroke" d="
  M 79.97 103.06
  C 79.97 101.92 79.05 101.00 77.91 101.00
  L 24.57 101.00
  C 23.43 101.00 22.51 101.92 22.51 103.06
  L 22.51 104.66
  C 22.51 105.80 23.43 106.72 24.57 106.72
  L 77.91 106.72
  C 79.05 106.72 79.97 105.80 79.97 104.66
  L 79.97 103.06"
/>
<path stroke="#8091a0" vector-effect="non-scaling-stroke" d="
  M 102.93 119.59
  C 102.93 118.70 102.21 117.98 101.32 117.98
  L 24.16 117.98
  C 23.27 117.98 22.55 118.70 22.55 119.59
  L 22.55 121.89
  C 22.55 122.78 23.27 123.50 24.16 123.50
  L 101.32 123.50
  C 102.21 123.50 102.93 122.78 102.93 121.89
  L 102.93 119.59"
/>
<path stroke="#8091a0" vector-effect="non-scaling-stroke" d="
  M 56.78 136.80
  C 56.78 135.81 55.97 135.00 54.98 135.00
  L 24.36 135.00
  C 23.37 135.00 22.56 135.81 22.56 136.80
  L 22.56 138.92
  C 22.56 139.91 23.37 140.72 24.36 140.72
  L 54.98 140.72
  C 55.97 140.72 56.78 139.91 56.78 138.92
  L 56.78 136.80"
/>
</g>
<path fill="#002240" d="
  M 180.00 26.06
  Q 180.00 90.19 180.00 154.31
  Q 177.15 165.40 167.96 168.01
  Q 165.35 168.75 151.47 168.75
  Q 88.28 168.75 25.09 168.75
  Q 13.77 168.75 10.09 167.26
  Q 2.22 164.07 0.00 154.19
  Q 0.00 90.06 0.00 25.94
  Q 2.69 14.65 11.98 12.00
  Q 14.60 11.25 28.59 11.25
  Q 94.67 11.25 160.75 11.25
  Q 176.74 11.25 180.00 26.06
  Z
  M 44.98 45.00
  C 44.98 38.79 39.95 33.76 33.74 33.76
  C 27.53 33.76 22.50 38.79 22.50 45.00
  C 22.50 51.21 27.53 56.24 33.74 56.24
  C 39.95 56.24 44.98 51.21 44.98 45.00
  Z
  M 78.75 45.00
  C 78.75 38.79 73.71 33.75 67.50 33.75
  C 61.29 33.75 56.25 38.79 56.25 45.00
  C 56.25 51.21 61.29 56.25 67.50 56.25
  C 73.71 56.25 78.75 51.21 78.75 45.00
  Z
  M 112.52 45.00
  C 112.52 38.78 107.48 33.74 101.26 33.74
  C 95.04 33.74 90.00 38.78 90.00 45.00
  C 90.00 51.22 95.04 56.26 101.26 56.26
  C 107.48 56.26 112.52 51.22 112.52 45.00
  Z
  M 114.44 86.00
  C 114.44 84.90 113.55 84.01 112.45 84.01
  L 24.49 84.01
  C 23.39 84.01 22.50 84.90 22.50 86.00
  L 22.50 87.74
  C 22.50 88.84 23.39 89.73 24.49 89.73
  L 112.45 89.73
  C 113.55 89.73 114.44 88.84 114.44 87.74
  L 114.44 86.00
  Z
  M 79.97 103.06
  C 79.97 101.92 79.05 101.00 77.91 101.00
  L 24.57 101.00
  C 23.43 101.00 22.51 101.92 22.51 103.06
  L 22.51 104.66
  C 22.51 105.80 23.43 106.72 24.57 106.72
  L 77.91 106.72
  C 79.05 106.72 79.97 105.80 79.97 104.66
  L 79.97 103.06
  Z
  M 102.93 119.59
  C 102.93 118.70 102.21 117.98 101.32 117.98
  L 24.16 117.98
  C 23.27 117.98 22.55 118.70 22.55 119.59
  L 22.55 121.89
  C 22.55 122.78 23.27 123.50 24.16 123.50
  L 101.32 123.50
  C 102.21 123.50 102.93 122.78 102.93 121.89
  L 102.93 119.59
  Z
  M 56.78 136.80
  C 56.78 135.81 55.97 135.00 54.98 135.00
  L 24.36 135.00
  C 23.37 135.00 22.56 135.81 22.56 136.80
  L 22.56 138.92
  C 22.56 139.91 23.37 140.72 24.36 140.72
  L 54.98 140.72
  C 55.97 140.72 56.78 139.91 56.78 138.92
  L 56.78 136.80
  Z"
/>
<circle fill="#ff5f56" cx="33.74" cy="45.00" r="11.24"/>
<circle fill="#ffbd2e" cx="67.50" cy="45.00" r="11.25"/>
<circle fill="#27c93f" cx="101.26" cy="45.00" r="11.26"/>
<rect fill="#ffffff" x="22.50" y="84.01" width="91.94" height="5.72" rx="1.99"/>
<rect fill="#ffffff" x="22.51" y="101.00" width="57.46" height="5.72" rx="2.06"/>
<rect fill="#ffffff" x="22.55" y="117.98" width="80.38" height="5.52" rx="1.61"/>
<rect fill="#ffffff" x="22.56" y="135.00" width="34.22" height="5.72" rx="1.80"/>
</svg>
