<?xml version="1.0" encoding="UTF-8" standalone="no"?>
<!DOCTYPE svg PUBLIC "-//W3C//DTD SVG 1.1//EN" "http://www.w3.org/Graphics/SVG/1.1/DTD/svg11.dtd">
<svg xmlns="http://www.w3.org/2000/svg" version="1.1" viewBox="0 0 180 180">
<g stroke-width="2.0" fill="none" stroke-linecap="butt">
<path stroke="#000b1d" vector-effect="non-scaling-stroke" d="
  M 180.00 51.81
  Q 179.37 89.69 180.00 127.56"
/>
<path stroke="#80858e" vector-effect="non-scaling-stroke" d="
  M 116.64 117.24
  C 116.32 116.93 116.27 116.44 116.51 116.09
  Q 134.31 90.29 117.13 64.47
  C 116.96 64.22 116.99 63.89 117.20 63.68
  L 127.39 53.60
  C 127.60 53.39 127.92 53.36 128.18 53.51
  Q 132.90 56.25 137.21 54.40
  Q 141.01 52.76 142.59 48.92
  Q 144.31 44.72 141.56 40.44
  Q 138.93 36.33 134.42 36.12
  Q 130.38 35.93 127.26 38.60
  Q 122.89 42.33 124.62 49.01
  C 124.70 49.32 124.62 49.64 124.41 49.86
  L 114.25 60.11
  C 114.04 60.32 113.72 60.32 113.51 60.12
  Q 103.87 50.85 91.68 48.26
  Q 82.08 46.22 71.92 49.01
  Q 52.86 54.26 44.57 72.70
  Q 41.74 78.98 41.00 85.10
  Q 40.19 91.78 41.56 98.19
  Q 45.06 114.53 58.75 124.75
  Q 71.31 134.13 86.85 132.64
  Q 94.25 131.93 100.67 128.90
  Q 107.30 125.78 112.59 120.53
  C 112.89 120.23 113.38 120.24 113.68 120.54
  L 124.15 131.39
  C 124.37 131.61 124.47 131.93 124.41 132.24
  Q 122.88 140.75 129.47 143.88
  Q 132.81 145.47 136.20 144.57
  Q 140.04 143.56 141.96 140.11
  Q 143.68 137.01 143.01 133.52
  Q 142.28 129.70 139.05 127.54
  Q 136.46 125.82 133.67 125.87
  Q 130.86 125.92 128.03 127.64
  C 127.74 127.81 127.37 127.76 127.12 127.52
  L 116.64 117.24"
/>
<path stroke="#80858e" vector-effect="non-scaling-stroke" d="
  M 80.16 100.40
  Q 72.93 97.17 73.66 89.91
  Q 74.30 83.65 79.10 80.81
  Q 84.54 77.59 92.01 81.66
  C 92.37 81.86 92.82 81.80 93.12 81.50
  L 106.98 67.64
  C 107.34 67.28 107.34 66.70 106.98 66.34
  Q 99.86 59.40 90.94 57.26
  Q 82.23 55.17 73.29 58.03
  Q 60.17 62.22 53.49 75.65
  Q 47.21 88.28 52.00 101.00
  Q 58.06 117.08 73.18 122.12
  Q 82.05 125.07 90.47 123.04
  Q 99.09 120.95 106.29 114.38
  C 106.64 114.06 106.66 113.53 106.33 113.20
  L 92.36 99.35
  C 92.16 99.15 91.83 99.12 91.58 99.28
  Q 89.04 100.93 86.14 101.34
  Q 83.21 101.76 80.16 100.40"
/>
<path stroke="#80858e" vector-effect="non-scaling-stroke" d="
  M 99.84 81.34
  Q 97.94 83.44 95.91 85.47
  C 95.49 85.89 95.34 86.51 95.52 87.07
  Q 96.63 90.47 95.24 94.52
  C 95.07 95.02 95.19 95.57 95.56 95.94
  L 109.27 109.65
  C 109.58 109.95 110.08 109.90 110.31 109.54
  Q 122.88 90.28 110.95 71.23
  C 110.81 71.01 110.51 70.97 110.30 71.14
  Q 104.76 75.92 99.84 81.34"
/>
</g>
<path fill="#000b1d" d="
  M 180.00 31.31
  Q 180.00 41.56 180.00 51.81
  Q 179.37 89.69 180.00 127.56
  Q 180.00 139.06 180.00 150.56
  Q 175.89 171.59 156.82 177.23
  Q 152.53 178.50 145.54 178.50
  Q 90.01 178.50 34.48 178.50
  Q 27.46 178.50 23.17 177.23
  Q 3.99 171.58 0.00 150.44
  Q 0.00 90.69 0.00 30.94
  Q 4.18 9.47 23.10 4.22
  Q 28.41 2.75 40.04 2.75
  Q 92.89 2.75 145.75 2.75
  Q 168.79 2.75 177.94 23.06
  Q 179.04 25.50 180.00 31.31
  Z
  M 116.64 117.24
  C 116.32 116.93 116.27 116.44 116.51 116.09
  Q 134.31 90.29 117.13 64.47
  C 116.96 64.22 116.99 63.89 117.20 63.68
  L 127.39 53.60
  C 127.60 53.39 127.92 53.36 128.18 53.51
  Q 132.90 56.25 137.21 54.40
  Q 141.01 52.76 142.59 48.92
  Q 144.31 44.72 141.56 40.44
  Q 138.93 36.33 134.42 36.12
  Q 130.38 35.93 127.26 38.60
  Q 122.89 42.33 124.62 49.01
  C 124.70 49.32 124.62 49.64 124.41 49.86
  L 114.25 60.11
  C 114.04 60.32 113.72 60.32 113.51 60.12
  Q 103.87 50.85 91.68 48.26
  Q 82.08 46.22 71.92 49.01
  Q 52.86 54.26 44.57 72.70
  Q 41.74 78.98 41.00 85.10
  Q 40.19 91.78 41.56 98.19
  Q 45.06 114.53 58.75 124.75
  Q 71.31 134.13 86.85 132.64
  Q 94.25 131.93 100.67 128.90
  Q 107.30 125.78 112.59 120.53
  C 112.89 120.23 113.38 120.24 113.68 120.54
  L 124.15 131.39
  C 124.37 131.61 124.47 131.93 124.41 132.24
  Q 122.88 140.75 129.47 143.88
  Q 132.81 145.47 136.20 144.57
  Q 140.04 143.56 141.96 140.11
  Q 143.68 137.01 143.01 133.52
  Q 142.28 129.70 139.05 127.54
  Q 136.46 125.82 133.67 125.87
  Q 130.86 125.92 128.03 127.64
  C 127.74 127.81 127.37 127.76 127.12 127.52
  L 116.64 117.24
  Z"
/>
<path fill="#ffffff" d="
  M 116.64 117.24
  L 127.12 127.52
  C 127.37 127.76 127.74 127.81 128.03 127.64
  Q 130.86 125.92 133.67 125.87
  Q 136.46 125.82 139.05 127.54
  Q 142.28 129.70 143.01 133.52
  Q 143.68 137.01 141.96 140.11
  Q 140.04 143.56 136.20 144.57
  Q 132.81 145.47 129.47 143.88
  Q 122.88 140.75 124.41 132.24
  C 124.47 131.93 124.37 131.61 124.15 131.39
  L 113.68 120.54
  C 113.38 120.24 112.89 120.23 112.59 120.53
  Q 107.30 125.78 100.67 128.90
  Q 94.25 131.93 86.85 132.64
  Q 71.31 134.13 58.75 124.75
  Q 45.06 114.53 41.56 98.19
  Q 40.19 91.78 41.00 85.10
  Q 41.74 78.98 44.57 72.70
  Q 52.86 54.26 71.92 49.01
  Q 82.08 46.22 91.68 48.26
  Q 103.87 50.85 113.51 60.12
  C 113.72 60.32 114.04 60.32 114.25 60.11
  L 124.41 49.86
  C 124.62 49.64 124.70 49.32 124.62 49.01
  Q 122.89 42.33 127.26 38.60
  Q 130.38 35.93 134.42 36.12
  Q 138.93 36.33 141.56 40.44
  Q 144.31 44.72 142.59 48.92
  Q 141.01 52.76 137.21 54.40
  Q 132.90 56.25 128.18 53.51
  C 127.92 53.36 127.60 53.39 127.39 53.60
  L 117.20 63.68
  C 116.99 63.89 116.96 64.22 117.13 64.47
  Q 134.31 90.29 116.51 116.09
  C 116.27 116.44 116.32 116.93 116.64 117.24
  Z
  M 80.16 100.40
  Q 72.93 97.17 73.66 89.91
  Q 74.30 83.65 79.10 80.81
  Q 84.54 77.59 92.01 81.66
  C 92.37 81.86 92.82 81.80 93.12 81.50
  L 106.98 67.64
  C 107.34 67.28 107.34 66.70 106.98 66.34
  Q 99.86 59.40 90.94 57.26
  Q 82.23 55.17 73.29 58.03
  Q 60.17 62.22 53.49 75.65
  Q 47.21 88.28 52.00 101.00
  Q 58.06 117.08 73.18 122.12
  Q 82.05 125.07 90.47 123.04
  Q 99.09 120.95 106.29 114.38
  C 106.64 114.06 106.66 113.53 106.33 113.20
  L 92.36 99.35
  C 92.16 99.15 91.83 99.12 91.58 99.28
  Q 89.04 100.93 86.14 101.34
  Q 83.21 101.76 80.16 100.40
  Z
  M 99.84 81.34
  Q 97.94 83.44 95.91 85.47
  C 95.49 85.89 95.34 86.51 95.52 87.07
  Q 96.63 90.47 95.24 94.52
  C 95.07 95.02 95.19 95.57 95.56 95.94
  L 109.27 109.65
  C 109.58 109.95 110.08 109.90 110.31 109.54
  Q 122.88 90.28 110.95 71.23
  C 110.81 71.01 110.51 70.97 110.30 71.14
  Q 104.76 75.92 99.84 81.34
  Z"
/>
<path fill="#000b1d" d="
  M 180.00 51.81
  Q 180.00 89.69 180.00 127.56
  Q 179.37 89.69 180.00 51.81
  Z"
/>
<path fill="#000b1d" d="
  M 86.14 101.34
  Q 89.04 100.93 91.58 99.28
  C 91.83 99.12 92.16 99.15 92.36 99.35
  L 106.33 113.20
  C 106.66 113.53 106.64 114.06 106.29 114.38
  Q 99.09 120.95 90.47 123.04
  Q 82.05 125.07 73.18 122.12
  Q 58.06 117.08 52.00 101.00
  Q 47.21 88.28 53.49 75.65
  Q 60.17 62.22 73.29 58.03
  Q 82.23 55.17 90.94 57.26
  Q 99.86 59.40 106.98 66.34
  C 107.34 66.70 107.34 67.28 106.98 67.64
  L 93.12 81.50
  C 92.82 81.80 92.37 81.86 92.01 81.66
  Q 84.54 77.59 79.10 80.81
  Q 74.30 83.65 73.66 89.91
  Q 72.93 97.17 80.16 100.40
  Q 83.21 101.76 86.14 101.34
  Z"
/>
<path fill="#000b1d" d="
  M 99.84 81.34
  Q 104.76 75.92 110.30 71.14
  C 110.51 70.97 110.81 71.01 110.95 71.23
  Q 122.88 90.28 110.31 109.54
  C 110.08 109.90 109.58 109.95 109.27 109.65
  L 95.56 95.94
  C 95.19 95.57 95.07 95.02 95.24 94.52
  Q 96.63 90.47 95.52 87.07
  C 95.34 86.51 95.49 85.89 95.91 85.47
  Q 97.94 83.44 99.84 81.34
  Z"
/>
</svg>
