<?xml version="1.0" encoding="UTF-8" standalone="no"?>
<!DOCTYPE svg PUBLIC "-//W3C//DTD SVG 1.1//EN" "http://www.w3.org/Graphics/SVG/1.1/DTD/svg11.dtd">
<svg xmlns="http://www.w3.org/2000/svg" version="1.1" viewBox="0 0 192 192">
<g stroke-width="2.0" fill="none" stroke-linecap="butt">
<path stroke="#93bedb" vector-effect="non-scaling-stroke" d="
  M 110.10 78.72
  L 143.70 127.77
  C 143.97 128.16 144.46 128.33 144.90 128.19
  L 170.46 120.11
  C 170.88 119.98 171.05 119.47 170.79 119.11
  L 136.32 71.80
  C 136.10 71.50 136.10 71.09 136.33 70.79
  L 171.04 26.12
  C 171.27 25.83 171.12 25.39 170.76 25.31
  L 144.49 19.35
  C 144.19 19.28 143.88 19.40 143.70 19.65
  L 110.45 64.05
  Q 109.74 65.00 109.75 63.82
  L 110.00 18.62
  C 110.00 18.35 109.77 18.13 109.51 18.16
  L 84.81 20.47
  C 84.35 20.51 84.00 20.90 84.00 21.36
  L 84.00 126.52
  C 84.00 126.95 84.38 127.27 84.80 127.21
  L 108.84 123.56
  C 109.36 123.48 109.75 123.03 109.75 122.50
  L 109.81 78.81
  Q 109.81 78.30 110.10 78.72"
/>
<path stroke="#93bedb" vector-effect="non-scaling-stroke" d="
  M 46.46 87.29
  L 25.02 91.85
  C 24.43 91.97 24.00 92.49 24.00 93.09
  L 24.00 107.33
  C 24.00 107.99 24.45 108.56 25.08 108.72
  L 45.79 113.82
  C 46.10 113.89 46.34 114.13 46.42 114.44
  Q 48.05 120.77 51.02 126.28
  C 51.30 126.80 51.27 127.43 50.95 127.92
  L 39.46 145.52
  C 38.92 146.34 39.02 147.40 39.69 148.04
  L 50.06 157.87
  C 50.27 158.07 50.60 158.10 50.87 157.94
  L 70.08 146.51
  C 70.35 146.35 70.67 146.35 70.93 146.49
  Q 76.28 149.43 82.10 151.29
  C 82.38 151.38 82.60 151.62 82.66 151.92
  L 87.04 172.81
  C 87.19 173.50 87.79 174.00 88.50 174.00
  L 102.08 174.00
  C 103.05 174.00 103.90 173.34 104.13 172.40
  L 109.16 152.05
  C 109.25 151.69 109.53 151.38 109.93 151.21
  L 121.19 146.43
  C 121.68 146.22 122.21 146.25 122.59 146.50
  L 140.99 158.55
  C 141.37 158.81 141.88 158.76 142.20 158.45
  L 152.27 148.57
  C 152.95 147.91 153.07 146.84 152.55 145.99
  L 146.37 135.78
  C 146.05 135.26 145.38 135.10 144.88 135.43
  Q 143.45 136.38 142.41 134.87
  Q 137.90 128.26 132.94 121.15
  C 132.79 120.93 132.46 120.95 132.33 121.18
  Q 123.43 136.99 107.14 141.52
  Q 99.18 143.73 91.22 142.86
  Q 82.88 141.96 75.69 137.81
  Q 64.07 131.12 58.68 119.47
  Q 54.46 110.36 54.83 100.04
  Q 55.42 83.88 67.56 72.06
  Q 71.73 68.00 78.37 64.54
  C 78.66 64.39 78.84 64.11 78.84 63.82
  L 78.98 54.24
  C 78.98 53.98 78.72 53.81 78.48 53.91
  L 72.16 56.70
  C 71.77 56.87 71.33 56.85 71.01 56.64
  L 51.99 44.24
  C 51.51 43.93 50.88 44.00 50.48 44.40
  L 40.34 54.54
  C 39.87 55.00 39.78 55.73 40.12 56.29
  L 51.72 75.45
  C 51.89 75.73 51.89 76.07 51.73 76.34
  Q 48.78 81.49 47.09 86.72
  C 46.99 87.01 46.75 87.23 46.46 87.29"
/>
</g>
<path fill="#2980b9" d="
  M 0.00 0.00
  Q 96.00 0.00 192.00 0.00
  Q 192.00 96.00 192.00 192.00
  Q 96.00 192.00 0.00 192.00
  Q 0.00 96.00 0.00 0.00
  Z
  M 110.10 78.72
  L 143.70 127.77
  C 143.97 128.16 144.46 128.33 144.90 128.19
  L 170.46 120.11
  C 170.88 119.98 171.05 119.47 170.79 119.11
  L 136.32 71.80
  C 136.10 71.50 136.10 71.09 136.33 70.79
  L 171.04 26.12
  C 171.27 25.83 171.12 25.39 170.76 25.31
  L 144.49 19.35
  C 144.19 19.28 143.88 19.40 143.70 19.65
  L 110.45 64.05
  Q 109.74 65.00 109.75 63.82
  L 110.00 18.62
  C 110.00 18.35 109.77 18.13 109.51 18.16
  L 84.81 20.47
  C 84.35 20.51 84.00 20.90 84.00 21.36
  L 84.00 126.52
  C 84.00 126.95 84.38 127.27 84.80 127.21
  L 108.84 123.56
  C 109.36 123.48 109.75 123.03 109.75 122.50
  L 109.81 78.81
  Q 109.81 78.30 110.10 78.72
  Z
  M 46.46 87.29
  L 25.02 91.85
  C 24.43 91.97 24.00 92.49 24.00 93.09
  L 24.00 107.33
  C 24.00 107.99 24.45 108.56 25.08 108.72
  L 45.79 113.82
  C 46.10 113.89 46.34 114.13 46.42 114.44
  Q 48.05 120.77 51.02 126.28
  C 51.30 126.80 51.27 127.43 50.95 127.92
  L 39.46 145.52
  C 38.92 146.34 39.02 147.40 39.69 148.04
  L 50.06 157.87
  C 50.27 158.07 50.60 158.10 50.87 157.94
  L 70.08 146.51
  C 70.35 146.35 70.67 146.35 70.93 146.49
  Q 76.28 149.43 82.10 151.29
  C 82.38 151.38 82.60 151.62 82.66 151.92
  L 87.04 172.81
  C 87.19 173.50 87.79 174.00 88.50 174.00
  L 102.08 174.00
  C 103.05 174.00 103.90 173.34 104.13 172.40
  L 109.16 152.05
  C 109.25 151.69 109.53 151.38 109.93 151.21
  L 121.19 146.43
  C 121.68 146.22 122.21 146.25 122.59 146.50
  L 140.99 158.55
  C 141.37 158.81 141.88 158.76 142.20 158.45
  L 152.27 148.57
  C 152.95 147.91 153.07 146.84 152.55 145.99
  L 146.37 135.78
  C 146.05 135.26 145.38 135.10 144.88 135.43
  Q 143.45 136.38 142.41 134.87
  Q 137.90 128.26 132.94 121.15
  C 132.79 120.93 132.46 120.95 132.33 121.18
  Q 123.43 136.99 107.14 141.52
  Q 99.18 143.73 91.22 142.86
  Q 82.88 141.96 75.69 137.81
  Q 64.07 131.12 58.68 119.47
  Q 54.46 110.36 54.83 100.04
  Q 55.42 83.88 67.56 72.06
  Q 71.73 68.00 78.37 64.54
  C 78.66 64.39 78.84 64.11 78.84 63.82
  L 78.98 54.24
  C 78.98 53.98 78.72 53.81 78.48 53.91
  L 72.16 56.70
  C 71.77 56.87 71.33 56.85 71.01 56.64
  L 51.99 44.24
  C 51.51 43.93 50.88 44.00 50.48 44.40
  L 40.34 54.54
  C 39.87 55.00 39.78 55.73 40.12 56.29
  L 51.72 75.45
  C 51.89 75.73 51.89 76.07 51.73 76.34
  Q 48.78 81.49 47.09 86.72
  C 46.99 87.01 46.75 87.23 46.46 87.29
  Z"
/>
<path fill="#fcfcfc" d="
  M 109.81 78.81
  L 109.75 122.50
  C 109.75 123.03 109.36 123.48 108.84 123.56
  L 84.80 127.21
  C 84.38 127.27 84.00 126.95 84.00 126.52
  L 84.00 21.36
  C 84.00 20.90 84.35 20.51 84.81 20.47
  L 109.51 18.16
  C 109.77 18.13 110.00 18.35 110.00 18.62
  L 109.75 63.82
  Q 109.74 65.00 110.45 64.05
  L 143.70 19.65
  C 143.88 19.40 144.19 19.28 144.49 19.35
  L 170.76 25.31
  C 171.12 25.39 171.27 25.83 171.04 26.12
  L 136.33 70.79
  C 136.10 71.09 136.10 71.50 136.32 71.80
  L 170.79 119.11
  C 171.05 119.47 170.88 119.98 170.46 120.11
  L 144.90 128.19
  C 144.46 128.33 143.97 128.16 143.70 127.77
  L 110.10 78.72
  Q 109.81 78.30 109.81 78.81
  Z"
/>
<path fill="#fcfcfc" d="
  M 47.09 86.72
  Q 48.78 81.49 51.73 76.34
  C 51.89 76.07 51.89 75.73 51.72 75.45
  L 40.12 56.29
  C 39.78 55.73 39.87 55.00 40.34 54.54
  L 50.48 44.40
  C 50.88 44.00 51.51 43.93 51.99 44.24
  L 71.01 56.64
  C 71.33 56.85 71.77 56.87 72.16 56.70
  L 78.48 53.91
  C 78.72 53.81 78.98 53.98 78.98 54.24
  L 78.84 63.82
  C 78.84 64.11 78.66 64.39 78.37 64.54
  Q 71.73 68.00 67.56 72.06
  Q 55.42 83.88 54.83 100.04
  Q 54.46 110.36 58.68 119.47
  Q 64.07 131.12 75.69 137.81
  Q 82.88 141.96 91.22 142.86
  Q 99.18 143.73 107.14 141.52
  Q 123.43 136.99 132.33 121.18
  C 132.46 120.95 132.79 120.93 132.94 121.15
  Q 137.90 128.26 142.41 134.87
  Q 143.45 136.38 144.88 135.43
  C 145.38 135.10 146.05 135.26 146.37 135.78
  L 152.55 145.99
  C 153.07 146.84 152.95 147.91 152.27 148.57
  L 142.20 158.45
  C 141.88 158.76 141.37 158.81 140.99 158.55
  L 122.59 146.50
  C 122.21 146.25 121.68 146.22 121.19 146.43
  L 109.93 151.21
  C 109.53 151.38 109.25 151.69 109.16 152.05
  L 104.13 172.40
  C 103.90 173.34 103.05 174.00 102.08 174.00
  L 88.50 174.00
  C 87.79 174.00 87.19 173.50 87.04 172.81
  L 82.66 151.92
  C 82.60 151.62 82.38 151.38 82.10 151.29
  Q 76.28 149.43 70.93 146.49
  C 70.67 146.35 70.35 146.35 70.08 146.51
  L 50.87 157.94
  C 50.60 158.10 50.27 158.07 50.06 157.87
  L 39.69 148.04
  C 39.02 147.40 38.92 146.34 39.46 145.52
  L 50.95 127.92
  C 51.27 127.43 51.30 126.80 51.02 126.28
  Q 48.05 120.77 46.42 114.44
  C 46.34 114.13 46.10 113.89 45.79 113.82
  L 25.08 108.72
  C 24.45 108.56 24.00 107.99 24.00 107.33
  L 24.00 93.09
  C 24.00 92.49 24.43 91.97 25.02 91.85
  L 46.46 87.29
  C 46.75 87.23 46.99 87.01 47.09 86.72
  Z"
/>
</svg>
