<svg viewBox="0 0 50 50" xmlns="http://www.w3.org/2000/svg"><defs><style>.b,.e{stroke:#45413c;stroke-linecap:round;stroke-linejoin:round;stroke-width:1.25px}.b{fill:#6dd627}.e{fill:none}.f{fill:#fff48c}.g{fill:#fffacf}.h{fill:#45413c}</style></defs><path d="M32.806 18.988l4.148-3.2a.853.853 0 011.371.757l-.392 4.094 4.538-1.086a.854.854 0 011.029 1.039l-1.224 4.752 3.476.446a.853.853 0 01.535 1.407l-2.665 3.065z" stroke="#45413c" stroke-linecap="round" stroke-linejoin="round" stroke-width="1.25" fill="#46b000"/><path class="b" d="M44.48 32.013q-.162-.682-.374-1.355a34.305 34.305 0 00-4.33-8.354l-.208-.313c-4-6-13.413-3.685-13.413-3.685l-5.723 4.182 2.868 8.177c4.714 2.02 10.859 1.179 14.042.516l.042-.009a1.648 1.648 0 01.362-.013c2.545.111 3.427 1.315 3.819 3.832.426 2.734 1.346 6.656-.13 8.62a6.447 6.447 0 01-3.388 2.189 4.054 4.054 0 01-3.5-.375 2.5 2.5 0 01-.829-2.7 1.47 1.47 0 01.753-.9 1.821 1.821 0 01.619-.175 1.406 1.406 0 01.6-.007 1.628 1.628 0 01.554.2c.7.407 1.237 1.677 2.228 1.1 1.021-.6.311-2.265-.229-2.956a3.906 3.906 0 00-1.521-1.159 3.985 3.985 0 00-1.858-.315 4.42 4.42 0 00-1.789.436 4.68 4.68 0 00-2.38 2.821 5.686 5.686 0 00.033 3.414 5.328 5.328 0 002.055 2.795 7.011 7.011 0 006.128.6 8.861 8.861 0 004.673-3.451 10.852 10.852 0 001.521-5.54 26.344 26.344 0 00-.625-7.575z"/><path class="b" d="M20.07 29.708a14.357 14.357 0 00-.267 2.841 2.568 2.568 0 00-.829.319.914.914 0 00-.433.739c.011.475.5.794.959.92a6.348 6.348 0 002.214.084q1.359-.111 2.717-.247a1.971 1.971 0 001.546-.652A1.988 1.988 0 0026 32.129l-.181-.665-.621-2.29zM34.575 28.629a5.256 5.256 0 00-.869 1.554 13.436 13.436 0 00-.6 2.994 2.59 2.59 0 00-.855.241.911.911 0 00-.5.7c-.034.474.424.837.868 1.006a6.362 6.362 0 002.2.291q1.365.017 2.729.008a1.979 1.979 0 001.6-.505 1.987 1.987 0 00.168-1.574l-.323-1.868a57.43 57.43 0 00-.2-.921"/><path d="M29.5 6.38c-.6-.326-.936-5.389-5.936-1.389-.625.5-1-4-3-4-3.327 0-2.159 3.834-5.316 4.981a14.338 14.338 0 00-8.533 9.139 32.1 32.1 0 00-.993 3.71c-.087.4-.139 1.529-.537 1.784a3.414 3.414 0 00-.978 5c1.266 1.579 3.881 3.2 9.228 3.764 0 0 12.922 2.476 18.091-4.951C35.24 19.082 35.65 9.742 29.5 6.38z" fill="#9ceb60"/><path d="M30.033 6.723c2.781 4.292 1.925 10.984-1 15.191-5.169 7.427-18.091 4.951-18.091 4.951a17.771 17.771 0 01-7.172-2.036 3.175 3.175 0 00.444.772c1.266 1.579 3.881 3.2 9.228 3.764 0 0 12.922 2.476 18.091-4.951 3.594-5.168 4.067-14.086-1.5-17.691z" fill="#6dd627"/><path class="e" d="M29.5 6.38c-.6-.326-.936-5.389-5.936-1.389-.625.5-1-4-3-4-3.327 0-2.159 3.834-5.316 4.981a14.338 14.338 0 00-8.533 9.139 32.1 32.1 0 00-.993 3.71c-.087.4-.139 1.529-.537 1.784a3.414 3.414 0 00-.978 5c1.266 1.579 3.881 3.2 9.228 3.764 0 0 12.922 2.476 18.091-4.951C35.24 19.082 35.65 9.742 29.5 6.38z"/><circle class="f" cx="9.758" cy="12.268" r="6.094"/><path class="g" d="M8.758 8.174a6.08 6.08 0 015.856 7.765A6.09 6.09 0 103.9 10.6a6.077 6.077 0 014.858-2.426z"/><circle class="e" cx="9.758" cy="12.268" r="6.094"/><circle class="h eye" cx="8.068" cy="13.491" r="2"/><circle class="f" cx="24.758" cy="13.268" r="6.094"/><path class="g" d="M19.663 15.268A6.089 6.089 0 0130.614 11.6 6.091 6.091 0 1019.9 16.939a6.068 6.068 0 01-.237-1.671z"/><circle class="e" cx="24.758" cy="13.268" r="6.094"/><circle class="h eye" cx="26.068" cy="15.491" r="2"/><path class="e" d="M11.568 22.991v1M13.568 22.991v1"/><path class="f" d="M16.109 8.106a.8.8 0 00.383.85 2.036 2.036 0 00.456.09c.249.044.479.161.724.223A1.518 1.518 0 0018.98 9a1.334 1.334 0 00-.369-2.248 2.032 2.032 0 00-2.502 1.354zM36.451 23.029a3.489 3.489 0 01-.908 1.878 5.9 5.9 0 01-1.7 1.252.9.9 0 01-.746.127.652.652 0 01-.281-.786 2.244 2.244 0 01.5-.756 16.4 16.4 0 001.133-1.572 3.334 3.334 0 00.584-1.151 5.973 5.973 0 00-.113-1.625.351.351 0 01.069-.313.23.23 0 01.26-.007 3.347 3.347 0 011.202 2.953zM37.676 24.528a3.034 3.034 0 01-.371.664 1.172 1.172 0 00-.183.378.424.424 0 00.1.394.641.641 0 00.427.125.859.859 0 00.328-.026.742.742 0 00.265-.186 2.485 2.485 0 00.673-2.212c-.066-.329-.444-1.076-.876-.767-.403.285-.221 1.212-.363 1.63zM39.385 27.172a.3.3 0 00.007.141.249.249 0 00.153.132.678.678 0 00.669-.19 1.442 1.442 0 00.388-1.164c-.039-.506-.369-.575-.66-.213a2.5 2.5 0 00-.557 1.294z"/><path class="e" d="M21.858 26.548a28.1 28.1 0 01-10.919.317 17.771 17.771 0 01-7.172-2.036"/></svg>