<?xml version="1.0" encoding="UTF-8" standalone="no"?>
<!DOCTYPE svg PUBLIC "-//W3C//DTD SVG 1.1//EN" "http://www.w3.org/Graphics/SVG/1.1/DTD/svg11.dtd">
<svg xmlns="http://www.w3.org/2000/svg" version="1.1" viewBox="0 0 180 180">
<g stroke-width="2.0" fill="none" stroke-linecap="butt">
<path stroke="#ffffff" stroke-opacity="0.992" vector-effect="non-scaling-stroke" d="
  M 148.21 0.37
  C 148.21 0.30 148.16 0.25 148.09 0.25
  L 32.67 0.25
  C 32.60 0.25 32.55 0.30 32.55 0.37
  L 32.55 0.39
  C 32.55 0.46 32.60 0.51 32.67 0.51
  L 148.09 0.51
  C 148.16 0.51 148.21 0.46 148.21 0.39
  L 148.21 0.37"
/>
<path stroke="#ff9999" vector-effect="non-scaling-stroke" d="
  M 160.91 90.00
  C 160.91 50.84 129.16 19.09 90.00 19.09
  C 50.84 19.09 19.09 50.84 19.09 90.00
  C 19.09 129.16 50.84 160.91 90.00 160.91
  C 129.16 160.91 160.91 129.16 160.91 90.00"
/>
<path stroke="#ff9999" vector-effect="non-scaling-stroke" d="
  M 133.76 89.43
  Q 131.75 70.54 117.74 57.77
  Q 104.98 46.15 87.50 47.21
  Q 77.81 47.79 68.26 51.98
  Q 67.68 52.24 68.31 52.32
  Q 83.48 54.23 93.81 63.11
  Q 100.32 68.70 103.60 74.35
  Q 107.47 81.01 107.32 89.31
  C 107.31 89.60 107.09 89.83 106.82 89.84
  L 94.82 89.99
  Q 93.56 90.01 94.39 90.93
  L 119.53 118.89
  C 119.73 119.11 120.07 119.11 120.26 118.89
  L 145.47 90.90
  Q 146.27 90.01 145.06 90.00
  L 134.30 89.95
  C 134.03 89.95 133.79 89.73 133.76 89.43"
/>
<path stroke="#ff9999" vector-effect="non-scaling-stroke" d="
  M 72.50 90.77
  C 72.50 90.34 72.85 90.00 73.28 89.99
  L 85.45 89.94
  Q 86.20 89.94 85.70 89.37
  L 60.34 61.12
  C 60.16 60.92 59.85 60.92 59.67 61.12
  L 34.35 89.32
  Q 33.73 90.00 34.65 90.00
  Q 38.70 90.00 42.87 90.00
  Q 42.96 90.00 44.62 89.85
  Q 46.64 89.67 46.66 91.49
  Q 46.69 93.96 46.70 94.00
  Q 49.45 109.89 61.05 121.20
  Q 74.06 133.87 92.50 132.80
  Q 102.19 132.24 111.35 128.18
  Q 112.63 127.62 111.24 127.51
  Q 97.11 126.38 86.67 117.37
  Q 80.05 111.65 76.62 105.93
  Q 72.57 99.16 72.50 90.77"
/>
</g>
<path fill="#ffffff" d="
  M 29.81 0.00
  Q 90.19 0.00 150.56 0.00
  Q 176.86 3.90 180.00 30.31
  Q 180.00 90.19 180.00 150.06
  Q 176.53 176.43 150.19 180.00
  Q 90.19 180.00 30.19 180.00
  Q 3.76 176.75 0.00 150.44
  Q 0.00 89.94 0.00 29.44
  Q 3.83 3.56 29.81 0.00
  Z
  M 148.21 0.37
  C 148.21 0.30 148.16 0.25 148.09 0.25
  L 32.67 0.25
  C 32.60 0.25 32.55 0.30 32.55 0.37
  L 32.55 0.39
  C 32.55 0.46 32.60 0.51 32.67 0.51
  L 148.09 0.51
  C 148.16 0.51 148.21 0.46 148.21 0.39
  L 148.21 0.37
  Z
  M 160.91 90.00
  C 160.91 50.84 129.16 19.09 90.00 19.09
  C 50.84 19.09 19.09 50.84 19.09 90.00
  C 19.09 129.16 50.84 160.91 90.00 160.91
  C 129.16 160.91 160.91 129.16 160.91 90.00
  Z"
/>
<rect fill="#fffefe" fill-opacity="0.980" x="32.55" y="0.25" width="115.66" height="0.26" rx="0.12"/>
<path fill="#ff3333" d="
  M 160.91 90.00
  C 160.91 129.16 129.16 160.91 90.00 160.91
  C 50.84 160.91 19.09 129.16 19.09 90.00
  C 19.09 50.84 50.84 19.09 90.00 19.09
  C 129.16 19.09 160.91 50.84 160.91 90.00
  Z
  M 133.76 89.43
  Q 131.75 70.54 117.74 57.77
  Q 104.98 46.15 87.50 47.21
  Q 77.81 47.79 68.26 51.98
  Q 67.68 52.24 68.31 52.32
  Q 83.48 54.23 93.81 63.11
  Q 100.32 68.70 103.60 74.35
  Q 107.47 81.01 107.32 89.31
  C 107.31 89.60 107.09 89.83 106.82 89.84
  L 94.82 89.99
  Q 93.56 90.01 94.39 90.93
  L 119.53 118.89
  C 119.73 119.11 120.07 119.11 120.26 118.89
  L 145.47 90.90
  Q 146.27 90.01 145.06 90.00
  L 134.30 89.95
  C 134.03 89.95 133.79 89.73 133.76 89.43
  Z
  M 72.50 90.77
  C 72.50 90.34 72.85 90.00 73.28 89.99
  L 85.45 89.94
  Q 86.20 89.94 85.70 89.37
  L 60.34 61.12
  C 60.16 60.92 59.85 60.92 59.67 61.12
  L 34.35 89.32
  Q 33.73 90.00 34.65 90.00
  Q 38.70 90.00 42.87 90.00
  Q 42.96 90.00 44.62 89.85
  Q 46.64 89.67 46.66 91.49
  Q 46.69 93.96 46.70 94.00
  Q 49.45 109.89 61.05 121.20
  Q 74.06 133.87 92.50 132.80
  Q 102.19 132.24 111.35 128.18
  Q 112.63 127.62 111.24 127.51
  Q 97.11 126.38 86.67 117.37
  Q 80.05 111.65 76.62 105.93
  Q 72.57 99.16 72.50 90.77
  Z"
/>
<path fill="#ffffff" d="
  M 134.30 89.95
  L 145.06 90.00
  Q 146.27 90.01 145.47 90.90
  L 120.26 118.89
  C 120.07 119.11 119.73 119.11 119.53 118.89
  L 94.39 90.93
  Q 93.56 90.01 94.82 89.99
  L 106.82 89.84
  C 107.09 89.83 107.31 89.60 107.32 89.31
  Q 107.47 81.01 103.60 74.35
  Q 100.32 68.70 93.81 63.11
  Q 83.48 54.23 68.31 52.32
  Q 67.68 52.24 68.26 51.98
  Q 77.81 47.79 87.50 47.21
  Q 104.98 46.15 117.74 57.77
  Q 131.75 70.54 133.76 89.43
  C 133.79 89.73 134.03 89.95 134.30 89.95
  Z"
/>
<path fill="#ffffff" d="
  M 72.50 90.77
  Q 72.57 99.16 76.62 105.93
  Q 80.05 111.65 86.67 117.37
  Q 97.11 126.38 111.24 127.51
  Q 112.63 127.62 111.35 128.18
  Q 102.19 132.24 92.50 132.80
  Q 74.06 133.87 61.05 121.20
  Q 49.45 109.89 46.70 94.00
  Q 46.69 93.96 46.66 91.49
  Q 46.64 89.67 44.62 89.85
  Q 42.96 90.00 42.87 90.00
  Q 38.70 90.00 34.65 90.00
  Q 33.73 90.00 34.35 89.32
  L 59.67 61.12
  C 59.85 60.92 60.16 60.92 60.34 61.12
  L 85.70 89.37
  Q 86.20 89.94 85.45 89.94
  L 73.28 89.99
  C 72.85 90.00 72.50 90.34 72.50 90.77
  Z"
/>
</svg>
