<?xml version="1.0" encoding="UTF-8" standalone="no"?>
<!DOCTYPE svg PUBLIC "-//W3C//DTD SVG 1.1//EN" "http://www.w3.org/Graphics/SVG/1.1/DTD/svg11.dtd">
<svg xmlns="http://www.w3.org/2000/svg" version="1.1" viewBox="0 0 192 192">
<g stroke-width="2.0" fill="none" stroke-linecap="butt">
<path stroke="#80c1ff" vector-effect="non-scaling-stroke" d="
  M 82.00 25.46
  Q 67.13 29.15 55.21 38.75"
/>
<path stroke="#80b3ff" vector-effect="non-scaling-stroke" d="
  M 55.21 38.75
  Q 30.18 59.26 28.00 90.50
  Q 25.40 127.80 54.25 152.29"
/>
<path stroke="#80c1ff" vector-effect="non-scaling-stroke" d="
  M 54.25 152.29
  Q 66.62 162.92 82.50 166.71"
/>
<path stroke="#80d0fe" vector-effect="non-scaling-stroke" d="
  M 82.50 166.71
  Q 95.57 170.30 109.04 168.50"
/>
<path stroke="#80defe" vector-effect="non-scaling-stroke" d="
  M 109.04 168.50
  Q 124.32 166.82 137.50 158.96"
/>
<path stroke="#80ecfd" vector-effect="non-scaling-stroke" d="
  M 137.50 158.96
  Q 149.24 151.99 157.48 141.43
  Q 162.99 134.37 163.99 128.51
  Q 165.37 120.49 160.25 113.50
  Q 151.88 102.06 137.25 106.29"
/>
<path stroke="#80defe" vector-effect="non-scaling-stroke" d="
  M 137.25 106.29
  Q 130.88 108.58 126.19 115.19
  Q 120.07 123.81 108.75 127.21"
/>
<path stroke="#80d0fe" vector-effect="non-scaling-stroke" d="
  M 108.75 127.21
  Q 94.58 130.64 82.50 122.79"
/>
<path stroke="#80c1ff" vector-effect="non-scaling-stroke" d="
  M 82.50 122.79
  Q 70.83 114.30 68.81 101.14
  Q 67.39 91.94 70.87 83.67
  Q 74.45 75.15 82.50 69.46"
/>
<path stroke="#80d0fe" vector-effect="non-scaling-stroke" d="
  M 82.50 69.46
  Q 94.55 61.58 108.75 64.96"
/>
<path stroke="#80defe" vector-effect="non-scaling-stroke" d="
  M 108.75 64.96
  Q 120.37 68.51 127.31 78.44
  Q 130.96 83.66 137.00 85.71"
/>
<path stroke="#80ecfd" vector-effect="non-scaling-stroke" d="
  M 137.00 85.71
  Q 147.33 89.38 156.02 83.00
  Q 163.09 77.81 164.00 69.00
  Q 164.81 61.24 160.94 55.31
  Q 152.03 41.70 137.25 32.96"
/>
<path stroke="#80defe" vector-effect="non-scaling-stroke" d="
  M 137.25 32.96
  Q 124.30 25.18 109.25 23.54"
/>
<path stroke="#80d0fe" vector-effect="non-scaling-stroke" d="
  M 109.25 23.54
  Q 95.40 21.62 82.00 25.46"
/>
<path stroke="#00aefd" vector-effect="non-scaling-stroke" d="
  M 109.25 23.54
  Q 109.49 41.32 109.04 59.09
  Q 109.03 59.17 109.28 61.88
  Q 109.42 63.45 108.75 64.96"
/>
<path stroke="#0092fe" vector-effect="non-scaling-stroke" d="
  M 82.50 69.46
  L 82.00 25.46"
/>
<path stroke="#00cbfc" vector-effect="non-scaling-stroke" d="
  M 137.25 32.96
  Q 136.35 33.48 136.51 34.35
  Q 136.75 35.63 136.75 35.69
  Q 136.57 60.70 137.00 85.71"
/>
<path stroke="#0092fe" vector-effect="non-scaling-stroke" d="
  M 82.50 122.79
  Q 81.88 144.75 82.50 166.71"
/>
<path stroke="#0075ff" vector-effect="non-scaling-stroke" d="
  M 54.25 152.29
  Q 54.75 152.33 54.75 151.75
  Q 54.75 99.75 54.75 47.75
  Q 54.75 41.99 55.21 38.75"
/>
<path stroke="#00aefd" vector-effect="non-scaling-stroke" d="
  M 109.04 168.50
  Q 109.49 167.95 109.40 167.27
  Q 109.26 166.25 109.26 166.21
  Q 109.48 147.39 109.31 128.56
  Q 109.30 127.46 108.75 127.21"
/>
<path stroke="#00cbfc" vector-effect="non-scaling-stroke" d="
  M 137.50 158.96
  Q 137.43 158.45 137.15 158.06
  C 136.93 157.75 136.81 157.44 136.81 157.20
  Q 136.66 123.94 136.75 110.25
  Q 136.76 108.88 137.25 106.29"
/>
</g>
<path fill="#ffffff" d="
  M 0.00 0.00
  Q 96.00 0.00 192.00 0.00
  Q 192.00 96.00 192.00 192.00
  Q 96.00 192.00 0.00 192.00
  Q 0.00 96.00 0.00 0.00
  Z
  M 82.00 25.46
  Q 67.13 29.15 55.21 38.75
  Q 30.18 59.26 28.00 90.50
  Q 25.40 127.80 54.25 152.29
  Q 66.62 162.92 82.50 166.71
  Q 95.57 170.30 109.04 168.50
  Q 124.32 166.82 137.50 158.96
  Q 149.24 151.99 157.48 141.43
  Q 162.99 134.37 163.99 128.51
  Q 165.37 120.49 160.25 113.50
  Q 151.88 102.06 137.25 106.29
  Q 130.88 108.58 126.19 115.19
  Q 120.07 123.81 108.75 127.21
  Q 94.58 130.64 82.50 122.79
  Q 70.83 114.30 68.81 101.14
  Q 67.39 91.94 70.87 83.67
  Q 74.45 75.15 82.50 69.46
  Q 94.55 61.58 108.75 64.96
  Q 120.37 68.51 127.31 78.44
  Q 130.96 83.66 137.00 85.71
  Q 147.33 89.38 156.02 83.00
  Q 163.09 77.81 164.00 69.00
  Q 164.81 61.24 160.94 55.31
  Q 152.03 41.70 137.25 32.96
  Q 124.30 25.18 109.25 23.54
  Q 95.40 21.62 82.00 25.46
  Z"
/>
<path fill="#00a0fd" d="
  M 109.25 23.54
  Q 109.49 41.32 109.04 59.09
  Q 109.03 59.17 109.28 61.88
  Q 109.42 63.45 108.75 64.96
  Q 94.55 61.58 82.50 69.46
  L 82.00 25.46
  Q 95.40 21.62 109.25 23.54
  Z"
/>
<path fill="#00bcfc" d="
  M 109.25 23.54
  Q 124.30 25.18 137.25 32.96
  Q 136.35 33.48 136.51 34.35
  Q 136.75 35.63 136.75 35.69
  Q 136.57 60.70 137.00 85.71
  Q 130.96 83.66 127.31 78.44
  Q 120.37 68.51 108.75 64.96
  Q 109.42 63.45 109.28 61.88
  Q 109.03 59.17 109.04 59.09
  Q 109.49 41.32 109.25 23.54
  Z"
/>
<path fill="#0083fe" d="
  M 82.00 25.46
  L 82.50 69.46
  Q 74.45 75.15 70.87 83.67
  Q 67.39 91.94 68.81 101.14
  Q 70.83 114.30 82.50 122.79
  Q 81.88 144.75 82.50 166.71
  Q 66.62 162.92 54.25 152.29
  Q 54.75 152.33 54.75 151.75
  Q 54.75 99.75 54.75 47.75
  Q 54.75 41.99 55.21 38.75
  Q 67.13 29.15 82.00 25.46
  Z"
/>
<path fill="#00d9fb" d="
  M 137.25 32.96
  Q 152.03 41.70 160.94 55.31
  Q 164.81 61.24 164.00 69.00
  Q 163.09 77.81 156.02 83.00
  Q 147.33 89.38 137.00 85.71
  Q 136.57 60.70 136.75 35.69
  Q 136.75 35.63 136.51 34.35
  Q 136.35 33.48 137.25 32.96
  Z"
/>
<path fill="#0066ff" d="
  M 55.21 38.75
  Q 54.75 41.99 54.75 47.75
  Q 54.75 99.75 54.75 151.75
  Q 54.75 152.33 54.25 152.29
  Q 25.40 127.80 28.00 90.50
  Q 30.18 59.26 55.21 38.75
  Z"
/>
<path fill="#00d9fb" d="
  M 137.50 158.96
  Q 137.43 158.45 137.15 158.06
  C 136.93 157.75 136.81 157.44 136.81 157.20
  Q 136.66 123.94 136.75 110.25
  Q 136.76 108.88 137.25 106.29
  Q 151.88 102.06 160.25 113.50
  Q 165.37 120.49 163.99 128.51
  Q 162.99 134.37 157.48 141.43
  Q 149.24 151.99 137.50 158.96
  Z"
/>
<path fill="#00bcfc" d="
  M 137.25 106.29
  Q 136.76 108.88 136.75 110.25
  Q 136.66 123.94 136.81 157.20
  C 136.81 157.44 136.93 157.75 137.15 158.06
  Q 137.43 158.45 137.50 158.96
  Q 124.32 166.82 109.04 168.50
  Q 109.49 167.95 109.40 167.27
  Q 109.26 166.25 109.26 166.21
  Q 109.48 147.39 109.31 128.56
  Q 109.30 127.46 108.75 127.21
  Q 120.07 123.81 126.19 115.19
  Q 130.88 108.58 137.25 106.29
  Z"
/>
<path fill="#00a0fd" d="
  M 82.50 122.79
  Q 94.58 130.64 108.75 127.21
  Q 109.30 127.46 109.31 128.56
  Q 109.48 147.39 109.26 166.21
  Q 109.26 166.25 109.40 167.27
  Q 109.49 167.95 109.04 168.50
  Q 95.57 170.30 82.50 166.71
  Q 81.88 144.75 82.50 122.79
  Z"
/>
</svg>
