<?xml version="1.0" encoding="UTF-8" standalone="no"?>
<!DOCTYPE svg PUBLIC "-//W3C//DTD SVG 1.1//EN" "http://www.w3.org/Graphics/SVG/1.1/DTD/svg11.dtd">
<svg xmlns="http://www.w3.org/2000/svg" version="1.1" viewBox="0 0 48 48">
<path fill="#f5a623" d="
  M 32.06 15.49
  Q 27.37 12.18 21.73 13.62
  C 21.39 13.71 21.06 13.67 20.82 13.51
  L 10.35 6.65
  C 10.04 6.45 10.03 5.99 10.34 5.74
  Q 15.56 1.58 21.69 0.53
  Q 27.73 -0.49 33.67 1.63
  Q 41.65 4.50 46.25 12.32
  C 46.39 12.56 46.31 12.87 46.07 13.01
  L 35.83 18.81
  C 35.58 18.95 35.25 18.87 35.08 18.62
  Q 33.81 16.72 32.06 15.49
  Z"
/>
<path fill="#343333" d="
  M 9.42 13.29
  Q 12.23 15.25 15.59 17.55
  C 15.96 17.80 16.09 18.28 15.92 18.69
  Q 13.31 24.81 16.21 29.52
  Q 19.00 34.06 24.27 34.77
  Q 29.96 35.54 34.61 30.22
  C 35.09 29.67 35.89 29.53 36.54 29.89
  L 44.98 34.51
  Q 46.71 35.45 45.56 37.00
  Q 41.64 42.27 36.50 45.06
  Q 31.41 47.83 25.08 47.69
  Q 16.46 47.51 10.29 42.11
  Q 3.85 36.48 2.22 28.37
  Q 0.55 20.04 5.18 11.60
  C 5.39 11.22 5.87 11.09 6.24 11.31
  Q 8.24 12.48 9.42 13.29
  Z"
/>
</svg>
