<?xml version="1.0" encoding="UTF-8" standalone="no"?>
<!DOCTYPE svg PUBLIC "-//W3C//DTD SVG 1.1//EN" "http://www.w3.org/Graphics/SVG/1.1/DTD/svg11.dtd">
<svg xmlns="http://www.w3.org/2000/svg" version="1.1" viewBox="0 0 192 192">
<path stroke="#80abe9" stroke-width="2.0" fill="none" stroke-linecap="butt" vector-effect="non-scaling-stroke" d="
  M 152.02 127.22
  L 127.88 112.73
  C 127.55 112.53 127.13 112.62 126.90 112.94
  Q 118.37 124.91 104.35 126.91
  Q 100.71 127.42 97.14 127.06
  Q 93.28 126.66 90.06 125.44
  Q 77.36 120.63 71.88 109.46
  Q 67.30 100.11 69.16 90.04
  Q 71.29 78.52 81.44 70.94
  Q 91.36 63.52 103.18 64.71
  Q 110.00 65.40 115.87 68.72
  Q 121.85 72.08 126.10 77.70
  C 126.31 77.98 126.69 78.06 126.99 77.88
  L 151.67 63.70
  C 151.89 63.57 151.96 63.28 151.81 63.08
  Q 136.55 41.52 110.98 37.13
  Q 89.44 33.43 71.00 43.25
  Q 54.18 52.21 45.65 68.80
  Q 41.08 77.68 39.64 87.76
  Q 36.47 109.98 49.06 128.94
  Q 59.91 145.26 78.15 151.99
  Q 87.56 155.45 97.68 155.93
  Q 112.81 156.65 126.19 150.44
  Q 142.24 142.98 152.19 127.97
  C 152.35 127.71 152.28 127.37 152.02 127.22"
/>
<path fill="#0056d2" d="
  M 92.31 0.00
  Q 96.06 0.00 99.81 0.00
  Q 147.21 3.16 174.19 40.31
  Q 190.81 63.21 192.00 93.31
  Q 192.00 96.44 192.00 99.56
  Q 190.08 135.68 166.56 161.06
  Q 140.00 189.74 99.44 192.00
  Q 96.06 192.00 92.69 192.00
  Q 56.36 190.17 30.81 166.44
  Q 2.22 139.88 0.00 99.44
  Q 0.00 96.19 0.00 92.94
  Q 0.73 76.51 5.81 63.06
  Q 18.48 29.57 49.06 12.31
  Q 68.71 1.23 92.31 0.00
  Z
  M 152.02 127.22
  L 127.88 112.73
  C 127.55 112.53 127.13 112.62 126.90 112.94
  Q 118.37 124.91 104.35 126.91
  Q 100.71 127.42 97.14 127.06
  Q 93.28 126.66 90.06 125.44
  Q 77.36 120.63 71.88 109.46
  Q 67.30 100.11 69.16 90.04
  Q 71.29 78.52 81.44 70.94
  Q 91.36 63.52 103.18 64.71
  Q 110.00 65.40 115.87 68.72
  Q 121.85 72.08 126.10 77.70
  C 126.31 77.98 126.69 78.06 126.99 77.88
  L 151.67 63.70
  C 151.89 63.57 151.96 63.28 151.81 63.08
  Q 136.55 41.52 110.98 37.13
  Q 89.44 33.43 71.00 43.25
  Q 54.18 52.21 45.65 68.80
  Q 41.08 77.68 39.64 87.76
  Q 36.47 109.98 49.06 128.94
  Q 59.91 145.26 78.15 151.99
  Q 87.56 155.45 97.68 155.93
  Q 112.81 156.65 126.19 150.44
  Q 142.24 142.98 152.19 127.97
  C 152.35 127.71 152.28 127.37 152.02 127.22
  Z"
/>
<path fill="#ffffff" d="
  M 152.02 127.22
  C 152.28 127.37 152.35 127.71 152.19 127.97
  Q 142.24 142.98 126.19 150.44
  Q 112.81 156.65 97.68 155.93
  Q 87.56 155.45 78.15 151.99
  Q 59.91 145.26 49.06 128.94
  Q 36.47 109.98 39.64 87.76
  Q 41.08 77.68 45.65 68.80
  Q 54.18 52.21 71.00 43.25
  Q 89.44 33.43 110.98 37.13
  Q 136.55 41.52 151.81 63.08
  C 151.96 63.28 151.89 63.57 151.67 63.70
  L 126.99 77.88
  C 126.69 78.06 126.31 77.98 126.10 77.70
  Q 121.85 72.08 115.87 68.72
  Q 110.00 65.40 103.18 64.71
  Q 91.36 63.52 81.44 70.94
  Q 71.29 78.52 69.16 90.04
  Q 67.30 100.11 71.88 109.46
  Q 77.36 120.63 90.06 125.44
  Q 93.28 126.66 97.14 127.06
  Q 100.71 127.42 104.35 126.91
  Q 118.37 124.91 126.90 112.94
  C 127.13 112.62 127.55 112.53 127.88 112.73
  L 152.02 127.22
  Z"
/>
</svg>
