<?xml version="1.0" encoding="UTF-8" standalone="no"?>
<!DOCTYPE svg PUBLIC "-//W3C//DTD SVG 1.1//EN" "http://www.w3.org/Graphics/SVG/1.1/DTD/svg11.dtd">
<svg xmlns="http://www.w3.org/2000/svg" version="1.1" viewBox="0 0 180 180">
<g stroke-width="2.0" fill="none" stroke-linecap="butt">
<path stroke="#9f93ce" vector-effect="non-scaling-stroke" d="
  M 78.25 151.46
  L 67.25 157.21"
/>
<path stroke="#b4a1ff" vector-effect="non-scaling-stroke" d="
  M 67.25 157.21
  Q 62.33 159.41 57.67 162.11
  Q 57.39 162.27 55.66 163.19
  Q 51.52 165.40 56.51 166.11
  Q 58.56 166.40 58.96 166.47
  Q 79.80 170.16 99.88 165.10
  Q 109.96 162.57 118.44 157.84
  Q 144.68 143.23 153.19 113.19
  Q 161.28 84.64 153.40 55.65
  Q 152.53 52.46 152.53 49.22
  Q 152.53 41.33 151.72 33.48
  Q 150.77 24.15 146.29 15.98
  Q 143.97 11.75 139.81 13.31
  Q 133.56 15.67 126.54 22.59
  C 126.33 22.80 126.01 22.86 125.72 22.74
  Q 115.99 18.66 107.25 17.25
  Q 92.45 14.86 75.99 16.66
  Q 64.77 17.88 54.06 22.70
  C 53.44 22.98 52.71 22.84 52.23 22.36
  Q 46.52 16.61 39.75 13.69
  Q 37.79 12.85 36.50 13.05
  Q 34.68 13.34 33.53 15.04
  Q 30.29 19.83 29.02 25.50
  Q 26.49 36.86 26.67 48.50
  Q 26.73 52.46 26.00 55.00
  Q 18.41 81.31 24.72 108.01
  Q 29.50 128.24 45.40 139.75
  Q 51.92 144.46 60.37 147.37
  Q 68.81 150.27 77.00 150.75
  Q 78.16 150.82 78.25 151.46"
/>
<path stroke="#5434ce" vector-effect="non-scaling-stroke" d="
  M 67.25 157.21
  Q 70.51 156.88 77.00 157.00
  Q 82.09 157.10 91.26 156.05
  Q 103.46 154.65 114.44 149.19
  Q 114.70 149.06 114.83 148.92
  Q 115.23 148.49 114.54 148.65
  Q 98.02 152.47 82.50 151.25
  Q 79.70 151.03 78.25 151.46"
/>
<path stroke="#b4a1ff" vector-effect="non-scaling-stroke" d="
  M 122.35 50.15
  Q 118.07 45.84 112.69 44.06
  Q 98.31 39.30 83.25 40.60
  Q 72.95 41.48 66.91 43.74
  Q 58.36 46.93 53.34 54.28
  Q 48.69 61.08 47.02 73.05
  Q 45.47 84.18 47.01 95.53
  Q 47.93 102.30 50.75 108.53
  Q 55.89 119.94 67.75 124.00
  Q 76.27 126.92 86.65 127.01
  Q 94.68 127.07 100.84 126.42
  Q 108.69 125.60 114.69 122.69
  Q 124.03 118.16 128.19 108.94
  Q 131.05 102.59 132.02 95.60
  Q 132.83 89.72 132.72 81.88
  Q 132.60 73.00 130.38 64.32
  Q 128.29 56.11 122.35 50.15"
/>
<path stroke="#b4a1ff" vector-effect="non-scaling-stroke" d="
  M 82.45 81.93
  Q 77.09 80.79 75.57 77.00
  Q 74.57 74.52 75.52 71.97
  Q 76.46 69.46 79.03 67.88
  Q 80.10 67.22 78.96 66.71
  Q 70.44 62.89 66.51 69.38
  Q 64.98 71.91 64.86 76.46
  Q 64.70 82.26 64.93 88.06
  Q 64.93 88.15 64.87 91.45
  Q 64.80 95.80 67.53 98.48
  Q 70.60 101.50 75.15 101.08
  Q 79.33 100.70 81.46 96.95
  Q 82.64 94.87 82.69 90.68
  Q 82.74 86.76 83.02 82.69
  C 83.05 82.33 82.80 82.00 82.45 81.93"
/>
<path stroke="#b4a1ff" vector-effect="non-scaling-stroke" d="
  M 110.58 80.85
  Q 107.32 80.30 105.65 77.93
  Q 104.09 75.71 104.55 72.80
  Q 105.08 69.43 108.09 67.28
  C 108.29 67.14 108.29 66.85 108.09 66.72
  Q 103.09 63.47 98.17 67.16
  Q 94.75 69.72 94.75 73.75
  Q 94.75 83.25 94.88 92.75
  Q 94.93 96.31 97.06 98.44
  Q 101.05 102.41 105.93 100.92
  Q 109.04 99.97 110.82 97.55
  Q 112.68 95.01 112.63 91.50
  Q 112.55 86.53 112.45 81.57
  C 112.44 81.28 112.23 81.05 111.94 81.02
  Q 111.26 80.96 110.58 80.85"
/>
</g>
<path fill="#ffffff" d="
  M 0.00 0.00
  Q 90.00 0.00 180.00 0.00
  Q 180.00 90.00 180.00 180.00
  Q 90.00 180.00 0.00 180.00
  Q 0.00 90.00 0.00 0.00
  Z
  M 78.25 151.46
  L 67.25 157.21
  Q 62.33 159.41 57.67 162.11
  Q 57.39 162.27 55.66 163.19
  Q 51.52 165.40 56.51 166.11
  Q 58.56 166.40 58.96 166.47
  Q 79.80 170.16 99.88 165.10
  Q 109.96 162.57 118.44 157.84
  Q 144.68 143.23 153.19 113.19
  Q 161.28 84.64 153.40 55.65
  Q 152.53 52.46 152.53 49.22
  Q 152.53 41.33 151.72 33.48
  Q 150.77 24.15 146.29 15.98
  Q 143.97 11.75 139.81 13.31
  Q 133.56 15.67 126.54 22.59
  C 126.33 22.80 126.01 22.86 125.72 22.74
  Q 115.99 18.66 107.25 17.25
  Q 92.45 14.86 75.99 16.66
  Q 64.77 17.88 54.06 22.70
  C 53.44 22.98 52.71 22.84 52.23 22.36
  Q 46.52 16.61 39.75 13.69
  Q 37.79 12.85 36.50 13.05
  Q 34.68 13.34 33.53 15.04
  Q 30.29 19.83 29.02 25.50
  Q 26.49 36.86 26.67 48.50
  Q 26.73 52.46 26.00 55.00
  Q 18.41 81.31 24.72 108.01
  Q 29.50 128.24 45.40 139.75
  Q 51.92 144.46 60.37 147.37
  Q 68.81 150.27 77.00 150.75
  Q 78.16 150.82 78.25 151.46
  Z"
/>
<path fill="#6942ff" d="
  M 67.25 157.21
  Q 70.51 156.88 77.00 157.00
  Q 82.09 157.10 91.26 156.05
  Q 103.46 154.65 114.44 149.19
  Q 114.70 149.06 114.83 148.92
  Q 115.23 148.49 114.54 148.65
  Q 98.02 152.47 82.50 151.25
  Q 79.70 151.03 78.25 151.46
  Q 78.16 150.82 77.00 150.75
  Q 68.81 150.27 60.37 147.37
  Q 51.92 144.46 45.40 139.75
  Q 29.50 128.24 24.72 108.01
  Q 18.41 81.31 26.00 55.00
  Q 26.73 52.46 26.67 48.50
  Q 26.49 36.86 29.02 25.50
  Q 30.29 19.83 33.53 15.04
  Q 34.68 13.34 36.50 13.05
  Q 37.79 12.85 39.75 13.69
  Q 46.52 16.61 52.23 22.36
  C 52.71 22.84 53.44 22.98 54.06 22.70
  Q 64.77 17.88 75.99 16.66
  Q 92.45 14.86 107.25 17.25
  Q 115.99 18.66 125.72 22.74
  C 126.01 22.86 126.33 22.80 126.54 22.59
  Q 133.56 15.67 139.81 13.31
  Q 143.97 11.75 146.29 15.98
  Q 150.77 24.15 151.72 33.48
  Q 152.53 41.33 152.53 49.22
  Q 152.53 52.46 153.40 55.65
  Q 161.28 84.64 153.19 113.19
  Q 144.68 143.23 118.44 157.84
  Q 109.96 162.57 99.88 165.10
  Q 79.80 170.16 58.96 166.47
  Q 58.56 166.40 56.51 166.11
  Q 51.52 165.40 55.66 163.19
  Q 57.39 162.27 57.67 162.11
  Q 62.33 159.41 67.25 157.21
  Z
  M 122.35 50.15
  Q 118.07 45.84 112.69 44.06
  Q 98.31 39.30 83.25 40.60
  Q 72.95 41.48 66.91 43.74
  Q 58.36 46.93 53.34 54.28
  Q 48.69 61.08 47.02 73.05
  Q 45.47 84.18 47.01 95.53
  Q 47.93 102.30 50.75 108.53
  Q 55.89 119.94 67.75 124.00
  Q 76.27 126.92 86.65 127.01
  Q 94.68 127.07 100.84 126.42
  Q 108.69 125.60 114.69 122.69
  Q 124.03 118.16 128.19 108.94
  Q 131.05 102.59 132.02 95.60
  Q 132.83 89.72 132.72 81.88
  Q 132.60 73.00 130.38 64.32
  Q 128.29 56.11 122.35 50.15
  Z"
/>
<path fill="#ffffff" d="
  M 122.35 50.15
  Q 128.29 56.11 130.38 64.32
  Q 132.60 73.00 132.72 81.88
  Q 132.83 89.72 132.02 95.60
  Q 131.05 102.59 128.19 108.94
  Q 124.03 118.16 114.69 122.69
  Q 108.69 125.60 100.84 126.42
  Q 94.68 127.07 86.65 127.01
  Q 76.27 126.92 67.75 124.00
  Q 55.89 119.94 50.75 108.53
  Q 47.93 102.30 47.01 95.53
  Q 45.47 84.18 47.02 73.05
  Q 48.69 61.08 53.34 54.28
  Q 58.36 46.93 66.91 43.74
  Q 72.95 41.48 83.25 40.60
  Q 98.31 39.30 112.69 44.06
  Q 118.07 45.84 122.35 50.15
  Z
  M 82.45 81.93
  Q 77.09 80.79 75.57 77.00
  Q 74.57 74.52 75.52 71.97
  Q 76.46 69.46 79.03 67.88
  Q 80.10 67.22 78.96 66.71
  Q 70.44 62.89 66.51 69.38
  Q 64.98 71.91 64.86 76.46
  Q 64.70 82.26 64.93 88.06
  Q 64.93 88.15 64.87 91.45
  Q 64.80 95.80 67.53 98.48
  Q 70.60 101.50 75.15 101.08
  Q 79.33 100.70 81.46 96.95
  Q 82.64 94.87 82.69 90.68
  Q 82.74 86.76 83.02 82.69
  C 83.05 82.33 82.80 82.00 82.45 81.93
  Z
  M 110.58 80.85
  Q 107.32 80.30 105.65 77.93
  Q 104.09 75.71 104.55 72.80
  Q 105.08 69.43 108.09 67.28
  C 108.29 67.14 108.29 66.85 108.09 66.72
  Q 103.09 63.47 98.17 67.16
  Q 94.75 69.72 94.75 73.75
  Q 94.75 83.25 94.88 92.75
  Q 94.93 96.31 97.06 98.44
  Q 101.05 102.41 105.93 100.92
  Q 109.04 99.97 110.82 97.55
  Q 112.68 95.01 112.63 91.50
  Q 112.55 86.53 112.45 81.57
  C 112.44 81.28 112.23 81.05 111.94 81.02
  Q 111.26 80.96 110.58 80.85
  Z"
/>
<path fill="#6942ff" d="
  M 82.45 81.93
  C 82.80 82.00 83.05 82.33 83.02 82.69
  Q 82.74 86.76 82.69 90.68
  Q 82.64 94.87 81.46 96.95
  Q 79.33 100.70 75.15 101.08
  Q 70.60 101.50 67.53 98.48
  Q 64.80 95.80 64.87 91.45
  Q 64.93 88.15 64.93 88.06
  Q 64.70 82.26 64.86 76.46
  Q 64.98 71.91 66.51 69.38
  Q 70.44 62.89 78.96 66.71
  Q 80.10 67.22 79.03 67.88
  Q 76.46 69.46 75.52 71.97
  Q 74.57 74.52 75.57 77.00
  Q 77.09 80.79 82.45 81.93
  Z"
/>
<path fill="#6942ff" d="
  M 110.58 80.85
  Q 111.26 80.96 111.94 81.02
  C 112.23 81.05 112.44 81.28 112.45 81.57
  Q 112.55 86.53 112.63 91.50
  Q 112.68 95.01 110.82 97.55
  Q 109.04 99.97 105.93 100.92
  Q 101.05 102.41 97.06 98.44
  Q 94.93 96.31 94.88 92.75
  Q 94.75 83.25 94.75 73.75
  Q 94.75 69.72 98.17 67.16
  Q 103.09 63.47 108.09 66.72
  C 108.29 66.85 108.29 67.14 108.09 67.28
  Q 105.08 69.43 104.55 72.80
  Q 104.09 75.71 105.65 77.93
  Q 107.32 80.30 110.58 80.85
  Z"
/>
<path fill="#3f269d" d="
  M 67.25 157.21
  L 78.25 151.46
  Q 79.70 151.03 82.50 151.25
  Q 98.02 152.47 114.54 148.65
  Q 115.23 148.49 114.83 148.92
  Q 114.70 149.06 114.44 149.19
  Q 103.46 154.65 91.26 156.05
  Q 82.09 157.10 77.00 157.00
  Q 70.51 156.88 67.25 157.21
  Z"
/>
</svg>
