<?xml version="1.0" encoding="UTF-8" standalone="no"?>
<!DOCTYPE svg PUBLIC "-//W3C//DTD SVG 1.1//EN" "http://www.w3.org/Graphics/SVG/1.1/DTD/svg11.dtd">
<svg xmlns="http://www.w3.org/2000/svg" version="1.1" viewBox="0 0 192 192">
<path stroke="#af8cee" stroke-width="2.0" fill="none" stroke-linecap="butt" vector-effect="non-scaling-stroke" d="
  M 145.84 121.37
  L 118.22 111.56
  C 117.90 111.45 117.55 111.55 117.34 111.82
  Q 113.83 116.24 108.75 117.86
  Q 103.98 119.37 98.72 118.08
  Q 91.43 116.29 87.74 109.85
  Q 85.19 105.40 85.31 100.25
  Q 85.43 94.71 88.51 90.44
  Q 92.71 84.62 100.17 83.14
  Q 109.78 81.24 117.40 89.79
  C 117.61 90.03 117.94 90.11 118.24 90.00
  L 146.01 80.16
  C 146.27 80.06 146.39 79.76 146.26 79.52
  Q 137.68 63.00 120.40 56.16
  Q 109.65 51.90 99.00 53.00
  Q 81.13 54.85 69.24 66.94
  Q 62.13 74.17 58.39 83.57
  Q 52.96 97.22 56.50 111.75
  Q 61.56 132.55 79.73 142.58
  Q 87.47 146.87 95.95 148.25
  Q 105.08 149.74 113.44 147.69
  Q 135.69 142.23 146.15 122.18
  C 146.31 121.87 146.17 121.49 145.84 121.37"
/>
<path fill="#5f19dd" d="
  M 177.53 100.80
  C 177.53 143.19 143.17 177.55 100.78 177.55
  C 58.39 177.55 24.03 143.19 24.03 100.80
  C 24.03 58.41 58.39 24.05 100.78 24.05
  C 143.17 24.05 177.53 58.41 177.53 100.80
  Z
  M 145.84 121.37
  L 118.22 111.56
  C 117.90 111.45 117.55 111.55 117.34 111.82
  Q 113.83 116.24 108.75 117.86
  Q 103.98 119.37 98.72 118.08
  Q 91.43 116.29 87.74 109.85
  Q 85.19 105.40 85.31 100.25
  Q 85.43 94.71 88.51 90.44
  Q 92.71 84.62 100.17 83.14
  Q 109.78 81.24 117.40 89.79
  C 117.61 90.03 117.94 90.11 118.24 90.00
  L 146.01 80.16
  C 146.27 80.06 146.39 79.76 146.26 79.52
  Q 137.68 63.00 120.40 56.16
  Q 109.65 51.90 99.00 53.00
  Q 81.13 54.85 69.24 66.94
  Q 62.13 74.17 58.39 83.57
  Q 52.96 97.22 56.50 111.75
  Q 61.56 132.55 79.73 142.58
  Q 87.47 146.87 95.95 148.25
  Q 105.08 149.74 113.44 147.69
  Q 135.69 142.23 146.15 122.18
  C 146.31 121.87 146.17 121.49 145.84 121.37
  Z"
/>
<path fill="#ffffff" d="
  M 145.84 121.37
  C 146.17 121.49 146.31 121.87 146.15 122.18
  Q 135.69 142.23 113.44 147.69
  Q 105.08 149.74 95.95 148.25
  Q 87.47 146.87 79.73 142.58
  Q 61.56 132.55 56.50 111.75
  Q 52.96 97.22 58.39 83.57
  Q 62.13 74.17 69.24 66.94
  Q 81.13 54.85 99.00 53.00
  Q 109.65 51.90 120.40 56.16
  Q 137.68 63.00 146.26 79.52
  C 146.39 79.76 146.27 80.06 146.01 80.16
  L 118.24 90.00
  C 117.94 90.11 117.61 90.03 117.40 89.79
  Q 109.78 81.24 100.17 83.14
  Q 92.71 84.62 88.51 90.44
  Q 85.43 94.71 85.31 100.25
  Q 85.19 105.40 87.74 109.85
  Q 91.43 116.29 98.72 118.08
  Q 103.98 119.37 108.75 117.86
  Q 113.83 116.24 117.34 111.82
  C 117.55 111.55 117.90 111.45 118.22 111.56
  L 145.84 121.37
  Z"
/>
</svg>
