<?xml version="1.0" encoding="UTF-8" standalone="no"?>
<!DOCTYPE svg PUBLIC "-//W3C//DTD SVG 1.1//EN" "http://www.w3.org/Graphics/SVG/1.1/DTD/svg11.dtd">
<svg xmlns="http://www.w3.org/2000/svg" version="1.1" viewBox="0 0 512 512">
<g stroke-width="2.0" fill="none" stroke-linecap="butt">
<path stroke="#dea392" vector-effect="non-scaling-stroke" d="
  M 315.25 277.79
  Q 294.63 279.94 273.69 289.69
  Q 257.47 297.23 243.12 307.90
  Q 235.44 313.61 216.50 329.75
  Q 209.37 335.83 201.61 332.96
  Q 198.47 331.79 192.29 326.33
  Q 180.10 315.56 166.71 306.28
  Q 145.20 291.36 120.40 282.80
  C 120.12 282.70 119.94 282.42 119.98 282.12
  Q 126.68 231.15 134.75 180.50
  Q 135.00 178.96 136.00 177.04"
/>
<path stroke="#edaa97" vector-effect="non-scaling-stroke" d="
  M 136.00 177.04
  Q 137.03 175.57 138.50 175.75
  Q 141.04 176.06 143.09 177.71
  Q 143.28 177.86 146.52 181.18
  Q 156.59 191.51 161.81 197.44
  Q 172.30 209.34 174.81 210.94
  Q 180.43 214.51 184.00 214.75
  Q 190.55 215.18 218.02 215.24
  Q 223.03 215.25 225.86 214.38
  Q 229.79 213.16 233.02 210.71
  Q 234.14 209.87 241.21 202.50
  Q 250.39 192.95 259.54 183.38
  Q 259.60 183.31 261.29 181.46
  Q 264.68 177.72 269.14 175.64
  Q 271.20 174.68 272.30 176.67
  Q 273.77 179.32 274.40 182.27
  Q 279.78 207.35 290.75 230.50
  Q 296.04 241.66 304.46 249.40
  Q 308.54 253.15 312.23 254.64
  Q 316.88 256.53 321.75 256.00
  Q 332.99 254.78 336.72 243.74
  Q 338.93 237.21 338.72 230.31
  Q 338.33 217.24 334.84 204.81
  Q 332.43 196.22 328.02 186.01
  Q 317.07 160.65 298.19 142.31
  Q 290.71 135.06 280.18 128.09
  Q 271.87 122.59 262.52 118.80
  Q 227.69 104.69 191.00 106.50
  Q 146.54 108.69 110.36 136.63
  Q 58.90 176.35 51.18 240.04
  Q 49.96 250.09 50.37 259.99
  Q 52.11 301.53 74.16 336.46
  Q 79.74 345.29 86.10 352.48
  Q 95.18 362.75 107.19 372.31
  Q 140.79 399.07 182.50 403.50
  Q 215.19 406.97 250.15 400.15
  Q 265.62 397.14 265.90 397.09
  Q 280.30 394.39 294.53 390.85
  Q 318.27 384.96 342.00 379.01
  Q 365.97 373.00 381.06 370.06
  Q 395.94 367.16 412.25 367.06
  Q 424.85 366.98 432.24 367.79
  Q 447.18 369.44 460.75 376.13
  Q 461.90 376.69 461.56 375.46
  Q 459.11 366.58 455.38 358.32
  Q 452.02 350.88 446.95 342.21
  Q 437.76 326.51 425.44 313.81
  Q 383.73 270.86 322.73 276.81
  Q 318.97 277.18 315.25 277.79"
/>
<path stroke="#cc4e2a" vector-effect="non-scaling-stroke" d="
  M 136.00 177.04
  Q 135.13 176.77 134.69 177.69
  Q 131.20 184.96 129.60 188.94
  Q 118.19 217.44 107.16 246.10
  Q 98.74 267.98 89.23 289.40
  Q 89.20 289.46 87.56 292.93
  Q 86.23 295.74 86.06 297.31
  Q 85.66 300.98 89.08 301.86
  Q 91.02 302.36 94.81 303.94
  Q 118.11 313.64 137.44 325.06
  Q 157.37 336.83 170.77 355.68
  Q 175.87 362.85 180.50 370.32
  Q 184.12 376.17 187.81 378.94
  Q 196.91 385.75 204.06 377.31
  Q 225.05 352.57 240.05 336.55
  Q 247.25 328.86 255.21 321.96
  Q 283.44 297.45 315.25 277.79"
/>
<path stroke="#edaa97" vector-effect="non-scaling-stroke" d="
  M 159.24 274.49
  Q 167.81 281.27 179.63 282.06
  C 180.51 282.12 181.25 281.42 181.25 280.54
  Q 181.26 277.89 179.49 275.08
  Q 173.33 265.28 162.50 261.25
  Q 157.30 259.31 150.86 259.82
  C 150.22 259.87 149.74 260.44 149.81 261.08
  Q 150.08 263.90 151.99 266.70
  Q 155.02 271.15 159.24 274.49"
/>
<path stroke="#edaa97" vector-effect="non-scaling-stroke" d="
  M 261.29 259.99
  Q 248.56 259.42 239.97 266.97
  Q 235.53 270.87 232.39 275.87
  Q 231.20 277.77 230.91 280.98
  C 230.84 281.75 231.48 282.39 232.25 282.33
  Q 248.80 280.97 258.51 268.99
  Q 261.15 265.74 262.28 261.33
  C 262.45 260.67 261.97 260.02 261.29 259.99"
/>
<path stroke="#edaa97" vector-effect="non-scaling-stroke" d="
  M 202.53 325.20
  Q 206.10 328.10 209.31 325.81
  Q 212.31 323.67 218.88 316.11
  Q 221.91 312.61 219.69 309.31
  Q 217.01 305.34 211.24 305.56
  Q 206.25 305.75 201.26 305.57
  Q 196.80 305.41 193.80 308.20
  Q 192.23 309.67 191.93 311.28
  Q 191.56 313.24 192.91 315.08
  Q 197.08 320.76 202.53 325.20"
/>
<path stroke="#edaa97" vector-effect="non-scaling-stroke" d="
  M 408.92 350.29
  Q 422.28 351.12 436.08 353.34
  Q 437.38 353.55 436.77 352.39
  Q 419.32 319.02 385.48 300.49
  Q 382.41 298.81 383.97 301.95
  Q 385.82 305.68 388.73 310.68
  Q 391.91 316.14 392.00 320.00
  Q 392.40 337.25 379.64 348.32
  Q 379.58 348.37 378.44 349.26
  Q 376.50 350.78 375.56 353.07
  Q 374.61 355.40 376.83 354.23
  Q 379.10 353.04 382.03 352.39
  Q 395.32 349.43 408.92 350.29"
/>
</g>
<path fill="#ffffff" d="
  M 0.00 0.00
  Q 256.00 0.00 512.00 0.00
  Q 512.00 256.00 512.00 512.00
  Q 256.00 512.00 0.00 512.00
  Q 0.00 256.00 0.00 0.00
  Z
  M 315.25 277.79
  Q 294.63 279.94 273.69 289.69
  Q 257.47 297.23 243.12 307.90
  Q 235.44 313.61 216.50 329.75
  Q 209.37 335.83 201.61 332.96
  Q 198.47 331.79 192.29 326.33
  Q 180.10 315.56 166.71 306.28
  Q 145.20 291.36 120.40 282.80
  C 120.12 282.70 119.94 282.42 119.98 282.12
  Q 126.68 231.15 134.75 180.50
  Q 135.00 178.96 136.00 177.04
  Q 137.03 175.57 138.50 175.75
  Q 141.04 176.06 143.09 177.71
  Q 143.28 177.86 146.52 181.18
  Q 156.59 191.51 161.81 197.44
  Q 172.30 209.34 174.81 210.94
  Q 180.43 214.51 184.00 214.75
  Q 190.55 215.18 218.02 215.24
  Q 223.03 215.25 225.86 214.38
  Q 229.79 213.16 233.02 210.71
  Q 234.14 209.87 241.21 202.50
  Q 250.39 192.95 259.54 183.38
  Q 259.60 183.31 261.29 181.46
  Q 264.68 177.72 269.14 175.64
  Q 271.20 174.68 272.30 176.67
  Q 273.77 179.32 274.40 182.27
  Q 279.78 207.35 290.75 230.50
  Q 296.04 241.66 304.46 249.40
  Q 308.54 253.15 312.23 254.64
  Q 316.88 256.53 321.75 256.00
  Q 332.99 254.78 336.72 243.74
  Q 338.93 237.21 338.72 230.31
  Q 338.33 217.24 334.84 204.81
  Q 332.43 196.22 328.02 186.01
  Q 317.07 160.65 298.19 142.31
  Q 290.71 135.06 280.18 128.09
  Q 271.87 122.59 262.52 118.80
  Q 227.69 104.69 191.00 106.50
  Q 146.54 108.69 110.36 136.63
  Q 58.90 176.35 51.18 240.04
  Q 49.96 250.09 50.37 259.99
  Q 52.11 301.53 74.16 336.46
  Q 79.74 345.29 86.10 352.48
  Q 95.18 362.75 107.19 372.31
  Q 140.79 399.07 182.50 403.50
  Q 215.19 406.97 250.15 400.15
  Q 265.62 397.14 265.90 397.09
  Q 280.30 394.39 294.53 390.85
  Q 318.27 384.96 342.00 379.01
  Q 365.97 373.00 381.06 370.06
  Q 395.94 367.16 412.25 367.06
  Q 424.85 366.98 432.24 367.79
  Q 447.18 369.44 460.75 376.13
  Q 461.90 376.69 461.56 375.46
  Q 459.11 366.58 455.38 358.32
  Q 452.02 350.88 446.95 342.21
  Q 437.76 326.51 425.44 313.81
  Q 383.73 270.86 322.73 276.81
  Q 318.97 277.18 315.25 277.79
  Z
  M 159.24 274.49
  Q 167.81 281.27 179.63 282.06
  C 180.51 282.12 181.25 281.42 181.25 280.54
  Q 181.26 277.89 179.49 275.08
  Q 173.33 265.28 162.50 261.25
  Q 157.30 259.31 150.86 259.82
  C 150.22 259.87 149.74 260.44 149.81 261.08
  Q 150.08 263.90 151.99 266.70
  Q 155.02 271.15 159.24 274.49
  Z
  M 261.29 259.99
  Q 248.56 259.42 239.97 266.97
  Q 235.53 270.87 232.39 275.87
  Q 231.20 277.77 230.91 280.98
  C 230.84 281.75 231.48 282.39 232.25 282.33
  Q 248.80 280.97 258.51 268.99
  Q 261.15 265.74 262.28 261.33
  C 262.45 260.67 261.97 260.02 261.29 259.99
  Z
  M 202.53 325.20
  Q 206.10 328.10 209.31 325.81
  Q 212.31 323.67 218.88 316.11
  Q 221.91 312.61 219.69 309.31
  Q 217.01 305.34 211.24 305.56
  Q 206.25 305.75 201.26 305.57
  Q 196.80 305.41 193.80 308.20
  Q 192.23 309.67 191.93 311.28
  Q 191.56 313.24 192.91 315.08
  Q 197.08 320.76 202.53 325.20
  Z"
/>
<path fill="#db542f" d="
  M 136.00 177.04
  Q 135.13 176.77 134.69 177.69
  Q 131.20 184.96 129.60 188.94
  Q 118.19 217.44 107.16 246.10
  Q 98.74 267.98 89.23 289.40
  Q 89.20 289.46 87.56 292.93
  Q 86.23 295.74 86.06 297.31
  Q 85.66 300.98 89.08 301.86
  Q 91.02 302.36 94.81 303.94
  Q 118.11 313.64 137.44 325.06
  Q 157.37 336.83 170.77 355.68
  Q 175.87 362.85 180.50 370.32
  Q 184.12 376.17 187.81 378.94
  Q 196.91 385.75 204.06 377.31
  Q 225.05 352.57 240.05 336.55
  Q 247.25 328.86 255.21 321.96
  Q 283.44 297.45 315.25 277.79
  Q 318.97 277.18 322.73 276.81
  Q 383.73 270.86 425.44 313.81
  Q 437.76 326.51 446.95 342.21
  Q 452.02 350.88 455.38 358.32
  Q 459.11 366.58 461.56 375.46
  Q 461.90 376.69 460.75 376.13
  Q 447.18 369.44 432.24 367.79
  Q 424.85 366.98 412.25 367.06
  Q 395.94 367.16 381.06 370.06
  Q 365.97 373.00 342.00 379.01
  Q 318.27 384.96 294.53 390.85
  Q 280.30 394.39 265.90 397.09
  Q 265.62 397.14 250.15 400.15
  Q 215.19 406.97 182.50 403.50
  Q 140.79 399.07 107.19 372.31
  Q 95.18 362.75 86.10 352.48
  Q 79.74 345.29 74.16 336.46
  Q 52.11 301.53 50.37 259.99
  Q 49.96 250.09 51.18 240.04
  Q 58.90 176.35 110.36 136.63
  Q 146.54 108.69 191.00 106.50
  Q 227.69 104.69 262.52 118.80
  Q 271.87 122.59 280.18 128.09
  Q 290.71 135.06 298.19 142.31
  Q 317.07 160.65 328.02 186.01
  Q 332.43 196.22 334.84 204.81
  Q 338.33 217.24 338.72 230.31
  Q 338.93 237.21 336.72 243.74
  Q 332.99 254.78 321.75 256.00
  Q 316.88 256.53 312.23 254.64
  Q 308.54 253.15 304.46 249.40
  Q 296.04 241.66 290.75 230.50
  Q 279.78 207.35 274.40 182.27
  Q 273.77 179.32 272.30 176.67
  Q 271.20 174.68 269.14 175.64
  Q 264.68 177.72 261.29 181.46
  Q 259.60 183.31 259.54 183.38
  Q 250.39 192.95 241.21 202.50
  Q 234.14 209.87 233.02 210.71
  Q 229.79 213.16 225.86 214.38
  Q 223.03 215.25 218.02 215.24
  Q 190.55 215.18 184.00 214.75
  Q 180.43 214.51 174.81 210.94
  Q 172.30 209.34 161.81 197.44
  Q 156.59 191.51 146.52 181.18
  Q 143.28 177.86 143.09 177.71
  Q 141.04 176.06 138.50 175.75
  Q 137.03 175.57 136.00 177.04
  Z
  M 408.92 350.29
  Q 422.28 351.12 436.08 353.34
  Q 437.38 353.55 436.77 352.39
  Q 419.32 319.02 385.48 300.49
  Q 382.41 298.81 383.97 301.95
  Q 385.82 305.68 388.73 310.68
  Q 391.91 316.14 392.00 320.00
  Q 392.40 337.25 379.64 348.32
  Q 379.58 348.37 378.44 349.26
  Q 376.50 350.78 375.56 353.07
  Q 374.61 355.40 376.83 354.23
  Q 379.10 353.04 382.03 352.39
  Q 395.32 349.43 408.92 350.29
  Z"
/>
<path fill="#bd4725" d="
  M 136.00 177.04
  Q 135.00 178.96 134.75 180.50
  Q 126.68 231.15 119.98 282.12
  C 119.94 282.42 120.12 282.70 120.40 282.80
  Q 145.20 291.36 166.71 306.28
  Q 180.10 315.56 192.29 326.33
  Q 198.47 331.79 201.61 332.96
  Q 209.37 335.83 216.50 329.75
  Q 235.44 313.61 243.12 307.90
  Q 257.47 297.23 273.69 289.69
  Q 294.63 279.94 315.25 277.79
  Q 283.44 297.45 255.21 321.96
  Q 247.25 328.86 240.05 336.55
  Q 225.05 352.57 204.06 377.31
  Q 196.91 385.75 187.81 378.94
  Q 184.12 376.17 180.50 370.32
  Q 175.87 362.85 170.77 355.68
  Q 157.37 336.83 137.44 325.06
  Q 118.11 313.64 94.81 303.94
  Q 91.02 302.36 89.08 301.86
  Q 85.66 300.98 86.06 297.31
  Q 86.23 295.74 87.56 292.93
  Q 89.20 289.46 89.23 289.40
  Q 98.74 267.98 107.16 246.10
  Q 118.19 217.44 129.60 188.94
  Q 131.20 184.96 134.69 177.69
  Q 135.13 176.77 136.00 177.04
  Z"
/>
<path fill="#db542f" d="
  M 159.24 274.49
  Q 155.02 271.15 151.99 266.70
  Q 150.08 263.90 149.81 261.08
  C 149.74 260.44 150.22 259.87 150.86 259.82
  Q 157.30 259.31 162.50 261.25
  Q 173.33 265.28 179.49 275.08
  Q 181.26 277.89 181.25 280.54
  C 181.25 281.42 180.51 282.12 179.63 282.06
  Q 167.81 281.27 159.24 274.49
  Z"
/>
<path fill="#db542f" d="
  M 261.29 259.99
  C 261.97 260.02 262.45 260.67 262.28 261.33
  Q 261.15 265.74 258.51 268.99
  Q 248.80 280.97 232.25 282.33
  C 231.48 282.39 230.84 281.75 230.91 280.98
  Q 231.20 277.77 232.39 275.87
  Q 235.53 270.87 239.97 266.97
  Q 248.56 259.42 261.29 259.99
  Z"
/>
<path fill="#ffffff" d="
  M 408.92 350.29
  Q 395.32 349.43 382.03 352.39
  Q 379.10 353.04 376.83 354.23
  Q 374.61 355.40 375.56 353.07
  Q 376.50 350.78 378.44 349.26
  Q 379.58 348.37 379.64 348.32
  Q 392.40 337.25 392.00 320.00
  Q 391.91 316.14 388.73 310.68
  Q 385.82 305.68 383.97 301.95
  Q 382.41 298.81 385.48 300.49
  Q 419.32 319.02 436.77 352.39
  Q 437.38 353.55 436.08 353.34
  Q 422.28 351.12 408.92 350.29
  Z"
/>
<path fill="#db542f" d="
  M 202.53 325.20
  Q 197.08 320.76 192.91 315.08
  Q 191.56 313.24 191.93 311.28
  Q 192.23 309.67 193.80 308.20
  Q 196.80 305.41 201.26 305.57
  Q 206.25 305.75 211.24 305.56
  Q 217.01 305.34 219.69 309.31
  Q 221.91 312.61 218.88 316.11
  Q 212.31 323.67 209.31 325.81
  Q 206.10 328.10 202.53 325.20
  Z"
/>
</svg>
