<?xml version="1.0" encoding="UTF-8" standalone="no"?>
<!DOCTYPE svg PUBLIC "-//W3C//DTD SVG 1.1//EN" "http://www.w3.org/Graphics/SVG/1.1/DTD/svg11.dtd">
<svg xmlns="http://www.w3.org/2000/svg" version="1.1" viewBox="0 0 256 256">
<g stroke-width="2.0" fill="none" stroke-linecap="butt">
<path stroke="#3177e7" vector-effect="non-scaling-stroke" d="
  M 123.25 0.29
  Q 123.77 48.66 123.50 82.50
  Q 123.45 89.40 123.75 93.21"
/>
<path stroke="#90b0e7" vector-effect="non-scaling-stroke" d="
  M 123.75 93.21
  L 96.45 113.04
  Q 95.03 114.07 95.20 112.32
  Q 95.96 104.28 90.47 100.86
  Q 88.29 99.51 84.23 99.43
  Q 68.28 99.15 52.34 99.43
  Q 47.73 99.51 45.41 100.75
  Q 41.73 102.72 40.76 106.67
  Q 40.50 107.73 40.50 116.35
  Q 40.50 130.92 40.50 145.50
  Q 40.50 149.28 44.50 152.29"
/>
<path stroke="#1d57ba" vector-effect="non-scaling-stroke" d="
  M 44.50 152.29
  Q 44.09 152.61 44.11 153.03
  Q 44.15 153.79 44.09 153.97
  Q 43.08 157.32 46.74 156.69
  Q 47.27 156.60 47.54 157.00"
/>
<path stroke="#1e59c0" vector-effect="non-scaling-stroke" d="
  M 47.54 157.00
  Q 48.55 157.88 48.52 158.77
  C 48.49 159.71 49.23 160.49 50.17 160.51
  Q 72.01 160.95 91.26 160.27
  C 91.65 160.26 91.98 160.13 92.12 159.93
  L 93.56 157.95
  C 93.77 157.66 94.03 157.47 94.24 157.44
  Q 98.60 156.84 100.19 153.69
  Q 101.96 150.16 105.33 150.82
  C 105.62 150.88 105.90 151.05 106.15 151.31
  L 110.33 155.71
  Q 110.63 156.02 111.17 156.20
  Q 113.16 156.85 114.31 158.94
  Q 115.46 161.01 117.93 160.86
  C 118.32 160.84 118.65 160.96 118.76 161.18
  L 119.62 162.78
  C 119.79 163.09 120.01 163.31 120.23 163.39
  L 123.46 164.50"
/>
<path stroke="#2369d6" vector-effect="non-scaling-stroke" d="
  M 123.46 164.50
  Q 123.48 164.77 123.61 164.98
  C 123.80 165.30 123.90 165.59 123.89 165.78
  Q 123.74 167.73 123.69 174.56
  Q 123.36 213.15 123.57 251.75
  Q 123.58 253.81 124.25 255.71"
/>
<path stroke="#347fee" vector-effect="non-scaling-stroke" d="
  M 256.00 125.06
  Q 255.75 125.33 255.69 125.69
  C 255.64 125.97 255.43 126.18 255.18 126.18
  L 125.04 126.00
  C 124.38 126.00 123.83 125.53 123.81 124.94
  L 123.71 122.00"
/>
<path stroke="#3d82ea" vector-effect="non-scaling-stroke" d="
  M 123.71 122.00
  L 124.06 116.07
  C 124.08 115.77 124.28 115.53 124.55 115.47
  Q 129.25 114.50 131.97 110.86
  Q 133.37 108.97 134.55 108.16
  Q 136.12 107.08 137.72 106.05
  Q 138.42 105.61 140.45 104.84
  Q 141.93 104.28 143.05 103.21
  Q 144.99 101.34 145.91 100.85
  Q 149.96 98.69 154.28 96.71
  Q 156.52 95.68 158.20 97.49
  Q 158.85 98.18 159.99 98.78
  Q 160.88 99.24 162.11 99.31
  Q 170.55 99.80 179.00 100.22
  Q 191.54 100.85 204.00 99.23
  Q 206.27 98.94 208.36 98.02
  C 208.62 97.90 208.85 97.67 209.00 97.35
  Q 209.95 95.35 212.26 95.25
  C 212.54 95.24 212.76 95.02 212.77 94.75
  Q 213.62 69.59 212.83 44.43
  C 212.82 44.18 212.59 43.98 212.32 44.01
  Q 209.11 44.35 210.04 41.04
  C 210.12 40.77 209.97 40.49 209.71 40.42
  Q 207.40 39.81 205.00 40.29"
/>
<path stroke="#a1c6ff" vector-effect="non-scaling-stroke" d="
  M 205.00 40.29
  Q 201.97 38.50 200.00 38.50
  Q 185.09 38.50 170.17 38.50
  Q 163.33 38.50 162.34 38.68
  Q 157.76 39.52 155.61 43.49
  Q 154.25 45.98 154.26 51.27
  Q 154.28 61.10 154.19 70.94
  C 154.19 71.25 154.04 71.54 153.79 71.72
  L 123.75 93.21"
/>
<path stroke="#9cbbea" vector-effect="non-scaling-stroke" d="
  M 205.00 40.29
  Q 207.16 42.00 208.29 44.50"
/>
<path stroke="#9cbbea" vector-effect="non-scaling-stroke" d="
  M 208.29 44.50
  Q 208.94 46.06 208.95 47.75
  Q 209.00 64.87 209.00 81.98
  Q 209.00 85.81 208.00 87.83
  Q 206.51 90.86 203.56 92.22
  Q 201.33 93.25 195.30 93.26
  Q 179.03 93.27 162.75 93.21"
/>
<path stroke="#9cbbea" vector-effect="non-scaling-stroke" d="
  M 162.75 93.21
  Q 157.78 92.29 155.18 87.70
  C 155.01 87.40 154.61 87.31 154.33 87.52
  L 123.00 110.21"
/>
<path stroke="#8da6d2" vector-effect="non-scaling-stroke" d="
  M 123.00 110.21
  L 100.15 126.70
  C 99.94 126.86 99.93 127.16 100.13 127.32
  L 108.21 133.50"
/>
<path stroke="#93b8ee" vector-effect="non-scaling-stroke" d="
  M 108.21 133.50
  L 154.02 169.20
  C 154.34 169.45 154.81 169.37 155.03 169.02
  Q 156.84 166.10 159.44 164.62
  Q 161.41 163.50 165.28 163.50
  Q 179.75 163.50 194.21 163.50
  Q 200.55 163.50 201.27 163.65
  Q 204.98 164.39 207.46 167.75"
/>
<path stroke="#8fafdb" vector-effect="non-scaling-stroke" d="
  M 207.46 167.75
  Q 209.00 170.38 209.00 174.50
  Q 209.00 190.62 209.00 206.75
  Q 209.00 213.63 204.41 216.58
  Q 202.23 217.99 197.78 218.08
  Q 181.77 218.42 165.75 218.25
  Q 158.95 218.18 155.71 213.50"
/>
<path stroke="#93b8ee" vector-effect="non-scaling-stroke" d="
  M 155.71 213.50
  Q 154.12 210.70 154.25 206.50
  Q 154.37 202.71 154.19 186.56
  C 154.19 186.24 154.04 185.95 153.79 185.75
  L 124.00 162.71"
/>
<path stroke="#8ea9d8" vector-effect="non-scaling-stroke" d="
  M 124.00 162.71
  L 104.00 147.21"
/>
<path stroke="#8da6d2" vector-effect="non-scaling-stroke" d="
  M 104.00 147.21
  L 96.27 141.02
  Q 95.10 140.08 95.21 141.59
  Q 95.73 149.49 90.38 152.68
  Q 88.16 154.00 83.84 154.00
  Q 67.04 154.00 50.25 154.00
  Q 46.94 154.00 44.50 152.29"
/>
<path stroke="#2f74d9" vector-effect="non-scaling-stroke" d="
  M 123.71 122.00
  L 123.46 117.75"
/>
<path stroke="#2962bd" vector-effect="non-scaling-stroke" d="
  M 123.46 117.75
  Q 123.91 113.93 123.00 110.21"
/>
<path stroke="#3877d5" vector-effect="non-scaling-stroke" d="
  M 162.75 93.21
  Q 160.85 93.96 162.10 94.89
  C 162.83 95.44 163.73 95.73 164.65 95.74
  Q 174.39 95.81 182.48 95.04
  Q 184.04 94.89 187.19 95.56
  Q 190.35 96.24 200.48 95.62
  Q 202.58 95.49 203.84 94.76
  Q 205.22 93.97 206.68 92.62
  C 206.93 92.39 207.24 92.26 207.57 92.24
  Q 209.73 92.10 210.05 90.90
  Q 210.14 90.55 210.02 88.59
  Q 209.95 87.44 209.63 85.49
  Q 209.50 84.69 209.50 83.89
  Q 209.64 64.53 209.31 44.81
  Q 209.29 43.76 208.29 44.50"
/>
<path stroke="#205fc1" vector-effect="non-scaling-stroke" d="
  M 123.46 117.75
  Q 121.06 118.86 118.97 120.44
  Q 118.86 120.52 117.45 121.44
  Q 115.89 122.46 115.37 124.26
  C 115.26 124.65 115.06 124.94 114.83 125.04
  L 110.80 126.94
  Q 108.54 128.01 108.82 130.01
  Q 109.05 131.60 108.21 133.50"
/>
<path stroke="#2a6dc7" stroke-opacity="0.808" vector-effect="non-scaling-stroke" d="
  M 256.00 137.56
  Q 255.37 144.19 256.00 150.81"
/>
<path stroke="#2a6dc7" stroke-opacity="0.808" vector-effect="non-scaling-stroke" d="
  M 256.00 158.56
  Q 255.37 166.69 256.00 174.81"
/>
<path stroke="#2a6dc7" stroke-opacity="0.808" vector-effect="non-scaling-stroke" d="
  M 256.00 178.56
  Q 255.37 182.69 256.00 186.81"
/>
<path stroke="#2162c7" vector-effect="non-scaling-stroke" d="
  M 123.46 164.50
  Q 123.23 163.33 124.00 162.71"
/>
<path stroke="#2368ca" vector-effect="non-scaling-stroke" d="
  M 155.71 213.50
  Q 153.88 214.64 154.87 218.01
  C 155.01 218.50 155.50 218.82 156.02 218.75
  Q 158.36 218.42 158.05 220.45
  C 157.97 220.94 158.30 221.41 158.79 221.51
  Q 163.47 222.45 167.00 222.44
  Q 188.38 222.44 209.22 222.01
  C 209.87 222.00 210.36 221.41 210.25 220.76
  Q 210.00 219.25 211.60 219.52
  C 212.31 219.64 212.97 219.10 212.98 218.37
  Q 213.36 194.04 213.01 171.05
  Q 213.00 170.38 212.75 170.02
  Q 212.26 169.32 211.54 169.80
  C 211.15 170.06 210.62 169.82 210.57 169.35
  Q 210.08 165.12 207.46 167.75"
/>
<path stroke="#1b50ab" vector-effect="non-scaling-stroke" d="
  M 104.00 147.21
  Q 103.08 148.17 101.31 148.06
  Q 99.97 147.99 99.92 149.19
  C 99.90 149.53 99.79 149.84 99.60 150.05
  L 94.58 155.92
  C 94.13 156.45 93.50 156.75 92.86 156.75
  L 47.54 157.00"
/>
</g>
<path fill="#2060cf" d="
  M 123.25 0.29
  Q 123.77 48.66 123.50 82.50
  Q 123.45 89.40 123.75 93.21
  L 96.45 113.04
  Q 95.03 114.07 95.20 112.32
  Q 95.96 104.28 90.47 100.86
  Q 88.29 99.51 84.23 99.43
  Q 68.28 99.15 52.34 99.43
  Q 47.73 99.51 45.41 100.75
  Q 41.73 102.72 40.76 106.67
  Q 40.50 107.73 40.50 116.35
  Q 40.50 130.92 40.50 145.50
  Q 40.50 149.28 44.50 152.29
  Q 44.09 152.61 44.11 153.03
  Q 44.15 153.79 44.09 153.97
  Q 43.08 157.32 46.74 156.69
  Q 47.27 156.60 47.54 157.00
  Q 48.55 157.88 48.52 158.77
  C 48.49 159.71 49.23 160.49 50.17 160.51
  Q 72.01 160.95 91.26 160.27
  C 91.65 160.26 91.98 160.13 92.12 159.93
  L 93.56 157.95
  C 93.77 157.66 94.03 157.47 94.24 157.44
  Q 98.60 156.84 100.19 153.69
  Q 101.96 150.16 105.33 150.82
  C 105.62 150.88 105.90 151.05 106.15 151.31
  L 110.33 155.71
  Q 110.63 156.02 111.17 156.20
  Q 113.16 156.85 114.31 158.94
  Q 115.46 161.01 117.93 160.86
  C 118.32 160.84 118.65 160.96 118.76 161.18
  L 119.62 162.78
  C 119.79 163.09 120.01 163.31 120.23 163.39
  L 123.46 164.50
  Q 123.48 164.77 123.61 164.98
  C 123.80 165.30 123.90 165.59 123.89 165.78
  Q 123.74 167.73 123.69 174.56
  Q 123.36 213.15 123.57 251.75
  Q 123.58 253.81 124.25 255.71
  Q 90.50 255.77 56.74 255.76
  Q 42.72 255.75 36.87 254.29
  Q 26.52 251.71 18.19 244.81
  Q 5.17 234.03 1.56 218.14
  Q 0.25 212.36 0.25 198.25
  Q 0.25 128.12 0.25 58.00
  Q 0.25 43.89 1.54 38.09
  Q 5.44 20.53 20.50 9.50
  Q 32.92 0.40 49.25 0.34
  Q 86.25 0.22 123.25 0.29
  Z"
/>
<path fill="#428dff" d="
  M 123.25 0.29
  Q 190.92 0.17 205.00 0.25
  Q 237.38 0.43 251.19 28.31
  Q 256.24 38.52 256.00 51.81
  Q 256.00 88.44 256.00 125.06
  Q 255.75 125.33 255.69 125.69
  C 255.64 125.97 255.43 126.18 255.18 126.18
  L 125.04 126.00
  C 124.38 126.00 123.83 125.53 123.81 124.94
  L 123.71 122.00
  L 124.06 116.07
  C 124.08 115.77 124.28 115.53 124.55 115.47
  Q 129.25 114.50 131.97 110.86
  Q 133.37 108.97 134.55 108.16
  Q 136.12 107.08 137.72 106.05
  Q 138.42 105.61 140.45 104.84
  Q 141.93 104.28 143.05 103.21
  Q 144.99 101.34 145.91 100.85
  Q 149.96 98.69 154.28 96.71
  Q 156.52 95.68 158.20 97.49
  Q 158.85 98.18 159.99 98.78
  Q 160.88 99.24 162.11 99.31
  Q 170.55 99.80 179.00 100.22
  Q 191.54 100.85 204.00 99.23
  Q 206.27 98.94 208.36 98.02
  C 208.62 97.90 208.85 97.67 209.00 97.35
  Q 209.95 95.35 212.26 95.25
  C 212.54 95.24 212.76 95.02 212.77 94.75
  Q 213.62 69.59 212.83 44.43
  C 212.82 44.18 212.59 43.98 212.32 44.01
  Q 209.11 44.35 210.04 41.04
  C 210.12 40.77 209.97 40.49 209.71 40.42
  Q 207.40 39.81 205.00 40.29
  Q 201.97 38.50 200.00 38.50
  Q 185.09 38.50 170.17 38.50
  Q 163.33 38.50 162.34 38.68
  Q 157.76 39.52 155.61 43.49
  Q 154.25 45.98 154.26 51.27
  Q 154.28 61.10 154.19 70.94
  C 154.19 71.25 154.04 71.54 153.79 71.72
  L 123.75 93.21
  Q 123.45 89.40 123.50 82.50
  Q 123.77 48.66 123.25 0.29
  Z"
/>
<path fill="#ffffff" d="
  M 205.00 40.29
  Q 207.16 42.00 208.29 44.50
  Q 208.94 46.06 208.95 47.75
  Q 209.00 64.87 209.00 81.98
  Q 209.00 85.81 208.00 87.83
  Q 206.51 90.86 203.56 92.22
  Q 201.33 93.25 195.30 93.26
  Q 179.03 93.27 162.75 93.21
  Q 157.78 92.29 155.18 87.70
  C 155.01 87.40 154.61 87.31 154.33 87.52
  L 123.00 110.21
  L 100.15 126.70
  C 99.94 126.86 99.93 127.16 100.13 127.32
  L 108.21 133.50
  L 154.02 169.20
  C 154.34 169.45 154.81 169.37 155.03 169.02
  Q 156.84 166.10 159.44 164.62
  Q 161.41 163.50 165.28 163.50
  Q 179.75 163.50 194.21 163.50
  Q 200.55 163.50 201.27 163.65
  Q 204.98 164.39 207.46 167.75
  Q 209.00 170.38 209.00 174.50
  Q 209.00 190.62 209.00 206.75
  Q 209.00 213.63 204.41 216.58
  Q 202.23 217.99 197.78 218.08
  Q 181.77 218.42 165.75 218.25
  Q 158.95 218.18 155.71 213.50
  Q 154.12 210.70 154.25 206.50
  Q 154.37 202.71 154.19 186.56
  C 154.19 186.24 154.04 185.95 153.79 185.75
  L 124.00 162.71
  L 104.00 147.21
  L 96.27 141.02
  Q 95.10 140.08 95.21 141.59
  Q 95.73 149.49 90.38 152.68
  Q 88.16 154.00 83.84 154.00
  Q 67.04 154.00 50.25 154.00
  Q 46.94 154.00 44.50 152.29
  Q 40.50 149.28 40.50 145.50
  Q 40.50 130.92 40.50 116.35
  Q 40.50 107.73 40.76 106.67
  Q 41.73 102.72 45.41 100.75
  Q 47.73 99.51 52.34 99.43
  Q 68.28 99.15 84.23 99.43
  Q 88.29 99.51 90.47 100.86
  Q 95.96 104.28 95.20 112.32
  Q 95.03 114.07 96.45 113.04
  L 123.75 93.21
  L 153.79 71.72
  C 154.04 71.54 154.19 71.25 154.19 70.94
  Q 154.28 61.10 154.26 51.27
  Q 154.25 45.98 155.61 43.49
  Q 157.76 39.52 162.34 38.68
  Q 163.33 38.50 170.17 38.50
  Q 185.09 38.50 200.00 38.50
  Q 201.97 38.50 205.00 40.29
  Z"
/>
<path fill="#3877d5" d="
  M 123.71 122.00
  L 123.46 117.75
  Q 123.91 113.93 123.00 110.21
  L 154.33 87.52
  C 154.61 87.31 155.01 87.40 155.18 87.70
  Q 157.78 92.29 162.75 93.21
  Q 160.85 93.96 162.10 94.89
  C 162.83 95.44 163.73 95.73 164.65 95.74
  Q 174.39 95.81 182.48 95.04
  Q 184.04 94.89 187.19 95.56
  Q 190.35 96.24 200.48 95.62
  Q 202.58 95.49 203.84 94.76
  Q 205.22 93.97 206.68 92.62
  C 206.93 92.39 207.24 92.26 207.57 92.24
  Q 209.73 92.10 210.05 90.90
  Q 210.14 90.55 210.02 88.59
  Q 209.95 87.44 209.63 85.49
  Q 209.50 84.69 209.50 83.89
  Q 209.64 64.53 209.31 44.81
  Q 209.29 43.76 208.29 44.50
  Q 207.16 42.00 205.00 40.29
  Q 207.40 39.81 209.71 40.42
  C 209.97 40.49 210.12 40.77 210.04 41.04
  Q 209.11 44.35 212.32 44.01
  C 212.59 43.98 212.82 44.18 212.83 44.43
  Q 213.62 69.59 212.77 94.75
  C 212.76 95.02 212.54 95.24 212.26 95.25
  Q 209.95 95.35 209.00 97.35
  C 208.85 97.67 208.62 97.90 208.36 98.02
  Q 206.27 98.94 204.00 99.23
  Q 191.54 100.85 179.00 100.22
  Q 170.55 99.80 162.11 99.31
  Q 160.88 99.24 159.99 98.78
  Q 158.85 98.18 158.20 97.49
  Q 156.52 95.68 154.28 96.71
  Q 149.96 98.69 145.91 100.85
  Q 144.99 101.34 143.05 103.21
  Q 141.93 104.28 140.45 104.84
  Q 138.42 105.61 137.72 106.05
  Q 136.12 107.08 134.55 108.16
  Q 133.37 108.97 131.97 110.86
  Q 129.25 114.50 124.55 115.47
  C 124.28 115.53 124.08 115.77 124.06 116.07
  L 123.71 122.00
  Z"
/>
<path fill="#3877d5" d="
  M 162.75 93.21
  Q 179.03 93.27 195.30 93.26
  Q 201.33 93.25 203.56 92.22
  Q 206.51 90.86 208.00 87.83
  Q 209.00 85.81 209.00 81.98
  Q 209.00 64.87 208.95 47.75
  Q 208.94 46.06 208.29 44.50
  Q 209.29 43.76 209.31 44.81
  Q 209.64 64.53 209.50 83.89
  Q 209.50 84.69 209.63 85.49
  Q 209.95 87.44 210.02 88.59
  Q 210.14 90.55 210.05 90.90
  Q 209.73 92.10 207.57 92.24
  C 207.24 92.26 206.93 92.39 206.68 92.62
  Q 205.22 93.97 203.84 94.76
  Q 202.58 95.49 200.48 95.62
  Q 190.35 96.24 187.19 95.56
  Q 184.04 94.89 182.48 95.04
  Q 174.39 95.81 164.65 95.74
  C 163.73 95.73 162.83 95.44 162.10 94.89
  Q 160.85 93.96 162.75 93.21
  Z"
/>
<path fill="#1a4da5" d="
  M 123.00 110.21
  Q 123.91 113.93 123.46 117.75
  Q 121.06 118.86 118.97 120.44
  Q 118.86 120.52 117.45 121.44
  Q 115.89 122.46 115.37 124.26
  C 115.26 124.65 115.06 124.94 114.83 125.04
  L 110.80 126.94
  Q 108.54 128.01 108.82 130.01
  Q 109.05 131.60 108.21 133.50
  L 100.13 127.32
  C 99.93 127.16 99.94 126.86 100.15 126.70
  L 123.00 110.21
  Z"
/>
<path fill="#2671dd" d="
  M 123.46 117.75
  L 123.71 122.00
  L 123.81 124.94
  C 123.83 125.53 124.38 126.00 125.04 126.00
  L 255.18 126.18
  C 255.43 126.18 255.64 125.97 255.69 125.69
  Q 255.75 125.33 256.00 125.06
  Q 256.00 131.31 256.00 137.56
  Q 255.37 144.19 256.00 150.81
  Q 256.00 154.69 256.00 158.56
  Q 255.37 166.69 256.00 174.81
  Q 256.00 176.69 256.00 178.56
  Q 255.37 182.69 256.00 186.81
  Q 256.00 195.19 256.00 203.56
  Q 255.71 203.65 255.75 204.25
  Q 256.37 214.35 252.97 223.63
  Q 249.69 232.61 243.00 239.99
  Q 233.17 250.82 218.73 254.36
  Q 213.06 255.75 202.14 255.76
  Q 163.20 255.77 124.25 255.71
  Q 123.58 253.81 123.57 251.75
  Q 123.36 213.15 123.69 174.56
  Q 123.74 167.73 123.89 165.78
  C 123.90 165.59 123.80 165.30 123.61 164.98
  Q 123.48 164.77 123.46 164.50
  Q 123.23 163.33 124.00 162.71
  L 153.79 185.75
  C 154.04 185.95 154.19 186.24 154.19 186.56
  Q 154.37 202.71 154.25 206.50
  Q 154.12 210.70 155.71 213.50
  Q 153.88 214.64 154.87 218.01
  C 155.01 218.50 155.50 218.82 156.02 218.75
  Q 158.36 218.42 158.05 220.45
  C 157.97 220.94 158.30 221.41 158.79 221.51
  Q 163.47 222.45 167.00 222.44
  Q 188.38 222.44 209.22 222.01
  C 209.87 222.00 210.36 221.41 210.25 220.76
  Q 210.00 219.25 211.60 219.52
  C 212.31 219.64 212.97 219.10 212.98 218.37
  Q 213.36 194.04 213.01 171.05
  Q 213.00 170.38 212.75 170.02
  Q 212.26 169.32 211.54 169.80
  C 211.15 170.06 210.62 169.82 210.57 169.35
  Q 210.08 165.12 207.46 167.75
  Q 204.98 164.39 201.27 163.65
  Q 200.55 163.50 194.21 163.50
  Q 179.75 163.50 165.28 163.50
  Q 161.41 163.50 159.44 164.62
  Q 156.84 166.10 155.03 169.02
  C 154.81 169.37 154.34 169.45 154.02 169.20
  L 108.21 133.50
  Q 109.05 131.60 108.82 130.01
  Q 108.54 128.01 110.80 126.94
  L 114.83 125.04
  C 115.06 124.94 115.26 124.65 115.37 124.26
  Q 115.89 122.46 117.45 121.44
  Q 118.86 120.52 118.97 120.44
  Q 121.06 118.86 123.46 117.75
  Z"
/>
<path fill="#3067a4" fill-opacity="0.612" d="
  M 256.00 137.56
  Q 256.00 144.19 256.00 150.81
  Q 255.37 144.19 256.00 137.56
  Z"
/>
<path fill="#1a4da5" d="
  M 104.00 147.21
  Q 103.08 148.17 101.31 148.06
  Q 99.97 147.99 99.92 149.19
  C 99.90 149.53 99.79 149.84 99.60 150.05
  L 94.58 155.92
  C 94.13 156.45 93.50 156.75 92.86 156.75
  L 47.54 157.00
  Q 47.27 156.60 46.74 156.69
  Q 43.08 157.32 44.09 153.97
  Q 44.15 153.79 44.11 153.03
  Q 44.09 152.61 44.50 152.29
  Q 46.94 154.00 50.25 154.00
  Q 67.04 154.00 83.84 154.00
  Q 88.16 154.00 90.38 152.68
  Q 95.73 149.49 95.21 141.59
  Q 95.10 140.08 96.27 141.02
  L 104.00 147.21
  Z"
/>
<path fill="#1c52b1" d="
  M 104.00 147.21
  L 124.00 162.71
  Q 123.23 163.33 123.46 164.50
  L 120.23 163.39
  C 120.01 163.31 119.79 163.09 119.62 162.78
  L 118.76 161.18
  C 118.65 160.96 118.32 160.84 117.93 160.86
  Q 115.46 161.01 114.31 158.94
  Q 113.16 156.85 111.17 156.20
  Q 110.63 156.02 110.33 155.71
  L 106.15 151.31
  C 105.90 151.05 105.62 150.88 105.33 150.82
  Q 101.96 150.16 100.19 153.69
  Q 98.60 156.84 94.24 157.44
  C 94.03 157.47 93.77 157.66 93.56 157.95
  L 92.12 159.93
  C 91.98 160.13 91.65 160.26 91.26 160.27
  Q 72.01 160.95 50.17 160.51
  C 49.23 160.49 48.49 159.71 48.52 158.77
  Q 48.55 157.88 47.54 157.00
  L 92.86 156.75
  C 93.50 156.75 94.13 156.45 94.58 155.92
  L 99.60 150.05
  C 99.79 149.84 99.90 149.53 99.92 149.19
  Q 99.97 147.99 101.31 148.06
  Q 103.08 148.17 104.00 147.21
  Z"
/>
<path fill="#3067a4" fill-opacity="0.612" d="
  M 256.00 158.56
  Q 256.00 166.69 256.00 174.81
  Q 255.37 166.69 256.00 158.56
  Z"
/>
<path fill="#1f5eb7" d="
  M 155.71 213.50
  Q 158.95 218.18 165.75 218.25
  Q 181.77 218.42 197.78 218.08
  Q 202.23 217.99 204.41 216.58
  Q 209.00 213.63 209.00 206.75
  Q 209.00 190.62 209.00 174.50
  Q 209.00 170.38 207.46 167.75
  Q 210.08 165.12 210.57 169.35
  C 210.62 169.82 211.15 170.06 211.54 169.80
  Q 212.26 169.32 212.75 170.02
  Q 213.00 170.38 213.01 171.05
  Q 213.36 194.04 212.98 218.37
  C 212.97 219.10 212.31 219.64 211.60 219.52
  Q 210.00 219.25 210.25 220.76
  C 210.36 221.41 209.87 222.00 209.22 222.01
  Q 188.38 222.44 167.00 222.44
  Q 163.47 222.45 158.79 221.51
  C 158.30 221.41 157.97 220.94 158.05 220.45
  Q 158.36 218.42 156.02 218.75
  C 155.50 218.82 155.01 218.50 154.87 218.01
  Q 153.88 214.64 155.71 213.50
  Z"
/>
<path fill="#3067a4" fill-opacity="0.612" d="
  M 256.00 178.56
  Q 256.00 182.69 256.00 186.81
  Q 255.37 182.69 256.00 178.56
  Z"
/>
</svg>
