<?xml version="1.0" encoding="UTF-8" standalone="no"?>
<!DOCTYPE svg PUBLIC "-//W3C//DTD SVG 1.1//EN" "http://www.w3.org/Graphics/SVG/1.1/DTD/svg11.dtd">
<svg xmlns="http://www.w3.org/2000/svg" version="1.1" viewBox="0 0 155 155">
<g stroke-width="2.0" fill="none" stroke-linecap="butt">
<path stroke="#81a3e6" vector-effect="non-scaling-stroke" d="
  M 121.92 39.37
  C 121.92 30.97 102.04 24.16 77.51 24.16
  C 52.98 24.16 33.10 30.97 33.10 39.37
  C 33.10 47.77 52.98 54.58 77.51 54.58
  C 102.04 54.58 121.92 47.77 121.92 39.37"
/>
<path stroke="#4c83e6" vector-effect="non-scaling-stroke" d="
  M 69.56 61.19
  Q 59.90 60.54 50.49 58.29
  Q 41.35 56.11 34.24 51.48
  Q 33.00 50.67 33.00 52.16
  Q 33.00 57.79 33.00 62.57
  Q 33.00 62.69 32.86 64.93
  Q 32.56 69.76 37.19 72.06
  Q 46.65 76.77 56.16 78.23
  Q 73.78 80.94 91.52 79.24
  Q 102.82 78.15 113.48 74.30
  Q 117.01 73.03 120.42 70.03
  Q 122.01 68.63 122.00 66.55
  L 121.94 51.72
  Q 121.94 50.57 120.99 51.23
  Q 118.29 53.10 115.61 54.24
  Q 99.04 61.27 81.00 61.31
  Q 71.61 61.33 69.56 61.19"
/>
<path stroke="#1562e6" vector-effect="non-scaling-stroke" d="
  M 71.81 85.56
  Q 55.11 84.99 39.36 79.56
  Q 36.62 78.62 34.14 77.03
  Q 33.08 76.35 33.06 77.62
  Q 32.97 82.25 32.99 87.09
  Q 33.00 91.37 33.01 91.39
  Q 33.40 93.72 35.58 95.17
  Q 40.51 98.44 46.27 99.93
  Q 76.33 107.66 106.56 100.57
  Q 113.91 98.84 120.20 94.68
  Q 121.93 93.53 121.94 91.50
  L 122.00 77.16
  C 122.00 76.92 121.75 76.77 121.53 76.88
  Q 115.43 79.99 109.44 81.51
  Q 90.93 86.21 71.81 85.56"
/>
<path stroke="#024fdd" vector-effect="non-scaling-stroke" d="
  M 70.31 109.94
  Q 58.12 109.32 46.28 106.38
  Q 40.15 104.86 33.74 101.51
  C 33.40 101.33 33.00 101.58 33.00 101.96
  L 33.00 115.56
  Q 33.00 117.43 34.36 118.71
  Q 36.95 121.16 40.83 122.65
  Q 47.16 125.09 53.84 126.32
  Q 76.03 130.39 98.34 127.02
  Q 108.50 125.49 117.72 121.00
  Q 119.77 120.01 120.97 118.27
  Q 121.94 116.89 121.97 114.37
  Q 122.04 108.05 122.00 101.70
  Q 122.00 100.96 121.35 101.34
  Q 115.86 104.60 109.48 106.18
  Q 90.20 110.96 70.31 109.94"
/>
</g>
<path fill="#0246cc" d="
  M 26.81 0.00
  Q 77.56 0.00 128.31 0.00
  Q 151.48 3.61 155.00 26.81
  Q 155.00 77.56 155.00 128.31
  Q 151.36 151.45 128.19 155.00
  Q 77.56 155.00 26.94 155.00
  Q 3.55 151.54 0.00 128.19
  Q 0.00 77.56 0.00 26.94
  Q 3.46 3.60 26.81 0.00
  Z
  M 121.92 39.37
  C 121.92 30.97 102.04 24.16 77.51 24.16
  C 52.98 24.16 33.10 30.97 33.10 39.37
  C 33.10 47.77 52.98 54.58 77.51 54.58
  C 102.04 54.58 121.92 47.77 121.92 39.37
  Z
  M 69.56 61.19
  Q 59.90 60.54 50.49 58.29
  Q 41.35 56.11 34.24 51.48
  Q 33.00 50.67 33.00 52.16
  Q 33.00 57.79 33.00 62.57
  Q 33.00 62.69 32.86 64.93
  Q 32.56 69.76 37.19 72.06
  Q 46.65 76.77 56.16 78.23
  Q 73.78 80.94 91.52 79.24
  Q 102.82 78.15 113.48 74.30
  Q 117.01 73.03 120.42 70.03
  Q 122.01 68.63 122.00 66.55
  L 121.94 51.72
  Q 121.94 50.57 120.99 51.23
  Q 118.29 53.10 115.61 54.24
  Q 99.04 61.27 81.00 61.31
  Q 71.61 61.33 69.56 61.19
  Z
  M 71.81 85.56
  Q 55.11 84.99 39.36 79.56
  Q 36.62 78.62 34.14 77.03
  Q 33.08 76.35 33.06 77.62
  Q 32.97 82.25 32.99 87.09
  Q 33.00 91.37 33.01 91.39
  Q 33.40 93.72 35.58 95.17
  Q 40.51 98.44 46.27 99.93
  Q 76.33 107.66 106.56 100.57
  Q 113.91 98.84 120.20 94.68
  Q 121.93 93.53 121.94 91.50
  L 122.00 77.16
  C 122.00 76.92 121.75 76.77 121.53 76.88
  Q 115.43 79.99 109.44 81.51
  Q 90.93 86.21 71.81 85.56
  Z
  M 70.31 109.94
  Q 58.12 109.32 46.28 106.38
  Q 40.15 104.86 33.74 101.51
  C 33.40 101.33 33.00 101.58 33.00 101.96
  L 33.00 115.56
  Q 33.00 117.43 34.36 118.71
  Q 36.95 121.16 40.83 122.65
  Q 47.16 125.09 53.84 126.32
  Q 76.03 130.39 98.34 127.02
  Q 108.50 125.49 117.72 121.00
  Q 119.77 120.01 120.97 118.27
  Q 121.94 116.89 121.97 114.37
  Q 122.04 108.05 122.00 101.70
  Q 122.00 100.96 121.35 101.34
  Q 115.86 104.60 109.48 106.18
  Q 90.20 110.96 70.31 109.94
  Z"
/>
<ellipse fill="#ffffff" cx="77.51" cy="39.37" rx="44.41" ry="15.21"/>
<path fill="#96c0ff" d="
  M 69.56 61.19
  Q 71.61 61.33 81.00 61.31
  Q 99.04 61.27 115.61 54.24
  Q 118.29 53.10 120.99 51.23
  Q 121.94 50.57 121.94 51.72
  L 122.00 66.55
  Q 122.01 68.63 120.42 70.03
  Q 117.01 73.03 113.48 74.30
  Q 102.82 78.15 91.52 79.24
  Q 73.78 80.94 56.16 78.23
  Q 46.65 76.77 37.19 72.06
  Q 32.56 69.76 32.86 64.93
  Q 33.00 62.69 33.00 62.57
  Q 33.00 57.79 33.00 52.16
  Q 33.00 50.67 34.24 51.48
  Q 41.35 56.11 50.49 58.29
  Q 59.90 60.54 69.56 61.19
  Z"
/>
<path fill="#287eff" d="
  M 71.81 85.56
  Q 90.93 86.21 109.44 81.51
  Q 115.43 79.99 121.53 76.88
  C 121.75 76.77 122.00 76.92 122.00 77.16
  L 121.94 91.50
  Q 121.93 93.53 120.20 94.68
  Q 113.91 98.84 106.56 100.57
  Q 76.33 107.66 46.27 99.93
  Q 40.51 98.44 35.58 95.17
  Q 33.40 93.72 33.01 91.39
  Q 33.00 91.37 32.99 87.09
  Q 32.97 82.25 33.06 77.62
  Q 33.08 76.35 34.14 77.03
  Q 36.62 78.62 39.36 79.56
  Q 55.11 84.99 71.81 85.56
  Z"
/>
<path fill="#0258ed" d="
  M 70.31 109.94
  Q 90.20 110.96 109.48 106.18
  Q 115.86 104.60 121.35 101.34
  Q 122.00 100.96 122.00 101.70
  Q 122.04 108.05 121.97 114.37
  Q 121.94 116.89 120.97 118.27
  Q 119.77 120.01 117.72 121.00
  Q 108.50 125.49 98.34 127.02
  Q 76.03 130.39 53.84 126.32
  Q 47.16 125.09 40.83 122.65
  Q 36.95 121.16 34.36 118.71
  Q 33.00 117.43 33.00 115.56
  L 33.00 101.96
  C 33.00 101.58 33.40 101.33 33.74 101.51
  Q 40.15 104.86 46.28 106.38
  Q 58.12 109.32 70.31 109.94
  Z"
/>
</svg>
