<?xml version="1.0" encoding="UTF-8" standalone="no"?>
<!DOCTYPE svg PUBLIC "-//W3C//DTD SVG 1.1//EN" "http://www.w3.org/Graphics/SVG/1.1/DTD/svg11.dtd">
<svg xmlns="http://www.w3.org/2000/svg" version="1.1" viewBox="0 0 128 128">
<g stroke-width="2.0" fill="none" stroke-linecap="butt">
<path stroke="#c4b9b1" vector-effect="non-scaling-stroke" d="
  M 98.46 38.00
  Q 98.43 32.98 96.21 28.50"
/>
<path stroke="#9b9391" vector-effect="non-scaling-stroke" d="
  M 96.21 28.50
  Q 96.77 26.25 95.71 24.47
  C 95.55 24.21 95.27 24.05 94.94 24.03
  Q 89.46 23.74 84.25 25.54"
/>
<path stroke="#c4b9b1" vector-effect="non-scaling-stroke" d="
  M 84.25 25.54
  L 78.25 25.29"
/>
<path stroke="#9b9391" vector-effect="non-scaling-stroke" d="
  M 78.25 25.29
  Q 76.89 24.66 75.56 23.96
  Q 73.80 23.03 72.76 23.07
  Q 70.94 23.13 70.58 24.96
  Q 70.49 25.45 70.87 27.49
  Q 71.13 28.84 70.75 30.21"
/>
<path stroke="#c4b9b1" vector-effect="non-scaling-stroke" d="
  M 70.75 30.21
  Q 64.96 35.23 61.31 41.88
  Q 59.99 44.29 60.37 45.99
  Q 60.95 48.55 64.25 49.02
  Q 66.20 49.31 65.37 49.82
  Q 65.07 50.00 64.59 50.02
  Q 61.26 50.17 58.25 48.71"
/>
<path stroke="#9b9391" vector-effect="non-scaling-stroke" d="
  M 58.25 48.71
  Q 55.98 45.70 56.50 42.75
  Q 58.47 31.50 67.34 22.83
  Q 75.75 14.61 86.97 18.28
  Q 87.45 18.43 87.03 18.13
  Q 81.12 13.83 74.75 16.25
  Q 66.65 19.33 60.61 27.41
  C 60.37 27.74 60.07 27.94 59.83 27.95
  L 54.86 28.18
  C 54.16 28.21 53.58 28.57 53.39 29.08
  Q 52.42 31.68 52.98 34.33
  Q 52.99 34.36 54.47 37.90
  Q 56.03 41.60 53.94 45.19
  Q 49.28 53.18 46.86 60.16
  Q 46.80 60.35 46.69 60.43
  Q 46.49 60.60 46.35 60.42
  Q 46.24 60.30 46.27 60.06
  Q 47.10 52.66 46.61 45.26
  Q 46.24 39.65 45.89 37.25
  Q 45.30 33.25 43.82 29.44
  Q 42.39 25.76 39.94 24.06
  Q 35.65 21.10 30.37 21.28
  Q 26.45 21.42 23.51 23.42
  Q 20.27 25.63 18.81 29.31
  Q 16.06 36.28 16.80 44.75
  Q 17.93 57.64 22.94 69.56
  Q 30.63 87.88 40.31 100.41
  Q 52.71 116.45 73.24 114.12
  Q 74.18 114.02 77.81 112.31
  Q 80.64 110.99 84.31 112.69
  Q 89.46 115.07 95.80 112.05
  Q 98.50 110.76 97.93 107.93
  C 97.88 107.65 97.70 107.36 97.43 107.10
  Q 95.30 105.04 95.75 101.75
  Q 96.31 97.64 96.98 94.26
  Q 98.02 89.07 98.17 86.80
  Q 99.03 73.86 94.58 61.62
  Q 94.56 61.56 93.63 59.58
  Q 92.49 57.16 93.56 54.52
  Q 94.65 51.81 95.96 49.20
  Q 98.60 43.92 98.46 38.00"
/>
<path stroke="#604d43" vector-effect="non-scaling-stroke" d="
  M 58.25 48.71
  L 57.75 48.79"
/>
<path stroke="#9b9391" vector-effect="non-scaling-stroke" d="
  M 57.75 48.79
  Q 55.57 45.67 54.52 48.40
  Q 53.91 49.96 53.87 50.05
  Q 48.75 61.01 46.72 72.94
  Q 43.93 89.41 53.83 102.38
  Q 54.07 102.71 54.34 102.96
  Q 56.31 104.83 54.71 101.75"
/>
<path stroke="#604d43" vector-effect="non-scaling-stroke" d="
  M 54.71 101.75
  L 54.83 100.47
  Q 54.90 99.68 54.85 99.52
  Q 52.11 90.37 54.20 81.23
  Q 54.47 80.04 55.07 81.10
  Q 60.26 90.34 68.82 94.57
  Q 72.60 96.44 72.00 92.26
  Q 71.40 88.00 69.73 84.05
  Q 62.80 67.65 72.45 52.92
  Q 73.69 51.02 73.25 49.24
  L 71.28 41.33
  Q 71.08 40.53 71.68 41.05
  Q 76.59 45.33 82.71 47.20
  Q 85.28 47.99 86.84 47.63
  Q 89.08 47.13 90.38 44.90
  Q 91.75 42.56 92.31 38.81
  Q 92.46 37.80 92.99 38.33
  Q 93.18 38.52 93.25 38.86
  Q 93.74 41.17 93.19 43.45
  C 93.10 43.84 93.14 44.20 93.30 44.39
  Q 93.65 44.82 94.19 44.19
  Q 95.30 42.88 98.46 38.00"
/>
<path stroke="#c4b9b1" vector-effect="non-scaling-stroke" d="
  M 54.71 101.75
  Q 49.89 93.92 49.50 85.25
  Q 48.66 66.64 57.94 49.94
  Q 58.24 49.39 57.75 48.79"
/>
<path stroke="#604d43" vector-effect="non-scaling-stroke" d="
  M 78.25 25.29
  Q 78.18 25.99 77.69 26.19
  Q 74.97 27.29 73.07 28.68
  Q 73.03 28.71 72.17 29.56
  Q 71.60 30.14 70.75 30.21"
/>
<path stroke="#604d43" vector-effect="non-scaling-stroke" d="
  M 96.21 28.50
  L 93.62 32.28
  Q 92.20 34.36 90.13 33.78
  Q 86.58 32.77 84.21 30.43
  Q 83.07 29.30 83.04 28.14
  Q 83.01 26.69 84.25 25.54"
/>
<path stroke="#9b9391" vector-effect="non-scaling-stroke" d="
  M 90.48 52.28
  Q 90.68 52.54 90.25 53.00
  Q 89.96 55.82 90.94 54.00
  Q 92.86 50.45 93.77 47.17
  Q 94.14 45.81 93.11 46.77
  Q 90.01 49.66 85.79 50.02
  C 85.37 50.05 85.04 50.39 85.01 50.81
  Q 84.91 52.21 85.09 53.50
  Q 85.28 54.92 86.18 55.53
  Q 87.59 56.48 88.94 54.69
  Q 89.36 54.12 89.91 52.51
  Q 90.14 51.85 90.48 52.28"
/>
</g>
<path fill="#ffffff" d="
  M 61.56 0.00
  Q 64.31 0.00 67.06 0.00
  Q 82.50 1.07 94.19 7.56
  Q 124.30 24.28 128.00 59.81
  Q 128.00 64.06 128.00 68.31
  Q 126.63 81.33 122.44 90.19
  Q 106.82 123.22 69.19 128.00
  Q 64.19 128.00 59.19 128.00
  Q 50.84 126.75 48.25 126.00
  Q 12.62 115.73 2.06 80.19
  Q 0.72 75.66 0.00 66.19
  Q 0.00 63.81 0.00 61.44
  Q 2.23 29.45 27.31 11.56
  Q 41.97 1.11 61.56 0.00
  Z
  M 98.46 38.00
  Q 98.43 32.98 96.21 28.50
  Q 96.77 26.25 95.71 24.47
  C 95.55 24.21 95.27 24.05 94.94 24.03
  Q 89.46 23.74 84.25 25.54
  L 78.25 25.29
  Q 76.89 24.66 75.56 23.96
  Q 73.80 23.03 72.76 23.07
  Q 70.94 23.13 70.58 24.96
  Q 70.49 25.45 70.87 27.49
  Q 71.13 28.84 70.75 30.21
  Q 64.96 35.23 61.31 41.88
  Q 59.99 44.29 60.37 45.99
  Q 60.95 48.55 64.25 49.02
  Q 66.20 49.31 65.37 49.82
  Q 65.07 50.00 64.59 50.02
  Q 61.26 50.17 58.25 48.71
  Q 55.98 45.70 56.50 42.75
  Q 58.47 31.50 67.34 22.83
  Q 75.75 14.61 86.97 18.28
  Q 87.45 18.43 87.03 18.13
  Q 81.12 13.83 74.75 16.25
  Q 66.65 19.33 60.61 27.41
  C 60.37 27.74 60.07 27.94 59.83 27.95
  L 54.86 28.18
  C 54.16 28.21 53.58 28.57 53.39 29.08
  Q 52.42 31.68 52.98 34.33
  Q 52.99 34.36 54.47 37.90
  Q 56.03 41.60 53.94 45.19
  Q 49.28 53.18 46.86 60.16
  Q 46.80 60.35 46.69 60.43
  Q 46.49 60.60 46.35 60.42
  Q 46.24 60.30 46.27 60.06
  Q 47.10 52.66 46.61 45.26
  Q 46.24 39.65 45.89 37.25
  Q 45.30 33.25 43.82 29.44
  Q 42.39 25.76 39.94 24.06
  Q 35.65 21.10 30.37 21.28
  Q 26.45 21.42 23.51 23.42
  Q 20.27 25.63 18.81 29.31
  Q 16.06 36.28 16.80 44.75
  Q 17.93 57.64 22.94 69.56
  Q 30.63 87.88 40.31 100.41
  Q 52.71 116.45 73.24 114.12
  Q 74.18 114.02 77.81 112.31
  Q 80.64 110.99 84.31 112.69
  Q 89.46 115.07 95.80 112.05
  Q 98.50 110.76 97.93 107.93
  C 97.88 107.65 97.70 107.36 97.43 107.10
  Q 95.30 105.04 95.75 101.75
  Q 96.31 97.64 96.98 94.26
  Q 98.02 89.07 98.17 86.80
  Q 99.03 73.86 94.58 61.62
  Q 94.56 61.56 93.63 59.58
  Q 92.49 57.16 93.56 54.52
  Q 94.65 51.81 95.96 49.20
  Q 98.60 43.92 98.46 38.00
  Z"
/>
<path fill="#362722" d="
  M 58.25 48.71
  L 57.75 48.79
  Q 55.57 45.67 54.52 48.40
  Q 53.91 49.96 53.87 50.05
  Q 48.75 61.01 46.72 72.94
  Q 43.93 89.41 53.83 102.38
  Q 54.07 102.71 54.34 102.96
  Q 56.31 104.83 54.71 101.75
  L 54.83 100.47
  Q 54.90 99.68 54.85 99.52
  Q 52.11 90.37 54.20 81.23
  Q 54.47 80.04 55.07 81.10
  Q 60.26 90.34 68.82 94.57
  Q 72.60 96.44 72.00 92.26
  Q 71.40 88.00 69.73 84.05
  Q 62.80 67.65 72.45 52.92
  Q 73.69 51.02 73.25 49.24
  L 71.28 41.33
  Q 71.08 40.53 71.68 41.05
  Q 76.59 45.33 82.71 47.20
  Q 85.28 47.99 86.84 47.63
  Q 89.08 47.13 90.38 44.90
  Q 91.75 42.56 92.31 38.81
  Q 92.46 37.80 92.99 38.33
  Q 93.18 38.52 93.25 38.86
  Q 93.74 41.17 93.19 43.45
  C 93.10 43.84 93.14 44.20 93.30 44.39
  Q 93.65 44.82 94.19 44.19
  Q 95.30 42.88 98.46 38.00
  Q 98.60 43.92 95.96 49.20
  Q 94.65 51.81 93.56 54.52
  Q 92.49 57.16 93.63 59.58
  Q 94.56 61.56 94.58 61.62
  Q 99.03 73.86 98.17 86.80
  Q 98.02 89.07 96.98 94.26
  Q 96.31 97.64 95.75 101.75
  Q 95.30 105.04 97.43 107.10
  C 97.70 107.36 97.88 107.65 97.93 107.93
  Q 98.50 110.76 95.80 112.05
  Q 89.46 115.07 84.31 112.69
  Q 80.64 110.99 77.81 112.31
  Q 74.18 114.02 73.24 114.12
  Q 52.71 116.45 40.31 100.41
  Q 30.63 87.88 22.94 69.56
  Q 17.93 57.64 16.80 44.75
  Q 16.06 36.28 18.81 29.31
  Q 20.27 25.63 23.51 23.42
  Q 26.45 21.42 30.37 21.28
  Q 35.65 21.10 39.94 24.06
  Q 42.39 25.76 43.82 29.44
  Q 45.30 33.25 45.89 37.25
  Q 46.24 39.65 46.61 45.26
  Q 47.10 52.66 46.27 60.06
  Q 46.24 60.30 46.35 60.42
  Q 46.49 60.60 46.69 60.43
  Q 46.80 60.35 46.86 60.16
  Q 49.28 53.18 53.94 45.19
  Q 56.03 41.60 54.47 37.90
  Q 52.99 34.36 52.98 34.33
  Q 52.42 31.68 53.39 29.08
  C 53.58 28.57 54.16 28.21 54.86 28.18
  L 59.83 27.95
  C 60.07 27.94 60.37 27.74 60.61 27.41
  Q 66.65 19.33 74.75 16.25
  Q 81.12 13.83 87.03 18.13
  Q 87.45 18.43 86.97 18.28
  Q 75.75 14.61 67.34 22.83
  Q 58.47 31.50 56.50 42.75
  Q 55.98 45.70 58.25 48.71
  Z
  M 90.48 52.28
  Q 90.68 52.54 90.25 53.00
  Q 89.96 55.82 90.94 54.00
  Q 92.86 50.45 93.77 47.17
  Q 94.14 45.81 93.11 46.77
  Q 90.01 49.66 85.79 50.02
  C 85.37 50.05 85.04 50.39 85.01 50.81
  Q 84.91 52.21 85.09 53.50
  Q 85.28 54.92 86.18 55.53
  Q 87.59 56.48 88.94 54.69
  Q 89.36 54.12 89.91 52.51
  Q 90.14 51.85 90.48 52.28
  Z"
/>
<path fill="#362722" d="
  M 78.25 25.29
  Q 78.18 25.99 77.69 26.19
  Q 74.97 27.29 73.07 28.68
  Q 73.03 28.71 72.17 29.56
  Q 71.60 30.14 70.75 30.21
  Q 71.13 28.84 70.87 27.49
  Q 70.49 25.45 70.58 24.96
  Q 70.94 23.13 72.76 23.07
  Q 73.80 23.03 75.56 23.96
  Q 76.89 24.66 78.25 25.29
  Z"
/>
<path fill="#362722" d="
  M 96.21 28.50
  L 93.62 32.28
  Q 92.20 34.36 90.13 33.78
  Q 86.58 32.77 84.21 30.43
  Q 83.07 29.30 83.04 28.14
  Q 83.01 26.69 84.25 25.54
  Q 89.46 23.74 94.94 24.03
  C 95.27 24.05 95.55 24.21 95.71 24.47
  Q 96.77 26.25 96.21 28.50
  Z"
/>
<path fill="#897263" d="
  M 78.25 25.29
  L 84.25 25.54
  Q 83.01 26.69 83.04 28.14
  Q 83.07 29.30 84.21 30.43
  Q 86.58 32.77 90.13 33.78
  Q 92.20 34.36 93.62 32.28
  L 96.21 28.50
  Q 98.43 32.98 98.46 38.00
  Q 95.30 42.88 94.19 44.19
  Q 93.65 44.82 93.30 44.39
  C 93.14 44.20 93.10 43.84 93.19 43.45
  Q 93.74 41.17 93.25 38.86
  Q 93.18 38.52 92.99 38.33
  Q 92.46 37.80 92.31 38.81
  Q 91.75 42.56 90.38 44.90
  Q 89.08 47.13 86.84 47.63
  Q 85.28 47.99 82.71 47.20
  Q 76.59 45.33 71.68 41.05
  Q 71.08 40.53 71.28 41.33
  L 73.25 49.24
  Q 73.69 51.02 72.45 52.92
  Q 62.80 67.65 69.73 84.05
  Q 71.40 88.00 72.00 92.26
  Q 72.60 96.44 68.82 94.57
  Q 60.26 90.34 55.07 81.10
  Q 54.47 80.04 54.20 81.23
  Q 52.11 90.37 54.85 99.52
  Q 54.90 99.68 54.83 100.47
  L 54.71 101.75
  Q 49.89 93.92 49.50 85.25
  Q 48.66 66.64 57.94 49.94
  Q 58.24 49.39 57.75 48.79
  L 58.25 48.71
  Q 61.26 50.17 64.59 50.02
  Q 65.07 50.00 65.37 49.82
  Q 66.20 49.31 64.25 49.02
  Q 60.95 48.55 60.37 45.99
  Q 59.99 44.29 61.31 41.88
  Q 64.96 35.23 70.75 30.21
  Q 71.60 30.14 72.17 29.56
  Q 73.03 28.71 73.07 28.68
  Q 74.97 27.29 77.69 26.19
  Q 78.18 25.99 78.25 25.29
  Z"
/>
<path fill="#ffffff" d="
  M 89.91 52.51
  Q 89.36 54.12 88.94 54.69
  Q 87.59 56.48 86.18 55.53
  Q 85.28 54.92 85.09 53.50
  Q 84.91 52.21 85.01 50.81
  C 85.04 50.39 85.37 50.05 85.79 50.02
  Q 90.01 49.66 93.11 46.77
  Q 94.14 45.81 93.77 47.17
  Q 92.86 50.45 90.94 54.00
  Q 89.96 55.82 90.25 53.00
  Q 90.68 52.54 90.48 52.28
  Q 90.14 51.85 89.91 52.51
  Z"
/>
<path fill="#ffffff" d="
  M 57.75 48.79
  Q 58.24 49.39 57.94 49.94
  Q 48.66 66.64 49.50 85.25
  Q 49.89 93.92 54.71 101.75
  Q 56.31 104.83 54.34 102.96
  Q 54.07 102.71 53.83 102.38
  Q 43.93 89.41 46.72 72.94
  Q 48.75 61.01 53.87 50.05
  Q 53.91 49.96 54.52 48.40
  Q 55.57 45.67 57.75 48.79
  Z"
/>
</svg>
