<?xml version="1.0" standalone="no"?>
<!DOCTYPE svg PUBLIC "-//W3C//DTD SVG 20010904//EN"
 "http://www.w3.org/TR/2001/REC-SVG-20010904/DTD/svg10.dtd">
<svg version="1.0" xmlns="http://www.w3.org/2000/svg"
 width="1024.000000pt" height="1024.000000pt" viewBox="0 0 1024.000000 1024.000000"
 preserveAspectRatio="xMidYMid meet">
<metadata>
Created by potrace 1.11, written by Peter Selinger 2001-2013
</metadata>
<g transform="translate(0.000000,1024.000000) scale(0.100000,-0.100000)"
fill="#000000" stroke="none">
<path d="M854 10224 c-111 -18 -261 -74 -358 -131 -105 -63 -252 -204 -322
-309 -62 -93 -124 -235 -151 -346 -17 -69 -18 -291 -21 -4268 -3 -3207 -1
-4215 9 -4280 32 -231 135 -435 301 -596 141 -137 313 -231 501 -271 78 -17
297 -18 4307 -18 4010 0 4229 1 4307 18 194 42 379 144 519 289 152 155 241
330 279 548 13 74 15 606 15 4255 0 3670 -2 4181 -15 4263 -36 224 -141 421
-311 583 -146 140 -330 230 -539 264 -130 21 -8395 21 -8521 -1z m3876 -4953
l0 -3719 -96 -42 c-139 -61 -397 -143 -559 -178 -200 -43 -306 -60 -505 -77
-481 -41 -878 7 -1186 145 -294 132 -532 454 -669 904 -73 241 -114 486 -147
876 -17 194 -16 958 0 1155 67 796 207 1286 484 1692 85 125 253 304 359 383
136 101 309 179 479 216 135 30 426 26 585 -8 140 -29 269 -79 355 -136 l60
-40 0 1121 c0 1213 0 1210 53 1295 63 99 192 126 625 130 l162 2 0 -3719z
m3958 -2 l-3 -3721 -100 -42 c-648 -277 -1549 -347 -2091 -162 -137 47 -187
70 -280 132 -283 187 -507 599 -608 1122 -32 162 -61 391 -77 612 -16 213 -16
877 -1 1090 74 986 296 1601 724 2005 163 155 337 252 546 307 112 30 126 31
317 32 178 0 213 -3 320 -26 143 -30 261 -74 344 -128 34 -22 64 -40 66 -40 2
0 6 514 7 1143 4 1269 0 1203 70 1283 77 87 190 108 606 112 l162 2 -2 -3721z"/>
<path d="M3275 5906 c-439 -86 -689 -550 -776 -1441 -16 -172 -23 -901 -10
-1120 22 -372 62 -627 132 -838 116 -356 286 -499 609 -514 210 -10 408 26
568 103 l92 44 -2 1827 -3 1827 -70 37 c-133 73 -378 106 -540 75z"/>
<path d="M7280 5914 c-123 -22 -203 -53 -292 -111 -238 -156 -399 -491 -483
-1004 -42 -259 -56 -443 -62 -834 -12 -804 53 -1314 210 -1633 110 -223 275
-327 537 -339 215 -10 407 24 568 102 l92 44 -2 1827 -3 1828 -69 37 c-96 52
-215 80 -356 84 -63 2 -126 2 -140 -1z"/>
</g>
</svg>
