<?xml version="1.0" encoding="UTF-8" standalone="no"?>
<!DOCTYPE svg PUBLIC "-//W3C//DTD SVG 1.1//EN" "http://www.w3.org/Graphics/SVG/1.1/DTD/svg11.dtd">
<svg xmlns="http://www.w3.org/2000/svg" version="1.1" viewBox="0 0 140 140">
<g stroke-width="2.0" fill="none" stroke-linecap="butt">
<path stroke="#8ac3a2" vector-effect="non-scaling-stroke" d="
  M 116.25 1.21
  Q 108.93 25.51 99.09 48.90
  Q 95.20 58.14 89.39 67.58
  C 89.05 68.13 89.15 68.84 89.62 69.29
  Q 93.28 72.72 97.31 72.81
  C 97.61 72.82 97.90 72.66 98.07 72.38
  Q 109.07 54.01 116.75 31.75
  Q 122.78 14.28 125.50 4.79"
/>
<path stroke="#8ac3a2" vector-effect="non-scaling-stroke" d="
  M 140.00 53.81
  Q 131.56 51.00 124.07 55.61
  Q 118.88 58.80 114.06 63.81
  Q 109.25 68.82 102.32 74.02
  Q 98.05 77.23 93.11 75.08
  Q 89.10 73.33 86.03 70.22
  Q 82.06 66.19 78.13 62.12
  Q 74.04 57.89 68.83 55.15
  Q 59.31 50.13 50.08 55.59
  Q 46.34 57.80 44.56 59.56
  Q 39.94 64.14 31.00 72.25
  Q 23.86 78.73 16.06 73.44
  Q 12.08 70.73 2.31 60.44
  Q 1.03 59.09 0.00 58.94"
/>
<path stroke="#8ac3a2" vector-effect="non-scaling-stroke" d="
  M 14.50 5.04
  Q 22.95 34.14 35.93 62.48
  C 36.11 62.88 36.63 62.97 36.95 62.67
  L 43.29 56.64
  C 43.69 56.26 43.81 55.67 43.59 55.19
  Q 31.54 28.95 24.00 1.29"
/>
<path stroke="#88b79b" vector-effect="non-scaling-stroke" d="
  M 140.00 64.81
  Q 133.87 60.60 127.82 64.83
  Q 125.01 66.80 123.56 68.31
  Q 119.88 72.17 111.56 79.81
  Q 103.31 87.40 93.32 85.60
  Q 89.27 84.87 85.26 82.22
  Q 81.57 79.77 78.48 76.52
  Q 74.18 71.98 69.51 67.86
  Q 64.81 63.71 61.63 63.02
  Q 56.43 61.90 51.94 66.19
  Q 44.99 72.81 40.79 76.75
  Q 34.05 83.06 29.64 84.76
  Q 19.00 88.85 8.96 80.27
  Q 4.50 76.45 0.00 72.69"
/>
<path stroke="#88b79b" vector-effect="non-scaling-stroke" d="
  M 86.36 86.49
  Q 82.00 84.12 79.04 81.16
  C 78.64 80.76 78.02 80.72 77.57 81.06
  Q 73.13 84.38 68.33 83.63
  Q 64.69 83.05 60.46 79.47
  Q 56.09 75.77 52.75 70.79
  C 52.46 70.36 51.85 70.29 51.49 70.65
  L 45.33 76.89
  C 45.13 77.09 45.11 77.42 45.28 77.66
  Q 49.53 83.90 55.42 88.32
  Q 61.95 93.21 68.67 93.69
  Q 78.31 94.39 86.45 87.21
  C 86.68 87.01 86.63 86.64 86.36 86.49"
/>
<path stroke="#88b79b" vector-effect="non-scaling-stroke" d="
  M 30.11 123.03
  Q 31.06 125.29 32.47 123.41
  C 32.65 123.16 32.75 122.84 32.75 122.49
  L 32.75 103.06
  C 32.75 102.53 32.34 102.08 31.81 102.03
  Q 29.39 101.79 30.00 104.75
  Q 30.27 106.04 29.86 108.01
  C 29.81 108.26 29.53 108.39 29.30 108.27
  Q 23.78 105.54 19.85 108.39
  Q 16.27 110.99 16.11 115.63
  Q 15.96 119.99 19.79 122.56
  Q 21.96 124.01 24.51 123.98
  Q 27.09 123.95 29.50 122.79
  C 29.73 122.68 30.01 122.79 30.11 123.03"
/>
<path stroke="#88b79b" vector-effect="non-scaling-stroke" d="
  M 38.45 117.63
  C 38.24 117.23 38.53 116.75 38.98 116.75
  L 50.11 116.75
  Q 52.50 116.75 51.96 114.42
  Q 50.50 108.17 45.24 107.14
  Q 41.48 106.41 38.60 108.50
  Q 35.50 110.74 35.21 115.26
  Q 34.96 119.32 37.19 121.31
  Q 43.99 127.40 49.93 121.13
  Q 50.58 120.44 50.65 119.66
  Q 50.81 118.02 49.24 118.29
  Q 48.51 118.42 47.61 119.24
  Q 41.96 124.40 38.45 117.63"
/>
<path stroke="#88b79b" vector-effect="non-scaling-stroke" d="
  M 65.76 116.20
  Q 63.95 114.21 60.15 114.30
  Q 58.52 114.33 57.29 113.27
  Q 55.50 111.72 57.48 110.40
  Q 58.35 109.82 59.78 109.79
  Q 62.12 109.75 64.47 109.70
  Q 65.33 109.68 65.81 109.30
  Q 66.71 108.58 66.05 107.68
  Q 65.61 107.08 64.57 106.90
  Q 60.80 106.28 58.44 106.94
  Q 52.85 108.48 54.13 113.16
  Q 54.68 115.15 56.29 116.15
  Q 57.99 117.19 60.13 117.11
  Q 62.04 117.04 62.37 117.12
  Q 63.95 117.51 63.94 119.07
  Q 63.93 121.46 61.54 121.31
  Q 58.54 121.13 56.30 121.39
  Q 55.33 121.50 54.84 121.95
  Q 53.94 122.80 54.95 123.85
  C 55.15 124.07 55.47 124.19 55.81 124.20
  Q 57.96 124.26 60.11 124.26
  Q 62.87 124.26 64.26 123.54
  Q 67.20 122.03 66.75 118.37
  C 66.65 117.56 66.31 116.81 65.76 116.20"
/>
<path stroke="#88b79b" vector-effect="non-scaling-stroke" d="
  M 79.19 108.36
  Q 76.15 105.83 72.46 107.30
  C 72.18 107.41 71.85 107.38 71.58 107.22
  Q 69.23 105.73 69.16 108.75
  Q 69.01 115.62 69.00 122.50
  C 69.00 122.84 69.12 123.16 69.33 123.38
  Q 70.60 124.72 71.47 123.56
  Q 71.94 122.93 71.88 121.71
  Q 71.66 117.73 71.93 113.74
  Q 72.06 111.82 73.08 110.73
  Q 75.08 108.60 76.90 110.62
  Q 77.99 111.83 78.12 114.24
  Q 78.35 118.58 78.32 122.93
  C 78.31 123.25 78.49 123.55 78.76 123.68
  Q 81.14 124.84 81.12 121.75
  Q 81.10 117.81 81.20 113.86
  Q 81.26 111.79 81.97 110.80
  Q 83.26 109.00 85.62 110.16
  Q 87.25 110.95 87.25 112.77
  L 87.25 122.40
  C 87.25 123.26 87.91 123.97 88.76 124.04
  Q 90.39 124.17 90.34 122.00
  Q 90.25 118.00 90.46 114.01
  Q 90.67 110.20 88.06 108.19
  Q 83.97 105.02 79.94 108.36
  C 79.73 108.54 79.41 108.54 79.19 108.36"
/>
<path stroke="#88b79b" vector-effect="non-scaling-stroke" d="
  M 122.41 115.44
  Q 120.52 114.06 118.19 114.21
  Q 114.09 114.46 114.22 111.78
  Q 114.32 109.75 116.36 109.75
  L 122.10 109.75
  Q 124.15 109.75 123.52 107.79
  Q 123.13 106.57 121.48 106.63
  Q 119.60 106.69 119.53 106.69
  Q 116.11 106.53 114.25 107.25
  Q 111.85 108.18 111.35 110.66
  Q 110.92 112.81 112.08 114.67
  Q 113.86 117.54 118.00 117.04
  Q 121.20 116.65 121.24 119.09
  Q 121.28 121.25 119.11 121.25
  Q 115.87 121.25 113.76 121.42
  Q 110.63 121.67 112.25 123.80
  C 112.43 124.05 112.73 124.20 113.06 124.21
  Q 115.78 124.30 118.50 124.34
  Q 121.86 124.39 123.41 121.48
  Q 125.45 117.66 122.41 115.44"
/>
<path stroke="#88b79b" vector-effect="non-scaling-stroke" d="
  M 109.42 115.59
  C 109.42 110.85 105.58 107.01 100.84 107.01
  C 96.10 107.01 92.26 110.85 92.26 115.59
  C 92.26 120.33 96.10 124.17 100.84 124.17
  C 105.58 124.17 109.42 120.33 109.42 115.59"
/>
<path stroke="#88b79b" vector-effect="non-scaling-stroke" d="
  M 24.5483 121.1995
  C 27.49 121.16 29.83 118.61 29.7895 115.5157
  C 29.75 112.42 27.33 109.94 24.3917 109.9805
  C 21.45 110.02 19.11 112.57 19.1505 115.6643
  C 19.19 118.76 21.61 121.24 24.5483 121.1995"
/>
<path stroke="#88b79b" vector-effect="non-scaling-stroke" d="
  M 45.58 110.41
  Q 41.42 108.92 38.88 112.68
  Q 37.89 114.14 39.72 114.12
  L 47.81 114.04
  C 48.09 114.04 48.30 113.82 48.27 113.57
  Q 47.96 111.26 45.58 110.41"
/>
<path stroke="#88b79b" vector-effect="non-scaling-stroke" d="
  M 106.37 115.61
  C 106.37 112.57 103.90 110.10 100.86 110.10
  C 97.82 110.10 95.35 112.57 95.35 115.61
  C 95.35 118.65 97.82 121.12 100.86 121.12
  C 103.90 121.12 106.37 118.65 106.37 115.61"
/>
</g>
<path fill="#148644" d="
  M 31.56 0.00
  Q 70.31 0.00 109.06 0.00
  Q 112.70 0.37 116.25 1.21
  Q 108.93 25.51 99.09 48.90
  Q 95.20 58.14 89.39 67.58
  C 89.05 68.13 89.15 68.84 89.62 69.29
  Q 93.28 72.72 97.31 72.81
  C 97.61 72.82 97.90 72.66 98.07 72.38
  Q 109.07 54.01 116.75 31.75
  Q 122.78 14.28 125.50 4.79
  Q 139.70 14.08 140.00 31.31
  Q 140.00 42.56 140.00 53.81
  Q 131.56 51.00 124.07 55.61
  Q 118.88 58.80 114.06 63.81
  Q 109.25 68.82 102.32 74.02
  Q 98.05 77.23 93.11 75.08
  Q 89.10 73.33 86.03 70.22
  Q 82.06 66.19 78.13 62.12
  Q 74.04 57.89 68.83 55.15
  Q 59.31 50.13 50.08 55.59
  Q 46.34 57.80 44.56 59.56
  Q 39.94 64.14 31.00 72.25
  Q 23.86 78.73 16.06 73.44
  Q 12.08 70.73 2.31 60.44
  Q 1.03 59.09 0.00 58.94
  Q 0.00 47.06 0.00 35.19
  Q 0.26 34.36 0.25 32.25
  Q 0.18 14.90 14.50 5.04
  Q 22.95 34.14 35.93 62.48
  C 36.11 62.88 36.63 62.97 36.95 62.67
  L 43.29 56.64
  C 43.69 56.26 43.81 55.67 43.59 55.19
  Q 31.54 28.95 24.00 1.29
  Q 27.72 0.32 31.56 0.00
  Z"
/>
<path fill="#ffffff" d="
  M 24.00 1.29
  Q 31.54 28.95 43.59 55.19
  C 43.81 55.67 43.69 56.26 43.29 56.64
  L 36.95 62.67
  C 36.63 62.97 36.11 62.88 35.93 62.48
  Q 22.95 34.14 14.50 5.04
  Q 18.79 2.01 24.00 1.29
  Z"
/>
<path fill="#ffffff" d="
  M 116.25 1.21
  Q 121.26 2.02 125.50 4.79
  Q 122.78 14.28 116.75 31.75
  Q 109.07 54.01 98.07 72.38
  C 97.90 72.66 97.61 72.82 97.31 72.81
  Q 93.28 72.72 89.62 69.29
  C 89.15 68.84 89.05 68.13 89.39 67.58
  Q 95.20 58.14 99.09 48.90
  Q 108.93 25.51 116.25 1.21
  Z"
/>
<path fill="#ffffff" d="
  M 140.00 53.81
  Q 140.00 59.31 140.00 64.81
  Q 133.87 60.60 127.82 64.83
  Q 125.01 66.80 123.56 68.31
  Q 119.88 72.17 111.56 79.81
  Q 103.31 87.40 93.32 85.60
  Q 89.27 84.87 85.26 82.22
  Q 81.57 79.77 78.48 76.52
  Q 74.18 71.98 69.51 67.86
  Q 64.81 63.71 61.63 63.02
  Q 56.43 61.90 51.94 66.19
  Q 44.99 72.81 40.79 76.75
  Q 34.05 83.06 29.64 84.76
  Q 19.00 88.85 8.96 80.27
  Q 4.50 76.45 0.00 72.69
  Q 0.00 65.81 0.00 58.94
  Q 1.03 59.09 2.31 60.44
  Q 12.08 70.73 16.06 73.44
  Q 23.86 78.73 31.00 72.25
  Q 39.94 64.14 44.56 59.56
  Q 46.34 57.80 50.08 55.59
  Q 59.31 50.13 68.83 55.15
  Q 74.04 57.89 78.13 62.12
  Q 82.06 66.19 86.03 70.22
  Q 89.10 73.33 93.11 75.08
  Q 98.05 77.23 102.32 74.02
  Q 109.25 68.82 114.06 63.81
  Q 118.88 58.80 124.07 55.61
  Q 131.56 51.00 140.00 53.81
  Z"
/>
<path fill="#106e37" d="
  M 140.00 64.81
  Q 140.00 86.69 140.00 108.56
  Q 139.73 116.94 137.69 121.19
  Q 128.37 140.58 106.42 139.82
  C 106.35 139.81 106.29 139.85 106.25 139.91
  Q 106.22 139.95 106.19 140.00
  Q 70.19 140.00 34.19 140.00
  Q 25.55 139.64 22.56 138.69
  Q 5.72 133.33 1.25 116.25
  Q 0.52 113.46 0.00 104.94
  Q 0.00 88.81 0.00 72.69
  Q 4.50 76.45 8.96 80.27
  Q 19.00 88.85 29.64 84.76
  Q 34.05 83.06 40.79 76.75
  Q 44.99 72.81 51.94 66.19
  Q 56.43 61.90 61.63 63.02
  Q 64.81 63.71 69.51 67.86
  Q 74.18 71.98 78.48 76.52
  Q 81.57 79.77 85.26 82.22
  Q 89.27 84.87 93.32 85.60
  Q 103.31 87.40 111.56 79.81
  Q 119.88 72.17 123.56 68.31
  Q 125.01 66.80 127.82 64.83
  Q 133.87 60.60 140.00 64.81
  Z
  M 86.36 86.49
  Q 82.00 84.12 79.04 81.16
  C 78.64 80.76 78.02 80.72 77.57 81.06
  Q 73.13 84.38 68.33 83.63
  Q 64.69 83.05 60.46 79.47
  Q 56.09 75.77 52.75 70.79
  C 52.46 70.36 51.85 70.29 51.49 70.65
  L 45.33 76.89
  C 45.13 77.09 45.11 77.42 45.28 77.66
  Q 49.53 83.90 55.42 88.32
  Q 61.95 93.21 68.67 93.69
  Q 78.31 94.39 86.45 87.21
  C 86.68 87.01 86.63 86.64 86.36 86.49
  Z
  M 30.11 123.03
  Q 31.06 125.29 32.47 123.41
  C 32.65 123.16 32.75 122.84 32.75 122.49
  L 32.75 103.06
  C 32.75 102.53 32.34 102.08 31.81 102.03
  Q 29.39 101.79 30.00 104.75
  Q 30.27 106.04 29.86 108.01
  C 29.81 108.26 29.53 108.39 29.30 108.27
  Q 23.78 105.54 19.85 108.39
  Q 16.27 110.99 16.11 115.63
  Q 15.96 119.99 19.79 122.56
  Q 21.96 124.01 24.51 123.98
  Q 27.09 123.95 29.50 122.79
  C 29.73 122.68 30.01 122.79 30.11 123.03
  Z
  M 38.45 117.63
  C 38.24 117.23 38.53 116.75 38.98 116.75
  L 50.11 116.75
  Q 52.50 116.75 51.96 114.42
  Q 50.50 108.17 45.24 107.14
  Q 41.48 106.41 38.60 108.50
  Q 35.50 110.74 35.21 115.26
  Q 34.96 119.32 37.19 121.31
  Q 43.99 127.40 49.93 121.13
  Q 50.58 120.44 50.65 119.66
  Q 50.81 118.02 49.24 118.29
  Q 48.51 118.42 47.61 119.24
  Q 41.96 124.40 38.45 117.63
  Z
  M 65.76 116.20
  Q 63.95 114.21 60.15 114.30
  Q 58.52 114.33 57.29 113.27
  Q 55.50 111.72 57.48 110.40
  Q 58.35 109.82 59.78 109.79
  Q 62.12 109.75 64.47 109.70
  Q 65.33 109.68 65.81 109.30
  Q 66.71 108.58 66.05 107.68
  Q 65.61 107.08 64.57 106.90
  Q 60.80 106.28 58.44 106.94
  Q 52.85 108.48 54.13 113.16
  Q 54.68 115.15 56.29 116.15
  Q 57.99 117.19 60.13 117.11
  Q 62.04 117.04 62.37 117.12
  Q 63.95 117.51 63.94 119.07
  Q 63.93 121.46 61.54 121.31
  Q 58.54 121.13 56.30 121.39
  Q 55.33 121.50 54.84 121.95
  Q 53.94 122.80 54.95 123.85
  C 55.15 124.07 55.47 124.19 55.81 124.20
  Q 57.96 124.26 60.11 124.26
  Q 62.87 124.26 64.26 123.54
  Q 67.20 122.03 66.75 118.37
  C 66.65 117.56 66.31 116.81 65.76 116.20
  Z
  M 79.19 108.36
  Q 76.15 105.83 72.46 107.30
  C 72.18 107.41 71.85 107.38 71.58 107.22
  Q 69.23 105.73 69.16 108.75
  Q 69.01 115.62 69.00 122.50
  C 69.00 122.84 69.12 123.16 69.33 123.38
  Q 70.60 124.72 71.47 123.56
  Q 71.94 122.93 71.88 121.71
  Q 71.66 117.73 71.93 113.74
  Q 72.06 111.82 73.08 110.73
  Q 75.08 108.60 76.90 110.62
  Q 77.99 111.83 78.12 114.24
  Q 78.35 118.58 78.32 122.93
  C 78.31 123.25 78.49 123.55 78.76 123.68
  Q 81.14 124.84 81.12 121.75
  Q 81.10 117.81 81.20 113.86
  Q 81.26 111.79 81.97 110.80
  Q 83.26 109.00 85.62 110.16
  Q 87.25 110.95 87.25 112.77
  L 87.25 122.40
  C 87.25 123.26 87.91 123.97 88.76 124.04
  Q 90.39 124.17 90.34 122.00
  Q 90.25 118.00 90.46 114.01
  Q 90.67 110.20 88.06 108.19
  Q 83.97 105.02 79.94 108.36
  C 79.73 108.54 79.41 108.54 79.19 108.36
  Z
  M 122.41 115.44
  Q 120.52 114.06 118.19 114.21
  Q 114.09 114.46 114.22 111.78
  Q 114.32 109.75 116.36 109.75
  L 122.10 109.75
  Q 124.15 109.75 123.52 107.79
  Q 123.13 106.57 121.48 106.63
  Q 119.60 106.69 119.53 106.69
  Q 116.11 106.53 114.25 107.25
  Q 111.85 108.18 111.35 110.66
  Q 110.92 112.81 112.08 114.67
  Q 113.86 117.54 118.00 117.04
  Q 121.20 116.65 121.24 119.09
  Q 121.28 121.25 119.11 121.25
  Q 115.87 121.25 113.76 121.42
  Q 110.63 121.67 112.25 123.80
  C 112.43 124.05 112.73 124.20 113.06 124.21
  Q 115.78 124.30 118.50 124.34
  Q 121.86 124.39 123.41 121.48
  Q 125.45 117.66 122.41 115.44
  Z
  M 109.42 115.59
  C 109.42 110.85 105.58 107.01 100.84 107.01
  C 96.10 107.01 92.26 110.85 92.26 115.59
  C 92.26 120.33 96.10 124.17 100.84 124.17
  C 105.58 124.17 109.42 120.33 109.42 115.59
  Z"
/>
<path fill="#ffffff" d="
  M 86.36 86.49
  C 86.63 86.64 86.68 87.01 86.45 87.21
  Q 78.31 94.39 68.67 93.69
  Q 61.95 93.21 55.42 88.32
  Q 49.53 83.90 45.28 77.66
  C 45.11 77.42 45.13 77.09 45.33 76.89
  L 51.49 70.65
  C 51.85 70.29 52.46 70.36 52.75 70.79
  Q 56.09 75.77 60.46 79.47
  Q 64.69 83.05 68.33 83.63
  Q 73.13 84.38 77.57 81.06
  C 78.02 80.72 78.64 80.76 79.04 81.16
  Q 82.00 84.12 86.36 86.49
  Z"
/>
<path fill="#ffffff" d="
  M 29.50 122.79
  Q 27.09 123.95 24.51 123.98
  Q 21.96 124.01 19.79 122.56
  Q 15.96 119.99 16.11 115.63
  Q 16.27 110.99 19.85 108.39
  Q 23.78 105.54 29.30 108.27
  C 29.53 108.39 29.81 108.26 29.86 108.01
  Q 30.27 106.04 30.00 104.75
  Q 29.39 101.79 31.81 102.03
  C 32.34 102.08 32.75 102.53 32.75 103.06
  L 32.75 122.49
  C 32.75 122.84 32.65 123.16 32.47 123.41
  Q 31.06 125.29 30.11 123.03
  C 30.01 122.79 29.73 122.68 29.50 122.79
  Z
  M 24.5483 121.1995
  C 27.49 121.16 29.83 118.61 29.7895 115.5157
  C 29.75 112.42 27.33 109.94 24.3917 109.9805
  C 21.45 110.02 19.11 112.57 19.1505 115.6643
  C 19.19 118.76 21.61 121.24 24.5483 121.1995
  Z"
/>
<path fill="#ffffff" d="
  M 38.45 117.63
  Q 41.96 124.40 47.61 119.24
  Q 48.51 118.42 49.24 118.29
  Q 50.81 118.02 50.65 119.66
  Q 50.58 120.44 49.93 121.13
  Q 43.99 127.40 37.19 121.31
  Q 34.96 119.32 35.21 115.26
  Q 35.50 110.74 38.60 108.50
  Q 41.48 106.41 45.24 107.14
  Q 50.50 108.17 51.96 114.42
  Q 52.50 116.75 50.11 116.75
  L 38.98 116.75
  C 38.53 116.75 38.24 117.23 38.45 117.63
  Z
  M 45.58 110.41
  Q 41.42 108.92 38.88 112.68
  Q 37.89 114.14 39.72 114.12
  L 47.81 114.04
  C 48.09 114.04 48.30 113.82 48.27 113.57
  Q 47.96 111.26 45.58 110.41
  Z"
/>
<path fill="#ffffff" d="
  M 65.76 116.20
  C 66.31 116.81 66.65 117.56 66.75 118.37
  Q 67.20 122.03 64.26 123.54
  Q 62.87 124.26 60.11 124.26
  Q 57.96 124.26 55.81 124.20
  C 55.47 124.19 55.15 124.07 54.95 123.85
  Q 53.94 122.80 54.84 121.95
  Q 55.33 121.50 56.30 121.39
  Q 58.54 121.13 61.54 121.31
  Q 63.93 121.46 63.94 119.07
  Q 63.95 117.51 62.37 117.12
  Q 62.04 117.04 60.13 117.11
  Q 57.99 117.19 56.29 116.15
  Q 54.68 115.15 54.13 113.16
  Q 52.85 108.48 58.44 106.94
  Q 60.80 106.28 64.57 106.90
  Q 65.61 107.08 66.05 107.68
  Q 66.71 108.58 65.81 109.30
  Q 65.33 109.68 64.47 109.70
  Q 62.12 109.75 59.78 109.79
  Q 58.35 109.82 57.48 110.40
  Q 55.50 111.72 57.29 113.27
  Q 58.52 114.33 60.15 114.30
  Q 63.95 114.21 65.76 116.20
  Z"
/>
<path fill="#ffffff" d="
  M 79.94 108.36
  Q 83.97 105.02 88.06 108.19
  Q 90.67 110.20 90.46 114.01
  Q 90.25 118.00 90.34 122.00
  Q 90.39 124.17 88.76 124.04
  C 87.91 123.97 87.25 123.26 87.25 122.40
  L 87.25 112.77
  Q 87.25 110.95 85.62 110.16
  Q 83.26 109.00 81.97 110.80
  Q 81.26 111.79 81.20 113.86
  Q 81.10 117.81 81.12 121.75
  Q 81.14 124.84 78.76 123.68
  C 78.49 123.55 78.31 123.25 78.32 122.93
  Q 78.35 118.58 78.12 114.24
  Q 77.99 111.83 76.90 110.62
  Q 75.08 108.60 73.08 110.73
  Q 72.06 111.82 71.93 113.74
  Q 71.66 117.73 71.88 121.71
  Q 71.94 122.93 71.47 123.56
  Q 70.60 124.72 69.33 123.38
  C 69.12 123.16 69.00 122.84 69.00 122.50
  Q 69.01 115.62 69.16 108.75
  Q 69.23 105.73 71.58 107.22
  C 71.85 107.38 72.18 107.41 72.46 107.30
  Q 76.15 105.83 79.19 108.36
  C 79.41 108.54 79.73 108.54 79.94 108.36
  Z"
/>
<path fill="#ffffff" d="
  M 122.41 115.44
  Q 125.45 117.66 123.41 121.48
  Q 121.86 124.39 118.50 124.34
  Q 115.78 124.30 113.06 124.21
  C 112.73 124.20 112.43 124.05 112.25 123.80
  Q 110.63 121.67 113.76 121.42
  Q 115.87 121.25 119.11 121.25
  Q 121.28 121.25 121.24 119.09
  Q 121.20 116.65 118.00 117.04
  Q 113.86 117.54 112.08 114.67
  Q 110.92 112.81 111.35 110.66
  Q 111.85 108.18 114.25 107.25
  Q 116.11 106.53 119.53 106.69
  Q 119.60 106.69 121.48 106.63
  Q 123.13 106.57 123.52 107.79
  Q 124.15 109.75 122.10 109.75
  L 116.36 109.75
  Q 114.32 109.75 114.22 111.78
  Q 114.09 114.46 118.19 114.21
  Q 120.52 114.06 122.41 115.44
  Z"
/>
<path fill="#ffffff" d="
  M 109.42 115.59
  C 109.42 120.33 105.58 124.17 100.84 124.17
  C 96.10 124.17 92.26 120.33 92.26 115.59
  C 92.26 110.85 96.10 107.01 100.84 107.01
  C 105.58 107.01 109.42 110.85 109.42 115.59
  Z
  M 106.37 115.61
  C 106.37 112.57 103.90 110.10 100.86 110.10
  C 97.82 110.10 95.35 112.57 95.35 115.61
  C 95.35 118.65 97.82 121.12 100.86 121.12
  C 103.90 121.12 106.37 118.65 106.37 115.61
  Z"
/>
<ellipse fill="#106e37" cx="0.00" cy="0.00" transform="translate(24.47,115.59) rotate(89.2)" rx="5.61" ry="5.32"/>
<path fill="#106e37" d="
  M 45.58 110.41
  Q 47.96 111.26 48.27 113.57
  C 48.30 113.82 48.09 114.04 47.81 114.04
  L 39.72 114.12
  Q 37.89 114.14 38.88 112.68
  Q 41.42 108.92 45.58 110.41
  Z"
/>
<circle fill="#106e37" cx="100.86" cy="115.61" r="5.51"/>
</svg>
