<?xml version="1.0" encoding="UTF-8" standalone="no"?>
<!DOCTYPE svg PUBLIC "-//W3C//DTD SVG 1.1//EN" "http://www.w3.org/Graphics/SVG/1.1/DTD/svg11.dtd">
<svg xmlns="http://www.w3.org/2000/svg" version="1.1" viewBox="0 0 192 192">
<path stroke="#8a8a8d" stroke-width="2.0" fill="none" stroke-linecap="butt" vector-effect="non-scaling-stroke" d="
  M 76.72 44.06
  Q 77.03 49.26 77.00 57.50
  Q 76.91 83.85 77.06 148.18
  C 77.06 148.46 77.28 148.69 77.55 148.69
  L 101.82 148.75
  C 102.19 148.75 102.52 148.51 102.63 148.15
  L 134.74 44.53
  C 134.79 44.37 134.91 44.26 135.03 44.25
  Q 135.23 44.24 135.23 44.50
  Q 135.20 96.34 135.31 148.18
  C 135.31 148.48 135.54 148.73 135.82 148.72
  L 146.56 148.61
  C 146.84 148.60 147.07 148.36 147.07 148.06
  L 147.07 43.69
  C 147.07 43.41 146.84 43.18 146.56 43.18
  L 122.30 43.06
  C 122.01 43.05 121.75 43.25 121.66 43.55
  Q 105.40 95.21 89.57 147.01
  Q 89.49 147.28 89.36 147.46
  Q 88.78 148.26 88.78 147.00
  Q 88.75 96.00 88.75 43.82
  C 88.75 43.37 88.38 43.00 87.92 43.00
  L 64.13 43.00
  C 63.70 43.00 63.31 43.28 63.19 43.69
  L 30.86 147.94
  C 30.70 148.47 31.12 149.00 31.69 148.99
  L 43.22 148.77
  C 43.75 148.76 44.20 148.43 44.34 147.96
  L 76.54 44.05
  Q 76.69 43.56 76.72 44.06"
/>
<path fill="#15141a" d="
  M 0.00 0.00
  Q 96.00 0.00 192.00 0.00
  Q 192.00 96.00 192.00 192.00
  Q 96.00 192.00 0.00 192.00
  Q 0.00 96.00 0.00 0.00
  Z
  M 76.72 44.06
  Q 77.03 49.26 77.00 57.50
  Q 76.91 83.85 77.06 148.18
  C 77.06 148.46 77.28 148.69 77.55 148.69
  L 101.82 148.75
  C 102.19 148.75 102.52 148.51 102.63 148.15
  L 134.74 44.53
  C 134.79 44.37 134.91 44.26 135.03 44.25
  Q 135.23 44.24 135.23 44.50
  Q 135.20 96.34 135.31 148.18
  C 135.31 148.48 135.54 148.73 135.82 148.72
  L 146.56 148.61
  C 146.84 148.60 147.07 148.36 147.07 148.06
  L 147.07 43.69
  C 147.07 43.41 146.84 43.18 146.56 43.18
  L 122.30 43.06
  C 122.01 43.05 121.75 43.25 121.66 43.55
  Q 105.40 95.21 89.57 147.01
  Q 89.49 147.28 89.36 147.46
  Q 88.78 148.26 88.78 147.00
  Q 88.75 96.00 88.75 43.82
  C 88.75 43.37 88.38 43.00 87.92 43.00
  L 64.13 43.00
  C 63.70 43.00 63.31 43.28 63.19 43.69
  L 30.86 147.94
  C 30.70 148.47 31.12 149.00 31.69 148.99
  L 43.22 148.77
  C 43.75 148.76 44.20 148.43 44.34 147.96
  L 76.54 44.05
  Q 76.69 43.56 76.72 44.06
  Z"
/>
<path fill="#ffffff" d="
  M 76.54 44.05
  L 44.34 147.96
  C 44.20 148.43 43.75 148.76 43.22 148.77
  L 31.69 148.99
  C 31.12 149.00 30.70 148.47 30.86 147.94
  L 63.19 43.69
  C 63.31 43.28 63.70 43.00 64.13 43.00
  L 87.92 43.00
  C 88.38 43.00 88.75 43.37 88.75 43.82
  Q 88.75 96.00 88.78 147.00
  Q 88.78 148.26 89.36 147.46
  Q 89.49 147.28 89.57 147.01
  Q 105.40 95.21 121.66 43.55
  C 121.75 43.25 122.01 43.05 122.30 43.06
  L 146.56 43.18
  C 146.84 43.18 147.07 43.41 147.07 43.69
  L 147.07 148.06
  C 147.07 148.36 146.84 148.60 146.56 148.61
  L 135.82 148.72
  C 135.54 148.73 135.31 148.48 135.31 148.18
  Q 135.20 96.34 135.23 44.50
  Q 135.23 44.24 135.03 44.25
  C 134.91 44.26 134.79 44.37 134.74 44.53
  L 102.63 148.15
  C 102.52 148.51 102.19 148.75 101.82 148.75
  L 77.55 148.69
  C 77.28 148.69 77.06 148.46 77.06 148.18
  Q 76.91 83.85 77.00 57.50
  Q 77.03 49.26 76.72 44.06
  Q 76.69 43.56 76.54 44.05
  Z"
/>
</svg>
