<?xml version="1.0" encoding="UTF-8" standalone="no"?>
<!DOCTYPE svg PUBLIC "-//W3C//DTD SVG 1.1//EN" "http://www.w3.org/Graphics/SVG/1.1/DTD/svg11.dtd">
<svg xmlns="http://www.w3.org/2000/svg" version="1.1" viewBox="0 0 180 180">
<g stroke-width="2.0" fill="none" stroke-linecap="butt">
<path stroke="#ffffff" stroke-opacity="0.992" vector-effect="non-scaling-stroke" d="
  M 155.44 180.00
  Q 155.63 179.53 155.25 179.53
  Q 90.63 179.50 26.00 179.50
  Q 24.02 179.50 23.25 179.79"
/>
<path stroke="#ffffff" stroke-opacity="0.992" vector-effect="non-scaling-stroke" d="
  M 27.07 0.32
  Q 89.53 0.64 152.00 0.43
  Q 156.15 0.42 152.50 0.41
  Q 89.78 0.20 27.05 0.31
  Q 26.56 0.31 27.07 0.32"
/>
<path stroke="#b0c0ef" vector-effect="non-scaling-stroke" d="
  M 75.82 131.77
  Q 63.79 127.73 55.56 117.44
  Q 47.15 106.92 46.05 93.98
  Q 45.21 84.04 48.80 74.34
  Q 54.62 58.62 70.06 50.56
  Q 78.28 46.27 89.24 45.77
  C 89.54 45.76 89.78 45.53 89.79 45.24
  L 89.96 33.94
  C 89.97 33.39 89.49 32.95 88.91 32.98
  Q 66.91 34.23 51.83 47.95
  Q 44.55 54.58 39.70 63.73
  Q 28.43 84.99 36.21 107.97
  Q 39.56 117.86 45.63 125.48
  Q 57.18 139.97 76.12 144.97
  Q 88.06 148.12 99.19 146.19
  Q 123.59 141.95 137.53 121.04
  Q 146.31 107.89 146.78 90.78
  C 146.80 90.35 146.46 90.00 146.03 90.00
  L 134.90 90.00
  C 134.55 90.00 134.26 90.28 134.25 90.63
  Q 133.59 108.88 120.69 121.69
  Q 110.19 132.11 95.54 133.78
  Q 85.30 134.95 75.82 131.77"
/>
<path stroke="#ffd880" vector-effect="non-scaling-stroke" d="
  M 106.68 92.41
  Q 121.22 74.20 136.27 55.20
  C 136.55 54.85 136.49 54.35 136.15 54.08
  L 125.52 45.63
  C 125.32 45.47 125.03 45.50 124.88 45.70
  L 89.83 89.35
  C 89.65 89.57 89.33 89.61 89.11 89.43
  L 73.60 76.79
  C 73.16 76.43 72.50 76.49 72.14 76.94
  L 63.64 87.29
  C 63.46 87.51 63.48 87.83 63.70 88.01
  Q 73.80 96.24 83.67 104.29
  Q 87.31 107.25 89.46 107.69
  Q 93.40 108.48 96.44 104.94
  Q 99.92 100.88 106.68 92.41"
/>
</g>
<path fill="#ffffff" d="
  M 23.31 0.00
  Q 90.06 0.00 156.81 0.00
  Q 177.26 3.08 180.00 23.56
  Q 180.00 90.19 180.00 156.81
  Q 176.84 177.59 155.94 180.00
  Q 155.69 180.00 155.44 180.00
  Q 155.63 179.53 155.25 179.53
  Q 90.63 179.50 26.00 179.50
  Q 24.02 179.50 23.25 179.79
  Q 2.68 177.08 0.00 156.44
  Q 0.00 89.81 0.00 23.19
  Q 3.06 2.97 23.31 0.00
  Z
  M 27.07 0.32
  Q 89.53 0.64 152.00 0.43
  Q 156.15 0.42 152.50 0.41
  Q 89.78 0.20 27.05 0.31
  Q 26.56 0.31 27.07 0.32
  Z
  M 75.82 131.77
  Q 63.79 127.73 55.56 117.44
  Q 47.15 106.92 46.05 93.98
  Q 45.21 84.04 48.80 74.34
  Q 54.62 58.62 70.06 50.56
  Q 78.28 46.27 89.24 45.77
  C 89.54 45.76 89.78 45.53 89.79 45.24
  L 89.96 33.94
  C 89.97 33.39 89.49 32.95 88.91 32.98
  Q 66.91 34.23 51.83 47.95
  Q 44.55 54.58 39.70 63.73
  Q 28.43 84.99 36.21 107.97
  Q 39.56 117.86 45.63 125.48
  Q 57.18 139.97 76.12 144.97
  Q 88.06 148.12 99.19 146.19
  Q 123.59 141.95 137.53 121.04
  Q 146.31 107.89 146.78 90.78
  C 146.80 90.35 146.46 90.00 146.03 90.00
  L 134.90 90.00
  C 134.55 90.00 134.26 90.28 134.25 90.63
  Q 133.59 108.88 120.69 121.69
  Q 110.19 132.11 95.54 133.78
  Q 85.30 134.95 75.82 131.77
  Z
  M 106.68 92.41
  Q 121.22 74.20 136.27 55.20
  C 136.55 54.85 136.49 54.35 136.15 54.08
  L 125.52 45.63
  C 125.32 45.47 125.03 45.50 124.88 45.70
  L 89.83 89.35
  C 89.65 89.57 89.33 89.61 89.11 89.43
  L 73.60 76.79
  C 73.16 76.43 72.50 76.49 72.14 76.94
  L 63.64 87.29
  C 63.46 87.51 63.48 87.83 63.70 88.01
  Q 73.80 96.24 83.67 104.29
  Q 87.31 107.25 89.46 107.69
  Q 93.40 108.48 96.44 104.94
  Q 99.92 100.88 106.68 92.41
  Z"
/>
<path fill="#fffefe" fill-opacity="0.980" d="
  M 27.05 0.31
  Q 89.78 0.20 152.50 0.41
  Q 156.15 0.42 152.00 0.43
  Q 89.53 0.64 27.07 0.32
  Q 26.56 0.31 27.05 0.31
  Z"
/>
<path fill="#6180df" d="
  M 95.54 133.78
  Q 110.19 132.11 120.69 121.69
  Q 133.59 108.88 134.25 90.63
  C 134.26 90.28 134.55 90.00 134.90 90.00
  L 146.03 90.00
  C 146.46 90.00 146.80 90.35 146.78 90.78
  Q 146.31 107.89 137.53 121.04
  Q 123.59 141.95 99.19 146.19
  Q 88.06 148.12 76.12 144.97
  Q 57.18 139.97 45.63 125.48
  Q 39.56 117.86 36.21 107.97
  Q 28.43 84.99 39.70 63.73
  Q 44.55 54.58 51.83 47.95
  Q 66.91 34.23 88.91 32.98
  C 89.49 32.95 89.97 33.39 89.96 33.94
  L 89.79 45.24
  C 89.78 45.53 89.54 45.76 89.24 45.77
  Q 78.28 46.27 70.06 50.56
  Q 54.62 58.62 48.80 74.34
  Q 45.21 84.04 46.05 93.98
  Q 47.15 106.92 55.56 117.44
  Q 63.79 127.73 75.82 131.77
  Q 85.30 134.95 95.54 133.78
  Z"
/>
<path fill="#ffb100" d="
  M 106.68 92.41
  Q 99.92 100.88 96.44 104.94
  Q 93.40 108.48 89.46 107.69
  Q 87.31 107.25 83.67 104.29
  Q 73.80 96.24 63.70 88.01
  C 63.48 87.83 63.46 87.51 63.64 87.29
  L 72.14 76.94
  C 72.50 76.49 73.16 76.43 73.60 76.79
  L 89.11 89.43
  C 89.33 89.61 89.65 89.57 89.83 89.35
  L 124.88 45.70
  C 125.03 45.50 125.32 45.47 125.52 45.63
  L 136.15 54.08
  C 136.49 54.35 136.55 54.85 136.27 55.20
  Q 121.22 74.20 106.68 92.41
  Z"
/>
<path fill="#fffefe" fill-opacity="0.980" d="
  M 155.44 180.00
  Q 89.31 180.00 23.19 180.00
  Q 23.22 179.90 23.25 179.79
  Q 24.02 179.50 26.00 179.50
  Q 90.63 179.50 155.25 179.53
  Q 155.63 179.53 155.44 180.00
  Z"
/>
</svg>
