<?xml version="1.0" encoding="UTF-8" standalone="no"?>
<!DOCTYPE svg PUBLIC "-//W3C//DTD SVG 1.1//EN" "http://www.w3.org/Graphics/SVG/1.1/DTD/svg11.dtd">
<svg xmlns="http://www.w3.org/2000/svg" version="1.1" viewBox="0 0 100 100">
<g stroke-width="2.0" fill="none" stroke-linecap="butt">
<path stroke="#8dd1ef" vector-effect="non-scaling-stroke" d="
  M 23.51 22.18
  Q 22.75 23.47 21.77 24.58
  Q 19.90 26.70 19.56 27.21
  Q 10.10 40.84 13.82 57.04
  Q 14.09 58.23 14.87 57.30
  Q 22.37 48.32 31.65 41.68
  Q 49.88 28.64 70.26 21.18
  Q 71.52 20.72 70.45 19.92
  Q 55.53 8.68 37.66 13.59
  C 36.70 13.86 35.67 13.69 34.84 13.13
  Q 32.70 11.67 30.38 11.21
  Q 27.94 10.72 25.91 12.16
  Q 21.53 15.26 23.58 21.28
  C 23.69 21.59 23.66 21.92 23.51 22.18"
/>
<path stroke="#8dd1ef" vector-effect="non-scaling-stroke" d="
  M 61.71 82.97
  Q 56.45 78.38 54.39 72.95
  Q 52.88 68.97 51.03 65.13
  C 50.90 64.85 50.65 64.64 50.34 64.53
  Q 47.44 63.50 45.77 61.17
  Q 44.13 58.88 44.49 56.01
  Q 44.94 52.42 48.01 50.66
  Q 50.59 49.18 53.82 49.71
  Q 61.19 50.94 58.96 61.06
  Q 58.61 62.64 58.97 64.22
  Q 60.72 71.97 66.95 78.32
  Q 68.46 79.87 70.25 78.64
  Q 92.42 63.41 83.65 36.68
  C 83.54 36.34 83.58 35.97 83.76 35.66
  Q 87.28 29.67 82.58 25.20
  Q 81.27 23.96 79.57 24.56
  Q 54.16 33.58 32.19 49.19
  Q 23.98 55.02 18.22 61.67
  Q 15.33 65.02 14.72 67.43
  Q 13.65 71.65 17.47 74.43
  Q 18.64 75.29 20.19 75.73
  Q 21.99 76.25 23.22 76.13
  C 24.14 76.04 25.05 76.39 25.66 77.09
  Q 31.39 83.61 38.13 86.23
  Q 43.56 88.35 50.05 87.40
  Q 56.23 86.49 61.67 83.34
  C 61.81 83.26 61.83 83.07 61.71 82.97"
/>
</g>
<path fill="#ffffff" d="
  M 0.00 0.00
  Q 50.00 0.00 100.00 0.00
  Q 100.00 50.00 100.00 100.00
  Q 50.00 100.00 0.00 100.00
  Q 0.00 50.00 0.00 0.00
  Z
  M 23.51 22.18
  Q 22.75 23.47 21.77 24.58
  Q 19.90 26.70 19.56 27.21
  Q 10.10 40.84 13.82 57.04
  Q 14.09 58.23 14.87 57.30
  Q 22.37 48.32 31.65 41.68
  Q 49.88 28.64 70.26 21.18
  Q 71.52 20.72 70.45 19.92
  Q 55.53 8.68 37.66 13.59
  C 36.70 13.86 35.67 13.69 34.84 13.13
  Q 32.70 11.67 30.38 11.21
  Q 27.94 10.72 25.91 12.16
  Q 21.53 15.26 23.58 21.28
  C 23.69 21.59 23.66 21.92 23.51 22.18
  Z
  M 61.71 82.97
  Q 56.45 78.38 54.39 72.95
  Q 52.88 68.97 51.03 65.13
  C 50.90 64.85 50.65 64.64 50.34 64.53
  Q 47.44 63.50 45.77 61.17
  Q 44.13 58.88 44.49 56.01
  Q 44.94 52.42 48.01 50.66
  Q 50.59 49.18 53.82 49.71
  Q 61.19 50.94 58.96 61.06
  Q 58.61 62.64 58.97 64.22
  Q 60.72 71.97 66.95 78.32
  Q 68.46 79.87 70.25 78.64
  Q 92.42 63.41 83.65 36.68
  C 83.54 36.34 83.58 35.97 83.76 35.66
  Q 87.28 29.67 82.58 25.20
  Q 81.27 23.96 79.57 24.56
  Q 54.16 33.58 32.19 49.19
  Q 23.98 55.02 18.22 61.67
  Q 15.33 65.02 14.72 67.43
  Q 13.65 71.65 17.47 74.43
  Q 18.64 75.29 20.19 75.73
  Q 21.99 76.25 23.22 76.13
  C 24.14 76.04 25.05 76.39 25.66 77.09
  Q 31.39 83.61 38.13 86.23
  Q 43.56 88.35 50.05 87.40
  Q 56.23 86.49 61.67 83.34
  C 61.81 83.26 61.83 83.07 61.71 82.97
  Z"
/>
<path fill="#1ba3de" d="
  M 23.58 21.28
  Q 21.53 15.26 25.91 12.16
  Q 27.94 10.72 30.38 11.21
  Q 32.70 11.67 34.84 13.13
  C 35.67 13.69 36.70 13.86 37.66 13.59
  Q 55.53 8.68 70.45 19.92
  Q 71.52 20.72 70.26 21.18
  Q 49.88 28.64 31.65 41.68
  Q 22.37 48.32 14.87 57.30
  Q 14.09 58.23 13.82 57.04
  Q 10.10 40.84 19.56 27.21
  Q 19.90 26.70 21.77 24.58
  Q 22.75 23.47 23.51 22.18
  C 23.66 21.92 23.69 21.59 23.58 21.28
  Z"
/>
<path fill="#1ba3de" d="
  M 61.71 82.97
  C 61.83 83.07 61.81 83.26 61.67 83.34
  Q 56.23 86.49 50.05 87.40
  Q 43.56 88.35 38.13 86.23
  Q 31.39 83.61 25.66 77.09
  C 25.05 76.39 24.14 76.04 23.22 76.13
  Q 21.99 76.25 20.19 75.73
  Q 18.64 75.29 17.47 74.43
  Q 13.65 71.65 14.72 67.43
  Q 15.33 65.02 18.22 61.67
  Q 23.98 55.02 32.19 49.19
  Q 54.16 33.58 79.57 24.56
  Q 81.27 23.96 82.58 25.20
  Q 87.28 29.67 83.76 35.66
  C 83.58 35.97 83.54 36.34 83.65 36.68
  Q 92.42 63.41 70.25 78.64
  Q 68.46 79.87 66.95 78.32
  Q 60.72 71.97 58.97 64.22
  Q 58.61 62.64 58.96 61.06
  Q 61.19 50.94 53.82 49.71
  Q 50.59 49.18 48.01 50.66
  Q 44.94 52.42 44.49 56.01
  Q 44.13 58.88 45.77 61.17
  Q 47.44 63.50 50.34 64.53
  C 50.65 64.64 50.90 64.85 51.03 65.13
  Q 52.88 68.97 54.39 72.95
  Q 56.45 78.38 61.71 82.97
  Z"
/>
</svg>
