<?xml version="1.0" encoding="UTF-8" standalone="no"?>
<!DOCTYPE svg PUBLIC "-//W3C//DTD SVG 1.1//EN" "http://www.w3.org/Graphics/SVG/1.1/DTD/svg11.dtd">
<svg xmlns="http://www.w3.org/2000/svg" version="1.1" viewBox="0 0 64 64">
<g stroke-width="2.0" fill="none" stroke-linecap="butt">
<path stroke="#01b2fd" vector-effect="non-scaling-stroke" d="
  M 51.25 5.21
  Q 49.79 10.10 49.58 15.19
  C 49.57 15.48 49.79 15.72 50.07 15.73
  L 61.96 16.00"
/>
<path stroke="#80c4fd" vector-effect="non-scaling-stroke" d="
  M 37.25 57.96
  L 41.78 30.82
  C 41.85 30.35 42.26 30.00 42.73 30.00
  L 57.27 30.00
  Q 58.31 30.00 57.53 29.30
  L 34.38 8.29
  Q 33.27 7.28 32.99 8.79
  L 31.05 19.45
  C 31.00 19.73 30.75 19.94 30.45 19.94
  L 11.20 20.06
  Q 10.05 20.07 10.82 20.91
  L 18.72 29.58
  C 18.94 29.82 19.24 29.95 19.56 29.95
  L 28.26 29.99
  C 28.62 30.00 28.89 30.31 28.83 30.65
  L 24.25 57.96"
/>
</g>
<path fill="#0188fb" d="
  M 51.25 5.21
  Q 49.79 10.10 49.58 15.19
  C 49.57 15.48 49.79 15.72 50.07 15.73
  L 61.96 16.00
  L 54.88 56.90
  C 54.77 57.54 54.22 58.00 53.58 58.00
  L 37.25 57.96
  L 41.78 30.82
  C 41.85 30.35 42.26 30.00 42.73 30.00
  L 57.27 30.00
  Q 58.31 30.00 57.53 29.30
  L 34.38 8.29
  Q 33.27 7.28 32.99 8.79
  L 31.05 19.45
  C 31.00 19.73 30.75 19.94 30.45 19.94
  L 11.20 20.06
  Q 10.05 20.07 10.82 20.91
  L 18.72 29.58
  C 18.94 29.82 19.24 29.95 19.56 29.95
  L 28.26 29.99
  C 28.62 30.00 28.89 30.31 28.83 30.65
  L 24.25 57.96
  L 3.26 58.00
  C 2.36 58.00 1.67 57.19 1.83 56.30
  L 10.75 5.98
  C 10.85 5.45 11.31 5.06 11.84 5.06
  L 51.25 5.21
  Z"
/>
<path fill="#01dcff" d="
  M 51.25 5.21
  L 61.96 16.00
  L 50.07 15.73
  C 49.79 15.72 49.57 15.48 49.58 15.19
  Q 49.79 10.10 51.25 5.21
  Z"
/>
<path fill="#ffffff" d="
  M 37.25 57.96
  L 24.25 57.96
  L 28.83 30.65
  C 28.89 30.31 28.62 30.00 28.26 29.99
  L 19.56 29.95
  C 19.24 29.95 18.94 29.82 18.72 29.58
  L 10.82 20.91
  Q 10.05 20.07 11.20 20.06
  L 30.45 19.94
  C 30.75 19.94 31.00 19.73 31.05 19.45
  L 32.99 8.79
  Q 33.27 7.28 34.38 8.29
  L 57.53 29.30
  Q 58.31 30.00 57.27 30.00
  L 42.73 30.00
  C 42.26 30.00 41.85 30.35 41.78 30.82
  L 37.25 57.96
  Z"
/>
</svg>
