<?xml version="1.0" encoding="UTF-8" standalone="no"?>
<!DOCTYPE svg PUBLIC "-//W3C//DTD SVG 1.1//EN" "http://www.w3.org/Graphics/SVG/1.1/DTD/svg11.dtd">
<svg xmlns="http://www.w3.org/2000/svg" version="1.1" viewBox="0 0 225 225">
<g stroke-width="2.0" fill="none" stroke-linecap="butt">
<path stroke="#f8c382" vector-effect="non-scaling-stroke" d="
  M 9.06 0.00
  Q 1.51 1.22 0.00 8.69"
/>
<path stroke="#f8c382" vector-effect="non-scaling-stroke" d="
  M 215.56 0.00
  Q 223.86 1.05 225.00 9.31"
/>
<path stroke="#e87a09" vector-effect="non-scaling-stroke" d="
  M 225.00 116.06
  Q 185.94 75.33 146.41 35.04
  Q 146.14 34.76 145.95 34.19
  Q 145.57 32.98 144.21 33.25"
/>
<path stroke="#f8c382" vector-effect="non-scaling-stroke" d="
  M 144.21 33.25
  Q 141.22 27.99 136.25 27.00
  Q 132.50 26.26 126.41 26.46
  Q 119.21 26.70 116.59 26.67
  Q 105.34 26.52 94.11 26.68
  Q 89.01 26.76 86.55 27.81
  Q 82.59 29.49 80.67 33.24
  Q 79.25 36.00 79.25 42.00
  Q 79.25 52.88 79.25 63.77
  Q 79.25 72.73 79.83 74.68
  Q 81.57 80.48 88.29 83.02
  C 88.60 83.14 88.73 83.52 88.56 83.81
  L 64.19 125.26
  C 64.04 125.53 63.74 125.69 63.43 125.68
  Q 52.40 125.63 41.37 125.90
  Q 36.87 126.01 34.42 127.40
  Q 28.00 131.02 28.00 140.00
  Q 28.00 154.75 28.05 169.50
  Q 28.07 177.78 35.25 181.54"
/>
<path stroke="#e87a09" vector-effect="non-scaling-stroke" d="
  M 35.25 181.54
  Q 35.06 182.44 35.81 183.19
  Q 46.06 193.36 75.65 223.40
  Q 75.72 223.46 76.47 223.88
  Q 76.98 224.16 76.69 225.00"
/>
<path stroke="#f8c382" vector-effect="non-scaling-stroke" d="
  M 8.94 225.00
  Q 1.45 223.62 0.00 216.19"
/>
<path stroke="#efb686" vector-effect="non-scaling-stroke" d="
  M 144.21 33.25
  Q 145.68 36.49 145.75 42.50
  Q 145.91 55.94 145.60 69.38
  Q 145.48 74.76 144.00 77.32
  Q 141.71 81.26 136.93 82.78
  C 136.41 82.94 136.18 83.54 136.46 84.01
  L 160.43 124.91
  C 160.73 125.43 161.29 125.75 161.89 125.75
  Q 172.17 125.75 181.52 125.75
  Q 186.85 125.75 189.35 126.73
  Q 193.53 128.37 195.50 132.24
  Q 197.00 135.19 197.00 142.51
  Q 197.00 154.43 197.00 166.34
  Q 197.00 172.96 195.56 175.92
  Q 192.44 182.32 184.00 182.50
  Q 169.46 182.81 145.78 182.55
  Q 139.81 182.49 136.97 181.04
  Q 131.34 178.16 130.75 171.25
  Q 129.99 162.32 130.63 140.06
  Q 130.77 134.87 132.23 132.23
  Q 136.00 125.35 145.85 125.79
  Q 146.99 125.84 146.41 124.86
  L 122.44 83.99
  C 122.29 83.72 122.00 83.56 121.69 83.56
  L 103.50 83.50
  C 103.15 83.50 102.83 83.68 102.66 83.98
  L 78.56 125.26
  Q 78.31 125.68 78.80 125.67
  Q 91.03 125.32 93.76 134.42
  Q 94.54 137.02 94.48 149.66
  Q 94.44 159.08 94.31 168.50
  Q 94.15 179.16 86.22 181.71
  Q 83.90 182.46 72.71 182.63
  Q 56.17 182.89 39.64 182.53
  Q 38.49 182.50 37.41 182.18
  Q 36.33 181.87 35.25 181.54"
/>
<path stroke="#efb686" vector-effect="non-scaling-stroke" d="
  M 225.00 216.31
  Q 223.47 224.22 215.44 225.00"
/>
</g>
<path fill="#ffffff" d="
  M 0.00 0.00
  Q 4.53 0.00 9.06 0.00
  Q 1.51 1.22 0.00 8.69
  Q 0.00 4.34 0.00 0.00
  Z"
/>
<path fill="#f08705" d="
  M 9.06 0.00
  Q 112.31 0.00 215.56 0.00
  Q 223.86 1.05 225.00 9.31
  Q 225.00 62.69 225.00 116.06
  Q 185.94 75.33 146.41 35.04
  Q 146.14 34.76 145.95 34.19
  Q 145.57 32.98 144.21 33.25
  Q 141.22 27.99 136.25 27.00
  Q 132.50 26.26 126.41 26.46
  Q 119.21 26.70 116.59 26.67
  Q 105.34 26.52 94.11 26.68
  Q 89.01 26.76 86.55 27.81
  Q 82.59 29.49 80.67 33.24
  Q 79.25 36.00 79.25 42.00
  Q 79.25 52.88 79.25 63.77
  Q 79.25 72.73 79.83 74.68
  Q 81.57 80.48 88.29 83.02
  C 88.60 83.14 88.73 83.52 88.56 83.81
  L 64.19 125.26
  C 64.04 125.53 63.74 125.69 63.43 125.68
  Q 52.40 125.63 41.37 125.90
  Q 36.87 126.01 34.42 127.40
  Q 28.00 131.02 28.00 140.00
  Q 28.00 154.75 28.05 169.50
  Q 28.07 177.78 35.25 181.54
  Q 35.06 182.44 35.81 183.19
  Q 46.06 193.36 75.65 223.40
  Q 75.72 223.46 76.47 223.88
  Q 76.98 224.16 76.69 225.00
  Q 42.81 225.00 8.94 225.00
  Q 1.45 223.62 0.00 216.19
  Q 0.00 112.44 0.00 8.69
  Q 1.51 1.22 9.06 0.00
  Z"
/>
<path fill="#ffffff" d="
  M 215.56 0.00
  Q 220.28 0.00 225.00 0.00
  Q 225.00 4.66 225.00 9.31
  Q 223.86 1.05 215.56 0.00
  Z"
/>
<path fill="#ffffff" d="
  M 144.21 33.25
  Q 145.68 36.49 145.75 42.50
  Q 145.91 55.94 145.60 69.38
  Q 145.48 74.76 144.00 77.32
  Q 141.71 81.26 136.93 82.78
  C 136.41 82.94 136.18 83.54 136.46 84.01
  L 160.43 124.91
  C 160.73 125.43 161.29 125.75 161.89 125.75
  Q 172.17 125.75 181.52 125.75
  Q 186.85 125.75 189.35 126.73
  Q 193.53 128.37 195.50 132.24
  Q 197.00 135.19 197.00 142.51
  Q 197.00 154.43 197.00 166.34
  Q 197.00 172.96 195.56 175.92
  Q 192.44 182.32 184.00 182.50
  Q 169.46 182.81 145.78 182.55
  Q 139.81 182.49 136.97 181.04
  Q 131.34 178.16 130.75 171.25
  Q 129.99 162.32 130.63 140.06
  Q 130.77 134.87 132.23 132.23
  Q 136.00 125.35 145.85 125.79
  Q 146.99 125.84 146.41 124.86
  L 122.44 83.99
  C 122.29 83.72 122.00 83.56 121.69 83.56
  L 103.50 83.50
  C 103.15 83.50 102.83 83.68 102.66 83.98
  L 78.56 125.26
  Q 78.31 125.68 78.80 125.67
  Q 91.03 125.32 93.76 134.42
  Q 94.54 137.02 94.48 149.66
  Q 94.44 159.08 94.31 168.50
  Q 94.15 179.16 86.22 181.71
  Q 83.90 182.46 72.71 182.63
  Q 56.17 182.89 39.64 182.53
  Q 38.49 182.50 37.41 182.18
  Q 36.33 181.87 35.25 181.54
  Q 28.07 177.78 28.05 169.50
  Q 28.00 154.75 28.00 140.00
  Q 28.00 131.02 34.42 127.40
  Q 36.87 126.01 41.37 125.90
  Q 52.40 125.63 63.43 125.68
  C 63.74 125.69 64.04 125.53 64.19 125.26
  L 88.56 83.81
  C 88.73 83.52 88.60 83.14 88.29 83.02
  Q 81.57 80.48 79.83 74.68
  Q 79.25 72.73 79.25 63.77
  Q 79.25 52.88 79.25 42.00
  Q 79.25 36.00 80.67 33.24
  Q 82.59 29.49 86.55 27.81
  Q 89.01 26.76 94.11 26.68
  Q 105.34 26.52 116.59 26.67
  Q 119.21 26.70 126.41 26.46
  Q 132.50 26.26 136.25 27.00
  Q 141.22 27.99 144.21 33.25
  Z"
/>
<path fill="#df6c0c" d="
  M 225.00 116.06
  Q 225.00 166.19 225.00 216.31
  Q 223.47 224.22 215.44 225.00
  Q 146.06 225.00 76.69 225.00
  Q 76.98 224.16 76.47 223.88
  Q 75.72 223.46 75.65 223.40
  Q 46.06 193.36 35.81 183.19
  Q 35.06 182.44 35.25 181.54
  Q 36.33 181.87 37.41 182.18
  Q 38.49 182.50 39.64 182.53
  Q 56.17 182.89 72.71 182.63
  Q 83.90 182.46 86.22 181.71
  Q 94.15 179.16 94.31 168.50
  Q 94.44 159.08 94.48 149.66
  Q 94.54 137.02 93.76 134.42
  Q 91.03 125.32 78.80 125.67
  Q 78.31 125.68 78.56 125.26
  L 102.66 83.98
  C 102.83 83.68 103.15 83.50 103.50 83.50
  L 121.69 83.56
  C 122.00 83.56 122.29 83.72 122.44 83.99
  L 146.41 124.86
  Q 146.99 125.84 145.85 125.79
  Q 136.00 125.35 132.23 132.23
  Q 130.77 134.87 130.63 140.06
  Q 129.99 162.32 130.75 171.25
  Q 131.34 178.16 136.97 181.04
  Q 139.81 182.49 145.78 182.55
  Q 169.46 182.81 184.00 182.50
  Q 192.44 182.32 195.56 175.92
  Q 197.00 172.96 197.00 166.34
  Q 197.00 154.43 197.00 142.51
  Q 197.00 135.19 195.50 132.24
  Q 193.53 128.37 189.35 126.73
  Q 186.85 125.75 181.52 125.75
  Q 172.17 125.75 161.89 125.75
  C 161.29 125.75 160.73 125.43 160.43 124.91
  L 136.46 84.01
  C 136.18 83.54 136.41 82.94 136.93 82.78
  Q 141.71 81.26 144.00 77.32
  Q 145.48 74.76 145.60 69.38
  Q 145.91 55.94 145.75 42.50
  Q 145.68 36.49 144.21 33.25
  Q 145.57 32.98 145.95 34.19
  Q 146.14 34.76 146.41 35.04
  Q 185.94 75.33 225.00 116.06
  Z"
/>
<path fill="#ffffff" d="
  M 0.00 216.19
  Q 1.45 223.62 8.94 225.00
  Q 4.47 225.00 0.00 225.00
  Q 0.00 220.59 0.00 216.19
  Z"
/>
<path fill="#ffffff" d="
  M 225.00 216.31
  Q 225.00 220.66 225.00 225.00
  Q 220.22 225.00 215.44 225.00
  Q 223.47 224.22 225.00 216.31
  Z"
/>
</svg>
