<?xml version="1.0" encoding="UTF-8" standalone="no"?>
<!DOCTYPE svg PUBLIC "-//W3C//DTD SVG 1.1//EN" "http://www.w3.org/Graphics/SVG/1.1/DTD/svg11.dtd">
<svg xmlns="http://www.w3.org/2000/svg" version="1.1" viewBox="0 0 158 158">
<g stroke-width="2.0" fill="none" stroke-linecap="butt">
<path stroke="#d73875" vector-effect="non-scaling-stroke" d="
  M 48.81 0.00
  Q 48.73 0.81 49.21 1.37
  Q 49.79 2.03 49.82 2.08
  Q 61.44 19.96 72.35 38.94
  C 72.53 39.26 72.36 39.66 72.01 39.75
  Q 36.49 48.72 0.00 51.94"
/>
<path stroke="#d73875" vector-effect="non-scaling-stroke" d="
  M 75.81 0.00
  Q 85.51 15.88 94.74 32.16
  C 94.89 32.42 95.20 32.53 95.48 32.43
  Q 124.82 21.62 146.81 0.00"
/>
<path stroke="#d73875" vector-effect="non-scaling-stroke" d="
  M 158.00 15.06
  Q 134.55 37.38 104.35 49.56
  C 104.09 49.66 103.98 49.96 104.09 50.22
  L 113.29 70.67
  C 113.44 71.00 113.78 71.21 114.13 71.17
  Q 136.50 68.72 158.00 70.56"
/>
<path stroke="#d73875" vector-effect="non-scaling-stroke" d="
  M 158.00 88.31
  Q 139.30 86.69 120.98 89.47
  C 120.73 89.51 120.57 89.76 120.66 90.00
  Q 132.42 122.69 139.68 156.40
  Q 139.70 156.51 139.93 157.05
  Q 140.15 157.57 139.69 158.00"
/>
<path stroke="#d73875" vector-effect="non-scaling-stroke" d="
  M 118.44 158.00
  Q 110.75 126.29 99.11 95.38
  C 99.00 95.08 98.68 94.93 98.38 95.03
  Q 75.14 103.11 55.39 116.62
  Q 30.97 133.32 14.69 158.00"
/>
<path stroke="#d73875" vector-effect="non-scaling-stroke" d="
  M 0.00 145.19
  Q 0.58 143.64 1.54 142.30
  Q 14.95 123.50 32.31 108.29
  Q 57.71 86.02 90.43 75.87
  C 90.71 75.78 90.86 75.47 90.73 75.21
  L 82.48 57.94
  C 82.36 57.68 82.06 57.55 81.77 57.64
  Q 41.86 68.82 0.52 71.92
  C 0.41 71.93 0.28 71.89 0.17 71.80
  Q 0.09 71.74 0.00 71.69"
/>
</g>
<path fill="#ea4c89" d="
  M 0.00 0.00
  Q 24.41 0.00 48.81 0.00
  Q 48.73 0.81 49.21 1.37
  Q 49.79 2.03 49.82 2.08
  Q 61.44 19.96 72.35 38.94
  C 72.53 39.26 72.36 39.66 72.01 39.75
  Q 36.49 48.72 0.00 51.94
  Q 0.00 25.97 0.00 0.00
  Z"
/>
<path fill="#c32361" d="
  M 48.81 0.00
  Q 62.31 0.00 75.81 0.00
  Q 85.51 15.88 94.74 32.16
  C 94.89 32.42 95.20 32.53 95.48 32.43
  Q 124.82 21.62 146.81 0.00
  Q 152.41 0.00 158.00 0.00
  Q 158.00 7.53 158.00 15.06
  Q 134.55 37.38 104.35 49.56
  C 104.09 49.66 103.98 49.96 104.09 50.22
  L 113.29 70.67
  C 113.44 71.00 113.78 71.21 114.13 71.17
  Q 136.50 68.72 158.00 70.56
  Q 158.00 79.44 158.00 88.31
  Q 139.30 86.69 120.98 89.47
  C 120.73 89.51 120.57 89.76 120.66 90.00
  Q 132.42 122.69 139.68 156.40
  Q 139.70 156.51 139.93 157.05
  Q 140.15 157.57 139.69 158.00
  Q 129.06 158.00 118.44 158.00
  Q 110.75 126.29 99.11 95.38
  C 99.00 95.08 98.68 94.93 98.38 95.03
  Q 75.14 103.11 55.39 116.62
  Q 30.97 133.32 14.69 158.00
  Q 7.34 158.00 0.00 158.00
  Q 0.00 151.59 0.00 145.19
  Q 0.58 143.64 1.54 142.30
  Q 14.95 123.50 32.31 108.29
  Q 57.71 86.02 90.43 75.87
  C 90.71 75.78 90.86 75.47 90.73 75.21
  L 82.48 57.94
  C 82.36 57.68 82.06 57.55 81.77 57.64
  Q 41.86 68.82 0.52 71.92
  C 0.41 71.93 0.28 71.89 0.17 71.80
  Q 0.09 71.74 0.00 71.69
  Q 0.00 61.81 0.00 51.94
  Q 36.49 48.72 72.01 39.75
  C 72.36 39.66 72.53 39.26 72.35 38.94
  Q 61.44 19.96 49.82 2.08
  Q 49.79 2.03 49.21 1.37
  Q 48.73 0.81 48.81 0.00
  Z"
/>
<path fill="#ea4c89" d="
  M 75.81 0.00
  Q 111.31 0.00 146.81 0.00
  Q 124.82 21.62 95.48 32.43
  C 95.20 32.53 94.89 32.42 94.74 32.16
  Q 85.51 15.88 75.81 0.00
  Z"
/>
<path fill="#ea4c89" d="
  M 158.00 15.06
  Q 158.00 42.81 158.00 70.56
  Q 136.50 68.72 114.13 71.17
  C 113.78 71.21 113.44 71.00 113.29 70.67
  L 104.09 50.22
  C 103.98 49.96 104.09 49.66 104.35 49.56
  Q 134.55 37.38 158.00 15.06
  Z"
/>
<path fill="#ea4c89" d="
  M 0.00 145.19
  Q 0.00 108.44 0.00 71.69
  Q 0.09 71.74 0.17 71.80
  C 0.28 71.89 0.41 71.93 0.52 71.92
  Q 41.86 68.82 81.77 57.64
  C 82.06 57.55 82.36 57.68 82.48 57.94
  L 90.73 75.21
  C 90.86 75.47 90.71 75.78 90.43 75.87
  Q 57.71 86.02 32.31 108.29
  Q 14.95 123.50 1.54 142.30
  Q 0.58 143.64 0.00 145.19
  Z"
/>
<path fill="#ea4c89" d="
  M 158.00 88.31
  Q 158.00 123.16 158.00 158.00
  Q 148.84 158.00 139.69 158.00
  Q 140.15 157.57 139.93 157.05
  Q 139.70 156.51 139.68 156.40
  Q 132.42 122.69 120.66 90.00
  C 120.57 89.76 120.73 89.51 120.98 89.47
  Q 139.30 86.69 158.00 88.31
  Z"
/>
<path fill="#ea4c89" d="
  M 118.44 158.00
  Q 66.56 158.00 14.69 158.00
  Q 30.97 133.32 55.39 116.62
  Q 75.14 103.11 98.38 95.03
  C 98.68 94.93 99.00 95.08 99.11 95.38
  Q 110.75 126.29 118.44 158.00
  Z"
/>
</svg>
