<?xml version="1.0" encoding="UTF-8" standalone="no"?>
<!DOCTYPE svg PUBLIC "-//W3C//DTD SVG 1.1//EN" "http://www.w3.org/Graphics/SVG/1.1/DTD/svg11.dtd">
<svg xmlns="http://www.w3.org/2000/svg" version="1.1" viewBox="0 0 128 128">
<g stroke-width="2.0" fill="none" stroke-linecap="butt">
<path stroke="#8ead20" vector-effect="non-scaling-stroke" d="
  M 49.94 128.00
  Q 50.05 127.75 50.13 127.49
  Q 50.30 126.95 50.60 126.65
  Q 63.80 113.68 85.25 92.00
  Q 85.97 91.27 85.75 90.46"
/>
<path stroke="#cee091" vector-effect="non-scaling-stroke" d="
  M 85.75 90.46
  Q 90.46 88.71 91.38 84.49
  Q 91.50 83.91 91.50 76.99
  Q 91.50 55.87 91.50 34.76
  Q 91.50 34.69 91.65 32.74
  Q 91.91 29.47 88.25 30.00
  Q 80.46 31.13 58.17 36.10
  Q 58.08 36.12 56.81 36.31
  Q 54.43 36.67 53.54 39.00"
/>
<path stroke="#8ead20" vector-effect="non-scaling-stroke" d="
  M 53.54 39.00
  Q 53.00 38.38 52.56 38.81
  Q 38.77 52.27 1.60 89.40
  Q 1.45 89.55 1.09 90.23
  Q 0.77 90.83 0.00 90.69"
/>
<path stroke="#bfcd8e" vector-effect="non-scaling-stroke" d="
  M 85.75 90.46
  Q 78.02 91.17 76.25 90.50
  Q 67.72 87.28 71.25 78.50
  Q 72.06 76.47 74.45 75.41
  Q 75.87 74.79 78.66 74.79
  Q 81.58 74.79 84.48 74.50
  Q 86.79 74.27 86.94 71.96
  Q 87.75 59.43 86.85 46.94
  C 86.83 46.67 86.58 46.48 86.32 46.54
  L 57.67 53.31
  C 57.39 53.38 57.18 53.64 57.17 53.94
  Q 56.40 80.71 56.75 89.00
  Q 57.08 96.75 49.48 97.52
  Q 47.25 97.75 45.00 97.84
  Q 38.22 98.11 36.29 93.09
  Q 34.87 89.41 36.43 86.07
  Q 38.18 82.32 43.26 81.94
  Q 45.87 81.75 48.49 81.93
  Q 50.98 82.11 52.31 80.61
  Q 53.25 79.55 53.23 77.14
  Q 53.06 58.07 53.54 39.00"
/>
</g>
<path fill="#9dc023" d="
  M 33.31 0.00
  Q 63.81 0.00 94.31 0.00
  Q 110.24 1.35 119.94 13.06
  Q 126.93 21.51 128.00 33.31
  Q 128.00 64.06 128.00 94.81
  Q 123.76 124.09 94.44 128.00
  Q 72.19 128.00 49.94 128.00
  Q 50.05 127.75 50.13 127.49
  Q 50.30 126.95 50.60 126.65
  Q 63.80 113.68 85.25 92.00
  Q 85.97 91.27 85.75 90.46
  Q 90.46 88.71 91.38 84.49
  Q 91.50 83.91 91.50 76.99
  Q 91.50 55.87 91.50 34.76
  Q 91.50 34.69 91.65 32.74
  Q 91.91 29.47 88.25 30.00
  Q 80.46 31.13 58.17 36.10
  Q 58.08 36.12 56.81 36.31
  Q 54.43 36.67 53.54 39.00
  Q 53.00 38.38 52.56 38.81
  Q 38.77 52.27 1.60 89.40
  Q 1.45 89.55 1.09 90.23
  Q 0.77 90.83 0.00 90.69
  Q 0.00 61.94 0.00 33.19
  Q 4.21 4.12 33.31 0.00
  Z"
/>
<path fill="#ffffff" d="
  M 85.75 90.46
  Q 78.02 91.17 76.25 90.50
  Q 67.72 87.28 71.25 78.50
  Q 72.06 76.47 74.45 75.41
  Q 75.87 74.79 78.66 74.79
  Q 81.58 74.79 84.48 74.50
  Q 86.79 74.27 86.94 71.96
  Q 87.75 59.43 86.85 46.94
  C 86.83 46.67 86.58 46.48 86.32 46.54
  L 57.67 53.31
  C 57.39 53.38 57.18 53.64 57.17 53.94
  Q 56.40 80.71 56.75 89.00
  Q 57.08 96.75 49.48 97.52
  Q 47.25 97.75 45.00 97.84
  Q 38.22 98.11 36.29 93.09
  Q 34.87 89.41 36.43 86.07
  Q 38.18 82.32 43.26 81.94
  Q 45.87 81.75 48.49 81.93
  Q 50.98 82.11 52.31 80.61
  Q 53.25 79.55 53.23 77.14
  Q 53.06 58.07 53.54 39.00
  Q 54.43 36.67 56.81 36.31
  Q 58.08 36.12 58.17 36.10
  Q 80.46 31.13 88.25 30.00
  Q 91.91 29.47 91.65 32.74
  Q 91.50 34.69 91.50 34.76
  Q 91.50 55.87 91.50 76.99
  Q 91.50 83.91 91.38 84.49
  Q 90.46 88.71 85.75 90.46
  Z"
/>
<path fill="#7e9a1c" d="
  M 53.54 39.00
  Q 53.06 58.07 53.23 77.14
  Q 53.25 79.55 52.31 80.61
  Q 50.98 82.11 48.49 81.93
  Q 45.87 81.75 43.26 81.94
  Q 38.18 82.32 36.43 86.07
  Q 34.87 89.41 36.29 93.09
  Q 38.22 98.11 45.00 97.84
  Q 47.25 97.75 49.48 97.52
  Q 57.08 96.75 56.75 89.00
  Q 56.40 80.71 57.17 53.94
  C 57.18 53.64 57.39 53.38 57.67 53.31
  L 86.32 46.54
  C 86.58 46.48 86.83 46.67 86.85 46.94
  Q 87.75 59.43 86.94 71.96
  Q 86.79 74.27 84.48 74.50
  Q 81.58 74.79 78.66 74.79
  Q 75.87 74.79 74.45 75.41
  Q 72.06 76.47 71.25 78.50
  Q 67.72 87.28 76.25 90.50
  Q 78.02 91.17 85.75 90.46
  Q 85.97 91.27 85.25 92.00
  Q 63.80 113.68 50.60 126.65
  Q 50.30 126.95 50.13 127.49
  Q 50.05 127.75 49.94 128.00
  Q 41.56 128.00 33.19 128.00
  Q 9.28 125.04 1.50 102.50
  Q 0.32 99.08 0.00 93.69
  Q 0.00 92.19 0.00 90.69
  Q 0.77 90.83 1.09 90.23
  Q 1.45 89.55 1.60 89.40
  Q 38.77 52.27 52.56 38.81
  Q 53.00 38.38 53.54 39.00
  Z"
/>
</svg>
