<?xml version="1.0" encoding="UTF-8" standalone="no"?>
<!DOCTYPE svg PUBLIC "-//W3C//DTD SVG 1.1//EN" "http://www.w3.org/Graphics/SVG/1.1/DTD/svg11.dtd">
<svg xmlns="http://www.w3.org/2000/svg" version="1.1" viewBox="0 0 1449 1447">
<g stroke-width="2.0" fill="none" stroke-linecap="butt">
<path stroke="#569749" vector-effect="non-scaling-stroke" d="
  M 28.50 785.96
  Q 27.28 784.55 28.06 783.06
  Q 40.03 760.35 56.59 739.36
  Q 79.62 710.16 107.12 685.11
  Q 175.92 622.44 261.69 586.19
  Q 338.34 553.80 421.27 549.20
  Q 429.91 548.72 441.24 548.58
  Q 478.27 548.10 515.26 550.06
  Q 533.50 551.03 577.75 552.00
  Q 582.57 552.11 585.88 551.99
  Q 593.08 551.74 593.13 551.74
  Q 629.06 551.51 664.75 547.21
  Q 716.47 540.99 766.84 527.84
  Q 778.99 524.67 786.15 522.68
  Q 807.30 516.81 825.00 509.75
  Q 847.32 500.85 867.75 488.22
  Q 882.70 478.98 894.56 468.06
  Q 948.48 418.47 939.54 343.94
  Q 936.44 318.13 925.56 292.44
  Q 924.85 290.75 923.54 290.50"
/>
<path stroke="#569749" vector-effect="non-scaling-stroke" d="
  M 559.75 413.21
  Q 553.52 413.93 547.26 414.16
  Q 534.76 414.60 534.75 414.60
  Q 456.46 419.14 373.75 434.00
  Q 330.98 441.68 294.90 453.29
  Q 294.68 453.36 293.98 453.27
  L 293.50 453.21"
/>
<path stroke="#35829f" vector-effect="non-scaling-stroke" d="
  M 1448.46 687.50
  Q 1441.67 685.25 1434.50 685.31
  Q 1419.88 685.42 1405.97 689.92
  Q 1394.16 693.74 1383.08 699.35
  Q 1362.44 709.80 1343.87 723.60
  Q 1326.27 736.69 1308.69 752.94
  Q 1278.73 780.63 1253.88 811.57
  Q 1246.55 820.70 1241.56 827.34
  Q 1220.97 854.73 1206.43 885.87
  Q 1197.05 905.96 1184.53 924.27
  Q 1164.30 953.86 1139.54 979.80
  Q 1075.39 1047.02 993.85 1091.63
  Q 951.26 1114.93 904.06 1130.31
  Q 793.53 1166.34 680.30 1140.52
  Q 637.35 1130.72 598.90 1109.28
  Q 578.90 1098.12 561.43 1083.32
  Q 544.06 1068.59 531.28 1049.75
  Q 524.73 1040.11 520.48 1029.26
  Q 510.63 1004.14 520.97 979.20
  Q 527.91 962.47 539.84 948.83
  Q 555.22 931.25 574.46 918.00"
/>
<path stroke="#94839e" vector-effect="non-scaling-stroke" d="
  M 574.46 918.00
  Q 575.67 917.08 577.21 917.25"
/>
<path stroke="#8b468d" vector-effect="non-scaling-stroke" d="
  M 307.25 999.29
  Q 308.31 998.53 309.56 998.07
  Q 354.26 981.84 399.77 968.08
  Q 486.75 941.78 574.46 918.00"
/>
<path stroke="#ef8251" vector-effect="non-scaling-stroke" d="
  M 947.75 693.29
  Q 946.76 692.53 946.25 693.50
  Q 944.18 694.79 942.19 697.44
  Q 928.84 715.18 911.18 731.43
  Q 866.47 772.59 810.07 794.46
  Q 801.85 797.65 791.19 801.06
  Q 771.17 807.47 750.76 812.53
  Q 711.90 822.15 672.75 830.50
  Q 633.45 838.88 507.78 864.15
  Q 460.11 873.74 412.77 884.83
  Q 400.76 887.64 374.69 894.44
  Q 309.54 911.43 254.86 945.54
  Q 246.22 950.93 238.08 956.43
  Q 207.70 976.97 181.62 1002.87
  Q 165.28 1019.10 151.65 1037.66
  Q 126.50 1071.92 115.50 1113.00
  Q 114.65 1116.18 113.66 1122.07
  Q 113.63 1122.21 113.63 1123.94
  Q 113.62 1125.42 112.04 1125.75"
/>
</g>
<path fill="#176755" d="
  M 28.50 785.96
  Q 27.28 784.55 28.06 783.06
  Q 40.03 760.35 56.59 739.36
  Q 79.62 710.16 107.12 685.11
  Q 175.92 622.44 261.69 586.19
  Q 338.34 553.80 421.27 549.20
  Q 429.91 548.72 441.24 548.58
  Q 478.27 548.10 515.26 550.06
  Q 533.50 551.03 577.75 552.00
  Q 582.57 552.11 585.88 551.99
  Q 593.08 551.74 593.13 551.74
  Q 629.06 551.51 664.75 547.21
  Q 716.47 540.99 766.84 527.84
  Q 778.99 524.67 786.15 522.68
  Q 807.30 516.81 825.00 509.75
  Q 847.32 500.85 867.75 488.22
  Q 882.70 478.98 894.56 468.06
  Q 948.48 418.47 939.54 343.94
  Q 936.44 318.13 925.56 292.44
  Q 924.85 290.75 923.54 290.50
  Q 919.04 280.55 910.19 272.81
  Q 900.80 264.60 890.37 260.21
  Q 874.44 253.51 857.25 251.48
  Q 832.51 248.55 807.97 252.89
  Q 706.97 270.76 629.56 337.56
  Q 591.76 370.18 559.75 413.21
  Q 553.52 413.93 547.26 414.16
  Q 534.76 414.60 534.75 414.60
  Q 456.46 419.14 373.75 434.00
  Q 330.98 441.68 294.90 453.29
  Q 294.68 453.36 293.98 453.27
  L 293.50 453.21
  Q 298.93 448.72 302.19 443.44
  Q 305.20 438.55 310.57 428.76
  Q 367.93 324.21 460.02 249.07
  Q 468.03 242.54 475.80 236.79
  Q 568.76 168.06 683.23 146.89
  Q 723.27 139.48 767.00 137.50
  Q 776.53 137.07 784.17 137.08
  Q 790.46 137.08 801.34 137.39
  Q 868.43 139.26 932.06 165.94
  Q 965.84 180.10 992.87 198.86
  Q 1053.87 241.22 1077.94 309.56
  Q 1096.28 361.65 1092.65 419.99
  Q 1088.88 480.72 1053.76 528.98
  Q 1047.99 536.91 1041.10 544.47
  Q 1017.55 570.31 987.00 589.00
  Q 966.15 601.75 945.44 610.68
  Q 891.29 634.01 831.75 644.75
  Q 791.64 651.99 755.24 655.44
  Q 693.63 661.28 631.75 663.00
  Q 622.66 663.25 574.50 664.85
  Q 454.48 668.83 343.31 682.81
  Q 303.89 687.77 255.76 697.81
  Q 187.93 711.97 123.60 737.65
  Q 80.79 754.74 41.92 779.49
  Q 36.48 782.95 31.75 785.25
  Q 30.40 785.90 28.50 785.96
  Z"
/>
<path fill="#95c63d" d="
  M 923.54 290.50
  Q 924.85 290.75 925.56 292.44
  Q 936.44 318.13 939.54 343.94
  Q 948.48 418.47 894.56 468.06
  Q 882.70 478.98 867.75 488.22
  Q 847.32 500.85 825.00 509.75
  Q 807.30 516.81 786.15 522.68
  Q 778.99 524.67 766.84 527.84
  Q 716.47 540.99 664.75 547.21
  Q 629.06 551.51 593.13 551.74
  Q 593.08 551.74 585.88 551.99
  Q 582.57 552.11 577.75 552.00
  Q 533.50 551.03 515.26 550.06
  Q 478.27 548.10 441.24 548.58
  Q 429.91 548.72 421.27 549.20
  Q 338.34 553.80 261.69 586.19
  Q 175.92 622.44 107.12 685.11
  Q 79.62 710.16 56.59 739.36
  Q 40.03 760.35 28.06 783.06
  Q 27.28 784.55 28.50 785.96
  Q 25.50 786.02 25.75 782.50
  Q 26.41 773.20 27.51 765.76
  Q 27.61 765.11 30.33 749.21
  Q 40.56 689.39 68.31 637.06
  Q 113.72 551.45 195.61 499.63
  Q 236.51 473.75 282.21 457.75
  Q 287.96 455.74 293.50 453.21
  L 293.98 453.27
  Q 294.68 453.36 294.90 453.29
  Q 330.98 441.68 373.75 434.00
  Q 456.46 419.14 534.75 414.60
  Q 534.76 414.60 547.26 414.16
  Q 553.52 413.93 559.75 413.21
  Q 560.74 413.53 563.00 413.50
  Q 611.25 412.95 647.00 415.75
  Q 672.87 417.77 698.75 419.75
  Q 724.58 421.72 745.75 421.65
  Q 756.39 421.62 765.72 420.83
  Q 812.39 416.88 855.42 397.90
  Q 876.12 388.77 893.12 373.86
  Q 910.71 358.42 919.30 336.63
  Q 925.86 319.96 925.27 302.00
  Q 925.08 296.14 923.54 290.50
  Z"
/>
<path fill="#3dbfb0" d="
  M 1448.46 687.50
  Q 1441.67 685.25 1434.50 685.31
  Q 1419.88 685.42 1405.97 689.92
  Q 1394.16 693.74 1383.08 699.35
  Q 1362.44 709.80 1343.87 723.60
  Q 1326.27 736.69 1308.69 752.94
  Q 1278.73 780.63 1253.88 811.57
  Q 1246.55 820.70 1241.56 827.34
  Q 1220.97 854.73 1206.43 885.87
  Q 1197.05 905.96 1184.53 924.27
  Q 1164.30 953.86 1139.54 979.80
  Q 1075.39 1047.02 993.85 1091.63
  Q 951.26 1114.93 904.06 1130.31
  Q 793.53 1166.34 680.30 1140.52
  Q 637.35 1130.72 598.90 1109.28
  Q 578.90 1098.12 561.43 1083.32
  Q 544.06 1068.59 531.28 1049.75
  Q 524.73 1040.11 520.48 1029.26
  Q 510.63 1004.14 520.97 979.20
  Q 527.91 962.47 539.84 948.83
  Q 555.22 931.25 574.46 918.00
  Q 575.67 917.08 577.21 917.25
  Q 578.07 918.62 581.44 921.81
  Q 597.59 937.12 614.61 947.93
  Q 621.79 952.49 631.86 958.03
  Q 656.66 971.69 683.75 980.24
  Q 703.93 986.61 724.66 990.69
  Q 736.05 992.94 744.32 994.33
  Q 777.77 999.93 811.75 997.31
  Q 866.11 993.12 917.97 976.40
  Q 1000.31 949.84 1069.51 898.00
  Q 1118.38 861.38 1158.00 816.50
  Q 1174.81 797.45 1187.98 783.72
  Q 1218.31 752.09 1253.19 727.19
  Q 1279.17 708.64 1309.16 695.37
  Q 1344.45 679.75 1383.00 677.02
  Q 1417.03 674.62 1448.31 686.44
  Q 1449.12 686.74 1448.46 687.50
  Z"
/>
<path fill="#2c458e" d="
  M 1448.46 687.50
  Q 1447.59 688.51 1446.43 689.18
  Q 1437.22 694.50 1427.44 698.69
  Q 1405.75 707.99 1390.34 725.84
  Q 1386.86 729.86 1383.63 734.09
  Q 1367.06 755.79 1354.17 779.87
  Q 1331.26 822.62 1312.55 867.38
  Q 1292.23 915.96 1276.56 958.56
  Q 1267.06 984.40 1258.39 1003.99
  Q 1196.55 1143.70 1067.72 1223.98
  Q 1059.24 1229.26 1050.51 1234.13
  Q 961.44 1283.80 858.81 1296.81
  Q 814.10 1302.49 771.49 1300.92
  Q 680.50 1297.57 597.75 1264.00
  Q 534.56 1238.37 477.06 1197.41
  Q 410.96 1150.34 361.81 1086.94
  Q 330.44 1046.46 307.25 999.29
  Q 308.31 998.53 309.56 998.07
  Q 354.26 981.84 399.77 968.08
  Q 486.75 941.78 574.46 918.00
  Q 555.22 931.25 539.84 948.83
  Q 527.91 962.47 520.97 979.20
  Q 510.63 1004.14 520.48 1029.26
  Q 524.73 1040.11 531.28 1049.75
  Q 544.06 1068.59 561.43 1083.32
  Q 578.90 1098.12 598.90 1109.28
  Q 637.35 1130.72 680.30 1140.52
  Q 793.53 1166.34 904.06 1130.31
  Q 951.26 1114.93 993.85 1091.63
  Q 1075.39 1047.02 1139.54 979.80
  Q 1164.30 953.86 1184.53 924.27
  Q 1197.05 905.96 1206.43 885.87
  Q 1220.97 854.73 1241.56 827.34
  Q 1246.55 820.70 1253.88 811.57
  Q 1278.73 780.63 1308.69 752.94
  Q 1326.27 736.69 1343.87 723.60
  Q 1362.44 709.80 1383.08 699.35
  Q 1394.16 693.74 1405.97 689.92
  Q 1419.88 685.42 1434.50 685.31
  Q 1441.67 685.25 1448.46 687.50
  Z"
/>
<path fill="#f4bd17" d="
  M 947.75 693.29
  Q 946.76 692.53 946.25 693.50
  Q 944.18 694.79 942.19 697.44
  Q 928.84 715.18 911.18 731.43
  Q 866.47 772.59 810.07 794.46
  Q 801.85 797.65 791.19 801.06
  Q 771.17 807.47 750.76 812.53
  Q 711.90 822.15 672.75 830.50
  Q 633.45 838.88 507.78 864.15
  Q 460.11 873.74 412.77 884.83
  Q 400.76 887.64 374.69 894.44
  Q 309.54 911.43 254.86 945.54
  Q 246.22 950.93 238.08 956.43
  Q 207.70 976.97 181.62 1002.87
  Q 165.28 1019.10 151.65 1037.66
  Q 126.50 1071.92 115.50 1113.00
  Q 114.65 1116.18 113.66 1122.07
  Q 113.63 1122.21 113.63 1123.94
  Q 113.62 1125.42 112.04 1125.75
  Q 111.85 1120.74 112.28 1115.75
  Q 117.44 1056.50 140.12 1001.59
  Q 152.87 970.71 171.38 943.04
  Q 176.99 934.65 183.07 926.83
  Q 233.82 861.48 311.69 830.44
  Q 346.69 816.48 382.80 809.52
  Q 447.42 797.06 509.56 789.06
  Q 555.88 783.11 610.27 777.71
  Q 673.43 771.44 736.49 764.15
  Q 773.52 759.87 810.19 753.19
  Q 836.69 748.35 862.41 740.47
  Q 873.19 737.17 881.27 733.85
  Q 908.58 722.67 932.06 704.53
  Q 941.40 697.32 948.11 687.63
  Q 949.70 685.34 949.19 688.94
  Q 949.08 689.70 947.75 693.29
  Z"
/>
<path fill="#ea468b" d="
  M 947.75 693.29
  Q 939.28 722.34 921.06 748.81
  Q 907.26 768.87 892.49 783.74
  Q 865.93 810.49 833.60 829.87
  Q 795.02 852.99 751.06 867.06
  Q 730.04 873.79 719.99 876.72
  Q 648.73 897.45 577.21 917.25
  Q 575.67 917.08 574.46 918.00
  Q 486.75 941.78 399.77 968.08
  Q 354.26 981.84 309.56 998.07
  Q 308.31 998.53 307.25 999.29
  Q 297.75 1002.64 278.94 1010.69
  Q 255.76 1020.60 237.77 1033.76
  Q 212.42 1052.33 186.38 1069.91
  Q 167.11 1082.91 148.22 1096.44
  Q 133.81 1106.75 121.37 1119.37
  Q 115.73 1125.10 112.74 1131.77
  Q 111.96 1133.51 111.80 1131.61
  Q 111.53 1128.35 112.04 1125.75
  Q 113.62 1125.42 113.63 1123.94
  Q 113.63 1122.21 113.66 1122.07
  Q 114.65 1116.18 115.50 1113.00
  Q 126.50 1071.92 151.65 1037.66
  Q 165.28 1019.10 181.62 1002.87
  Q 207.70 976.97 238.08 956.43
  Q 246.22 950.93 254.86 945.54
  Q 309.54 911.43 374.69 894.44
  Q 400.76 887.64 412.77 884.83
  Q 460.11 873.74 507.78 864.15
  Q 633.45 838.88 672.75 830.50
  Q 711.90 822.15 750.76 812.53
  Q 771.17 807.47 791.19 801.06
  Q 801.85 797.65 810.07 794.46
  Q 866.47 772.59 911.18 731.43
  Q 928.84 715.18 942.19 697.44
  Q 944.18 694.79 946.25 693.50
  Q 946.76 692.53 947.75 693.29
  Z"
/>
</svg>
