<?xml version="1.0" encoding="UTF-8" standalone="no"?>
<!DOCTYPE svg PUBLIC "-//W3C//DTD SVG 1.1//EN" "http://www.w3.org/Graphics/SVG/1.1/DTD/svg11.dtd">
<svg xmlns="http://www.w3.org/2000/svg" version="1.1" viewBox="0 0 256 256">
<g stroke-width="2.0" fill="none" stroke-linecap="butt">
<path stroke="#ffffff" vector-effect="non-scaling-stroke" d="
  M 183.21 0.37
  C 183.21 0.30 183.16 0.25 183.09 0.25
  L 73.67 0.25
  C 73.60 0.25 73.55 0.30 73.55 0.37
  L 73.55 0.39
  C 73.55 0.46 73.60 0.51 73.67 0.51
  L 183.09 0.51
  C 183.16 0.51 183.21 0.46 183.21 0.39
  L 183.21 0.37"
/>
<path stroke="#808080" vector-effect="non-scaling-stroke" d="
  M 153.53 42.71
  Q 140.46 70.13 124.00 100.75
  Q 122.16 104.17 119.17 105.93
  Q 116.95 107.24 112.56 107.37
  Q 104.28 107.63 95.43 107.49
  C 94.52 107.47 93.64 107.86 93.04 108.54
  Q 89.86 112.14 87.31 115.56
  Q 85.58 117.89 87.13 120.45
  Q 88.25 122.32 88.42 122.84
  Q 88.80 123.97 89.15 125.49
  C 89.25 125.92 89.60 126.24 90.03 126.28
  L 96.74 126.98
  C 97.28 127.03 97.71 127.46 97.75 127.99
  Q 98.60 138.79 98.68 149.62
  Q 98.70 151.89 97.68 154.01
  Q 92.56 164.71 81.69 189.94
  Q 79.10 195.94 79.23 200.57
  Q 79.25 201.06 79.51 201.35
  Q 80.09 201.98 80.56 201.06
  Q 89.17 184.30 101.40 158.61
  Q 129.11 100.43 157.59 41.61
  C 157.76 41.26 157.71 40.84 157.45 40.54
  Q 151.79 34.01 145.18 28.15
  Q 136.68 20.62 136.61 20.55
  Q 130.15 14.60 124.21 9.24
  Q 121.94 7.19 119.31 8.76
  Q 114.74 11.51 111.03 14.73
  Q 108.10 17.28 108.03 17.34
  Q 95.28 28.04 83.41 39.72
  C 83.19 39.94 83.09 40.26 83.13 40.57
  L 88.43 79.25
  C 88.47 79.58 88.33 79.88 88.08 80.02
  L 86.71 80.78
  C 86.45 80.93 86.31 81.21 86.39 81.47
  Q 89.69 92.86 93.24 104.17
  Q 93.63 105.41 94.19 106.03
  Q 95.85 107.89 96.56 104.16
  C 96.65 103.74 96.96 103.41 97.37 103.30
  Q 98.26 103.06 97.79 102.11
  Q 95.76 98.04 94.73 93.61
  Q 89.61 71.56 87.71 49.00
  Q 87.48 46.28 87.94 43.65
  Q 88.36 41.22 90.13 38.92
  Q 95.53 31.90 104.19 25.19
  Q 112.07 19.08 120.79 12.02
  C 121.28 11.62 122.00 11.64 122.46 12.08
  Q 129.06 18.32 135.27 24.99
  Q 143.74 34.09 153.37 41.94
  C 153.59 42.12 153.66 42.44 153.53 42.71"
/>
<path stroke="#808080" vector-effect="non-scaling-stroke" d="
  M 118.93 32.63
  Q 115.51 32.87 114.81 37.26
  Q 113.84 43.27 118.64 44.07
  Q 120.61 44.40 122.49 43.24
  Q 124.26 42.16 125.67 40.62
  C 125.89 40.39 125.98 40.07 125.94 39.76
  Q 125.53 36.75 123.62 34.65
  Q 121.59 32.43 118.93 32.63"
/>
<path stroke="#808080" vector-effect="non-scaling-stroke" d="
  M 129.15 136.97
  Q 128.47 135.35 126.99 136.07
  C 126.73 136.20 126.57 136.49 126.59 136.81
  Q 126.91 142.41 126.50 144.00
  Q 125.65 147.27 121.38 155.60
  Q 111.23 175.42 100.90 195.15
  Q 100.87 195.20 97.82 200.65
  Q 95.04 205.62 93.28 211.04
  Q 92.61 213.10 92.93 214.52
  Q 93.36 216.41 94.81 217.69
  Q 107.39 228.74 119.89 239.87
  Q 124.15 243.66 129.64 247.52
  Q 131.21 248.63 132.60 247.31
  Q 149.78 230.99 165.45 213.00
  Q 166.90 211.34 166.62 209.15
  Q 161.68 170.68 157.75 133.00
  Q 157.24 128.15 156.75 117.25
  Q 156.51 111.97 154.99 104.91
  Q 154.44 102.38 154.77 100.54
  Q 155.16 98.35 156.03 96.26
  Q 164.81 75.31 174.73 54.87
  Q 174.75 54.82 175.20 54.03
  Q 175.96 52.69 174.44 52.70
  Q 173.80 52.70 173.19 53.14
  Q 170.78 54.85 169.94 56.69
  Q 151.16 97.55 129.56 136.99
  Q 129.33 137.41 129.15 136.97"
/>
<path stroke="#808080" vector-effect="non-scaling-stroke" d="
  M 92.94 123.56
  Q 98.92 123.90 106.15 123.12
  Q 106.21 123.12 108.37 123.00
  Q 111.56 122.83 113.56 120.56
  Q 117.11 116.54 118.57 110.80
  C 118.63 110.57 118.43 110.35 118.19 110.38
  Q 106.28 112.05 94.25 111.76
  C 93.93 111.75 93.63 111.90 93.44 112.15
  Q 91.90 114.19 90.89 116.54
  Q 90.46 117.53 90.68 118.53
  Q 90.90 119.56 91.30 120.54
  C 91.42 120.82 91.45 121.15 91.39 121.49
  Q 91.05 123.45 92.94 123.56"
/>
<path stroke="#808080" vector-effect="non-scaling-stroke" d="
  M 101.91 127.89
  Q 100.84 134.37 102.30 141.23
  Q 102.76 143.38 103.70 141.42
  L 110.84 126.54
  Q 111.13 125.95 110.49 126.01
  L 102.96 126.76
  C 102.44 126.81 102.01 127.28 101.91 127.89"
/>
<path stroke="#808080" vector-effect="non-scaling-stroke" d="
  M 120.61 35.37
  Q 118.77 34.25 117.72 36.14
  Q 115.77 39.63 119.26 41.00
  Q 121.75 41.99 122.33 39.37
  Q 122.92 36.76 120.61 35.37"
/>
<path stroke="#808080" vector-effect="non-scaling-stroke" d="
  M 128.88 209.48
  Q 127.98 207.15 128.00 204.00
  Q 128.18 179.25 127.76 154.91
  Q 127.73 153.49 126.95 154.67
  Q 125.34 157.10 123.95 159.64
  Q 110.25 184.82 96.33 210.14
  Q 95.45 211.74 96.69 213.08
  Q 103.19 220.06 110.38 226.63
  Q 119.91 235.34 129.58 244.44
  C 129.80 244.65 130.13 244.67 130.37 244.49
  Q 134.76 241.17 138.58 237.33
  Q 150.94 224.91 162.21 211.48
  Q 163.92 209.45 163.55 206.74
  Q 159.89 179.76 156.65 152.73
  Q 154.03 130.93 150.52 109.36
  Q 150.32 108.15 149.75 109.24
  Q 141.36 125.42 133.28 141.74
  Q 131.78 144.77 131.66 145.16
  Q 131.20 146.76 131.25 149.00
  Q 131.76 171.09 130.76 209.00
  C 130.75 209.38 130.62 209.69 130.41 209.85
  Q 130.03 210.13 129.54 210.07
  C 129.26 210.03 129.00 209.81 128.88 209.48"
/>
</g>
<path fill="#ffffff" d="
  M 68.31 0.00
  Q 128.06 0.00 187.81 0.00
  Q 190.24 0.16 200.25 0.50
  Q 216.83 1.06 230.76 10.16
  Q 238.35 15.12 243.91 22.26
  Q 249.89 29.94 252.50 38.25
  Q 255.49 47.78 256.00 62.56
  Q 256.00 128.44 256.00 194.31
  Q 255.38 207.47 253.50 214.00
  Q 244.98 243.57 215.75 253.00
  Q 208.24 255.42 194.19 256.00
  Q 128.19 256.00 62.19 256.00
  Q 50.04 255.10 46.75 254.50
  Q 24.64 250.48 12.06 233.69
  Q 4.31 223.33 1.25 208.25
  Q 0.56 204.84 0.00 188.44
  Q 0.00 128.19 0.00 67.94
  Q 0.17 54.23 1.75 45.75
  Q 3.94 34.02 10.95 24.02
  Q 16.75 15.74 25.23 10.22
  Q 39.43 0.98 57.25 0.52
  Q 62.79 0.38 68.31 0.00
  Z
  M 183.21 0.37
  C 183.21 0.30 183.16 0.25 183.09 0.25
  L 73.67 0.25
  C 73.60 0.25 73.55 0.30 73.55 0.37
  L 73.55 0.39
  C 73.55 0.46 73.60 0.51 73.67 0.51
  L 183.09 0.51
  C 183.16 0.51 183.21 0.46 183.21 0.39
  L 183.21 0.37
  Z
  M 153.53 42.71
  Q 140.46 70.13 124.00 100.75
  Q 122.16 104.17 119.17 105.93
  Q 116.95 107.24 112.56 107.37
  Q 104.28 107.63 95.43 107.49
  C 94.52 107.47 93.64 107.86 93.04 108.54
  Q 89.86 112.14 87.31 115.56
  Q 85.58 117.89 87.13 120.45
  Q 88.25 122.32 88.42 122.84
  Q 88.80 123.97 89.15 125.49
  C 89.25 125.92 89.60 126.24 90.03 126.28
  L 96.74 126.98
  C 97.28 127.03 97.71 127.46 97.75 127.99
  Q 98.60 138.79 98.68 149.62
  Q 98.70 151.89 97.68 154.01
  Q 92.56 164.71 81.69 189.94
  Q 79.10 195.94 79.23 200.57
  Q 79.25 201.06 79.51 201.35
  Q 80.09 201.98 80.56 201.06
  Q 89.17 184.30 101.40 158.61
  Q 129.11 100.43 157.59 41.61
  C 157.76 41.26 157.71 40.84 157.45 40.54
  Q 151.79 34.01 145.18 28.15
  Q 136.68 20.62 136.61 20.55
  Q 130.15 14.60 124.21 9.24
  Q 121.94 7.19 119.31 8.76
  Q 114.74 11.51 111.03 14.73
  Q 108.10 17.28 108.03 17.34
  Q 95.28 28.04 83.41 39.72
  C 83.19 39.94 83.09 40.26 83.13 40.57
  L 88.43 79.25
  C 88.47 79.58 88.33 79.88 88.08 80.02
  L 86.71 80.78
  C 86.45 80.93 86.31 81.21 86.39 81.47
  Q 89.69 92.86 93.24 104.17
  Q 93.63 105.41 94.19 106.03
  Q 95.85 107.89 96.56 104.16
  C 96.65 103.74 96.96 103.41 97.37 103.30
  Q 98.26 103.06 97.79 102.11
  Q 95.76 98.04 94.73 93.61
  Q 89.61 71.56 87.71 49.00
  Q 87.48 46.28 87.94 43.65
  Q 88.36 41.22 90.13 38.92
  Q 95.53 31.90 104.19 25.19
  Q 112.07 19.08 120.79 12.02
  C 121.28 11.62 122.00 11.64 122.46 12.08
  Q 129.06 18.32 135.27 24.99
  Q 143.74 34.09 153.37 41.94
  C 153.59 42.12 153.66 42.44 153.53 42.71
  Z
  M 118.93 32.63
  Q 115.51 32.87 114.81 37.26
  Q 113.84 43.27 118.64 44.07
  Q 120.61 44.40 122.49 43.24
  Q 124.26 42.16 125.67 40.62
  C 125.89 40.39 125.98 40.07 125.94 39.76
  Q 125.53 36.75 123.62 34.65
  Q 121.59 32.43 118.93 32.63
  Z
  M 129.15 136.97
  Q 128.47 135.35 126.99 136.07
  C 126.73 136.20 126.57 136.49 126.59 136.81
  Q 126.91 142.41 126.50 144.00
  Q 125.65 147.27 121.38 155.60
  Q 111.23 175.42 100.90 195.15
  Q 100.87 195.20 97.82 200.65
  Q 95.04 205.62 93.28 211.04
  Q 92.61 213.10 92.93 214.52
  Q 93.36 216.41 94.81 217.69
  Q 107.39 228.74 119.89 239.87
  Q 124.15 243.66 129.64 247.52
  Q 131.21 248.63 132.60 247.31
  Q 149.78 230.99 165.45 213.00
  Q 166.90 211.34 166.62 209.15
  Q 161.68 170.68 157.75 133.00
  Q 157.24 128.15 156.75 117.25
  Q 156.51 111.97 154.99 104.91
  Q 154.44 102.38 154.77 100.54
  Q 155.16 98.35 156.03 96.26
  Q 164.81 75.31 174.73 54.87
  Q 174.75 54.82 175.20 54.03
  Q 175.96 52.69 174.44 52.70
  Q 173.80 52.70 173.19 53.14
  Q 170.78 54.85 169.94 56.69
  Q 151.16 97.55 129.56 136.99
  Q 129.33 137.41 129.15 136.97
  Z"
/>
<rect fill="#ffffff" x="73.55" y="0.25" width="109.66" height="0.26" rx="0.12"/>
<path fill="#000000" d="
  M 153.37 41.94
  Q 143.74 34.09 135.27 24.99
  Q 129.06 18.32 122.46 12.08
  C 122.00 11.64 121.28 11.62 120.79 12.02
  Q 112.07 19.08 104.19 25.19
  Q 95.53 31.90 90.13 38.92
  Q 88.36 41.22 87.94 43.65
  Q 87.48 46.28 87.71 49.00
  Q 89.61 71.56 94.73 93.61
  Q 95.76 98.04 97.79 102.11
  Q 98.26 103.06 97.37 103.30
  C 96.96 103.41 96.65 103.74 96.56 104.16
  Q 95.85 107.89 94.19 106.03
  Q 93.63 105.41 93.24 104.17
  Q 89.69 92.86 86.39 81.47
  C 86.31 81.21 86.45 80.93 86.71 80.78
  L 88.08 80.02
  C 88.33 79.88 88.47 79.58 88.43 79.25
  L 83.13 40.57
  C 83.09 40.26 83.19 39.94 83.41 39.72
  Q 95.28 28.04 108.03 17.34
  Q 108.10 17.28 111.03 14.73
  Q 114.74 11.51 119.31 8.76
  Q 121.94 7.19 124.21 9.24
  Q 130.15 14.60 136.61 20.55
  Q 136.68 20.62 145.18 28.15
  Q 151.79 34.01 157.45 40.54
  C 157.71 40.84 157.76 41.26 157.59 41.61
  Q 129.11 100.43 101.40 158.61
  Q 89.17 184.30 80.56 201.06
  Q 80.09 201.98 79.51 201.35
  Q 79.25 201.06 79.23 200.57
  Q 79.10 195.94 81.69 189.94
  Q 92.56 164.71 97.68 154.01
  Q 98.70 151.89 98.68 149.62
  Q 98.60 138.79 97.75 127.99
  C 97.71 127.46 97.28 127.03 96.74 126.98
  L 90.03 126.28
  C 89.60 126.24 89.25 125.92 89.15 125.49
  Q 88.80 123.97 88.42 122.84
  Q 88.25 122.32 87.13 120.45
  Q 85.58 117.89 87.31 115.56
  Q 89.86 112.14 93.04 108.54
  C 93.64 107.86 94.52 107.47 95.43 107.49
  Q 104.28 107.63 112.56 107.37
  Q 116.95 107.24 119.17 105.93
  Q 122.16 104.17 124.00 100.75
  Q 140.46 70.13 153.53 42.71
  C 153.66 42.44 153.59 42.12 153.37 41.94
  Z
  M 92.94 123.56
  Q 98.92 123.90 106.15 123.12
  Q 106.21 123.12 108.37 123.00
  Q 111.56 122.83 113.56 120.56
  Q 117.11 116.54 118.57 110.80
  C 118.63 110.57 118.43 110.35 118.19 110.38
  Q 106.28 112.05 94.25 111.76
  C 93.93 111.75 93.63 111.90 93.44 112.15
  Q 91.90 114.19 90.89 116.54
  Q 90.46 117.53 90.68 118.53
  Q 90.90 119.56 91.30 120.54
  C 91.42 120.82 91.45 121.15 91.39 121.49
  Q 91.05 123.45 92.94 123.56
  Z
  M 101.91 127.89
  Q 100.84 134.37 102.30 141.23
  Q 102.76 143.38 103.70 141.42
  L 110.84 126.54
  Q 111.13 125.95 110.49 126.01
  L 102.96 126.76
  C 102.44 126.81 102.01 127.28 101.91 127.89
  Z"
/>
<path fill="#000000" d="
  M 123.62 34.65
  Q 125.53 36.75 125.94 39.76
  C 125.98 40.07 125.89 40.39 125.67 40.62
  Q 124.26 42.16 122.49 43.24
  Q 120.61 44.40 118.64 44.07
  Q 113.84 43.27 114.81 37.26
  Q 115.51 32.87 118.93 32.63
  Q 121.59 32.43 123.62 34.65
  Z
  M 120.61 35.37
  Q 118.77 34.25 117.72 36.14
  Q 115.77 39.63 119.26 41.00
  Q 121.75 41.99 122.33 39.37
  Q 122.92 36.76 120.61 35.37
  Z"
/>
<path fill="#ffffff" d="
  M 120.61 35.37
  Q 122.92 36.76 122.33 39.37
  Q 121.75 41.99 119.26 41.00
  Q 115.77 39.63 117.72 36.14
  Q 118.77 34.25 120.61 35.37
  Z"
/>
<path fill="#000000" d="
  M 129.56 136.99
  Q 151.16 97.55 169.94 56.69
  Q 170.78 54.85 173.19 53.14
  Q 173.80 52.70 174.44 52.70
  Q 175.96 52.69 175.20 54.03
  Q 174.75 54.82 174.73 54.87
  Q 164.81 75.31 156.03 96.26
  Q 155.16 98.35 154.77 100.54
  Q 154.44 102.38 154.99 104.91
  Q 156.51 111.97 156.75 117.25
  Q 157.24 128.15 157.75 133.00
  Q 161.68 170.68 166.62 209.15
  Q 166.90 211.34 165.45 213.00
  Q 149.78 230.99 132.60 247.31
  Q 131.21 248.63 129.64 247.52
  Q 124.15 243.66 119.89 239.87
  Q 107.39 228.74 94.81 217.69
  Q 93.36 216.41 92.93 214.52
  Q 92.61 213.10 93.28 211.04
  Q 95.04 205.62 97.82 200.65
  Q 100.87 195.20 100.90 195.15
  Q 111.23 175.42 121.38 155.60
  Q 125.65 147.27 126.50 144.00
  Q 126.91 142.41 126.59 136.81
  C 126.57 136.49 126.73 136.20 126.99 136.07
  Q 128.47 135.35 129.15 136.97
  Q 129.33 137.41 129.56 136.99
  Z
  M 128.88 209.48
  Q 127.98 207.15 128.00 204.00
  Q 128.18 179.25 127.76 154.91
  Q 127.73 153.49 126.95 154.67
  Q 125.34 157.10 123.95 159.64
  Q 110.25 184.82 96.33 210.14
  Q 95.45 211.74 96.69 213.08
  Q 103.19 220.06 110.38 226.63
  Q 119.91 235.34 129.58 244.44
  C 129.80 244.65 130.13 244.67 130.37 244.49
  Q 134.76 241.17 138.58 237.33
  Q 150.94 224.91 162.21 211.48
  Q 163.92 209.45 163.55 206.74
  Q 159.89 179.76 156.65 152.73
  Q 154.03 130.93 150.52 109.36
  Q 150.32 108.15 149.75 109.24
  Q 141.36 125.42 133.28 141.74
  Q 131.78 144.77 131.66 145.16
  Q 131.20 146.76 131.25 149.00
  Q 131.76 171.09 130.76 209.00
  C 130.75 209.38 130.62 209.69 130.41 209.85
  Q 130.03 210.13 129.54 210.07
  C 129.26 210.03 129.00 209.81 128.88 209.48
  Z"
/>
<path fill="#ffffff" d="
  M 129.54 210.07
  Q 130.03 210.13 130.41 209.85
  C 130.62 209.69 130.75 209.38 130.76 209.00
  Q 131.76 171.09 131.25 149.00
  Q 131.20 146.76 131.66 145.16
  Q 131.78 144.77 133.28 141.74
  Q 141.36 125.42 149.75 109.24
  Q 150.32 108.15 150.52 109.36
  Q 154.03 130.93 156.65 152.73
  Q 159.89 179.76 163.55 206.74
  Q 163.92 209.45 162.21 211.48
  Q 150.94 224.91 138.58 237.33
  Q 134.76 241.17 130.37 244.49
  C 130.13 244.67 129.80 244.65 129.58 244.44
  Q 119.91 235.34 110.38 226.63
  Q 103.19 220.06 96.69 213.08
  Q 95.45 211.74 96.33 210.14
  Q 110.25 184.82 123.95 159.64
  Q 125.34 157.10 126.95 154.67
  Q 127.73 153.49 127.76 154.91
  Q 128.18 179.25 128.00 204.00
  Q 127.98 207.15 128.88 209.48
  C 129.00 209.81 129.26 210.03 129.54 210.07
  Z"
/>
<path fill="#ffffff" d="
  M 92.94 123.56
  Q 91.05 123.45 91.39 121.49
  C 91.45 121.15 91.42 120.82 91.30 120.54
  Q 90.90 119.56 90.68 118.53
  Q 90.46 117.53 90.89 116.54
  Q 91.90 114.19 93.44 112.15
  C 93.63 111.90 93.93 111.75 94.25 111.76
  Q 106.28 112.05 118.19 110.38
  C 118.43 110.35 118.63 110.57 118.57 110.80
  Q 117.11 116.54 113.56 120.56
  Q 111.56 122.83 108.37 123.00
  Q 106.21 123.12 106.15 123.12
  Q 98.92 123.90 92.94 123.56
  Z"
/>
<path fill="#ffffff" d="
  M 101.91 127.89
  C 102.01 127.28 102.44 126.81 102.96 126.76
  L 110.49 126.01
  Q 111.13 125.95 110.84 126.54
  L 103.70 141.42
  Q 102.76 143.38 102.30 141.23
  Q 100.84 134.37 101.91 127.89
  Z"
/>
</svg>
