<?xml version="1.0" encoding="UTF-8" standalone="no"?>
<!DOCTYPE svg PUBLIC "-//W3C//DTD SVG 1.1//EN" "http://www.w3.org/Graphics/SVG/1.1/DTD/svg11.dtd">
<svg xmlns="http://www.w3.org/2000/svg" version="1.1" viewBox="0 0 338 338">
<path fill="#61b04b" d="
  M 145.71 121.38
  Q 157.65 120.56 170.51 121.13
  Q 184.56 121.75 195.44 128.06
  Q 201.92 131.82 205.78 138.30
  Q 208.98 143.66 210.19 151.71
  Q 213.56 174.18 199.81 193.56
  Q 190.50 206.69 176.97 213.89
  Q 161.87 221.91 147.63 216.17
  Q 139.93 213.07 133.36 205.81
  Q 127.32 199.14 123.49 190.75
  Q 118.21 179.19 115.41 166.34
  C 115.36 166.08 115.04 165.98 114.84 166.15
  Q 99.30 179.06 96.25 198.25
  Q 93.85 213.35 94.25 234.50
  Q 94.82 264.88 95.75 295.25
  Q 95.87 299.28 94.93 302.49
  Q 93.94 305.91 91.31 308.62
  Q 87.33 312.72 81.84 312.99
  Q 75.07 313.32 70.27 308.72
  Q 66.78 305.37 65.96 300.32
  Q 65.87 299.74 65.62 291.17
  Q 64.94 268.08 64.04 245.01
  Q 62.85 214.60 67.50 188.75
  Q 70.32 173.09 81.00 158.73
  Q 93.06 142.52 111.64 132.36
  C 112.09 132.11 112.39 131.65 112.42 131.13
  Q 113.66 112.78 122.58 98.05
  Q 133.06 80.74 148.91 68.15
  Q 164.71 55.61 182.70 46.46
  Q 206.85 34.18 224.25 29.00
  Q 240.38 24.20 258.50 24.00
  Q 262.48 23.96 265.77 25.31
  Q 269.02 26.66 271.48 29.63
  Q 276.92 36.18 273.69 44.69
  Q 271.62 50.14 266.22 52.58
  Q 263.76 53.69 259.08 53.96
  Q 255.42 54.18 251.76 54.41
  Q 242.16 55.02 233.07 57.73
  Q 227.22 59.48 215.37 64.33
  Q 194.85 72.74 176.34 85.11
  Q 168.69 90.23 158.81 99.81
  Q 150.49 107.88 144.89 120.19
  C 144.63 120.77 145.08 121.42 145.71 121.38
  Z
  M 179.46 153.50
  Q 174.51 151.33 169.26 151.03
  Q 157.22 150.36 144.64 151.82
  C 143.97 151.90 143.50 152.50 143.58 153.16
  Q 145.11 165.55 150.38 177.59
  Q 152.93 183.40 157.48 187.61
  Q 159.38 189.37 161.68 188.19
  Q 175.54 181.10 179.98 166.63
  Q 180.86 163.76 180.88 160.77
  Q 180.91 157.73 180.48 154.83
  C 180.39 154.24 180.01 153.74 179.46 153.50
  Z"
/>
</svg>
