<?xml version="1.0" encoding="UTF-8" standalone="no"?>
<!DOCTYPE svg PUBLIC "-//W3C//DTD SVG 1.1//EN" "http://www.w3.org/Graphics/SVG/1.1/DTD/svg11.dtd">
<svg xmlns="http://www.w3.org/2000/svg" version="1.1" viewBox="0 0 64 64">
<path fill="#f14405" d="
  M 29.06 0.00
  Q 32.19 0.00 35.31 0.00
  Q 44.54 0.87 52.74 5.08
  C 53.04 5.23 53.24 5.50 53.29 5.80
  Q 53.61 7.64 52.00 7.79
  Q 51.26 7.86 50.09 7.32
  Q 31.47 -1.14 12.95 7.78
  C 12.64 7.93 12.31 7.96 12.01 7.86
  Q 10.07 7.23 10.96 5.64
  Q 11.39 4.88 12.49 4.38
  Q 20.37 0.76 29.06 0.00
  Z"
/>
<path fill="#f14405" d="
  M 2.03 24.02
  C 1.47 23.62 1.35 22.85 1.75 22.30
  Q 9.42 11.84 22.50 9.00
  Q 33.66 6.58 43.35 9.31
  Q 54.96 12.58 62.20 22.10
  C 62.41 22.38 62.50 22.70 62.47 23.00
  Q 62.28 24.78 60.74 24.49
  Q 59.96 24.35 59.20 23.44
  Q 51.22 13.90 39.00 11.75
  Q 18.59 8.15 5.12 23.18
  Q 4.04 24.39 3.98 24.42
  Q 3.21 24.87 2.03 24.02
  Z"
/>
<path fill="#f14405" d="
  M 42.69 64.00
  Q 41.94 64.00 41.19 64.00
  Q 30.45 61.11 24.81 52.44
  Q 21.97 48.06 21.54 42.51
  Q 21.23 38.55 22.95 35.82
  Q 25.07 32.44 28.92 31.54
  Q 33.41 30.48 37.41 32.48
  Q 41.91 34.73 42.50 40.50
  Q 42.88 44.16 45.62 45.59
  Q 50.83 48.32 54.69 44.69
  Q 56.55 42.94 56.55 40.27
  Q 56.55 38.73 55.79 35.76
  Q 53.72 27.57 46.30 22.96
  Q 38.95 18.38 30.89 18.71
  Q 23.21 19.03 16.51 23.67
  Q 3.32 32.80 9.39 50.97
  Q 9.81 52.23 9.59 53.07
  Q 9.15 54.77 7.59 53.95
  Q 6.85 53.56 6.45 52.59
  Q 4.24 47.28 4.06 41.94
  Q 3.63 28.41 14.85 20.90
  Q 28.24 11.93 43.45 17.87
  Q 55.08 22.41 58.99 34.25
  Q 60.14 37.71 59.71 41.14
  Q 59.27 44.67 56.82 47.08
  Q 52.63 51.19 46.50 49.50
  Q 39.68 47.62 39.00 41.25
  Q 38.64 37.90 36.73 36.11
  Q 35.03 34.53 31.89 34.44
  Q 26.33 34.29 25.24 39.36
  Q 24.57 42.51 25.97 46.53
  Q 29.58 56.86 40.63 60.31
  Q 40.70 60.33 41.89 60.62
  Q 44.73 61.29 42.69 64.00
  Z"
/>
<path fill="#f14405" d="
  M 23.64 62.98
  Q 12.94 54.10 12.75 40.25
  Q 12.70 36.81 14.45 33.46
  Q 15.97 30.56 18.74 28.12
  Q 26.21 21.58 36.25 23.75
  Q 48.74 26.45 51.38 39.64
  Q 51.80 41.76 49.66 42.09
  Q 47.64 42.40 47.53 39.76
  Q 47.36 36.01 45.41 33.11
  Q 43.74 30.60 40.36 28.70
  Q 31.13 23.48 21.94 29.69
  Q 15.89 33.76 16.25 42.00
  Q 16.66 51.55 23.96 58.84
  Q 24.01 58.89 24.98 59.70
  Q 26.25 60.75 25.89 62.23
  Q 25.36 64.41 23.64 62.98
  Z"
/>
<path fill="#f14405" d="
  M 45.56 53.94
  Q 48.06 54.51 52.50 53.83
  C 52.85 53.78 53.18 53.85 53.42 54.03
  Q 54.84 55.10 53.90 56.27
  Q 53.38 56.92 52.23 57.10
  Q 38.43 59.18 31.56 47.19
  Q 29.99 44.44 30.27 40.31
  C 30.30 39.96 30.43 39.65 30.65 39.44
  Q 31.72 38.42 32.72 39.27
  Q 33.27 39.73 33.42 40.84
  Q 34.85 51.49 45.56 53.94
  Z"
/>
</svg>
