<svg xmlns="http://www.w3.org/2000/svg" viewBox="0 0 152 152"><g fill="none" stroke-width="2"><path stroke="#458b80" d="M100.04 28.5q-.3-.62-1.04-.54" vector-effect="non-scaling-stroke"/><path stroke="#071626" d="M99 27.96q-.28-.95-1.75-.96-30.69-.17-61.38.21-4.14.05-6.14.84-2.98 1.18-5.16 3.77-3.26 3.89-3.09 8.45.12 2.92 2.96 7.87 31.77 55.42 41.31 71.11 2.41 3.96 7.05 5.16 4.21 1.1 8.16-.54 4.75-1.97 7.46-7.01c.42-.79.41-1.74-.03-2.52L70.24 82.68a.88.88 0 0 1 .01-.86l10.74-18.64q1.7-2.93-1.72-2.93H58.23c-.69 0-1.31-.35-1.63-.92l-5.21-9.07q-.41-.71.42-.7 16.53.06 31.94.14 2.55.01 4.96-.63c.3-.08.57-.28.74-.55q5.94-9.46 11.3-19.27.57-1.06-.71-.75" vector-effect="non-scaling-stroke"/><path stroke="#3f775e" d="M99 27.96q-31.25.47-62.5.31-4.66-.02-7.28 1.25-6.27 3.06-6.42 10.27-.07 2.86 1.69 6.06 1.4 2.54 3.95 6.96 18.45 32 37.1 63.89 6.45 11.04 17.9 4.74 1.73-.95 4.3-5.26a.83.83 0 0 0 0-.86L69.05 83.26c-.26-.44-.27-.97-.02-1.4l11.61-19.93q.39-.68-.38-.68H57.04c-.5 0-.96-.26-1.2-.68l-7.09-12.28" vector-effect="non-scaling-stroke"/><path stroke="#266a4d" d="M48.75 48.29q.23-.06.29-.29" vector-effect="non-scaling-stroke"/><path stroke="#3f775e" d="m49.04 48 38.48.24c.59.01 1.16-.33 1.48-.87l11.04-18.87" vector-effect="non-scaling-stroke"/><path stroke="#64dfa7" d="M49.04 48q-.83-.95.27-.94 18.97.31 37.69.19c.5 0 .96-.26 1.2-.67l8.55-14.72q1.22-2.09-1.25-2.12-29.27-.39-59.5-.01-.12.01-2.48-.12-2.75-.15-4.83 1.33-5.13 3.64-4.89 9.13.12 3.07 3.39 8.76 18.12 31.55 36.56 62.92 2.03 3.45 3.41 5.56 1.94 2.96 4.75 4.22 8.16 3.66 14.06-4.39c.56-.77.62-1.8.15-2.61L67.67 82.78a.98.98 0 0 1 .01-.99q4.28-7.1 8.51-13.92 1.26-2.04 1.79-4.26a.5.5 0 0 0-.47-.61l-19.03-.25q-2.38-.03-3.53-2-3.19-5.5-6.51-11.19-.6-1.02.31-1.27" vector-effect="non-scaling-stroke"/><path stroke="#071626" d="M94.43 103.12c.56.41 1.36.24 1.71-.36q16.27-27.77 32.43-55.49 5.38-9.22-1.82-16.52-5.17-5.24-12.33-2.97c-.31.1-.57.31-.74.59L82.69 81.69c-.33.56-.33 1.26-.01 1.84q5.21 9.08 9.98 17.52.77 1.35 1.77 2.07" vector-effect="non-scaling-stroke"/><path stroke="#3f775e" d="M111 75.17q8.49-14.53 16.81-29.16 4.01-7.07-1.01-13.31-4.46-5.54-11.5-4.23c-.31.06-.57.25-.74.52L83.69 82.27c-.14.25-.14.56.01.81l10.85 18.87q.44.78.89.01 7.93-13.74 15.56-26.79" vector-effect="non-scaling-stroke"/><path stroke="#64dfa7" d="M119.88 29.81q-1.86-.5-3.53.03-1.37.43-2.39 2.2-14.38 24.83-28.84 49.77c-.31.52-.31 1.17-.01 1.69l9.11 15.62a.9.9 0 0 0 1.55 0q14.59-24.63 28.95-50.05 3.44-6.09 3.54-9.28.2-5.91-5.86-9.42-.61-.35-1.26-.4-.88-.06-1.26-.16" vector-effect="non-scaling-stroke"/></g><path fill="#0d2a47" d="M56.81 0h38.25q12.43.21 24.69 2.27 16.42 2.77 24.41 15.35 4.17 6.58 6.15 17.98 1.69 9.7 1.44 19.15-.05 1.74.25 2.56v37.25q-.15 14.61-2.5 26.69-2.65 13.67-12.83 21.34-6.65 5.02-18.36 7.38-10.19 2.05-20.31 1.78-2.03-.05-3.06.25H57.19q-13.21-.15-26.18-2.56-18.36-3.41-25.72-20.35-3.14-7.23-3.97-15.1-.95-9-1.32-18.05V56.69q.37-11.43 1.5-20.44.95-7.55 4.52-15.09 5.27-11.13 16.04-15.85 5.02-2.19 12.19-3.56Q40.56.55 56.81 0m43.23 28.5q-.3-.62-1.04-.54-.28-.95-1.75-.96-30.69-.17-61.38.21-4.14.05-6.14.84-2.98 1.18-5.16 3.77-3.26 3.89-3.09 8.45.12 2.92 2.96 7.87 31.77 55.42 41.31 71.11 2.41 3.96 7.05 5.16 4.21 1.1 8.16-.54 4.75-1.97 7.46-7.01c.42-.79.41-1.74-.03-2.52L70.24 82.68a.88.88 0 0 1 .01-.86l10.74-18.64q1.7-2.93-1.72-2.93H58.23c-.69 0-1.31-.35-1.63-.92l-5.21-9.07q-.41-.71.42-.7 16.53.06 31.94.14 2.55.01 4.96-.63c.3-.08.57-.28.74-.55q5.94-9.46 11.3-19.27.57-1.06-.71-.75m-5.61 74.62c.56.41 1.36.24 1.71-.36q16.27-27.77 32.43-55.49 5.38-9.22-1.82-16.52-5.17-5.24-12.33-2.97c-.31.1-.57.31-.74.59L82.69 81.69c-.33.56-.33 1.26-.01 1.84q5.21 9.08 9.98 17.52.77 1.35 1.77 2.07"/><path fill="#010104" d="M99 27.96q-31.25.47-62.5.31-4.66-.02-7.28 1.25-6.27 3.06-6.42 10.27-.07 2.86 1.69 6.06 1.4 2.54 3.95 6.96 18.45 32 37.1 63.89 6.45 11.04 17.9 4.74 1.73-.95 4.3-5.26a.83.83 0 0 0 0-.86L69.05 83.26c-.26-.44-.27-.97-.02-1.4l11.61-19.93q.39-.68-.38-.68H57.04c-.5 0-.96-.26-1.2-.68l-7.09-12.28q.23-.06.29-.29l38.48.24c.59.01 1.16-.33 1.48-.87l11.04-18.87q1.28-.31.71.75-5.36 9.81-11.3 19.27c-.17.27-.44.47-.74.55q-2.41.64-4.96.63-15.41-.08-31.94-.14-.83-.01-.42.7l5.21 9.07c.32.57.94.92 1.63.92h21.04q3.42 0 1.72 2.93L70.25 81.82c-.15.27-.16.6-.01.86l18.15 31.66c.44.78.45 1.73.03 2.52q-2.71 5.04-7.46 7.01-3.95 1.64-8.16.54-4.64-1.2-7.05-5.16-9.54-15.69-41.31-71.11-2.84-4.95-2.96-7.87-.17-4.56 3.09-8.45 2.18-2.59 5.16-3.77 2-.79 6.14-.84 30.69-.38 61.38-.21 1.47.01 1.75.96"/><path fill="#010104" d="M94.43 103.12q-1-.72-1.77-2.07-4.77-8.44-9.98-17.52c-.32-.58-.32-1.28.01-1.84l30.99-53.32c.17-.28.43-.49.74-.59q7.16-2.27 12.33 2.97 7.2 7.3 1.82 16.52-16.16 27.72-32.43 55.49c-.35.6-1.15.77-1.71.36M111 75.17q8.49-14.53 16.81-29.16 4.01-7.07-1.01-13.31-4.46-5.54-11.5-4.23c-.31.06-.57.25-.74.52L83.69 82.27c-.14.25-.14.56.01.81l10.85 18.87q.44.78.89.01 7.93-13.74 15.56-26.79"/><path fill="#7decb8" d="M99 27.96q.74-.08 1.04.54L89 47.37c-.32.54-.89.88-1.48.87L49.04 48q-.83-.95.27-.94 18.97.31 37.69.19c.5 0 .96-.26 1.2-.67l8.55-14.72q1.22-2.09-1.25-2.12-29.27-.39-59.5-.01-.12.01-2.48-.12-2.75-.15-4.83 1.33-5.13 3.64-4.89 9.13.12 3.07 3.39 8.76 18.12 31.55 36.56 62.92 2.03 3.45 3.41 5.56 1.94 2.96 4.75 4.22 8.16 3.66 14.06-4.39c.56-.77.62-1.8.15-2.61L67.67 82.78a.98.98 0 0 1 .01-.99q4.28-7.1 8.51-13.92 1.26-2.04 1.79-4.26a.5.5 0 0 0-.47-.61l-19.03-.25q-2.38-.03-3.53-2-3.19-5.5-6.51-11.19-.6-1.02.31-1.27l7.09 12.28c.24.42.7.68 1.2.68h23.22q.77 0 .38.68L69.03 81.86c-.25.43-.24.96.02 1.4l18.69 32.06c.16.26.16.6 0 .86q-2.57 4.31-4.3 5.26-11.45 6.3-17.9-4.74-18.65-31.89-37.1-63.89-2.55-4.42-3.95-6.96-1.76-3.2-1.69-6.06.15-7.21 6.42-10.27 2.62-1.27 7.28-1.25 31.25.16 62.5-.31"/><path fill="#7decb8" d="M111 75.17q-7.63 13.05-15.56 26.79-.45.77-.89-.01L83.7 83.08a.81.81 0 0 1-.01-.81l30.87-53.28c.17-.27.43-.46.74-.52q7.04-1.31 11.5 4.23 5.02 6.24 1.01 13.31-8.32 14.63-16.81 29.16m8.88-45.36q-1.86-.5-3.53.03-1.37.43-2.39 2.2-14.38 24.83-28.84 49.77c-.31.52-.31 1.17-.01 1.69l9.11 15.62a.9.9 0 0 0 1.55 0q14.59-24.63 28.95-50.05 3.44-6.09 3.54-9.28.2-5.91-5.86-9.42-.61-.35-1.26-.4-.88-.06-1.26-.16"/><path fill="#4ad295" d="M49.04 48q-.06.23-.29.29-.91.25-.31 1.27 3.32 5.69 6.51 11.19 1.15 1.97 3.53 2l19.03.25c.31.01.54.3.47.61q-.53 2.22-1.79 4.26-4.23 6.82-8.51 13.92c-.18.3-.19.68-.01.99l18.45 31.75c.47.81.41 1.84-.15 2.61q-5.9 8.05-14.06 4.39-2.81-1.26-4.75-4.22-1.38-2.11-3.41-5.56-18.44-31.37-36.56-62.92-3.27-5.69-3.39-8.76-.24-5.49 4.89-9.13 2.08-1.48 4.83-1.33 2.36.13 2.48.12 30.23-.38 59.5.01 2.47.03 1.25 2.12L88.2 46.58c-.24.41-.7.67-1.2.67q-18.72.12-37.69-.19-1.1-.01-.27.94"/><path fill="#4ad295" d="M121.14 29.97q.65.05 1.26.4 6.06 3.51 5.86 9.42-.1 3.19-3.54 9.28-14.36 25.42-28.95 50.05a.9.9 0 0 1-1.55 0L85.11 83.5c-.3-.52-.3-1.17.01-1.69q14.46-24.94 28.84-49.77 1.02-1.77 2.39-2.2 1.67-.53 3.53-.03.38.1 1.26.16"/></svg>