<?xml version="1.0" encoding="UTF-8" standalone="no"?>
<!DOCTYPE svg PUBLIC "-//W3C//DTD SVG 1.1//EN" "http://www.w3.org/Graphics/SVG/1.1/DTD/svg11.dtd">
<svg xmlns="http://www.w3.org/2000/svg" version="1.1" viewBox="0 0 152 152">
<g stroke-width="2.0" fill="none" stroke-linecap="butt">
<path stroke="#458b80" vector-effect="non-scaling-stroke" d="
  M 100.04 28.50
  Q 99.74 27.88 99.00 27.96"
/>
<path stroke="#071626" vector-effect="non-scaling-stroke" d="
  M 99.00 27.96
  Q 98.72 27.01 97.25 27.00
  Q 66.56 26.83 35.87 27.21
  Q 31.73 27.26 29.73 28.05
  Q 26.75 29.23 24.57 31.82
  Q 21.31 35.71 21.48 40.27
  Q 21.60 43.19 24.44 48.14
  Q 56.21 103.56 65.75 119.25
  Q 68.16 123.21 72.80 124.41
  Q 77.01 125.51 80.96 123.87
  Q 85.71 121.90 88.42 116.86
  C 88.84 116.07 88.83 115.12 88.39 114.34
  L 70.24 82.68
  C 70.09 82.42 70.10 82.09 70.25 81.82
  L 80.99 63.18
  Q 82.69 60.25 79.27 60.25
  L 58.23 60.25
  C 57.54 60.25 56.92 59.90 56.60 59.33
  L 51.39 50.26
  Q 50.98 49.55 51.81 49.56
  Q 68.34 49.62 83.75 49.70
  Q 86.30 49.71 88.71 49.07
  C 89.01 48.99 89.28 48.79 89.45 48.52
  Q 95.39 39.06 100.75 29.25
  Q 101.32 28.19 100.04 28.50"
/>
<path stroke="#3f775e" vector-effect="non-scaling-stroke" d="
  M 99.00 27.96
  Q 67.75 28.43 36.50 28.27
  Q 31.84 28.25 29.22 29.52
  Q 22.95 32.58 22.80 39.79
  Q 22.73 42.65 24.49 45.85
  Q 25.89 48.39 28.44 52.81
  Q 46.89 84.81 65.54 116.70
  Q 71.99 127.74 83.44 121.44
  Q 85.17 120.49 87.74 116.18
  C 87.90 115.92 87.90 115.58 87.74 115.32
  L 69.05 83.26
  C 68.79 82.82 68.78 82.29 69.03 81.86
  L 80.64 61.93
  Q 81.03 61.25 80.26 61.25
  L 57.04 61.25
  C 56.54 61.25 56.08 60.99 55.84 60.57
  L 48.75 48.29"
/>
<path stroke="#266a4d" vector-effect="non-scaling-stroke" d="
  M 48.75 48.29
  Q 48.98 48.23 49.04 48.00"
/>
<path stroke="#3f775e" vector-effect="non-scaling-stroke" d="
  M 49.04 48.00
  L 87.52 48.24
  C 88.11 48.25 88.68 47.91 89.00 47.37
  L 100.04 28.50"
/>
<path stroke="#64dfa7" vector-effect="non-scaling-stroke" d="
  M 49.04 48.00
  Q 48.21 47.05 49.31 47.06
  Q 68.28 47.37 87.00 47.25
  C 87.50 47.25 87.96 46.99 88.20 46.58
  L 96.75 31.86
  Q 97.97 29.77 95.50 29.74
  Q 66.23 29.35 36.00 29.73
  Q 35.88 29.74 33.52 29.61
  Q 30.77 29.46 28.69 30.94
  Q 23.56 34.58 23.80 40.07
  Q 23.92 43.14 27.19 48.83
  Q 45.31 80.38 63.75 111.75
  Q 65.78 115.20 67.16 117.31
  Q 69.10 120.27 71.91 121.53
  Q 80.07 125.19 85.97 117.14
  C 86.53 116.37 86.59 115.34 86.12 114.53
  L 67.67 82.78
  C 67.49 82.47 67.50 82.09 67.68 81.79
  Q 71.96 74.69 76.19 67.87
  Q 77.45 65.83 77.98 63.61
  C 78.05 63.30 77.82 63.01 77.51 63.00
  L 58.48 62.75
  Q 56.10 62.72 54.95 60.75
  Q 51.76 55.25 48.44 49.56
  Q 47.84 48.54 48.75 48.29"
/>
<path stroke="#071626" vector-effect="non-scaling-stroke" d="
  M 94.43 103.12
  C 94.99 103.53 95.79 103.36 96.14 102.76
  Q 112.41 74.99 128.57 47.27
  Q 133.95 38.05 126.75 30.75
  Q 121.58 25.51 114.42 27.78
  C 114.11 27.88 113.85 28.09 113.68 28.37
  L 82.69 81.69
  C 82.36 82.25 82.36 82.95 82.68 83.53
  Q 87.89 92.61 92.66 101.05
  Q 93.43 102.40 94.43 103.12"
/>
<path stroke="#3f775e" vector-effect="non-scaling-stroke" d="
  M 111.00 75.17
  Q 119.49 60.64 127.81 46.01
  Q 131.82 38.94 126.80 32.70
  Q 122.34 27.16 115.30 28.47
  C 114.99 28.53 114.73 28.72 114.56 28.99
  L 83.69 82.27
  C 83.55 82.52 83.55 82.83 83.70 83.08
  L 94.55 101.95
  Q 94.99 102.73 95.44 101.96
  Q 103.37 88.22 111.00 75.17"
/>
<path stroke="#64dfa7" vector-effect="non-scaling-stroke" d="
  M 119.88 29.81
  Q 118.02 29.31 116.35 29.84
  Q 114.98 30.27 113.96 32.04
  Q 99.58 56.87 85.12 81.81
  C 84.81 82.33 84.81 82.98 85.11 83.50
  L 94.22 99.12
  C 94.57 99.71 95.42 99.71 95.77 99.12
  Q 110.36 74.49 124.72 49.07
  Q 128.16 42.98 128.26 39.79
  Q 128.46 33.88 122.40 30.37
  Q 121.79 30.02 121.14 29.97
  Q 120.26 29.91 119.88 29.81"
/>
</g>
<path fill="#0d2a47" d="
  M 56.81 0.00
  Q 75.94 0.00 95.06 0.00
  Q 107.49 0.21 119.75 2.27
  Q 136.17 5.04 144.16 17.62
  Q 148.33 24.20 150.31 35.60
  Q 152.00 45.30 151.75 54.75
  Q 151.70 56.49 152.00 57.31
  Q 152.00 75.94 152.00 94.56
  Q 151.85 109.17 149.50 121.25
  Q 146.85 134.92 136.67 142.59
  Q 130.02 147.61 118.31 149.97
  Q 108.12 152.02 98.00 151.75
  Q 95.97 151.70 94.94 152.00
  Q 76.06 152.00 57.19 152.00
  Q 43.98 151.85 31.01 149.44
  Q 12.65 146.03 5.29 129.09
  Q 2.15 121.86 1.32 113.99
  Q 0.37 104.99 0.00 95.94
  Q 0.00 76.31 0.00 56.69
  Q 0.37 45.26 1.50 36.25
  Q 2.45 28.70 6.02 21.16
  Q 11.29 10.03 22.06 5.31
  Q 27.08 3.12 34.25 1.75
  Q 40.56 0.55 56.81 0.00
  Z
  M 100.04 28.50
  Q 99.74 27.88 99.00 27.96
  Q 98.72 27.01 97.25 27.00
  Q 66.56 26.83 35.87 27.21
  Q 31.73 27.26 29.73 28.05
  Q 26.75 29.23 24.57 31.82
  Q 21.31 35.71 21.48 40.27
  Q 21.60 43.19 24.44 48.14
  Q 56.21 103.56 65.75 119.25
  Q 68.16 123.21 72.80 124.41
  Q 77.01 125.51 80.96 123.87
  Q 85.71 121.90 88.42 116.86
  C 88.84 116.07 88.83 115.12 88.39 114.34
  L 70.24 82.68
  C 70.09 82.42 70.10 82.09 70.25 81.82
  L 80.99 63.18
  Q 82.69 60.25 79.27 60.25
  L 58.23 60.25
  C 57.54 60.25 56.92 59.90 56.60 59.33
  L 51.39 50.26
  Q 50.98 49.55 51.81 49.56
  Q 68.34 49.62 83.75 49.70
  Q 86.30 49.71 88.71 49.07
  C 89.01 48.99 89.28 48.79 89.45 48.52
  Q 95.39 39.06 100.75 29.25
  Q 101.32 28.19 100.04 28.50
  Z
  M 94.43 103.12
  C 94.99 103.53 95.79 103.36 96.14 102.76
  Q 112.41 74.99 128.57 47.27
  Q 133.95 38.05 126.75 30.75
  Q 121.58 25.51 114.42 27.78
  C 114.11 27.88 113.85 28.09 113.68 28.37
  L 82.69 81.69
  C 82.36 82.25 82.36 82.95 82.68 83.53
  Q 87.89 92.61 92.66 101.05
  Q 93.43 102.40 94.43 103.12
  Z"
/>
<path fill="#010104" d="
  M 99.00 27.96
  Q 67.75 28.43 36.50 28.27
  Q 31.84 28.25 29.22 29.52
  Q 22.95 32.58 22.80 39.79
  Q 22.73 42.65 24.49 45.85
  Q 25.89 48.39 28.44 52.81
  Q 46.89 84.81 65.54 116.70
  Q 71.99 127.74 83.44 121.44
  Q 85.17 120.49 87.74 116.18
  C 87.90 115.92 87.90 115.58 87.74 115.32
  L 69.05 83.26
  C 68.79 82.82 68.78 82.29 69.03 81.86
  L 80.64 61.93
  Q 81.03 61.25 80.26 61.25
  L 57.04 61.25
  C 56.54 61.25 56.08 60.99 55.84 60.57
  L 48.75 48.29
  Q 48.98 48.23 49.04 48.00
  L 87.52 48.24
  C 88.11 48.25 88.68 47.91 89.00 47.37
  L 100.04 28.50
  Q 101.32 28.19 100.75 29.25
  Q 95.39 39.06 89.45 48.52
  C 89.28 48.79 89.01 48.99 88.71 49.07
  Q 86.30 49.71 83.75 49.70
  Q 68.34 49.62 51.81 49.56
  Q 50.98 49.55 51.39 50.26
  L 56.60 59.33
  C 56.92 59.90 57.54 60.25 58.23 60.25
  L 79.27 60.25
  Q 82.69 60.25 80.99 63.18
  L 70.25 81.82
  C 70.10 82.09 70.09 82.42 70.24 82.68
  L 88.39 114.34
  C 88.83 115.12 88.84 116.07 88.42 116.86
  Q 85.71 121.90 80.96 123.87
  Q 77.01 125.51 72.80 124.41
  Q 68.16 123.21 65.75 119.25
  Q 56.21 103.56 24.44 48.14
  Q 21.60 43.19 21.48 40.27
  Q 21.31 35.71 24.57 31.82
  Q 26.75 29.23 29.73 28.05
  Q 31.73 27.26 35.87 27.21
  Q 66.56 26.83 97.25 27.00
  Q 98.72 27.01 99.00 27.96
  Z"
/>
<path fill="#010104" d="
  M 94.43 103.12
  Q 93.43 102.40 92.66 101.05
  Q 87.89 92.61 82.68 83.53
  C 82.36 82.95 82.36 82.25 82.69 81.69
  L 113.68 28.37
  C 113.85 28.09 114.11 27.88 114.42 27.78
  Q 121.58 25.51 126.75 30.75
  Q 133.95 38.05 128.57 47.27
  Q 112.41 74.99 96.14 102.76
  C 95.79 103.36 94.99 103.53 94.43 103.12
  Z
  M 111.00 75.17
  Q 119.49 60.64 127.81 46.01
  Q 131.82 38.94 126.80 32.70
  Q 122.34 27.16 115.30 28.47
  C 114.99 28.53 114.73 28.72 114.56 28.99
  L 83.69 82.27
  C 83.55 82.52 83.55 82.83 83.70 83.08
  L 94.55 101.95
  Q 94.99 102.73 95.44 101.96
  Q 103.37 88.22 111.00 75.17
  Z"
/>
<path fill="#7decb8" d="
  M 99.00 27.96
  Q 99.74 27.88 100.04 28.50
  L 89.00 47.37
  C 88.68 47.91 88.11 48.25 87.52 48.24
  L 49.04 48.00
  Q 48.21 47.05 49.31 47.06
  Q 68.28 47.37 87.00 47.25
  C 87.50 47.25 87.96 46.99 88.20 46.58
  L 96.75 31.86
  Q 97.97 29.77 95.50 29.74
  Q 66.23 29.35 36.00 29.73
  Q 35.88 29.74 33.52 29.61
  Q 30.77 29.46 28.69 30.94
  Q 23.56 34.58 23.80 40.07
  Q 23.92 43.14 27.19 48.83
  Q 45.31 80.38 63.75 111.75
  Q 65.78 115.20 67.16 117.31
  Q 69.10 120.27 71.91 121.53
  Q 80.07 125.19 85.97 117.14
  C 86.53 116.37 86.59 115.34 86.12 114.53
  L 67.67 82.78
  C 67.49 82.47 67.50 82.09 67.68 81.79
  Q 71.96 74.69 76.19 67.87
  Q 77.45 65.83 77.98 63.61
  C 78.05 63.30 77.82 63.01 77.51 63.00
  L 58.48 62.75
  Q 56.10 62.72 54.95 60.75
  Q 51.76 55.25 48.44 49.56
  Q 47.84 48.54 48.75 48.29
  L 55.84 60.57
  C 56.08 60.99 56.54 61.25 57.04 61.25
  L 80.26 61.25
  Q 81.03 61.25 80.64 61.93
  L 69.03 81.86
  C 68.78 82.29 68.79 82.82 69.05 83.26
  L 87.74 115.32
  C 87.90 115.58 87.90 115.92 87.74 116.18
  Q 85.17 120.49 83.44 121.44
  Q 71.99 127.74 65.54 116.70
  Q 46.89 84.81 28.44 52.81
  Q 25.89 48.39 24.49 45.85
  Q 22.73 42.65 22.80 39.79
  Q 22.95 32.58 29.22 29.52
  Q 31.84 28.25 36.50 28.27
  Q 67.75 28.43 99.00 27.96
  Z"
/>
<path fill="#7decb8" d="
  M 111.00 75.17
  Q 103.37 88.22 95.44 101.96
  Q 94.99 102.73 94.55 101.95
  L 83.70 83.08
  C 83.55 82.83 83.55 82.52 83.69 82.27
  L 114.56 28.99
  C 114.73 28.72 114.99 28.53 115.30 28.47
  Q 122.34 27.16 126.80 32.70
  Q 131.82 38.94 127.81 46.01
  Q 119.49 60.64 111.00 75.17
  Z
  M 119.88 29.81
  Q 118.02 29.31 116.35 29.84
  Q 114.98 30.27 113.96 32.04
  Q 99.58 56.87 85.12 81.81
  C 84.81 82.33 84.81 82.98 85.11 83.50
  L 94.22 99.12
  C 94.57 99.71 95.42 99.71 95.77 99.12
  Q 110.36 74.49 124.72 49.07
  Q 128.16 42.98 128.26 39.79
  Q 128.46 33.88 122.40 30.37
  Q 121.79 30.02 121.14 29.97
  Q 120.26 29.91 119.88 29.81
  Z"
/>
<path fill="#4ad295" d="
  M 49.04 48.00
  Q 48.98 48.23 48.75 48.29
  Q 47.84 48.54 48.44 49.56
  Q 51.76 55.25 54.95 60.75
  Q 56.10 62.72 58.48 62.75
  L 77.51 63.00
  C 77.82 63.01 78.05 63.30 77.98 63.61
  Q 77.45 65.83 76.19 67.87
  Q 71.96 74.69 67.68 81.79
  C 67.50 82.09 67.49 82.47 67.67 82.78
  L 86.12 114.53
  C 86.59 115.34 86.53 116.37 85.97 117.14
  Q 80.07 125.19 71.91 121.53
  Q 69.10 120.27 67.16 117.31
  Q 65.78 115.20 63.75 111.75
  Q 45.31 80.38 27.19 48.83
  Q 23.92 43.14 23.80 40.07
  Q 23.56 34.58 28.69 30.94
  Q 30.77 29.46 33.52 29.61
  Q 35.88 29.74 36.00 29.73
  Q 66.23 29.35 95.50 29.74
  Q 97.97 29.77 96.75 31.86
  L 88.20 46.58
  C 87.96 46.99 87.50 47.25 87.00 47.25
  Q 68.28 47.37 49.31 47.06
  Q 48.21 47.05 49.04 48.00
  Z"
/>
<path fill="#4ad295" d="
  M 121.14 29.97
  Q 121.79 30.02 122.40 30.37
  Q 128.46 33.88 128.26 39.79
  Q 128.16 42.98 124.72 49.07
  Q 110.36 74.49 95.77 99.12
  C 95.42 99.71 94.57 99.71 94.22 99.12
  L 85.11 83.50
  C 84.81 82.98 84.81 82.33 85.12 81.81
  Q 99.58 56.87 113.96 32.04
  Q 114.98 30.27 116.35 29.84
  Q 118.02 29.31 119.88 29.81
  Q 120.26 29.91 121.14 29.97
  Z"
/>
</svg>
