<svg xmlns="http://www.w3.org/2000/svg" version="1.1" id="svg8" x="0" y="0" width="180" height="180" style="enable-background:new 0 0 180 180" xml:space="preserve"><style type="text/css" id="style1580"></style><path id="rect1582" style="fill:#d44d3b" d="M-5.1-5.5h189.8V184H-5.1z"/><path d="M109.208 41.735a7.892 7.892 0 0 1 6.927 4.116l.408.87 42.166 106.504h2.352a7.892 7.892 0 0 1 7.892 7.891 7.894 7.894 0 0 1-6.972 7.84l-.92.056-23.744-.002a7.891 7.891 0 0 1-.92-15.73l.92-.054h4.416l-6.322-15.968h-52.5l-6.34 15.968h5.504a7.892 7.892 0 0 1 .92 15.73l-.92.056H58.4a7.892 7.892 0 0 1-.92-15.73l.92-.053h1.19l42.28-106.51a7.892 7.892 0 0 1 7.338-4.98zm-.013 29.306-20.02 50.431h39.987zM50.513 10.988a7.892 7.892 0 0 1 7.416 5.195L80.671 78.73l-8.766 22.082-3.965-10.906H33.079l-6.721 18.48a7.892 7.892 0 0 1-14.833-5.394l31.57-86.81a7.892 7.892 0 0 1 7.418-5.194zm-.001 30.985-11.693 32.15h23.382z" id="🎨-Color" style="fill:#fff;stroke-width:7.89177"/></svg>