<?xml version="1.0" encoding="UTF-8" standalone="no"?>
<!DOCTYPE svg PUBLIC "-//W3C//DTD SVG 1.1//EN" "http://www.w3.org/Graphics/SVG/1.1/DTD/svg11.dtd">
<svg xmlns="http://www.w3.org/2000/svg" version="1.1" viewBox="0 0 256 256">
<g stroke-width="2.0" fill="none" stroke-linecap="butt">
<path stroke="#fffeff" stroke-opacity="0.996" vector-effect="non-scaling-stroke" d="
  M 241.19 256.00
  Q 241.54 255.74 241.40 255.59
  Q 241.32 255.50 241.09 255.50
  Q 129.54 255.50 18.00 255.50
  Q 15.46 255.50 14.25 255.79"
/>
<path stroke="#fffeff" stroke-opacity="0.996" vector-effect="non-scaling-stroke" d="
  M 17.06 0.31
  Q 127.53 0.64 238.00 0.43
  Q 242.15 0.42 238.50 0.41
  Q 127.78 0.20 17.06 0.31
  Q 16.56 0.31 17.06 0.31"
/>
<path stroke="#939393" vector-effect="non-scaling-stroke" d="
  M 162.51 76.94
  Q 160.38 58.49 147.44 46.06
  Q 134.94 34.07 118.25 32.37
  Q 108.17 31.35 98.47 34.26
  Q 86.10 37.97 77.19 47.22
  Q 70.27 54.39 66.65 63.50
  Q 63.01 72.70 63.00 82.98
  C 63.00 83.23 62.81 83.44 62.56 83.46
  Q 46.18 84.75 35.75 96.50
  Q 28.94 104.18 27.12 114.20
  Q 25.37 123.84 28.37 133.15
  Q 32.44 145.79 44.50 153.77
  C 44.84 153.99 45.30 153.87 45.50 153.51
  L 48.28 148.38
  C 48.47 148.03 48.36 147.60 48.04 147.38
  Q 38.71 141.20 35.42 131.44
  Q 32.62 123.12 34.54 114.42
  Q 36.53 105.39 43.50 99.00
  Q 51.85 91.34 63.25 90.78
  Q 66.63 90.61 70.01 90.50
  C 70.28 90.49 70.50 90.26 70.50 89.99
  Q 70.50 87.25 70.40 84.50
  Q 69.85 69.35 77.85 57.92
  Q 83.62 49.68 92.57 44.66
  Q 102.98 38.81 115.07 39.49
  Q 125.13 40.06 134.05 45.13
  Q 150.27 54.34 154.53 73.64
  Q 155.09 76.18 155.53 81.42
  Q 155.84 85.18 156.34 89.23
  C 156.37 89.47 156.64 89.61 156.85 89.49
  Q 162.15 86.40 167.17 83.78
  Q 183.80 75.11 199.25 81.63
  Q 208.43 85.50 214.78 93.85
  Q 225.25 107.61 221.01 124.77
  Q 218.34 135.58 212.06 142.42
  Q 203.27 151.99 188.56 152.31
  C 188.30 152.31 188.11 152.57 188.22 152.78
  L 191.29 159.02
  C 191.42 159.28 191.72 159.43 192.06 159.39
  Q 214.80 157.09 224.71 136.64
  Q 232.81 119.91 227.75 103.25
  Q 223.00 87.64 209.78 78.95
  Q 201.24 73.35 191.23 71.97
  Q 176.69 69.96 163.00 77.20
  C 162.79 77.31 162.54 77.18 162.51 76.94"
/>
<path stroke="#939393" vector-effect="non-scaling-stroke" d="
  M 120.54 111.22
  Q 114.96 107.11 108.08 108.64
  Q 101.83 110.03 98.32 115.32
  Q 96.56 117.97 98.07 120.70
  Q 99.40 123.10 101.75 121.70
  Q 102.96 120.99 104.07 119.50
  Q 105.42 117.69 106.12 117.13
  Q 110.98 113.22 116.31 116.69
  Q 120.91 119.68 120.22 124.53
  Q 119.67 128.40 116.83 130.58
  Q 113.97 132.77 109.50 132.50
  Q 101.75 132.03 64.00 132.74
  C 63.66 132.75 63.35 132.86 63.11 133.06
  Q 59.87 135.69 62.04 137.96
  Q 63.27 139.25 65.90 139.26
  Q 87.21 139.40 108.53 139.08
  Q 115.09 138.98 118.25 137.54
  Q 123.31 135.23 125.57 130.18
  Q 127.79 125.20 126.62 120.13
  Q 125.39 114.79 120.54 111.22"
/>
<path stroke="#939393" vector-effect="non-scaling-stroke" d="
  M 171.06 124.19
  Q 162.61 117.89 153.19 121.69
  Q 149.36 123.24 146.68 125.93
  Q 143.73 128.90 142.50 132.75
  Q 141.60 135.55 143.48 137.33
  Q 144.76 138.55 146.31 138.19
  Q 148.04 137.78 148.70 135.73
  Q 150.09 131.43 153.49 129.15
  Q 156.74 126.98 160.89 127.28
  Q 167.08 127.75 170.31 133.88
  Q 172.11 137.29 171.50 140.25
  Q 169.55 149.77 159.25 149.81
  Q 112.37 150.00 65.50 150.04
  Q 62.52 150.04 61.50 152.75
  Q 60.06 156.57 63.69 156.56
  Q 108.14 156.41 152.59 156.27
  Q 161.93 156.24 163.88 155.86
  Q 170.15 154.66 174.02 149.92
  Q 178.56 144.36 178.25 137.10
  Q 177.91 129.29 171.06 124.19"
/>
<path stroke="#939393" vector-effect="non-scaling-stroke" d="
  M 72.9978 178.2268
  C 73.98 176.54 73.40 174.38 71.7141 173.4025
  L 71.5584 173.3122
  C 69.87 172.33 67.71 172.91 66.7341 174.5958
  L 56.1622 192.8332
  C 55.18 194.52 55.76 196.68 57.4459 197.6575
  L 57.6016 197.7478
  C 59.29 198.73 61.45 198.15 62.4259 196.4642
  L 72.9978 178.2268"
/>
<path stroke="#939393" vector-effect="non-scaling-stroke" d="
  M 132.8809 178.1851
  C 133.84 176.51 133.27 174.38 131.5951 173.4199
  L 131.3524 173.2803
  C 129.68 172.32 127.55 172.90 126.5872 174.5661
  L 116.0591 192.8749
  C 115.10 194.55 115.67 196.68 117.3449 197.6401
  L 117.5876 197.7797
  C 119.26 198.74 121.39 198.16 122.3528 196.4939
  L 132.8809 178.1851"
/>
<path stroke="#939393" vector-effect="non-scaling-stroke" d="
  M 192.7828 178.2181
  C 193.76 176.53 193.19 174.36 191.4955 173.3801
  L 191.3571 173.2999
  C 189.67 172.32 187.50 172.90 186.5191 174.5872
  L 175.9372 192.8419
  C 174.96 194.53 175.53 196.70 177.2245 197.6799
  L 177.3629 197.7601
  C 179.05 198.74 181.22 198.16 182.2009 196.4728
  L 192.7828 178.2181"
/>
<path stroke="#939393" vector-effect="non-scaling-stroke" d="
  M 93.5378 203.8768
  C 94.52 202.19 93.94 200.02 92.2505 199.0388
  L 92.1121 198.9585
  C 90.42 197.98 88.25 198.55 87.2741 200.2458
  L 76.7022 218.4832
  C 75.72 220.17 76.30 222.34 77.9895 223.3212
  L 78.1279 223.4015
  C 79.82 224.38 81.99 223.81 82.9659 222.1142
  L 93.5378 203.8768"
/>
<path stroke="#939393" vector-effect="non-scaling-stroke" d="
  M 162.1722 203.8301
  C 163.14 202.14 162.56 199.98 160.8717 199.0103
  L 160.7157 198.9206
  C 159.03 197.95 156.87 198.53 155.8959 200.2210
  L 145.3678 218.5299
  C 144.40 220.22 144.98 222.38 146.6683 223.3497
  L 146.8243 223.4394
  C 148.51 224.41 150.67 223.83 151.6441 222.1390
  L 162.1722 203.8301"
/>
</g>
<path fill="#ffffff" d="
  M 14.31 0.00
  Q 128.06 0.00 241.81 0.00
  Q 253.59 2.31 256.00 14.06
  Q 256.00 127.81 256.00 241.56
  Q 253.86 253.76 241.69 256.00
  Q 241.44 256.00 241.19 256.00
  Q 241.54 255.74 241.40 255.59
  Q 241.32 255.50 241.09 255.50
  Q 129.54 255.50 18.00 255.50
  Q 15.46 255.50 14.25 255.79
  Q 2.15 253.79 0.00 241.69
  Q 0.00 127.94 0.00 14.19
  Q 2.31 2.22 14.31 0.00
  Z
  M 17.06 0.31
  Q 127.53 0.64 238.00 0.43
  Q 242.15 0.42 238.50 0.41
  Q 127.78 0.20 17.06 0.31
  Q 16.56 0.31 17.06 0.31
  Z
  M 162.51 76.94
  Q 160.38 58.49 147.44 46.06
  Q 134.94 34.07 118.25 32.37
  Q 108.17 31.35 98.47 34.26
  Q 86.10 37.97 77.19 47.22
  Q 70.27 54.39 66.65 63.50
  Q 63.01 72.70 63.00 82.98
  C 63.00 83.23 62.81 83.44 62.56 83.46
  Q 46.18 84.75 35.75 96.50
  Q 28.94 104.18 27.12 114.20
  Q 25.37 123.84 28.37 133.15
  Q 32.44 145.79 44.50 153.77
  C 44.84 153.99 45.30 153.87 45.50 153.51
  L 48.28 148.38
  C 48.47 148.03 48.36 147.60 48.04 147.38
  Q 38.71 141.20 35.42 131.44
  Q 32.62 123.12 34.54 114.42
  Q 36.53 105.39 43.50 99.00
  Q 51.85 91.34 63.25 90.78
  Q 66.63 90.61 70.01 90.50
  C 70.28 90.49 70.50 90.26 70.50 89.99
  Q 70.50 87.25 70.40 84.50
  Q 69.85 69.35 77.85 57.92
  Q 83.62 49.68 92.57 44.66
  Q 102.98 38.81 115.07 39.49
  Q 125.13 40.06 134.05 45.13
  Q 150.27 54.34 154.53 73.64
  Q 155.09 76.18 155.53 81.42
  Q 155.84 85.18 156.34 89.23
  C 156.37 89.47 156.64 89.61 156.85 89.49
  Q 162.15 86.40 167.17 83.78
  Q 183.80 75.11 199.25 81.63
  Q 208.43 85.50 214.78 93.85
  Q 225.25 107.61 221.01 124.77
  Q 218.34 135.58 212.06 142.42
  Q 203.27 151.99 188.56 152.31
  C 188.30 152.31 188.11 152.57 188.22 152.78
  L 191.29 159.02
  C 191.42 159.28 191.72 159.43 192.06 159.39
  Q 214.80 157.09 224.71 136.64
  Q 232.81 119.91 227.75 103.25
  Q 223.00 87.64 209.78 78.95
  Q 201.24 73.35 191.23 71.97
  Q 176.69 69.96 163.00 77.20
  C 162.79 77.31 162.54 77.18 162.51 76.94
  Z
  M 120.54 111.22
  Q 114.96 107.11 108.08 108.64
  Q 101.83 110.03 98.32 115.32
  Q 96.56 117.97 98.07 120.70
  Q 99.40 123.10 101.75 121.70
  Q 102.96 120.99 104.07 119.50
  Q 105.42 117.69 106.12 117.13
  Q 110.98 113.22 116.31 116.69
  Q 120.91 119.68 120.22 124.53
  Q 119.67 128.40 116.83 130.58
  Q 113.97 132.77 109.50 132.50
  Q 101.75 132.03 64.00 132.74
  C 63.66 132.75 63.35 132.86 63.11 133.06
  Q 59.87 135.69 62.04 137.96
  Q 63.27 139.25 65.90 139.26
  Q 87.21 139.40 108.53 139.08
  Q 115.09 138.98 118.25 137.54
  Q 123.31 135.23 125.57 130.18
  Q 127.79 125.20 126.62 120.13
  Q 125.39 114.79 120.54 111.22
  Z
  M 171.06 124.19
  Q 162.61 117.89 153.19 121.69
  Q 149.36 123.24 146.68 125.93
  Q 143.73 128.90 142.50 132.75
  Q 141.60 135.55 143.48 137.33
  Q 144.76 138.55 146.31 138.19
  Q 148.04 137.78 148.70 135.73
  Q 150.09 131.43 153.49 129.15
  Q 156.74 126.98 160.89 127.28
  Q 167.08 127.75 170.31 133.88
  Q 172.11 137.29 171.50 140.25
  Q 169.55 149.77 159.25 149.81
  Q 112.37 150.00 65.50 150.04
  Q 62.52 150.04 61.50 152.75
  Q 60.06 156.57 63.69 156.56
  Q 108.14 156.41 152.59 156.27
  Q 161.93 156.24 163.88 155.86
  Q 170.15 154.66 174.02 149.92
  Q 178.56 144.36 178.25 137.10
  Q 177.91 129.29 171.06 124.19
  Z
  M 72.9978 178.2268
  C 73.98 176.54 73.40 174.38 71.7141 173.4025
  L 71.5584 173.3122
  C 69.87 172.33 67.71 172.91 66.7341 174.5958
  L 56.1622 192.8332
  C 55.18 194.52 55.76 196.68 57.4459 197.6575
  L 57.6016 197.7478
  C 59.29 198.73 61.45 198.15 62.4259 196.4642
  L 72.9978 178.2268
  Z
  M 132.8809 178.1851
  C 133.84 176.51 133.27 174.38 131.5951 173.4199
  L 131.3524 173.2803
  C 129.68 172.32 127.55 172.90 126.5872 174.5661
  L 116.0591 192.8749
  C 115.10 194.55 115.67 196.68 117.3449 197.6401
  L 117.5876 197.7797
  C 119.26 198.74 121.39 198.16 122.3528 196.4939
  L 132.8809 178.1851
  Z
  M 192.7828 178.2181
  C 193.76 176.53 193.19 174.36 191.4955 173.3801
  L 191.3571 173.2999
  C 189.67 172.32 187.50 172.90 186.5191 174.5872
  L 175.9372 192.8419
  C 174.96 194.53 175.53 196.70 177.2245 197.6799
  L 177.3629 197.7601
  C 179.05 198.74 181.22 198.16 182.2009 196.4728
  L 192.7828 178.2181
  Z
  M 93.5378 203.8768
  C 94.52 202.19 93.94 200.02 92.2505 199.0388
  L 92.1121 198.9585
  C 90.42 197.98 88.25 198.55 87.2741 200.2458
  L 76.7022 218.4832
  C 75.72 220.17 76.30 222.34 77.9895 223.3212
  L 78.1279 223.4015
  C 79.82 224.38 81.99 223.81 82.9659 222.1142
  L 93.5378 203.8768
  Z
  M 162.1722 203.8301
  C 163.14 202.14 162.56 199.98 160.8717 199.0103
  L 160.7157 198.9206
  C 159.03 197.95 156.87 198.53 155.8959 200.2210
  L 145.3678 218.5299
  C 144.40 220.22 144.98 222.38 146.6683 223.3497
  L 146.8243 223.4394
  C 148.51 224.41 150.67 223.83 151.6441 222.1390
  L 162.1722 203.8301
  Z"
/>
<path fill="#fefdfe" fill-opacity="0.988" d="
  M 17.06 0.31
  Q 127.78 0.20 238.50 0.41
  Q 242.15 0.42 238.00 0.43
  Q 127.53 0.64 17.06 0.31
  Q 16.56 0.31 17.06 0.31
  Z"
/>
<path fill="#262626" d="
  M 163.00 77.20
  Q 176.69 69.96 191.23 71.97
  Q 201.24 73.35 209.78 78.95
  Q 223.00 87.64 227.75 103.25
  Q 232.81 119.91 224.71 136.64
  Q 214.80 157.09 192.06 159.39
  C 191.72 159.43 191.42 159.28 191.29 159.02
  L 188.22 152.78
  C 188.11 152.57 188.30 152.31 188.56 152.31
  Q 203.27 151.99 212.06 142.42
  Q 218.34 135.58 221.01 124.77
  Q 225.25 107.61 214.78 93.85
  Q 208.43 85.50 199.25 81.63
  Q 183.80 75.11 167.17 83.78
  Q 162.15 86.40 156.85 89.49
  C 156.64 89.61 156.37 89.47 156.34 89.23
  Q 155.84 85.18 155.53 81.42
  Q 155.09 76.18 154.53 73.64
  Q 150.27 54.34 134.05 45.13
  Q 125.13 40.06 115.07 39.49
  Q 102.98 38.81 92.57 44.66
  Q 83.62 49.68 77.85 57.92
  Q 69.85 69.35 70.40 84.50
  Q 70.50 87.25 70.50 89.99
  C 70.50 90.26 70.28 90.49 70.01 90.50
  Q 66.63 90.61 63.25 90.78
  Q 51.85 91.34 43.50 99.00
  Q 36.53 105.39 34.54 114.42
  Q 32.62 123.12 35.42 131.44
  Q 38.71 141.20 48.04 147.38
  C 48.36 147.60 48.47 148.03 48.28 148.38
  L 45.50 153.51
  C 45.30 153.87 44.84 153.99 44.50 153.77
  Q 32.44 145.79 28.37 133.15
  Q 25.37 123.84 27.12 114.20
  Q 28.94 104.18 35.75 96.50
  Q 46.18 84.75 62.56 83.46
  C 62.81 83.44 63.00 83.23 63.00 82.98
  Q 63.01 72.70 66.65 63.50
  Q 70.27 54.39 77.19 47.22
  Q 86.10 37.97 98.47 34.26
  Q 108.17 31.35 118.25 32.37
  Q 134.94 34.07 147.44 46.06
  Q 160.38 58.49 162.51 76.94
  C 162.54 77.18 162.79 77.31 163.00 77.20
  Z"
/>
<path fill="#262626" d="
  M 120.54 111.22
  Q 125.39 114.79 126.62 120.13
  Q 127.79 125.20 125.57 130.18
  Q 123.31 135.23 118.25 137.54
  Q 115.09 138.98 108.53 139.08
  Q 87.21 139.40 65.90 139.26
  Q 63.27 139.25 62.04 137.96
  Q 59.87 135.69 63.11 133.06
  C 63.35 132.86 63.66 132.75 64.00 132.74
  Q 101.75 132.03 109.50 132.50
  Q 113.97 132.77 116.83 130.58
  Q 119.67 128.40 120.22 124.53
  Q 120.91 119.68 116.31 116.69
  Q 110.98 113.22 106.12 117.13
  Q 105.42 117.69 104.07 119.50
  Q 102.96 120.99 101.75 121.70
  Q 99.40 123.10 98.07 120.70
  Q 96.56 117.97 98.32 115.32
  Q 101.83 110.03 108.08 108.64
  Q 114.96 107.11 120.54 111.22
  Z"
/>
<path fill="#262626" d="
  M 171.06 124.19
  Q 177.91 129.29 178.25 137.10
  Q 178.56 144.36 174.02 149.92
  Q 170.15 154.66 163.88 155.86
  Q 161.93 156.24 152.59 156.27
  Q 108.14 156.41 63.69 156.56
  Q 60.06 156.57 61.50 152.75
  Q 62.52 150.04 65.50 150.04
  Q 112.37 150.00 159.25 149.81
  Q 169.55 149.77 171.50 140.25
  Q 172.11 137.29 170.31 133.88
  Q 167.08 127.75 160.89 127.28
  Q 156.74 126.98 153.49 129.15
  Q 150.09 131.43 148.70 135.73
  Q 148.04 137.78 146.31 138.19
  Q 144.76 138.55 143.48 137.33
  Q 141.60 135.55 142.50 132.75
  Q 143.73 128.90 146.68 125.93
  Q 149.36 123.24 153.19 121.69
  Q 162.61 117.89 171.06 124.19
  Z"
/>
<rect fill="#262626" x="-3.62" y="-14.07" transform="translate(64.58,185.53) rotate(30.1)" width="7.24" height="28.14" rx="3.53"/>
<rect fill="#262626" x="-3.63" y="-14.05" transform="translate(124.47,185.53) rotate(29.9)" width="7.26" height="28.10" rx="3.49"/>
<rect fill="#262626" x="-3.62" y="-14.09" transform="translate(184.36,185.53) rotate(30.1)" width="7.24" height="28.18" rx="3.54"/>
<rect fill="#262626" x="-3.62" y="-14.08" transform="translate(85.12,211.18) rotate(30.1)" width="7.24" height="28.16" rx="3.54"/>
<rect fill="#262626" x="-3.62" y="-14.09" transform="translate(153.77,211.18) rotate(29.9)" width="7.24" height="28.18" rx="3.53"/>
<path fill="#fefdfe" fill-opacity="0.988" d="
  M 241.19 256.00
  Q 127.69 256.00 14.19 256.00
  Q 14.22 255.90 14.25 255.79
  Q 15.46 255.50 18.00 255.50
  Q 129.54 255.50 241.09 255.50
  Q 241.32 255.50 241.40 255.59
  Q 241.54 255.74 241.19 256.00
  Z"
/>
</svg>
