<svg width="78" height="81" viewBox="0 0 78 81" fill="none" xmlns="http://www.w3.org/2000/svg">
<path d="M64.9908 4C62.8524 4 61.1129 5.73953 61.1129 7.87794C61.1129 9.05402 61.6504 10.096 62.4795 10.8079L56.5785 19.1129L4.95607 19.1147L4 20.009V71.8139L5.01778 72.8836H63.5706L64.3415 71.8139V22.803L63.5706 22.0848H8.12031L7.10253 22.803V68.9519L8.12031 70.0216H60.7086L61.4796 68.9519V26.0227L60.7086 25.3045H11.34L10.3231 26.0227V65.7314L11.34 66.8019H57.4898L58.2608 65.7314V28.8229L57.4898 28.1048H14.5096L13.4927 28.8229V62.8703L14.5096 63.94H23.0454L23.6947 63.5947L32.1374 54.6386H32.5676H51.3286H52.5378V53.0368V52.1335V50.6256V35.6433V35.5575V34.6059H51.3286H32.5667H31.0714V35.5575V35.6433V50.6265V52.1344V53.0377V53.2059L22.6608 62.1512H15.2814V29.8935H56.4721V65.0132H12.1118V27.0924H59.6917V68.2329H8.89214V23.8727H62.5537V71.0948H5.78961V20.9034L57.0096 20.9016L57.7993 20.5251L64.092 11.6396C64.3818 11.7094 64.6805 11.7559 64.9917 11.7559C67.131 11.7559 68.8706 10.0164 68.8706 7.87794C68.8706 5.73953 67.1301 4 64.9908 4ZM32.5032 35.6791H51.1059V50.7043H32.5032V35.6791ZM32.5667 52.1344H51.1059V53.2076H32.5032V52.1344H32.5667ZM64.9908 10.5315C63.5259 10.5315 62.3382 9.3438 62.3382 7.87794C62.3382 6.41298 63.5259 5.22438 64.9908 5.22438C66.4576 5.22438 67.6453 6.41298 67.6453 7.87794C67.6453 9.3429 66.4576 10.5315 64.9908 10.5315Z" fill="url(#paint0_linear_394_182)"/>
<defs>
<linearGradient id="paint0_linear_394_182" x1="4" y1="4" x2="68.8706" y2="4" gradientUnits="userSpaceOnUse">
<stop stop-color="#2D388A"/>
<stop offset="1" stop-color="#00AEEF"/>
</linearGradient>
</defs>
</svg>
