<?xml version="1.0" encoding="UTF-8" standalone="no"?>
<!DOCTYPE svg PUBLIC "-//W3C//DTD SVG 1.1//EN" "http://www.w3.org/Graphics/SVG/1.1/DTD/svg11.dtd">
<svg xmlns="http://www.w3.org/2000/svg" version="1.1" viewBox="0 0 512 512">
<g stroke-width="2.00" fill="none" stroke-linecap="butt">
<path stroke="#9147b6" vector-effect="non-scaling-stroke" d="
  M 318.75 36.71
  L 97.25 164.79"
/>
<path stroke="#7709fc" vector-effect="non-scaling-stroke" d="
  M 97.25 164.79
  L 35.90 129.13
  Q 35.46 128.88 35.35 128.38
  Q 35.24 127.86 34.75 127.71"
/>
<path stroke="#9147b6" vector-effect="non-scaling-stroke" d="
  M 160.75 310.71
  Q 130.08 328.60 99.31 346.31
  Q 98.23 346.94 97.54 347.00"
/>
<path stroke="#dd46b3" vector-effect="non-scaling-stroke" d="
  M 97.54 347.00
  C 97.12 344.46 97.46 341.48 97.47 339.54
  Q 97.62 265.92 97.37 192.31
  C 97.35 186.02 97.65 173.99 97.25 164.79"
/>
<path stroke="#9147b6" vector-effect="non-scaling-stroke" d="
  M 477.00 128.71
  C 476.35 128.23 274.60 245.13 255.75 256.04"
/>
<path stroke="#7709fc" vector-effect="non-scaling-stroke" d="
  M 255.75 256.04
  L 192.66 219.37"
/>
<path stroke="#7709fc" vector-effect="non-scaling-stroke" d="
  M 97.54 347.00
  L 97.72 347.41
  Q 97.84 347.70 98.12 347.86
  L 255.28 438.66
  Q 255.46 438.77 255.50 438.97
  Q 255.52 439.12 255.54 439.25"
/>
<path stroke="#dd46b3" vector-effect="non-scaling-stroke" d="
  M 255.54 439.25
  L 255.50 511.71"
/>
<path stroke="#9147b6" vector-effect="non-scaling-stroke" d="
  M 255.54 439.25
  Q 256.12 438.57 256.56 438.32
  Q 335.41 392.94 414.11 347.24"
/>
<path stroke="#dd46b3" vector-effect="non-scaling-stroke" d="
  M 414.11 347.24
  L 414.02 238.42
  A 0.35 0.35 0.0 0 0 413.49 238.12
  L 350.71 274.50"
/>
<path stroke="#dd46b3" vector-effect="non-scaling-stroke" d="
  M 255.96 328.99
  Q 255.99 328.18 255.75 327.67
  Q 255.53 327.21 255.54 326.71
  L 255.75 256.04"
/>
<path stroke="#7709fc" vector-effect="non-scaling-stroke" d="
  M 414.11 347.24
  L 350.75 310.71"
/>
</g>
<path fill="#2b0aff" d="
  M 255.31 0.00
  L 256.06 0.00
  Q 256.06 0.05 256.05 0.12
  Q 256.04 0.24 256.14 0.30
  L 318.75 36.71
  L 97.25 164.79
  L 35.90 129.13
  Q 35.46 128.88 35.35 128.38
  Q 35.24 127.86 34.75 127.71
  L 255.31 0.00
  Z"
/>
<path fill="#f6846d" d="
  M 318.75 36.71
  L 318.90 109.34
  Q 318.90 109.81 318.49 110.05
  L 161.21 200.88
  Q 160.75 201.14 160.75 201.67
  L 160.75 310.71
  Q 130.08 328.60 99.31 346.31
  Q 98.23 346.94 97.54 347.00
  C 97.12 344.46 97.46 341.48 97.47 339.54
  Q 97.62 265.92 97.37 192.31
  C 97.35 186.02 97.65 173.99 97.25 164.79
  L 318.75 36.71
  Z"
/>
<path fill="#2b0aff" d="
  M 477.00 128.71
  C 476.35 128.23 274.60 245.13 255.75 256.04
  L 192.66 219.37
  L 413.60 91.71
  Q 414.04 91.46 414.48 91.71
  Q 445.19 109.40 475.79 127.21
  Q 476.96 127.90 477.00 128.71
  Z"
/>
<path fill="#c307f9" d="
  M 34.75 127.71
  Q 35.24 127.86 35.35 128.38
  Q 35.46 128.88 35.90 129.13
  L 97.25 164.79
  C 97.65 173.99 97.35 186.02 97.37 192.31
  Q 97.62 265.92 97.47 339.54
  C 97.46 341.48 97.12 344.46 97.54 347.00
  L 97.72 347.41
  Q 97.84 347.70 98.12 347.86
  L 255.28 438.66
  Q 255.46 438.77 255.50 438.97
  Q 255.52 439.12 255.54 439.25
  L 255.50 511.71
  L 34.45 384.23
  Q 34.01 383.98 34.01 383.48
  Q 33.98 256.00 34.01 128.65
  C 34.01 128.19 34.29 127.77 34.75 127.71
  Z"
/>
<path fill="#f6846d" d="
  M 477.00 128.71
  Q 477.09 128.76 477.23 128.82
  Q 477.25 128.83 477.25 128.86
  Q 477.25 256.18 477.25 383.50
  Q 477.25 384.01 476.82 384.26
  Q 366.49 448.02 256.16 511.67
  C 255.93 511.80 255.73 511.76 255.50 511.71
  L 255.54 439.25
  Q 256.12 438.57 256.56 438.32
  Q 335.41 392.94 414.11 347.24
  L 414.02 238.42
  A 0.35 0.35 0.0 0 0 413.49 238.12
  L 350.71 274.50
  L 255.96 328.99
  Q 255.99 328.18 255.75 327.67
  Q 255.53 327.21 255.54 326.71
  L 255.75 256.04
  C 274.60 245.13 476.35 128.23 477.00 128.71
  Z"
/>
<path fill="#c307f9" d="
  M 192.66 219.37
  L 255.75 256.04
  L 255.54 326.71
  Q 255.53 327.21 255.75 327.67
  Q 255.99 328.18 255.96 328.99
  L 192.86 292.83
  Q 192.43 292.58 192.42 292.08
  Q 192.00 267.63 192.34 243.21
  C 192.43 237.48 191.99 227.35 192.66 219.37
  Z"
/>
<path fill="#c307f9" d="
  M 414.11 347.24
  L 350.75 310.71
  L 350.71 274.50
  L 413.49 238.12
  A 0.35 0.35 0.0 0 1 414.02 238.42
  L 414.11 347.24
  Z"
/>
<path fill="#2b0aff" d="
  M 160.75 310.71
  L 255.12 365.39
  Q 255.64 365.69 256.16 365.39
  L 350.75 310.71
  L 414.11 347.24
  Q 335.41 392.94 256.56 438.32
  Q 256.12 438.57 255.54 439.25
  Q 255.52 439.12 255.50 438.97
  Q 255.46 438.77 255.28 438.66
  L 98.12 347.86
  Q 97.84 347.70 97.72 347.41
  L 97.54 347.00
  Q 98.23 346.94 99.31 346.31
  Q 130.08 328.60 160.75 310.71
  Z"
/>
</svg>
