<?xml version="1.0" encoding="UTF-8" standalone="no"?>
<!DOCTYPE svg PUBLIC "-//W3C//DTD SVG 1.1//EN" "http://www.w3.org/Graphics/SVG/1.1/DTD/svg11.dtd">
<svg xmlns="http://www.w3.org/2000/svg" version="1.1" viewBox="0 0 512 512">
<g stroke-width="2.0" fill="none" stroke-linecap="butt">
<path stroke="#eae9ea" vector-effect="non-scaling-stroke" d="
  M 452.79 66.50
  Q 452.03 67.95 452.74 69.20
  Q 453.45 70.45 453.48 70.52
  Q 454.96 74.12 456.32 77.94
  Q 456.50 78.46 456.50 79.02
  Q 456.50 81.20 456.85 81.94
  Q 457.19 82.66 457.19 82.82
  Q 457.47 100.29 457.19 105.44
  Q 457.03 108.29 458.37 109.66
  C 458.59 109.89 458.71 110.19 458.70 110.50
  Q 458.68 111.28 458.96 112.00"
/>
<path stroke="#e9e9e9" stroke-opacity="0.545" vector-effect="non-scaling-stroke" d="
  M 458.96 112.00
  L 458.96 119.25"
/>
<path stroke="#fefdfd" stroke-opacity="0.992" vector-effect="non-scaling-stroke" d="
  M 458.96 119.25
  Q 458.25 119.58 458.25 120.50
  Q 458.25 258.12 458.25 395.75
  Q 458.25 397.48 457.00 399.81
  Q 456.75 400.27 456.76 400.75
  Q 456.88 409.28 457.23 417.81
  Q 457.51 424.93 456.81 432.02
  Q 456.72 432.93 456.17 434.24
  Q 455.72 435.34 455.54 436.50"
/>
<path stroke="#dadada" vector-effect="non-scaling-stroke" d="
  M 455.54 436.50
  Q 452.31 446.05 444.12 451.92
  Q 438.29 456.11 429.19 456.69
  Q 421.54 457.17 413.89 457.59
  Q 406.58 458.00 398.60 457.99
  Q 377.55 457.98 356.50 458.04"
/>
<path stroke="#bbc2b9" stroke-opacity="0.996" vector-effect="non-scaling-stroke" d="
  M 356.50 458.04
  Q 253.29 458.20 150.08 458.25
  Q 146.91 458.25 134.42 457.97
  Q 126.58 457.79 118.74 458.04
  Q 116.38 458.12 114.00 458.04"
/>
<path stroke="#dadada" vector-effect="non-scaling-stroke" d="
  M 114.00 458.04
  Q 106.75 458.12 105.25 458.00
  Q 94.39 457.11 86.11 457.15
  Q 80.20 457.18 77.00 456.26
  Q 66.80 453.35 61.00 445.00
  Q 57.90 440.53 55.75 439.04"
/>
<path stroke="#d8d8d8" stroke-opacity="0.588" vector-effect="non-scaling-stroke" d="
  M 55.75 439.04
  L 55.29 438.50"
/>
<path stroke="#e9e9e9" stroke-opacity="0.545" vector-effect="non-scaling-stroke" d="
  M 55.29 438.50
  Q 53.86 434.49 53.46 430.25"
/>
<path stroke="#f6f9f7" stroke-opacity="0.976" vector-effect="non-scaling-stroke" d="
  M 53.46 430.25
  L 53.46 81.75"
/>
<path stroke="#989f96" stroke-opacity="0.996" vector-effect="non-scaling-stroke" d="
  M 114.00 458.04
  Q 113.92 458.56 113.00 458.50
  Q 109.12 458.24 102.00 458.71"
/>
<path stroke="#636863" stroke-opacity="0.953" vector-effect="non-scaling-stroke" d="
  M 418.50 458.96
  L 361.50 458.54"
/>
<path stroke="#989f96" stroke-opacity="0.996" vector-effect="non-scaling-stroke" d="
  M 361.50 458.54
  Q 362.50 458.11 360.75 458.25
  Q 358.61 458.41 356.50 458.04"
/>
<path stroke="#c6c4c5" stroke-opacity="0.541" vector-effect="non-scaling-stroke" d="
  M 459.04 85.50
  L 458.96 112.00"
/>
<path stroke="#9b9c9c" stroke-opacity="0.584" vector-effect="non-scaling-stroke" d="
  M 55.75 439.04
  Q 57.07 443.12 60.56 447.19
  Q 69.50 457.60 82.34 458.67
  Q 83.64 458.78 92.16 458.91
  Q 97.08 458.98 102.00 458.71"
/>
<path stroke="#677264" stroke-opacity="0.584" vector-effect="non-scaling-stroke" d="
  M 102.00 458.71
  L 103.00 458.79"
/>
<path stroke="#9b9c9c" stroke-opacity="0.584" vector-effect="non-scaling-stroke" d="
  M 418.50 458.96
  Q 423.00 458.83 427.50 458.79
  Q 436.14 458.70 443.47 454.24
  Q 454.00 447.82 457.46 436.00"
/>
<path stroke="#dadada" stroke-opacity="0.988" vector-effect="non-scaling-stroke" d="
  M 457.46 436.00
  Q 456.43 435.93 455.54 436.50"
/>
<path stroke="#434f41" stroke-opacity="0.953" vector-effect="non-scaling-stroke" d="
  M 361.50 458.54
  Q 276.78 458.69 192.06 458.61
  Q 147.53 458.57 103.00 458.79"
/>
<path stroke="#fefdfd" stroke-opacity="0.992" vector-effect="non-scaling-stroke" d="
  M 87.06 53.31
  L 423.69 53.44
  Q 424.68 53.44 423.69 53.44
  Q 255.37 53.06 87.06 53.31
  Q 86.07 53.31 87.06 53.31"
/>
<path stroke="#7f7f7f" vector-effect="non-scaling-stroke" d="
  M 211.56 239.43
  L 211.50 148.81
  C 211.50 148.36 211.14 148.00 210.69 148.00
  L 146.06 148.06
  C 145.78 148.06 145.56 148.28 145.56 148.56
  L 145.56 173.69
  C 145.56 173.96 145.78 174.18 146.06 174.19
  L 171.31 174.43
  C 171.59 174.43 171.81 174.66 171.82 174.95
  Q 172.22 262.92 171.78 350.89
  Q 171.76 353.67 171.87 361.09
  Q 171.95 366.28 171.82 371.29
  Q 171.80 372.11 172.36 371.52
  L 382.34 148.55
  Q 382.69 148.18 382.18 148.18
  L 312.44 148.01
  Q 310.44 148.00 308.96 149.39
  Q 266.13 189.38 222.75 229.75
  Q 214.76 237.19 211.94 239.62
  Q 211.56 239.94 211.56 239.43"
/>
</g>
<path fill="#fdfdfd" d="
  M 452.79 66.50
  Q 452.03 67.95 452.74 69.20
  Q 453.45 70.45 453.48 70.52
  Q 454.96 74.12 456.32 77.94
  Q 456.50 78.46 456.50 79.02
  Q 456.50 81.20 456.85 81.94
  Q 457.19 82.66 457.19 82.82
  Q 457.47 100.29 457.19 105.44
  Q 457.03 108.29 458.37 109.66
  C 458.59 109.89 458.71 110.19 458.70 110.50
  Q 458.68 111.28 458.96 112.00
  L 458.96 119.25
  Q 458.25 119.58 458.25 120.50
  Q 458.25 258.12 458.25 395.75
  Q 458.25 397.48 457.00 399.81
  Q 456.75 400.27 456.76 400.75
  Q 456.88 409.28 457.23 417.81
  Q 457.51 424.93 456.81 432.02
  Q 456.72 432.93 456.17 434.24
  Q 455.72 435.34 455.54 436.50
  Q 452.31 446.05 444.12 451.92
  Q 438.29 456.11 429.19 456.69
  Q 421.54 457.17 413.89 457.59
  Q 406.58 458.00 398.60 457.99
  Q 377.55 457.98 356.50 458.04
  Q 253.29 458.20 150.08 458.25
  Q 146.91 458.25 134.42 457.97
  Q 126.58 457.79 118.74 458.04
  Q 116.38 458.12 114.00 458.04
  Q 106.75 458.12 105.25 458.00
  Q 94.39 457.11 86.11 457.15
  Q 80.20 457.18 77.00 456.26
  Q 66.80 453.35 61.00 445.00
  Q 57.90 440.53 55.75 439.04
  L 55.29 438.50
  Q 53.86 434.49 53.46 430.25
  L 53.46 81.75
  Q 56.08 62.22 74.00 55.25
  Q 79.94 52.94 87.25 52.94
  Q 256.50 53.00 425.75 53.00
  Q 442.57 53.00 452.79 66.50
  Z
  M 87.06 53.31
  L 423.69 53.44
  Q 424.68 53.44 423.69 53.44
  Q 255.37 53.06 87.06 53.31
  Q 86.07 53.31 87.06 53.31
  Z
  M 211.56 239.43
  L 211.50 148.81
  C 211.50 148.36 211.14 148.00 210.69 148.00
  L 146.06 148.06
  C 145.78 148.06 145.56 148.28 145.56 148.56
  L 145.56 173.69
  C 145.56 173.96 145.78 174.18 146.06 174.19
  L 171.31 174.43
  C 171.59 174.43 171.81 174.66 171.82 174.95
  Q 172.22 262.92 171.78 350.89
  Q 171.76 353.67 171.87 361.09
  Q 171.95 366.28 171.82 371.29
  Q 171.80 372.11 172.36 371.52
  L 382.34 148.55
  Q 382.69 148.18 382.18 148.18
  L 312.44 148.01
  Q 310.44 148.00 308.96 149.39
  Q 266.13 189.38 222.75 229.75
  Q 214.76 237.19 211.94 239.62
  Q 211.56 239.94 211.56 239.43
  Z"
/>
<path fill="#fffefe" fill-opacity="0.980" d="
  M 87.06 53.31
  Q 255.37 53.06 423.69 53.44
  Q 424.68 53.44 423.69 53.44
  L 87.06 53.31
  Q 86.07 53.31 87.06 53.31
  Z"
/>
<path fill="#d7d5d6" fill-opacity="0.996" d="
  M 452.79 66.50
  Q 458.81 74.99 459.04 85.50
  L 458.96 112.00
  Q 458.68 111.28 458.70 110.50
  C 458.71 110.19 458.59 109.89 458.37 109.66
  Q 457.03 108.29 457.19 105.44
  Q 457.47 100.29 457.19 82.82
  Q 457.19 82.66 456.85 81.94
  Q 456.50 81.20 456.50 79.02
  Q 456.50 78.46 456.32 77.94
  Q 454.96 74.12 453.48 70.52
  Q 453.45 70.45 452.74 69.20
  Q 452.03 67.95 452.79 66.50
  Z"
/>
<path fill="#eef5f0" fill-opacity="0.953" d="
  M 53.46 81.75
  L 53.46 430.25
  Q 52.98 428.28 52.98 426.25
  Q 53.03 257.25 52.96 88.25
  L 53.46 81.75
  Z"
/>
<path fill="#010102" fill-opacity="0.086" d="
  M 459.04 85.50
  L 459.66 91.01
  Q 459.72 91.55 459.90 91.02
  Q 460.83 88.28 461.50 91.75
  Q 461.83 93.45 462.08 94.45
  Q 462.50 96.13 462.50 97.13
  Q 462.55 251.35 462.39 405.56
  Q 462.39 410.66 462.26 415.75
  C 462.25 416.01 462.07 416.27 461.78 416.42
  Q 460.95 416.84 461.81 417.63
  C 461.96 417.77 461.94 418.03 461.76 418.19
  Q 461.44 418.48 461.46 418.95
  C 461.47 419.18 461.69 419.44 462.03 419.62
  Q 462.59 419.92 461.95 420.29
  C 461.71 420.43 461.60 420.71 461.67 420.98
  Q 461.86 421.65 461.68 422.29
  Q 461.52 422.84 461.61 423.24
  Q 463.35 431.07 462.08 439.01
  C 462.03 439.30 462.08 439.62 462.22 439.94
  Q 462.80 441.34 461.85 442.41
  C 461.64 442.65 461.54 442.95 461.57 443.24
  Q 461.78 445.22 460.78 446.84
  Q 460.51 447.28 460.44 447.74
  Q 459.86 451.75 456.54 457.55
  C 456.20 458.14 456.20 458.88 456.54 459.47
  Q 456.80 459.92 455.81 459.86
  C 455.56 459.85 455.34 460.05 455.33 460.31
  Q 455.26 461.57 454.00 461.91
  C 453.71 461.99 453.47 462.20 453.36 462.49
  Q 452.95 463.59 451.80 463.95
  C 451.53 464.04 451.31 464.27 451.24 464.56
  Q 451.13 465.02 450.84 465.39
  C 450.72 465.55 450.40 465.66 450.01 465.67
  Q 449.31 465.70 449.19 466.69
  Q 449.03 467.98 447.55 467.88
  C 447.23 467.85 446.92 467.96 446.71 468.16
  Q 444.57 470.19 441.75 471.12
  Q 440.58 471.51 440.25 472.75
  Q 440.01 473.63 436.50 473.75
  L 428.69 474.02
  C 428.53 474.03 428.41 474.21 428.43 474.43
  Q 428.45 474.76 428.00 474.76
  Q 267.25 474.75 106.50 474.75
  Q 105.40 474.75 104.85 474.36
  C 104.63 474.21 104.35 474.22 104.19 474.38
  Q 103.47 475.10 102.80 474.39
  C 102.64 474.22 102.36 474.21 102.17 474.38
  Q 101.70 474.79 101.00 474.79
  Q 93.28 474.80 85.56 474.70
  C 85.44 474.69 85.16 474.51 84.84 474.24
  Q 84.53 473.97 83.75 474.00
  Q 78.28 474.23 71.73 471.92
  C 71.49 471.84 71.25 471.61 71.06 471.29
  Q 70.67 470.62 69.75 470.52
  Q 69.37 470.47 68.80 470.26
  L 65.74 469.11
  C 65.45 469.00 65.22 468.79 65.12 468.52
  Q 64.82 467.70 64.00 467.25
  Q 63.45 466.95 63.48 466.65
  C 63.50 466.40 63.41 466.18 63.27 466.15
  Q 60.14 465.43 59.00 462.25
  Q 58.75 461.56 57.99 461.64
  C 57.67 461.67 57.37 461.55 57.24 461.33
  Q 56.00 459.28 54.86 457.16
  Q 54.83 457.09 53.52 454.90
  Q 52.24 452.75 51.82 450.24
  C 51.80 450.11 51.59 449.87 51.27 449.62
  Q 50.77 449.24 51.25 447.70
  C 51.45 447.03 51.13 446.31 50.50 446.02
  Q 49.44 445.52 50.00 443.50
  Q 50.34 442.27 49.82 440.89
  Q 49.23 439.36 49.21 438.48
  Q 49.00 431.83 49.00 419.75
  Q 49.00 261.48 49.00 103.21
  Q 49.00 100.42 49.60 95.84
  Q 50.05 92.42 50.19 88.44
  Q 50.21 87.83 50.69 87.77
  C 51.00 87.73 51.28 87.97 51.31 88.30
  L 51.54 91.00
  Q 51.61 91.84 51.97 91.50
  Q 52.22 91.26 51.98 90.25
  Q 51.63 88.72 52.96 88.25
  Q 53.03 257.25 52.98 426.25
  Q 52.98 428.28 53.46 430.25
  Q 53.86 434.49 55.29 438.50
  Q 55.41 440.45 53.71 439.93
  C 53.48 439.86 53.24 440.01 53.24 440.24
  Q 53.23 442.88 54.66 445.14
  C 54.82 445.39 54.89 445.71 54.88 446.06
  Q 54.84 447.28 55.56 449.19
  Q 57.03 453.07 58.28 455.71
  Q 59.78 458.86 62.43 461.30
  Q 72.13 470.22 85.25 470.75
  Q 99.07 471.31 122.56 471.16
  Q 136.51 471.06 142.57 471.07
  Q 282.54 471.11 422.52 471.06
  Q 422.60 471.06 423.82 470.90
  Q 424.73 470.78 425.13 471.47
  C 425.23 471.64 425.46 471.66 425.58 471.51
  Q 426.14 470.83 427.18 471.06
  Q 427.33 471.09 427.65 471.08
  L 433.94 470.90
  C 434.24 470.89 434.51 470.73 434.64 470.47
  Q 435.32 469.12 437.00 468.50
  Q 447.59 464.58 453.32 454.50
  C 453.46 454.25 453.71 454.04 454.03 453.90
  Q 455.69 453.21 455.61 451.32
  C 455.60 451.01 455.70 450.70 455.91 450.45
  Q 456.65 449.56 456.44 448.43
  C 456.38 448.08 456.41 447.75 456.54 447.48
  Q 458.99 442.41 459.25 436.75
  Q 459.29 435.94 460.00 434.95
  C 460.20 434.68 460.30 434.36 460.29 434.05
  Q 460.15 431.81 459.76 429.61
  Q 459.32 427.08 459.32 425.21
  Q 459.33 411.85 459.04 398.50
  L 458.96 119.25
  L 458.96 112.00
  L 459.04 85.50
  Z
  M 52.46 403.76
  Q 52.72 403.47 52.69 403.06
  Q 51.80 390.75 51.81 380.06
  Q 52.01 242.03 51.75 104.00
  Q 51.75 102.44 51.75 104.00
  Q 51.50 260.00 51.50 416.00
  Q 51.50 419.45 51.74 421.44
  Q 51.82 422.08 51.83 421.43
  L 52.07 404.57
  C 52.07 404.34 52.21 404.05 52.46 403.76
  Z
  M 459.31 121.56
  L 459.44 382.94
  Q 459.44 383.93 459.44 382.94
  Q 459.69 252.25 459.31 121.56
  Q 459.31 120.57 459.31 121.56
  Z"
/>
<path fill="#020202" fill-opacity="0.051" d="
  M 52.07 404.57
  L 51.83 421.43
  Q 51.82 422.08 51.74 421.44
  Q 51.50 419.45 51.50 416.00
  Q 51.50 260.00 51.75 104.00
  Q 51.75 102.44 51.75 104.00
  Q 52.01 242.03 51.81 380.06
  Q 51.80 390.75 52.69 403.06
  Q 52.72 403.47 52.46 403.76
  C 52.21 404.05 52.07 404.34 52.07 404.57
  Z"
/>
<path fill="#fffefe" fill-opacity="0.980" d="
  M 458.96 119.25
  L 459.04 398.50
  Q 458.97 411.88 459.05 425.25
  Q 459.09 430.75 457.46 436.00
  Q 456.43 435.93 455.54 436.50
  Q 455.72 435.34 456.17 434.24
  Q 456.72 432.93 456.81 432.02
  Q 457.51 424.93 457.23 417.81
  Q 456.88 409.28 456.76 400.75
  Q 456.75 400.27 457.00 399.81
  Q 458.25 397.48 458.25 395.75
  Q 458.25 258.12 458.25 120.50
  Q 458.25 119.58 458.96 119.25
  Z"
/>
<path fill="#000000" d="
  M 211.94 239.62
  Q 214.76 237.19 222.75 229.75
  Q 266.13 189.38 308.96 149.39
  Q 310.44 148.00 312.44 148.01
  L 382.18 148.18
  Q 382.69 148.18 382.34 148.55
  L 172.36 371.52
  Q 171.80 372.11 171.82 371.29
  Q 171.95 366.28 171.87 361.09
  Q 171.76 353.67 171.78 350.89
  Q 172.22 262.92 171.82 174.95
  C 171.81 174.66 171.59 174.43 171.31 174.43
  L 146.06 174.19
  C 145.78 174.18 145.56 173.96 145.56 173.69
  L 145.56 148.56
  C 145.56 148.28 145.78 148.06 146.06 148.06
  L 210.69 148.00
  C 211.14 148.00 211.50 148.36 211.50 148.81
  L 211.56 239.43
  Q 211.56 239.94 211.94 239.62
  Z"
/>
<path fill="#000000" fill-opacity="0.173" d="
  M 459.04 398.50
  Q 459.33 411.85 459.32 425.21
  Q 459.32 427.08 459.76 429.61
  Q 460.15 431.81 460.29 434.05
  C 460.30 434.36 460.20 434.68 460.00 434.95
  Q 459.29 435.94 459.25 436.75
  Q 458.99 442.41 456.54 447.48
  C 456.41 447.75 456.38 448.08 456.44 448.43
  Q 456.65 449.56 455.91 450.45
  C 455.70 450.70 455.60 451.01 455.61 451.32
  Q 455.69 453.21 454.03 453.90
  C 453.71 454.04 453.46 454.25 453.32 454.50
  Q 447.59 464.58 437.00 468.50
  Q 435.32 469.12 434.64 470.47
  C 434.51 470.73 434.24 470.89 433.94 470.90
  L 427.65 471.08
  Q 427.33 471.09 427.18 471.06
  Q 426.14 470.83 425.58 471.51
  C 425.46 471.66 425.23 471.64 425.13 471.47
  Q 424.73 470.78 423.82 470.90
  Q 422.60 471.06 422.52 471.06
  Q 282.54 471.11 142.57 471.07
  Q 136.51 471.06 122.56 471.16
  Q 99.07 471.31 85.25 470.75
  Q 72.13 470.22 62.43 461.30
  Q 59.78 458.86 58.28 455.71
  Q 57.03 453.07 55.56 449.19
  Q 54.84 447.28 54.88 446.06
  C 54.89 445.71 54.82 445.39 54.66 445.14
  Q 53.23 442.88 53.24 440.24
  C 53.24 440.01 53.48 439.86 53.71 439.93
  Q 55.41 440.45 55.29 438.50
  L 55.75 439.04
  Q 57.07 443.12 60.56 447.19
  Q 69.50 457.60 82.34 458.67
  Q 83.64 458.78 92.16 458.91
  Q 97.08 458.98 102.00 458.71
  L 103.00 458.79
  Q 103.46 459.00 104.75 459.00
  Q 261.63 459.03 418.50 458.96
  Q 423.00 458.83 427.50 458.79
  Q 436.14 458.70 443.47 454.24
  Q 454.00 447.82 457.46 436.00
  Q 459.09 430.75 459.05 425.25
  Q 458.97 411.88 459.04 398.50
  Z"
/>
<path fill="#b6b7b7" fill-opacity="0.996" d="
  M 457.46 436.00
  Q 454.00 447.82 443.47 454.24
  Q 436.14 458.70 427.50 458.79
  Q 423.00 458.83 418.50 458.96
  L 361.50 458.54
  Q 362.50 458.11 360.75 458.25
  Q 358.61 458.41 356.50 458.04
  Q 377.55 457.98 398.60 457.99
  Q 406.58 458.00 413.89 457.59
  Q 421.54 457.17 429.19 456.69
  Q 438.29 456.11 444.12 451.92
  Q 452.31 446.05 455.54 436.50
  Q 456.43 435.93 457.46 436.00
  Z"
/>
<path fill="#b6b7b7" fill-opacity="0.996" d="
  M 55.75 439.04
  Q 57.90 440.53 61.00 445.00
  Q 66.80 453.35 77.00 456.26
  Q 80.20 457.18 86.11 457.15
  Q 94.39 457.11 105.25 458.00
  Q 106.75 458.12 114.00 458.04
  Q 113.92 458.56 113.00 458.50
  Q 109.12 458.24 102.00 458.71
  Q 97.08 458.98 92.16 458.91
  Q 83.64 458.78 82.34 458.67
  Q 69.50 457.60 60.56 447.19
  Q 57.07 443.12 55.75 439.04
  Z"
/>
<path fill="#798675" fill-opacity="0.992" d="
  M 114.00 458.04
  Q 116.38 458.12 118.74 458.04
  Q 126.58 457.79 134.42 457.97
  Q 146.91 458.25 150.08 458.25
  Q 253.29 458.20 356.50 458.04
  Q 358.61 458.41 360.75 458.25
  Q 362.50 458.11 361.50 458.54
  Q 276.78 458.69 192.06 458.61
  Q 147.53 458.57 103.00 458.79
  L 102.00 458.71
  Q 109.12 458.24 113.00 458.50
  Q 113.92 458.56 114.00 458.04
  Z"
/>
<path fill="#091208" fill-opacity="0.910" d="
  M 361.50 458.54
  L 418.50 458.96
  Q 261.63 459.03 104.75 459.00
  Q 103.46 459.00 103.00 458.79
  Q 147.53 458.57 192.06 458.61
  Q 276.78 458.69 361.50 458.54
  Z"
/>
</svg>
