<?xml version="1.0" encoding="UTF-8" standalone="no"?>
<!DOCTYPE svg PUBLIC "-//W3C//DTD SVG 1.1//EN" "http://www.w3.org/Graphics/SVG/1.1/DTD/svg11.dtd">
<svg xmlns="http://www.w3.org/2000/svg" version="1.1" viewBox="0 0 512 512">
<g stroke-width="2.0" fill="none" stroke-linecap="butt">
<path stroke="#eae9ea" vector-effect="non-scaling-stroke" d="
  M 452.79 66.50
  Q 452.03 67.95 452.74 69.20
  Q 453.45 70.45 453.48 70.52
  Q 454.96 74.12 456.32 77.94
  Q 456.50 78.46 456.50 79.02
  Q 456.50 81.20 456.85 81.94
  Q 457.19 82.66 457.19 82.82
  Q 457.47 100.29 457.19 105.44
  Q 457.03 108.29 458.37 109.66
  C 458.59 109.89 458.71 110.19 458.70 110.50
  Q 458.68 111.28 458.96 112.00"
/>
<path stroke="#e9e9e9" stroke-opacity="0.545" vector-effect="non-scaling-stroke" d="
  M 458.96 112.00
  L 458.96 119.25"
/>
<path stroke="#f5f9f7" stroke-opacity="0.976" vector-effect="non-scaling-stroke" d="
  M 458.96 119.25
  Q 458.25 119.58 458.25 120.50
  Q 458.25 258.12 458.25 395.75
  Q 458.25 397.48 457.00 399.81
  Q 456.75 400.27 456.76 400.75
  Q 456.88 409.28 457.23 417.81
  Q 457.51 424.93 456.81 432.02
  Q 456.72 432.93 456.17 434.24
  Q 455.72 435.34 455.54 436.50"
/>
<path stroke="#dadada" vector-effect="non-scaling-stroke" d="
  M 455.54 436.50
  Q 452.31 446.05 444.12 451.92
  Q 438.29 456.11 429.19 456.69
  Q 421.54 457.17 413.89 457.59
  Q 406.58 458.00 398.60 457.99
  Q 377.55 457.98 356.50 458.04"
/>
<path stroke="#bbc2b9" stroke-opacity="0.996" vector-effect="non-scaling-stroke" d="
  M 356.50 458.04
  Q 253.29 458.20 150.08 458.25
  Q 146.91 458.25 134.42 457.97
  Q 126.58 457.79 118.74 458.04
  Q 116.38 458.12 114.00 458.04"
/>
<path stroke="#dadada" vector-effect="non-scaling-stroke" d="
  M 114.00 458.04
  Q 106.75 458.12 105.25 458.00
  Q 94.39 457.11 86.11 457.15
  Q 80.20 457.18 77.00 456.26
  Q 66.80 453.35 61.00 445.00
  Q 57.90 440.53 55.75 439.04"
/>
<path stroke="#d8d8d8" stroke-opacity="0.588" vector-effect="non-scaling-stroke" d="
  M 55.75 439.04
  L 55.29 438.50"
/>
<path stroke="#e9e9e9" stroke-opacity="0.545" vector-effect="non-scaling-stroke" d="
  M 55.29 438.50
  Q 53.86 434.49 53.46 430.25"
/>
<path stroke="#f5f9f7" stroke-opacity="0.976" vector-effect="non-scaling-stroke" d="
  M 53.46 430.25
  L 53.46 81.75"
/>
<path stroke="#d1d5d3" stroke-opacity="0.976" vector-effect="non-scaling-stroke" d="
  M 457.46 436.00
  Q 456.43 435.93 455.54 436.50"
/>
<path stroke="#989f96" stroke-opacity="0.996" vector-effect="non-scaling-stroke" d="
  M 114.00 458.04
  Q 113.92 458.56 113.00 458.50
  Q 109.12 458.24 102.00 458.71"
/>
<path stroke="#c6c4c5" stroke-opacity="0.541" vector-effect="non-scaling-stroke" d="
  M 459.04 85.50
  L 458.96 112.00"
/>
<path stroke="#9b9c9c" stroke-opacity="0.584" vector-effect="non-scaling-stroke" d="
  M 55.75 439.04
  Q 57.07 443.12 60.56 447.19
  Q 69.50 457.60 82.34 458.67
  Q 83.64 458.78 92.16 458.91
  Q 97.08 458.98 102.00 458.71"
/>
<path stroke="#677264" stroke-opacity="0.584" vector-effect="non-scaling-stroke" d="
  M 102.00 458.71
  L 103.00 458.79"
/>
<path stroke="#9b9c9c" stroke-opacity="0.584" vector-effect="non-scaling-stroke" d="
  M 418.50 458.96
  Q 423.00 458.83 427.50 458.79
  Q 436.14 458.70 443.47 454.24
  Q 454.00 447.82 457.46 436.00"
/>
<path stroke="#636863" stroke-opacity="0.953" vector-effect="non-scaling-stroke" d="
  M 418.50 458.96
  L 361.50 458.54"
/>
<path stroke="#989f96" stroke-opacity="0.996" vector-effect="non-scaling-stroke" d="
  M 361.50 458.54
  Q 362.50 458.11 360.75 458.25
  Q 358.61 458.41 356.50 458.04"
/>
<path stroke="#434f41" stroke-opacity="0.953" vector-effect="non-scaling-stroke" d="
  M 361.50 458.54
  Q 276.78 458.69 192.06 458.61
  Q 147.53 458.57 103.00 458.79"
/>
<path stroke="#fefdfd" stroke-opacity="0.992" vector-effect="non-scaling-stroke" d="
  M 87.06 53.31
  L 423.69 53.44
  Q 424.68 53.44 423.69 53.44
  Q 255.37 53.06 87.06 53.31
  Q 86.07 53.31 87.06 53.31"
/>
<path stroke="#bbc2b9" stroke-opacity="0.996" vector-effect="non-scaling-stroke" d="
  M 386.46 365.25
  Q 386.67 359.29 385.58 353.43
  Q 385.50 353.00 385.53 352.56
  Q 385.72 349.72 385.04 351.75"
/>
<path stroke="#8ea0b9" vector-effect="non-scaling-stroke" d="
  M 385.04 351.75
  L 382.96 336.75"
/>
<path stroke="#bbc2b9" stroke-opacity="0.996" vector-effect="non-scaling-stroke" d="
  M 382.96 336.75
  Q 383.38 331.56 382.29 326.50"
/>
<path stroke="#8ea0b9" vector-effect="non-scaling-stroke" d="
  M 382.29 326.50
  Q 381.76 322.42 381.26 318.34
  Q 381.00 316.31 380.03 310.20
  Q 379.38 306.07 379.03 301.91
  Q 378.57 296.56 378.13 293.63
  Q 369.59 236.66 360.02 179.85
  Q 360.01 179.78 359.27 176.70
  Q 358.95 175.36 358.75 173.50
  Q 357.78 164.36 355.25 150.00
  Q 353.68 141.07 351.15 135.15
  Q 350.00 132.45 348.54 131.47
  Q 346.00 129.76 343.31 132.56
  Q 339.83 136.19 336.25 143.50
  Q 334.32 147.44 322.63 167.71
  Q 320.74 170.99 320.41 171.36
  Q 318.70 173.28 316.00 172.75
  Q 293.40 168.31 273.75 169.75
  Q 264.98 170.39 248.07 172.38
  C 247.75 172.42 247.44 172.29 247.24 172.05
  Q 237.71 160.45 229.19 146.56
  Q 226.68 142.47 222.56 136.94
  Q 220.40 134.03 218.23 132.35
  Q 216.45 130.97 214.84 131.15
  Q 212.82 131.38 211.56 133.56
  Q 208.20 139.39 206.77 145.26
  Q 201.69 166.17 198.64 187.48
  Q 191.74 235.65 186.16 283.99
  Q 181.94 320.63 177.43 357.87
  C 177.38 358.22 177.09 358.48 176.73 358.49
  Q 163.71 358.63 153.68 352.56
  Q 147.07 348.56 144.18 343.54
  Q 140.62 337.37 142.25 329.75
  Q 144.81 317.76 156.08 311.49
  Q 160.40 309.07 163.40 305.24
  Q 164.70 303.57 163.20 302.07
  Q 160.86 299.74 157.51 299.88
  Q 152.49 300.09 147.95 302.22
  Q 133.47 308.99 128.63 322.76
  Q 125.29 332.28 126.86 342.48
  Q 128.93 355.88 139.77 365.47
  Q 144.77 369.90 150.00 371.50
  Q 165.20 376.16 183.48 377.99
  Q 205.81 380.22 228.24 381.18
  Q 305.22 384.46 382.00 378.00
  Q 383.94 377.84 385.17 376.92
  Q 386.24 376.11 386.36 374.15
  Q 386.62 369.70 386.46 365.25"
/>
<path stroke="#4b6475" stroke-opacity="0.996" vector-effect="non-scaling-stroke" d="
  M 382.29 326.50
  Q 381.33 329.24 382.22 331.92
  Q 382.65 333.21 382.70 334.29
  Q 382.75 335.53 382.96 336.75"
/>
<path stroke="#4b6475" stroke-opacity="0.996" vector-effect="non-scaling-stroke" d="
  M 385.04 351.75
  Q 384.84 358.60 386.46 365.25"
/>
<path stroke="#8ea0b9" vector-effect="non-scaling-stroke" d="
  M 249.46 228.97
  C 249.46 222.78 244.44 217.76 238.25 217.76
  C 232.06 217.76 227.04 222.78 227.04 228.97
  C 227.04 235.16 232.06 240.18 238.25 240.18
  C 244.44 240.18 249.46 235.16 249.46 228.97"
/>
<path stroke="#8ea0b9" vector-effect="non-scaling-stroke" d="
  M 341.48 228.97
  C 341.48 222.79 336.47 217.78 330.29 217.78
  C 324.11 217.78 319.10 222.79 319.10 228.97
  C 319.10 235.15 324.11 240.16 330.29 240.16
  C 336.47 240.16 341.48 235.15 341.48 228.97"
/>
<path stroke="#8ea0b9" vector-effect="non-scaling-stroke" d="
  M 270.90 258.12
  Q 273.15 259.47 275.73 258.92
  Q 279.40 258.15 282.14 255.95
  C 282.55 255.62 283.13 255.63 283.53 255.96
  Q 286.19 258.12 289.17 258.88
  Q 293.70 260.05 296.19 256.43
  Q 297.07 255.15 295.58 255.56
  Q 287.49 257.76 283.22 250.95
  C 282.95 250.52 282.33 250.54 282.07 250.97
  Q 277.91 257.95 269.65 255.65
  Q 268.56 255.35 269.09 256.35
  Q 269.63 257.37 270.90 258.12"
/>
</g>
<path fill="#fdfdfd" d="
  M 452.79 66.50
  Q 452.03 67.95 452.74 69.20
  Q 453.45 70.45 453.48 70.52
  Q 454.96 74.12 456.32 77.94
  Q 456.50 78.46 456.50 79.02
  Q 456.50 81.20 456.85 81.94
  Q 457.19 82.66 457.19 82.82
  Q 457.47 100.29 457.19 105.44
  Q 457.03 108.29 458.37 109.66
  C 458.59 109.89 458.71 110.19 458.70 110.50
  Q 458.68 111.28 458.96 112.00
  L 458.96 119.25
  Q 458.25 119.58 458.25 120.50
  Q 458.25 258.12 458.25 395.75
  Q 458.25 397.48 457.00 399.81
  Q 456.75 400.27 456.76 400.75
  Q 456.88 409.28 457.23 417.81
  Q 457.51 424.93 456.81 432.02
  Q 456.72 432.93 456.17 434.24
  Q 455.72 435.34 455.54 436.50
  Q 452.31 446.05 444.12 451.92
  Q 438.29 456.11 429.19 456.69
  Q 421.54 457.17 413.89 457.59
  Q 406.58 458.00 398.60 457.99
  Q 377.55 457.98 356.50 458.04
  Q 253.29 458.20 150.08 458.25
  Q 146.91 458.25 134.42 457.97
  Q 126.58 457.79 118.74 458.04
  Q 116.38 458.12 114.00 458.04
  Q 106.75 458.12 105.25 458.00
  Q 94.39 457.11 86.11 457.15
  Q 80.20 457.18 77.00 456.26
  Q 66.80 453.35 61.00 445.00
  Q 57.90 440.53 55.75 439.04
  L 55.29 438.50
  Q 53.86 434.49 53.46 430.25
  L 53.46 81.75
  Q 56.08 62.22 74.00 55.25
  Q 79.94 52.94 87.25 52.94
  Q 256.50 53.00 425.75 53.00
  Q 442.57 53.00 452.79 66.50
  Z
  M 87.06 53.31
  L 423.69 53.44
  Q 424.68 53.44 423.69 53.44
  Q 255.37 53.06 87.06 53.31
  Q 86.07 53.31 87.06 53.31
  Z
  M 386.46 365.25
  Q 386.67 359.29 385.58 353.43
  Q 385.50 353.00 385.53 352.56
  Q 385.72 349.72 385.04 351.75
  L 382.96 336.75
  Q 383.38 331.56 382.29 326.50
  Q 381.76 322.42 381.26 318.34
  Q 381.00 316.31 380.03 310.20
  Q 379.38 306.07 379.03 301.91
  Q 378.57 296.56 378.13 293.63
  Q 369.59 236.66 360.02 179.85
  Q 360.01 179.78 359.27 176.70
  Q 358.95 175.36 358.75 173.50
  Q 357.78 164.36 355.25 150.00
  Q 353.68 141.07 351.15 135.15
  Q 350.00 132.45 348.54 131.47
  Q 346.00 129.76 343.31 132.56
  Q 339.83 136.19 336.25 143.50
  Q 334.32 147.44 322.63 167.71
  Q 320.74 170.99 320.41 171.36
  Q 318.70 173.28 316.00 172.75
  Q 293.40 168.31 273.75 169.75
  Q 264.98 170.39 248.07 172.38
  C 247.75 172.42 247.44 172.29 247.24 172.05
  Q 237.71 160.45 229.19 146.56
  Q 226.68 142.47 222.56 136.94
  Q 220.40 134.03 218.23 132.35
  Q 216.45 130.97 214.84 131.15
  Q 212.82 131.38 211.56 133.56
  Q 208.20 139.39 206.77 145.26
  Q 201.69 166.17 198.64 187.48
  Q 191.74 235.65 186.16 283.99
  Q 181.94 320.63 177.43 357.87
  C 177.38 358.22 177.09 358.48 176.73 358.49
  Q 163.71 358.63 153.68 352.56
  Q 147.07 348.56 144.18 343.54
  Q 140.62 337.37 142.25 329.75
  Q 144.81 317.76 156.08 311.49
  Q 160.40 309.07 163.40 305.24
  Q 164.70 303.57 163.20 302.07
  Q 160.86 299.74 157.51 299.88
  Q 152.49 300.09 147.95 302.22
  Q 133.47 308.99 128.63 322.76
  Q 125.29 332.28 126.86 342.48
  Q 128.93 355.88 139.77 365.47
  Q 144.77 369.90 150.00 371.50
  Q 165.20 376.16 183.48 377.99
  Q 205.81 380.22 228.24 381.18
  Q 305.22 384.46 382.00 378.00
  Q 383.94 377.84 385.17 376.92
  Q 386.24 376.11 386.36 374.15
  Q 386.62 369.70 386.46 365.25
  Z"
/>
<path fill="#fffefe" fill-opacity="0.980" d="
  M 87.06 53.31
  Q 255.37 53.06 423.69 53.44
  Q 424.68 53.44 423.69 53.44
  L 87.06 53.31
  Q 86.07 53.31 87.06 53.31
  Z"
/>
<path fill="#d7d5d6" fill-opacity="0.996" d="
  M 452.79 66.50
  Q 458.81 74.99 459.04 85.50
  L 458.96 112.00
  Q 458.68 111.28 458.70 110.50
  C 458.71 110.19 458.59 109.89 458.37 109.66
  Q 457.03 108.29 457.19 105.44
  Q 457.47 100.29 457.19 82.82
  Q 457.19 82.66 456.85 81.94
  Q 456.50 81.20 456.50 79.02
  Q 456.50 78.46 456.32 77.94
  Q 454.96 74.12 453.48 70.52
  Q 453.45 70.45 452.74 69.20
  Q 452.03 67.95 452.79 66.50
  Z"
/>
<path fill="#edf4f0" fill-opacity="0.953" d="
  M 53.46 81.75
  L 53.46 430.25
  Q 52.98 428.28 52.98 426.25
  Q 53.03 257.25 52.96 88.25
  L 53.46 81.75
  Z"
/>
<path fill="#010102" fill-opacity="0.086" d="
  M 459.04 85.50
  L 459.66 91.01
  Q 459.72 91.55 459.90 91.02
  Q 460.83 88.28 461.50 91.75
  Q 461.83 93.45 462.08 94.45
  Q 462.50 96.13 462.50 97.13
  Q 462.55 251.35 462.39 405.56
  Q 462.39 410.66 462.26 415.75
  C 462.25 416.01 462.07 416.27 461.78 416.42
  Q 460.95 416.84 461.81 417.63
  C 461.96 417.77 461.94 418.03 461.76 418.19
  Q 461.44 418.48 461.46 418.95
  C 461.47 419.18 461.69 419.44 462.03 419.62
  Q 462.59 419.92 461.95 420.29
  C 461.71 420.43 461.60 420.71 461.67 420.98
  Q 461.86 421.65 461.68 422.29
  Q 461.52 422.84 461.61 423.24
  Q 463.35 431.07 462.08 439.01
  C 462.03 439.30 462.08 439.62 462.22 439.94
  Q 462.80 441.34 461.85 442.41
  C 461.64 442.65 461.54 442.95 461.57 443.24
  Q 461.78 445.22 460.78 446.84
  Q 460.51 447.28 460.44 447.74
  Q 459.86 451.75 456.54 457.55
  C 456.20 458.14 456.20 458.88 456.54 459.47
  Q 456.80 459.92 455.81 459.86
  C 455.56 459.85 455.34 460.05 455.33 460.31
  Q 455.26 461.57 454.00 461.91
  C 453.71 461.99 453.47 462.20 453.36 462.49
  Q 452.95 463.59 451.80 463.95
  C 451.53 464.04 451.31 464.27 451.24 464.56
  Q 451.13 465.02 450.84 465.39
  C 450.72 465.55 450.40 465.66 450.01 465.67
  Q 449.31 465.70 449.19 466.69
  Q 449.03 467.98 447.55 467.88
  C 447.23 467.85 446.92 467.96 446.71 468.16
  Q 444.57 470.19 441.75 471.12
  Q 440.58 471.51 440.25 472.75
  Q 440.01 473.63 436.50 473.75
  L 428.69 474.02
  C 428.53 474.03 428.41 474.21 428.43 474.43
  Q 428.45 474.76 428.00 474.76
  Q 267.25 474.75 106.50 474.75
  Q 105.40 474.75 104.85 474.36
  C 104.63 474.21 104.35 474.22 104.19 474.38
  Q 103.47 475.10 102.80 474.39
  C 102.64 474.22 102.36 474.21 102.17 474.38
  Q 101.70 474.79 101.00 474.79
  Q 93.28 474.80 85.56 474.70
  C 85.44 474.69 85.16 474.51 84.84 474.24
  Q 84.53 473.97 83.75 474.00
  Q 78.28 474.23 71.73 471.92
  C 71.49 471.84 71.25 471.61 71.06 471.29
  Q 70.67 470.62 69.75 470.52
  Q 69.37 470.47 68.80 470.26
  L 65.74 469.11
  C 65.45 469.00 65.22 468.79 65.12 468.52
  Q 64.82 467.70 64.00 467.25
  Q 63.45 466.95 63.48 466.65
  C 63.50 466.40 63.41 466.18 63.27 466.15
  Q 60.14 465.43 59.00 462.25
  Q 58.75 461.56 57.99 461.64
  C 57.67 461.67 57.37 461.55 57.24 461.33
  Q 56.00 459.28 54.86 457.16
  Q 54.83 457.09 53.52 454.90
  Q 52.24 452.75 51.82 450.24
  C 51.80 450.11 51.59 449.87 51.27 449.62
  Q 50.77 449.24 51.25 447.70
  C 51.45 447.03 51.13 446.31 50.50 446.02
  Q 49.44 445.52 50.00 443.50
  Q 50.34 442.27 49.82 440.89
  Q 49.23 439.36 49.21 438.48
  Q 49.00 431.83 49.00 419.75
  Q 49.00 261.48 49.00 103.21
  Q 49.00 100.42 49.60 95.84
  Q 50.05 92.42 50.19 88.44
  Q 50.21 87.83 50.69 87.77
  C 51.00 87.73 51.28 87.97 51.31 88.30
  L 51.54 91.00
  Q 51.61 91.84 51.97 91.50
  Q 52.22 91.26 51.98 90.25
  Q 51.63 88.72 52.96 88.25
  Q 53.03 257.25 52.98 426.25
  Q 52.98 428.28 53.46 430.25
  Q 53.86 434.49 55.29 438.50
  Q 55.41 440.45 53.71 439.93
  C 53.48 439.86 53.24 440.01 53.24 440.24
  Q 53.23 442.88 54.66 445.14
  C 54.82 445.39 54.89 445.71 54.88 446.06
  Q 54.84 447.28 55.56 449.19
  Q 57.03 453.07 58.28 455.71
  Q 59.78 458.86 62.43 461.30
  Q 72.13 470.22 85.25 470.75
  Q 99.07 471.31 122.56 471.16
  Q 136.51 471.06 142.57 471.07
  Q 282.54 471.11 422.52 471.06
  Q 422.60 471.06 423.82 470.90
  Q 424.73 470.78 425.13 471.47
  C 425.23 471.64 425.46 471.66 425.58 471.51
  Q 426.14 470.83 427.18 471.06
  Q 427.33 471.09 427.65 471.08
  L 433.94 470.90
  C 434.24 470.89 434.50 470.73 434.64 470.48
  Q 435.31 469.26 437.25 468.50
  Q 444.10 465.82 450.50 459.73
  Q 451.91 458.39 453.19 456.52
  Q 454.38 454.78 455.55 453.04
  Q 457.19 450.61 457.68 447.74
  Q 457.75 447.32 458.09 446.88
  Q 458.93 445.78 458.25 444.43
  C 458.10 444.13 458.07 443.80 458.15 443.51
  Q 459.18 440.09 459.25 436.50
  Q 459.26 436.03 460.02 434.96
  C 460.21 434.70 460.30 434.38 460.27 434.06
  Q 460.05 431.36 459.67 428.68
  Q 459.26 425.76 459.28 423.29
  Q 459.37 410.89 459.04 398.50
  L 458.96 119.25
  L 458.96 112.00
  L 459.04 85.50
  Z
  M 52.02 103.54
  C 52.02 103.40 51.91 103.29 51.77 103.29
  L 51.75 103.29
  C 51.61 103.29 51.50 103.40 51.50 103.54
  L 51.50 349.38
  C 51.50 349.52 51.61 349.63 51.75 349.63
  L 51.77 349.63
  C 51.91 349.63 52.02 349.52 52.02 349.38
  L 52.02 103.54
  Z
  M 459.31 121.56
  L 459.44 382.94
  Q 459.44 383.93 459.44 382.94
  Q 459.69 252.25 459.31 121.56
  Q 459.31 120.57 459.31 121.56
  Z
  M 52.42 403.74
  Q 52.60 403.44 52.56 402.94
  Q 51.69 389.16 52.06 372.23
  Q 52.15 367.69 52.07 362.39
  Q 51.98 357.47 52.05 352.54
  Q 52.05 352.53 52.19 351.61
  Q 52.27 351.05 51.93 350.64
  Q 51.56 350.20 51.56 350.82
  Q 51.27 386.02 51.75 421.22
  Q 51.75 421.55 51.85 421.75
  Q 52.10 422.23 52.09 420.75
  Q 52.03 412.66 52.06 404.57
  Q 52.06 404.36 52.42 403.74
  Z"
/>
<rect fill="#020202" fill-opacity="0.051" x="51.50" y="103.29" width="0.52" height="246.34" rx="0.25"/>
<path fill="#edf4f0" fill-opacity="0.953" d="
  M 458.96 119.25
  L 459.04 398.50
  Q 458.97 411.88 459.05 425.25
  Q 459.09 430.75 457.46 436.00
  Q 456.43 435.93 455.54 436.50
  Q 455.72 435.34 456.17 434.24
  Q 456.72 432.93 456.81 432.02
  Q 457.51 424.93 457.23 417.81
  Q 456.88 409.28 456.76 400.75
  Q 456.75 400.27 457.00 399.81
  Q 458.25 397.48 458.25 395.75
  Q 458.25 258.12 458.25 120.50
  Q 458.25 119.58 458.96 119.25
  Z"
/>
<path fill="#1e4275" d="
  M 382.29 326.50
  Q 381.33 329.24 382.22 331.92
  Q 382.65 333.21 382.70 334.29
  Q 382.75 335.53 382.96 336.75
  L 385.04 351.75
  Q 384.84 358.60 386.46 365.25
  Q 386.62 369.70 386.36 374.15
  Q 386.24 376.11 385.17 376.92
  Q 383.94 377.84 382.00 378.00
  Q 305.22 384.46 228.24 381.18
  Q 205.81 380.22 183.48 377.99
  Q 165.20 376.16 150.00 371.50
  Q 144.77 369.90 139.77 365.47
  Q 128.93 355.88 126.86 342.48
  Q 125.29 332.28 128.63 322.76
  Q 133.47 308.99 147.95 302.22
  Q 152.49 300.09 157.51 299.88
  Q 160.86 299.74 163.20 302.07
  Q 164.70 303.57 163.40 305.24
  Q 160.40 309.07 156.08 311.49
  Q 144.81 317.76 142.25 329.75
  Q 140.62 337.37 144.18 343.54
  Q 147.07 348.56 153.68 352.56
  Q 163.71 358.63 176.73 358.49
  C 177.09 358.48 177.38 358.22 177.43 357.87
  Q 181.94 320.63 186.16 283.99
  Q 191.74 235.65 198.64 187.48
  Q 201.69 166.17 206.77 145.26
  Q 208.20 139.39 211.56 133.56
  Q 212.82 131.38 214.84 131.15
  Q 216.45 130.97 218.23 132.35
  Q 220.40 134.03 222.56 136.94
  Q 226.68 142.47 229.19 146.56
  Q 237.71 160.45 247.24 172.05
  C 247.44 172.29 247.75 172.42 248.07 172.38
  Q 264.98 170.39 273.75 169.75
  Q 293.40 168.31 316.00 172.75
  Q 318.70 173.28 320.41 171.36
  Q 320.74 170.99 322.63 167.71
  Q 334.32 147.44 336.25 143.50
  Q 339.83 136.19 343.31 132.56
  Q 346.00 129.76 348.54 131.47
  Q 350.00 132.45 351.15 135.15
  Q 353.68 141.07 355.25 150.00
  Q 357.78 164.36 358.75 173.50
  Q 358.95 175.36 359.27 176.70
  Q 360.01 179.78 360.02 179.85
  Q 369.59 236.66 378.13 293.63
  Q 378.57 296.56 379.03 301.91
  Q 379.38 306.07 380.03 310.20
  Q 381.00 316.31 381.26 318.34
  Q 381.76 322.42 382.29 326.50
  Z
  M 249.46 228.97
  C 249.46 222.78 244.44 217.76 238.25 217.76
  C 232.06 217.76 227.04 222.78 227.04 228.97
  C 227.04 235.16 232.06 240.18 238.25 240.18
  C 244.44 240.18 249.46 235.16 249.46 228.97
  Z
  M 341.48 228.97
  C 341.48 222.79 336.47 217.78 330.29 217.78
  C 324.11 217.78 319.10 222.79 319.10 228.97
  C 319.10 235.15 324.11 240.16 330.29 240.16
  C 336.47 240.16 341.48 235.15 341.48 228.97
  Z
  M 270.90 258.12
  Q 273.15 259.47 275.73 258.92
  Q 279.40 258.15 282.14 255.95
  C 282.55 255.62 283.13 255.63 283.53 255.96
  Q 286.19 258.12 289.17 258.88
  Q 293.70 260.05 296.19 256.43
  Q 297.07 255.15 295.58 255.56
  Q 287.49 257.76 283.22 250.95
  C 282.95 250.52 282.33 250.54 282.07 250.97
  Q 277.91 257.95 269.65 255.65
  Q 268.56 255.35 269.09 256.35
  Q 269.63 257.37 270.90 258.12
  Z"
/>
<circle fill="#fdfdfd" cx="238.25" cy="228.97" r="11.21"/>
<circle fill="#fdfdfd" cx="330.29" cy="228.97" r="11.19"/>
<path fill="#fdfdfd" d="
  M 270.90 258.12
  Q 269.63 257.37 269.09 256.35
  Q 268.56 255.35 269.65 255.65
  Q 277.91 257.95 282.07 250.97
  C 282.33 250.54 282.95 250.52 283.22 250.95
  Q 287.49 257.76 295.58 255.56
  Q 297.07 255.15 296.19 256.43
  Q 293.70 260.05 289.17 258.88
  Q 286.19 258.12 283.53 255.96
  C 283.13 255.63 282.55 255.62 282.14 255.95
  Q 279.40 258.15 275.73 258.92
  Q 273.15 259.47 270.90 258.12
  Z"
/>
<path fill="#798675" fill-opacity="0.992" d="
  M 382.29 326.50
  Q 383.38 331.56 382.96 336.75
  Q 382.75 335.53 382.70 334.29
  Q 382.65 333.21 382.22 331.92
  Q 381.33 329.24 382.29 326.50
  Z"
/>
<path fill="#020202" fill-opacity="0.051" d="
  M 52.06 404.57
  Q 52.03 412.66 52.09 420.75
  Q 52.10 422.23 51.85 421.75
  Q 51.75 421.55 51.75 421.22
  Q 51.27 386.02 51.56 350.82
  Q 51.56 350.20 51.93 350.64
  Q 52.27 351.05 52.19 351.61
  Q 52.05 352.53 52.05 352.54
  Q 51.98 357.47 52.07 362.39
  Q 52.15 367.69 52.06 372.23
  Q 51.69 389.16 52.56 402.94
  Q 52.60 403.44 52.42 403.74
  Q 52.06 404.36 52.06 404.57
  Z"
/>
<path fill="#798675" fill-opacity="0.992" d="
  M 386.46 365.25
  Q 384.84 358.60 385.04 351.75
  Q 385.72 349.72 385.53 352.56
  Q 385.50 353.00 385.58 353.43
  Q 386.67 359.29 386.46 365.25
  Z"
/>
<path fill="#000000" fill-opacity="0.173" d="
  M 459.04 398.50
  Q 459.37 410.89 459.28 423.29
  Q 459.26 425.76 459.67 428.68
  Q 460.05 431.36 460.27 434.06
  C 460.30 434.38 460.21 434.70 460.02 434.96
  Q 459.26 436.03 459.25 436.50
  Q 459.18 440.09 458.15 443.51
  C 458.07 443.80 458.10 444.13 458.25 444.43
  Q 458.93 445.78 458.09 446.88
  Q 457.75 447.32 457.68 447.74
  Q 457.19 450.61 455.55 453.04
  Q 454.38 454.78 453.19 456.52
  Q 451.91 458.39 450.50 459.73
  Q 444.10 465.82 437.25 468.50
  Q 435.31 469.26 434.64 470.48
  C 434.50 470.73 434.24 470.89 433.94 470.90
  L 427.65 471.08
  Q 427.33 471.09 427.18 471.06
  Q 426.14 470.83 425.58 471.51
  C 425.46 471.66 425.23 471.64 425.13 471.47
  Q 424.73 470.78 423.82 470.90
  Q 422.60 471.06 422.52 471.06
  Q 282.54 471.11 142.57 471.07
  Q 136.51 471.06 122.56 471.16
  Q 99.07 471.31 85.25 470.75
  Q 72.13 470.22 62.43 461.30
  Q 59.78 458.86 58.28 455.71
  Q 57.03 453.07 55.56 449.19
  Q 54.84 447.28 54.88 446.06
  C 54.89 445.71 54.82 445.39 54.66 445.14
  Q 53.23 442.88 53.24 440.24
  C 53.24 440.01 53.48 439.86 53.71 439.93
  Q 55.41 440.45 55.29 438.50
  L 55.75 439.04
  Q 57.07 443.12 60.56 447.19
  Q 69.50 457.60 82.34 458.67
  Q 83.64 458.78 92.16 458.91
  Q 97.08 458.98 102.00 458.71
  L 103.00 458.79
  Q 103.46 459.00 104.75 459.00
  Q 261.63 459.03 418.50 458.96
  Q 423.00 458.83 427.50 458.79
  Q 436.14 458.70 443.47 454.24
  Q 454.00 447.82 457.46 436.00
  Q 459.09 430.75 459.05 425.25
  Q 458.97 411.88 459.04 398.50
  Z"
/>
<path fill="#b6b7b7" fill-opacity="0.996" d="
  M 457.46 436.00
  Q 454.00 447.82 443.47 454.24
  Q 436.14 458.70 427.50 458.79
  Q 423.00 458.83 418.50 458.96
  L 361.50 458.54
  Q 362.50 458.11 360.75 458.25
  Q 358.61 458.41 356.50 458.04
  Q 377.55 457.98 398.60 457.99
  Q 406.58 458.00 413.89 457.59
  Q 421.54 457.17 429.19 456.69
  Q 438.29 456.11 444.12 451.92
  Q 452.31 446.05 455.54 436.50
  Q 456.43 435.93 457.46 436.00
  Z"
/>
<path fill="#b6b7b7" fill-opacity="0.996" d="
  M 55.75 439.04
  Q 57.90 440.53 61.00 445.00
  Q 66.80 453.35 77.00 456.26
  Q 80.20 457.18 86.11 457.15
  Q 94.39 457.11 105.25 458.00
  Q 106.75 458.12 114.00 458.04
  Q 113.92 458.56 113.00 458.50
  Q 109.12 458.24 102.00 458.71
  Q 97.08 458.98 92.16 458.91
  Q 83.64 458.78 82.34 458.67
  Q 69.50 457.60 60.56 447.19
  Q 57.07 443.12 55.75 439.04
  Z"
/>
<path fill="#798675" fill-opacity="0.992" d="
  M 114.00 458.04
  Q 116.38 458.12 118.74 458.04
  Q 126.58 457.79 134.42 457.97
  Q 146.91 458.25 150.08 458.25
  Q 253.29 458.20 356.50 458.04
  Q 358.61 458.41 360.75 458.25
  Q 362.50 458.11 361.50 458.54
  Q 276.78 458.69 192.06 458.61
  Q 147.53 458.57 103.00 458.79
  L 102.00 458.71
  Q 109.12 458.24 113.00 458.50
  Q 113.92 458.56 114.00 458.04
  Z"
/>
<path fill="#091208" fill-opacity="0.910" d="
  M 361.50 458.54
  L 418.50 458.96
  Q 261.63 459.03 104.75 459.00
  Q 103.46 459.00 103.00 458.79
  Q 147.53 458.57 192.06 458.61
  Q 276.78 458.69 361.50 458.54
  Z"
/>
</svg>
