<?xml version="1.0" encoding="UTF-8" standalone="no"?>
<!DOCTYPE svg PUBLIC "-//W3C//DTD SVG 1.1//EN" "http://www.w3.org/Graphics/SVG/1.1/DTD/svg11.dtd">
<svg xmlns="http://www.w3.org/2000/svg" version="1.1" viewBox="0 0 48 48">
<g stroke-width="2.0" fill="none" stroke-linecap="butt">
<path stroke="#c5e9ef" vector-effect="non-scaling-stroke" d="
  M 48.00 23.81
  Q 46.01 23.93 45.50 26.50
  Q 44.74 30.32 48.00 31.06"
/>
<path stroke="#c5e9ef" vector-effect="non-scaling-stroke" d="
  M 37.5051 15.0504
  C 37.69 13.98 36.98 12.97 35.9153 12.7798
  L 35.7971 12.7590
  C 34.73 12.57 33.71 13.28 33.5265 14.3488
  L 30.3349 32.4496
  C 30.15 33.52 30.86 34.53 31.9247 34.7202
  L 32.0429 34.7410
  C 33.11 34.93 34.13 34.22 34.3135 33.1512
  L 37.5051 15.0504"
/>
<path stroke="#c5e9ef" vector-effect="non-scaling-stroke" d="
  M 29.9417 17.4173
  C 30.13 16.35 29.42 15.32 28.3437 15.1352
  L 28.2452 15.1178
  C 27.17 14.93 26.15 15.64 25.9631 16.7158
  L 21.6983 40.9027
  C 21.51 41.97 22.22 43.00 23.2963 43.1848
  L 23.3948 43.2022
  C 24.47 43.39 25.49 42.68 25.6769 41.6042
  L 29.9417 17.4173"
/>
<path stroke="#c5e9ef" vector-effect="non-scaling-stroke" d="
  M 43.9169 19.3644
  C 44.11 18.31 43.41 17.30 42.3511 17.1115
  L 42.1937 17.0831
  C 41.14 16.89 40.13 17.59 39.9408 18.6489
  L 38.2231 28.1956
  C 38.03 29.25 38.73 30.26 39.7889 30.4485
  L 39.9463 30.4769
  C 41.00 30.67 42.01 29.97 42.1992 28.9111
  L 43.9169 19.3644"
/>
<path stroke="#c5e9ef" vector-effect="non-scaling-stroke" d="
  M 21.3163 25.8414
  C 21.51 24.77 20.79 23.75 19.7183 23.5592
  L 19.6001 23.5384
  C 18.53 23.35 17.51 24.06 17.3180 25.1364
  L 14.1437 43.1386
  C 13.95 44.21 14.67 45.23 15.7417 45.4208
  L 15.8599 45.4416
  C 16.93 45.63 17.95 44.92 18.1420 43.8436
  L 21.3163 25.8414"
/>
<path stroke="#c5e9ef" vector-effect="non-scaling-stroke" d="
  M 6.3323 30.1526
  C 6.59 29.17 6.01 28.15 5.0202 27.8891
  L 4.7689 27.8222
  C 3.78 27.56 2.77 28.15 2.5054 29.1343
  L 1.6877 32.2074
  C 1.43 33.19 2.01 34.21 2.9998 34.4709
  L 3.2511 34.5378
  C 4.24 34.80 5.25 34.21 5.5146 33.2257
  L 6.3323 30.1526"
/>
<path stroke="#c5e9ef" vector-effect="non-scaling-stroke" d="
  M 13.4669 30.1129
  C 13.67 29.07 12.98 28.06 11.9328 27.8554
  L 11.7756 27.8255
  C 10.73 27.63 9.72 28.31 9.5181 29.3596
  L 7.6931 38.9271
  C 7.49 39.97 8.18 40.98 9.2272 41.1846
  L 9.3844 41.2145
  C 10.43 41.41 11.44 40.73 11.6419 39.6804
  L 13.4669 30.1129"
/>
</g>
<path fill="#020202" fill-opacity="0.004" d="
  M 0.00 0.00
  Q 3.16 0.00 6.31 0.00
  Q 1.36 1.28 0.00 6.19
  Q 0.00 3.09 0.00 0.00
  Z"
/>
<path fill="#8ad3de" d="
  M 6.31 0.00
  Q 24.19 0.00 42.06 0.00
  Q 46.57 1.52 48.00 6.06
  Q 48.00 14.94 48.00 23.81
  Q 46.01 23.93 45.50 26.50
  Q 44.74 30.32 48.00 31.06
  Q 48.00 36.56 48.00 42.06
  Q 46.46 46.77 41.69 48.00
  Q 23.94 48.00 6.19 48.00
  Q 1.32 46.59 0.00 41.69
  Q 0.00 23.94 0.00 6.19
  Q 1.36 1.28 6.31 0.00
  Z
  M 37.5051 15.0504
  C 37.69 13.98 36.98 12.97 35.9153 12.7798
  L 35.7971 12.7590
  C 34.73 12.57 33.71 13.28 33.5265 14.3488
  L 30.3349 32.4496
  C 30.15 33.52 30.86 34.53 31.9247 34.7202
  L 32.0429 34.7410
  C 33.11 34.93 34.13 34.22 34.3135 33.1512
  L 37.5051 15.0504
  Z
  M 29.9417 17.4173
  C 30.13 16.35 29.42 15.32 28.3437 15.1352
  L 28.2452 15.1178
  C 27.17 14.93 26.15 15.64 25.9631 16.7158
  L 21.6983 40.9027
  C 21.51 41.97 22.22 43.00 23.2963 43.1848
  L 23.3948 43.2022
  C 24.47 43.39 25.49 42.68 25.6769 41.6042
  L 29.9417 17.4173
  Z
  M 43.9169 19.3644
  C 44.11 18.31 43.41 17.30 42.3511 17.1115
  L 42.1937 17.0831
  C 41.14 16.89 40.13 17.59 39.9408 18.6489
  L 38.2231 28.1956
  C 38.03 29.25 38.73 30.26 39.7889 30.4485
  L 39.9463 30.4769
  C 41.00 30.67 42.01 29.97 42.1992 28.9111
  L 43.9169 19.3644
  Z
  M 21.3163 25.8414
  C 21.51 24.77 20.79 23.75 19.7183 23.5592
  L 19.6001 23.5384
  C 18.53 23.35 17.51 24.06 17.3180 25.1364
  L 14.1437 43.1386
  C 13.95 44.21 14.67 45.23 15.7417 45.4208
  L 15.8599 45.4416
  C 16.93 45.63 17.95 44.92 18.1420 43.8436
  L 21.3163 25.8414
  Z
  M 6.3323 30.1526
  C 6.59 29.17 6.01 28.15 5.0202 27.8891
  L 4.7689 27.8222
  C 3.78 27.56 2.77 28.15 2.5054 29.1343
  L 1.6877 32.2074
  C 1.43 33.19 2.01 34.21 2.9998 34.4709
  L 3.2511 34.5378
  C 4.24 34.80 5.25 34.21 5.5146 33.2257
  L 6.3323 30.1526
  Z
  M 13.4669 30.1129
  C 13.67 29.07 12.98 28.06 11.9328 27.8554
  L 11.7756 27.8255
  C 10.73 27.63 9.72 28.31 9.5181 29.3596
  L 7.6931 38.9271
  C 7.49 39.97 8.18 40.98 9.2272 41.1846
  L 9.3844 41.2145
  C 10.43 41.41 11.44 40.73 11.6419 39.6804
  L 13.4669 30.1129
  Z"
/>
<path fill="#020202" fill-opacity="0.004" d="
  M 42.06 0.00
  Q 45.03 0.00 48.00 0.00
  Q 48.00 3.03 48.00 6.06
  Q 46.57 1.52 42.06 0.00
  Z"
/>
<rect fill="#ffffff" x="-2.02" y="-11.15" transform="translate(33.92,23.75) rotate(10.0)" width="4.04" height="22.30" rx="1.96"/>
<rect fill="#ffffff" x="-2.02" y="-14.25" transform="translate(25.82,29.16) rotate(10.0)" width="4.04" height="28.50" rx="1.97"/>
<rect fill="#ffffff" x="-2.02" y="-6.79" transform="translate(41.07,23.78) rotate(10.2)" width="4.04" height="13.58" rx="1.94"/>
<rect fill="#ffffff" x="-2.03" y="-11.11" transform="translate(17.73,34.49) rotate(10.0)" width="4.06" height="22.22" rx="1.97"/>
<path fill="#ffffff" d="
  M 48.00 23.81
  Q 48.00 27.44 48.00 31.06
  Q 44.74 30.32 45.50 26.50
  Q 46.01 23.93 48.00 23.81
  Z"
/>
<rect fill="#ffffff" x="-1.98" y="-3.44" transform="translate(4.01,31.18) rotate(14.9)" width="3.96" height="6.88" rx="1.85"/>
<rect fill="#ffffff" x="-2.01" y="-6.80" transform="translate(10.58,34.52) rotate(10.8)" width="4.02" height="13.60" rx="1.93"/>
<path fill="#020202" fill-opacity="0.004" d="
  M 0.00 41.69
  Q 1.32 46.59 6.19 48.00
  Q 3.09 48.00 0.00 48.00
  Q 0.00 44.84 0.00 41.69
  Z"
/>
<path fill="#020202" fill-opacity="0.004" d="
  M 48.00 42.06
  Q 48.00 45.03 48.00 48.00
  Q 44.84 48.00 41.69 48.00
  Q 46.46 46.77 48.00 42.06
  Z"
/>
</svg>
