<?xml version="1.0" encoding="UTF-8" standalone="no"?>
<!DOCTYPE svg PUBLIC "-//W3C//DTD SVG 1.1//EN" "http://www.w3.org/Graphics/SVG/1.1/DTD/svg11.dtd">
<svg xmlns="http://www.w3.org/2000/svg" version="1.1" viewBox="0 0 256 256">
<g stroke-width="2.0" fill="none" stroke-linecap="butt">
<path stroke="#8f889a" vector-effect="non-scaling-stroke" d="
  M 256.00 55.56
  Q 228.20 45.88 199.90 57.36
  C 199.22 57.64 198.46 57.63 197.79 57.35
  Q 165.24 44.02 133.12 59.02
  C 132.56 59.28 131.92 59.28 131.38 59.02
  Q 107.34 47.69 82.42 52.52
  Q 72.57 54.44 63.51 58.81
  Q 46.48 67.02 35.31 82.06
  Q 20.43 102.11 20.08 127.02
  Q 19.94 137.00 22.41 146.82
  Q 28.93 172.71 49.85 189.00
  Q 57.75 195.15 67.03 199.08
  Q 98.55 212.40 131.72 197.19
  C 132.12 197.01 132.59 197.01 132.98 197.21
  Q 165.14 212.81 198.44 198.69
  C 198.72 198.57 199.04 198.57 199.31 198.69
  Q 227.13 210.64 256.00 201.06"
/>
<path stroke="#8d7755" vector-effect="non-scaling-stroke" d="
  M 256.00 72.06
  Q 255.57 72.26 254.81 71.94
  Q 236.40 64.12 217.24 68.39
  Q 216.55 68.54 217.08 69.02
  Q 238.96 88.57 243.46 116.06
  Q 245.07 125.92 244.01 135.98
  Q 240.83 166.35 216.83 187.37
  Q 216.33 187.80 216.98 187.94
  Q 236.90 192.19 255.25 184.25
  Q 255.81 184.01 256.00 184.56"
/>
<path stroke="#893642" vector-effect="non-scaling-stroke" d="
  M 158.41 128.19
  C 158.41 94.38 131.00 66.97 97.19 66.97
  C 63.38 66.97 35.97 94.38 35.97 128.19
  C 35.97 162.00 63.38 189.41 97.19 189.41
  C 131.00 189.41 158.41 162.00 158.41 128.19"
/>
<path stroke="#386b82" vector-effect="non-scaling-stroke" d="
  M 203.19 78.73
  Q 179.54 61.31 148.69 69.77
  Q 147.95 69.97 148.51 70.50
  Q 176.70 96.72 173.97 134.33
  Q 173.22 144.69 169.95 153.85
  Q 163.37 172.29 148.62 185.91
  C 148.45 186.06 148.51 186.34 148.72 186.41
  Q 161.03 190.56 174.00 189.01
  Q 197.91 186.16 213.57 168.09
  Q 227.49 152.03 228.50 131.50
  Q 229.57 109.70 217.28 92.81
  Q 211.46 84.82 203.19 78.73"
/>
<path stroke="#893642" vector-effect="non-scaling-stroke" d="
  M 72.26 124.86
  C 72.26 119.23 67.70 114.67 62.07 114.67
  C 56.44 114.67 51.88 119.23 51.88 124.86
  C 51.88 130.49 56.44 135.05 62.07 135.05
  C 67.70 135.05 72.26 130.49 72.26 124.86"
/>
<path stroke="#893642" vector-effect="non-scaling-stroke" d="
  M 146.42 124.84
  C 146.42 119.21 141.85 114.64 136.22 114.64
  C 130.59 114.64 126.02 119.21 126.02 124.84
  C 126.02 130.47 130.59 135.04 136.22 135.04
  C 141.85 135.04 146.42 130.47 146.42 124.84"
/>
<path stroke="#893642" vector-effect="non-scaling-stroke" d="
  M 112.81 136.94
  Q 108.69 134.53 105.78 138.17
  Q 104.82 139.38 104.79 139.41
  Q 96.47 148.64 88.31 138.94
  Q 83.84 133.62 80.01 137.76
  Q 78.48 139.41 78.58 141.27
  Q 78.69 143.23 80.19 145.06
  Q 83.89 149.58 88.00 151.70
  Q 97.62 156.67 106.76 150.99
  Q 110.79 148.49 113.56 144.75
  Q 115.09 142.69 115.14 140.93
  Q 115.21 138.34 112.81 136.94"
/>
</g>
<path fill="#ffffff" d="
  M 0.00 0.00
  Q 128.00 0.00 256.00 0.00
  Q 256.00 27.78 256.00 55.56
  Q 228.20 45.88 199.90 57.36
  C 199.22 57.64 198.46 57.63 197.79 57.35
  Q 165.24 44.02 133.12 59.02
  C 132.56 59.28 131.92 59.28 131.38 59.02
  Q 107.34 47.69 82.42 52.52
  Q 72.57 54.44 63.51 58.81
  Q 46.48 67.02 35.31 82.06
  Q 20.43 102.11 20.08 127.02
  Q 19.94 137.00 22.41 146.82
  Q 28.93 172.71 49.85 189.00
  Q 57.75 195.15 67.03 199.08
  Q 98.55 212.40 131.72 197.19
  C 132.12 197.01 132.59 197.01 132.98 197.21
  Q 165.14 212.81 198.44 198.69
  C 198.72 198.57 199.04 198.57 199.31 198.69
  Q 227.13 210.64 256.00 201.06
  Q 256.00 228.53 256.00 256.00
  Q 128.00 256.00 0.00 256.00
  Q 0.00 128.00 0.00 0.00
  Z"
/>
<path fill="#1f1135" d="
  M 256.00 55.56
  Q 256.00 63.81 256.00 72.06
  Q 255.57 72.26 254.81 71.94
  Q 236.40 64.12 217.24 68.39
  Q 216.55 68.54 217.08 69.02
  Q 238.96 88.57 243.46 116.06
  Q 245.07 125.92 244.01 135.98
  Q 240.83 166.35 216.83 187.37
  Q 216.33 187.80 216.98 187.94
  Q 236.90 192.19 255.25 184.25
  Q 255.81 184.01 256.00 184.56
  Q 256.00 192.81 256.00 201.06
  Q 227.13 210.64 199.31 198.69
  C 199.04 198.57 198.72 198.57 198.44 198.69
  Q 165.14 212.81 132.98 197.21
  C 132.59 197.01 132.12 197.01 131.72 197.19
  Q 98.55 212.40 67.03 199.08
  Q 57.75 195.15 49.85 189.00
  Q 28.93 172.71 22.41 146.82
  Q 19.94 137.00 20.08 127.02
  Q 20.43 102.11 35.31 82.06
  Q 46.48 67.02 63.51 58.81
  Q 72.57 54.44 82.42 52.52
  Q 107.34 47.69 131.38 59.02
  C 131.92 59.28 132.56 59.28 133.12 59.02
  Q 165.24 44.02 197.79 57.35
  C 198.46 57.63 199.22 57.64 199.90 57.36
  Q 228.20 45.88 256.00 55.56
  Z
  M 158.41 128.19
  C 158.41 94.38 131.00 66.97 97.19 66.97
  C 63.38 66.97 35.97 94.38 35.97 128.19
  C 35.97 162.00 63.38 189.41 97.19 189.41
  C 131.00 189.41 158.41 162.00 158.41 128.19
  Z
  M 203.19 78.73
  Q 179.54 61.31 148.69 69.77
  Q 147.95 69.97 148.51 70.50
  Q 176.70 96.72 173.97 134.33
  Q 173.22 144.69 169.95 153.85
  Q 163.37 172.29 148.62 185.91
  C 148.45 186.06 148.51 186.34 148.72 186.41
  Q 161.03 190.56 174.00 189.01
  Q 197.91 186.16 213.57 168.09
  Q 227.49 152.03 228.50 131.50
  Q 229.57 109.70 217.28 92.81
  Q 211.46 84.82 203.19 78.73
  Z"
/>
<path fill="#f25a4e" d="
  M 158.41 128.19
  C 158.41 162.00 131.00 189.41 97.19 189.41
  C 63.38 189.41 35.97 162.00 35.97 128.19
  C 35.97 94.38 63.38 66.97 97.19 66.97
  C 131.00 66.97 158.41 94.38 158.41 128.19
  Z
  M 72.26 124.86
  C 72.26 119.23 67.70 114.67 62.07 114.67
  C 56.44 114.67 51.88 119.23 51.88 124.86
  C 51.88 130.49 56.44 135.05 62.07 135.05
  C 67.70 135.05 72.26 130.49 72.26 124.86
  Z
  M 146.42 124.84
  C 146.42 119.21 141.85 114.64 136.22 114.64
  C 130.59 114.64 126.02 119.21 126.02 124.84
  C 126.02 130.47 130.59 135.04 136.22 135.04
  C 141.85 135.04 146.42 130.47 146.42 124.84
  Z
  M 112.81 136.94
  Q 108.69 134.53 105.78 138.17
  Q 104.82 139.38 104.79 139.41
  Q 96.47 148.64 88.31 138.94
  Q 83.84 133.62 80.01 137.76
  Q 78.48 139.41 78.58 141.27
  Q 78.69 143.23 80.19 145.06
  Q 83.89 149.58 88.00 151.70
  Q 97.62 156.67 106.76 150.99
  Q 110.79 148.49 113.56 144.75
  Q 115.09 142.69 115.14 140.93
  Q 115.21 138.34 112.81 136.94
  Z"
/>
<path fill="#50c5cf" d="
  M 217.28 92.81
  Q 229.57 109.70 228.50 131.50
  Q 227.49 152.03 213.57 168.09
  Q 197.91 186.16 174.00 189.01
  Q 161.03 190.56 148.72 186.41
  C 148.51 186.34 148.45 186.06 148.62 185.91
  Q 163.37 172.29 169.95 153.85
  Q 173.22 144.69 173.97 134.33
  Q 176.70 96.72 148.51 70.50
  Q 147.95 69.97 148.69 69.77
  Q 179.54 61.31 203.19 78.73
  Q 211.46 84.82 217.28 92.81
  Z"
/>
<path fill="#fbdd74" d="
  M 256.00 72.06
  Q 256.00 128.31 256.00 184.56
  Q 255.81 184.01 255.25 184.25
  Q 236.90 192.19 216.98 187.94
  Q 216.33 187.80 216.83 187.37
  Q 240.83 166.35 244.01 135.98
  Q 245.07 125.92 243.46 116.06
  Q 238.96 88.57 217.08 69.02
  Q 216.55 68.54 217.24 68.39
  Q 236.40 64.12 254.81 71.94
  Q 255.57 72.26 256.00 72.06
  Z"
/>
<circle fill="#1f1135" cx="62.07" cy="124.86" r="10.19"/>
<circle fill="#1f1135" cx="136.22" cy="124.84" r="10.20"/>
<path fill="#1f1135" d="
  M 112.81 136.94
  Q 115.21 138.34 115.14 140.93
  Q 115.09 142.69 113.56 144.75
  Q 110.79 148.49 106.76 150.99
  Q 97.62 156.67 88.00 151.70
  Q 83.89 149.58 80.19 145.06
  Q 78.69 143.23 78.58 141.27
  Q 78.48 139.41 80.01 137.76
  Q 83.84 133.62 88.31 138.94
  Q 96.47 148.64 104.79 139.41
  Q 104.82 139.38 105.78 138.17
  Q 108.69 134.53 112.81 136.94
  Z"
/>
</svg>
