<?xml version="1.0" encoding="UTF-8" standalone="no"?>
<!DOCTYPE svg PUBLIC "-//W3C//DTD SVG 1.1//EN" "http://www.w3.org/Graphics/SVG/1.1/DTD/svg11.dtd">
<svg xmlns="http://www.w3.org/2000/svg" version="1.1" viewBox="0 0 196 196">
<g stroke-width="2.0" fill="none" stroke-linecap="butt">
<path stroke="#87c1e6" vector-effect="non-scaling-stroke" d="
  M 168.72 56.82
  L 98.75 16.42
  C 98.31 16.16 97.75 16.16 97.31 16.42
  L 27.80 56.57
  C 27.31 56.85 27.00 57.38 27.00 57.95
  L 27.00 137.87
  C 27.00 138.48 27.33 139.05 27.86 139.36
  L 97.17 179.41
  C 97.62 179.67 98.17 179.67 98.61 179.42
  L 168.38 139.07
  C 168.65 138.92 168.82 138.63 168.82 138.31
  L 168.94 57.19
  C 168.94 57.04 168.86 56.90 168.72 56.82"
/>
<path stroke="#87c1e6" vector-effect="non-scaling-stroke" d="
  M 78.07 104.56
  L 117.71 104.50
  C 118.15 104.50 118.50 104.85 118.50 105.29
  L 118.56 132.93
  C 118.56 133.27 118.71 133.58 118.96 133.74
  L 124.55 137.26
  C 124.84 137.44 125.19 137.46 125.45 137.30
  L 131.42 133.86
  C 131.67 133.72 131.82 133.42 131.82 133.07
  L 131.80 62.44
  C 131.80 62.25 131.70 62.07 131.54 61.97
  L 125.95 58.52
  C 125.53 58.26 124.95 58.27 124.46 58.55
  L 119.21 61.54
  C 118.92 61.71 118.74 61.98 118.73 62.25
  L 118.52 90.24
  C 118.52 90.76 118.10 91.19 117.59 91.19
  L 78.18 91.25
  C 77.80 91.25 77.50 90.94 77.50 90.56
  L 77.44 62.31
  C 77.44 62.04 77.26 61.78 76.98 61.61
  L 71.95 58.60
  C 71.46 58.30 70.89 58.27 70.48 58.50
  L 64.73 61.76
  C 64.43 61.93 64.25 62.25 64.25 62.61
  L 64.25 133.26
  C 64.25 133.67 64.51 134.07 64.92 134.30
  L 70.21 137.28
  C 70.57 137.49 70.98 137.51 71.26 137.34
  L 77.28 133.72
  C 77.53 133.57 77.68 133.27 77.68 132.93
  L 77.55 105.06
  C 77.55 104.78 77.78 104.56 78.07 104.56"
/>
</g>
<path fill="#ffffff" d="
  M 0.00 0.00
  Q 98.00 0.00 196.00 0.00
  Q 196.00 98.00 196.00 196.00
  Q 98.00 196.00 0.00 196.00
  Q 0.00 98.00 0.00 0.00
  Z
  M 168.72 56.82
  L 98.75 16.42
  C 98.31 16.16 97.75 16.16 97.31 16.42
  L 27.80 56.57
  C 27.31 56.85 27.00 57.38 27.00 57.95
  L 27.00 137.87
  C 27.00 138.48 27.33 139.05 27.86 139.36
  L 97.17 179.41
  C 97.62 179.67 98.17 179.67 98.61 179.42
  L 168.38 139.07
  C 168.65 138.92 168.82 138.63 168.82 138.31
  L 168.94 57.19
  C 168.94 57.04 168.86 56.90 168.72 56.82
  Z"
/>
<path fill="#0e83cd" d="
  M 168.72 56.82
  C 168.86 56.90 168.94 57.04 168.94 57.19
  L 168.82 138.31
  C 168.82 138.63 168.65 138.92 168.38 139.07
  L 98.61 179.42
  C 98.17 179.67 97.62 179.67 97.17 179.41
  L 27.86 139.36
  C 27.33 139.05 27.00 138.48 27.00 137.87
  L 27.00 57.95
  C 27.00 57.38 27.31 56.85 27.80 56.57
  L 97.31 16.42
  C 97.75 16.16 98.31 16.16 98.75 16.42
  L 168.72 56.82
  Z
  M 78.07 104.56
  L 117.71 104.50
  C 118.15 104.50 118.50 104.85 118.50 105.29
  L 118.56 132.93
  C 118.56 133.27 118.71 133.58 118.96 133.74
  L 124.55 137.26
  C 124.84 137.44 125.19 137.46 125.45 137.30
  L 131.42 133.86
  C 131.67 133.72 131.82 133.42 131.82 133.07
  L 131.80 62.44
  C 131.80 62.25 131.70 62.07 131.54 61.97
  L 125.95 58.52
  C 125.53 58.26 124.95 58.27 124.46 58.55
  L 119.21 61.54
  C 118.92 61.71 118.74 61.98 118.73 62.25
  L 118.52 90.24
  C 118.52 90.76 118.10 91.19 117.59 91.19
  L 78.18 91.25
  C 77.80 91.25 77.50 90.94 77.50 90.56
  L 77.44 62.31
  C 77.44 62.04 77.26 61.78 76.98 61.61
  L 71.95 58.60
  C 71.46 58.30 70.89 58.27 70.48 58.50
  L 64.73 61.76
  C 64.43 61.93 64.25 62.25 64.25 62.61
  L 64.25 133.26
  C 64.25 133.67 64.51 134.07 64.92 134.30
  L 70.21 137.28
  C 70.57 137.49 70.98 137.51 71.26 137.34
  L 77.28 133.72
  C 77.53 133.57 77.68 133.27 77.68 132.93
  L 77.55 105.06
  C 77.55 104.78 77.78 104.56 78.07 104.56
  Z"
/>
<path fill="#ffffff" d="
  M 77.55 105.06
  L 77.68 132.93
  C 77.68 133.27 77.53 133.57 77.28 133.72
  L 71.26 137.34
  C 70.98 137.51 70.57 137.49 70.21 137.28
  L 64.92 134.30
  C 64.51 134.07 64.25 133.67 64.25 133.26
  L 64.25 62.61
  C 64.25 62.25 64.43 61.93 64.73 61.76
  L 70.48 58.50
  C 70.89 58.27 71.46 58.30 71.95 58.60
  L 76.98 61.61
  C 77.26 61.78 77.44 62.04 77.44 62.31
  L 77.50 90.56
  C 77.50 90.94 77.80 91.25 78.18 91.25
  L 117.59 91.19
  C 118.10 91.19 118.52 90.76 118.52 90.24
  L 118.73 62.25
  C 118.74 61.98 118.92 61.71 119.21 61.54
  L 124.46 58.55
  C 124.95 58.27 125.53 58.26 125.95 58.52
  L 131.54 61.97
  C 131.70 62.07 131.80 62.25 131.80 62.44
  L 131.82 133.07
  C 131.82 133.42 131.67 133.72 131.42 133.86
  L 125.45 137.30
  C 125.19 137.46 124.84 137.44 124.55 137.26
  L 118.96 133.74
  C 118.71 133.58 118.56 133.27 118.56 132.93
  L 118.50 105.29
  C 118.50 104.85 118.15 104.50 117.71 104.50
  L 78.07 104.56
  C 77.78 104.56 77.55 104.78 77.55 105.06
  Z"
/>
</svg>
