<?xml version="1.0" encoding="UTF-8" standalone="no"?>
<!DOCTYPE svg PUBLIC "-//W3C//DTD SVG 1.1//EN" "http://www.w3.org/Graphics/SVG/1.1/DTD/svg11.dtd">
<svg xmlns="http://www.w3.org/2000/svg" version="1.1" viewBox="0 0 320 320">
<g stroke-width="2.0" fill="none" stroke-linecap="butt">
<path stroke="#fdcd81" vector-effect="non-scaling-stroke" d="
  M 109.31 112.44
  Q 101.06 104.61 86.10 93.37
  Q 74.41 84.59 70.41 81.01
  Q 60.89 72.52 52.42 62.30
  Q 51.87 61.64 51.60 62.46
  Q 47.15 75.73 46.90 89.76
  Q 46.71 100.89 49.56 109.47
  Q 54.04 122.90 65.05 132.70
  Q 72.82 139.61 82.01 144.49
  Q 92.59 150.11 103.55 154.96
  Q 109.34 157.53 112.94 160.31
  Q 114.00 161.13 115.23 163.07
  C 115.40 163.33 115.70 163.48 115.99 163.44
  Q 129.80 161.78 143.49 164.25
  Q 144.58 164.44 144.16 163.42
  Q 132.12 134.06 109.31 112.44"
/>
<path stroke="#fdcd81" vector-effect="non-scaling-stroke" d="
  M 138.76 251.71
  Q 138.64 248.67 141.08 246.29
  Q 141.94 245.45 144.42 244.62
  Q 146.55 243.92 147.69 242.44
  Q 151.33 237.70 154.75 232.81
  Q 156.37 230.50 158.75 229.00
  Q 160.33 228.00 161.55 229.43
  Q 163.94 232.22 161.99 235.42
  Q 158.91 240.47 155.56 245.63
  C 155.23 246.14 155.36 246.82 155.85 247.18
  Q 166.59 254.90 178.79 257.02
  Q 200.62 260.82 217.69 247.19
  C 217.81 247.09 217.81 246.91 217.69 246.81
  Q 207.37 238.56 196.96 230.42
  Q 187.81 223.27 185.22 219.37
  Q 179.99 211.49 180.77 201.06
  C 180.79 200.78 181.02 200.55 181.31 200.52
  Q 188.07 199.93 194.13 197.15
  Q 197.89 195.42 200.28 193.04
  Q 202.88 190.44 204.69 186.94
  Q 210.03 176.58 219.80 169.55
  Q 226.29 164.88 229.06 163.31
  Q 240.51 156.81 248.50 150.50
  Q 258.50 142.60 264.23 131.24
  Q 268.18 123.41 270.39 112.29
  Q 274.78 90.26 269.76 68.11
  C 269.69 67.80 269.36 67.62 269.06 67.73
  Q 245.21 75.83 223.18 86.61
  Q 206.54 94.74 194.56 104.06
  Q 185.19 111.36 179.06 120.56
  Q 171.53 131.86 167.13 145.44
  Q 167.11 145.50 165.63 150.71
  Q 163.25 159.09 158.94 163.94
  Q 153.82 169.69 146.00 168.78
  Q 138.41 167.90 130.82 167.08
  Q 117.45 165.65 105.81 172.06
  Q 99.06 175.78 98.09 183.76
  Q 97.84 185.82 97.02 187.90
  Q 95.30 192.21 95.81 197.39
  Q 96.05 199.75 97.54 197.91
  Q 98.64 196.53 99.88 195.61
  Q 101.03 194.75 102.87 194.75
  Q 106.82 194.75 111.35 194.75
  C 112.21 194.75 113.05 194.52 113.79 194.08
  Q 120.02 190.35 126.31 193.94
  Q 130.77 196.48 131.64 201.25
  Q 132.24 204.58 130.68 209.61
  Q 128.76 215.83 125.10 221.34
  Q 123.17 224.25 123.52 227.75
  Q 123.79 230.45 122.61 234.25
  Q 122.05 236.10 120.18 235.61
  Q 114.37 234.10 108.77 233.25
  Q 106.74 232.95 105.21 233.13
  Q 102.78 233.43 101.81 234.31
  Q 100.66 235.37 102.03 235.53
  Q 104.00 235.75 106.00 235.75
  Q 107.72 235.75 106.69 236.94
  L 104.75 239.16
  Q 103.23 240.90 105.51 240.16
  Q 107.69 239.46 110.30 239.50
  Q 112.22 239.53 110.60 240.56
  Q 109.43 241.31 109.03 243.07
  C 108.98 243.30 109.19 243.50 109.43 243.45
  Q 118.52 241.42 126.46 248.19
  C 126.73 248.42 127.16 248.29 127.25 247.94
  Q 128.31 243.93 127.62 240.73
  C 127.55 240.41 127.62 240.08 127.83 239.87
  Q 129.26 238.38 131.93 237.87
  C 132.24 237.81 132.52 238.06 132.49 238.37
  Q 132.35 240.29 132.74 242.19
  Q 133.24 244.57 132.94 245.86
  Q 132.20 248.99 130.16 250.80
  Q 128.53 252.24 126.35 252.25
  Q 120.09 252.27 115.80 255.83
  Q 114.35 257.03 116.22 256.60
  L 121.24 255.46
  Q 122.44 255.19 121.71 256.21
  Q 120.97 257.24 120.23 258.49
  Q 119.71 259.34 120.26 259.63
  C 120.49 259.74 120.84 259.68 121.17 259.47
  Q 124.16 257.60 127.98 257.42
  Q 129.17 257.37 128.53 258.37
  L 127.27 260.33
  C 127.06 260.66 126.99 261.00 127.10 261.24
  Q 127.29 261.66 127.83 261.35
  Q 135.83 256.70 144.71 259.29
  C 144.94 259.36 145.16 259.17 145.11 258.94
  Q 144.46 255.87 139.97 253.60
  C 139.26 253.24 138.80 252.51 138.76 251.71"
/>
<path stroke="#fdcd81" vector-effect="non-scaling-stroke" d="
  M 108.54 180.63
  C 108.54 179.22 107.40 178.08 105.99 178.08
  C 104.58 178.08 103.44 179.22 103.44 180.63
  C 103.44 182.04 104.58 183.18 105.99 183.18
  C 107.40 183.18 108.54 182.04 108.54 180.63"
/>
</g>
<path fill="#fc9d05" d="
  M 0.00 0.00
  Q 160.00 0.00 320.00 0.00
  Q 320.00 160.00 320.00 320.00
  Q 160.00 320.00 0.00 320.00
  Q 0.00 160.00 0.00 0.00
  Z
  M 109.31 112.44
  Q 101.06 104.61 86.10 93.37
  Q 74.41 84.59 70.41 81.01
  Q 60.89 72.52 52.42 62.30
  Q 51.87 61.64 51.60 62.46
  Q 47.15 75.73 46.90 89.76
  Q 46.71 100.89 49.56 109.47
  Q 54.04 122.90 65.05 132.70
  Q 72.82 139.61 82.01 144.49
  Q 92.59 150.11 103.55 154.96
  Q 109.34 157.53 112.94 160.31
  Q 114.00 161.13 115.23 163.07
  C 115.40 163.33 115.70 163.48 115.99 163.44
  Q 129.80 161.78 143.49 164.25
  Q 144.58 164.44 144.16 163.42
  Q 132.12 134.06 109.31 112.44
  Z
  M 138.76 251.71
  Q 138.64 248.67 141.08 246.29
  Q 141.94 245.45 144.42 244.62
  Q 146.55 243.92 147.69 242.44
  Q 151.33 237.70 154.75 232.81
  Q 156.37 230.50 158.75 229.00
  Q 160.33 228.00 161.55 229.43
  Q 163.94 232.22 161.99 235.42
  Q 158.91 240.47 155.56 245.63
  C 155.23 246.14 155.36 246.82 155.85 247.18
  Q 166.59 254.90 178.79 257.02
  Q 200.62 260.82 217.69 247.19
  C 217.81 247.09 217.81 246.91 217.69 246.81
  Q 207.37 238.56 196.96 230.42
  Q 187.81 223.27 185.22 219.37
  Q 179.99 211.49 180.77 201.06
  C 180.79 200.78 181.02 200.55 181.31 200.52
  Q 188.07 199.93 194.13 197.15
  Q 197.89 195.42 200.28 193.04
  Q 202.88 190.44 204.69 186.94
  Q 210.03 176.58 219.80 169.55
  Q 226.29 164.88 229.06 163.31
  Q 240.51 156.81 248.50 150.50
  Q 258.50 142.60 264.23 131.24
  Q 268.18 123.41 270.39 112.29
  Q 274.78 90.26 269.76 68.11
  C 269.69 67.80 269.36 67.62 269.06 67.73
  Q 245.21 75.83 223.18 86.61
  Q 206.54 94.74 194.56 104.06
  Q 185.19 111.36 179.06 120.56
  Q 171.53 131.86 167.13 145.44
  Q 167.11 145.50 165.63 150.71
  Q 163.25 159.09 158.94 163.94
  Q 153.82 169.69 146.00 168.78
  Q 138.41 167.90 130.82 167.08
  Q 117.45 165.65 105.81 172.06
  Q 99.06 175.78 98.09 183.76
  Q 97.84 185.82 97.02 187.90
  Q 95.30 192.21 95.81 197.39
  Q 96.05 199.75 97.54 197.91
  Q 98.64 196.53 99.88 195.61
  Q 101.03 194.75 102.87 194.75
  Q 106.82 194.75 111.35 194.75
  C 112.21 194.75 113.05 194.52 113.79 194.08
  Q 120.02 190.35 126.31 193.94
  Q 130.77 196.48 131.64 201.25
  Q 132.24 204.58 130.68 209.61
  Q 128.76 215.83 125.10 221.34
  Q 123.17 224.25 123.52 227.75
  Q 123.79 230.45 122.61 234.25
  Q 122.05 236.10 120.18 235.61
  Q 114.37 234.10 108.77 233.25
  Q 106.74 232.95 105.21 233.13
  Q 102.78 233.43 101.81 234.31
  Q 100.66 235.37 102.03 235.53
  Q 104.00 235.75 106.00 235.75
  Q 107.72 235.75 106.69 236.94
  L 104.75 239.16
  Q 103.23 240.90 105.51 240.16
  Q 107.69 239.46 110.30 239.50
  Q 112.22 239.53 110.60 240.56
  Q 109.43 241.31 109.03 243.07
  C 108.98 243.30 109.19 243.50 109.43 243.45
  Q 118.52 241.42 126.46 248.19
  C 126.73 248.42 127.16 248.29 127.25 247.94
  Q 128.31 243.93 127.62 240.73
  C 127.55 240.41 127.62 240.08 127.83 239.87
  Q 129.26 238.38 131.93 237.87
  C 132.24 237.81 132.52 238.06 132.49 238.37
  Q 132.35 240.29 132.74 242.19
  Q 133.24 244.57 132.94 245.86
  Q 132.20 248.99 130.16 250.80
  Q 128.53 252.24 126.35 252.25
  Q 120.09 252.27 115.80 255.83
  Q 114.35 257.03 116.22 256.60
  L 121.24 255.46
  Q 122.44 255.19 121.71 256.21
  Q 120.97 257.24 120.23 258.49
  Q 119.71 259.34 120.26 259.63
  C 120.49 259.74 120.84 259.68 121.17 259.47
  Q 124.16 257.60 127.98 257.42
  Q 129.17 257.37 128.53 258.37
  L 127.27 260.33
  C 127.06 260.66 126.99 261.00 127.10 261.24
  Q 127.29 261.66 127.83 261.35
  Q 135.83 256.70 144.71 259.29
  C 144.94 259.36 145.16 259.17 145.11 258.94
  Q 144.46 255.87 139.97 253.60
  C 139.26 253.24 138.80 252.51 138.76 251.71
  Z"
/>
<path fill="#fdfdfd" d="
  M 109.31 112.44
  Q 132.12 134.06 144.16 163.42
  Q 144.58 164.44 143.49 164.25
  Q 129.80 161.78 115.99 163.44
  C 115.70 163.48 115.40 163.33 115.23 163.07
  Q 114.00 161.13 112.94 160.31
  Q 109.34 157.53 103.55 154.96
  Q 92.59 150.11 82.01 144.49
  Q 72.82 139.61 65.05 132.70
  Q 54.04 122.90 49.56 109.47
  Q 46.71 100.89 46.90 89.76
  Q 47.15 75.73 51.60 62.46
  Q 51.87 61.64 52.42 62.30
  Q 60.89 72.52 70.41 81.01
  Q 74.41 84.59 86.10 93.37
  Q 101.06 104.61 109.31 112.44
  Z"
/>
<path fill="#fdfdfd" d="
  M 138.76 251.71
  C 138.80 252.51 139.26 253.24 139.97 253.60
  Q 144.46 255.87 145.11 258.94
  C 145.16 259.17 144.94 259.36 144.71 259.29
  Q 135.83 256.70 127.83 261.35
  Q 127.29 261.66 127.10 261.24
  C 126.99 261.00 127.06 260.66 127.27 260.33
  L 128.53 258.37
  Q 129.17 257.37 127.98 257.42
  Q 124.16 257.60 121.17 259.47
  C 120.84 259.68 120.49 259.74 120.26 259.63
  Q 119.71 259.34 120.23 258.49
  Q 120.97 257.24 121.71 256.21
  Q 122.44 255.19 121.24 255.46
  L 116.22 256.60
  Q 114.35 257.03 115.80 255.83
  Q 120.09 252.27 126.35 252.25
  Q 128.53 252.24 130.16 250.80
  Q 132.20 248.99 132.94 245.86
  Q 133.24 244.57 132.74 242.19
  Q 132.35 240.29 132.49 238.37
  C 132.52 238.06 132.24 237.81 131.93 237.87
  Q 129.26 238.38 127.83 239.87
  C 127.62 240.08 127.55 240.41 127.62 240.73
  Q 128.31 243.93 127.25 247.94
  C 127.16 248.29 126.73 248.42 126.46 248.19
  Q 118.52 241.42 109.43 243.45
  C 109.19 243.50 108.98 243.30 109.03 243.07
  Q 109.43 241.31 110.60 240.56
  Q 112.22 239.53 110.30 239.50
  Q 107.69 239.46 105.51 240.16
  Q 103.23 240.90 104.75 239.16
  L 106.69 236.94
  Q 107.72 235.75 106.00 235.75
  Q 104.00 235.75 102.03 235.53
  Q 100.66 235.37 101.81 234.31
  Q 102.78 233.43 105.21 233.13
  Q 106.74 232.95 108.77 233.25
  Q 114.37 234.10 120.18 235.61
  Q 122.05 236.10 122.61 234.25
  Q 123.79 230.45 123.52 227.75
  Q 123.17 224.25 125.10 221.34
  Q 128.76 215.83 130.68 209.61
  Q 132.24 204.58 131.64 201.25
  Q 130.77 196.48 126.31 193.94
  Q 120.02 190.35 113.79 194.08
  C 113.05 194.52 112.21 194.75 111.35 194.75
  Q 106.82 194.75 102.87 194.75
  Q 101.03 194.75 99.88 195.61
  Q 98.64 196.53 97.54 197.91
  Q 96.05 199.75 95.81 197.39
  Q 95.30 192.21 97.02 187.90
  Q 97.84 185.82 98.09 183.76
  Q 99.06 175.78 105.81 172.06
  Q 117.45 165.65 130.82 167.08
  Q 138.41 167.90 146.00 168.78
  Q 153.82 169.69 158.94 163.94
  Q 163.25 159.09 165.63 150.71
  Q 167.11 145.50 167.13 145.44
  Q 171.53 131.86 179.06 120.56
  Q 185.19 111.36 194.56 104.06
  Q 206.54 94.74 223.18 86.61
  Q 245.21 75.83 269.06 67.73
  C 269.36 67.62 269.69 67.80 269.76 68.11
  Q 274.78 90.26 270.39 112.29
  Q 268.18 123.41 264.23 131.24
  Q 258.50 142.60 248.50 150.50
  Q 240.51 156.81 229.06 163.31
  Q 226.29 164.88 219.80 169.55
  Q 210.03 176.58 204.69 186.94
  Q 202.88 190.44 200.28 193.04
  Q 197.89 195.42 194.13 197.15
  Q 188.07 199.93 181.31 200.52
  C 181.02 200.55 180.79 200.78 180.77 201.06
  Q 179.99 211.49 185.22 219.37
  Q 187.81 223.27 196.96 230.42
  Q 207.37 238.56 217.69 246.81
  C 217.81 246.91 217.81 247.09 217.69 247.19
  Q 200.62 260.82 178.79 257.02
  Q 166.59 254.90 155.85 247.18
  C 155.36 246.82 155.23 246.14 155.56 245.63
  Q 158.91 240.47 161.99 235.42
  Q 163.94 232.22 161.55 229.43
  Q 160.33 228.00 158.75 229.00
  Q 156.37 230.50 154.75 232.81
  Q 151.33 237.70 147.69 242.44
  Q 146.55 243.92 144.42 244.62
  Q 141.94 245.45 141.08 246.29
  Q 138.64 248.67 138.76 251.71
  Z
  M 108.54 180.63
  C 108.54 179.22 107.40 178.08 105.99 178.08
  C 104.58 178.08 103.44 179.22 103.44 180.63
  C 103.44 182.04 104.58 183.18 105.99 183.18
  C 107.40 183.18 108.54 182.04 108.54 180.63
  Z"
/>
<circle fill="#fc9d05" cx="105.99" cy="180.63" r="2.55"/>
</svg>
