<?xml version="1.0" encoding="UTF-8" standalone="no"?>
<!DOCTYPE svg PUBLIC "-//W3C//DTD SVG 1.1//EN" "http://www.w3.org/Graphics/SVG/1.1/DTD/svg11.dtd">
<svg xmlns="http://www.w3.org/2000/svg" version="1.1" viewBox="0 0 192 192">
<g stroke-width="2.0" fill="none" stroke-linecap="butt">
<path stroke="#98baca" vector-effect="non-scaling-stroke" d="
  M 179.89 96.01
  C 179.89 49.68 142.33 12.12 96.00 12.12
  C 49.67 12.12 12.11 49.68 12.11 96.01
  C 12.11 142.34 49.67 179.90 96.00 179.90
  C 142.33 179.90 179.89 142.34 179.89 96.01"
/>
<path stroke="#98baca" vector-effect="non-scaling-stroke" d="
  M 71.8689 68.6645
  C 71.86 64.05 68.11 60.31 63.4943 60.3191
  L 62.4543 60.3209
  C 57.84 60.33 54.10 64.08 54.1089 68.6955
  L 54.1311 81.4555
  C 54.14 86.07 57.89 89.81 62.5057 89.8009
  L 63.5457 89.7991
  C 68.16 89.79 71.90 86.04 71.8911 81.4245
  L 71.8689 68.6645"
/>
<path stroke="#98baca" vector-effect="non-scaling-stroke" d="
  M 137.9869 68.8193
  C 138.04 64.19 134.34 60.39 129.7099 60.3376
  L 128.6500 60.3246
  C 124.02 60.27 120.22 63.97 120.1682 68.6016
  L 120.0131 81.3007
  C 119.96 85.93 123.66 89.73 128.2901 89.7824
  L 129.3500 89.7954
  C 133.98 89.85 137.78 86.15 137.8318 81.5184
  L 137.9869 68.8193"
/>
<path stroke="#98baca" vector-effect="non-scaling-stroke" d="
  M 148.97 122.17
  Q 147.42 121.80 145.88 122.57
  Q 142.42 124.32 139.05 126.23
  Q 134.23 128.96 132.21 129.90
  Q 112.65 139.05 90.75 137.78
  Q 69.56 136.56 52.19 124.56
  Q 50.98 123.73 48.32 122.47
  Q 47.23 121.96 46.47 122.06
  Q 45.18 122.23 44.89 123.46
  Q 44.66 124.37 45.23 125.85
  Q 47.40 131.52 51.94 136.06
  Q 60.91 145.03 71.98 150.29
  Q 81.15 154.66 91.01 155.62
  Q 100.25 156.52 110.32 153.88
  Q 125.59 149.87 138.17 139.70
  Q 144.22 134.80 148.62 128.39
  Q 150.00 126.40 150.25 123.98
  C 150.34 123.14 149.79 122.36 148.97 122.17"
/>
</g>
<path fill="#307594" d="
  M 92.81 0.00
  Q 96.06 0.00 99.31 0.00
  Q 144.62 2.75 171.69 37.06
  Q 190.74 61.21 192.00 93.81
  Q 192.00 96.06 192.00 98.31
  Q 189.34 147.82 150.19 175.19
  Q 128.08 190.64 98.94 192.00
  Q 96.06 192.00 93.19 192.00
  Q 46.85 189.43 19.56 153.94
  Q 1.47 130.41 0.00 98.94
  Q 0.00 95.81 0.00 92.69
  Q 3.27 42.74 43.31 15.81
  Q 64.72 1.42 92.81 0.00
  Z
  M 179.89 96.01
  C 179.89 49.68 142.33 12.12 96.00 12.12
  C 49.67 12.12 12.11 49.68 12.11 96.01
  C 12.11 142.34 49.67 179.90 96.00 179.90
  C 142.33 179.90 179.89 142.34 179.89 96.01
  Z"
/>
<path fill="#ffffff" d="
  M 179.89 96.01
  C 179.89 142.34 142.33 179.90 96.00 179.90
  C 49.67 179.90 12.11 142.34 12.11 96.01
  C 12.11 49.68 49.67 12.12 96.00 12.12
  C 142.33 12.12 179.89 49.68 179.89 96.01
  Z
  M 71.8689 68.6645
  C 71.86 64.05 68.11 60.31 63.4943 60.3191
  L 62.4543 60.3209
  C 57.84 60.33 54.10 64.08 54.1089 68.6955
  L 54.1311 81.4555
  C 54.14 86.07 57.89 89.81 62.5057 89.8009
  L 63.5457 89.7991
  C 68.16 89.79 71.90 86.04 71.8911 81.4245
  L 71.8689 68.6645
  Z
  M 137.9869 68.8193
  C 138.04 64.19 134.34 60.39 129.7099 60.3376
  L 128.6500 60.3246
  C 124.02 60.27 120.22 63.97 120.1682 68.6016
  L 120.0131 81.3007
  C 119.96 85.93 123.66 89.73 128.2901 89.7824
  L 129.3500 89.7954
  C 133.98 89.85 137.78 86.15 137.8318 81.5184
  L 137.9869 68.8193
  Z
  M 148.97 122.17
  Q 147.42 121.80 145.88 122.57
  Q 142.42 124.32 139.05 126.23
  Q 134.23 128.96 132.21 129.90
  Q 112.65 139.05 90.75 137.78
  Q 69.56 136.56 52.19 124.56
  Q 50.98 123.73 48.32 122.47
  Q 47.23 121.96 46.47 122.06
  Q 45.18 122.23 44.89 123.46
  Q 44.66 124.37 45.23 125.85
  Q 47.40 131.52 51.94 136.06
  Q 60.91 145.03 71.98 150.29
  Q 81.15 154.66 91.01 155.62
  Q 100.25 156.52 110.32 153.88
  Q 125.59 149.87 138.17 139.70
  Q 144.22 134.80 148.62 128.39
  Q 150.00 126.40 150.25 123.98
  C 150.34 123.14 149.79 122.36 148.97 122.17
  Z"
/>
<rect fill="#307594" x="-8.88" y="-14.74" transform="translate(63.00,75.06) rotate(-0.1)" width="17.76" height="29.48" rx="8.36"/>
<rect fill="#307594" x="-8.91" y="-14.73" transform="translate(129.00,75.06) rotate(0.7)" width="17.82" height="29.46" rx="8.38"/>
<path fill="#307594" d="
  M 148.97 122.17
  C 149.79 122.36 150.34 123.14 150.25 123.98
  Q 150.00 126.40 148.62 128.39
  Q 144.22 134.80 138.17 139.70
  Q 125.59 149.87 110.32 153.88
  Q 100.25 156.52 91.01 155.62
  Q 81.15 154.66 71.98 150.29
  Q 60.91 145.03 51.94 136.06
  Q 47.40 131.52 45.23 125.85
  Q 44.66 124.37 44.89 123.46
  Q 45.18 122.23 46.47 122.06
  Q 47.23 121.96 48.32 122.47
  Q 50.98 123.73 52.19 124.56
  Q 69.56 136.56 90.75 137.78
  Q 112.65 139.05 132.21 129.90
  Q 134.23 128.96 139.05 126.23
  Q 142.42 124.32 145.88 122.57
  Q 147.42 121.80 148.97 122.17
  Z"
/>
</svg>
