<?xml version="1.0" encoding="UTF-8" standalone="no"?>
<!DOCTYPE svg PUBLIC "-//W3C//DTD SVG 1.1//EN" "http://www.w3.org/Graphics/SVG/1.1/DTD/svg11.dtd">
<svg xmlns="http://www.w3.org/2000/svg" version="1.1" viewBox="0 0 64 64">
<g stroke-width="2.0" fill="none" stroke-linecap="butt">
<path stroke="#808080" vector-effect="non-scaling-stroke" d="
  M 49.91 17.00
  C 49.91 12.08 45.92 8.09 41.00 8.09
  C 36.08 8.09 32.09 12.08 32.09 17.00
  C 32.09 21.92 36.08 25.91 41.00 25.91
  C 45.92 25.91 49.91 21.92 49.91 17.00"
/>
<path stroke="#808080" vector-effect="non-scaling-stroke" d="
  M 24.46 16.27
  L 27.46 13.16
  C 27.69 12.93 27.69 12.56 27.46 12.35
  L 25.43 10.51
  C 25.23 10.32 24.88 10.36 24.63 10.60
  L 21.45 13.66
  C 21.13 13.97 20.58 13.92 20.21 13.55
  L 17.17 10.54
  C 16.96 10.33 16.60 10.35 16.37 10.57
  L 14.48 12.39
  C 14.21 12.66 14.23 13.11 14.52 13.41
  L 17.66 16.62
  C 17.86 16.82 17.86 17.15 17.66 17.36
  L 14.60 20.63
  C 14.36 20.88 14.32 21.23 14.50 21.43
  L 16.34 23.45
  C 16.54 23.67 16.90 23.66 17.15 23.44
  L 20.64 20.36
  C 20.85 20.17 21.16 20.17 21.36 20.35
  L 24.69 23.37
  C 24.92 23.57 25.25 23.61 25.51 23.47
  Q 26.89 22.71 27.51 21.28
  C 27.61 21.06 27.53 20.76 27.31 20.50
  L 24.32 17.00
  C 24.17 16.83 24.23 16.51 24.46 16.27"
/>
<path stroke="#808080" vector-effect="non-scaling-stroke" d="
  M 16.34 40.98
  Q 15.62 39.33 16.87 38.49
  Q 17.60 38.00 19.24 38.00
  Q 30.24 38.00 41.24 38.00
  Q 41.32 38.00 43.26 37.89
  Q 47.33 37.66 49.61 41.16
  Q 51.23 43.64 53.38 45.66
  C 53.58 45.85 53.89 45.82 54.04 45.61
  Q 57.05 41.42 55.31 36.69
  Q 54.03 33.20 51.00 31.45
  Q 48.94 30.27 44.75 30.16
  Q 34.10 29.88 23.46 29.96
  Q 17.57 30.01 16.54 30.19
  Q 12.62 30.88 10.34 33.83
  Q 7.29 37.76 8.50 42.66
  Q 9.42 46.39 12.84 48.40
  Q 15.14 49.76 19.44 49.94
  Q 24.54 50.15 29.61 49.94
  Q 30.20 49.92 29.82 49.45
  L 24.83 43.25
  Q 23.56 41.67 21.67 41.94
  Q 19.09 42.31 17.02 41.61
  C 16.71 41.51 16.47 41.28 16.34 40.98"
/>
<path stroke="#808080" vector-effect="non-scaling-stroke" d="
  M 42.70 55.59
  Q 44.82 56.44 47.00 55.50
  Q 51.07 53.75 49.44 49.31
  Q 48.87 47.79 44.26 42.43
  C 44.05 42.19 43.75 42.05 43.44 42.05
  L 30.76 42.01
  Q 30.24 42.00 30.55 42.42
  Q 34.88 48.44 39.48 53.12
  Q 41.39 55.06 42.70 55.59"
/>
<path stroke="#808080" vector-effect="non-scaling-stroke" d="
  M 44.36 17.02
  C 44.36 15.16 42.85 13.65 40.99 13.65
  C 39.13 13.65 37.62 15.16 37.62 17.02
  C 37.62 18.88 39.13 20.39 40.99 20.39
  C 42.85 20.39 44.36 18.88 44.36 17.02"
/>
</g>
<path fill="#000000" d="
  M 0.00 0.00
  Q 32.00 0.00 64.00 0.00
  Q 64.00 32.00 64.00 64.00
  Q 32.00 64.00 0.00 64.00
  Q 0.00 32.00 0.00 0.00
  Z
  M 49.91 17.00
  C 49.91 12.08 45.92 8.09 41.00 8.09
  C 36.08 8.09 32.09 12.08 32.09 17.00
  C 32.09 21.92 36.08 25.91 41.00 25.91
  C 45.92 25.91 49.91 21.92 49.91 17.00
  Z
  M 24.46 16.27
  L 27.46 13.16
  C 27.69 12.93 27.69 12.56 27.46 12.35
  L 25.43 10.51
  C 25.23 10.32 24.88 10.36 24.63 10.60
  L 21.45 13.66
  C 21.13 13.97 20.58 13.92 20.21 13.55
  L 17.17 10.54
  C 16.96 10.33 16.60 10.35 16.37 10.57
  L 14.48 12.39
  C 14.21 12.66 14.23 13.11 14.52 13.41
  L 17.66 16.62
  C 17.86 16.82 17.86 17.15 17.66 17.36
  L 14.60 20.63
  C 14.36 20.88 14.32 21.23 14.50 21.43
  L 16.34 23.45
  C 16.54 23.67 16.90 23.66 17.15 23.44
  L 20.64 20.36
  C 20.85 20.17 21.16 20.17 21.36 20.35
  L 24.69 23.37
  C 24.92 23.57 25.25 23.61 25.51 23.47
  Q 26.89 22.71 27.51 21.28
  C 27.61 21.06 27.53 20.76 27.31 20.50
  L 24.32 17.00
  C 24.17 16.83 24.23 16.51 24.46 16.27
  Z
  M 16.34 40.98
  Q 15.62 39.33 16.87 38.49
  Q 17.60 38.00 19.24 38.00
  Q 30.24 38.00 41.24 38.00
  Q 41.32 38.00 43.26 37.89
  Q 47.33 37.66 49.61 41.16
  Q 51.23 43.64 53.38 45.66
  C 53.58 45.85 53.89 45.82 54.04 45.61
  Q 57.05 41.42 55.31 36.69
  Q 54.03 33.20 51.00 31.45
  Q 48.94 30.27 44.75 30.16
  Q 34.10 29.88 23.46 29.96
  Q 17.57 30.01 16.54 30.19
  Q 12.62 30.88 10.34 33.83
  Q 7.29 37.76 8.50 42.66
  Q 9.42 46.39 12.84 48.40
  Q 15.14 49.76 19.44 49.94
  Q 24.54 50.15 29.61 49.94
  Q 30.20 49.92 29.82 49.45
  L 24.83 43.25
  Q 23.56 41.67 21.67 41.94
  Q 19.09 42.31 17.02 41.61
  C 16.71 41.51 16.47 41.28 16.34 40.98
  Z
  M 42.70 55.59
  Q 44.82 56.44 47.00 55.50
  Q 51.07 53.75 49.44 49.31
  Q 48.87 47.79 44.26 42.43
  C 44.05 42.19 43.75 42.05 43.44 42.05
  L 30.76 42.01
  Q 30.24 42.00 30.55 42.42
  Q 34.88 48.44 39.48 53.12
  Q 41.39 55.06 42.70 55.59
  Z"
/>
<path fill="#ffffff" d="
  M 49.91 17.00
  C 49.91 21.92 45.92 25.91 41.00 25.91
  C 36.08 25.91 32.09 21.92 32.09 17.00
  C 32.09 12.08 36.08 8.09 41.00 8.09
  C 45.92 8.09 49.91 12.08 49.91 17.00
  Z
  M 44.36 17.02
  C 44.36 15.16 42.85 13.65 40.99 13.65
  C 39.13 13.65 37.62 15.16 37.62 17.02
  C 37.62 18.88 39.13 20.39 40.99 20.39
  C 42.85 20.39 44.36 18.88 44.36 17.02
  Z"
/>
<path fill="#ffffff" d="
  M 24.32 17.00
  L 27.31 20.50
  C 27.53 20.76 27.61 21.06 27.51 21.28
  Q 26.89 22.71 25.51 23.47
  C 25.25 23.61 24.92 23.57 24.69 23.37
  L 21.36 20.35
  C 21.16 20.17 20.85 20.17 20.64 20.36
  L 17.15 23.44
  C 16.90 23.66 16.54 23.67 16.34 23.45
  L 14.50 21.43
  C 14.32 21.23 14.36 20.88 14.60 20.63
  L 17.66 17.36
  C 17.86 17.15 17.86 16.82 17.66 16.62
  L 14.52 13.41
  C 14.23 13.11 14.21 12.66 14.48 12.39
  L 16.37 10.57
  C 16.60 10.35 16.96 10.33 17.17 10.54
  L 20.21 13.55
  C 20.58 13.92 21.13 13.97 21.45 13.66
  L 24.63 10.60
  C 24.88 10.36 25.23 10.32 25.43 10.51
  L 27.46 12.35
  C 27.69 12.56 27.69 12.93 27.46 13.16
  L 24.46 16.27
  C 24.23 16.51 24.17 16.83 24.32 17.00
  Z"
/>
<circle fill="#000000" cx="40.99" cy="17.02" r="3.37"/>
<path fill="#ffffff" d="
  M 17.02 41.61
  Q 19.09 42.31 21.67 41.94
  Q 23.56 41.67 24.83 43.25
  L 29.82 49.45
  Q 30.20 49.92 29.61 49.94
  Q 24.54 50.15 19.44 49.94
  Q 15.14 49.76 12.84 48.40
  Q 9.42 46.39 8.50 42.66
  Q 7.29 37.76 10.34 33.83
  Q 12.62 30.88 16.54 30.19
  Q 17.57 30.01 23.46 29.96
  Q 34.10 29.88 44.75 30.16
  Q 48.94 30.27 51.00 31.45
  Q 54.03 33.20 55.31 36.69
  Q 57.05 41.42 54.04 45.61
  C 53.89 45.82 53.58 45.85 53.38 45.66
  Q 51.23 43.64 49.61 41.16
  Q 47.33 37.66 43.26 37.89
  Q 41.32 38.00 41.24 38.00
  Q 30.24 38.00 19.24 38.00
  Q 17.60 38.00 16.87 38.49
  Q 15.62 39.33 16.34 40.98
  C 16.47 41.28 16.71 41.51 17.02 41.61
  Z"
/>
<path fill="#ffffff" d="
  M 39.48 53.12
  Q 34.88 48.44 30.55 42.42
  Q 30.24 42.00 30.76 42.01
  L 43.44 42.05
  C 43.75 42.05 44.05 42.19 44.26 42.43
  Q 48.87 47.79 49.44 49.31
  Q 51.07 53.75 47.00 55.50
  Q 44.82 56.44 42.70 55.59
  Q 41.39 55.06 39.48 53.12
  Z"
/>
</svg>
