<?xml version="1.0" encoding="UTF-8" standalone="no"?>
<!DOCTYPE svg PUBLIC "-//W3C//DTD SVG 1.1//EN" "http://www.w3.org/Graphics/SVG/1.1/DTD/svg11.dtd">
<svg xmlns="http://www.w3.org/2000/svg" version="1.1" viewBox="0 0 114 114">
<g stroke-width="2.0" fill="none" stroke-linecap="butt">
<path stroke="#f29997" vector-effect="non-scaling-stroke" d="
  M 70.91 21.39
  Q 68.04 18.34 67.44 17.81
  Q 64.38 15.10 60.25 14.96
  Q 56.57 14.84 53.16 16.80
  Q 48.41 19.53 47.18 24.80
  Q 46.07 29.49 48.55 33.87
  Q 51.42 38.94 57.44 42.31
  Q 65.06 46.59 70.80 55.76
  C 70.92 55.96 71.20 55.96 71.33 55.77
  Q 77.07 47.10 85.80 41.60
  Q 89.31 39.39 90.36 38.44
  Q 92.50 36.51 94.02 34.20
  C 94.38 33.65 94.30 32.92 93.83 32.45
  L 77.55 16.43
  C 77.33 16.22 77.00 16.19 76.75 16.35
  Q 73.73 18.38 71.54 21.35
  C 71.39 21.56 71.09 21.58 70.91 21.39"
/>
<path stroke="#808080" vector-effect="non-scaling-stroke" d="
  M 36.90 49.02
  Q 34.76 49.45 34.75 47.27
  Q 34.70 35.53 34.90 24.82
  Q 34.95 21.89 37.82 22.46
  C 38.30 22.56 38.75 22.19 38.75 21.70
  L 38.75 17.31
  C 38.75 17.00 38.50 16.75 38.19 16.75
  L 21.02 16.75
  C 20.73 16.75 20.50 16.98 20.50 17.27
  L 20.50 21.38
  C 20.50 22.09 21.14 22.63 21.84 22.52
  Q 23.99 22.20 24.03 24.00
  Q 24.24 35.50 24.25 46.99
  Q 24.25 48.27 23.63 48.80
  Q 22.81 49.50 21.48 49.25
  C 20.97 49.15 20.50 49.54 20.50 50.05
  L 20.50 53.90
  C 20.50 54.37 20.88 54.75 21.35 54.75
  Q 28.70 54.75 35.47 54.75
  Q 35.58 54.75 37.02 54.88
  Q 38.85 55.04 38.89 53.41
  Q 38.94 51.23 38.96 51.09
  Q 39.21 48.56 36.90 49.02"
/>
<path stroke="#808080" vector-effect="non-scaling-stroke" d="
  M 22.06 85.61
  Q 27.41 86.01 32.23 84.17
  Q 35.54 82.91 36.94 80.75
  Q 38.55 78.29 38.50 74.75
  Q 38.43 69.53 35.21 66.86
  Q 33.03 65.05 27.83 64.52
  Q 19.57 63.66 10.27 64.06
  C 9.59 64.09 9.05 64.64 9.04 65.30
  L 9.03 68.69
  C 9.03 68.95 9.28 69.14 9.57 69.11
  Q 12.00 68.84 12.00 71.00
  Q 12.00 80.75 12.00 90.50
  Q 12.00 93.18 9.81 93.11
  C 9.44 93.10 9.14 93.29 9.15 93.53
  L 9.28 97.10
  C 9.30 97.60 9.77 98.00 10.34 97.99
  L 24.68 97.94
  C 24.99 97.94 25.24 97.71 25.23 97.44
  L 25.14 93.69
  C 25.13 93.40 24.88 93.17 24.57 93.14
  L 21.93 92.86
  C 21.61 92.83 21.36 92.59 21.37 92.31
  L 21.47 86.06
  C 21.48 85.79 21.75 85.58 22.06 85.61"
/>
<path stroke="#808080" vector-effect="non-scaling-stroke" d="
  M 69.31 67.44
  Q 65.79 65.06 61.56 64.44
  Q 60.45 64.28 53.43 64.05
  Q 47.93 63.88 42.43 64.16
  C 42.12 64.18 41.86 64.38 41.79 64.66
  Q 41.61 65.36 41.64 66.08
  Q 41.67 67.04 41.57 67.91
  Q 41.36 69.81 43.06 69.45
  C 43.93 69.26 44.75 69.93 44.75 70.82
  Q 44.75 80.15 44.75 88.63
  Q 44.75 88.67 44.88 90.37
  Q 45.07 93.00 42.45 93.18
  C 42.09 93.20 41.81 93.42 41.82 93.67
  L 41.99 97.37
  C 42.01 97.70 42.32 97.97 42.70 97.98
  Q 52.01 98.17 60.24 97.62
  Q 67.81 97.11 71.77 91.81
  Q 74.40 88.28 74.90 83.19
  Q 75.37 78.48 73.90 73.78
  Q 72.61 69.66 69.31 67.44"
/>
<path stroke="#808080" vector-effect="non-scaling-stroke" d="
  M 90.54 78.43
  L 90.65 70.18
  C 90.66 69.90 90.90 69.67 91.19 69.67
  L 99.00 69.73
  C 99.31 69.73 99.58 69.93 99.66 70.23
  Q 99.92 71.15 100.25 73.25
  Q 100.60 75.45 102.78 74.69
  Q 103.05 74.59 103.74 74.61
  L 105.32 74.65
  C 105.60 74.66 105.84 74.40 105.84 74.07
  L 105.98 64.53
  C 105.99 64.24 105.74 64.00 105.43 64.00
  L 78.97 64.00
  C 78.58 64.00 78.26 64.31 78.26 64.69
  L 78.29 68.69
  C 78.29 68.95 78.54 69.14 78.82 69.11
  Q 81.25 68.85 81.25 71.00
  Q 81.25 80.35 81.25 89.71
  Q 81.25 91.66 81.22 91.78
  Q 80.89 92.95 79.10 93.01
  C 78.62 93.03 78.24 93.41 78.25 93.87
  L 78.29 97.43
  C 78.29 97.72 78.53 97.95 78.82 97.95
  L 93.94 97.95
  C 94.25 97.95 94.49 97.72 94.48 97.44
  L 94.39 93.69
  C 94.38 93.36 94.13 93.10 93.83 93.09
  L 91.37 93.01
  C 90.89 93.00 90.50 92.65 90.50 92.23
  L 90.50 85.33
  C 90.50 84.92 90.79 84.58 91.19 84.50
  Q 95.71 83.64 95.25 86.77
  C 95.18 87.26 95.53 87.69 96.01 87.70
  L 99.58 87.75
  C 100.07 87.76 100.48 87.37 100.47 86.88
  L 100.29 76.49
  C 100.28 76.20 100.06 75.94 99.76 75.88
  Q 97.77 75.46 95.79 75.93
  C 95.56 75.99 95.37 76.24 95.33 76.56
  L 95.08 78.46
  C 95.05 78.75 94.77 78.97 94.44 78.97
  L 91.06 78.97
  C 90.77 78.97 90.53 78.73 90.54 78.43"
/>
<path stroke="#f29997" vector-effect="non-scaling-stroke" d="
  M 91.68 33.57
  Q 92.46 33.58 91.91 33.03
  L 77.55 18.95
  Q 76.97 18.38 76.99 19.20
  L 77.31 32.95
  C 77.32 33.22 77.54 33.44 77.82 33.44
  L 91.68 33.57"
/>
<path stroke="#808080" vector-effect="non-scaling-stroke" d="
  M 21.40 70.43
  L 21.29 79.93
  C 21.28 80.22 21.52 80.46 21.82 80.49
  Q 29.72 81.14 29.10 74.40
  Q 28.85 71.65 26.98 70.42
  Q 24.84 69.00 21.91 69.80
  C 21.61 69.88 21.41 70.13 21.40 70.43"
/>
<path stroke="#808080" vector-effect="non-scaling-stroke" d="
  M 54.89 69.77
  C 54.42 69.79 54.05 70.18 54.05 70.64
  L 54.00 91.51
  C 54.00 92.17 54.53 92.71 55.20 92.73
  Q 63.89 92.95 65.00 85.25
  Q 65.67 80.59 64.87 76.69
  Q 64.06 72.76 61.70 71.22
  Q 59.16 69.56 54.89 69.77"
/>
</g>
<path fill="#ffffff" d="
  M 0.00 0.00
  Q 57.00 0.00 114.00 0.00
  Q 114.00 57.00 114.00 114.00
  Q 57.00 114.00 0.00 114.00
  Q 0.00 57.00 0.00 0.00
  Z
  M 70.91 21.39
  Q 68.04 18.34 67.44 17.81
  Q 64.38 15.10 60.25 14.96
  Q 56.57 14.84 53.16 16.80
  Q 48.41 19.53 47.18 24.80
  Q 46.07 29.49 48.55 33.87
  Q 51.42 38.94 57.44 42.31
  Q 65.06 46.59 70.80 55.76
  C 70.92 55.96 71.20 55.96 71.33 55.77
  Q 77.07 47.10 85.80 41.60
  Q 89.31 39.39 90.36 38.44
  Q 92.50 36.51 94.02 34.20
  C 94.38 33.65 94.30 32.92 93.83 32.45
  L 77.55 16.43
  C 77.33 16.22 77.00 16.19 76.75 16.35
  Q 73.73 18.38 71.54 21.35
  C 71.39 21.56 71.09 21.58 70.91 21.39
  Z
  M 36.90 49.02
  Q 34.76 49.45 34.75 47.27
  Q 34.70 35.53 34.90 24.82
  Q 34.95 21.89 37.82 22.46
  C 38.30 22.56 38.75 22.19 38.75 21.70
  L 38.75 17.31
  C 38.75 17.00 38.50 16.75 38.19 16.75
  L 21.02 16.75
  C 20.73 16.75 20.50 16.98 20.50 17.27
  L 20.50 21.38
  C 20.50 22.09 21.14 22.63 21.84 22.52
  Q 23.99 22.20 24.03 24.00
  Q 24.24 35.50 24.25 46.99
  Q 24.25 48.27 23.63 48.80
  Q 22.81 49.50 21.48 49.25
  C 20.97 49.15 20.50 49.54 20.50 50.05
  L 20.50 53.90
  C 20.50 54.37 20.88 54.75 21.35 54.75
  Q 28.70 54.75 35.47 54.75
  Q 35.58 54.75 37.02 54.88
  Q 38.85 55.04 38.89 53.41
  Q 38.94 51.23 38.96 51.09
  Q 39.21 48.56 36.90 49.02
  Z
  M 22.06 85.61
  Q 27.41 86.01 32.23 84.17
  Q 35.54 82.91 36.94 80.75
  Q 38.55 78.29 38.50 74.75
  Q 38.43 69.53 35.21 66.86
  Q 33.03 65.05 27.83 64.52
  Q 19.57 63.66 10.27 64.06
  C 9.59 64.09 9.05 64.64 9.04 65.30
  L 9.03 68.69
  C 9.03 68.95 9.28 69.14 9.57 69.11
  Q 12.00 68.84 12.00 71.00
  Q 12.00 80.75 12.00 90.50
  Q 12.00 93.18 9.81 93.11
  C 9.44 93.10 9.14 93.29 9.15 93.53
  L 9.28 97.10
  C 9.30 97.60 9.77 98.00 10.34 97.99
  L 24.68 97.94
  C 24.99 97.94 25.24 97.71 25.23 97.44
  L 25.14 93.69
  C 25.13 93.40 24.88 93.17 24.57 93.14
  L 21.93 92.86
  C 21.61 92.83 21.36 92.59 21.37 92.31
  L 21.47 86.06
  C 21.48 85.79 21.75 85.58 22.06 85.61
  Z
  M 69.31 67.44
  Q 65.79 65.06 61.56 64.44
  Q 60.45 64.28 53.43 64.05
  Q 47.93 63.88 42.43 64.16
  C 42.12 64.18 41.86 64.38 41.79 64.66
  Q 41.61 65.36 41.64 66.08
  Q 41.67 67.04 41.57 67.91
  Q 41.36 69.81 43.06 69.45
  C 43.93 69.26 44.75 69.93 44.75 70.82
  Q 44.75 80.15 44.75 88.63
  Q 44.75 88.67 44.88 90.37
  Q 45.07 93.00 42.45 93.18
  C 42.09 93.20 41.81 93.42 41.82 93.67
  L 41.99 97.37
  C 42.01 97.70 42.32 97.97 42.70 97.98
  Q 52.01 98.17 60.24 97.62
  Q 67.81 97.11 71.77 91.81
  Q 74.40 88.28 74.90 83.19
  Q 75.37 78.48 73.90 73.78
  Q 72.61 69.66 69.31 67.44
  Z
  M 90.54 78.43
  L 90.65 70.18
  C 90.66 69.90 90.90 69.67 91.19 69.67
  L 99.00 69.73
  C 99.31 69.73 99.58 69.93 99.66 70.23
  Q 99.92 71.15 100.25 73.25
  Q 100.60 75.45 102.78 74.69
  Q 103.05 74.59 103.74 74.61
  L 105.32 74.65
  C 105.60 74.66 105.84 74.40 105.84 74.07
  L 105.98 64.53
  C 105.99 64.24 105.74 64.00 105.43 64.00
  L 78.97 64.00
  C 78.58 64.00 78.26 64.31 78.26 64.69
  L 78.29 68.69
  C 78.29 68.95 78.54 69.14 78.82 69.11
  Q 81.25 68.85 81.25 71.00
  Q 81.25 80.35 81.25 89.71
  Q 81.25 91.66 81.22 91.78
  Q 80.89 92.95 79.10 93.01
  C 78.62 93.03 78.24 93.41 78.25 93.87
  L 78.29 97.43
  C 78.29 97.72 78.53 97.95 78.82 97.95
  L 93.94 97.95
  C 94.25 97.95 94.49 97.72 94.48 97.44
  L 94.39 93.69
  C 94.38 93.36 94.13 93.10 93.83 93.09
  L 91.37 93.01
  C 90.89 93.00 90.50 92.65 90.50 92.23
  L 90.50 85.33
  C 90.50 84.92 90.79 84.58 91.19 84.50
  Q 95.71 83.64 95.25 86.77
  C 95.18 87.26 95.53 87.69 96.01 87.70
  L 99.58 87.75
  C 100.07 87.76 100.48 87.37 100.47 86.88
  L 100.29 76.49
  C 100.28 76.20 100.06 75.94 99.76 75.88
  Q 97.77 75.46 95.79 75.93
  C 95.56 75.99 95.37 76.24 95.33 76.56
  L 95.08 78.46
  C 95.05 78.75 94.77 78.97 94.44 78.97
  L 91.06 78.97
  C 90.77 78.97 90.53 78.73 90.54 78.43
  Z"
/>
<path fill="#e4332e" d="
  M 71.54 21.35
  Q 73.73 18.38 76.75 16.35
  C 77.00 16.19 77.33 16.22 77.55 16.43
  L 93.83 32.45
  C 94.30 32.92 94.38 33.65 94.02 34.20
  Q 92.50 36.51 90.36 38.44
  Q 89.31 39.39 85.80 41.60
  Q 77.07 47.10 71.33 55.77
  C 71.20 55.96 70.92 55.96 70.80 55.76
  Q 65.06 46.59 57.44 42.31
  Q 51.42 38.94 48.55 33.87
  Q 46.07 29.49 47.18 24.80
  Q 48.41 19.53 53.16 16.80
  Q 56.57 14.84 60.25 14.96
  Q 64.38 15.10 67.44 17.81
  Q 68.04 18.34 70.91 21.39
  C 71.09 21.58 71.39 21.56 71.54 21.35
  Z
  M 91.68 33.57
  Q 92.46 33.58 91.91 33.03
  L 77.55 18.95
  Q 76.97 18.38 76.99 19.20
  L 77.31 32.95
  C 77.32 33.22 77.54 33.44 77.82 33.44
  L 91.68 33.57
  Z"
/>
<path fill="#000000" d="
  M 36.90 49.02
  Q 39.21 48.56 38.96 51.09
  Q 38.94 51.23 38.89 53.41
  Q 38.85 55.04 37.02 54.88
  Q 35.58 54.75 35.47 54.75
  Q 28.70 54.75 21.35 54.75
  C 20.88 54.75 20.50 54.37 20.50 53.90
  L 20.50 50.05
  C 20.50 49.54 20.97 49.15 21.48 49.25
  Q 22.81 49.50 23.63 48.80
  Q 24.25 48.27 24.25 46.99
  Q 24.24 35.50 24.03 24.00
  Q 23.99 22.20 21.84 22.52
  C 21.14 22.63 20.50 22.09 20.50 21.38
  L 20.50 17.27
  C 20.50 16.98 20.73 16.75 21.02 16.75
  L 38.19 16.75
  C 38.50 16.75 38.75 17.00 38.75 17.31
  L 38.75 21.70
  C 38.75 22.19 38.30 22.56 37.82 22.46
  Q 34.95 21.89 34.90 24.82
  Q 34.70 35.53 34.75 47.27
  Q 34.76 49.45 36.90 49.02
  Z"
/>
<path fill="#ffffff" d="
  M 91.68 33.57
  L 77.82 33.44
  C 77.54 33.44 77.32 33.22 77.31 32.95
  L 76.99 19.20
  Q 76.97 18.38 77.55 18.95
  L 91.91 33.03
  Q 92.46 33.58 91.68 33.57
  Z"
/>
<path fill="#000000" d="
  M 21.47 86.06
  L 21.37 92.31
  C 21.36 92.59 21.61 92.83 21.93 92.86
  L 24.57 93.14
  C 24.88 93.17 25.13 93.40 25.14 93.69
  L 25.23 97.44
  C 25.24 97.71 24.99 97.94 24.68 97.94
  L 10.34 97.99
  C 9.77 98.00 9.30 97.60 9.28 97.10
  L 9.15 93.53
  C 9.14 93.29 9.44 93.10 9.81 93.11
  Q 12.00 93.18 12.00 90.50
  Q 12.00 80.75 12.00 71.00
  Q 12.00 68.84 9.57 69.11
  C 9.28 69.14 9.03 68.95 9.03 68.69
  L 9.04 65.30
  C 9.05 64.64 9.59 64.09 10.27 64.06
  Q 19.57 63.66 27.83 64.52
  Q 33.03 65.05 35.21 66.86
  Q 38.43 69.53 38.50 74.75
  Q 38.55 78.29 36.94 80.75
  Q 35.54 82.91 32.23 84.17
  Q 27.41 86.01 22.06 85.61
  C 21.75 85.58 21.48 85.79 21.47 86.06
  Z
  M 21.40 70.43
  L 21.29 79.93
  C 21.28 80.22 21.52 80.46 21.82 80.49
  Q 29.72 81.14 29.10 74.40
  Q 28.85 71.65 26.98 70.42
  Q 24.84 69.00 21.91 69.80
  C 21.61 69.88 21.41 70.13 21.40 70.43
  Z"
/>
<path fill="#000000" d="
  M 69.31 67.44
  Q 72.61 69.66 73.90 73.78
  Q 75.37 78.48 74.90 83.19
  Q 74.40 88.28 71.77 91.81
  Q 67.81 97.11 60.24 97.62
  Q 52.01 98.17 42.70 97.98
  C 42.32 97.97 42.01 97.70 41.99 97.37
  L 41.82 93.67
  C 41.81 93.42 42.09 93.20 42.45 93.18
  Q 45.07 93.00 44.88 90.37
  Q 44.75 88.67 44.75 88.63
  Q 44.75 80.15 44.75 70.82
  C 44.75 69.93 43.93 69.26 43.06 69.45
  Q 41.36 69.81 41.57 67.91
  Q 41.67 67.04 41.64 66.08
  Q 41.61 65.36 41.79 64.66
  C 41.86 64.38 42.12 64.18 42.43 64.16
  Q 47.93 63.88 53.43 64.05
  Q 60.45 64.28 61.56 64.44
  Q 65.79 65.06 69.31 67.44
  Z
  M 54.89 69.77
  C 54.42 69.79 54.05 70.18 54.05 70.64
  L 54.00 91.51
  C 54.00 92.17 54.53 92.71 55.20 92.73
  Q 63.89 92.95 65.00 85.25
  Q 65.67 80.59 64.87 76.69
  Q 64.06 72.76 61.70 71.22
  Q 59.16 69.56 54.89 69.77
  Z"
/>
<path fill="#000000" d="
  M 91.06 78.97
  L 94.44 78.97
  C 94.77 78.97 95.05 78.75 95.08 78.46
  L 95.33 76.56
  C 95.37 76.24 95.56 75.99 95.79 75.93
  Q 97.77 75.46 99.76 75.88
  C 100.06 75.94 100.28 76.20 100.29 76.49
  L 100.47 86.88
  C 100.48 87.37 100.07 87.76 99.58 87.75
  L 96.01 87.70
  C 95.53 87.69 95.18 87.26 95.25 86.77
  Q 95.71 83.64 91.19 84.50
  C 90.79 84.58 90.50 84.92 90.50 85.33
  L 90.50 92.23
  C 90.50 92.65 90.89 93.00 91.37 93.01
  L 93.83 93.09
  C 94.13 93.10 94.38 93.36 94.39 93.69
  L 94.48 97.44
  C 94.49 97.72 94.25 97.95 93.94 97.95
  L 78.82 97.95
  C 78.53 97.95 78.29 97.72 78.29 97.43
  L 78.25 93.87
  C 78.24 93.41 78.62 93.03 79.10 93.01
  Q 80.89 92.95 81.22 91.78
  Q 81.25 91.66 81.25 89.71
  Q 81.25 80.35 81.25 71.00
  Q 81.25 68.85 78.82 69.11
  C 78.54 69.14 78.29 68.95 78.29 68.69
  L 78.26 64.69
  C 78.26 64.31 78.58 64.00 78.97 64.00
  L 105.43 64.00
  C 105.74 64.00 105.99 64.24 105.98 64.53
  L 105.84 74.07
  C 105.84 74.40 105.60 74.66 105.32 74.65
  L 103.74 74.61
  Q 103.05 74.59 102.78 74.69
  Q 100.60 75.45 100.25 73.25
  Q 99.92 71.15 99.66 70.23
  C 99.58 69.93 99.31 69.73 99.00 69.73
  L 91.19 69.67
  C 90.90 69.67 90.66 69.90 90.65 70.18
  L 90.54 78.43
  C 90.53 78.73 90.77 78.97 91.06 78.97
  Z"
/>
<path fill="#ffffff" d="
  M 21.91 69.80
  Q 24.84 69.00 26.98 70.42
  Q 28.85 71.65 29.10 74.40
  Q 29.72 81.14 21.82 80.49
  C 21.52 80.46 21.28 80.22 21.29 79.93
  L 21.40 70.43
  C 21.41 70.13 21.61 69.88 21.91 69.80
  Z"
/>
<path fill="#ffffff" d="
  M 54.89 69.77
  Q 59.16 69.56 61.70 71.22
  Q 64.06 72.76 64.87 76.69
  Q 65.67 80.59 65.00 85.25
  Q 63.89 92.95 55.20 92.73
  C 54.53 92.71 54.00 92.17 54.00 91.51
  L 54.05 70.64
  C 54.05 70.18 54.42 69.79 54.89 69.77
  Z"
/>
</svg>
