<?xml version="1.0" encoding="UTF-8" standalone="no"?>
<!DOCTYPE svg PUBLIC "-//W3C//DTD SVG 1.1//EN" "http://www.w3.org/Graphics/SVG/1.1/DTD/svg11.dtd">
<svg xmlns="http://www.w3.org/2000/svg" version="1.1" viewBox="0 0 120 120">
<g stroke-width="2.0" fill="none" stroke-linecap="butt">
<path stroke="#f35337" stroke-opacity="0.996" vector-effect="non-scaling-stroke" d="
  M 65.75 0.46
  Q 64.90 0.30 64.75 0.76
  C 64.67 1.00 64.91 1.26 65.24 1.29
  Q 80.33 2.51 92.56 10.69
  Q 108.16 21.12 115.23 38.91
  Q 118.20 46.39 118.50 55.75
  Q 118.88 67.62 116.71 77.25"
/>
<path stroke="#f6674f" stroke-opacity="0.988" vector-effect="non-scaling-stroke" d="
  M 116.71 77.25
  Q 114.13 84.33 110.30 90.74
  Q 106.42 97.23 101.06 102.34
  Q 79.01 123.35 46.81 117.69
  Q 43.34 117.08 33.00 112.71"
/>
<path stroke="#f5462a" stroke-opacity="0.996" vector-effect="non-scaling-stroke" d="
  M 33.00 112.71
  Q 14.07 102.33 5.50 82.53
  Q 1.78 73.96 1.28 64.66
  Q 1.27 64.50 1.38 63.35
  Q 1.49 62.17 0.29 62.25"
/>
<path stroke="#f5462a" stroke-opacity="0.996" vector-effect="non-scaling-stroke" d="
  M 45.75 1.79
  Q 48.25 2.31 50.77 1.88
  Q 53.05 1.49 49.25 1.21"
/>
<path stroke="#f99180" vector-effect="non-scaling-stroke" d="
  M 68.85 77.28
  Q 71.57 85.05 69.50 91.75
  Q 67.35 98.70 60.92 105.17
  Q 58.99 107.11 60.97 107.20
  Q 61.63 107.23 62.28 106.79
  Q 69.56 101.83 75.44 94.44
  Q 83.98 83.70 83.48 70.74
  Q 83.22 63.86 81.41 58.36
  Q 79.38 52.21 74.76 47.39
  Q 73.36 45.92 73.02 47.00
  Q 72.77 47.82 73.29 50.01
  C 73.50 50.84 73.45 51.73 73.15 52.54
  Q 72.29 54.91 70.14 55.24
  Q 68.39 55.51 66.83 54.10
  Q 64.21 51.74 64.20 47.75
  Q 64.20 44.80 64.56 41.89
  Q 65.16 36.95 65.19 36.07
  Q 65.56 23.27 58.01 13.24
  Q 55.30 9.65 55.74 14.12
  Q 56.84 25.49 50.41 34.64
  Q 45.30 41.91 43.69 43.94
  Q 36.51 52.93 34.25 61.75
  Q 29.23 81.32 43.20 96.79
  Q 44.69 98.44 46.34 99.09
  Q 48.03 99.76 47.50 98.01
  Q 47.19 96.98 46.54 96.17
  Q 45.32 94.68 45.26 94.58
  Q 34.55 77.51 47.16 61.18
  Q 48.58 59.35 48.86 61.65
  Q 49.00 62.74 48.62 64.25
  Q 48.22 65.88 48.23 66.80
  Q 48.33 78.76 60.75 79.50
  Q 62.35 79.60 68.23 77.01
  C 68.48 76.90 68.76 77.03 68.85 77.28"
/>
<path stroke="#f79887" stroke-opacity="0.984" vector-effect="non-scaling-stroke" d="
  M 117.04 78.00
  Q 117.00 77.57 116.71 77.25"
/>
</g>
<path fill="#f32300" d="
  M 60.06 0.00
  Q 60.69 0.00 61.31 0.00
  Q 63.52 0.28 65.75 0.46
  Q 64.90 0.30 64.75 0.76
  C 64.67 1.00 64.91 1.26 65.24 1.29
  Q 80.33 2.51 92.56 10.69
  Q 108.16 21.12 115.23 38.91
  Q 118.20 46.39 118.50 55.75
  Q 118.88 67.62 116.71 77.25
  Q 114.13 84.33 110.30 90.74
  Q 106.42 97.23 101.06 102.34
  Q 79.01 123.35 46.81 117.69
  Q 43.34 117.08 33.00 112.71
  Q 14.07 102.33 5.50 82.53
  Q 1.78 73.96 1.28 64.66
  Q 1.27 64.50 1.38 63.35
  Q 1.49 62.17 0.29 62.25
  Q 0.41 61.38 0.00 60.69
  Q 0.00 59.69 0.00 58.69
  Q 0.72 40.23 10.69 25.94
  Q 23.42 7.68 45.75 1.79
  Q 48.25 2.31 50.77 1.88
  Q 53.05 1.49 49.25 1.21
  Q 54.61 0.21 60.06 0.00
  Z
  M 68.85 77.28
  Q 71.57 85.05 69.50 91.75
  Q 67.35 98.70 60.92 105.17
  Q 58.99 107.11 60.97 107.20
  Q 61.63 107.23 62.28 106.79
  Q 69.56 101.83 75.44 94.44
  Q 83.98 83.70 83.48 70.74
  Q 83.22 63.86 81.41 58.36
  Q 79.38 52.21 74.76 47.39
  Q 73.36 45.92 73.02 47.00
  Q 72.77 47.82 73.29 50.01
  C 73.50 50.84 73.45 51.73 73.15 52.54
  Q 72.29 54.91 70.14 55.24
  Q 68.39 55.51 66.83 54.10
  Q 64.21 51.74 64.20 47.75
  Q 64.20 44.80 64.56 41.89
  Q 65.16 36.95 65.19 36.07
  Q 65.56 23.27 58.01 13.24
  Q 55.30 9.65 55.74 14.12
  Q 56.84 25.49 50.41 34.64
  Q 45.30 41.91 43.69 43.94
  Q 36.51 52.93 34.25 61.75
  Q 29.23 81.32 43.20 96.79
  Q 44.69 98.44 46.34 99.09
  Q 48.03 99.76 47.50 98.01
  Q 47.19 96.98 46.54 96.17
  Q 45.32 94.68 45.26 94.58
  Q 34.55 77.51 47.16 61.18
  Q 48.58 59.35 48.86 61.65
  Q 49.00 62.74 48.62 64.25
  Q 48.22 65.88 48.23 66.80
  Q 48.33 78.76 60.75 79.50
  Q 62.35 79.60 68.23 77.01
  C 68.48 76.90 68.76 77.03 68.85 77.28
  Z"
/>
<path fill="#f4836f" fill-opacity="0.992" d="
  M 65.75 0.46
  Q 70.25 0.81 73.00 1.50
  Q 104.36 9.37 115.94 38.56
  Q 123.42 57.43 117.04 78.00
  Q 117.00 77.57 116.71 77.25
  Q 118.88 67.62 118.50 55.75
  Q 118.20 46.39 115.23 38.91
  Q 108.16 21.12 92.56 10.69
  Q 80.33 2.51 65.24 1.29
  C 64.91 1.26 64.67 1.00 64.75 0.76
  Q 64.90 0.30 65.75 0.46
  Z"
/>
<path fill="#f76a55" fill-opacity="0.988" d="
  M 49.25 1.21
  Q 53.05 1.49 50.77 1.88
  Q 48.25 2.31 45.75 1.79
  L 49.25 1.21
  Z"
/>
<path fill="#ffffff" d="
  M 68.23 77.01
  Q 62.35 79.60 60.75 79.50
  Q 48.33 78.76 48.23 66.80
  Q 48.22 65.88 48.62 64.25
  Q 49.00 62.74 48.86 61.65
  Q 48.58 59.35 47.16 61.18
  Q 34.55 77.51 45.26 94.58
  Q 45.32 94.68 46.54 96.17
  Q 47.19 96.98 47.50 98.01
  Q 48.03 99.76 46.34 99.09
  Q 44.69 98.44 43.20 96.79
  Q 29.23 81.32 34.25 61.75
  Q 36.51 52.93 43.69 43.94
  Q 45.30 41.91 50.41 34.64
  Q 56.84 25.49 55.74 14.12
  Q 55.30 9.65 58.01 13.24
  Q 65.56 23.27 65.19 36.07
  Q 65.16 36.95 64.56 41.89
  Q 64.20 44.80 64.20 47.75
  Q 64.21 51.74 66.83 54.10
  Q 68.39 55.51 70.14 55.24
  Q 72.29 54.91 73.15 52.54
  C 73.45 51.73 73.50 50.84 73.29 50.01
  Q 72.77 47.82 73.02 47.00
  Q 73.36 45.92 74.76 47.39
  Q 79.38 52.21 81.41 58.36
  Q 83.22 63.86 83.48 70.74
  Q 83.98 83.70 75.44 94.44
  Q 69.56 101.83 62.28 106.79
  Q 61.63 107.23 60.97 107.20
  Q 58.99 107.11 60.92 105.17
  Q 67.35 98.70 69.50 91.75
  Q 71.57 85.05 68.85 77.28
  C 68.76 77.03 68.48 76.90 68.23 77.01
  Z"
/>
<path fill="#f76a55" fill-opacity="0.988" d="
  M 0.29 62.25
  Q 1.49 62.17 1.38 63.35
  Q 1.27 64.50 1.28 64.66
  Q 1.78 73.96 5.50 82.53
  Q 14.07 102.33 33.00 112.71
  Q 32.65 112.86 32.50 113.21
  Q 13.61 103.15 4.98 83.54
  Q 0.50 73.37 0.29 62.25
  Z"
/>
<path fill="#faada0" fill-opacity="0.976" d="
  M 116.71 77.25
  Q 117.00 77.57 117.04 78.00
  Q 115.89 81.92 115.19 83.44
  Q 103.67 108.44 78.92 116.74
  Q 69.13 120.02 59.28 119.86
  Q 45.33 119.64 32.50 113.21
  Q 32.65 112.86 33.00 112.71
  Q 43.34 117.08 46.81 117.69
  Q 79.01 123.35 101.06 102.34
  Q 106.42 97.23 110.30 90.74
  Q 114.13 84.33 116.71 77.25
  Z"
/>
</svg>
