<?xml version="1.0" encoding="UTF-8" standalone="no"?>
<!DOCTYPE svg PUBLIC "-//W3C//DTD SVG 1.1//EN" "http://www.w3.org/Graphics/SVG/1.1/DTD/svg11.dtd">
<svg xmlns="http://www.w3.org/2000/svg" version="1.1" viewBox="0 0 180 180">
<g stroke-width="2.0" fill="none" stroke-linecap="butt">
<path stroke="#90b9ff" vector-effect="non-scaling-stroke" d="
  M 86.75 32.21
  Q 55.56 34.62 39.89 61.30
  Q 30.60 77.11 32.25 95.00
  Q 34.44 118.81 52.88 134.36
  Q 68.76 147.75 89.25 148.00
  Q 104.23 148.18 117.05 141.34
  Q 125.66 136.74 132.73 129.11
  Q 151.89 108.41 146.80 78.30
  C 146.74 77.91 146.28 77.73 145.96 77.96
  Q 141.69 81.02 137.28 81.83
  C 136.73 81.93 136.35 82.44 136.41 83.00
  Q 138.23 98.46 131.85 111.04
  Q 127.38 119.87 119.34 126.47
  Q 106.65 136.89 89.71 136.80
  Q 81.16 136.76 73.69 133.99
  Q 65.80 131.07 59.44 125.56
  Q 50.06 117.45 45.96 106.17
  Q 42.56 96.83 43.30 86.51
  Q 44.26 72.91 52.32 62.18
  Q 58.40 54.10 67.21 49.05
  Q 81.89 40.63 99.50 44.00
  Q 106.96 45.43 115.25 50.29"
/>
<path stroke="#8ca5fe" vector-effect="non-scaling-stroke" d="
  M 115.25 50.29
  Q 112.15 64.29 122.82 70.61
  Q 126.78 72.96 131.08 73.00
  Q 135.84 73.04 139.74 70.71
  Q 145.18 67.46 147.22 61.17
  Q 149.03 55.64 146.79 50.17
  Q 144.72 45.09 140.17 42.12
  Q 132.56 37.16 122.80 41.68
  C 122.51 41.82 122.17 41.79 121.90 41.62
  Q 108.63 32.87 93.25 32.21"
/>
<path stroke="#9cc0ff" vector-effect="non-scaling-stroke" d="
  M 93.25 32.21
  Q 90.00 31.69 86.75 32.21"
/>
<path stroke="#2966fe" vector-effect="non-scaling-stroke" d="
  M 93.25 32.21
  Q 92.33 32.20 92.22 32.76
  C 92.17 33.02 92.41 33.26 92.74 33.29
  Q 107.36 34.46 120.63 42.22
  C 120.99 42.43 121.03 42.92 120.72 43.19
  Q 117.51 45.96 115.96 49.50"
/>
<path stroke="#2d79ff" vector-effect="non-scaling-stroke" d="
  M 115.96 49.50
  Q 114.69 49.15 113.65 48.39
  Q 112.06 47.24 111.56 47.00
  Q 104.45 43.54 96.76 42.11
  Q 90.17 40.88 83.25 42.13
  Q 53.55 47.47 43.25 77.25
  Q 41.52 82.26 41.29 90.16
  Q 41.23 92.11 41.65 94.29
  Q 42.05 96.35 42.44 98.41
  Q 43.14 102.21 43.90 104.50
  Q 49.31 120.80 63.81 130.44
  Q 73.16 136.65 84.23 138.04
  Q 84.86 138.12 88.13 138.99
  Q 90.13 139.52 92.26 139.04
  Q 96.84 138.01 101.38 136.86
  Q 106.57 135.56 110.22 133.75
  Q 135.92 121.05 138.60 91.43
  Q 138.74 89.94 138.31 87.61
  Q 137.96 85.70 137.99 83.75
  C 137.99 83.44 138.18 83.17 138.46 83.06
  L 145.28 80.42
  C 145.52 80.33 145.78 80.48 145.82 80.74
  Q 149.50 108.10 132.46 127.56
  Q 127.34 133.40 121.16 137.45
  Q 114.74 141.67 107.50 144.00
  Q 102.30 145.68 96.71 146.00
  Q 91.32 146.31 85.80 146.14
  Q 79.70 145.95 73.77 144.20
  Q 51.93 137.74 40.69 118.06
  Q 30.65 100.49 34.10 80.75
  Q 35.81 70.97 40.86 62.04
  Q 55.49 36.17 87.49 33.29
  C 87.85 33.26 88.17 33.11 88.36 32.89
  Q 89.26 31.83 86.75 32.21"
/>
<path stroke="#1d5ffe" vector-effect="non-scaling-stroke" d="
  M 115.96 49.50
  Q 115.77 50.04 115.25 50.29"
/>
<path stroke="#85d6ff" vector-effect="non-scaling-stroke" d="
  M 118.03 90.01
  C 118.03 74.53 105.48 61.98 90.00 61.98
  C 74.52 61.98 61.97 74.53 61.97 90.01
  C 61.97 105.49 74.52 118.04 90.00 118.04
  C 105.48 118.04 118.03 105.49 118.03 90.01"
/>
<path stroke="#8ca5fe" vector-effect="non-scaling-stroke" d="
  M 136.84 56.23
  C 136.84 53.13 134.32 50.61 131.22 50.61
  C 128.12 50.61 125.60 53.13 125.60 56.23
  C 125.60 59.33 128.12 61.85 131.22 61.85
  C 134.32 61.85 136.84 59.33 136.84 56.23"
/>
<path stroke="#85d6ff" vector-effect="non-scaling-stroke" d="
  M 106.84 90.00
  C 106.84 80.70 99.30 73.16 90.00 73.16
  C 80.70 73.16 73.16 80.70 73.16 90.00
  C 73.16 99.30 80.70 106.84 90.00 106.84
  C 99.30 106.84 106.84 99.30 106.84 90.00"
/>
</g>
<path fill="#ffffff" d="
  M 88.31 0.00
  Q 90.44 0.00 92.56 0.00
  Q 125.22 1.37 148.81 21.94
  Q 178.31 47.65 180.00 88.06
  Q 180.00 90.06 180.00 92.06
  Q 178.85 125.64 156.81 150.06
  Q 130.90 178.78 91.50 179.79
  Q 56.26 180.23 30.69 157.56
  Q 1.41 131.61 0.00 91.44
  Q 0.00 91.19 0.00 90.94
  Q -0.05 63.48 14.06 41.81
  Q 39.78 2.34 88.31 0.00
  Z
  M 86.75 32.21
  Q 55.56 34.62 39.89 61.30
  Q 30.60 77.11 32.25 95.00
  Q 34.44 118.81 52.88 134.36
  Q 68.76 147.75 89.25 148.00
  Q 104.23 148.18 117.05 141.34
  Q 125.66 136.74 132.73 129.11
  Q 151.89 108.41 146.80 78.30
  C 146.74 77.91 146.28 77.73 145.96 77.96
  Q 141.69 81.02 137.28 81.83
  C 136.73 81.93 136.35 82.44 136.41 83.00
  Q 138.23 98.46 131.85 111.04
  Q 127.38 119.87 119.34 126.47
  Q 106.65 136.89 89.71 136.80
  Q 81.16 136.76 73.69 133.99
  Q 65.80 131.07 59.44 125.56
  Q 50.06 117.45 45.96 106.17
  Q 42.56 96.83 43.30 86.51
  Q 44.26 72.91 52.32 62.18
  Q 58.40 54.10 67.21 49.05
  Q 81.89 40.63 99.50 44.00
  Q 106.96 45.43 115.25 50.29
  Q 112.15 64.29 122.82 70.61
  Q 126.78 72.96 131.08 73.00
  Q 135.84 73.04 139.74 70.71
  Q 145.18 67.46 147.22 61.17
  Q 149.03 55.64 146.79 50.17
  Q 144.72 45.09 140.17 42.12
  Q 132.56 37.16 122.80 41.68
  C 122.51 41.82 122.17 41.79 121.90 41.62
  Q 108.63 32.87 93.25 32.21
  Q 90.00 31.69 86.75 32.21
  Z
  M 118.03 90.01
  C 118.03 74.53 105.48 61.98 90.00 61.98
  C 74.52 61.98 61.97 74.53 61.97 90.01
  C 61.97 105.49 74.52 118.04 90.00 118.04
  C 105.48 118.04 118.03 105.49 118.03 90.01
  Z"
/>
<path fill="#3880ff" d="
  M 93.25 32.21
  Q 92.33 32.20 92.22 32.76
  C 92.17 33.02 92.41 33.26 92.74 33.29
  Q 107.36 34.46 120.63 42.22
  C 120.99 42.43 121.03 42.92 120.72 43.19
  Q 117.51 45.96 115.96 49.50
  Q 114.69 49.15 113.65 48.39
  Q 112.06 47.24 111.56 47.00
  Q 104.45 43.54 96.76 42.11
  Q 90.17 40.88 83.25 42.13
  Q 53.55 47.47 43.25 77.25
  Q 41.52 82.26 41.29 90.16
  Q 41.23 92.11 41.65 94.29
  Q 42.05 96.35 42.44 98.41
  Q 43.14 102.21 43.90 104.50
  Q 49.31 120.80 63.81 130.44
  Q 73.16 136.65 84.23 138.04
  Q 84.86 138.12 88.13 138.99
  Q 90.13 139.52 92.26 139.04
  Q 96.84 138.01 101.38 136.86
  Q 106.57 135.56 110.22 133.75
  Q 135.92 121.05 138.60 91.43
  Q 138.74 89.94 138.31 87.61
  Q 137.96 85.70 137.99 83.75
  C 137.99 83.44 138.18 83.17 138.46 83.06
  L 145.28 80.42
  C 145.52 80.33 145.78 80.48 145.82 80.74
  Q 149.50 108.10 132.46 127.56
  Q 127.34 133.40 121.16 137.45
  Q 114.74 141.67 107.50 144.00
  Q 102.30 145.68 96.71 146.00
  Q 91.32 146.31 85.80 146.14
  Q 79.70 145.95 73.77 144.20
  Q 51.93 137.74 40.69 118.06
  Q 30.65 100.49 34.10 80.75
  Q 35.81 70.97 40.86 62.04
  Q 55.49 36.17 87.49 33.29
  C 87.85 33.26 88.17 33.11 88.36 32.89
  Q 89.26 31.83 86.75 32.21
  Q 90.00 31.69 93.25 32.21
  Z"
/>
<path fill="#2172fe" d="
  M 86.75 32.21
  Q 89.26 31.83 88.36 32.89
  C 88.17 33.11 87.85 33.26 87.49 33.29
  Q 55.49 36.17 40.86 62.04
  Q 35.81 70.97 34.10 80.75
  Q 30.65 100.49 40.69 118.06
  Q 51.93 137.74 73.77 144.20
  Q 79.70 145.95 85.80 146.14
  Q 91.32 146.31 96.71 146.00
  Q 102.30 145.68 107.50 144.00
  Q 114.74 141.67 121.16 137.45
  Q 127.34 133.40 132.46 127.56
  Q 149.50 108.10 145.82 80.74
  C 145.78 80.48 145.52 80.33 145.28 80.42
  L 138.46 83.06
  C 138.18 83.17 137.99 83.44 137.99 83.75
  Q 137.96 85.70 138.31 87.61
  Q 138.74 89.94 138.60 91.43
  Q 135.92 121.05 110.22 133.75
  Q 106.57 135.56 101.38 136.86
  Q 96.84 138.01 92.26 139.04
  Q 90.13 139.52 88.13 138.99
  Q 84.86 138.12 84.23 138.04
  Q 73.16 136.65 63.81 130.44
  Q 49.31 120.80 43.90 104.50
  Q 43.14 102.21 42.44 98.41
  Q 42.05 96.35 41.65 94.29
  Q 41.23 92.11 41.29 90.16
  Q 41.52 82.26 43.25 77.25
  Q 53.55 47.47 83.25 42.13
  Q 90.17 40.88 96.76 42.11
  Q 104.45 43.54 111.56 47.00
  Q 112.06 47.24 113.65 48.39
  Q 114.69 49.15 115.96 49.50
  Q 115.77 50.04 115.25 50.29
  Q 106.96 45.43 99.50 44.00
  Q 81.89 40.63 67.21 49.05
  Q 58.40 54.10 52.32 62.18
  Q 44.26 72.91 43.30 86.51
  Q 42.56 96.83 45.96 106.17
  Q 50.06 117.45 59.44 125.56
  Q 65.80 131.07 73.69 133.99
  Q 81.16 136.76 89.71 136.80
  Q 106.65 136.89 119.34 126.47
  Q 127.38 119.87 131.85 111.04
  Q 138.23 98.46 136.41 83.00
  C 136.35 82.44 136.73 81.93 137.28 81.83
  Q 141.69 81.02 145.96 77.96
  C 146.28 77.73 146.74 77.91 146.80 78.30
  Q 151.89 108.41 132.73 129.11
  Q 125.66 136.74 117.05 141.34
  Q 104.23 148.18 89.25 148.00
  Q 68.76 147.75 52.88 134.36
  Q 34.44 118.81 32.25 95.00
  Q 30.60 77.11 39.89 61.30
  Q 55.56 34.62 86.75 32.21
  Z"
/>
<path fill="#194bfd" d="
  M 93.25 32.21
  Q 108.63 32.87 121.90 41.62
  C 122.17 41.79 122.51 41.82 122.80 41.68
  Q 132.56 37.16 140.17 42.12
  Q 144.72 45.09 146.79 50.17
  Q 149.03 55.64 147.22 61.17
  Q 145.18 67.46 139.74 70.71
  Q 135.84 73.04 131.08 73.00
  Q 126.78 72.96 122.82 70.61
  Q 112.15 64.29 115.25 50.29
  Q 115.77 50.04 115.96 49.50
  Q 117.51 45.96 120.72 43.19
  C 121.03 42.92 120.99 42.43 120.63 42.22
  Q 107.36 34.46 92.74 33.29
  C 92.41 33.26 92.17 33.02 92.22 32.76
  Q 92.33 32.20 93.25 32.21
  Z
  M 136.84 56.23
  C 136.84 53.13 134.32 50.61 131.22 50.61
  C 128.12 50.61 125.60 53.13 125.60 56.23
  C 125.60 59.33 128.12 61.85 131.22 61.85
  C 134.32 61.85 136.84 59.33 136.84 56.23
  Z"
/>
<circle fill="#ffffff" cx="131.22" cy="56.23" r="5.62"/>
<path fill="#0bacff" d="
  M 118.03 90.01
  C 118.03 105.49 105.48 118.04 90.00 118.04
  C 74.52 118.04 61.97 105.49 61.97 90.01
  C 61.97 74.53 74.52 61.98 90.00 61.98
  C 105.48 61.98 118.03 74.53 118.03 90.01
  Z
  M 106.84 90.00
  C 106.84 80.70 99.30 73.16 90.00 73.16
  C 80.70 73.16 73.16 80.70 73.16 90.00
  C 73.16 99.30 80.70 106.84 90.00 106.84
  C 99.30 106.84 106.84 99.30 106.84 90.00
  Z"
/>
<circle fill="#ffffff" cx="90.00" cy="90.00" r="16.84"/>
</svg>
