<?xml version="1.0" encoding="UTF-8" standalone="no"?>
<!DOCTYPE svg PUBLIC "-//W3C//DTD SVG 1.1//EN" "http://www.w3.org/Graphics/SVG/1.1/DTD/svg11.dtd">
<svg xmlns="http://www.w3.org/2000/svg" version="1.1" viewBox="0 0 32 32">
<path fill="#bd1521" fill-opacity="0.996" d="
  M 9.81 2.94
  Q 11.91 4.61 12.87 7.35
  Q 13.23 8.38 12.32 7.78
  Q 9.11 5.66 7.43 1.79
  Q 6.67 0.06 8.02 1.39
  Q 8.69 2.06 9.81 2.94
  Z"
/>
<path fill="#bd1521" fill-opacity="0.996" d="
  M 22.96 5.86
  Q 22.73 6.22 21.84 6.91
  Q 19.11 9.00 20.51 6.28
  Q 22.18 3.00 25.54 1.13
  Q 26.22 0.75 25.81 1.39
  L 22.96 5.86
  Z"
/>
<path fill="#bd1521" fill-opacity="0.996" d="
  M 8.44 11.54
  Q 5.98 10.60 3.90 9.05
  Q 3.48 8.74 4.00 8.72
  Q 7.97 8.53 10.88 11.15
  Q 11.29 11.52 10.77 11.67
  Q 9.62 11.99 8.44 11.54
  Z"
/>
<path fill="#bd1521" fill-opacity="0.996" d="
  M 23.03 10.56
  Q 25.74 8.41 29.00 8.69
  Q 29.53 8.74 29.10 9.06
  Q 26.57 10.92 23.62 11.72
  Q 20.54 12.55 23.03 10.56
  Z"
/>
<path fill="#bd1521" fill-opacity="0.996" d="
  M 13.18 27.05
  L 12.24 29.85
  C 12.14 30.17 11.92 30.43 11.64 30.59
  Q 10.43 31.25 9.95 30.19
  Q 9.71 29.64 9.96 28.81
  Q 11.87 22.57 14.12 15.89
  C 14.24 15.54 14.18 15.16 13.97 14.86
  Q 12.34 12.57 13.51 10.77
  Q 14.54 9.17 16.47 9.09
  Q 18.64 9.00 19.70 11.52
  Q 20.38 13.16 19.21 14.55
  C 18.87 14.96 18.76 15.52 18.93 16.04
  L 23.35 29.56
  C 23.51 30.07 23.22 30.61 22.71 30.75
  Q 20.81 31.28 20.49 29.16
  C 20.42 28.73 20.15 28.39 19.80 28.29
  L 13.82 26.63
  C 13.56 26.56 13.28 26.74 13.18 27.05
  Z
  M 16.04 11.62
  Q 15.21 12.20 15.59 12.74
  Q 15.83 13.07 16.42 13.15
  Q 18.21 13.38 17.15 11.82
  C 16.90 11.45 16.40 11.36 16.04 11.62
  Z
  M 16.60 19.97
  Q 17.72 21.06 17.42 19.61
  L 16.92 17.22
  C 16.87 16.97 16.55 16.88 16.35 17.06
  Q 14.91 18.33 16.60 19.97
  Z
  M 16.05 21.43
  C 15.57 21.16 14.97 21.37 14.75 21.87
  Q 13.72 24.27 15.03 23.47
  Q 15.49 23.19 15.91 23.06
  Q 17.90 22.47 16.05 21.43
  Z
  M 16.90 25.73
  Q 20.67 27.02 18.73 24.22
  C 18.54 23.95 18.24 23.80 17.94 23.82
  Q 16.31 23.91 16.35 25.07
  C 16.36 25.36 16.58 25.62 16.90 25.73
  Z"
/>
</svg>
