<svg xmlns="http://www.w3.org/2000/svg" xmlns:xlink="http://www.w3.org/1999/xlink" width="190" height="190"
  viewBox="0 0 190 190">
  <defs>
    <clipPath id="clip-紫边黑字">
      <rect width="190" height="190" />
    </clipPath>
  </defs>
  <g id="紫边黑字" clip-path="url(#clip-紫边黑字)">
    <g id="组_13" data-name="组 13" transform="translate(-293.114 -475.203)">
      <path id="路径_18" data-name="路径 18" d="M369.384,498.787c-.031.018-.063.034-.093.052Z" fill="#555a9e" />
      <path id="路径_19" data-name="路径 19"
        d="M369.674,498.627c-.091.049-.191.1-.29.16C369.48,498.732,369.577,498.68,369.674,498.627Z" fill="#555a9e" />
      <g id="组_3" data-name="组 3">
        <path id="路径_22" data-name="路径 22"
          d="M351.639,542.956a39.569,39.569,0,0,1,30.084-38.085c17.65-4.266,36.01,4.671,44.149,20.732,5.194,10.249,5.075,22.1.97,32.675-1.159,2.987,1.278,6.434,4.114,7.245,3.319.95,6.1-1.162,7.245-4.113a50.9,50.9,0,1,0-98.341-18.454c-.09,7.582,11.689,7.587,11.779,0Z"
          fill="#6f64f8" />
      </g>
      <path id="路径_23" data-name="路径 23"
        d="M328.294,537.245c-.376.186-.748.382-1.115.585C327.634,537.584,328.009,537.389,328.294,537.245Z"
        fill="#7a79b7" />
      <path id="路径_24" data-name="路径 24"
        d="M328.93,536.935s-.232.107-.636.31C328.506,537.141,328.716,537.034,328.93,536.935Z" fill="#7a79b7" />
      <path id="路径_25" data-name="路径 25"
        d="M392.581,604.092,376.3,583.1q-5.026-6.483-10.054-12.967c-2.928-3.776-4.549-6.376-8.574-9.691a38.307,38.307,0,0,0-62.816,32.119,37.059,37.059,0,0,0,6.554,19.01c13.21,18.856,39.094,21.7,56.773,7.362,2.49-2.019,2.06-6.223,0-8.329-2.416-2.47-5.872-1.992-8.329,0-11.947,9.685-30.319,6.967-38.848-5.823a26.915,26.915,0,0,1,6.354-36.389,26.191,26.191,0,0,1,2.217-1.45c.043-.025.087-.047.129-.072.137-.075.275-.153.4-.22q.551-.306,1.115-.586c.4-.2.632-.308.632-.308a26.786,26.786,0,0,1,15.627-2.139c7.658,1.3,13.42,5.741,18.045,11.762,4.44,5.78,8.932,11.52,13.4,17.28l15.323,19.762c1.965,2.534,6.259,2.026,8.329,0C395.09,609.967,394.52,606.592,392.581,604.092Z"
        fill="#6f64f8" />
      <path id="路径_26" data-name="路径 26"
        d="M481.021,576.882c-7.43-19.993-30.033-30.494-50.067-22.723C428,555.3,425.92,558.12,426.84,561.4c.791,2.825,4.253,5.274,7.245,4.113,13.854-5.373,29.91.218,35.578,14.5a26.664,26.664,0,0,1-2.155,23.768,26.328,26.328,0,0,1-30.952,11.4c-6.074-1.944-10.418-6.024-14.239-10.959q-6.855-8.855-13.722-17.7L393.75,567.375c-1.964-2.534-6.258-2.026-8.329,0-2.508,2.454-1.938,5.829,0,8.329q7.662,9.882,15.323,19.763c5.312,6.85,11,15.157,16.2,20.729.023.025.047.052.071.077,12.518,13.372,33.961,15.887,49.149,5.59C480.524,612.124,487.14,593.348,481.021,576.882Z"
        fill="#fcd405" />
    </g>
  </g>
</svg>