<?xml version="1.0" encoding="UTF-8" standalone="no"?>
<!DOCTYPE svg PUBLIC "-//W3C//DTD SVG 1.1//EN" "http://www.w3.org/Graphics/SVG/1.1/DTD/svg11.dtd">
<svg xmlns="http://www.w3.org/2000/svg" version="1.1" viewBox="0 0 32 32">
<g stroke-width="2.0" fill="none" stroke-linecap="butt">
<path stroke="#ff8081" vector-effect="non-scaling-stroke" d="
  M 15.36 6.34
  Q 21.21 11.85 22.19 13.06
  Q 25.28 16.90 30.99 15.29
  Q 32.51 14.86 30.99 14.43
  Q 22.57 12.07 16.16 5.54
  C 15.95 5.33 15.86 5.02 15.92 4.70
  Q 16.39 1.94 13.62 2.14
  C 13.33 2.16 13.12 2.39 13.17 2.62
  L 13.27 3.05
  C 13.36 3.46 13.37 3.79 13.29 3.95
  Q 9.11 12.54 1.39 18.20
  Q -0.43 19.53 1.43 19.01
  Q 1.68 18.94 1.92 18.81
  Q 9.86 14.22 14.74 6.42
  C 14.87 6.20 15.17 6.16 15.36 6.34"
/>
<path stroke="#ff8081" vector-effect="non-scaling-stroke" d="
  M 15.79 19.69
  Q 17.59 19.23 19.40 18.79
  Q 22.35 18.07 19.99 17.38
  Q 19.77 17.31 19.04 17.42
  L 15.94 17.85
  C 15.69 17.88 15.46 17.63 15.44 17.31
  L 15.37 15.82
  C 15.35 15.47 15.51 15.17 15.76 15.10
  L 18.50 14.31
  C 18.91 14.19 19.23 14.04 19.36 13.90
  Q 20.58 12.57 18.02 12.92
  Q 14.92 13.34 11.82 13.86
  Q 10.75 14.04 10.37 14.53
  Q 9.64 15.46 12.96 15.52
  C 13.26 15.53 13.50 15.76 13.49 16.04
  L 13.48 18.18
  C 13.47 18.48 13.26 18.73 12.96 18.81
  Q 11.38 19.19 9.78 19.45
  Q 8.56 19.65 9.26 20.11
  Q 9.47 20.25 9.78 20.28
  Q 11.41 20.42 13.06 20.44
  C 13.34 20.44 13.58 20.66 13.59 20.94
  L 13.76 26.31
  C 13.78 26.90 13.35 27.40 12.78 27.44
  L 5.06 28.04
  C 4.76 28.07 4.53 28.30 4.55 28.57
  Q 4.64 30.07 6.49 29.69
  Q 15.76 27.76 25.58 28.27
  Q 27.10 28.35 25.95 27.34
  Q 24.75 26.29 23.00 26.36
  Q 19.61 26.50 16.22 27.00
  C 15.71 27.08 15.25 26.69 15.26 26.19
  L 15.29 20.30
  C 15.30 20.02 15.50 19.77 15.79 19.69"
/>
<path stroke="#ff8081" vector-effect="non-scaling-stroke" d="
  M 20.36 20.60
  C 20.10 20.48 19.81 20.61 19.72 20.87
  Q 19.02 22.90 18.02 24.01
  Q 16.47 25.74 18.47 24.69
  Q 19.74 24.02 20.89 23.16
  Q 22.82 21.70 20.36 20.60"
/>
<path stroke="#ff8081" vector-effect="non-scaling-stroke" d="
  M 11.0786 25.4978
  C 11.51 25.11 11.21 24.08 10.4203 23.1974
  C 9.63 22.31 8.63 21.91 8.2014 22.3022
  C 7.77 22.69 8.07 23.72 8.8597 24.6026
  C 9.65 25.49 10.65 25.89 11.0786 25.4978"
/>
</g>
<path fill="#ffffff" d="
  M 0.00 0.00
  Q 16.00 0.00 32.00 0.00
  Q 32.00 16.00 32.00 32.00
  Q 16.00 32.00 0.00 32.00
  Q 0.00 16.00 0.00 0.00
  Z
  M 15.36 6.34
  Q 21.21 11.85 22.19 13.06
  Q 25.28 16.90 30.99 15.29
  Q 32.51 14.86 30.99 14.43
  Q 22.57 12.07 16.16 5.54
  C 15.95 5.33 15.86 5.02 15.92 4.70
  Q 16.39 1.94 13.62 2.14
  C 13.33 2.16 13.12 2.39 13.17 2.62
  L 13.27 3.05
  C 13.36 3.46 13.37 3.79 13.29 3.95
  Q 9.11 12.54 1.39 18.20
  Q -0.43 19.53 1.43 19.01
  Q 1.68 18.94 1.92 18.81
  Q 9.86 14.22 14.74 6.42
  C 14.87 6.20 15.17 6.16 15.36 6.34
  Z
  M 15.79 19.69
  Q 17.59 19.23 19.40 18.79
  Q 22.35 18.07 19.99 17.38
  Q 19.77 17.31 19.04 17.42
  L 15.94 17.85
  C 15.69 17.88 15.46 17.63 15.44 17.31
  L 15.37 15.82
  C 15.35 15.47 15.51 15.17 15.76 15.10
  L 18.50 14.31
  C 18.91 14.19 19.23 14.04 19.36 13.90
  Q 20.58 12.57 18.02 12.92
  Q 14.92 13.34 11.82 13.86
  Q 10.75 14.04 10.37 14.53
  Q 9.64 15.46 12.96 15.52
  C 13.26 15.53 13.50 15.76 13.49 16.04
  L 13.48 18.18
  C 13.47 18.48 13.26 18.73 12.96 18.81
  Q 11.38 19.19 9.78 19.45
  Q 8.56 19.65 9.26 20.11
  Q 9.47 20.25 9.78 20.28
  Q 11.41 20.42 13.06 20.44
  C 13.34 20.44 13.58 20.66 13.59 20.94
  L 13.76 26.31
  C 13.78 26.90 13.35 27.40 12.78 27.44
  L 5.06 28.04
  C 4.76 28.07 4.53 28.30 4.55 28.57
  Q 4.64 30.07 6.49 29.69
  Q 15.76 27.76 25.58 28.27
  Q 27.10 28.35 25.95 27.34
  Q 24.75 26.29 23.00 26.36
  Q 19.61 26.50 16.22 27.00
  C 15.71 27.08 15.25 26.69 15.26 26.19
  L 15.29 20.30
  C 15.30 20.02 15.50 19.77 15.79 19.69
  Z
  M 20.36 20.60
  C 20.10 20.48 19.81 20.61 19.72 20.87
  Q 19.02 22.90 18.02 24.01
  Q 16.47 25.74 18.47 24.69
  Q 19.74 24.02 20.89 23.16
  Q 22.82 21.70 20.36 20.60
  Z
  M 11.0786 25.4978
  C 11.51 25.11 11.21 24.08 10.4203 23.1974
  C 9.63 22.31 8.63 21.91 8.2014 22.3022
  C 7.77 22.69 8.07 23.72 8.8597 24.6026
  C 9.65 25.49 10.65 25.89 11.0786 25.4978
  Z"
/>
<path fill="#fe0102" d="
  M 14.74 6.42
  Q 9.86 14.22 1.92 18.81
  Q 1.68 18.94 1.43 19.01
  Q -0.43 19.53 1.39 18.20
  Q 9.11 12.54 13.29 3.95
  C 13.37 3.79 13.36 3.46 13.27 3.05
  L 13.17 2.62
  C 13.12 2.39 13.33 2.16 13.62 2.14
  Q 16.39 1.94 15.92 4.70
  C 15.86 5.02 15.95 5.33 16.16 5.54
  Q 22.57 12.07 30.99 14.43
  Q 32.51 14.86 30.99 15.29
  Q 25.28 16.90 22.19 13.06
  Q 21.21 11.85 15.36 6.34
  C 15.17 6.16 14.87 6.20 14.74 6.42
  Z"
/>
<path fill="#fe0102" d="
  M 15.29 20.30
  L 15.26 26.19
  C 15.25 26.69 15.71 27.08 16.22 27.00
  Q 19.61 26.50 23.00 26.36
  Q 24.75 26.29 25.95 27.34
  Q 27.10 28.35 25.58 28.27
  Q 15.76 27.76 6.49 29.69
  Q 4.64 30.07 4.55 28.57
  C 4.53 28.30 4.76 28.07 5.06 28.04
  L 12.78 27.44
  C 13.35 27.40 13.78 26.90 13.76 26.31
  L 13.59 20.94
  C 13.58 20.66 13.34 20.44 13.06 20.44
  Q 11.41 20.42 9.78 20.28
  Q 9.47 20.25 9.26 20.11
  Q 8.56 19.65 9.78 19.45
  Q 11.38 19.19 12.96 18.81
  C 13.26 18.73 13.47 18.48 13.48 18.18
  L 13.49 16.04
  C 13.50 15.76 13.26 15.53 12.96 15.52
  Q 9.64 15.46 10.37 14.53
  Q 10.75 14.04 11.82 13.86
  Q 14.92 13.34 18.02 12.92
  Q 20.58 12.57 19.36 13.90
  C 19.23 14.04 18.91 14.19 18.50 14.31
  L 15.76 15.10
  C 15.51 15.17 15.35 15.47 15.37 15.82
  L 15.44 17.31
  C 15.46 17.63 15.69 17.88 15.94 17.85
  L 19.04 17.42
  Q 19.77 17.31 19.99 17.38
  Q 22.35 18.07 19.40 18.79
  Q 17.59 19.23 15.79 19.69
  C 15.50 19.77 15.30 20.02 15.29 20.30
  Z"
/>
<path fill="#fe0102" d="
  M 20.36 20.60
  Q 22.82 21.70 20.89 23.16
  Q 19.74 24.02 18.47 24.69
  Q 16.47 25.74 18.02 24.01
  Q 19.02 22.90 19.72 20.87
  C 19.81 20.61 20.10 20.48 20.36 20.60
  Z"
/>
<ellipse fill="#fe0102" cx="0.00" cy="0.00" transform="translate(9.64,23.90) rotate(48.0)" rx="2.15" ry="1.05"/>
</svg>
