<?xml version="1.0" encoding="UTF-8" standalone="no"?>
<!DOCTYPE svg PUBLIC "-//W3C//DTD SVG 1.1//EN" "http://www.w3.org/Graphics/SVG/1.1/DTD/svg11.dtd">
<svg xmlns="http://www.w3.org/2000/svg" version="1.1" viewBox="0 0 144 144">
<g stroke-width="2.0" fill="none" stroke-linecap="butt">
<path stroke="#805e3b" vector-effect="non-scaling-stroke" d="
  M 136.94 144.00
  Q 136.86 143.75 136.25 143.75
  Q 72.25 143.75 8.25 143.67
  Q 7.83 143.67 7.69 144.00"
/>
<path stroke="#c0ae9c" vector-effect="non-scaling-stroke" d="
  M 68.83 100.31
  Q 60.22 99.50 58.41 91.22
  Q 57.60 87.54 57.91 84.11
  C 57.96 83.53 57.52 83.02 56.95 83.03
  L 44.69 83.16
  C 44.39 83.16 44.13 83.37 44.07 83.67
  Q 43.70 85.41 44.00 88.75
  Q 45.46 105.17 58.66 110.57
  Q 63.59 112.58 70.08 112.61
  Q 76.35 112.63 81.75 111.00
  Q 95.05 106.98 96.87 92.52
  Q 97.34 88.77 97.46 85.00
  Q 98.40 55.85 97.82 26.69
  C 97.81 26.40 97.59 26.17 97.31 26.16
  L 84.69 26.05
  C 84.31 26.04 84.00 26.37 84.00 26.77
  Q 84.00 53.25 84.03 78.75
  Q 84.04 87.58 83.00 91.00
  Q 79.86 101.35 68.83 100.31"
/>
</g>
<path fill="#805e3b" d="
  M 0.00 0.00
  Q 72.00 0.00 144.00 0.00
  Q 144.00 72.00 144.00 144.00
  Q 140.47 144.00 136.94 144.00
  Q 136.86 143.75 136.25 143.75
  Q 72.25 143.75 8.25 143.67
  Q 7.83 143.67 7.69 144.00
  Q 3.84 144.00 0.00 144.00
  Q 0.00 72.00 0.00 0.00
  Z
  M 68.83 100.31
  Q 60.22 99.50 58.41 91.22
  Q 57.60 87.54 57.91 84.11
  C 57.96 83.53 57.52 83.02 56.95 83.03
  L 44.69 83.16
  C 44.39 83.16 44.13 83.37 44.07 83.67
  Q 43.70 85.41 44.00 88.75
  Q 45.46 105.17 58.66 110.57
  Q 63.59 112.58 70.08 112.61
  Q 76.35 112.63 81.75 111.00
  Q 95.05 106.98 96.87 92.52
  Q 97.34 88.77 97.46 85.00
  Q 98.40 55.85 97.82 26.69
  C 97.81 26.40 97.59 26.17 97.31 26.16
  L 84.69 26.05
  C 84.31 26.04 84.00 26.37 84.00 26.77
  Q 84.00 53.25 84.03 78.75
  Q 84.04 87.58 83.00 91.00
  Q 79.86 101.35 68.83 100.31
  Z"
/>
<path fill="#fffefd" d="
  M 68.83 100.31
  Q 79.86 101.35 83.00 91.00
  Q 84.04 87.58 84.03 78.75
  Q 84.00 53.25 84.00 26.77
  C 84.00 26.37 84.31 26.04 84.69 26.05
  L 97.31 26.16
  C 97.59 26.17 97.81 26.40 97.82 26.69
  Q 98.40 55.85 97.46 85.00
  Q 97.34 88.77 96.87 92.52
  Q 95.05 106.98 81.75 111.00
  Q 76.35 112.63 70.08 112.61
  Q 63.59 112.58 58.66 110.57
  Q 45.46 105.17 44.00 88.75
  Q 43.70 85.41 44.07 83.67
  C 44.13 83.37 44.39 83.16 44.69 83.16
  L 56.95 83.03
  C 57.52 83.02 57.96 83.53 57.91 84.11
  Q 57.60 87.54 58.41 91.22
  Q 60.22 99.50 68.83 100.31
  Z"
/>
<path fill="#805e3b" d="
  M 136.94 144.00
  Q 72.31 144.00 7.69 144.00
  Q 7.83 143.67 8.25 143.67
  Q 72.25 143.75 136.25 143.75
  Q 136.86 143.75 136.94 144.00
  Z"
/>
</svg>
