<?xml version="1.0" encoding="UTF-8" standalone="no"?>
<!DOCTYPE svg PUBLIC "-//W3C//DTD SVG 1.1//EN" "http://www.w3.org/Graphics/SVG/1.1/DTD/svg11.dtd">
<svg xmlns="http://www.w3.org/2000/svg" version="1.1" viewBox="0 0 128 128">
<g stroke-width="2.0" fill="none" stroke-linecap="butt">
<path stroke="#8b8e93" vector-effect="non-scaling-stroke" d="
  M 63.56 33.51
  Q 60.75 28.70 58.25 23.72
  Q 56.83 20.90 55.33 20.05
  Q 52.27 18.35 50.02 22.54
  Q 38.74 43.62 27.44 64.69
  Q 26.00 67.37 25.08 70.03
  Q 24.45 71.84 25.31 73.43
  L 42.12 104.53
  Q 42.88 105.94 44.54 106.26
  Q 48.21 106.96 52.00 106.91
  Q 64.00 106.75 76.00 106.75
  Q 79.62 106.75 82.13 106.46
  Q 84.16 106.23 85.37 105.05
  Q 86.60 103.85 87.56 102.06
  Q 97.21 84.13 102.97 72.38
  C 103.12 72.08 103.17 71.75 103.12 71.44
  Q 102.71 68.91 101.19 66.06
  Q 82.40 30.81 79.06 24.44
  Q 77.62 21.68 75.80 19.90
  C 75.56 19.67 75.26 19.52 74.95 19.48
  Q 72.01 19.10 70.75 21.78
  Q 67.87 27.92 64.09 33.53
  C 63.96 33.72 63.68 33.71 63.56 33.51"
/>
<path stroke="#8b8e93" vector-effect="non-scaling-stroke" d="
  M 73.93 54.54
  Q 74.34 53.81 74.73 54.56
  Q 76.83 58.54 78.65 62.32
  Q 80.96 67.11 81.13 70.55
  Q 81.53 78.95 74.81 84.56
  Q 70.19 88.42 64.35 88.42
  Q 59.20 88.41 54.34 85.19
  Q 45.06 79.05 47.32 67.93
  Q 48.06 64.27 51.95 57.18
  Q 55.17 51.29 58.23 45.03
  C 58.59 44.28 58.57 43.42 58.17 42.73
  L 55.39 37.96
  Q 53.67 35.01 52.07 38.05
  L 35.10 70.24
  C 34.69 71.00 34.70 71.93 35.12 72.72
  Q 40.69 83.20 46.00 93.16
  Q 47.61 96.19 47.63 96.21
  Q 48.84 97.74 51.08 97.61
  Q 52.87 97.51 52.92 97.51
  Q 66.06 97.70 79.19 97.21
  C 79.51 97.20 79.79 97.02 79.94 96.75
  L 92.85 72.61
  Q 93.65 71.12 92.82 69.59
  L 76.06 38.43
  Q 74.23 35.04 72.33 38.41
  Q 64.74 51.90 57.48 66.50
  Q 55.95 69.60 56.06 71.77
  Q 56.23 75.04 58.49 77.07
  Q 61.28 79.60 65.55 78.95
  Q 71.46 78.06 71.97 71.49
  Q 72.11 69.59 71.29 67.64
  Q 70.52 65.83 69.49 64.07
  C 69.20 63.57 69.20 62.96 69.48 62.46
  L 73.93 54.54"
/>
</g>
<path fill="#171c27" d="
  M 30.31 0.00
  Q 64.56 0.00 98.81 0.00
  Q 106.29 0.74 111.44 3.56
  Q 126.67 11.90 128.00 30.06
  Q 128.00 64.44 128.00 98.81
  Q 124.32 125.23 97.69 128.00
  Q 63.44 128.00 29.19 128.00
  Q 2.75 124.32 0.00 97.69
  Q 0.00 63.44 0.00 29.19
  Q 0.78 20.44 5.19 13.94
  Q 13.99 0.98 30.31 0.00
  Z
  M 63.56 33.51
  Q 60.75 28.70 58.25 23.72
  Q 56.83 20.90 55.33 20.05
  Q 52.27 18.35 50.02 22.54
  Q 38.74 43.62 27.44 64.69
  Q 26.00 67.37 25.08 70.03
  Q 24.45 71.84 25.31 73.43
  L 42.12 104.53
  Q 42.88 105.94 44.54 106.26
  Q 48.21 106.96 52.00 106.91
  Q 64.00 106.75 76.00 106.75
  Q 79.62 106.75 82.13 106.46
  Q 84.16 106.23 85.37 105.05
  Q 86.60 103.85 87.56 102.06
  Q 97.21 84.13 102.97 72.38
  C 103.12 72.08 103.17 71.75 103.12 71.44
  Q 102.71 68.91 101.19 66.06
  Q 82.40 30.81 79.06 24.44
  Q 77.62 21.68 75.80 19.90
  C 75.56 19.67 75.26 19.52 74.95 19.48
  Q 72.01 19.10 70.75 21.78
  Q 67.87 27.92 64.09 33.53
  C 63.96 33.72 63.68 33.71 63.56 33.51
  Z"
/>
<path fill="#ffffff" d="
  M 64.09 33.53
  Q 67.87 27.92 70.75 21.78
  Q 72.01 19.10 74.95 19.48
  C 75.26 19.52 75.56 19.67 75.80 19.90
  Q 77.62 21.68 79.06 24.44
  Q 82.40 30.81 101.19 66.06
  Q 102.71 68.91 103.12 71.44
  C 103.17 71.75 103.12 72.08 102.97 72.38
  Q 97.21 84.13 87.56 102.06
  Q 86.60 103.85 85.37 105.05
  Q 84.16 106.23 82.13 106.46
  Q 79.62 106.75 76.00 106.75
  Q 64.00 106.75 52.00 106.91
  Q 48.21 106.96 44.54 106.26
  Q 42.88 105.94 42.12 104.53
  L 25.31 73.43
  Q 24.45 71.84 25.08 70.03
  Q 26.00 67.37 27.44 64.69
  Q 38.74 43.62 50.02 22.54
  Q 52.27 18.35 55.33 20.05
  Q 56.83 20.90 58.25 23.72
  Q 60.75 28.70 63.56 33.51
  C 63.68 33.71 63.96 33.72 64.09 33.53
  Z
  M 73.93 54.54
  Q 74.34 53.81 74.73 54.56
  Q 76.83 58.54 78.65 62.32
  Q 80.96 67.11 81.13 70.55
  Q 81.53 78.95 74.81 84.56
  Q 70.19 88.42 64.35 88.42
  Q 59.20 88.41 54.34 85.19
  Q 45.06 79.05 47.32 67.93
  Q 48.06 64.27 51.95 57.18
  Q 55.17 51.29 58.23 45.03
  C 58.59 44.28 58.57 43.42 58.17 42.73
  L 55.39 37.96
  Q 53.67 35.01 52.07 38.05
  L 35.10 70.24
  C 34.69 71.00 34.70 71.93 35.12 72.72
  Q 40.69 83.20 46.00 93.16
  Q 47.61 96.19 47.63 96.21
  Q 48.84 97.74 51.08 97.61
  Q 52.87 97.51 52.92 97.51
  Q 66.06 97.70 79.19 97.21
  C 79.51 97.20 79.79 97.02 79.94 96.75
  L 92.85 72.61
  Q 93.65 71.12 92.82 69.59
  L 76.06 38.43
  Q 74.23 35.04 72.33 38.41
  Q 64.74 51.90 57.48 66.50
  Q 55.95 69.60 56.06 71.77
  Q 56.23 75.04 58.49 77.07
  Q 61.28 79.60 65.55 78.95
  Q 71.46 78.06 71.97 71.49
  Q 72.11 69.59 71.29 67.64
  Q 70.52 65.83 69.49 64.07
  C 69.20 63.57 69.20 62.96 69.48 62.46
  L 73.93 54.54
  Z"
/>
<path fill="#171c27" d="
  M 73.93 54.54
  L 69.48 62.46
  C 69.20 62.96 69.20 63.57 69.49 64.07
  Q 70.52 65.83 71.29 67.64
  Q 72.11 69.59 71.97 71.49
  Q 71.46 78.06 65.55 78.95
  Q 61.28 79.60 58.49 77.07
  Q 56.23 75.04 56.06 71.77
  Q 55.95 69.60 57.48 66.50
  Q 64.74 51.90 72.33 38.41
  Q 74.23 35.04 76.06 38.43
  L 92.82 69.59
  Q 93.65 71.12 92.85 72.61
  L 79.94 96.75
  C 79.79 97.02 79.51 97.20 79.19 97.21
  Q 66.06 97.70 52.92 97.51
  Q 52.87 97.51 51.08 97.61
  Q 48.84 97.74 47.63 96.21
  Q 47.61 96.19 46.00 93.16
  Q 40.69 83.20 35.12 72.72
  C 34.70 71.93 34.69 71.00 35.10 70.24
  L 52.07 38.05
  Q 53.67 35.01 55.39 37.96
  L 58.17 42.73
  C 58.57 43.42 58.59 44.28 58.23 45.03
  Q 55.17 51.29 51.95 57.18
  Q 48.06 64.27 47.32 67.93
  Q 45.06 79.05 54.34 85.19
  Q 59.20 88.41 64.35 88.42
  Q 70.19 88.42 74.81 84.56
  Q 81.53 78.95 81.13 70.55
  Q 80.96 67.11 78.65 62.32
  Q 76.83 58.54 74.73 54.56
  Q 74.34 53.81 73.93 54.54
  Z"
/>
</svg>
