<?xml version="1.0" encoding="UTF-8" standalone="no"?>
<!DOCTYPE svg PUBLIC "-//W3C//DTD SVG 1.1//EN" "http://www.w3.org/Graphics/SVG/1.1/DTD/svg11.dtd">
<svg xmlns="http://www.w3.org/2000/svg" version="1.1" viewBox="0 0 300 300">
<path fill="#f38577" d="
  M 150.45 254.81
  C 150.20 254.81 150.00 254.57 150.00 254.28
  Q 150.00 167.87 150.00 82.25
  Q 150.00 78.92 148.86 77.16
  Q 138.66 61.38 128.38 45.95
  Q 127.75 45.00 128.89 45.00
  L 177.50 45.00
  Q 178.49 45.00 177.95 45.83
  L 156.99 77.88
  C 156.67 78.36 156.50 78.93 156.50 79.52
  L 156.50 254.28
  C 156.50 254.58 156.30 254.82 156.05 254.82
  L 150.45 254.81
  Z"
/>
<rect fill="#83b9f5" x="-8.07" y="-5.77" transform="translate(121.83,81.75) rotate(0.2)" width="16.14" height="11.54" rx="0.45"/>
<path fill="#527eb2" d="
  M 263.45 135.23
  Q 275.00 143.51 286.38 152.00
  Q 289.03 153.97 289.48 155.53
  Q 290.27 158.22 287.06 160.56
  Q 235.83 198.02 184.32 235.08
  Q 181.73 236.95 180.22 237.06
  Q 178.09 237.21 176.83 235.28
  Q 176.06 234.10 176.06 231.91
  Q 175.91 157.00 176.06 82.08
  Q 176.06 78.82 177.12 77.28
  Q 179.21 74.25 183.19 77.06
  Q 202.37 90.61 247.25 123.52
  Q 253.12 127.82 263.45 135.23
  Z"
/>
<rect fill="#83b9f5" x="101.00" y="94.75" width="29.00" height="11.50" rx="0.64"/>
<rect fill="#83b9f5" x="67.34" y="113.50" width="62.62" height="11.52" rx="0.48"/>
<rect fill="#83b9f5" x="33.00" y="132.24" width="96.96" height="11.76" rx="0.71"/>
<rect fill="#83b9f5" x="10.25" y="150.99" width="119.70" height="11.76" rx="0.63"/>
<rect fill="#83b9f5" x="48.00" y="169.74" width="82.00" height="11.76" rx="0.64"/>
<rect fill="#83b9f5" x="81.26" y="188.50" width="48.70" height="11.76" rx="0.88"/>
<rect fill="#83b9f5" x="68.01" y="207.26" width="61.92" height="11.74" rx="0.80"/>
<rect fill="#83b9f5" x="100.00" y="225.26" width="29.96" height="11.74" rx="0.60"/>
</svg>
