<?xml version="1.0" encoding="UTF-8" standalone="no"?>
<!DOCTYPE svg PUBLIC "-//W3C//DTD SVG 1.1//EN" "http://www.w3.org/Graphics/SVG/1.1/DTD/svg11.dtd">
<svg xmlns="http://www.w3.org/2000/svg" version="1.1" viewBox="0 0 256 256">
<path fill="#185290" d="
  M 103.17 100.09
  L 160.90 42.98
  C 161.37 42.51 161.99 42.25 162.64 42.25
  L 211.70 42.25
  Q 213.02 42.25 212.08 43.17
  L 130.51 123.35
  C 130.03 123.83 129.94 124.56 130.28 125.14
  L 183.57 214.20
  Q 184.05 215.00 183.12 215.00
  L 134.36 215.00
  C 134.04 215.00 133.74 214.83 133.58 214.55
  L 95.52 149.86
  Q 94.82 148.67 94.59 150.04
  L 84.15 214.04
  C 84.06 214.59 83.58 215.00 83.01 215.00
  L 43.78 215.00
  C 43.38 215.00 43.07 214.64 43.14 214.24
  L 70.98 42.55
  C 71.03 42.26 71.27 42.05 71.56 42.06
  L 111.51 42.24
  C 111.77 42.24 111.96 42.48 111.92 42.75
  L 102.89 99.95
  Q 102.81 100.45 103.17 100.09
  Z"
/>
</svg>
