<?xml version="1.0" encoding="UTF-8" standalone="no"?>
<!DOCTYPE svg PUBLIC "-//W3C//DTD SVG 1.1//EN" "http://www.w3.org/Graphics/SVG/1.1/DTD/svg11.dtd">
<svg xmlns="http://www.w3.org/2000/svg" version="1.1" viewBox="0 0 60 60">
<g stroke-width="2.0" fill="none" stroke-linecap="butt">
<path stroke="#188dfb" vector-effect="non-scaling-stroke" d="
  M 0.28 7.78
  Q 0.15 9.49 0.28 10.99
  Q 0.38 12.26 0.92 11.10
  Q 4.12 4.30 11.13 0.67
  Q 11.86 0.30 11.04 0.31
  L 1.18 0.48
  C 0.77 0.49 0.42 0.79 0.35 1.20
  Q 0.08 2.77 0.23 4.60
  Q 0.38 6.34 0.28 7.78"
/>
<path stroke="#188dfb" vector-effect="non-scaling-stroke" d="
  M 45.79 0.53
  L 29.94 0.55
  Q 29.39 0.55 29.86 0.84
  Q 37.78 5.80 40.38 13.41
  C 40.52 13.81 40.99 13.97 41.35 13.74
  Q 46.95 10.17 51.36 14.74
  Q 52.63 16.05 52.25 14.26
  Q 50.73 7.12 46.67 1.03
  C 46.46 0.72 46.13 0.53 45.79 0.53"
/>
<path stroke="#80c0fd" vector-effect="non-scaling-stroke" d="
  M 49.09 14.60
  Q 47.26 13.33 45.04 13.64
  Q 38.37 14.57 37.19 21.74
  Q 36.48 26.05 35.63 30.35
  Q 35.14 32.84 35.44 34.18
  Q 35.91 36.35 37.59 37.60
  Q 39.62 39.10 42.67 38.69
  Q 46.34 38.20 48.36 35.29
  Q 49.53 33.61 50.39 29.43
  Q 51.26 25.23 52.03 21.00
  Q 52.73 17.15 49.09 14.60"
/>
<path stroke="#80c0fd" vector-effect="non-scaling-stroke" d="
  M 29.69 13.99
  Q 22.87 13.31 20.75 20.75
  Q 20.15 22.86 18.79 31.21
  Q 18.43 33.44 18.88 34.77
  Q 19.54 36.70 21.17 37.77
  Q 23.17 39.08 26.03 38.63
  Q 29.62 38.06 31.59 35.20
  Q 32.73 33.53 33.52 29.40
  Q 34.31 25.23 35.07 21.06
  Q 35.64 17.97 33.94 15.96
  Q 32.52 14.28 29.69 13.99"
/>
<path stroke="#188dfb" vector-effect="non-scaling-stroke" d="
  M 7.96 44.50
  Q 6.59 42.53 7.83 39.11
  C 8.10 38.34 7.84 37.49 7.18 37.01
  Q 3.34 34.20 1.00 28.99
  Q 0.31 27.47 0.31 29.14
  L 0.31 44.29
  Q 0.31 46.10 1.83 47.05
  Q 17.63 56.87 34.44 49.41
  Q 35.01 49.16 35.36 48.83
  Q 36.74 47.55 33.93 47.90
  Q 33.18 48.00 32.58 47.88
  Q 26.34 46.63 21.90 42.05
  C 21.64 41.78 21.34 41.62 21.07 41.61
  L 16.69 41.41
  C 16.42 41.39 16.20 41.63 16.19 41.94
  Q 16.14 47.81 10.46 46.93
  Q 9.98 46.86 9.15 46.90
  Q 7.62 46.98 8.29 45.50"
/>
<path stroke="#80c0fd" vector-effect="non-scaling-stroke" d="
  M 8.29 45.50
  L 13.57 45.37
  C 13.85 45.36 14.09 45.13 14.14 44.83
  L 19.16 15.09
  C 19.21 14.81 19.00 14.56 18.73 14.55
  L 15.51 14.50
  Q 13.23 14.46 12.79 17.01
  L 7.96 44.50"
/>
<path stroke="#97ccfd" vector-effect="non-scaling-stroke" d="
  M 8.29 45.50
  Q 7.93 45.06 7.96 44.50"
/>
<path stroke="#188dfb" vector-effect="non-scaling-stroke" d="
  M 38.80 40.23
  L 34.85 36.10
  C 34.60 35.83 34.18 35.80 33.86 36.01
  L 28.05 39.88
  Q 27.34 40.36 28.13 40.54
  Q 34.38 42.02 39.71 40.61
  Q 41.65 40.10 39.40 40.39
  C 39.15 40.42 38.93 40.36 38.80 40.23"
/>
<path stroke="#80c0fd" vector-effect="non-scaling-stroke" d="
  M 46.25 39.71
  Q 35.67 45.78 24.38 40.94
  Q 20.86 39.43 23.09 41.72
  Q 23.42 42.05 23.83 42.36
  Q 35.37 51.15 46.04 41.25"
/>
<path stroke="#188dfb" vector-effect="non-scaling-stroke" d="
  M 46.04 41.25
  Q 46.62 41.34 46.57 41.90
  Q 46.55 42.20 46.25 42.51
  Q 42.76 46.11 37.97 47.61
  C 37.75 47.67 37.68 47.95 37.84 48.12
  Q 45.30 56.25 47.44 57.56
  Q 52.71 60.80 56.44 56.69
  Q 61.10 51.54 56.06 46.19
  Q 52.28 42.18 48.12 38.57
  C 47.89 38.38 47.57 38.38 47.38 38.57
  L 46.25 39.71"
/>
<path stroke="#97ccfd" vector-effect="non-scaling-stroke" d="
  M 46.04 41.25
  Q 46.98 40.37 46.25 39.71"
/>
<path stroke="#80c0fd" vector-effect="non-scaling-stroke" d="
  M 41.34 33.82
  Q 43.90 34.02 44.21 31.65
  Q 44.36 30.47 44.38 30.36
  Q 45.48 25.09 46.18 19.75
  C 46.22 19.46 46.03 19.20 45.76 19.17
  Q 43.70 18.94 43.21 21.19
  Q 42.01 26.83 40.87 33.22
  C 40.82 33.52 41.04 33.80 41.34 33.82"
/>
<path stroke="#80c0fd" vector-effect="non-scaling-stroke" d="
  M 27.31 32.31
  Q 27.84 30.39 29.60 19.80
  C 29.65 19.51 29.47 19.24 29.20 19.18
  Q 27.06 18.70 26.50 20.50
  Q 25.60 23.41 24.14 33.19
  C 24.10 33.48 24.27 33.75 24.54 33.81
  Q 26.78 34.27 27.31 32.31"
/>
</g>
<path fill="#0081fa" d="
  M 0.00 0.00
  Q 30.00 0.00 60.00 0.00
  Q 60.00 30.00 60.00 60.00
  Q 30.00 60.00 0.00 60.00
  Q 0.00 30.00 0.00 0.00
  Z
  M 0.28 7.78
  Q 0.15 9.49 0.28 10.99
  Q 0.38 12.26 0.92 11.10
  Q 4.12 4.30 11.13 0.67
  Q 11.86 0.30 11.04 0.31
  L 1.18 0.48
  C 0.77 0.49 0.42 0.79 0.35 1.20
  Q 0.08 2.77 0.23 4.60
  Q 0.38 6.34 0.28 7.78
  Z
  M 45.79 0.53
  L 29.94 0.55
  Q 29.39 0.55 29.86 0.84
  Q 37.78 5.80 40.38 13.41
  C 40.52 13.81 40.99 13.97 41.35 13.74
  Q 46.95 10.17 51.36 14.74
  Q 52.63 16.05 52.25 14.26
  Q 50.73 7.12 46.67 1.03
  C 46.46 0.72 46.13 0.53 45.79 0.53
  Z
  M 49.09 14.60
  Q 47.26 13.33 45.04 13.64
  Q 38.37 14.57 37.19 21.74
  Q 36.48 26.05 35.63 30.35
  Q 35.14 32.84 35.44 34.18
  Q 35.91 36.35 37.59 37.60
  Q 39.62 39.10 42.67 38.69
  Q 46.34 38.20 48.36 35.29
  Q 49.53 33.61 50.39 29.43
  Q 51.26 25.23 52.03 21.00
  Q 52.73 17.15 49.09 14.60
  Z
  M 29.69 13.99
  Q 22.87 13.31 20.75 20.75
  Q 20.15 22.86 18.79 31.21
  Q 18.43 33.44 18.88 34.77
  Q 19.54 36.70 21.17 37.77
  Q 23.17 39.08 26.03 38.63
  Q 29.62 38.06 31.59 35.20
  Q 32.73 33.53 33.52 29.40
  Q 34.31 25.23 35.07 21.06
  Q 35.64 17.97 33.94 15.96
  Q 32.52 14.28 29.69 13.99
  Z
  M 7.96 44.50
  Q 6.59 42.53 7.83 39.11
  C 8.10 38.34 7.84 37.49 7.18 37.01
  Q 3.34 34.20 1.00 28.99
  Q 0.31 27.47 0.31 29.14
  L 0.31 44.29
  Q 0.31 46.10 1.83 47.05
  Q 17.63 56.87 34.44 49.41
  Q 35.01 49.16 35.36 48.83
  Q 36.74 47.55 33.93 47.90
  Q 33.18 48.00 32.58 47.88
  Q 26.34 46.63 21.90 42.05
  C 21.64 41.78 21.34 41.62 21.07 41.61
  L 16.69 41.41
  C 16.42 41.39 16.20 41.63 16.19 41.94
  Q 16.14 47.81 10.46 46.93
  Q 9.98 46.86 9.15 46.90
  Q 7.62 46.98 8.29 45.50
  L 13.57 45.37
  C 13.85 45.36 14.09 45.13 14.14 44.83
  L 19.16 15.09
  C 19.21 14.81 19.00 14.56 18.73 14.55
  L 15.51 14.50
  Q 13.23 14.46 12.79 17.01
  L 7.96 44.50
  Z
  M 38.80 40.23
  L 34.85 36.10
  C 34.60 35.83 34.18 35.80 33.86 36.01
  L 28.05 39.88
  Q 27.34 40.36 28.13 40.54
  Q 34.38 42.02 39.71 40.61
  Q 41.65 40.10 39.40 40.39
  C 39.15 40.42 38.93 40.36 38.80 40.23
  Z
  M 46.25 39.71
  Q 35.67 45.78 24.38 40.94
  Q 20.86 39.43 23.09 41.72
  Q 23.42 42.05 23.83 42.36
  Q 35.37 51.15 46.04 41.25
  Q 46.62 41.34 46.57 41.90
  Q 46.55 42.20 46.25 42.51
  Q 42.76 46.11 37.97 47.61
  C 37.75 47.67 37.68 47.95 37.84 48.12
  Q 45.30 56.25 47.44 57.56
  Q 52.71 60.80 56.44 56.69
  Q 61.10 51.54 56.06 46.19
  Q 52.28 42.18 48.12 38.57
  C 47.89 38.38 47.57 38.38 47.38 38.57
  L 46.25 39.71
  Z"
/>
<path fill="#2f99fb" d="
  M 0.23 4.60
  Q 0.08 2.77 0.35 1.20
  C 0.42 0.79 0.77 0.49 1.18 0.48
  L 11.04 0.31
  Q 11.86 0.30 11.13 0.67
  Q 4.12 4.30 0.92 11.10
  Q 0.38 12.26 0.28 10.99
  Q 0.15 9.49 0.28 7.78
  Q 0.38 6.34 0.23 4.60
  Z"
/>
<path fill="#2f99fb" d="
  M 45.79 0.53
  C 46.13 0.53 46.46 0.72 46.67 1.03
  Q 50.73 7.12 52.25 14.26
  Q 52.63 16.05 51.36 14.74
  Q 46.95 10.17 41.35 13.74
  C 40.99 13.97 40.52 13.81 40.38 13.41
  Q 37.78 5.80 29.86 0.84
  Q 29.39 0.55 29.94 0.55
  L 45.79 0.53
  Z"
/>
<path fill="#ffffff" d="
  M 49.09 14.60
  Q 52.73 17.15 52.03 21.00
  Q 51.26 25.23 50.39 29.43
  Q 49.53 33.61 48.36 35.29
  Q 46.34 38.20 42.67 38.69
  Q 39.62 39.10 37.59 37.60
  Q 35.91 36.35 35.44 34.18
  Q 35.14 32.84 35.63 30.35
  Q 36.48 26.05 37.19 21.74
  Q 38.37 14.57 45.04 13.64
  Q 47.26 13.33 49.09 14.60
  Z
  M 41.34 33.82
  Q 43.90 34.02 44.21 31.65
  Q 44.36 30.47 44.38 30.36
  Q 45.48 25.09 46.18 19.75
  C 46.22 19.46 46.03 19.20 45.76 19.17
  Q 43.70 18.94 43.21 21.19
  Q 42.01 26.83 40.87 33.22
  C 40.82 33.52 41.04 33.80 41.34 33.82
  Z"
/>
<path fill="#ffffff" d="
  M 33.94 15.96
  Q 35.64 17.97 35.07 21.06
  Q 34.31 25.23 33.52 29.40
  Q 32.73 33.53 31.59 35.20
  Q 29.62 38.06 26.03 38.63
  Q 23.17 39.08 21.17 37.77
  Q 19.54 36.70 18.88 34.77
  Q 18.43 33.44 18.79 31.21
  Q 20.15 22.86 20.75 20.75
  Q 22.87 13.31 29.69 13.99
  Q 32.52 14.28 33.94 15.96
  Z
  M 27.31 32.31
  Q 27.84 30.39 29.60 19.80
  C 29.65 19.51 29.47 19.24 29.20 19.18
  Q 27.06 18.70 26.50 20.50
  Q 25.60 23.41 24.14 33.19
  C 24.10 33.48 24.27 33.75 24.54 33.81
  Q 26.78 34.27 27.31 32.31
  Z"
/>
<path fill="#ffffff" d="
  M 8.29 45.50
  Q 7.93 45.06 7.96 44.50
  L 12.79 17.01
  Q 13.23 14.46 15.51 14.50
  L 18.73 14.55
  C 19.00 14.56 19.21 14.81 19.16 15.09
  L 14.14 44.83
  C 14.09 45.13 13.85 45.36 13.57 45.37
  L 8.29 45.50
  Z"
/>
<path fill="#0081fa" d="
  M 27.31 32.31
  Q 26.78 34.27 24.54 33.81
  C 24.27 33.75 24.10 33.48 24.14 33.19
  Q 25.60 23.41 26.50 20.50
  Q 27.06 18.70 29.20 19.18
  C 29.47 19.24 29.65 19.51 29.60 19.80
  Q 27.84 30.39 27.31 32.31
  Z"
/>
<path fill="#0081fa" d="
  M 41.34 33.82
  C 41.04 33.80 40.82 33.52 40.87 33.22
  Q 42.01 26.83 43.21 21.19
  Q 43.70 18.94 45.76 19.17
  C 46.03 19.20 46.22 19.46 46.18 19.75
  Q 45.48 25.09 44.38 30.36
  Q 44.36 30.47 44.21 31.65
  Q 43.90 34.02 41.34 33.82
  Z"
/>
<path fill="#2f99fb" d="
  M 7.96 44.50
  Q 7.93 45.06 8.29 45.50
  Q 7.62 46.98 9.15 46.90
  Q 9.98 46.86 10.46 46.93
  Q 16.14 47.81 16.19 41.94
  C 16.20 41.63 16.42 41.39 16.69 41.41
  L 21.07 41.61
  C 21.34 41.62 21.64 41.78 21.90 42.05
  Q 26.34 46.63 32.58 47.88
  Q 33.18 48.00 33.93 47.90
  Q 36.74 47.55 35.36 48.83
  Q 35.01 49.16 34.44 49.41
  Q 17.63 56.87 1.83 47.05
  Q 0.31 46.10 0.31 44.29
  L 0.31 29.14
  Q 0.31 27.47 1.00 28.99
  Q 3.34 34.20 7.18 37.01
  C 7.84 37.49 8.10 38.34 7.83 39.11
  Q 6.59 42.53 7.96 44.50
  Z"
/>
<path fill="#2f99fb" d="
  M 39.40 40.39
  Q 41.65 40.10 39.71 40.61
  Q 34.38 42.02 28.13 40.54
  Q 27.34 40.36 28.05 39.88
  L 33.86 36.01
  C 34.18 35.80 34.60 35.83 34.85 36.10
  L 38.80 40.23
  C 38.93 40.36 39.15 40.42 39.40 40.39
  Z"
/>
<path fill="#2f99fb" d="
  M 46.04 41.25
  Q 46.98 40.37 46.25 39.71
  L 47.38 38.57
  C 47.57 38.38 47.89 38.38 48.12 38.57
  Q 52.28 42.18 56.06 46.19
  Q 61.10 51.54 56.44 56.69
  Q 52.71 60.80 47.44 57.56
  Q 45.30 56.25 37.84 48.12
  C 37.68 47.95 37.75 47.67 37.97 47.61
  Q 42.76 46.11 46.25 42.51
  Q 46.55 42.20 46.57 41.90
  Q 46.62 41.34 46.04 41.25
  Z"
/>
<path fill="#ffffff" d="
  M 46.25 39.71
  Q 46.98 40.37 46.04 41.25
  Q 35.37 51.15 23.83 42.36
  Q 23.42 42.05 23.09 41.72
  Q 20.86 39.43 24.38 40.94
  Q 35.67 45.78 46.25 39.71
  Z"
/>
</svg>
