<?xml version="1.0" encoding="UTF-8" standalone="no"?>
<!DOCTYPE svg PUBLIC "-//W3C//DTD SVG 1.1//EN" "http://www.w3.org/Graphics/SVG/1.1/DTD/svg11.dtd">
<svg xmlns="http://www.w3.org/2000/svg" version="1.1" viewBox="0 0 32 32">
<path fill="#1a7afb" d="
  M 16.24 0.68
  L 29.19 8.43
  C 29.68 8.72 29.99 9.26 30.00 9.85
  Q 30.03 12.55 29.99 15.08
  Q 29.95 18.15 29.36 20.24
  Q 26.80 29.24 18.28 30.76
  Q 12.31 31.82 7.68 28.85
  Q 2.67 25.64 1.25 19.00
  Q 0.70 16.45 1.04 9.57
  C 1.05 9.25 1.21 8.95 1.47 8.77
  Q 8.07 4.11 15.36 0.65
  C 15.65 0.51 15.98 0.52 16.24 0.68
  Z
  M 23.15 24.40
  Q 26.66 20.83 26.44 15.74
  Q 26.34 13.62 26.27 11.50
  C 26.26 11.16 26.10 10.87 25.84 10.71
  L 16.03 4.77
  C 15.66 4.54 15.17 4.55 14.76 4.80
  L 6.52 9.74
  Q 4.49 10.96 4.49 13.33
  Q 4.51 21.78 9.29 25.49
  Q 12.32 27.83 16.13 27.68
  Q 20.08 27.53 23.15 24.40
  Z"
/>
<path fill="#1a7afb" d="
  M 21.23 16.29
  C 21.83 16.64 22.11 17.35 21.92 18.02
  Q 21.40 19.91 19.93 21.18
  Q 18.62 22.31 16.69 22.65
  Q 12.31 23.42 10.01 19.49
  Q 9.35 18.36 9.42 17.39
  Q 9.54 15.60 11.70 15.96
  C 11.99 16.01 12.25 16.21 12.41 16.51
  Q 12.85 17.32 13.38 18.07
  Q 13.96 18.90 14.80 19.15
  Q 17.31 19.89 18.33 17.15
  Q 19.13 15.03 21.23 16.29
  Z"
/>
</svg>
