<?xml version="1.0" encoding="UTF-8" standalone="no"?>
<!DOCTYPE svg PUBLIC "-//W3C//DTD SVG 1.1//EN" "http://www.w3.org/Graphics/SVG/1.1/DTD/svg11.dtd">
<svg xmlns="http://www.w3.org/2000/svg" version="1.1" viewBox="0 0 180 180">
<g stroke-width="2.0" fill="none" stroke-linecap="butt">
<path stroke="#8a7627" vector-effect="non-scaling-stroke" d="
  M 100.00 54.52
  C 100.00 54.23 99.77 54.00 99.48 54.00
  L 82.52 54.00
  C 82.23 54.00 82.00 54.23 82.00 54.52
  L 82.00 65.48
  C 82.00 65.77 82.23 66.00 82.52 66.00
  L 99.48 66.00
  C 99.77 66.00 100.00 65.77 100.00 65.48
  L 100.00 54.52"
/>
<path stroke="#8a7627" vector-effect="non-scaling-stroke" d="
  M 128.00 84.51
  C 128.00 84.23 127.77 84.00 127.49 84.00
  L 51.51 84.00
  C 51.23 84.00 51.00 84.23 51.00 84.51
  L 51.00 95.49
  C 51.00 95.77 51.23 96.00 51.51 96.00
  L 127.49 96.00
  C 127.77 96.00 128.00 95.77 128.00 95.49
  L 128.00 84.51"
/>
<path stroke="#8a7627" vector-effect="non-scaling-stroke" d="
  M 100.0097 114.4457
  C 100.01 114.21 99.82 114.02 99.5805 114.0150
  L 82.4405 113.9851
  C 82.20 113.98 82.01 114.18 82.0097 114.4143
  L 81.9903 125.5543
  C 81.99 125.79 82.18 125.98 82.4195 125.9850
  L 99.5595 126.0149
  C 99.80 126.02 99.99 125.82 99.9903 125.5857
  L 100.0097 114.4457"
/>
</g>
<path fill="#f8d231" d="
  M 0.00 0.00
  Q 90.00 0.00 180.00 0.00
  Q 180.00 90.00 180.00 180.00
  Q 90.00 180.00 0.00 180.00
  Q 0.00 90.00 0.00 0.00
  Z
  M 100.00 54.52
  C 100.00 54.23 99.77 54.00 99.48 54.00
  L 82.52 54.00
  C 82.23 54.00 82.00 54.23 82.00 54.52
  L 82.00 65.48
  C 82.00 65.77 82.23 66.00 82.52 66.00
  L 99.48 66.00
  C 99.77 66.00 100.00 65.77 100.00 65.48
  L 100.00 54.52
  Z
  M 128.00 84.51
  C 128.00 84.23 127.77 84.00 127.49 84.00
  L 51.51 84.00
  C 51.23 84.00 51.00 84.23 51.00 84.51
  L 51.00 95.49
  C 51.00 95.77 51.23 96.00 51.51 96.00
  L 127.49 96.00
  C 127.77 96.00 128.00 95.77 128.00 95.49
  L 128.00 84.51
  Z
  M 100.0097 114.4457
  C 100.01 114.21 99.82 114.02 99.5805 114.0150
  L 82.4405 113.9851
  C 82.20 113.98 82.01 114.18 82.0097 114.4143
  L 81.9903 125.5543
  C 81.99 125.79 82.18 125.98 82.4195 125.9850
  L 99.5595 126.0149
  C 99.80 126.02 99.99 125.82 99.9903 125.5857
  L 100.0097 114.4457
  Z"
/>
<rect fill="#1b191c" x="82.00" y="54.00" width="18.00" height="12.00" rx="0.52"/>
<rect fill="#1b191c" x="51.00" y="84.00" width="77.00" height="12.00" rx="0.51"/>
<rect fill="#1b191c" x="-9.00" y="-6.00" transform="translate(91.00,120.00) rotate(0.1)" width="18.00" height="12.00" rx="0.43"/>
</svg>
