<?xml version="1.0" standalone="no"?>
<!DOCTYPE svg PUBLIC "-//W3C//DTD SVG 20010904//EN"
 "http://www.w3.org/TR/2001/REC-SVG-20010904/DTD/svg10.dtd">
<svg version="1.0" xmlns="http://www.w3.org/2000/svg"
 width="700.000000pt" height="700.000000pt" viewBox="0 0 700.000000 700.000000"
 preserveAspectRatio="xMidYMid meet">
<metadata>
Created by potrace 1.11, written by Peter Selinger 2001-2013
</metadata>
<g transform="translate(0.000000,700.000000) scale(0.100000,-0.100000)"
fill="#000000" stroke="none">
<path d="M0 3500 l0 -3500 3500 0 3500 0 0 3500 0 3500 -3500 0 -3500 0 0
-3500z m3928 2751 c928 -141 1715 -724 2118 -1566 275 -576 344 -1233 194
-1860 -242 -1016 -1049 -1823 -2065 -2065 -231 -55 -386 -73 -645 -74 -250 0
-357 9 -560 51 -1089 220 -1944 1057 -2184 2136 -49 219 -60 334 -60 607 -1
273 10 385 60 607 263 1183 1255 2061 2464 2182 153 15 524 6 678 -18z"/>
<path d="M3340 6170 c-463 -31 -913 -182 -1294 -433 -124 -82 -272 -195 -315
-241 l-24 -26 1811 0 c997 0 1812 2 1812 5 0 10 -181 155 -275 220 -492 343
-1115 516 -1715 475z"/>
<path d="M1641 3538 l0 -1823 909 1815 c500 998 909 1818 909 1823 1 4 -408 7
-909 7 l-910 0 1 -1822z"/>
<path d="M4480 3540 c501 -1001 912 -1820 915 -1820 3 0 5 819 5 1820 l0 1820
-915 0 -915 0 910 -1820z"/>
<path d="M5500 3483 c0 -1003 2 -1823 4 -1823 3 0 44 47 92 105 309 377 509
824 590 1322 21 134 30 508 15 659 -42 408 -177 809 -390 1151 -77 125 -184
270 -260 353 l-50 55 -1 -1822z"/>
<path d="M1467 5228 c-612 -704 -805 -1727 -495 -2627 107 -311 310 -662 512
-886 l45 -50 1 1813 c0 996 -2 1812 -4 1812 -2 0 -29 -28 -59 -62z"/>
<path d="M2612 3417 c-496 -991 -902 -1805 -902 -1809 0 -5 815 -8 1810 -8
996 0 1810 2 1810 5 0 10 -1805 3615 -1810 3615 -3 0 -411 -811 -908 -1803z"/>
<path d="M1750 1449 c67 -60 253 -198 348 -258 317 -200 719 -340 1111 -386
147 -18 431 -20 587 -4 503 48 1029 268 1433 598 55 46 101 85 101 87 0 2
-816 4 -1812 4 l-1813 -1 45 -40z"/>
</g>
</svg>
