<?xml version="1.0" encoding="UTF-8" standalone="no"?>
<!DOCTYPE svg PUBLIC "-//W3C//DTD SVG 1.1//EN" "http://www.w3.org/Graphics/SVG/1.1/DTD/svg11.dtd">
<svg xmlns="http://www.w3.org/2000/svg" version="1.1" viewBox="0 0 128 128">
<g stroke-width="2.0" fill="none" stroke-linecap="butt">
<path stroke="#919191" vector-effect="non-scaling-stroke" d="
  M 58.31 78.44
  L 58.19 29.32
  C 58.19 29.03 57.97 28.80 57.69 28.80
  L 43.93 28.81
  C 43.55 28.81 43.25 29.12 43.25 29.50
  L 43.25 93.31
  C 43.25 93.72 43.59 94.06 44.00 94.06
  L 83.18 93.94
  C 83.46 93.94 83.69 93.71 83.70 93.43
  L 83.75 79.50
  C 83.75 79.22 83.53 79.00 83.25 79.00
  L 58.81 78.94
  C 58.53 78.94 58.31 78.72 58.31 78.44"
/>
<path stroke="#919191" vector-effect="non-scaling-stroke" d="
  M 82.0140 29.0167
  C 82.01 28.87 81.89 28.75 81.7436 28.7472
  L 66.9836 28.7729
  C 66.83 28.77 66.71 28.89 66.7141 29.0434
  L 66.7860 70.2433
  C 66.79 70.39 66.91 70.51 67.0564 70.5128
  L 81.8164 70.4871
  C 81.97 70.49 82.09 70.37 82.0859 70.2166
  L 82.0140 29.0167"
/>
</g>
<path fill="#222222" d="
  M 0.00 0.00
  Q 64.00 0.00 128.00 0.00
  Q 128.00 64.00 128.00 128.00
  Q 64.00 128.00 0.00 128.00
  Q 0.00 64.00 0.00 0.00
  Z
  M 58.31 78.44
  L 58.19 29.32
  C 58.19 29.03 57.97 28.80 57.69 28.80
  L 43.93 28.81
  C 43.55 28.81 43.25 29.12 43.25 29.50
  L 43.25 93.31
  C 43.25 93.72 43.59 94.06 44.00 94.06
  L 83.18 93.94
  C 83.46 93.94 83.69 93.71 83.70 93.43
  L 83.75 79.50
  C 83.75 79.22 83.53 79.00 83.25 79.00
  L 58.81 78.94
  C 58.53 78.94 58.31 78.72 58.31 78.44
  Z
  M 82.0140 29.0167
  C 82.01 28.87 81.89 28.75 81.7436 28.7472
  L 66.9836 28.7729
  C 66.83 28.77 66.71 28.89 66.7141 29.0434
  L 66.7860 70.2433
  C 66.79 70.39 66.91 70.51 67.0564 70.5128
  L 81.8164 70.4871
  C 81.97 70.49 82.09 70.37 82.0859 70.2166
  L 82.0140 29.0167
  Z"
/>
<path fill="#ffffff" d="
  M 58.81 78.94
  L 83.25 79.00
  C 83.53 79.00 83.75 79.22 83.75 79.50
  L 83.70 93.43
  C 83.69 93.71 83.46 93.94 83.18 93.94
  L 44.00 94.06
  C 43.59 94.06 43.25 93.72 43.25 93.31
  L 43.25 29.50
  C 43.25 29.12 43.55 28.81 43.93 28.81
  L 57.69 28.80
  C 57.97 28.80 58.19 29.03 58.19 29.32
  L 58.31 78.44
  C 58.31 78.72 58.53 78.94 58.81 78.94
  Z"
/>
<rect fill="#ffffff" x="-7.65" y="-20.87" transform="translate(74.40,49.63) rotate(-0.1)" width="15.30" height="41.74" rx="0.27"/>
</svg>
