<?xml version="1.0" standalone="no"?>
<!DOCTYPE svg PUBLIC "-//W3C//DTD SVG 20010904//EN" "http://www.w3.org/TR/2001/REC-SVG-20010904/DTD/svg10.dtd">
<svg version="1.0" xmlns="http://www.w3.org/2000/svg" width="512.000000pt" height="512.000000pt"
  viewBox="0 0 512.000000 512.000000" preserveAspectRatio="xMidYMid meet">
  <metadata>
    Created by potrace 1.11, written by Peter Selinger 2001-2013
  </metadata>
  <g transform="translate(0.000000,512.000000) scale(0.100000,-0.100000)" fill="rgb(8,193,138)" stroke="none">
    <path d="M2495 4691 c-70 -18 -128 -61 -171 -129 -19 -29 -34 -55 -34 -57 0
-3 -11 -22 -23 -43 -13 -20 -35 -57 -49 -82 -14 -25 -76 -133 -138 -240 -140
-241 -200 -347 -274 -475 -31 -55 -61 -107 -66 -115 -5 -8 -22 -37 -37 -63
l-27 -48 -420 419 c-232 231 -437 428 -456 437 -19 10 -62 20 -97 23 -113 9
-211 -47 -261 -147 l-27 -56 1 -1630 1 -1630 28 -75 c31 -85 60 -133 112 -191
42 -47 131 -109 189 -134 105 -44 77 -43 1838 -41 l1671 2 66 22 c127 42 229
124 301 243 79 130 73 -23 73 1809 l0 1635 -21 45 c-61 128 -222 187 -351 130
-34 -15 -148 -123 -463 -439 l-419 -419 -47 82 c-71 124 -75 131 -257 446 -93
162 -178 309 -187 325 -9 17 -29 50 -43 75 -15 25 -48 83 -74 129 -54 96 -95
142 -154 171 -44 23 -136 33 -184 21z m-532 -2300 c6 -6 18 -11 27 -11 25 0
101 -82 121 -131 21 -51 24 -131 8 -180 -17 -50 -75 -116 -122 -141 -54 -28
-61 -30 -129 -30 -97 0 -178 54 -227 151 -30 58 -24 172 12 228 59 93 134 133
235 128 35 -2 69 -8 75 -14z m1362 0 c56 -20 113 -77 141 -139 73 -162 -52
-355 -231 -355 -108 0 -217 80 -246 180 -20 69 -15 126 16 190 57 116 197 170
320 124z" />
  </g>
</svg>