<?xml version="1.0" encoding="UTF-8" standalone="no"?>
<!DOCTYPE svg PUBLIC "-//W3C//DTD SVG 1.1//EN" "http://www.w3.org/Graphics/SVG/1.1/DTD/svg11.dtd">
<svg xmlns="http://www.w3.org/2000/svg" version="1.1" viewBox="0 0 200 200">
<g stroke-width="2.0" fill="none" stroke-linecap="butt">
<path stroke="#fac7d8" vector-effect="non-scaling-stroke" d="
  M 100.57 133.92
  Q 109.47 142.40 118.57 151.92
  Q 122.87 156.41 124.31 156.94
  Q 128.34 158.40 131.36 155.36
  Q 141.88 144.75 152.54 134.29
  Q 154.58 132.29 156.22 129.96
  Q 157.75 127.77 157.11 125.62
  Q 156.75 124.39 154.77 122.34
  Q 144.46 111.67 133.50 100.88
  C 133.08 100.47 133.08 99.79 133.49 99.38
  Q 143.31 89.56 153.40 79.65
  Q 155.64 77.45 156.69 75.44
  Q 157.94 73.03 156.85 71.01
  Q 156.55 70.48 154.17 67.96
  Q 142.88 56.05 130.87 44.87
  Q 128.76 42.91 126.96 42.80
  Q 124.40 42.65 122.47 44.75
  Q 121.10 46.25 121.06 46.29
  Q 110.97 55.98 100.91 66.22
  C 100.35 66.79 99.43 66.80 98.86 66.23
  Q 88.63 56.00 78.31 45.69
  Q 74.09 41.47 70.33 43.60
  Q 69.65 43.98 65.19 48.44
  Q 55.93 57.68 46.59 66.84
  Q 44.55 68.85 42.85 71.49
  Q 41.97 72.85 42.54 74.36
  Q 43.54 77.02 45.67 79.08
  Q 55.81 88.94 66.20 99.33
  C 66.57 99.70 66.58 100.29 66.22 100.67
  Q 57.28 110.03 47.84 119.34
  Q 45.25 121.89 42.99 124.76
  Q 41.44 126.73 42.73 128.89
  Q 43.74 130.57 45.69 132.56
  Q 57.02 144.16 68.71 155.39
  Q 70.54 157.14 71.72 157.55
  Q 73.92 158.31 75.69 156.69
  Q 86.48 146.74 98.85 133.95
  C 99.31 133.47 100.08 133.46 100.57 133.92"
/>
<path stroke="#fac7d8" vector-effect="non-scaling-stroke" d="
  M 93.3231 73.7054
  C 93.60 73.42 93.60 72.97 93.3213 72.6871
  L 73.5019 52.9368
  C 73.22 52.66 72.76 52.66 72.4837 52.9386
  L 52.6769 72.8146
  C 52.40 73.10 52.40 73.55 52.6787 73.8329
  L 72.4981 93.5832
  C 72.78 93.86 73.24 93.86 73.5163 93.5814
  L 93.3231 73.7054"
/>
<path stroke="#fac7d8" vector-effect="non-scaling-stroke" d="
  M 105.61 88.49
  C 105.61 85.39 103.09 82.87 99.99 82.87
  C 96.89 82.87 94.37 85.39 94.37 88.49
  C 94.37 91.59 96.89 94.11 99.99 94.11
  C 103.09 94.11 105.61 91.59 105.61 88.49"
/>
<path stroke="#fac7d8" vector-effect="non-scaling-stroke" d="
  M 117.12 99.98
  C 117.12 96.87 114.60 94.35 111.49 94.35
  C 108.38 94.35 105.86 96.87 105.86 99.98
  C 105.86 103.09 108.38 105.61 111.49 105.61
  C 114.60 105.61 117.12 103.09 117.12 99.98"
/>
<path stroke="#fac7d8" vector-effect="non-scaling-stroke" d="
  M 94.08 100.02
  C 94.08 96.93 91.57 94.42 88.48 94.42
  C 85.39 94.42 82.88 96.93 82.88 100.02
  C 82.88 103.11 85.39 105.62 88.48 105.62
  C 91.57 105.62 94.08 103.11 94.08 100.02"
/>
<path stroke="#fac7d8" vector-effect="non-scaling-stroke" d="
  M 105.60 111.51
  C 105.60 108.41 103.08 105.89 99.98 105.89
  C 96.88 105.89 94.36 108.41 94.36 111.51
  C 94.36 114.61 96.88 117.13 99.98 117.13
  C 103.08 117.13 105.60 114.61 105.60 111.51"
/>
<path stroke="#fac7d8" vector-effect="non-scaling-stroke" d="
  M 146.9700 127.3776
  C 147.20 127.15 147.20 126.78 146.9686 126.5573
  L 127.0217 106.6800
  C 126.79 106.45 126.43 106.45 126.2015 106.6814
  L 106.3100 126.6424
  C 106.08 126.87 106.08 127.24 106.3114 127.4627
  L 126.2583 147.3400
  C 126.49 147.57 126.85 147.57 127.0785 147.3386
  L 146.9700 127.3776"
/>
</g>
<path fill="#f48fb1" d="
  M 0.00 0.00
  Q 100.00 0.00 200.00 0.00
  Q 200.00 100.00 200.00 200.00
  Q 100.00 200.00 0.00 200.00
  Q 0.00 100.00 0.00 0.00
  Z
  M 100.57 133.92
  Q 109.47 142.40 118.57 151.92
  Q 122.87 156.41 124.31 156.94
  Q 128.34 158.40 131.36 155.36
  Q 141.88 144.75 152.54 134.29
  Q 154.58 132.29 156.22 129.96
  Q 157.75 127.77 157.11 125.62
  Q 156.75 124.39 154.77 122.34
  Q 144.46 111.67 133.50 100.88
  C 133.08 100.47 133.08 99.79 133.49 99.38
  Q 143.31 89.56 153.40 79.65
  Q 155.64 77.45 156.69 75.44
  Q 157.94 73.03 156.85 71.01
  Q 156.55 70.48 154.17 67.96
  Q 142.88 56.05 130.87 44.87
  Q 128.76 42.91 126.96 42.80
  Q 124.40 42.65 122.47 44.75
  Q 121.10 46.25 121.06 46.29
  Q 110.97 55.98 100.91 66.22
  C 100.35 66.79 99.43 66.80 98.86 66.23
  Q 88.63 56.00 78.31 45.69
  Q 74.09 41.47 70.33 43.60
  Q 69.65 43.98 65.19 48.44
  Q 55.93 57.68 46.59 66.84
  Q 44.55 68.85 42.85 71.49
  Q 41.97 72.85 42.54 74.36
  Q 43.54 77.02 45.67 79.08
  Q 55.81 88.94 66.20 99.33
  C 66.57 99.70 66.58 100.29 66.22 100.67
  Q 57.28 110.03 47.84 119.34
  Q 45.25 121.89 42.99 124.76
  Q 41.44 126.73 42.73 128.89
  Q 43.74 130.57 45.69 132.56
  Q 57.02 144.16 68.71 155.39
  Q 70.54 157.14 71.72 157.55
  Q 73.92 158.31 75.69 156.69
  Q 86.48 146.74 98.85 133.95
  C 99.31 133.47 100.08 133.46 100.57 133.92
  Z"
/>
<path fill="#ffffff" d="
  M 100.57 133.92
  C 100.08 133.46 99.31 133.47 98.85 133.95
  Q 86.48 146.74 75.69 156.69
  Q 73.92 158.31 71.72 157.55
  Q 70.54 157.14 68.71 155.39
  Q 57.02 144.16 45.69 132.56
  Q 43.74 130.57 42.73 128.89
  Q 41.44 126.73 42.99 124.76
  Q 45.25 121.89 47.84 119.34
  Q 57.28 110.03 66.22 100.67
  C 66.58 100.29 66.57 99.70 66.20 99.33
  Q 55.81 88.94 45.67 79.08
  Q 43.54 77.02 42.54 74.36
  Q 41.97 72.85 42.85 71.49
  Q 44.55 68.85 46.59 66.84
  Q 55.93 57.68 65.19 48.44
  Q 69.65 43.98 70.33 43.60
  Q 74.09 41.47 78.31 45.69
  Q 88.63 56.00 98.86 66.23
  C 99.43 66.80 100.35 66.79 100.91 66.22
  Q 110.97 55.98 121.06 46.29
  Q 121.10 46.25 122.47 44.75
  Q 124.40 42.65 126.96 42.80
  Q 128.76 42.91 130.87 44.87
  Q 142.88 56.05 154.17 67.96
  Q 156.55 70.48 156.85 71.01
  Q 157.94 73.03 156.69 75.44
  Q 155.64 77.45 153.40 79.65
  Q 143.31 89.56 133.49 99.38
  C 133.08 99.79 133.08 100.47 133.50 100.88
  Q 144.46 111.67 154.77 122.34
  Q 156.75 124.39 157.11 125.62
  Q 157.75 127.77 156.22 129.96
  Q 154.58 132.29 152.54 134.29
  Q 141.88 144.75 131.36 155.36
  Q 128.34 158.40 124.31 156.94
  Q 122.87 156.41 118.57 151.92
  Q 109.47 142.40 100.57 133.92
  Z
  M 93.3231 73.7054
  C 93.60 73.42 93.60 72.97 93.3213 72.6871
  L 73.5019 52.9368
  C 73.22 52.66 72.76 52.66 72.4837 52.9386
  L 52.6769 72.8146
  C 52.40 73.10 52.40 73.55 52.6787 73.8329
  L 72.4981 93.5832
  C 72.78 93.86 73.24 93.86 73.5163 93.5814
  L 93.3231 73.7054
  Z
  M 105.61 88.49
  C 105.61 85.39 103.09 82.87 99.99 82.87
  C 96.89 82.87 94.37 85.39 94.37 88.49
  C 94.37 91.59 96.89 94.11 99.99 94.11
  C 103.09 94.11 105.61 91.59 105.61 88.49
  Z
  M 117.12 99.98
  C 117.12 96.87 114.60 94.35 111.49 94.35
  C 108.38 94.35 105.86 96.87 105.86 99.98
  C 105.86 103.09 108.38 105.61 111.49 105.61
  C 114.60 105.61 117.12 103.09 117.12 99.98
  Z
  M 94.08 100.02
  C 94.08 96.93 91.57 94.42 88.48 94.42
  C 85.39 94.42 82.88 96.93 82.88 100.02
  C 82.88 103.11 85.39 105.62 88.48 105.62
  C 91.57 105.62 94.08 103.11 94.08 100.02
  Z
  M 105.60 111.51
  C 105.60 108.41 103.08 105.89 99.98 105.89
  C 96.88 105.89 94.36 108.41 94.36 111.51
  C 94.36 114.61 96.88 117.13 99.98 117.13
  C 103.08 117.13 105.60 114.61 105.60 111.51
  Z
  M 146.9700 127.3776
  C 147.20 127.15 147.20 126.78 146.9686 126.5573
  L 127.0217 106.6800
  C 126.79 106.45 126.43 106.45 126.2015 106.6814
  L 106.3100 126.6424
  C 106.08 126.87 106.08 127.24 106.3114 127.4627
  L 126.2583 147.3400
  C 126.49 147.57 126.85 147.57 127.0785 147.3386
  L 146.9700 127.3776
  Z"
/>
<rect fill="#f48fb1" x="-14.71" y="-14.75" transform="translate(73.00,73.26) rotate(44.9)" width="29.42" height="29.50" rx="0.72"/>
<circle fill="#f48fb1" cx="99.99" cy="88.49" r="5.62"/>
<circle fill="#f48fb1" cx="111.49" cy="99.98" r="5.63"/>
<circle fill="#f48fb1" cx="88.48" cy="100.02" r="5.60"/>
<circle fill="#f48fb1" cx="99.98" cy="111.51" r="5.62"/>
<rect fill="#f48fb1" x="-14.66" y="-14.67" transform="translate(126.64,127.01) rotate(44.9)" width="29.32" height="29.34" rx="0.58"/>
</svg>
