<?xml version="1.0" encoding="UTF-8" standalone="no"?>
<!DOCTYPE svg PUBLIC "-//W3C//DTD SVG 1.1//EN" "http://www.w3.org/Graphics/SVG/1.1/DTD/svg11.dtd">
<svg xmlns="http://www.w3.org/2000/svg" version="1.1" viewBox="0 0 316 316">
<g stroke-width="2.0" fill="none" stroke-linecap="butt">
<path stroke="#89a454" vector-effect="non-scaling-stroke" d="
  M 143.44 35.80
  Q 140.33 32.90 135.50 33.50
  Q 128.19 34.41 121.30 37.07
  Q 120.53 37.37 121.21 37.83
  Q 133.56 46.22 137.36 60.26
  Q 138.17 63.23 138.12 68.34
  Q 138.01 80.51 141.17 92.31
  Q 144.19 103.54 147.13 114.78
  Q 152.23 134.29 152.80 154.44
  Q 152.82 155.00 153.24 154.70
  Q 154.19 154.02 154.25 152.50
  Q 155.68 116.14 155.75 84.25
  Q 155.75 80.62 155.91 77.24
  Q 156.07 73.74 156.24 70.24
  Q 156.58 63.35 156.08 59.77
  Q 154.12 45.74 143.44 35.80"
/>
<path stroke="#89a454" vector-effect="non-scaling-stroke" d="
  M 193.88 36.92
  Q 186.28 33.86 178.63 33.54
  Q 175.97 33.42 174.13 34.57
  Q 172.25 35.74 170.44 37.69
  Q 162.82 45.87 160.37 55.97
  Q 159.17 60.89 159.54 72.11
  Q 160.25 94.05 160.22 116.00
  Q 160.20 135.29 161.71 154.51
  C 161.74 154.88 161.92 155.18 162.17 155.28
  Q 162.66 155.49 162.69 154.69
  Q 163.51 133.87 168.34 115.48
  Q 171.18 104.64 174.06 93.81
  Q 177.49 80.92 177.46 69.65
  Q 177.44 63.88 178.11 61.06
  Q 181.54 46.53 194.02 38.22
  Q 195.18 37.44 193.88 36.92"
/>
<path stroke="#8ad1c5" vector-effect="non-scaling-stroke" d="
  M 114.07 40.44
  C 113.49 39.99 112.73 39.82 112.02 40.00
  Q 99.50 42.99 90.46 51.89
  Q 88.93 53.40 88.59 54.54
  Q 88.04 56.38 89.38 57.99
  Q 90.55 59.39 90.62 59.50
  Q 103.11 77.58 115.56 95.69
  Q 125.07 109.52 139.78 122.56
  Q 140.03 122.78 140.28 122.79
  Q 140.93 122.83 140.58 122.11
  Q 133.96 108.50 129.17 94.15
  Q 127.13 88.05 126.75 82.25
  Q 125.58 64.22 119.44 47.81
  Q 117.77 43.34 114.07 40.44"
/>
<path stroke="#8ad1c5" vector-effect="non-scaling-stroke" d="
  M 222.95 49.52
  Q 215.28 43.25 205.85 40.60
  Q 203.08 39.82 201.23 40.83
  Q 198.81 42.15 197.56 45.06
  Q 190.02 62.62 188.90 81.28
  Q 188.63 85.79 188.18 88.17
  Q 187.44 92.03 186.44 94.94
  Q 182.00 107.81 174.93 122.37
  Q 174.57 123.12 175.20 123.00
  Q 175.41 122.96 175.63 122.77
  Q 190.68 109.55 202.00 93.00
  Q 214.23 75.12 227.26 56.31
  C 227.54 55.89 227.57 55.35 227.34 54.91
  Q 225.62 51.70 222.95 49.52"
/>
<path stroke="#15a28a" vector-effect="non-scaling-stroke" d="
  M 132.96 122.25
  Q 133.61 122.83 135.50 123.75
  Q 136.02 124.01 136.26 123.77
  C 136.46 123.57 136.34 123.21 136.02 123.03
  L 133.25 121.46"
/>
<path stroke="#897c5e" vector-effect="non-scaling-stroke" d="
  M 133.25 121.46
  Q 122.33 115.62 114.08 106.44
  Q 111.58 103.66 107.56 99.44
  Q 99.71 91.19 94.15 80.58
  Q 88.94 70.65 84.31 59.15
  C 84.21 58.91 83.89 58.86 83.72 59.06
  Q 76.22 68.01 72.62 78.30
  Q 71.62 81.16 72.12 83.82
  Q 73.42 90.68 78.36 95.90
  Q 86.99 105.03 99.09 108.60
  Q 116.68 113.79 132.96 122.25"
/>
<path stroke="#897c5e" vector-effect="non-scaling-stroke" d="
  M 133.25 121.46
  Q 132.43 121.55 132.96 122.25"
/>
<path stroke="#897c5e" vector-effect="non-scaling-stroke" d="
  M 231.05 59.64
  Q 225.04 75.98 215.46 90.08
  Q 212.19 94.88 206.85 100.85
  Q 199.95 108.56 197.44 110.94
  Q 192.20 115.90 182.80 121.18
  Q 182.55 121.32 182.38 121.52
  Q 181.09 123.01 182.89 122.09
  Q 196.80 114.98 211.66 110.16
  Q 211.72 110.14 215.87 108.93
  Q 225.46 106.12 233.56 99.56
  Q 240.19 94.20 242.92 86.55
  Q 243.58 84.69 243.73 82.87
  Q 243.93 80.45 243.44 79.06
  Q 239.47 67.94 232.13 59.44
  C 231.81 59.07 231.22 59.18 231.05 59.64"
/>
<path stroke="#206a91" vector-effect="non-scaling-stroke" d="
  M 130.92 126.55
  Q 128.73 124.89 126.16 123.87
  Q 116.85 120.16 107.05 118.01
  Q 100.31 116.53 91.94 113.56
  Q 76.29 108.02 69.69 93.13
  Q 69.07 91.73 68.64 92.62
  Q 68.49 92.94 68.55 93.39
  Q 71.19 115.51 83.44 132.06
  Q 98.40 152.29 123.89 144.77
  Q 129.64 143.08 133.81 138.82
  Q 136.22 136.36 135.75 133.75
  Q 135.01 129.64 130.92 126.55"
/>
<path stroke="#206a91" vector-effect="non-scaling-stroke" d="
  M 184.40 141.12
  Q 190.61 145.57 198.25 146.47
  Q 219.24 148.97 231.81 132.56
  Q 244.50 116.01 247.23 92.93
  Q 247.25 92.73 247.19 92.58
  Q 246.97 92.06 246.72 92.63
  Q 243.40 100.10 237.60 105.37
  Q 232.93 109.61 224.45 113.13
  Q 214.31 117.34 203.44 119.42
  Q 194.09 121.21 185.89 125.95
  Q 182.03 128.19 180.12 132.77
  Q 179.44 134.40 180.14 136.03
  Q 181.39 138.96 184.40 141.12"
/>
<path stroke="#87a7a4" vector-effect="non-scaling-stroke" d="
  M 179.66 145.62
  Q 178.90 145.08 177.92 144.93
  Q 176.48 144.72 177.68 145.55
  Q 186.34 151.58 194.79 157.88
  Q 204.76 165.33 206.67 167.20
  Q 212.13 172.57 215.29 179.87
  Q 216.51 182.71 218.18 185.32
  Q 220.05 188.24 223.44 186.69
  Q 234.49 181.60 239.89 171.10
  Q 245.87 159.47 247.75 146.50
  Q 250.36 128.49 249.05 114.31
  Q 249.00 113.68 248.88 113.21
  Q 248.22 110.43 247.38 113.29
  Q 244.41 123.55 238.87 132.44
  Q 232.74 142.30 225.68 147.28
  Q 213.79 155.67 198.00 152.75
  Q 189.79 151.23 181.08 146.60
  Q 180.99 146.56 179.66 145.62"
/>
<path stroke="#87a7a4" vector-effect="non-scaling-stroke" d="
  M 98.21 151.41
  Q 87.68 147.75 80.60 138.13
  Q 72.34 126.92 68.63 113.47
  Q 67.92 110.90 67.01 112.68
  Q 66.76 113.16 66.69 113.87
  Q 65.26 129.46 68.25 148.50
  Q 70.67 163.93 78.81 175.94
  Q 82.92 181.99 89.81 185.60
  Q 92.77 187.16 94.52 187.01
  Q 97.36 186.77 98.69 183.19
  Q 102.47 173.04 110.47 165.79
  Q 111.24 165.09 123.94 155.64
  Q 130.72 150.60 137.53 145.61
  Q 138.06 145.22 137.47 145.14
  Q 136.93 145.07 136.25 145.50
  Q 127.58 151.01 117.61 152.70
  Q 107.08 154.48 98.21 151.41"
/>
<path stroke="#1d6357" vector-effect="non-scaling-stroke" d="
  M 158.19 172.13
  Q 158.45 172.48 158.45 173.06
  Q 158.44 178.42 162.16 181.53
  Q 163.38 182.55 165.82 182.85
  Q 171.10 183.51 174.94 186.56
  Q 179.46 190.16 186.28 197.70
  Q 199.70 212.54 218.35 210.08
  Q 226.30 209.03 233.81 205.12
  Q 241.12 201.31 247.02 195.27
  Q 256.77 185.30 261.87 172.33
  Q 262.01 171.98 262.09 171.64
  Q 262.71 169.14 261.24 171.22
  Q 255.43 179.45 248.24 186.49
  Q 241.90 192.69 233.48 195.45
  Q 229.04 196.90 224.75 196.50
  Q 220.22 196.08 214.53 194.64
  Q 208.69 193.18 205.56 190.44
  Q 198.34 184.12 188.69 172.56
  Q 185.82 169.13 180.92 166.52
  Q 176.05 163.94 171.68 163.84
  Q 164.13 163.68 158.35 169.40
  C 158.15 169.59 157.84 169.60 157.63 169.42
  Q 144.20 157.57 130.64 169.66
  Q 122.51 176.91 117.81 182.81
  Q 107.22 196.11 90.50 196.45
  Q 83.93 196.58 78.56 193.94
  Q 68.88 189.17 61.63 180.34
  Q 57.90 175.79 54.53 170.96
  Q 53.56 169.55 53.50 170.88
  Q 53.49 171.22 53.63 171.58
  Q 61.20 191.26 77.69 202.56
  Q 89.41 210.60 103.89 210.18
  Q 109.56 210.02 114.42 208.27
  Q 120.05 206.24 123.81 202.81
  Q 130.40 196.83 132.19 194.69
  Q 135.79 190.39 140.17 186.92
  Q 144.14 183.77 149.09 182.89
  Q 149.16 182.88 150.93 182.72
  Q 153.40 182.51 154.69 180.69
  Q 157.08 177.29 157.75 172.31
  Q 157.84 171.66 158.19 172.13"
/>
<path stroke="#8ad1c5" vector-effect="non-scaling-stroke" d="
  M 184.20 203.81
  Q 179.63 199.24 175.74 195.14
  Q 173.31 192.59 174.24 195.98
  Q 176.34 203.62 178.03 211.34
  Q 181.72 228.18 179.10 245.23
  Q 177.64 254.75 175.98 264.38
  Q 175.52 267.01 177.77 265.56
  Q 182.97 262.21 187.57 257.67
  Q 188.62 256.62 196.11 248.51
  Q 211.27 232.09 223.56 213.39
  Q 223.70 213.16 223.69 212.95
  Q 223.66 212.33 223.06 212.81
  Q 218.84 216.21 214.19 217.96
  Q 209.48 219.74 205.14 219.14
  Q 200.25 218.45 196.44 215.31
  Q 192.25 211.87 184.20 203.81"
/>
<path stroke="#1d6357" vector-effect="non-scaling-stroke" d="
  M 170.49 195.53
  Q 167.89 198.67 165.36 200.63
  Q 162.00 203.24 158.14 203.11
  Q 154.78 203.00 151.40 200.63
  Q 148.26 198.44 146.15 195.08
  Q 145.89 194.68 145.62 194.78
  C 145.43 194.86 145.32 195.14 145.34 195.48
  Q 146.32 208.71 145.00 223.50
  Q 143.88 236.12 145.27 249.16
  Q 146.05 256.45 148.30 268.92
  Q 151.04 284.22 155.32 299.20
  Q 155.54 299.99 155.85 299.23
  Q 166.25 273.14 170.14 245.23
  Q 171.84 233.03 170.75 225.25
  Q 168.63 210.07 171.11 195.81
  Q 171.34 194.49 170.49 195.53"
/>
<path stroke="#8ad1c5" vector-effect="non-scaling-stroke" d="
  M 100.14 219.09
  Q 96.03 217.39 92.58 214.42
  Q 91.71 213.67 91.54 214.26
  C 91.47 214.50 91.56 214.84 91.78 215.17
  Q 107.92 239.40 128.56 259.94
  Q 132.48 263.85 137.08 266.95
  Q 139.85 268.82 139.21 265.54
  Q 137.24 255.54 135.78 245.25
  Q 133.56 229.63 136.74 214.20
  Q 138.54 205.46 141.14 197.08
  Q 142.12 193.93 139.82 196.30
  Q 129.89 206.53 119.44 216.19
  Q 114.98 220.31 108.70 220.64
  Q 104.45 220.86 100.14 219.09"
/>
<path stroke="#2a3198" vector-effect="non-scaling-stroke" d="
  M 223.81 138.81
  Q 229.66 134.17 233.73 127.48
  Q 236.73 122.56 239.70 115.56
  Q 242.32 109.39 243.74 102.79
  Q 244.14 100.95 242.82 102.30
  Q 230.90 114.60 214.25 118.36
  Q 213.15 118.60 211.23 119.31
  Q 209.71 119.87 208.11 120.09
  Q 205.37 120.48 203.53 121.10
  Q 201.75 121.69 199.91 122.03
  Q 197.74 122.44 196.31 122.95
  Q 194.11 123.74 191.90 124.47
  Q 189.00 125.43 187.62 126.27
  Q 183.13 128.99 181.00 133.98
  C 180.88 134.27 180.90 134.60 181.05 134.88
  Q 183.38 139.08 187.06 141.19
  Q 191.73 143.87 197.21 144.67
  Q 202.38 145.42 207.80 145.03
  Q 216.81 144.37 223.81 138.81"
/>
</g>
<path fill="#15a28a" d="
  M 315.43 157.97
  C 315.43 244.93 244.93 315.43 157.97 315.43
  C 71.01 315.43 0.51 244.93 0.51 157.97
  C 0.51 71.01 71.01 0.51 157.97 0.51
  C 244.93 0.51 315.43 71.01 315.43 157.97
  Z
  M 143.44 35.80
  Q 140.33 32.90 135.50 33.50
  Q 128.19 34.41 121.30 37.07
  Q 120.53 37.37 121.21 37.83
  Q 133.56 46.22 137.36 60.26
  Q 138.17 63.23 138.12 68.34
  Q 138.01 80.51 141.17 92.31
  Q 144.19 103.54 147.13 114.78
  Q 152.23 134.29 152.80 154.44
  Q 152.82 155.00 153.24 154.70
  Q 154.19 154.02 154.25 152.50
  Q 155.68 116.14 155.75 84.25
  Q 155.75 80.62 155.91 77.24
  Q 156.07 73.74 156.24 70.24
  Q 156.58 63.35 156.08 59.77
  Q 154.12 45.74 143.44 35.80
  Z
  M 193.88 36.92
  Q 186.28 33.86 178.63 33.54
  Q 175.97 33.42 174.13 34.57
  Q 172.25 35.74 170.44 37.69
  Q 162.82 45.87 160.37 55.97
  Q 159.17 60.89 159.54 72.11
  Q 160.25 94.05 160.22 116.00
  Q 160.20 135.29 161.71 154.51
  C 161.74 154.88 161.92 155.18 162.17 155.28
  Q 162.66 155.49 162.69 154.69
  Q 163.51 133.87 168.34 115.48
  Q 171.18 104.64 174.06 93.81
  Q 177.49 80.92 177.46 69.65
  Q 177.44 63.88 178.11 61.06
  Q 181.54 46.53 194.02 38.22
  Q 195.18 37.44 193.88 36.92
  Z
  M 114.07 40.44
  C 113.49 39.99 112.73 39.82 112.02 40.00
  Q 99.50 42.99 90.46 51.89
  Q 88.93 53.40 88.59 54.54
  Q 88.04 56.38 89.38 57.99
  Q 90.55 59.39 90.62 59.50
  Q 103.11 77.58 115.56 95.69
  Q 125.07 109.52 139.78 122.56
  Q 140.03 122.78 140.28 122.79
  Q 140.93 122.83 140.58 122.11
  Q 133.96 108.50 129.17 94.15
  Q 127.13 88.05 126.75 82.25
  Q 125.58 64.22 119.44 47.81
  Q 117.77 43.34 114.07 40.44
  Z
  M 222.95 49.52
  Q 215.28 43.25 205.85 40.60
  Q 203.08 39.82 201.23 40.83
  Q 198.81 42.15 197.56 45.06
  Q 190.02 62.62 188.90 81.28
  Q 188.63 85.79 188.18 88.17
  Q 187.44 92.03 186.44 94.94
  Q 182.00 107.81 174.93 122.37
  Q 174.57 123.12 175.20 123.00
  Q 175.41 122.96 175.63 122.77
  Q 190.68 109.55 202.00 93.00
  Q 214.23 75.12 227.26 56.31
  C 227.54 55.89 227.57 55.35 227.34 54.91
  Q 225.62 51.70 222.95 49.52
  Z
  M 132.96 122.25
  Q 133.61 122.83 135.50 123.75
  Q 136.02 124.01 136.26 123.77
  C 136.46 123.57 136.34 123.21 136.02 123.03
  L 133.25 121.46
  Q 122.33 115.62 114.08 106.44
  Q 111.58 103.66 107.56 99.44
  Q 99.71 91.19 94.15 80.58
  Q 88.94 70.65 84.31 59.15
  C 84.21 58.91 83.89 58.86 83.72 59.06
  Q 76.22 68.01 72.62 78.30
  Q 71.62 81.16 72.12 83.82
  Q 73.42 90.68 78.36 95.90
  Q 86.99 105.03 99.09 108.60
  Q 116.68 113.79 132.96 122.25
  Z
  M 231.05 59.64
  Q 225.04 75.98 215.46 90.08
  Q 212.19 94.88 206.85 100.85
  Q 199.95 108.56 197.44 110.94
  Q 192.20 115.90 182.80 121.18
  Q 182.55 121.32 182.38 121.52
  Q 181.09 123.01 182.89 122.09
  Q 196.80 114.98 211.66 110.16
  Q 211.72 110.14 215.87 108.93
  Q 225.46 106.12 233.56 99.56
  Q 240.19 94.20 242.92 86.55
  Q 243.58 84.69 243.73 82.87
  Q 243.93 80.45 243.44 79.06
  Q 239.47 67.94 232.13 59.44
  C 231.81 59.07 231.22 59.18 231.05 59.64
  Z
  M 130.92 126.55
  Q 128.73 124.89 126.16 123.87
  Q 116.85 120.16 107.05 118.01
  Q 100.31 116.53 91.94 113.56
  Q 76.29 108.02 69.69 93.13
  Q 69.07 91.73 68.64 92.62
  Q 68.49 92.94 68.55 93.39
  Q 71.19 115.51 83.44 132.06
  Q 98.40 152.29 123.89 144.77
  Q 129.64 143.08 133.81 138.82
  Q 136.22 136.36 135.75 133.75
  Q 135.01 129.64 130.92 126.55
  Z
  M 184.40 141.12
  Q 190.61 145.57 198.25 146.47
  Q 219.24 148.97 231.81 132.56
  Q 244.50 116.01 247.23 92.93
  Q 247.25 92.73 247.19 92.58
  Q 246.97 92.06 246.72 92.63
  Q 243.40 100.10 237.60 105.37
  Q 232.93 109.61 224.45 113.13
  Q 214.31 117.34 203.44 119.42
  Q 194.09 121.21 185.89 125.95
  Q 182.03 128.19 180.12 132.77
  Q 179.44 134.40 180.14 136.03
  Q 181.39 138.96 184.40 141.12
  Z
  M 179.66 145.62
  Q 178.90 145.08 177.92 144.93
  Q 176.48 144.72 177.68 145.55
  Q 186.34 151.58 194.79 157.88
  Q 204.76 165.33 206.67 167.20
  Q 212.13 172.57 215.29 179.87
  Q 216.51 182.71 218.18 185.32
  Q 220.05 188.24 223.44 186.69
  Q 234.49 181.60 239.89 171.10
  Q 245.87 159.47 247.75 146.50
  Q 250.36 128.49 249.05 114.31
  Q 249.00 113.68 248.88 113.21
  Q 248.22 110.43 247.38 113.29
  Q 244.41 123.55 238.87 132.44
  Q 232.74 142.30 225.68 147.28
  Q 213.79 155.67 198.00 152.75
  Q 189.79 151.23 181.08 146.60
  Q 180.99 146.56 179.66 145.62
  Z
  M 98.21 151.41
  Q 87.68 147.75 80.60 138.13
  Q 72.34 126.92 68.63 113.47
  Q 67.92 110.90 67.01 112.68
  Q 66.76 113.16 66.69 113.87
  Q 65.26 129.46 68.25 148.50
  Q 70.67 163.93 78.81 175.94
  Q 82.92 181.99 89.81 185.60
  Q 92.77 187.16 94.52 187.01
  Q 97.36 186.77 98.69 183.19
  Q 102.47 173.04 110.47 165.79
  Q 111.24 165.09 123.94 155.64
  Q 130.72 150.60 137.53 145.61
  Q 138.06 145.22 137.47 145.14
  Q 136.93 145.07 136.25 145.50
  Q 127.58 151.01 117.61 152.70
  Q 107.08 154.48 98.21 151.41
  Z
  M 158.19 172.13
  Q 158.45 172.48 158.45 173.06
  Q 158.44 178.42 162.16 181.53
  Q 163.38 182.55 165.82 182.85
  Q 171.10 183.51 174.94 186.56
  Q 179.46 190.16 186.28 197.70
  Q 199.70 212.54 218.35 210.08
  Q 226.30 209.03 233.81 205.12
  Q 241.12 201.31 247.02 195.27
  Q 256.77 185.30 261.87 172.33
  Q 262.01 171.98 262.09 171.64
  Q 262.71 169.14 261.24 171.22
  Q 255.43 179.45 248.24 186.49
  Q 241.90 192.69 233.48 195.45
  Q 229.04 196.90 224.75 196.50
  Q 220.22 196.08 214.53 194.64
  Q 208.69 193.18 205.56 190.44
  Q 198.34 184.12 188.69 172.56
  Q 185.82 169.13 180.92 166.52
  Q 176.05 163.94 171.68 163.84
  Q 164.13 163.68 158.35 169.40
  C 158.15 169.59 157.84 169.60 157.63 169.42
  Q 144.20 157.57 130.64 169.66
  Q 122.51 176.91 117.81 182.81
  Q 107.22 196.11 90.50 196.45
  Q 83.93 196.58 78.56 193.94
  Q 68.88 189.17 61.63 180.34
  Q 57.90 175.79 54.53 170.96
  Q 53.56 169.55 53.50 170.88
  Q 53.49 171.22 53.63 171.58
  Q 61.20 191.26 77.69 202.56
  Q 89.41 210.60 103.89 210.18
  Q 109.56 210.02 114.42 208.27
  Q 120.05 206.24 123.81 202.81
  Q 130.40 196.83 132.19 194.69
  Q 135.79 190.39 140.17 186.92
  Q 144.14 183.77 149.09 182.89
  Q 149.16 182.88 150.93 182.72
  Q 153.40 182.51 154.69 180.69
  Q 157.08 177.29 157.75 172.31
  Q 157.84 171.66 158.19 172.13
  Z
  M 184.20 203.81
  Q 179.63 199.24 175.74 195.14
  Q 173.31 192.59 174.24 195.98
  Q 176.34 203.62 178.03 211.34
  Q 181.72 228.18 179.10 245.23
  Q 177.64 254.75 175.98 264.38
  Q 175.52 267.01 177.77 265.56
  Q 182.97 262.21 187.57 257.67
  Q 188.62 256.62 196.11 248.51
  Q 211.27 232.09 223.56 213.39
  Q 223.70 213.16 223.69 212.95
  Q 223.66 212.33 223.06 212.81
  Q 218.84 216.21 214.19 217.96
  Q 209.48 219.74 205.14 219.14
  Q 200.25 218.45 196.44 215.31
  Q 192.25 211.87 184.20 203.81
  Z
  M 170.49 195.53
  Q 167.89 198.67 165.36 200.63
  Q 162.00 203.24 158.14 203.11
  Q 154.78 203.00 151.40 200.63
  Q 148.26 198.44 146.15 195.08
  Q 145.89 194.68 145.62 194.78
  C 145.43 194.86 145.32 195.14 145.34 195.48
  Q 146.32 208.71 145.00 223.50
  Q 143.88 236.12 145.27 249.16
  Q 146.05 256.45 148.30 268.92
  Q 151.04 284.22 155.32 299.20
  Q 155.54 299.99 155.85 299.23
  Q 166.25 273.14 170.14 245.23
  Q 171.84 233.03 170.75 225.25
  Q 168.63 210.07 171.11 195.81
  Q 171.34 194.49 170.49 195.53
  Z
  M 100.14 219.09
  Q 96.03 217.39 92.58 214.42
  Q 91.71 213.67 91.54 214.26
  C 91.47 214.50 91.56 214.84 91.78 215.17
  Q 107.92 239.40 128.56 259.94
  Q 132.48 263.85 137.08 266.95
  Q 139.85 268.82 139.21 265.54
  Q 137.24 255.54 135.78 245.25
  Q 133.56 229.63 136.74 214.20
  Q 138.54 205.46 141.14 197.08
  Q 142.12 193.93 139.82 196.30
  Q 129.89 206.53 119.44 216.19
  Q 114.98 220.31 108.70 220.64
  Q 104.45 220.86 100.14 219.09
  Z"
/>
<path fill="#fda51e" d="
  M 143.44 35.80
  Q 154.12 45.74 156.08 59.77
  Q 156.58 63.35 156.24 70.24
  Q 156.07 73.74 155.91 77.24
  Q 155.75 80.62 155.75 84.25
  Q 155.68 116.14 154.25 152.50
  Q 154.19 154.02 153.24 154.70
  Q 152.82 155.00 152.80 154.44
  Q 152.23 134.29 147.13 114.78
  Q 144.19 103.54 141.17 92.31
  Q 138.01 80.51 138.12 68.34
  Q 138.17 63.23 137.36 60.26
  Q 133.56 46.22 121.21 37.83
  Q 120.53 37.37 121.30 37.07
  Q 128.19 34.41 135.50 33.50
  Q 140.33 32.90 143.44 35.80
  Z"
/>
<path fill="#fda51e" d="
  M 193.88 36.92
  Q 195.18 37.44 194.02 38.22
  Q 181.54 46.53 178.11 61.06
  Q 177.44 63.88 177.46 69.65
  Q 177.49 80.92 174.06 93.81
  Q 171.18 104.64 168.34 115.48
  Q 163.51 133.87 162.69 154.69
  Q 162.66 155.49 162.17 155.28
  C 161.92 155.18 161.74 154.88 161.71 154.51
  Q 160.20 135.29 160.22 116.00
  Q 160.25 94.05 159.54 72.11
  Q 159.17 60.89 160.37 55.97
  Q 162.82 45.87 170.44 37.69
  Q 172.25 35.74 174.13 34.57
  Q 175.97 33.42 178.63 33.54
  Q 186.28 33.86 193.88 36.92
  Z"
/>
<path fill="#ffffff" d="
  M 114.07 40.44
  Q 117.77 43.34 119.44 47.81
  Q 125.58 64.22 126.75 82.25
  Q 127.13 88.05 129.17 94.15
  Q 133.96 108.50 140.58 122.11
  Q 140.93 122.83 140.28 122.79
  Q 140.03 122.78 139.78 122.56
  Q 125.07 109.52 115.56 95.69
  Q 103.11 77.58 90.62 59.50
  Q 90.55 59.39 89.38 57.99
  Q 88.04 56.38 88.59 54.54
  Q 88.93 53.40 90.46 51.89
  Q 99.50 42.99 112.02 40.00
  C 112.73 39.82 113.49 39.99 114.07 40.44
  Z"
/>
<path fill="#ffffff" d="
  M 222.95 49.52
  Q 225.62 51.70 227.34 54.91
  C 227.57 55.35 227.54 55.89 227.26 56.31
  Q 214.23 75.12 202.00 93.00
  Q 190.68 109.55 175.63 122.77
  Q 175.41 122.96 175.20 123.00
  Q 174.57 123.12 174.93 122.37
  Q 182.00 107.81 186.44 94.94
  Q 187.44 92.03 188.18 88.17
  Q 188.63 85.79 188.90 81.28
  Q 190.02 62.62 197.56 45.06
  Q 198.81 42.15 201.23 40.83
  Q 203.08 39.82 205.85 40.60
  Q 215.28 43.25 222.95 49.52
  Z"
/>
<path fill="#fc5632" d="
  M 133.25 121.46
  Q 132.43 121.55 132.96 122.25
  Q 116.68 113.79 99.09 108.60
  Q 86.99 105.03 78.36 95.90
  Q 73.42 90.68 72.12 83.82
  Q 71.62 81.16 72.62 78.30
  Q 76.22 68.01 83.72 59.06
  C 83.89 58.86 84.21 58.91 84.31 59.15
  Q 88.94 70.65 94.15 80.58
  Q 99.71 91.19 107.56 99.44
  Q 111.58 103.66 114.08 106.44
  Q 122.33 115.62 133.25 121.46
  Z"
/>
<path fill="#fc5632" d="
  M 231.05 59.64
  C 231.22 59.18 231.81 59.07 232.13 59.44
  Q 239.47 67.94 243.44 79.06
  Q 243.93 80.45 243.73 82.87
  Q 243.58 84.69 242.92 86.55
  Q 240.19 94.20 233.56 99.56
  Q 225.46 106.12 215.87 108.93
  Q 211.72 110.14 211.66 110.16
  Q 196.80 114.98 182.89 122.09
  Q 181.09 123.01 182.38 121.52
  Q 182.55 121.32 182.80 121.18
  Q 192.20 115.90 197.44 110.94
  Q 199.95 108.56 206.85 100.85
  Q 212.19 94.88 215.46 90.08
  Q 225.04 75.98 231.05 59.64
  Z"
/>
<path fill="#2a3198" d="
  M 130.92 126.55
  Q 135.01 129.64 135.75 133.75
  Q 136.22 136.36 133.81 138.82
  Q 129.64 143.08 123.89 144.77
  Q 98.40 152.29 83.44 132.06
  Q 71.19 115.51 68.55 93.39
  Q 68.49 92.94 68.64 92.62
  Q 69.07 91.73 69.69 93.13
  Q 76.29 108.02 91.94 113.56
  Q 100.31 116.53 107.05 118.01
  Q 116.85 120.16 126.16 123.87
  Q 128.73 124.89 130.92 126.55
  Z"
/>
<path fill="#2a3198" d="
  M 184.40 141.12
  Q 181.39 138.96 180.14 136.03
  Q 179.44 134.40 180.12 132.77
  Q 182.03 128.19 185.89 125.95
  Q 194.09 121.21 203.44 119.42
  Q 214.31 117.34 224.45 113.13
  Q 232.93 109.61 237.60 105.37
  Q 243.40 100.10 246.72 92.63
  Q 246.97 92.06 247.19 92.58
  Q 247.25 92.73 247.23 92.93
  Q 244.50 116.01 231.81 132.56
  Q 219.24 148.97 198.25 146.47
  Q 190.61 145.57 184.40 141.12
  Z
  M 223.81 138.81
  Q 229.66 134.17 233.73 127.48
  Q 236.73 122.56 239.70 115.56
  Q 242.32 109.39 243.74 102.79
  Q 244.14 100.95 242.82 102.30
  Q 230.90 114.60 214.25 118.36
  Q 213.15 118.60 211.23 119.31
  Q 209.71 119.87 208.11 120.09
  Q 205.37 120.48 203.53 121.10
  Q 201.75 121.69 199.91 122.03
  Q 197.74 122.44 196.31 122.95
  Q 194.11 123.74 191.90 124.47
  Q 189.00 125.43 187.62 126.27
  Q 183.13 128.99 181.00 133.98
  C 180.88 134.27 180.90 134.60 181.05 134.88
  Q 183.38 139.08 187.06 141.19
  Q 191.73 143.87 197.21 144.67
  Q 202.38 145.42 207.80 145.03
  Q 216.81 144.37 223.81 138.81
  Z"
/>
<path fill="#2a3198" d="
  M 223.81 138.81
  Q 216.81 144.37 207.80 145.03
  Q 202.38 145.42 197.21 144.67
  Q 191.73 143.87 187.06 141.19
  Q 183.38 139.08 181.05 134.88
  C 180.90 134.60 180.88 134.27 181.00 133.98
  Q 183.13 128.99 187.62 126.27
  Q 189.00 125.43 191.90 124.47
  Q 194.11 123.74 196.31 122.95
  Q 197.74 122.44 199.91 122.03
  Q 201.75 121.69 203.53 121.10
  Q 205.37 120.48 208.11 120.09
  Q 209.71 119.87 211.23 119.31
  Q 213.15 118.60 214.25 118.36
  Q 230.90 114.60 242.82 102.30
  Q 244.14 100.95 243.74 102.79
  Q 242.32 109.39 239.70 115.56
  Q 236.73 122.56 233.73 127.48
  Q 229.66 134.17 223.81 138.81
  Z"
/>
<path fill="#f8acbd" d="
  M 181.08 146.60
  Q 189.79 151.23 198.00 152.75
  Q 213.79 155.67 225.68 147.28
  Q 232.74 142.30 238.87 132.44
  Q 244.41 123.55 247.38 113.29
  Q 248.22 110.43 248.88 113.21
  Q 249.00 113.68 249.05 114.31
  Q 250.36 128.49 247.75 146.50
  Q 245.87 159.47 239.89 171.10
  Q 234.49 181.60 223.44 186.69
  Q 220.05 188.24 218.18 185.32
  Q 216.51 182.71 215.29 179.87
  Q 212.13 172.57 206.67 167.20
  Q 204.76 165.33 194.79 157.88
  Q 186.34 151.58 177.68 145.55
  Q 176.48 144.72 177.92 144.93
  Q 178.90 145.08 179.66 145.62
  Q 180.99 146.56 181.08 146.60
  Z"
/>
<path fill="#f8acbd" d="
  M 117.61 152.70
  Q 127.58 151.01 136.25 145.50
  Q 136.93 145.07 137.47 145.14
  Q 138.06 145.22 137.53 145.61
  Q 130.72 150.60 123.94 155.64
  Q 111.24 165.09 110.47 165.79
  Q 102.47 173.04 98.69 183.19
  Q 97.36 186.77 94.52 187.01
  Q 92.77 187.16 89.81 185.60
  Q 82.92 181.99 78.81 175.94
  Q 70.67 163.93 68.25 148.50
  Q 65.26 129.46 66.69 113.87
  Q 66.76 113.16 67.01 112.68
  Q 67.92 110.90 68.63 113.47
  Q 72.34 126.92 80.60 138.13
  Q 87.68 147.75 98.21 151.41
  Q 107.08 154.48 117.61 152.70
  Z"
/>
<path fill="#15a28a" d="
  M 133.25 121.46
  L 136.02 123.03
  C 136.34 123.21 136.46 123.57 136.26 123.77
  Q 136.02 124.01 135.50 123.75
  Q 133.61 122.83 132.96 122.25
  Q 132.43 121.55 133.25 121.46
  Z"
/>
<path fill="#242424" d="
  M 157.75 172.31
  Q 157.08 177.29 154.69 180.69
  Q 153.40 182.51 150.93 182.72
  Q 149.16 182.88 149.09 182.89
  Q 144.14 183.77 140.17 186.92
  Q 135.79 190.39 132.19 194.69
  Q 130.40 196.83 123.81 202.81
  Q 120.05 206.24 114.42 208.27
  Q 109.56 210.02 103.89 210.18
  Q 89.41 210.60 77.69 202.56
  Q 61.20 191.26 53.63 171.58
  Q 53.49 171.22 53.50 170.88
  Q 53.56 169.55 54.53 170.96
  Q 57.90 175.79 61.63 180.34
  Q 68.88 189.17 78.56 193.94
  Q 83.93 196.58 90.50 196.45
  Q 107.22 196.11 117.81 182.81
  Q 122.51 176.91 130.64 169.66
  Q 144.20 157.57 157.63 169.42
  C 157.84 169.60 158.15 169.59 158.35 169.40
  Q 164.13 163.68 171.68 163.84
  Q 176.05 163.94 180.92 166.52
  Q 185.82 169.13 188.69 172.56
  Q 198.34 184.12 205.56 190.44
  Q 208.69 193.18 214.53 194.64
  Q 220.22 196.08 224.75 196.50
  Q 229.04 196.90 233.48 195.45
  Q 241.90 192.69 248.24 186.49
  Q 255.43 179.45 261.24 171.22
  Q 262.71 169.14 262.09 171.64
  Q 262.01 171.98 261.87 172.33
  Q 256.77 185.30 247.02 195.27
  Q 241.12 201.31 233.81 205.12
  Q 226.30 209.03 218.35 210.08
  Q 199.70 212.54 186.28 197.70
  Q 179.46 190.16 174.94 186.56
  Q 171.10 183.51 165.82 182.85
  Q 163.38 182.55 162.16 181.53
  Q 158.44 178.42 158.45 173.06
  Q 158.45 172.48 158.19 172.13
  Q 157.84 171.66 157.75 172.31
  Z"
/>
<path fill="#ffffff" d="
  M 184.20 203.81
  Q 192.25 211.87 196.44 215.31
  Q 200.25 218.45 205.14 219.14
  Q 209.48 219.74 214.19 217.96
  Q 218.84 216.21 223.06 212.81
  Q 223.66 212.33 223.69 212.95
  Q 223.70 213.16 223.56 213.39
  Q 211.27 232.09 196.11 248.51
  Q 188.62 256.62 187.57 257.67
  Q 182.97 262.21 177.77 265.56
  Q 175.52 267.01 175.98 264.38
  Q 177.64 254.75 179.10 245.23
  Q 181.72 228.18 178.03 211.34
  Q 176.34 203.62 174.24 195.98
  Q 173.31 192.59 175.74 195.14
  Q 179.63 199.24 184.20 203.81
  Z"
/>
<path fill="#242424" d="
  M 170.49 195.53
  Q 171.34 194.49 171.11 195.81
  Q 168.63 210.07 170.75 225.25
  Q 171.84 233.03 170.14 245.23
  Q 166.25 273.14 155.85 299.23
  Q 155.54 299.99 155.32 299.20
  Q 151.04 284.22 148.30 268.92
  Q 146.05 256.45 145.27 249.16
  Q 143.88 236.12 145.00 223.50
  Q 146.32 208.71 145.34 195.48
  C 145.32 195.14 145.43 194.86 145.62 194.78
  Q 145.89 194.68 146.15 195.08
  Q 148.26 198.44 151.40 200.63
  Q 154.78 203.00 158.14 203.11
  Q 162.00 203.24 165.36 200.63
  Q 167.89 198.67 170.49 195.53
  Z"
/>
<path fill="#ffffff" d="
  M 108.70 220.64
  Q 114.98 220.31 119.44 216.19
  Q 129.89 206.53 139.82 196.30
  Q 142.12 193.93 141.14 197.08
  Q 138.54 205.46 136.74 214.20
  Q 133.56 229.63 135.78 245.25
  Q 137.24 255.54 139.21 265.54
  Q 139.85 268.82 137.08 266.95
  Q 132.48 263.85 128.56 259.94
  Q 107.92 239.40 91.78 215.17
  C 91.56 214.84 91.47 214.50 91.54 214.26
  Q 91.71 213.67 92.58 214.42
  Q 96.03 217.39 100.14 219.09
  Q 104.45 220.86 108.70 220.64
  Z"
/>
</svg>
