<?xml version="1.0" encoding="UTF-8" standalone="no"?>
<!DOCTYPE svg PUBLIC "-//W3C//DTD SVG 1.1//EN" "http://www.w3.org/Graphics/SVG/1.1/DTD/svg11.dtd">
<svg xmlns="http://www.w3.org/2000/svg" version="1.1" viewBox="0 0 192 192">
<path fill="#a01e20" d="
  M 192.00 23.31
  Q 192.00 85.19 192.00 147.06
  Q 191.86 147.30 191.73 147.55
  Q 191.50 147.99 191.38 147.52
  Q 186.26 126.91 170.33 114.73
  Q 163.80 109.75 152.76 105.33
  Q 136.59 98.85 116.75 94.50
  Q 94.92 89.71 90.50 88.50
  Q 86.21 87.32 84.06 86.19
  Q 81.54 84.85 82.44 83.00
  Q 82.97 81.91 84.69 81.28
  Q 91.74 78.69 100.00 78.50
  Q 108.23 78.32 118.22 76.36
  Q 122.57 75.52 125.69 73.19
  Q 128.21 71.30 127.69 68.73
  Q 127.31 66.87 125.40 65.44
  Q 123.84 64.28 121.74 63.47
  Q 119.30 62.53 121.54 63.87
  Q 122.90 64.69 123.94 65.70
  Q 125.16 66.89 125.10 68.30
  Q 125.02 70.22 123.19 71.19
  Q 120.79 72.45 117.00 73.25
  Q 112.00 74.30 96.00 74.94
  Q 87.41 75.28 78.92 76.53
  Q 72.54 77.47 67.10 80.88
  Q 64.37 82.59 63.59 84.26
  Q 62.12 87.36 65.02 89.20
  Q 70.73 92.81 76.54 95.01
  Q 88.10 99.39 98.83 105.49
  Q 104.14 108.51 107.19 112.31
  Q 111.08 117.17 110.24 122.80
  Q 109.61 127.00 105.68 131.86
  Q 100.19 138.62 92.00 143.50
  Q 74.77 153.76 58.05 161.02
  Q 54.39 162.61 39.58 168.65
  Q 26.54 173.97 3.31 183.06
  Q 0.97 183.98 0.00 183.94
  Q 0.00 103.44 0.00 22.94
  Q 1.64 13.31 9.60 9.44
  Q 12.60 7.99 17.67 7.88
  Q 24.10 7.75 34.75 7.75
  Q 99.13 7.75 163.50 7.75
  Q 169.77 7.75 174.22 7.86
  Q 179.41 7.98 182.49 9.50
  Q 190.52 13.47 192.00 23.31
  Z"
/>
</svg>
