<?xml version="1.0" encoding="UTF-8" standalone="no"?>
<!DOCTYPE svg PUBLIC "-//W3C//DTD SVG 1.1//EN" "http://www.w3.org/Graphics/SVG/1.1/DTD/svg11.dtd">
<svg xmlns="http://www.w3.org/2000/svg" version="1.1" viewBox="0 0 256 256">
<path fill="#595959" d="
  M 144.56 239.94
  Q 148.75 240.32 158.71 239.84
  Q 159.38 239.80 158.89 240.19
  Q 158.70 240.33 158.43 240.40
  Q 134.43 246.47 110.51 242.18
  Q 100.92 240.46 91.24 236.89
  Q 52.70 222.68 31.97 187.31
  Q 26.86 178.57 23.47 169.24
  Q 12.16 138.05 19.29 105.49
  Q 21.43 95.73 25.33 86.45
  Q 39.58 52.51 70.81 33.31
  Q 101.21 14.63 137.29 16.78
  Q 147.26 17.37 157.04 19.81
  Q 196.58 29.70 221.08 62.00
  Q 227.24 70.13 231.70 78.91
  Q 243.91 102.94 244.00 130.00
  Q 244.11 161.14 227.90 188.42
  Q 227.82 188.56 227.75 188.72
  Q 227.15 190.15 227.30 188.71
  Q 227.31 188.57 227.38 188.43
  Q 231.56 179.76 232.70 170.19
  C 232.74 169.88 232.88 169.61 233.08 169.45
  L 233.25 169.32
  C 233.37 169.22 233.45 169.10 233.46 168.97
  Q 234.60 158.09 233.67 147.22
  Q 233.42 144.25 232.46 140.24
  Q 231.91 137.93 231.42 135.62
  Q 230.84 132.92 230.24 131.05
  Q 218.48 94.21 183.44 78.31
  Q 177.68 75.70 170.90 74.20
  Q 165.74 73.07 157.87 73.00
  Q 145.09 72.90 142.25 73.00
  Q 130.48 73.40 118.55 79.28
  Q 85.00 95.81 73.69 132.69
  Q 67.59 152.57 71.51 171.43
  Q 73.40 180.55 77.59 190.46
  Q 89.58 218.79 117.81 232.69
  Q 129.83 238.60 144.56 239.94
  Z"
/>
<circle fill="#3d3d3d" cx="155.28" cy="160.66" r="70.75"/>
</svg>
