<?xml version="1.0" encoding="UTF-8" standalone="no"?>
<!DOCTYPE svg PUBLIC "-//W3C//DTD SVG 1.1//EN" "http://www.w3.org/Graphics/SVG/1.1/DTD/svg11.dtd">
<svg xmlns="http://www.w3.org/2000/svg" version="1.1" viewBox="0 0 180 180">
<g stroke-width="2.0" fill="none" stroke-linecap="butt">
<path stroke="#898e94" vector-effect="non-scaling-stroke" d="
  M 70.60 52.64
  Q 60.00 44.24 47.74 38.52
  Q 45.85 37.64 44.98 39.05
  C 44.82 39.30 44.82 39.63 44.96 39.94
  Q 50.25 51.03 52.19 56.06
  Q 62.91 83.87 48.79 109.44
  Q 48.18 110.55 46.83 112.26
  Q 45.76 113.62 44.87 115.11
  Q 44.42 115.86 44.54 116.49
  Q 44.73 117.55 45.78 117.57
  Q 46.44 117.58 47.48 116.96
  Q 66.76 105.44 89.17 109.43
  Q 97.10 110.84 105.11 113.71
  Q 107.91 114.72 107.59 111.76
  Q 106.62 102.73 102.24 93.11
  Q 91.28 69.06 70.60 52.64"
/>
<path stroke="#898e94" vector-effect="non-scaling-stroke" d="
  M 97.44 61.00
  Q 92.37 56.77 86.62 53.42
  Q 83.87 51.82 80.15 50.75
  C 79.32 50.52 78.44 50.81 77.93 51.49
  Q 76.80 52.99 78.59 54.20
  Q 84.89 58.46 90.07 63.90
  Q 94.63 68.67 98.95 75.88
  Q 108.63 92.04 113.93 110.58
  C 114.11 111.24 114.80 111.62 115.46 111.44
  Q 121.39 109.83 126.98 112.37
  Q 129.20 113.37 129.58 113.48
  Q 132.82 114.33 131.50 110.25
  Q 128.92 102.29 121.19 88.31
  Q 116.05 79.02 107.08 69.99
  Q 101.74 64.60 97.44 61.00"
/>
<path stroke="#898e94" vector-effect="non-scaling-stroke" d="
  M 116.49 136.30
  Q 115.91 135.93 116.52 135.63
  Q 130.55 128.79 142.00 119.75
  Q 143.96 118.20 143.68 116.42
  C 143.63 116.13 143.38 115.91 143.06 115.89
  Q 140.40 115.68 135.50 116.00
  Q 87.25 119.17 38.71 122.27
  Q 35.14 122.50 36.99 125.56
  Q 38.08 127.38 39.04 130.46
  C 39.13 130.75 39.05 131.07 38.82 131.28
  Q 34.63 135.12 29.36 137.18
  Q 28.24 137.62 27.98 138.25
  Q 27.57 139.27 28.75 140.25
  Q 30.01 141.30 32.94 139.44
  L 42.59 133.28
  Q 44.52 132.04 46.25 133.49
  Q 48.87 135.71 52.17 137.80
  Q 55.89 140.17 58.90 140.35
  Q 64.39 140.69 68.76 136.51
  Q 74.34 131.16 79.69 135.81
  Q 83.15 138.82 86.66 140.03
  Q 89.60 141.05 92.80 139.85
  Q 96.00 138.66 98.68 136.50
  Q 101.43 134.29 102.94 133.98
  Q 106.91 133.17 110.31 136.44
  Q 119.10 144.89 128.22 136.71
  Q 135.04 130.60 141.42 137.08
  Q 145.13 140.85 149.25 140.75
  Q 152.04 140.68 150.93 138.49
  C 150.80 138.23 150.53 138.03 150.19 137.93
  Q 146.24 136.82 142.06 132.94
  Q 136.35 127.62 129.18 132.25
  Q 126.42 134.04 123.73 135.95
  Q 120.05 138.55 116.49 136.30"
/>
<path stroke="#898e94" vector-effect="non-scaling-stroke" d="
  M 66.64 53.84
  Q 59.70 48.54 51.93 44.56
  Q 50.41 43.78 51.19 45.30
  Q 54.75 52.28 57.18 60.08
  Q 59.71 68.20 60.18 75.63
  Q 61.31 93.42 53.23 108.68
  Q 52.23 110.56 54.22 109.79
  Q 68.79 104.12 82.24 105.13
  Q 92.97 105.93 103.37 109.37
  Q 103.98 109.57 103.81 108.96
  Q 94.39 75.01 66.64 53.84"
/>
<path stroke="#898e94" vector-effect="non-scaling-stroke" d="
  M 100.19 67.81
  Q 97.62 65.37 95.75 63.77
  Q 93.75 62.04 95.31 64.18
  Q 109.46 83.62 116.32 106.70
  C 116.47 107.23 117.00 107.57 117.55 107.49
  Q 121.84 106.89 126.11 108.28
  Q 127.18 108.63 126.77 107.58
  Q 117.99 84.71 100.19 67.81"
/>
<path stroke="#898e94" vector-effect="non-scaling-stroke" d="
  M 135.89 119.78
  Q 133.55 119.42 131.74 119.54
  Q 86.66 122.68 41.56 125.53
  C 41.29 125.55 41.10 125.80 41.17 126.06
  Q 41.58 127.64 42.80 128.74
  C 43.02 128.94 43.33 129.07 43.68 129.11
  Q 48.07 129.60 51.19 132.80
  Q 59.16 140.97 67.49 133.24
  Q 72.24 128.84 78.44 130.81
  Q 79.85 131.26 83.16 134.05
  Q 86.23 136.65 87.95 137.03
  Q 91.08 137.74 94.00 135.49
  Q 95.56 134.29 97.13 133.11
  Q 99.06 131.65 100.45 131.08
  Q 106.63 128.58 112.06 133.19
  C 112.39 133.47 112.85 133.53 113.24 133.35
  Q 125.04 127.81 135.99 120.23
  Q 136.50 119.87 135.89 119.78"
/>
</g>
<path fill="#f7fafc" d="
  M 0.00 0.00
  Q 90.00 0.00 180.00 0.00
  Q 180.00 90.00 180.00 180.00
  Q 90.00 180.00 0.00 180.00
  Q 0.00 90.00 0.00 0.00
  Z
  M 70.60 52.64
  Q 60.00 44.24 47.74 38.52
  Q 45.85 37.64 44.98 39.05
  C 44.82 39.30 44.82 39.63 44.96 39.94
  Q 50.25 51.03 52.19 56.06
  Q 62.91 83.87 48.79 109.44
  Q 48.18 110.55 46.83 112.26
  Q 45.76 113.62 44.87 115.11
  Q 44.42 115.86 44.54 116.49
  Q 44.73 117.55 45.78 117.57
  Q 46.44 117.58 47.48 116.96
  Q 66.76 105.44 89.17 109.43
  Q 97.10 110.84 105.11 113.71
  Q 107.91 114.72 107.59 111.76
  Q 106.62 102.73 102.24 93.11
  Q 91.28 69.06 70.60 52.64
  Z
  M 97.44 61.00
  Q 92.37 56.77 86.62 53.42
  Q 83.87 51.82 80.15 50.75
  C 79.32 50.52 78.44 50.81 77.93 51.49
  Q 76.80 52.99 78.59 54.20
  Q 84.89 58.46 90.07 63.90
  Q 94.63 68.67 98.95 75.88
  Q 108.63 92.04 113.93 110.58
  C 114.11 111.24 114.80 111.62 115.46 111.44
  Q 121.39 109.83 126.98 112.37
  Q 129.20 113.37 129.58 113.48
  Q 132.82 114.33 131.50 110.25
  Q 128.92 102.29 121.19 88.31
  Q 116.05 79.02 107.08 69.99
  Q 101.74 64.60 97.44 61.00
  Z
  M 116.49 136.30
  Q 115.91 135.93 116.52 135.63
  Q 130.55 128.79 142.00 119.75
  Q 143.96 118.20 143.68 116.42
  C 143.63 116.13 143.38 115.91 143.06 115.89
  Q 140.40 115.68 135.50 116.00
  Q 87.25 119.17 38.71 122.27
  Q 35.14 122.50 36.99 125.56
  Q 38.08 127.38 39.04 130.46
  C 39.13 130.75 39.05 131.07 38.82 131.28
  Q 34.63 135.12 29.36 137.18
  Q 28.24 137.62 27.98 138.25
  Q 27.57 139.27 28.75 140.25
  Q 30.01 141.30 32.94 139.44
  L 42.59 133.28
  Q 44.52 132.04 46.25 133.49
  Q 48.87 135.71 52.17 137.80
  Q 55.89 140.17 58.90 140.35
  Q 64.39 140.69 68.76 136.51
  Q 74.34 131.16 79.69 135.81
  Q 83.15 138.82 86.66 140.03
  Q 89.60 141.05 92.80 139.85
  Q 96.00 138.66 98.68 136.50
  Q 101.43 134.29 102.94 133.98
  Q 106.91 133.17 110.31 136.44
  Q 119.10 144.89 128.22 136.71
  Q 135.04 130.60 141.42 137.08
  Q 145.13 140.85 149.25 140.75
  Q 152.04 140.68 150.93 138.49
  C 150.80 138.23 150.53 138.03 150.19 137.93
  Q 146.24 136.82 142.06 132.94
  Q 136.35 127.62 129.18 132.25
  Q 126.42 134.04 123.73 135.95
  Q 120.05 138.55 116.49 136.30
  Z"
/>
<path fill="#1b212c" d="
  M 70.60 52.64
  Q 91.28 69.06 102.24 93.11
  Q 106.62 102.73 107.59 111.76
  Q 107.91 114.72 105.11 113.71
  Q 97.10 110.84 89.17 109.43
  Q 66.76 105.44 47.48 116.96
  Q 46.44 117.58 45.78 117.57
  Q 44.73 117.55 44.54 116.49
  Q 44.42 115.86 44.87 115.11
  Q 45.76 113.62 46.83 112.26
  Q 48.18 110.55 48.79 109.44
  Q 62.91 83.87 52.19 56.06
  Q 50.25 51.03 44.96 39.94
  C 44.82 39.63 44.82 39.30 44.98 39.05
  Q 45.85 37.64 47.74 38.52
  Q 60.00 44.24 70.60 52.64
  Z
  M 66.64 53.84
  Q 59.70 48.54 51.93 44.56
  Q 50.41 43.78 51.19 45.30
  Q 54.75 52.28 57.18 60.08
  Q 59.71 68.20 60.18 75.63
  Q 61.31 93.42 53.23 108.68
  Q 52.23 110.56 54.22 109.79
  Q 68.79 104.12 82.24 105.13
  Q 92.97 105.93 103.37 109.37
  Q 103.98 109.57 103.81 108.96
  Q 94.39 75.01 66.64 53.84
  Z"
/>
<path fill="#f7fafc" d="
  M 66.64 53.84
  Q 94.39 75.01 103.81 108.96
  Q 103.98 109.57 103.37 109.37
  Q 92.97 105.93 82.24 105.13
  Q 68.79 104.12 54.22 109.79
  Q 52.23 110.56 53.23 108.68
  Q 61.31 93.42 60.18 75.63
  Q 59.71 68.20 57.18 60.08
  Q 54.75 52.28 51.19 45.30
  Q 50.41 43.78 51.93 44.56
  Q 59.70 48.54 66.64 53.84
  Z"
/>
<path fill="#1b212c" d="
  M 107.08 69.99
  Q 116.05 79.02 121.19 88.31
  Q 128.92 102.29 131.50 110.25
  Q 132.82 114.33 129.58 113.48
  Q 129.20 113.37 126.98 112.37
  Q 121.39 109.83 115.46 111.44
  C 114.80 111.62 114.11 111.24 113.93 110.58
  Q 108.63 92.04 98.95 75.88
  Q 94.63 68.67 90.07 63.90
  Q 84.89 58.46 78.59 54.20
  Q 76.80 52.99 77.93 51.49
  C 78.44 50.81 79.32 50.52 80.15 50.75
  Q 83.87 51.82 86.62 53.42
  Q 92.37 56.77 97.44 61.00
  Q 101.74 64.60 107.08 69.99
  Z
  M 100.19 67.81
  Q 97.62 65.37 95.75 63.77
  Q 93.75 62.04 95.31 64.18
  Q 109.46 83.62 116.32 106.70
  C 116.47 107.23 117.00 107.57 117.55 107.49
  Q 121.84 106.89 126.11 108.28
  Q 127.18 108.63 126.77 107.58
  Q 117.99 84.71 100.19 67.81
  Z"
/>
<path fill="#f7fafc" d="
  M 100.19 67.81
  Q 117.99 84.71 126.77 107.58
  Q 127.18 108.63 126.11 108.28
  Q 121.84 106.89 117.55 107.49
  C 117.00 107.57 116.47 107.23 116.32 106.70
  Q 109.46 83.62 95.31 64.18
  Q 93.75 62.04 95.75 63.77
  Q 97.62 65.37 100.19 67.81
  Z"
/>
<path fill="#1b212c" d="
  M 116.49 136.30
  Q 120.05 138.55 123.73 135.95
  Q 126.42 134.04 129.18 132.25
  Q 136.35 127.62 142.06 132.94
  Q 146.24 136.82 150.19 137.93
  C 150.53 138.03 150.80 138.23 150.93 138.49
  Q 152.04 140.68 149.25 140.75
  Q 145.13 140.85 141.42 137.08
  Q 135.04 130.60 128.22 136.71
  Q 119.10 144.89 110.31 136.44
  Q 106.91 133.17 102.94 133.98
  Q 101.43 134.29 98.68 136.50
  Q 96.00 138.66 92.80 139.85
  Q 89.60 141.05 86.66 140.03
  Q 83.15 138.82 79.69 135.81
  Q 74.34 131.16 68.76 136.51
  Q 64.39 140.69 58.90 140.35
  Q 55.89 140.17 52.17 137.80
  Q 48.87 135.71 46.25 133.49
  Q 44.52 132.04 42.59 133.28
  L 32.94 139.44
  Q 30.01 141.30 28.75 140.25
  Q 27.57 139.27 27.98 138.25
  Q 28.24 137.62 29.36 137.18
  Q 34.63 135.12 38.82 131.28
  C 39.05 131.07 39.13 130.75 39.04 130.46
  Q 38.08 127.38 36.99 125.56
  Q 35.14 122.50 38.71 122.27
  Q 87.25 119.17 135.50 116.00
  Q 140.40 115.68 143.06 115.89
  C 143.38 115.91 143.63 116.13 143.68 116.42
  Q 143.96 118.20 142.00 119.75
  Q 130.55 128.79 116.52 135.63
  Q 115.91 135.93 116.49 136.30
  Z
  M 135.89 119.78
  Q 133.55 119.42 131.74 119.54
  Q 86.66 122.68 41.56 125.53
  C 41.29 125.55 41.10 125.80 41.17 126.06
  Q 41.58 127.64 42.80 128.74
  C 43.02 128.94 43.33 129.07 43.68 129.11
  Q 48.07 129.60 51.19 132.80
  Q 59.16 140.97 67.49 133.24
  Q 72.24 128.84 78.44 130.81
  Q 79.85 131.26 83.16 134.05
  Q 86.23 136.65 87.95 137.03
  Q 91.08 137.74 94.00 135.49
  Q 95.56 134.29 97.13 133.11
  Q 99.06 131.65 100.45 131.08
  Q 106.63 128.58 112.06 133.19
  C 112.39 133.47 112.85 133.53 113.24 133.35
  Q 125.04 127.81 135.99 120.23
  Q 136.50 119.87 135.89 119.78
  Z"
/>
<path fill="#f7fafc" d="
  M 135.89 119.78
  Q 136.50 119.87 135.99 120.23
  Q 125.04 127.81 113.24 133.35
  C 112.85 133.53 112.39 133.47 112.06 133.19
  Q 106.63 128.58 100.45 131.08
  Q 99.06 131.65 97.13 133.11
  Q 95.56 134.29 94.00 135.49
  Q 91.08 137.74 87.95 137.03
  Q 86.23 136.65 83.16 134.05
  Q 79.85 131.26 78.44 130.81
  Q 72.24 128.84 67.49 133.24
  Q 59.16 140.97 51.19 132.80
  Q 48.07 129.60 43.68 129.11
  C 43.33 129.07 43.02 128.94 42.80 128.74
  Q 41.58 127.64 41.17 126.06
  C 41.10 125.80 41.29 125.55 41.56 125.53
  Q 86.66 122.68 131.74 119.54
  Q 133.55 119.42 135.89 119.78
  Z"
/>
</svg>
