<?xml version="1.0" encoding="UTF-8" standalone="no"?>
<!DOCTYPE svg PUBLIC "-//W3C//DTD SVG 1.1//EN" "http://www.w3.org/Graphics/SVG/1.1/DTD/svg11.dtd">
<svg xmlns="http://www.w3.org/2000/svg" version="1.1" viewBox="0 0 180 180">
<path stroke="#959595" stroke-width="2.0" fill="none" stroke-linecap="butt" vector-effect="non-scaling-stroke" d="
  M 65.00 68.18
  L 65.11 65.78
  C 65.14 65.04 64.63 64.44 64.02 64.50
  Q 58.00 65.08 51.16 64.42
  C 50.54 64.36 50.00 64.85 50.00 65.48
  L 50.00 116.82
  C 50.00 117.20 50.30 117.50 50.68 117.50
  L 64.42 117.50
  C 64.74 117.50 65.00 117.24 65.00 116.92
  Q 65.00 103.38 65.12 90.50
  Q 65.16 85.30 65.81 83.31
  Q 67.90 76.92 73.81 76.75
  Q 77.06 76.65 79.41 78.25
  Q 82.19 80.14 82.50 83.75
  Q 82.98 89.23 82.57 116.95
  C 82.56 117.22 82.79 117.44 83.07 117.45
  L 97.25 117.50
  C 97.53 117.50 97.75 117.28 97.75 117.00
  Q 97.75 105.01 97.75 93.03
  Q 97.75 92.92 97.69 90.48
  Q 97.58 85.94 99.00 82.25
  Q 101.18 76.59 106.81 76.75
  Q 109.15 76.81 111.00 77.95
  Q 113.02 79.20 114.06 81.27
  Q 114.99 83.10 115.04 87.39
  Q 115.23 101.86 115.19 116.98
  C 115.18 117.27 115.41 117.50 115.70 117.50
  L 129.75 117.50
  C 130.03 117.50 130.25 117.28 130.25 117.00
  Q 130.25 101.13 130.24 85.25
  Q 130.23 78.61 127.38 72.88
  Q 125.47 69.05 122.67 66.89
  Q 119.57 64.50 115.51 63.72
  Q 103.37 61.39 95.11 70.95
  C 94.95 71.14 94.64 71.12 94.50 70.91
  Q 90.91 65.36 84.59 63.84
  Q 75.79 61.73 68.31 66.33
  Q 67.87 66.60 67.00 67.48
  Q 66.36 68.13 65.53 68.50
  C 65.28 68.62 64.99 68.44 65.00 68.18"
/>
<path fill="#2a2a2a" d="
  M 86.81 0.00
  Q 90.44 0.00 94.06 0.00
  Q 121.23 1.78 142.06 16.69
  Q 176.60 41.40 180.00 85.06
  Q 180.00 90.19 180.00 95.31
  Q 178.02 125.85 158.81 148.31
  Q 134.30 176.98 95.69 180.00
  Q 90.44 180.00 85.19 180.00
  Q 52.46 177.82 29.44 156.56
  Q 2.62 131.80 0.00 93.94
  Q 0.00 90.06 0.00 86.19
  Q 2.03 56.84 18.81 35.31
  Q 44.04 2.94 86.81 0.00
  Z
  M 65.00 68.18
  L 65.11 65.78
  C 65.14 65.04 64.63 64.44 64.02 64.50
  Q 58.00 65.08 51.16 64.42
  C 50.54 64.36 50.00 64.85 50.00 65.48
  L 50.00 116.82
  C 50.00 117.20 50.30 117.50 50.68 117.50
  L 64.42 117.50
  C 64.74 117.50 65.00 117.24 65.00 116.92
  Q 65.00 103.38 65.12 90.50
  Q 65.16 85.30 65.81 83.31
  Q 67.90 76.92 73.81 76.75
  Q 77.06 76.65 79.41 78.25
  Q 82.19 80.14 82.50 83.75
  Q 82.98 89.23 82.57 116.95
  C 82.56 117.22 82.79 117.44 83.07 117.45
  L 97.25 117.50
  C 97.53 117.50 97.75 117.28 97.75 117.00
  Q 97.75 105.01 97.75 93.03
  Q 97.75 92.92 97.69 90.48
  Q 97.58 85.94 99.00 82.25
  Q 101.18 76.59 106.81 76.75
  Q 109.15 76.81 111.00 77.95
  Q 113.02 79.20 114.06 81.27
  Q 114.99 83.10 115.04 87.39
  Q 115.23 101.86 115.19 116.98
  C 115.18 117.27 115.41 117.50 115.70 117.50
  L 129.75 117.50
  C 130.03 117.50 130.25 117.28 130.25 117.00
  Q 130.25 101.13 130.24 85.25
  Q 130.23 78.61 127.38 72.88
  Q 125.47 69.05 122.67 66.89
  Q 119.57 64.50 115.51 63.72
  Q 103.37 61.39 95.11 70.95
  C 94.95 71.14 94.64 71.12 94.50 70.91
  Q 90.91 65.36 84.59 63.84
  Q 75.79 61.73 68.31 66.33
  Q 67.87 66.60 67.00 67.48
  Q 66.36 68.13 65.53 68.50
  C 65.28 68.62 64.99 68.44 65.00 68.18
  Z"
/>
<path fill="#ffffff" d="
  M 65.53 68.50
  Q 66.36 68.13 67.00 67.48
  Q 67.87 66.60 68.31 66.33
  Q 75.79 61.73 84.59 63.84
  Q 90.91 65.36 94.50 70.91
  C 94.64 71.12 94.95 71.14 95.11 70.95
  Q 103.37 61.39 115.51 63.72
  Q 119.57 64.50 122.67 66.89
  Q 125.47 69.05 127.38 72.88
  Q 130.23 78.61 130.24 85.25
  Q 130.25 101.13 130.25 117.00
  C 130.25 117.28 130.03 117.50 129.75 117.50
  L 115.70 117.50
  C 115.41 117.50 115.18 117.27 115.19 116.98
  Q 115.23 101.86 115.04 87.39
  Q 114.99 83.10 114.06 81.27
  Q 113.02 79.20 111.00 77.95
  Q 109.15 76.81 106.81 76.75
  Q 101.18 76.59 99.00 82.25
  Q 97.58 85.94 97.69 90.48
  Q 97.75 92.92 97.75 93.03
  Q 97.75 105.01 97.75 117.00
  C 97.75 117.28 97.53 117.50 97.25 117.50
  L 83.07 117.45
  C 82.79 117.44 82.56 117.22 82.57 116.95
  Q 82.98 89.23 82.50 83.75
  Q 82.19 80.14 79.41 78.25
  Q 77.06 76.65 73.81 76.75
  Q 67.90 76.92 65.81 83.31
  Q 65.16 85.30 65.12 90.50
  Q 65.00 103.38 65.00 116.92
  C 65.00 117.24 64.74 117.50 64.42 117.50
  L 50.68 117.50
  C 50.30 117.50 50.00 117.20 50.00 116.82
  L 50.00 65.48
  C 50.00 64.85 50.54 64.36 51.16 64.42
  Q 58.00 65.08 64.02 64.50
  C 64.63 64.44 65.14 65.04 65.11 65.78
  L 65.00 68.18
  C 64.99 68.44 65.28 68.62 65.53 68.50
  Z"
/>
</svg>
