<?xml version="1.0" encoding="UTF-8" standalone="no"?>
<!DOCTYPE svg PUBLIC "-//W3C//DTD SVG 1.1//EN" "http://www.w3.org/Graphics/SVG/1.1/DTD/svg11.dtd">
<svg xmlns="http://www.w3.org/2000/svg" version="1.1" viewBox="0 0 1024 1024">
<g stroke-width="2.0" fill="none" stroke-linecap="butt">
<path stroke="#99e3d0" vector-effect="non-scaling-stroke" d="
  M 286.26 285.56
  L 698.37 285.69
  C 698.82 285.69 699.19 285.33 699.19 284.88
  L 699.19 227.68
  C 699.19 227.30 698.88 227.00 698.50 227.00
  L 227.50 227.00
  C 227.22 227.00 227.00 227.22 227.00 227.50
  L 227.00 698.69
  C 227.00 699.00 227.25 699.25 227.56 699.25
  L 285.25 699.25
  C 285.53 699.25 285.75 699.03 285.75 698.75
  L 285.75 286.07
  C 285.75 285.79 285.98 285.56 286.26 285.56"
/>
<path stroke="#99e3d0" vector-effect="non-scaling-stroke" d="
  M 797.99 346.01
  C 797.99 345.87 797.87 345.75 797.73 345.75
  L 346.01 345.75
  C 345.87 345.75 345.75 345.87 345.75 346.01
  L 345.75 797.73
  C 345.75 797.87 345.87 797.99 346.01 797.99
  L 797.73 797.99
  C 797.87 797.99 797.99 797.87 797.99 797.73
  L 797.99 346.01"
/>
<path stroke="#99e3d0" vector-effect="non-scaling-stroke" d="
  M 739.26 404.77
  C 739.26 404.62 739.14 404.50 738.99 404.50
  L 404.77 404.50
  C 404.62 404.50 404.50 404.62 404.50 404.77
  L 404.50 738.99
  C 404.50 739.14 404.62 739.26 404.77 739.26
  L 738.99 739.26
  C 739.14 739.26 739.26 739.14 739.26 738.99
  L 739.26 404.77"
/>
<path stroke="#99e3d0" vector-effect="non-scaling-stroke" d="
  M 679.24 483.65
  C 679.24 483.42 679.06 483.24 678.83 483.24
  L 620.91 483.24
  C 620.68 483.24 620.50 483.42 620.50 483.65
  L 620.50 561.35
  C 620.50 561.58 620.68 561.76 620.91 561.76
  L 678.83 561.76
  C 679.06 561.76 679.24 561.58 679.24 561.35
  L 679.24 483.65"
/>
<path stroke="#99e3d0" vector-effect="non-scaling-stroke" d="
  M 541.75 620.78
  C 541.75 620.63 541.62 620.50 541.47 620.50
  L 463.49 620.50
  C 463.34 620.50 463.21 620.63 463.21 620.78
  L 463.21 678.96
  C 463.21 679.11 463.34 679.24 463.49 679.24
  L 541.47 679.24
  C 541.62 679.24 541.75 679.11 541.75 678.96
  L 541.75 620.78"
/>
<path stroke="#99e3d0" vector-effect="non-scaling-stroke" d="
  M 679.24 620.92
  C 679.24 620.69 679.05 620.50 678.82 620.50
  L 600.92 620.50
  C 600.69 620.50 600.50 620.69 600.50 620.92
  L 600.50 678.82
  C 600.50 679.05 600.69 679.24 600.92 679.24
  L 678.82 679.24
  C 679.05 679.24 679.24 679.05 679.24 678.82
  L 679.24 620.92"
/>
</g>
<path fill="#33c7a1" d="
  M 96.81 0.00
  Q 512.19 0.00 927.56 0.00
  Q 975.02 2.96 1003.19 39.06
  Q 1022.57 63.90 1024.00 97.31
  Q 1024.00 512.44 1024.00 927.56
  Q 1021.98 964.85 997.94 991.19
  Q 969.88 1021.92 926.69 1024.00
  Q 512.06 1024.00 97.44 1024.00
  Q 54.29 1021.98 26.19 991.31
  Q 1.97 964.89 0.00 927.44
  Q 0.00 511.94 0.00 96.44
  Q 2.48 53.66 32.94 25.94
  Q 59.37 1.88 96.81 0.00
  Z
  M 286.26 285.56
  L 698.37 285.69
  C 698.82 285.69 699.19 285.33 699.19 284.88
  L 699.19 227.68
  C 699.19 227.30 698.88 227.00 698.50 227.00
  L 227.50 227.00
  C 227.22 227.00 227.00 227.22 227.00 227.50
  L 227.00 698.69
  C 227.00 699.00 227.25 699.25 227.56 699.25
  L 285.25 699.25
  C 285.53 699.25 285.75 699.03 285.75 698.75
  L 285.75 286.07
  C 285.75 285.79 285.98 285.56 286.26 285.56
  Z
  M 797.99 346.01
  C 797.99 345.87 797.87 345.75 797.73 345.75
  L 346.01 345.75
  C 345.87 345.75 345.75 345.87 345.75 346.01
  L 345.75 797.73
  C 345.75 797.87 345.87 797.99 346.01 797.99
  L 797.73 797.99
  C 797.87 797.99 797.99 797.87 797.99 797.73
  L 797.99 346.01
  Z"
/>
<path fill="#ffffff" d="
  M 286.26 285.56
  C 285.98 285.56 285.75 285.79 285.75 286.07
  L 285.75 698.75
  C 285.75 699.03 285.53 699.25 285.25 699.25
  L 227.56 699.25
  C 227.25 699.25 227.00 699.00 227.00 698.69
  L 227.00 227.50
  C 227.00 227.22 227.22 227.00 227.50 227.00
  L 698.50 227.00
  C 698.88 227.00 699.19 227.30 699.19 227.68
  L 699.19 284.88
  C 699.19 285.33 698.82 285.69 698.37 285.69
  L 286.26 285.56
  Z"
/>
<path fill="#ffffff" d="
  M 797.99 797.73
  C 797.99 797.87 797.87 797.99 797.73 797.99
  L 346.01 797.99
  C 345.87 797.99 345.75 797.87 345.75 797.73
  L 345.75 346.01
  C 345.75 345.87 345.87 345.75 346.01 345.75
  L 797.73 345.75
  C 797.87 345.75 797.99 345.87 797.99 346.01
  L 797.99 797.73
  Z
  M 739.26 404.77
  C 739.26 404.62 739.14 404.50 738.99 404.50
  L 404.77 404.50
  C 404.62 404.50 404.50 404.62 404.50 404.77
  L 404.50 738.99
  C 404.50 739.14 404.62 739.26 404.77 739.26
  L 738.99 739.26
  C 739.14 739.26 739.26 739.14 739.26 738.99
  L 739.26 404.77
  Z"
/>
<path fill="#33c7a1" d="
  M 739.26 738.99
  C 739.26 739.14 739.14 739.26 738.99 739.26
  L 404.77 739.26
  C 404.62 739.26 404.50 739.14 404.50 738.99
  L 404.50 404.77
  C 404.50 404.62 404.62 404.50 404.77 404.50
  L 738.99 404.50
  C 739.14 404.50 739.26 404.62 739.26 404.77
  L 739.26 738.99
  Z
  M 679.24 483.65
  C 679.24 483.42 679.06 483.24 678.83 483.24
  L 620.91 483.24
  C 620.68 483.24 620.50 483.42 620.50 483.65
  L 620.50 561.35
  C 620.50 561.58 620.68 561.76 620.91 561.76
  L 678.83 561.76
  C 679.06 561.76 679.24 561.58 679.24 561.35
  L 679.24 483.65
  Z
  M 541.75 620.78
  C 541.75 620.63 541.62 620.50 541.47 620.50
  L 463.49 620.50
  C 463.34 620.50 463.21 620.63 463.21 620.78
  L 463.21 678.96
  C 463.21 679.11 463.34 679.24 463.49 679.24
  L 541.47 679.24
  C 541.62 679.24 541.75 679.11 541.75 678.96
  L 541.75 620.78
  Z
  M 679.24 620.92
  C 679.24 620.69 679.05 620.50 678.82 620.50
  L 600.92 620.50
  C 600.69 620.50 600.50 620.69 600.50 620.92
  L 600.50 678.82
  C 600.50 679.05 600.69 679.24 600.92 679.24
  L 678.82 679.24
  C 679.05 679.24 679.24 679.05 679.24 678.82
  L 679.24 620.92
  Z"
/>
<rect fill="#ffffff" x="620.50" y="483.24" width="58.74" height="78.52" rx="0.41"/>
<rect fill="#ffffff" x="463.21" y="620.50" width="78.54" height="58.74" rx="0.28"/>
<rect fill="#ffffff" x="600.50" y="620.50" width="78.74" height="58.74" rx="0.42"/>
</svg>
