<svg xmlns:xlink="http://www.w3.org/1999/xlink" xmlns="http://www.w3.org/2000/svg" fill="none" version="1.1" width="39"
    height="39" viewBox="-1.3 0.1 39 39">
    <g fill="#040404">
        <path
            d="M24.916198632812502,30.419457421875002L17.9899086328125,38.999957421874996L11.0635986328125,30.419457421875002L14.5610086328125,24.842007421875L16.4853386328125,27.909657421875L14.9489386328125,30.355857421875L17.9898786328125,35.098657421875004L21.0308086328125,30.355857421875L16.2257286328125,22.749057421875L17.9898786328125,15.703857421875L19.5224186328125,21.817497421875L24.916198632812502,30.419457421875002Z"
            fill="#040404"></path>
        <path
            d="M27.9967806640625,19.4976L24.1432806640625,25.5055L21.8434806640625,21.8342L23.3876806640625,18.7148L18.0015806640625,8.57262L12.6078306640625,18.7148L14.1519406640625,21.8342L11.8473606640625,25.5055L7.9976806640625,19.5054L17.9977806640625,0L27.9967806640625,19.4976Z"
            fill="#040404"></path>
        <path
            d="M10.8512,27.080879921875L8.75897,30.415629921875002L0,35.093819921874996L0.00772,35.077119921874996L7.99078,22.617919921875L10.8512,27.080879921875Z"
            fill="#040404"></path>
        <path
            d="M35.999984960937496,35.101526171875L27.2293849609375,30.419476171875L25.1370849609375,27.084726171875L27.9975449609375,22.621826171875L35.999984960937496,35.101526171875Z"
            fill="#040404"></path>
    </g>
</svg>