<?xml version="1.0" encoding="UTF-8" standalone="no"?>
<!DOCTYPE svg PUBLIC "-//W3C//DTD SVG 1.1//EN" "http://www.w3.org/Graphics/SVG/1.1/DTD/svg11.dtd">
<svg xmlns="http://www.w3.org/2000/svg" version="1.1" viewBox="0 0 32 32">
<path fill="#f25222" d="
  M 8.99 6.35
  Q 8.24 5.89 8.49 6.73
  Q 9.18 8.97 11.35 10.05
  Q 12.24 10.49 11.32 10.87
  Q 9.59 11.58 7.96 11.50
  Q 6.40 11.41 4.99 10.16
  Q 1.00 6.63 3.91 2.70
  Q 5.71 0.28 8.35 0.14
  Q 10.62 0.03 12.29 1.63
  Q 13.48 2.78 14.00 4.82
  Q 15.38 10.20 8.99 6.35
  Z"
/>
<path fill="#7fba00" d="
  M 22.16 7.08
  C 22.17 6.68 21.76 6.42 21.40 6.59
  Q 15.34 9.54 17.25 3.75
  Q 17.88 1.83 19.60 0.88
  Q 21.00 0.11 23.01 0.30
  Q 28.34 0.82 28.15 5.87
  Q 28.03 8.93 25.92 10.42
  Q 23.55 12.10 20.17 11.06
  Q 18.23 10.46 20.05 9.57
  Q 22.10 8.57 22.16 7.08
  Z"
/>
<path fill="#ffbb00" d="
  M 18.94 14.79
  L 17.07 14.71
  C 16.75 14.70 16.46 14.52 16.34 14.25
  Q 15.55 12.41 17.75 12.45
  Q 20.75 12.50 24.34 12.50
  C 24.70 12.50 25.00 12.80 25.00 13.16
  Q 25.00 18.85 25.00 24.45
  Q 25.00 24.50 24.92 26.03
  Q 24.75 29.21 27.43 31.06
  Q 27.95 31.41 27.32 31.49
  Q 22.27 32.08 20.44 29.02
  Q 19.51 27.46 19.51 22.81
  Q 19.52 19.06 19.45 15.31
  C 19.44 15.03 19.22 14.80 18.94 14.79
  Z"
/>
<path fill="#01a5ef" d="
  M 13.19 32.00
  Q 11.19 32.00 9.19 32.00
  Q 7.00 31.27 5.84 29.54
  Q 5.00 28.29 5.00 25.77
  Q 5.00 22.24 5.00 18.28
  C 5.00 17.95 4.78 17.67 4.47 17.58
  Q 2.36 17.01 2.52 15.91
  C 2.56 15.62 2.80 15.36 3.14 15.22
  L 8.64 13.04
  C 9.19 12.82 9.78 13.26 9.77 13.87
  Q 9.61 20.29 9.94 26.06
  Q 10.22 31.07 15.56 29.40
  Q 16.37 29.15 17.13 28.77
  Q 18.04 28.32 18.42 28.35
  Q 19.00 28.40 18.34 29.03
  Q 16.14 31.14 13.19 32.00
  Z"
/>
</svg>
