<?xml version="1.0" encoding="UTF-8" standalone="no"?>
<!DOCTYPE svg PUBLIC "-//W3C//DTD SVG 1.1//EN" "http://www.w3.org/Graphics/SVG/1.1/DTD/svg11.dtd">
<svg xmlns="http://www.w3.org/2000/svg" version="1.1" viewBox="0 0 152 152">
<g stroke-width="2.0" fill="none" stroke-linecap="butt">
<path stroke="#ececec" vector-effect="non-scaling-stroke" d="
  M 35.41 147.96
  Q 38.33 148.48 42.25 148.50
  Q 72.76 148.62 103.27 148.53
  Q 114.65 148.50 120.08 147.02
  Q 135.08 142.95 143.06 129.36
  Q 146.13 124.13 147.34 118.62
  Q 148.50 113.32 148.50 107.00
  Q 148.50 74.88 148.50 42.75
  Q 148.50 31.47 143.50 23.00
  Q 135.28 9.07 120.43 5.04
  Q 114.77 3.50 100.93 3.50
  Q 72.09 3.50 43.25 3.48
  Q 23.82 3.46 12.44 17.44
  Q 3.57 28.33 3.55 42.50
  Q 3.50 76.00 3.50 109.50
  Q 3.50 124.22 13.02 135.22
  Q 21.94 145.53 35.41 147.96"
/>
<path stroke="#a088f2" vector-effect="non-scaling-stroke" d="
  M 118.96 76.50
  C 118.96 53.05 99.95 34.04 76.50 34.04
  C 53.05 34.04 34.04 53.05 34.04 76.50
  C 34.04 99.95 53.05 118.96 76.50 118.96
  C 99.95 118.96 118.96 99.95 118.96 76.50"
/>
<path stroke="#a088f2" vector-effect="non-scaling-stroke" d="
  M 64.24 93.49
  Q 70.29 98.22 78.01 97.74
  Q 82.42 97.48 82.25 93.25
  Q 82.05 88.31 85.58 86.25
  Q 86.74 85.57 89.05 85.21
  Q 90.87 84.92 92.69 84.69
  Q 94.85 84.40 96.13 82.49
  Q 97.02 81.18 97.24 78.81
  Q 98.43 66.03 88.73 59.38
  Q 84.47 56.46 79.84 55.66
  Q 74.86 54.81 69.94 56.44
  Q 64.11 58.36 60.35 62.86
  Q 56.85 67.03 55.78 72.95
  Q 53.58 85.17 64.24 93.49"
/>
</g>
<path fill="#d9d9d9" d="
  M 151.50 109.75
  C 151.50 132.80 132.81 151.49 109.76 151.49
  L 42.24 151.49
  C 19.19 151.49 0.50 132.80 0.50 109.75
  L 0.50 42.25
  C 0.50 19.20 19.19 0.51 42.24 0.51
  L 109.76 0.51
  C 132.81 0.51 151.50 19.20 151.50 42.25
  L 151.50 109.75
  Z
  M 35.41 147.96
  Q 38.33 148.48 42.25 148.50
  Q 72.76 148.62 103.27 148.53
  Q 114.65 148.50 120.08 147.02
  Q 135.08 142.95 143.06 129.36
  Q 146.13 124.13 147.34 118.62
  Q 148.50 113.32 148.50 107.00
  Q 148.50 74.88 148.50 42.75
  Q 148.50 31.47 143.50 23.00
  Q 135.28 9.07 120.43 5.04
  Q 114.77 3.50 100.93 3.50
  Q 72.09 3.50 43.25 3.48
  Q 23.82 3.46 12.44 17.44
  Q 3.57 28.33 3.55 42.50
  Q 3.50 76.00 3.50 109.50
  Q 3.50 124.22 13.02 135.22
  Q 21.94 145.53 35.41 147.96
  Z"
/>
<path fill="#ffffff" d="
  M 35.41 147.96
  Q 21.94 145.53 13.02 135.22
  Q 3.50 124.22 3.50 109.50
  Q 3.50 76.00 3.55 42.50
  Q 3.57 28.33 12.44 17.44
  Q 23.82 3.46 43.25 3.48
  Q 72.09 3.50 100.93 3.50
  Q 114.77 3.50 120.43 5.04
  Q 135.28 9.07 143.50 23.00
  Q 148.50 31.47 148.50 42.75
  Q 148.50 74.88 148.50 107.00
  Q 148.50 113.32 147.34 118.62
  Q 146.13 124.13 143.06 129.36
  Q 135.08 142.95 120.08 147.02
  Q 114.65 148.50 103.27 148.53
  Q 72.76 148.62 42.25 148.50
  Q 38.33 148.48 35.41 147.96
  Z
  M 118.96 76.50
  C 118.96 53.05 99.95 34.04 76.50 34.04
  C 53.05 34.04 34.04 53.05 34.04 76.50
  C 34.04 99.95 53.05 118.96 76.50 118.96
  C 99.95 118.96 118.96 99.95 118.96 76.50
  Z"
/>
<path fill="#4110e5" d="
  M 118.96 76.50
  C 118.96 99.95 99.95 118.96 76.50 118.96
  C 53.05 118.96 34.04 99.95 34.04 76.50
  C 34.04 53.05 53.05 34.04 76.50 34.04
  C 99.95 34.04 118.96 53.05 118.96 76.50
  Z
  M 64.24 93.49
  Q 70.29 98.22 78.01 97.74
  Q 82.42 97.48 82.25 93.25
  Q 82.05 88.31 85.58 86.25
  Q 86.74 85.57 89.05 85.21
  Q 90.87 84.92 92.69 84.69
  Q 94.85 84.40 96.13 82.49
  Q 97.02 81.18 97.24 78.81
  Q 98.43 66.03 88.73 59.38
  Q 84.47 56.46 79.84 55.66
  Q 74.86 54.81 69.94 56.44
  Q 64.11 58.36 60.35 62.86
  Q 56.85 67.03 55.78 72.95
  Q 53.58 85.17 64.24 93.49
  Z"
/>
<path fill="#ffffff" d="
  M 64.24 93.49
  Q 53.58 85.17 55.78 72.95
  Q 56.85 67.03 60.35 62.86
  Q 64.11 58.36 69.94 56.44
  Q 74.86 54.81 79.84 55.66
  Q 84.47 56.46 88.73 59.38
  Q 98.43 66.03 97.24 78.81
  Q 97.02 81.18 96.13 82.49
  Q 94.85 84.40 92.69 84.69
  Q 90.87 84.92 89.05 85.21
  Q 86.74 85.57 85.58 86.25
  Q 82.05 88.31 82.25 93.25
  Q 82.42 97.48 78.01 97.74
  Q 70.29 98.22 64.24 93.49
  Z"
/>
</svg>
