<?xml version="1.0" encoding="UTF-8" standalone="no"?>
<!DOCTYPE svg PUBLIC "-//W3C//DTD SVG 1.1//EN" "http://www.w3.org/Graphics/SVG/1.1/DTD/svg11.dtd">
<svg xmlns="http://www.w3.org/2000/svg" version="1.1" viewBox="0 0 64 64">
<path fill="#3c9cfe" d="
  M 24.95 29.36
  Q 22.98 27.13 20.81 25.40
  Q 18.41 23.49 15.70 23.30
  Q 9.69 22.87 7.16 27.90
  Q 5.48 31.26 6.56 34.76
  Q 7.81 38.80 11.78 40.26
  Q 15.25 41.53 18.61 39.89
  Q 21.66 38.40 24.23 35.24
  C 24.77 34.58 25.76 34.51 26.38 35.09
  L 29.16 37.67
  C 29.56 38.04 29.55 38.67 29.13 39.03
  Q 27.26 40.60 25.60 42.24
  Q 23.57 44.23 21.83 45.04
  Q 13.08 49.13 6.20 43.82
  Q 1.96 40.55 0.59 35.45
  Q -0.96 29.70 2.04 24.76
  Q 5.02 19.84 10.39 17.98
  Q 16.12 15.99 22.00 18.99
  Q 23.77 19.89 25.82 21.81
  Q 27.55 23.43 29.26 25.13
  C 29.46 25.33 29.46 25.67 29.26 25.87
  L 25.74 29.38
  C 25.52 29.60 25.16 29.59 24.95 29.36
  Z"
/>
<path fill="#23d0f8" d="
  M 36.72 22.88
  Q 40.42 18.81 45.57 17.68
  Q 50.65 16.56 55.24 18.67
  Q 59.67 20.71 61.94 25.07
  Q 64.04 29.08 63.55 33.72
  Q 62.99 38.97 59.36 42.43
  Q 54.88 46.69 48.62 46.75
  Q 42.12 46.81 37.19 41.31
  Q 35.51 39.45 28.11 32.34
  C 27.91 32.15 27.91 31.84 28.11 31.65
  Q 31.08 28.76 34.01 25.85
  Q 34.06 25.81 36.72 22.88
  Z
  M 53.75 24.74
  Q 52.50 23.74 50.92 23.40
  Q 44.90 22.11 40.51 27.28
  Q 38.63 29.50 36.49 31.64
  C 36.29 31.84 36.29 32.16 36.49 32.36
  Q 38.56 34.44 40.14 36.33
  Q 42.35 38.99 45.39 40.11
  Q 48.56 41.27 51.53 40.34
  Q 54.07 39.54 55.75 37.42
  Q 57.36 35.40 57.64 32.90
  Q 58.16 28.27 53.75 24.74
  Z"
/>
</svg>
