<?xml version="1.0" encoding="UTF-8" standalone="no"?>
<!DOCTYPE svg PUBLIC "-//W3C//DTD SVG 1.1//EN" "http://www.w3.org/Graphics/SVG/1.1/DTD/svg11.dtd">
<svg xmlns="http://www.w3.org/2000/svg" version="1.1" viewBox="0 0 201 201">
<path fill="#031b4e" d="
  M 36.56 0.00
  Q 100.69 0.00 164.81 0.00
  Q 182.20 1.82 192.56 14.69
  Q 199.96 23.87 201.00 36.81
  Q 201.00 100.69 201.00 164.56
  Q 197.70 191.04 173.19 199.31
  Q 171.18 199.99 168.74 200.36
  Q 166.47 200.71 164.19 201.00
  Q 100.31 201.00 36.44 201.00
  Q 25.94 200.07 17.81 194.69
  Q 1.85 184.12 0.00 164.44
  Q 0.00 100.19 0.00 35.94
  Q 1.70 20.27 12.69 10.19
  Q 22.46 1.22 36.56 0.00
  Z
  M 123.07 50.42
  Q 111.74 43.11 99.59 35.48
  C 99.32 35.31 98.98 35.31 98.71 35.48
  L 59.82 59.11
  C 59.51 59.30 59.32 59.65 59.32 60.05
  L 59.48 72.33
  Q 59.50 74.37 61.19 75.28
  Q 66.34 78.05 72.76 79.45
  Q 90.20 83.25 108.02 81.99
  Q 121.31 81.04 134.18 75.99
  Q 137.00 74.89 137.00 71.86
  L 137.00 59.88
  C 137.00 59.51 136.81 59.16 136.49 58.95
  Q 129.54 54.59 123.07 50.42
  Z
  M 59.72 79.08
  Q 59.29 78.81 59.29 79.32
  L 59.50 100.05
  Q 59.52 102.02 61.22 102.97
  Q 66.26 105.78 72.25 106.99
  Q 98.78 112.35 125.27 106.82
  Q 131.02 105.62 135.35 102.82
  Q 137.00 101.75 137.00 99.79
  L 137.00 79.71
  Q 137.00 77.90 135.98 79.40
  Q 135.47 80.15 134.22 80.75
  Q 128.30 83.56 121.84 84.73
  Q 101.43 88.44 81.02 85.63
  Q 73.31 84.57 70.03 83.65
  Q 64.74 82.16 59.72 79.08
  Z
  M 95.81 114.19
  Q 77.98 113.90 63.31 108.69
  Q 62.30 108.33 59.71 106.37
  Q 59.31 106.07 59.32 106.56
  L 59.50 127.68
  Q 59.51 129.46 61.07 130.31
  Q 65.59 132.75 70.33 133.85
  Q 87.05 137.72 104.06 136.87
  Q 113.50 136.40 119.41 135.36
  Q 126.91 134.03 134.28 130.94
  Q 137.02 129.79 137.01 126.86
  L 136.94 107.17
  C 136.94 106.89 136.63 106.71 136.38 106.85
  Q 130.36 110.25 124.49 111.47
  Q 110.31 114.42 95.81 114.19
  Z
  M 59.59 133.91
  C 59.47 133.84 59.31 133.93 59.31 134.07
  Q 59.23 143.07 59.47 152.30
  Q 59.48 152.43 59.37 154.17
  Q 59.20 156.98 61.98 158.29
  Q 67.97 161.10 74.49 162.29
  Q 98.25 166.63 121.99 162.17
  Q 128.02 161.04 134.27 158.44
  Q 136.95 157.33 136.95 154.47
  L 137.00 134.52
  Q 137.00 133.70 136.31 134.14
  Q 133.15 136.16 130.21 137.13
  Q 120.48 140.32 110.26 141.18
  Q 93.28 142.61 76.46 139.98
  Q 67.70 138.62 59.59 133.91
  Z"
/>
</svg>
