<?xml version="1.0" encoding="UTF-8" standalone="no"?>
<!DOCTYPE svg PUBLIC "-//W3C//DTD SVG 1.1//EN" "http://www.w3.org/Graphics/SVG/1.1/DTD/svg11.dtd">
<svg xmlns="http://www.w3.org/2000/svg" version="1.1" viewBox="0 0 512 512">
<path fill="#0080ff" d="
  M 239.06 0.00
  Q 256.69 0.00 274.31 0.00
  Q 299.77 2.03 323.69 8.06
  Q 365.78 18.68 401.96 43.34
  Q 450.84 76.66 479.26 127.97
  Q 484.01 136.55 488.14 145.88
  Q 513.35 202.86 510.75 264.50
  Q 508.34 321.64 482.50 371.50
  Q 450.22 433.78 390.22 471.42
  Q 329.18 509.72 255.35 510.52
  C 254.78 510.53 254.31 510.06 254.31 509.49
  L 254.25 411.62
  C 254.25 411.42 254.08 411.25 253.88 411.25
  L 157.44 411.25
  C 157.06 411.25 156.75 411.56 156.75 411.94
  L 156.75 487.15
  C 156.75 487.62 156.37 488.00 155.90 488.00
  L 81.91 488.00
  C 81.55 488.00 81.25 487.70 81.25 487.34
  L 81.25 412.02
  C 81.25 411.63 80.94 411.31 80.55 411.31
  L 18.67 411.25
  C 18.30 411.25 18.00 410.95 18.00 410.59
  L 18.00 348.60
  C 18.00 348.13 18.38 347.75 18.85 347.75
  L 80.68 347.75
  C 81.13 347.75 81.50 348.12 81.50 348.57
  L 81.50 410.09
  C 81.50 410.59 81.91 411.00 82.41 411.00
  L 156.13 411.00
  C 156.33 411.00 156.50 410.83 156.50 410.63
  L 156.50 313.56
  C 156.50 313.25 156.75 313.00 157.06 313.00
  L 255.44 313.00
  C 255.75 313.00 256.00 313.25 256.00 313.56
  L 256.00 410.35
  C 256.00 410.71 256.30 411.01 256.66 411.00
  Q 304.82 409.90 343.63 383.11
  Q 351.82 377.45 359.31 370.71
  Q 397.27 336.52 407.90 286.27
  Q 409.98 276.43 410.63 266.49
  Q 413.15 228.38 398.54 192.70
  Q 382.02 152.35 348.44 128.06
  Q 315.53 104.27 273.97 99.59
  Q 264.00 98.47 254.00 98.61
  Q 205.60 99.32 166.44 126.94
  Q 122.78 157.72 106.58 208.70
  Q 103.47 218.49 101.83 228.11
  Q 99.71 240.65 99.49 253.89
  C 99.48 254.23 99.21 254.50 98.87 254.50
  Q 50.25 254.50 2.25 254.50
  Q 0.62 254.50 0.00 254.19
  Q 0.00 248.81 0.00 243.44
  Q 3.17 181.59 33.56 128.52
  Q 38.46 119.96 44.20 111.61
  Q 89.31 45.97 163.56 16.81
  Q 199.03 2.89 239.06 0.00
  Z"
/>
</svg>
