<?xml version="1.0" encoding="UTF-8" standalone="no"?>
<!DOCTYPE svg PUBLIC "-//W3C//DTD SVG 1.1//EN" "http://www.w3.org/Graphics/SVG/1.1/DTD/svg11.dtd">
<svg xmlns="http://www.w3.org/2000/svg" version="1.1" viewBox="0 0 200 200">
<g stroke-width="2.0" fill="none" stroke-linecap="butt">
<path stroke="#808080" vector-effect="non-scaling-stroke" d="
  M 200.00 100.06
  Q 150.59 50.44 100.79 0.67
  C 100.42 0.30 99.82 0.30 99.46 0.67
  L 0.45 99.68
  C 0.24 99.89 0.24 100.24 0.45 100.45
  Q 50.12 150.10 99.94 200.00"
/>
<path stroke="#808080" vector-effect="non-scaling-stroke" d="
  M 200.00 100.31
  Q 149.94 150.00 100.19 200.00"
/>
<path stroke="#808080" vector-effect="non-scaling-stroke" d="
  M 108.08 124.30
  C 108.39 124.21 108.70 124.42 108.75 124.74
  Q 110.20 134.44 118.58 136.67
  Q 120.75 137.25 125.49 137.25
  Q 128.92 137.25 132.44 137.25
  C 132.75 137.25 133.00 137.00 133.00 136.69
  L 133.00 121.52
  C 133.00 121.23 132.77 121.00 132.48 121.00
  L 127.26 121.00
  C 126.56 121.00 126.00 120.44 126.00 119.74
  Q 126.00 103.63 126.19 88.25
  Q 126.44 68.14 109.51 62.78
  Q 105.00 61.36 98.35 61.02
  Q 91.48 60.66 87.00 61.75
  Q 75.75 64.47 68.87 74.40
  C 68.61 74.77 68.65 75.27 68.96 75.57
  L 79.62 85.67
  C 79.82 85.86 80.14 85.84 80.33 85.62
  Q 82.03 83.68 83.81 81.82
  Q 86.57 78.94 90.19 77.98
  Q 93.68 77.05 97.35 77.47
  Q 103.67 78.19 106.19 84.81
  Q 107.19 87.44 106.61 93.08
  C 106.58 93.36 106.35 93.58 106.05 93.62
  Q 100.67 94.15 95.25 93.98
  Q 84.91 93.64 76.20 98.39
  Q 71.63 100.88 69.29 104.24
  Q 66.62 108.08 66.00 113.00
  Q 65.16 119.65 66.50 124.50
  Q 70.02 137.24 83.75 138.76
  Q 87.80 139.21 91.82 138.63
  Q 104.34 136.80 107.74 124.75
  Q 107.85 124.35 108.08 124.30"
/>
<path stroke="#808080" vector-effect="non-scaling-stroke" d="
  M 88.44 122.81
  Q 95.20 126.64 102.14 122.64
  Q 104.15 121.48 105.14 120.09
  Q 106.38 118.35 106.50 116.25
  Q 106.61 114.26 106.45 106.56
  C 106.44 106.28 106.22 106.05 105.93 106.04
  Q 99.00 105.81 93.75 106.25
  Q 86.23 106.88 85.54 113.54
  Q 85.24 116.41 85.54 118.47
  Q 85.98 121.42 88.44 122.81"
/>
</g>
<path fill="#ffffff" d="
  M 0.00 0.00
  Q 100.00 0.00 200.00 0.00
  Q 200.00 50.03 200.00 100.06
  Q 150.59 50.44 100.79 0.67
  C 100.42 0.30 99.82 0.30 99.46 0.67
  L 0.45 99.68
  C 0.24 99.89 0.24 100.24 0.45 100.45
  Q 50.12 150.10 99.94 200.00
  Q 49.97 200.00 0.00 200.00
  Q 0.00 100.00 0.00 0.00
  Z"
/>
<path fill="#000000" d="
  M 200.00 100.06
  Q 200.00 100.19 200.00 100.31
  Q 149.94 150.00 100.19 200.00
  Q 100.06 200.00 99.94 200.00
  Q 50.12 150.10 0.45 100.45
  C 0.24 100.24 0.24 99.89 0.45 99.68
  L 99.46 0.67
  C 99.82 0.30 100.42 0.30 100.79 0.67
  Q 150.59 50.44 200.00 100.06
  Z
  M 108.08 124.30
  C 108.39 124.21 108.70 124.42 108.75 124.74
  Q 110.20 134.44 118.58 136.67
  Q 120.75 137.25 125.49 137.25
  Q 128.92 137.25 132.44 137.25
  C 132.75 137.25 133.00 137.00 133.00 136.69
  L 133.00 121.52
  C 133.00 121.23 132.77 121.00 132.48 121.00
  L 127.26 121.00
  C 126.56 121.00 126.00 120.44 126.00 119.74
  Q 126.00 103.63 126.19 88.25
  Q 126.44 68.14 109.51 62.78
  Q 105.00 61.36 98.35 61.02
  Q 91.48 60.66 87.00 61.75
  Q 75.75 64.47 68.87 74.40
  C 68.61 74.77 68.65 75.27 68.96 75.57
  L 79.62 85.67
  C 79.82 85.86 80.14 85.84 80.33 85.62
  Q 82.03 83.68 83.81 81.82
  Q 86.57 78.94 90.19 77.98
  Q 93.68 77.05 97.35 77.47
  Q 103.67 78.19 106.19 84.81
  Q 107.19 87.44 106.61 93.08
  C 106.58 93.36 106.35 93.58 106.05 93.62
  Q 100.67 94.15 95.25 93.98
  Q 84.91 93.64 76.20 98.39
  Q 71.63 100.88 69.29 104.24
  Q 66.62 108.08 66.00 113.00
  Q 65.16 119.65 66.50 124.50
  Q 70.02 137.24 83.75 138.76
  Q 87.80 139.21 91.82 138.63
  Q 104.34 136.80 107.74 124.75
  Q 107.85 124.35 108.08 124.30
  Z"
/>
<path fill="#ffffff" d="
  M 108.08 124.30
  Q 107.85 124.35 107.74 124.75
  Q 104.34 136.80 91.82 138.63
  Q 87.80 139.21 83.75 138.76
  Q 70.02 137.24 66.50 124.50
  Q 65.16 119.65 66.00 113.00
  Q 66.62 108.08 69.29 104.24
  Q 71.63 100.88 76.20 98.39
  Q 84.91 93.64 95.25 93.98
  Q 100.67 94.15 106.05 93.62
  C 106.35 93.58 106.58 93.36 106.61 93.08
  Q 107.19 87.44 106.19 84.81
  Q 103.67 78.19 97.35 77.47
  Q 93.68 77.05 90.19 77.98
  Q 86.57 78.94 83.81 81.82
  Q 82.03 83.68 80.33 85.62
  C 80.14 85.84 79.82 85.86 79.62 85.67
  L 68.96 75.57
  C 68.65 75.27 68.61 74.77 68.87 74.40
  Q 75.75 64.47 87.00 61.75
  Q 91.48 60.66 98.35 61.02
  Q 105.00 61.36 109.51 62.78
  Q 126.44 68.14 126.19 88.25
  Q 126.00 103.63 126.00 119.74
  C 126.00 120.44 126.56 121.00 127.26 121.00
  L 132.48 121.00
  C 132.77 121.00 133.00 121.23 133.00 121.52
  L 133.00 136.69
  C 133.00 137.00 132.75 137.25 132.44 137.25
  Q 128.92 137.25 125.49 137.25
  Q 120.75 137.25 118.58 136.67
  Q 110.20 134.44 108.75 124.74
  C 108.70 124.42 108.39 124.21 108.08 124.30
  Z
  M 88.44 122.81
  Q 95.20 126.64 102.14 122.64
  Q 104.15 121.48 105.14 120.09
  Q 106.38 118.35 106.50 116.25
  Q 106.61 114.26 106.45 106.56
  C 106.44 106.28 106.22 106.05 105.93 106.04
  Q 99.00 105.81 93.75 106.25
  Q 86.23 106.88 85.54 113.54
  Q 85.24 116.41 85.54 118.47
  Q 85.98 121.42 88.44 122.81
  Z"
/>
<path fill="#ffffff" d="
  M 200.00 100.31
  Q 200.00 150.16 200.00 200.00
  Q 150.09 200.00 100.19 200.00
  Q 149.94 150.00 200.00 100.31
  Z"
/>
<path fill="#000000" d="
  M 88.44 122.81
  Q 85.98 121.42 85.54 118.47
  Q 85.24 116.41 85.54 113.54
  Q 86.23 106.88 93.75 106.25
  Q 99.00 105.81 105.93 106.04
  C 106.22 106.05 106.44 106.28 106.45 106.56
  Q 106.61 114.26 106.50 116.25
  Q 106.38 118.35 105.14 120.09
  Q 104.15 121.48 102.14 122.64
  Q 95.20 126.64 88.44 122.81
  Z"
/>
</svg>
