<?xml version="1.0" encoding="UTF-8" standalone="no"?>
<!DOCTYPE svg PUBLIC "-//W3C//DTD SVG 1.1//EN" "http://www.w3.org/Graphics/SVG/1.1/DTD/svg11.dtd">
<svg xmlns="http://www.w3.org/2000/svg" version="1.1" viewBox="0 0 120 120">
<path fill="#000000" d="
  M 94.56 81.89
  Q 91.20 84.87 88.28 88.28
  Q 87.87 88.76 87.52 89.00
  Q 86.39 89.75 86.40 88.68
  C 86.40 88.47 86.56 88.18 86.84 87.90
  L 88.90 85.84
  C 89.19 85.55 89.23 85.14 88.98 85.01
  Q 88.48 84.74 86.81 86.05
  C 86.36 86.40 85.75 86.50 85.21 86.30
  Q 83.67 85.75 85.10 84.60
  Q 85.95 83.92 86.19 83.67
  Q 97.42 71.96 95.09 55.49
  Q 91.50 30.02 67.19 24.56
  Q 59.02 22.73 49.63 26.26
  Q 36.53 31.18 30.25 44.25
  Q 28.21 48.50 27.64 52.70
  Q 27.10 56.64 27.51 61.42
  Q 28.24 70.00 33.70 77.05
  Q 34.58 78.19 35.77 79.04
  C 36.01 79.21 36.17 79.48 36.22 79.81
  Q 36.41 81.21 37.94 81.12
  C 38.29 81.10 38.61 81.18 38.86 81.34
  Q 47.31 86.93 54.88 93.65
  Q 54.92 93.68 57.93 96.00
  Q 62.28 99.35 60.78 104.70
  Q 60.15 106.94 58.01 108.33
  Q 52.22 112.11 45.41 111.66
  Q 42.83 111.49 37.71 109.58
  Q 33.93 108.16 30.04 107.07
  C 29.74 106.99 29.46 106.80 29.24 106.55
  Q 28.06 105.21 26.58 104.27
  Q 24.90 103.19 23.96 102.09
  Q 21.13 98.75 17.70 96.00
  C 17.47 95.82 17.34 95.52 17.35 95.19
  Q 17.36 93.66 16.31 92.19
  Q 9.50 82.60 7.27 70.80
  Q 5.87 63.32 5.69 61.11
  Q 5.39 57.54 6.17 53.97
  Q 7.36 48.51 7.39 48.34
  Q 8.91 40.25 13.01 33.03
  Q 24.79 12.31 47.75 6.42
  Q 47.88 6.39 51.29 5.81
  Q 52.49 5.61 53.64 5.20
  Q 54.96 4.73 55.96 4.67
  Q 70.81 3.84 83.06 9.94
  Q 104.47 20.59 111.35 43.54
  Q 117.19 63.01 107.31 79.56
  Q 102.92 86.92 95.16 93.49
  Q 94.01 94.47 91.57 95.40
  Q 89.29 96.26 87.43 97.95
  C 87.05 98.29 86.45 98.19 86.20 97.74
  Q 84.79 95.17 88.07 95.39
  C 88.33 95.41 88.57 95.22 88.63 94.94
  Q 88.85 93.74 89.81 93.06
  Q 92.60 91.10 94.34 89.31
  C 94.59 89.05 94.67 88.70 94.53 88.46
  Q 94.28 87.99 93.78 88.54
  Q 93.48 88.87 93.28 89.01
  Q 89.65 91.53 86.08 94.15
  C 85.78 94.37 85.46 94.47 85.18 94.44
  Q 84.36 94.33 85.84 93.29
  Q 92.02 89.00 94.76 82.03
  Q 94.95 81.55 94.56 81.89
  Z
  M 94.77 91.93
  Q 92.99 92.94 91.98 93.06
  Q 91.34 93.13 91.17 93.22
  Q 90.64 93.52 90.78 94.04
  C 90.85 94.32 91.16 94.50 91.50 94.47
  Q 93.75 94.22 95.03 92.20
  Q 95.44 91.55 94.77 91.93
  Z"
/>
<path fill="#000000" d="
  M 83.39 88.71
  Q 86.45 87.16 83.61 89.08
  Q 81.28 90.65 78.03 91.98
  Q 76.71 92.52 77.80 91.84
  Q 80.31 90.27 83.39 88.71
  Z"
/>
<path fill="#000000" d="
  M 80.66 97.21
  Q 80.04 97.82 80.13 97.21
  C 80.16 97.05 80.27 96.89 80.43 96.80
  Q 87.20 93.09 80.99 96.95
  Q 80.83 97.05 80.66 97.21
  Z"
/>
<path fill="#000000" d="
  M 72.53 96.35
  Q 71.09 96.59 72.95 95.87
  Q 73.26 95.75 73.56 95.77
  Q 75.12 95.92 72.53 96.35
  Z"
/>
<path fill="#000000" d="
  M 84.50 99.15
  Q 82.71 99.76 84.30 98.77
  Q 84.44 98.69 84.60 98.67
  Q 86.49 98.47 84.50 99.15
  Z"
/>
<path fill="#000000" d="
  M 65.68 103.06
  Q 63.95 102.67 65.72 102.78
  Q 67.46 102.88 69.53 102.31
  Q 69.70 102.27 69.94 102.11
  Q 70.31 101.86 70.41 102.14
  C 70.46 102.29 70.36 102.48 70.17 102.57
  Q 68.03 103.59 65.68 103.06
  Z"
/>
</svg>
