<svg width="64" height="64" viewBox="0 0 64 64" fill="none" xmlns="http://www.w3.org/2000/svg">
<rect width="64" height="64" rx="32" fill="#101827"/>
<path d="M38.7629 15.8487L19.9044 22.3574C14.9993 24.0503 12.5467 24.8968 11.633 26.3377C10.8383 27.5909 10.6577 29.1378 11.1423 30.5403C11.6994 32.153 13.891 33.5418 18.2742 36.3192L35.13 47.0001C38.6096 49.205 40.3494 50.3074 41.8718 50.2449C43.2016 50.1902 44.4512 49.5942 45.3307 48.5953C46.3375 47.4516 46.5759 45.4058 47.0526 41.3142L49.0553 24.1245C49.5317 20.0349 49.77 17.9901 49.0534 16.6458C48.4275 15.4717 47.3488 14.6044 46.0677 14.2451C44.601 13.8338 42.6549 14.5055 38.7629 15.8487Z" fill="white" fill-opacity="0.54"/>
<path d="M44.8375 18.6702L23.7262 15.5763C18.971 14.8794 16.5934 14.531 15.1524 15.3303C13.8973 16.0264 13.0128 17.2403 12.7345 18.6483C12.415 20.2649 13.475 22.4215 15.595 26.7346L26.1507 48.2099C28.2493 52.4795 29.2986 54.6143 30.7646 55.3496C32.0416 55.9901 33.5352 56.0382 34.8508 55.4813C36.3611 54.8419 37.5457 52.7791 39.9148 48.6534L50.4705 30.272L50.4705 30.272C52.384 26.9399 53.3407 25.2739 53.2489 23.8115C53.1686 22.5325 52.588 21.3366 51.6326 20.4825C50.5402 19.5059 48.6393 19.2273 44.8375 18.6702Z" fill="white"/>
<path d="M28.6871 35.3558L23.0891 32.2768C22.6401 32.0299 22.6401 31.3847 23.0891 31.1377L28.6871 28.0588C29.21 27.7712 29.8116 28.2812 29.6135 28.8441L28.6819 31.4915C28.6327 31.6312 28.6327 31.7834 28.6819 31.923L29.6135 34.5704C29.8116 35.1334 29.21 35.6433 28.6871 35.3558Z" stroke="#101827" stroke-width="0.8125"/>
<path d="M36.5573 27.9904L42.8283 31.1259C43.3074 31.3654 43.3074 32.0491 42.8283 32.2887L36.5573 35.4241C36.0259 35.6898 35.446 35.1622 35.6605 34.6081L36.6925 31.9419C36.751 31.7909 36.751 31.6236 36.6925 31.4726L35.6605 28.8064C35.446 28.2524 36.0259 27.7247 36.5573 27.9904Z" stroke="#101827" stroke-width="0.8125"/>
<path d="M31.8035 36.176L34.241 27.2385" stroke="#101827" stroke-width="0.8125" stroke-linecap="round"/>
</svg>
