<?xml version="1.0" encoding="UTF-8" standalone="no"?>
<!DOCTYPE svg PUBLIC "-//W3C//DTD SVG 1.1//EN" "http://www.w3.org/Graphics/SVG/1.1/DTD/svg11.dtd">
<svg xmlns="http://www.w3.org/2000/svg" version="1.1" viewBox="0 0 192 192">
<g stroke-width="2.0" fill="none" stroke-linecap="butt">
<path stroke="#909092" vector-effect="non-scaling-stroke" d="
  M 67.60 55.95
  C 67.60 49.42 62.31 44.13 55.78 44.13
  C 49.25 44.13 43.96 49.42 43.96 55.95
  C 43.96 62.48 49.25 67.77 55.78 67.77
  C 62.31 67.77 67.60 62.48 67.60 55.95"
/>
<path stroke="#909092" vector-effect="non-scaling-stroke" d="
  M 107.73 55.95
  C 107.73 49.43 102.45 44.15 95.93 44.15
  C 89.41 44.15 84.13 49.43 84.13 55.95
  C 84.13 62.47 89.41 67.75 95.93 67.75
  C 102.45 67.75 107.73 62.47 107.73 55.95"
/>
<path stroke="#909092" vector-effect="non-scaling-stroke" d="
  M 147.90 55.95
  C 147.90 49.42 142.61 44.13 136.08 44.13
  C 129.55 44.13 124.26 49.42 124.26 55.95
  C 124.26 62.48 129.55 67.77 136.08 67.77
  C 142.61 67.77 147.90 62.48 147.90 55.95"
/>
<path stroke="#909092" vector-effect="non-scaling-stroke" d="
  M 67.60 95.96
  C 67.60 89.44 62.31 84.15 55.79 84.15
  C 49.27 84.15 43.98 89.44 43.98 95.96
  C 43.98 102.48 49.27 107.77 55.79 107.77
  C 62.31 107.77 67.60 102.48 67.60 95.96"
/>
<path stroke="#909092" vector-effect="non-scaling-stroke" d="
  M 107.73 95.95
  C 107.73 89.43 102.45 84.15 95.93 84.15
  C 89.41 84.15 84.13 89.43 84.13 95.95
  C 84.13 102.47 89.41 107.75 95.93 107.75
  C 102.45 107.75 107.73 102.47 107.73 95.95"
/>
<path stroke="#909092" vector-effect="non-scaling-stroke" d="
  M 147.89 95.96
  C 147.89 89.44 142.60 84.15 136.08 84.15
  C 129.56 84.15 124.27 89.44 124.27 95.96
  C 124.27 102.48 129.56 107.77 136.08 107.77
  C 142.60 107.77 147.89 102.48 147.89 95.96"
/>
<path stroke="#909092" vector-effect="non-scaling-stroke" d="
  M 67.59 136.10
  C 67.59 129.58 62.30 124.29 55.78 124.29
  C 49.26 124.29 43.97 129.58 43.97 136.10
  C 43.97 142.62 49.26 147.91 55.78 147.91
  C 62.30 147.91 67.59 142.62 67.59 136.10"
/>
<path stroke="#909092" vector-effect="non-scaling-stroke" d="
  M 107.73 136.10
  C 107.73 129.58 102.45 124.30 95.93 124.30
  C 89.41 124.30 84.13 129.58 84.13 136.10
  C 84.13 142.62 89.41 147.90 95.93 147.90
  C 102.45 147.90 107.73 142.62 107.73 136.10"
/>
<path stroke="#909092" vector-effect="non-scaling-stroke" d="
  M 147.87 136.10
  C 147.87 129.58 142.58 124.29 136.06 124.29
  C 129.54 124.29 124.25 129.58 124.25 136.10
  C 124.25 142.62 129.54 147.91 136.06 147.91
  C 142.58 147.91 147.87 142.62 147.87 136.10"
/>
</g>
<path fill="#212125" d="
  M 0.00 0.00
  Q 96.00 0.00 192.00 0.00
  Q 192.00 96.00 192.00 192.00
  Q 96.00 192.00 0.00 192.00
  Q 0.00 96.00 0.00 0.00
  Z
  M 67.60 55.95
  C 67.60 49.42 62.31 44.13 55.78 44.13
  C 49.25 44.13 43.96 49.42 43.96 55.95
  C 43.96 62.48 49.25 67.77 55.78 67.77
  C 62.31 67.77 67.60 62.48 67.60 55.95
  Z
  M 107.73 55.95
  C 107.73 49.43 102.45 44.15 95.93 44.15
  C 89.41 44.15 84.13 49.43 84.13 55.95
  C 84.13 62.47 89.41 67.75 95.93 67.75
  C 102.45 67.75 107.73 62.47 107.73 55.95
  Z
  M 147.90 55.95
  C 147.90 49.42 142.61 44.13 136.08 44.13
  C 129.55 44.13 124.26 49.42 124.26 55.95
  C 124.26 62.48 129.55 67.77 136.08 67.77
  C 142.61 67.77 147.90 62.48 147.90 55.95
  Z
  M 67.60 95.96
  C 67.60 89.44 62.31 84.15 55.79 84.15
  C 49.27 84.15 43.98 89.44 43.98 95.96
  C 43.98 102.48 49.27 107.77 55.79 107.77
  C 62.31 107.77 67.60 102.48 67.60 95.96
  Z
  M 107.73 95.95
  C 107.73 89.43 102.45 84.15 95.93 84.15
  C 89.41 84.15 84.13 89.43 84.13 95.95
  C 84.13 102.47 89.41 107.75 95.93 107.75
  C 102.45 107.75 107.73 102.47 107.73 95.95
  Z
  M 147.89 95.96
  C 147.89 89.44 142.60 84.15 136.08 84.15
  C 129.56 84.15 124.27 89.44 124.27 95.96
  C 124.27 102.48 129.56 107.77 136.08 107.77
  C 142.60 107.77 147.89 102.48 147.89 95.96
  Z
  M 67.59 136.10
  C 67.59 129.58 62.30 124.29 55.78 124.29
  C 49.26 124.29 43.97 129.58 43.97 136.10
  C 43.97 142.62 49.26 147.91 55.78 147.91
  C 62.30 147.91 67.59 142.62 67.59 136.10
  Z
  M 107.73 136.10
  C 107.73 129.58 102.45 124.30 95.93 124.30
  C 89.41 124.30 84.13 129.58 84.13 136.10
  C 84.13 142.62 89.41 147.90 95.93 147.90
  C 102.45 147.90 107.73 142.62 107.73 136.10
  Z
  M 147.87 136.10
  C 147.87 129.58 142.58 124.29 136.06 124.29
  C 129.54 124.29 124.25 129.58 124.25 136.10
  C 124.25 142.62 129.54 147.91 136.06 147.91
  C 142.58 147.91 147.87 142.62 147.87 136.10
  Z"
/>
<circle fill="#ffffff" cx="55.78" cy="55.95" r="11.82"/>
<circle fill="#ffffff" cx="95.93" cy="55.95" r="11.80"/>
<circle fill="#ffffff" cx="136.08" cy="55.95" r="11.82"/>
<circle fill="#ffffff" cx="55.79" cy="95.96" r="11.81"/>
<circle fill="#ffffff" cx="95.93" cy="95.95" r="11.80"/>
<circle fill="#ffffff" cx="136.08" cy="95.96" r="11.81"/>
<circle fill="#ffffff" cx="55.78" cy="136.10" r="11.81"/>
<circle fill="#ffffff" cx="95.93" cy="136.10" r="11.80"/>
<circle fill="#ffffff" cx="136.06" cy="136.10" r="11.81"/>
</svg>
