<?xml version="1.0" encoding="UTF-8" standalone="no"?>
<!DOCTYPE svg PUBLIC "-//W3C//DTD SVG 1.1//EN" "http://www.w3.org/Graphics/SVG/1.1/DTD/svg11.dtd">
<svg xmlns="http://www.w3.org/2000/svg" version="1.1" viewBox="0 0 16 16">
<path stroke="#6a736a" stroke-width="2.0" fill="none" stroke-linecap="butt" vector-effect="non-scaling-stroke" d="
  M 0.7561 0.3256
  C 0.64 0.21 0.46 0.21 0.3460 0.3242
  L 0.3176 0.3523
  C 0.20 0.47 0.20 0.65 0.3161 0.7625
  L 15.1839 15.7344
  C 15.30 15.85 15.48 15.85 15.5940 15.7358
  L 15.6224 15.7077
  C 15.74 15.59 15.74 15.41 15.6239 15.2975
  L 0.7561 0.3256"
/>
<path fill="#000000" d="
  M 0.00 0.00
  Q 8.00 0.00 16.00 0.00
  Q 16.00 8.00 16.00 16.00
  Q 8.00 16.00 0.00 16.00
  Q 0.00 8.00 0.00 0.00
  Z
  M 0.7561 0.3256
  C 0.64 0.21 0.46 0.21 0.3460 0.3242
  L 0.3176 0.3523
  C 0.20 0.47 0.20 0.65 0.3161 0.7625
  L 15.1839 15.7344
  C 15.30 15.85 15.48 15.85 15.5940 15.7358
  L 15.6224 15.7077
  C 15.74 15.59 15.74 15.41 15.6239 15.2975
  L 0.7561 0.3256
  Z"
/>
<rect fill="#d4e5d3" x="-0.31" y="-10.84" transform="translate(7.97,8.03) rotate(-44.8)" width="0.62" height="21.68" rx="0.29"/>
</svg>
