<?xml version="1.0" encoding="UTF-8" standalone="no"?>
<!DOCTYPE svg PUBLIC "-//W3C//DTD SVG 1.1//EN" "http://www.w3.org/Graphics/SVG/1.1/DTD/svg11.dtd">
<svg xmlns="http://www.w3.org/2000/svg" version="1.1" viewBox="0 0 32 32">
<path stroke="#ee8a9e" stroke-width="2.00" fill="none" stroke-linecap="butt" vector-effect="non-scaling-stroke" d="
  M 16.43 9.94
  L 18.89 2.71
  A 0.89 0.83 -79.8 0 0 18.14 1.54
  L 12.55 1.50
  A 1.13 1.11 -83.0 0 0 11.47 2.36
  L 8.10 16.40
  A 0.92 0.91 89.1 0 0 9.23 17.50
  L 15.46 15.76
  A 0.50 0.50 -1.5 0 1 16.09 16.35
  Q 14.63 22.78 12.96 28.78
  C 12.28 31.21 13.80 31.44 14.76 29.46
  Q 19.27 20.17 23.51 10.74
  Q 24.47 8.59 22.06 9.15
  L 16.80 10.37
  Q 16.24 10.50 16.43 9.94"
/>
<path fill="#040102" fill-opacity="0.004" d="
  M 0.00 0.00
  L 5.06 0.00
  Q 0.42 -0.07 0.00 4.44
  L 0.00 0.00
  Z"
/>
<path fill="#dc143c" d="
  M 5.06 0.00
  L 27.31 0.00
  Q 31.85 0.04 32.00 4.56
  L 32.00 27.56
  Q 31.70 31.78 27.44 32.00
  L 4.94 32.00
  Q 0.09 31.98 0.00 27.19
  L 0.00 4.44
  Q 0.42 -0.07 5.06 0.00
  Z
  M 16.43 9.94
  L 18.89 2.71
  A 0.89 0.83 -79.8 0 0 18.14 1.54
  L 12.55 1.50
  A 1.13 1.11 -83.0 0 0 11.47 2.36
  L 8.10 16.40
  A 0.92 0.91 89.1 0 0 9.23 17.50
  L 15.46 15.76
  A 0.50 0.50 -1.5 0 1 16.09 16.35
  Q 14.63 22.78 12.96 28.78
  C 12.28 31.21 13.80 31.44 14.76 29.46
  Q 19.27 20.17 23.51 10.74
  Q 24.47 8.59 22.06 9.15
  L 16.80 10.37
  Q 16.24 10.50 16.43 9.94
  Z"
/>
<path fill="#040102" fill-opacity="0.004" d="
  M 27.31 0.00
  L 32.00 0.00
  L 32.00 4.56
  Q 31.85 0.04 27.31 0.00
  Z"
/>
<path fill="#ffffff" d="
  M 16.80 10.37
  L 22.06 9.15
  Q 24.47 8.59 23.51 10.74
  Q 19.27 20.17 14.76 29.46
  C 13.80 31.44 12.28 31.21 12.96 28.78
  Q 14.63 22.78 16.09 16.35
  A 0.50 0.50 -1.5 0 0 15.46 15.76
  L 9.23 17.50
  A 0.92 0.91 89.1 0 1 8.10 16.40
  L 11.47 2.36
  A 1.13 1.11 -83.0 0 1 12.55 1.50
  L 18.14 1.54
  A 0.89 0.83 -79.8 0 1 18.89 2.71
  L 16.43 9.94
  Q 16.24 10.50 16.80 10.37
  Z"
/>
<path fill="#040102" fill-opacity="0.004" d="
  M 0.00 27.19
  Q 0.09 31.98 4.94 32.00
  L 0.00 32.00
  L 0.00 27.19
  Z"
/>
<path fill="#040102" fill-opacity="0.004" d="
  M 32.00 27.56
  L 32.00 32.00
  L 27.44 32.00
  Q 31.70 31.78 32.00 27.56
  Z"
/>
</svg>
