<?xml version="1.0" encoding="UTF-8" standalone="no"?>
<!DOCTYPE svg PUBLIC "-//W3C//DTD SVG 1.1//EN" "http://www.w3.org/Graphics/SVG/1.1/DTD/svg11.dtd">
<svg xmlns="http://www.w3.org/2000/svg" version="1.1" viewBox="0 0 180 180">
<g stroke-width="2.0" fill="none" stroke-linecap="butt">
<path stroke="#9ae9c5" vector-effect="non-scaling-stroke" d="
  M 70.83 35.75
  L 66.62 28.11
  C 66.47 27.83 66.17 27.66 65.85 27.68
  L 49.35 28.72
  C 49.01 28.74 48.75 29.03 48.75 29.37
  L 48.93 153.06
  C 48.93 153.34 49.16 153.57 49.44 153.58
  L 73.22 153.74
  C 73.65 153.74 74.00 153.39 73.99 152.97
  L 73.72 123.10
  Q 73.71 121.38 75.01 122.48
  Q 80.13 126.85 85.75 128.50
  Q 93.47 130.77 103.73 129.11
  Q 112.08 127.76 118.50 123.01
  Q 124.25 118.75 128.17 110.97
  Q 132.36 102.68 133.70 93.24
  Q 136.15 76.01 133.51 58.80
  Q 131.82 47.79 126.94 40.06
  Q 123.26 34.24 117.08 30.83
  Q 111.85 27.95 104.54 26.88
  Q 86.39 24.22 71.46 35.87
  C 71.26 36.03 70.96 35.98 70.83 35.75"
/>
<path stroke="#9ae9c5" vector-effect="non-scaling-stroke" d="
  M 77.69 104.06
  Q 82.78 108.07 88.52 108.57
  Q 92.85 108.94 96.45 107.96
  Q 100.62 106.82 103.31 103.31
  Q 105.83 100.03 106.99 95.79
  Q 107.67 93.30 108.36 87.66
  Q 109.92 74.91 107.38 62.35
  Q 106.40 57.52 104.68 55.01
  Q 102.23 51.44 98.19 50.08
  Q 93.47 48.49 87.24 49.41
  Q 79.56 50.54 74.41 56.95
  C 74.13 57.29 73.98 57.73 73.99 58.17
  Q 74.50 77.50 73.92 96.50
  Q 73.79 100.99 77.69 104.06"
/>
</g>
<path fill="#34d28b" d="
  M 18.06 0.00
  Q 90.19 0.00 162.31 0.00
  Q 178.07 2.27 180.00 18.06
  Q 180.00 90.06 180.00 162.06
  Q 177.95 177.86 162.19 180.00
  Q 90.06 180.00 17.94 180.00
  Q 2.00 177.91 0.00 161.94
  Q 0.00 89.81 0.00 17.69
  Q 2.24 1.97 18.06 0.00
  Z
  M 70.83 35.75
  L 66.62 28.11
  C 66.47 27.83 66.17 27.66 65.85 27.68
  L 49.35 28.72
  C 49.01 28.74 48.75 29.03 48.75 29.37
  L 48.93 153.06
  C 48.93 153.34 49.16 153.57 49.44 153.58
  L 73.22 153.74
  C 73.65 153.74 74.00 153.39 73.99 152.97
  L 73.72 123.10
  Q 73.71 121.38 75.01 122.48
  Q 80.13 126.85 85.75 128.50
  Q 93.47 130.77 103.73 129.11
  Q 112.08 127.76 118.50 123.01
  Q 124.25 118.75 128.17 110.97
  Q 132.36 102.68 133.70 93.24
  Q 136.15 76.01 133.51 58.80
  Q 131.82 47.79 126.94 40.06
  Q 123.26 34.24 117.08 30.83
  Q 111.85 27.95 104.54 26.88
  Q 86.39 24.22 71.46 35.87
  C 71.26 36.03 70.96 35.98 70.83 35.75
  Z"
/>
<path fill="#ffffff" d="
  M 71.46 35.87
  Q 86.39 24.22 104.54 26.88
  Q 111.85 27.95 117.08 30.83
  Q 123.26 34.24 126.94 40.06
  Q 131.82 47.79 133.51 58.80
  Q 136.15 76.01 133.70 93.24
  Q 132.36 102.68 128.17 110.97
  Q 124.25 118.75 118.50 123.01
  Q 112.08 127.76 103.73 129.11
  Q 93.47 130.77 85.75 128.50
  Q 80.13 126.85 75.01 122.48
  Q 73.71 121.38 73.72 123.10
  L 73.99 152.97
  C 74.00 153.39 73.65 153.74 73.22 153.74
  L 49.44 153.58
  C 49.16 153.57 48.93 153.34 48.93 153.06
  L 48.75 29.37
  C 48.75 29.03 49.01 28.74 49.35 28.72
  L 65.85 27.68
  C 66.17 27.66 66.47 27.83 66.62 28.11
  L 70.83 35.75
  C 70.96 35.98 71.26 36.03 71.46 35.87
  Z
  M 77.69 104.06
  Q 82.78 108.07 88.52 108.57
  Q 92.85 108.94 96.45 107.96
  Q 100.62 106.82 103.31 103.31
  Q 105.83 100.03 106.99 95.79
  Q 107.67 93.30 108.36 87.66
  Q 109.92 74.91 107.38 62.35
  Q 106.40 57.52 104.68 55.01
  Q 102.23 51.44 98.19 50.08
  Q 93.47 48.49 87.24 49.41
  Q 79.56 50.54 74.41 56.95
  C 74.13 57.29 73.98 57.73 73.99 58.17
  Q 74.50 77.50 73.92 96.50
  Q 73.79 100.99 77.69 104.06
  Z"
/>
<path fill="#34d28b" d="
  M 77.69 104.06
  Q 73.79 100.99 73.92 96.50
  Q 74.50 77.50 73.99 58.17
  C 73.98 57.73 74.13 57.29 74.41 56.95
  Q 79.56 50.54 87.24 49.41
  Q 93.47 48.49 98.19 50.08
  Q 102.23 51.44 104.68 55.01
  Q 106.40 57.52 107.38 62.35
  Q 109.92 74.91 108.36 87.66
  Q 107.67 93.30 106.99 95.79
  Q 105.83 100.03 103.31 103.31
  Q 100.62 106.82 96.45 107.96
  Q 92.85 108.94 88.52 108.57
  Q 82.78 108.07 77.69 104.06
  Z"
/>
</svg>
