<?xml version="1.0" encoding="UTF-8" standalone="no"?>
<!DOCTYPE svg PUBLIC "-//W3C//DTD SVG 1.1//EN" "http://www.w3.org/Graphics/SVG/1.1/DTD/svg11.dtd">
<svg xmlns="http://www.w3.org/2000/svg" version="1.1" viewBox="0 0 180 180">
<g stroke-width="2.0" fill="none" stroke-linecap="butt">
<path stroke="#a6d4a6" vector-effect="non-scaling-stroke" d="
  M 119.71 84.41
  L 91.16 124.68
  Q 90.75 125.25 91.45 125.25
  L 108.79 125.25
  C 109.25 125.25 109.68 125.03 109.94 124.66
  L 130.85 95.97
  C 131.15 95.56 131.75 95.56 132.05 95.97
  L 152.99 124.83
  C 153.18 125.09 153.48 125.25 153.79 125.25
  L 171.38 125.25
  Q 172.25 125.25 171.75 124.54
  L 143.25 84.45
  C 143.02 84.12 143.02 83.69 143.24 83.35
  L 168.38 45.68
  Q 168.84 45.00 168.01 45.00
  L 150.87 45.00
  C 150.38 45.00 149.91 45.25 149.64 45.66
  Q 141.56 57.78 133.84 69.36
  Q 133.71 69.56 132.80 71.20
  Q 131.50 73.54 130.22 71.27
  Q 129.34 69.72 129.30 69.66
  Q 121.57 57.90 113.20 45.59
  C 112.94 45.22 112.52 45.00 112.08 45.00
  L 94.68 45.00
  Q 94.00 45.00 94.38 45.57
  L 119.73 83.59
  C 119.89 83.84 119.88 84.16 119.71 84.41"
/>
<path stroke="#a6d4a6" vector-effect="non-scaling-stroke" d="
  M 38.31 125.57
  Q 47.89 125.60 57.46 125.42
  Q 67.34 125.24 72.39 123.70
  Q 79.99 121.38 85.81 116.31
  Q 99.08 104.74 99.99 87.65
  Q 100.44 79.19 97.76 71.58
  Q 94.93 63.53 89.12 57.43
  Q 82.21 50.18 72.31 47.03
  Q 58.51 42.65 45.33 48.91
  Q 37.39 52.68 31.90 59.19
  Q 26.15 66.01 23.90 74.63
  Q 22.50 80.01 22.49 94.51
  Q 22.47 125.73 22.56 156.95
  C 22.56 157.22 22.79 157.44 23.07 157.45
  L 37.24 157.50
  C 37.52 157.50 37.75 157.27 37.75 156.98
  L 37.81 126.07
  C 37.81 125.79 38.04 125.56 38.31 125.57"
/>
<path stroke="#a6d4a6" vector-effect="non-scaling-stroke" d="
  M 76.04 66.71
  Q 70.22 61.62 63.00 61.25
  Q 48.83 60.53 41.40 72.66
  Q 38.00 78.20 38.04 84.75
  Q 38.11 96.72 37.83 108.69
  C 37.82 108.97 38.03 109.20 38.31 109.22
  Q 44.70 109.55 51.11 109.57
  Q 61.36 109.60 64.38 109.14
  Q 75.91 107.39 81.28 97.64
  Q 85.51 89.99 84.44 81.80
  Q 83.30 73.06 76.04 66.71"
/>
</g>
<path fill="#4ca84c" d="
  M 0.00 0.00
  Q 90.00 0.00 180.00 0.00
  Q 180.00 90.00 180.00 180.00
  Q 90.00 180.00 0.00 180.00
  Q 0.00 90.00 0.00 0.00
  Z
  M 119.71 84.41
  L 91.16 124.68
  Q 90.75 125.25 91.45 125.25
  L 108.79 125.25
  C 109.25 125.25 109.68 125.03 109.94 124.66
  L 130.85 95.97
  C 131.15 95.56 131.75 95.56 132.05 95.97
  L 152.99 124.83
  C 153.18 125.09 153.48 125.25 153.79 125.25
  L 171.38 125.25
  Q 172.25 125.25 171.75 124.54
  L 143.25 84.45
  C 143.02 84.12 143.02 83.69 143.24 83.35
  L 168.38 45.68
  Q 168.84 45.00 168.01 45.00
  L 150.87 45.00
  C 150.38 45.00 149.91 45.25 149.64 45.66
  Q 141.56 57.78 133.84 69.36
  Q 133.71 69.56 132.80 71.20
  Q 131.50 73.54 130.22 71.27
  Q 129.34 69.72 129.30 69.66
  Q 121.57 57.90 113.20 45.59
  C 112.94 45.22 112.52 45.00 112.08 45.00
  L 94.68 45.00
  Q 94.00 45.00 94.38 45.57
  L 119.73 83.59
  C 119.89 83.84 119.88 84.16 119.71 84.41
  Z
  M 38.31 125.57
  Q 47.89 125.60 57.46 125.42
  Q 67.34 125.24 72.39 123.70
  Q 79.99 121.38 85.81 116.31
  Q 99.08 104.74 99.99 87.65
  Q 100.44 79.19 97.76 71.58
  Q 94.93 63.53 89.12 57.43
  Q 82.21 50.18 72.31 47.03
  Q 58.51 42.65 45.33 48.91
  Q 37.39 52.68 31.90 59.19
  Q 26.15 66.01 23.90 74.63
  Q 22.50 80.01 22.49 94.51
  Q 22.47 125.73 22.56 156.95
  C 22.56 157.22 22.79 157.44 23.07 157.45
  L 37.24 157.50
  C 37.52 157.50 37.75 157.27 37.75 156.98
  L 37.81 126.07
  C 37.81 125.79 38.04 125.56 38.31 125.57
  Z"
/>
<path fill="#ffffff" d="
  M 119.73 83.59
  L 94.38 45.57
  Q 94.00 45.00 94.68 45.00
  L 112.08 45.00
  C 112.52 45.00 112.94 45.22 113.20 45.59
  Q 121.57 57.90 129.30 69.66
  Q 129.34 69.72 130.22 71.27
  Q 131.50 73.54 132.80 71.20
  Q 133.71 69.56 133.84 69.36
  Q 141.56 57.78 149.64 45.66
  C 149.91 45.25 150.38 45.00 150.87 45.00
  L 168.01 45.00
  Q 168.84 45.00 168.38 45.68
  L 143.24 83.35
  C 143.02 83.69 143.02 84.12 143.25 84.45
  L 171.75 124.54
  Q 172.25 125.25 171.38 125.25
  L 153.79 125.25
  C 153.48 125.25 153.18 125.09 152.99 124.83
  L 132.05 95.97
  C 131.75 95.56 131.15 95.56 130.85 95.97
  L 109.94 124.66
  C 109.68 125.03 109.25 125.25 108.79 125.25
  L 91.45 125.25
  Q 90.75 125.25 91.16 124.68
  L 119.71 84.41
  C 119.88 84.16 119.89 83.84 119.73 83.59
  Z"
/>
<path fill="#ffffff" d="
  M 37.81 126.07
  L 37.75 156.98
  C 37.75 157.27 37.52 157.50 37.24 157.50
  L 23.07 157.45
  C 22.79 157.44 22.56 157.22 22.56 156.95
  Q 22.47 125.73 22.49 94.51
  Q 22.50 80.01 23.90 74.63
  Q 26.15 66.01 31.90 59.19
  Q 37.39 52.68 45.33 48.91
  Q 58.51 42.65 72.31 47.03
  Q 82.21 50.18 89.12 57.43
  Q 94.93 63.53 97.76 71.58
  Q 100.44 79.19 99.99 87.65
  Q 99.08 104.74 85.81 116.31
  Q 79.99 121.38 72.39 123.70
  Q 67.34 125.24 57.46 125.42
  Q 47.89 125.60 38.31 125.57
  C 38.04 125.56 37.81 125.79 37.81 126.07
  Z
  M 76.04 66.71
  Q 70.22 61.62 63.00 61.25
  Q 48.83 60.53 41.40 72.66
  Q 38.00 78.20 38.04 84.75
  Q 38.11 96.72 37.83 108.69
  C 37.82 108.97 38.03 109.20 38.31 109.22
  Q 44.70 109.55 51.11 109.57
  Q 61.36 109.60 64.38 109.14
  Q 75.91 107.39 81.28 97.64
  Q 85.51 89.99 84.44 81.80
  Q 83.30 73.06 76.04 66.71
  Z"
/>
<path fill="#4ca84c" d="
  M 76.04 66.71
  Q 83.30 73.06 84.44 81.80
  Q 85.51 89.99 81.28 97.64
  Q 75.91 107.39 64.38 109.14
  Q 61.36 109.60 51.11 109.57
  Q 44.70 109.55 38.31 109.22
  C 38.03 109.20 37.82 108.97 37.83 108.69
  Q 38.11 96.72 38.04 84.75
  Q 38.00 78.20 41.40 72.66
  Q 48.83 60.53 63.00 61.25
  Q 70.22 61.62 76.04 66.71
  Z"
/>
</svg>
