<svg xmlns="http://www.w3.org/2000/svg" xmlns:xlink="http://www.w3.org/1999/xlink" viewBox="0 0 402 477.18"><defs><style>.cls-1{fill:none;}.cls-2{fill:#e8e8e8;}.cls-3{fill:#b7b7b7;}.cls-4{fill:#d8d8d8;}.cls-5{fill:#c4c4c4;}.cls-6{clip-path:url(#clip-path);}.cls-7{fill:#2678bc;}.cls-8{font-size:112.29px;fill:#f4f4f4;font-family:ArialRoundedMTBold, Arial Rounded MT Bold;}.cls-10,.cls-11,.cls-12,.cls-13,.cls-16,.cls-17,.cls-18,.cls-19,.cls-20,.cls-9{stroke:#333;stroke-miterlimit:10;}.cls-10,.cls-11,.cls-12,.cls-13,.cls-16,.cls-17,.cls-18,.cls-9{stroke-linecap:square;stroke-width:3px;}.cls-9{fill:url(#名称未設定グラデーション_50);}.cls-10{fill:url(#名称未設定グラデーション_77);}.cls-11{fill:#1a44c6;}.cls-12{fill:#efb920;}.cls-13{fill:#c61e1e;}.cls-14{fill:#f8f9ed;}.cls-15{fill:#333;}.cls-16{fill:url(#名称未設定グラデーション_40);}.cls-17{fill:url(#名称未設定グラデーション_40-2);}.cls-18{fill:url(#名称未設定グラデーション_40-3);}.cls-19,.cls-20{stroke-width:2px;}.cls-19{fill:url(#名称未設定グラデーション_87);}.cls-20{fill:url(#名称未設定グラデーション_87-2);}</style><clipPath id="clip-path" transform="translate(-57 -14.82)"><path class="cls-1" d="M86,15A12,12,0,0,0,74,27V473a12,12,0,0,0,12,12H414a12,12,0,0,0,12-12V111.4L329.6,15Z"/></clipPath><linearGradient id="名称未設定グラデーション_50" x1="116.34" y1="296.27" x2="58.4" y2="238.33" gradientUnits="userSpaceOnUse"><stop offset="0" stop-color="#f5f7d2"/><stop offset="1" stop-color="#a0a082"/></linearGradient><linearGradient id="名称未設定グラデーション_77" x1="157.5" y1="186.88" x2="186.68" y2="186.88" gradientUnits="userSpaceOnUse"><stop offset="0" stop-color="#665c34"/><stop offset="0.74" stop-color="#f9f9e1"/></linearGradient><linearGradient id="名称未設定グラデーション_40" x1="137.5" y1="271.18" x2="160.5" y2="271.18" gradientUnits="userSpaceOnUse"><stop offset="0" stop-color="#303030"/><stop offset="1" stop-color="#6c6c6c"/></linearGradient><linearGradient id="名称未設定グラデーション_40-2" x1="226.5" y1="266.68" x2="248.5" y2="266.68" xlink:href="#名称未設定グラデーション_40"/><linearGradient id="名称未設定グラデーション_40-3" x1="292.5" y1="262.18" x2="311.5" y2="262.18" xlink:href="#名称未設定グラデーション_40"/><linearGradient id="名称未設定グラデーション_87" x1="180.96" y1="113.68" x2="196.52" y2="113.68" gradientUnits="userSpaceOnUse"><stop offset="0" stop-color="#d46a00"/><stop offset="0.48" stop-color="#d42900"/></linearGradient><linearGradient id="名称未設定グラデーション_87-2" x1="162.57" y1="141.51" x2="162.57" y2="57.7" xlink:href="#名称未設定グラデーション_87"/></defs><g id="file"><path class="cls-2" d="M86,15A12,12,0,0,0,74,27V473a12,12,0,0,0,12,12H414a12,12,0,0,0,12-12V111.4L329.6,15Z" transform="translate(-57 -14.82)"/><path class="cls-3" d="M341.42,110.76A11.5,11.5,0,0,1,330,99.22L330.28,16l94.33,95Z" transform="translate(-57 -14.82)"/><path class="cls-3" d="M330.77,17.24l92.64,93.33-82-.31a11,11,0,0,1-10.95-11l.3-82m-1-2.42-.31,84.4a12,12,0,0,0,11.95,12l84.4.32-96-96.76Z" transform="translate(-57 -14.82)"/><polygon class="cls-4" points="282.4 96.39 367.82 164.42 367.5 96.68 282.4 96.39"/><path class="cls-5" d="M329.29,15.75l96,96V473A11.27,11.27,0,0,1,414,484.25H86A11.27,11.27,0,0,1,74.75,473V27A11.27,11.27,0,0,1,86,15.75H329.29m.31-.75H86A12,12,0,0,0,74,27V473a12,12,0,0,0,12,12H414a12,12,0,0,0,12-12V111.4L329.6,15Z" transform="translate(-57 -14.82)"/><g class="cls-6"><rect class="cls-7" y="348.18" width="402" height="129"/></g><text class="cls-8" transform="translate(76.91 451.5)">UML</text></g><g id="plant"><polyline id="側面" class="cls-9" points="102.71 309.9 61.5 243.4 62.44 215.11 103.65 263.07"/><path class="cls-10" d="M157.5,214.5c2-5,3-47,3-53,5-3,20-3,25,0,0,6,2.63,46,5.82,48S157.5,214.5,157.5,214.5Z" transform="translate(-57 -14.82)"/><polygon class="cls-11" points="207.61 209.56 263.22 180.18 320.06 224.09 271.02 256.55 255.88 264.07 207.61 209.56"/><polygon class="cls-12" points="143.92 209.56 199.53 180.18 257.24 224.96 191.69 266.82 143.92 209.56"/><polygon class="cls-13" points="61.5 214.24 117.11 182.05 173.89 223.73 106.02 264.94 61.5 214.24"/><polygon class="cls-14" points="103.74 262.55 173.63 223.52 191.47 265.76 256.69 224 273.17 254.89 319.44 224.63 319.44 261.67 319.9 303.31 103.74 311.62 103.74 262.55"/><path class="cls-15" d="M229.9,240.46l16.49,39.07,1.39,3.27,3-1.91L313.14,241l14.93,28,1.55,2.89,2.74-1.79,42.58-27.84v34.29l.44,40.16-213.14,8.2V278.25l67.66-37.79m1.46-4.25-72.12,40.28V328l219.17-8.43-.47-43.08V236.68l-47.22,30.88-16.47-30.88-65.09,41.68-17.8-42.15Z" transform="translate(-57 -14.82)"/><circle class="cls-16" cx="149" cy="271.18" r="11.5"/><circle class="cls-17" cx="237.5" cy="266.68" r="11"/><circle class="cls-18" cx="302" cy="262.18" r="9.5"/></g><g id="fire"><path class="cls-19" d="M186.42,142.28a.5.5,0,0,1-.83-.54c7.78-20.83-5.31-23.21-4.6-32.5.56-7.32,8-18.94,13.14-24.06a.81.81,0,0,1,1.23,1c-12.36,21.77,1.16,33.7,1.16,40C196.52,131.3,189.71,138.91,186.42,142.28Z" transform="translate(-57 -14.82)"/><path class="cls-20" d="M165.31,140.74a.65.65,0,0,1-1.18.47c-6.48-10.05-22-25.89-16.13-41.21,10-26,23.64-22.2,25.84-38.87.14-1,1.54-4.21,1.94-3.25C185.79,82,164.61,84.94,162,98,159.59,110,163.63,132.39,165.31,140.74Z" transform="translate(-57 -14.82)"/></g></svg>