<?xml version="1.0" encoding="UTF-8" standalone="no"?>
<!DOCTYPE svg PUBLIC "-//W3C//DTD SVG 1.1//EN" "http://www.w3.org/Graphics/SVG/1.1/DTD/svg11.dtd">
<svg xmlns="http://www.w3.org/2000/svg" version="1.1" viewBox="0 0 22 26">
<path fill="#253858" d="
  M 8.84 22.76
  Q 7.55 23.87 8.33 22.35
  Q 9.17 20.71 6.09 21.40
  C 5.43 21.54 4.81 21.05 4.80 20.37
  L 4.75 0.89
  C 4.75 0.56 5.02 0.29 5.35 0.28
  Q 9.97 0.12 14.08 0.35
  Q 17.51 0.54 19.32 2.13
  Q 22.36 4.77 21.22 8.77
  Q 20.56 11.09 17.81 14.08
  Q 13.65 18.61 8.84 22.76
  Z
  M 10.47 5.80
  Q 11.10 7.60 12.20 9.10
  Q 13.58 11.00 15.62 11.01
  Q 18.52 11.04 19.23 7.96
  Q 19.63 6.19 19.09 4.68
  Q 18.40 2.76 16.50 2.25
  Q 12.57 1.21 6.69 1.88
  C 6.40 1.91 6.18 2.15 6.17 2.44
  Q 5.88 9.55 5.99 16.68
  Q 5.99 16.83 5.90 18.30
  Q 5.74 20.78 8.22 19.87
  C 8.50 19.77 8.69 19.50 8.73 19.18
  L 10.24 5.80
  Q 10.30 5.31 10.47 5.80
  Z"
/>
</svg>
