<?xml version="1.0" encoding="UTF-8" standalone="no"?>
<!DOCTYPE svg PUBLIC "-//W3C//DTD SVG 1.1//EN" "http://www.w3.org/Graphics/SVG/1.1/DTD/svg11.dtd">
<svg xmlns="http://www.w3.org/2000/svg" version="1.1" viewBox="0 0 51 51">
<path stroke="#e12112" stroke-width="2.00" fill="none" stroke-linecap="butt" vector-effect="non-scaling-stroke" d="
  M 40.79 11.50
  Q 39.76 11.08 39.67 10.06
  A 1.52 0.48 -87.8 0 0 39.42 9.14
  L 37.36 6.60
  A 1.38 0.82 -6.8 0 0 36.50 6.22
  Q 35.10 6.09 33.96 5.37
  Q 32.22 4.28 31.70 4.10
  Q 23.29 1.19 15.31 5.06
  Q 10.26 7.51 6.56 12.10
  A 1.73 1.33 71.7 0 0 6.25 12.99
  Q 6.20 13.94 5.75 14.71
  Q 4.70 16.47 4.66 16.59
  Q 3.88 18.64 3.33 20.76
  Q 2.97 22.09 3.33 22.87
  Q 3.92 24.13 5.58 23.91
  A 1.08 0.75 -74.3 0 0 6.25 23.36
  Q 6.77 22.37 7.65 23.14
  A 1.29 0.66 -83.0 0 1 7.96 23.99
  Q 7.99 24.55 8.45 24.73
  Q 9.14 25.00 9.30 25.15
  L 19.59 35.21
  Q 19.86 35.48 20.43 35.64
  L 22.50 36.21"
/>
<path fill="#db2219" d="
  M 40.79 11.50
  Q 39.76 11.08 39.67 10.06
  A 1.52 0.48 -87.8 0 0 39.42 9.14
  L 37.36 6.60
  A 1.38 0.82 -6.8 0 0 36.50 6.22
  Q 35.10 6.09 33.96 5.37
  Q 32.22 4.28 31.70 4.10
  Q 23.29 1.19 15.31 5.06
  Q 10.26 7.51 6.56 12.10
  A 1.73 1.33 71.7 0 0 6.25 12.99
  Q 6.20 13.94 5.75 14.71
  Q 4.70 16.47 4.66 16.59
  Q 3.88 18.64 3.33 20.76
  Q 2.97 22.09 3.33 22.87
  Q 3.92 24.13 5.58 23.91
  A 1.08 0.75 -74.3 0 0 6.25 23.36
  Q 6.77 22.37 7.65 23.14
  A 1.29 0.66 -83.0 0 1 7.96 23.99
  Q 7.99 24.55 8.45 24.73
  Q 9.14 25.00 9.30 25.15
  L 19.59 35.21
  Q 19.86 35.48 20.43 35.64
  L 22.50 36.21
  L 24.91 38.64
  A 0.39 0.38 -51.3 0 0 25.51 38.57
  Q 33.79 25.10 45.87 14.16
  A 0.48 0.48 -33.8 0 1 46.63 14.31
  Q 51.16 23.66 47.76 33.12
  Q 43.65 44.54 32.44 48.19
  Q 24.35 50.82 16.06 47.44
  Q 10.51 45.18 6.69 40.47
  Q 3.08 36.04 1.76 30.27
  Q -0.76 19.26 6.75 10.00
  Q 10.89 4.89 17.02 2.67
  Q 22.98 0.51 29.12 1.57
  Q 36.81 2.90 42.98 8.98
  A 0.76 0.74 -39.4 0 1 42.85 10.14
  L 40.79 11.50
  Z"
/>
<path fill="#e61f0a" d="
  M 40.79 11.50
  Q 32.60 17.50 24.17 25.39
  A 1.08 1.07 -49.5 0 1 22.83 25.50
  L 12.90 18.65
  A 0.58 0.56 37.8 0 0 12.14 18.73
  L 9.13 22.17
  A 0.55 0.54 43.0 0 0 9.16 22.91
  L 22.50 36.21
  L 20.43 35.64
  Q 19.86 35.48 19.59 35.21
  L 9.30 25.15
  Q 9.14 25.00 8.45 24.73
  Q 7.99 24.55 7.96 23.99
  A 1.29 0.66 -83.0 0 0 7.65 23.14
  Q 6.77 22.37 6.25 23.36
  A 1.08 0.75 -74.3 0 1 5.58 23.91
  Q 3.92 24.13 3.33 22.87
  Q 2.97 22.09 3.33 20.76
  Q 3.88 18.64 4.66 16.59
  Q 4.70 16.47 5.75 14.71
  Q 6.20 13.94 6.25 12.99
  A 1.73 1.33 71.7 0 1 6.56 12.10
  Q 10.26 7.51 15.31 5.06
  Q 23.29 1.19 31.70 4.10
  Q 32.22 4.28 33.96 5.37
  Q 35.10 6.09 36.50 6.22
  A 1.38 0.82 -6.8 0 1 37.36 6.60
  L 39.42 9.14
  A 1.52 0.48 -87.8 0 1 39.67 10.06
  Q 39.76 11.08 40.79 11.50
  Z"
/>
</svg>
