<?xml version="1.0" encoding="UTF-8" standalone="no"?>
<!DOCTYPE svg PUBLIC "-//W3C//DTD SVG 1.1//EN" "http://www.w3.org/Graphics/SVG/1.1/DTD/svg11.dtd">
<svg xmlns="http://www.w3.org/2000/svg" version="1.1" viewBox="0 0 256 256">
<g stroke-width="2.0" fill="none" stroke-linecap="butt">
<path stroke="#e0d5bb" vector-effect="non-scaling-stroke" d="
  M 239.96 140.00
  L 239.75 182.06
  C 239.75 182.19 239.69 182.30 239.59 182.38
  Q 239.22 182.66 239.37 182.32
  Q 239.44 182.17 239.43 182.03
  Q 238.93 173.50 239.00 182.81
  Q 239.00 183.30 238.92 183.67
  Q 238.51 185.45 238.49 180.59
  C 238.49 180.28 238.17 180.07 237.88 180.20
  Q 233.32 182.30 228.88 185.17
  Q 228.13 185.66 226.97 185.95
  Q 225.94 186.21 225.00 186.70
  C 224.77 186.82 224.51 186.70 224.46 186.46
  L 224.04 184.25"
/>
<path stroke="#a6a193" vector-effect="non-scaling-stroke" d="
  M 224.04 184.25
  L 223.94 32.70
  C 223.94 32.31 223.62 32.00 223.23 32.00
  L 32.37 32.00
  C 32.17 32.00 32.00 32.17 32.00 32.37
  L 32.00 223.31
  C 32.00 223.69 32.31 224.00 32.69 224.00
  L 170.50 224.04"
/>
<path stroke="#e0d5bb" vector-effect="non-scaling-stroke" d="
  M 170.50 224.04
  L 180.59 224.50
  Q 182.08 224.56 180.77 225.24
  Q 176.13 227.63 171.49 229.99
  Q 171.44 230.02 168.39 231.22
  Q 165.76 232.25 164.19 234.84
  C 163.89 235.35 164.12 236.02 164.67 236.23
  Q 168.87 237.85 173.50 237.83
  Q 179.39 237.79 172.65 238.00
  Q 171.57 238.03 172.64 238.13
  L 179.94 238.83
  Q 180.08 238.84 179.94 238.85
  Q 177.01 239.07 174.06 239.07
  Q 173.68 239.07 173.90 239.43
  Q 174.25 240.01 172.75 239.98
  Q 146.87 239.59 121.00 239.96"
/>
<path stroke="#a09a8e" vector-effect="non-scaling-stroke" d="
  M 224.04 184.25
  L 224.00 223.23
  C 224.00 223.62 223.69 223.94 223.30 223.94
  L 170.50 224.04"
/>
<path stroke="#5a5a5b" vector-effect="non-scaling-stroke" d="
  M 53.96 63.75
  Q 53.45 64.68 52.95 64.68
  C 52.70 64.69 52.50 64.82 52.50 64.99
  Q 52.60 103.04 52.50 141.10
  Q 52.50 141.14 52.40 142.91
  Q 52.21 146.31 54.69 149.31
  Q 59.24 154.83 66.00 154.89
  Q 127.12 155.45 188.25 155.26
  Q 194.04 155.24 199.17 152.69
  C 199.82 152.37 200.45 151.66 200.93 150.70
  L 202.97 146.65
  Q 203.26 146.07 203.28 145.74
  Q 203.69 138.68 203.68 131.62
  Q 203.66 119.02 203.68 117.51
  Q 204.21 82.03 203.25 56.25
  Q 203.13 53.15 200.46 54.25"
/>
<path stroke="#4486a6" vector-effect="non-scaling-stroke" d="
  M 200.46 54.25
  Q 198.74 53.01 195.75 53.00
  Q 180.50 52.97 165.25 53.04"
/>
<path stroke="#65a564" vector-effect="non-scaling-stroke" d="
  M 165.25 53.04
  L 128.00 53.04"
/>
<path stroke="#b29e33" vector-effect="non-scaling-stroke" d="
  M 128.00 53.04
  L 91.25 53.04"
/>
<path stroke="#a86343" vector-effect="non-scaling-stroke" d="
  M 91.25 53.04
  Q 75.32 52.80 59.39 53.20
  Q 56.89 53.26 55.80 54.06
  Q 54.12 55.28 54.01 57.74
  Q 53.89 60.74 53.96 63.75"
/>
<path stroke="#f49b10" vector-effect="non-scaling-stroke" d="
  M 91.25 53.04
  L 90.96 67.25"
/>
<path stroke="#e55718" vector-effect="non-scaling-stroke" d="
  M 90.96 67.25
  Q 89.95 64.18 89.30 66.72
  C 89.24 66.93 88.99 67.03 88.78 66.93
  Q 88.54 66.82 88.29 66.80
  Q 87.91 66.75 87.40 67.06
  Q 72.04 76.14 56.43 84.76
  C 56.21 84.89 56.02 85.15 55.91 85.49
  Q 55.72 86.08 55.22 85.85
  C 55.00 85.75 54.87 85.43 54.90 85.07
  Q 54.96 84.10 54.04 84.00"
/>
<path stroke="#9c5737" vector-effect="non-scaling-stroke" d="
  M 54.04 84.00
  L 53.96 63.75"
/>
<path stroke="#974e30" vector-effect="non-scaling-stroke" d="
  M 54.04 84.00
  Q 53.93 127.90 54.00 144.00
  Q 54.01 146.57 55.76 147.88
  Q 56.89 148.73 59.46 148.82
  Q 75.21 149.34 90.96 148.75"
/>
<path stroke="#548839" vector-effect="non-scaling-stroke" d="
  M 128.00 148.71
  L 138.00 148.96"
/>
<path stroke="#538534" vector-effect="non-scaling-stroke" d="
  M 138.00 148.96
  L 165.25 148.96"
/>
<path stroke="#2b6994" vector-effect="non-scaling-stroke" d="
  M 165.25 148.96
  L 175.50 148.96"
/>
<path stroke="#296593" vector-effect="non-scaling-stroke" d="
  M 175.50 148.96
  Q 185.88 149.03 196.25 149.01
  Q 202.27 149.00 202.11 143.00
  Q 202.03 139.87 201.96 136.75"
/>
<path stroke="#2b6994" vector-effect="non-scaling-stroke" d="
  M 201.96 136.75
  L 201.96 114.75"
/>
<path stroke="#317197" vector-effect="non-scaling-stroke" d="
  M 201.96 114.75
  L 201.79 59.75"
/>
<path stroke="#b1dd31" vector-effect="non-scaling-stroke" d="
  M 128.00 53.04
  L 128.04 74.00"
/>
<path stroke="#b0d828" vector-effect="non-scaling-stroke" d="
  M 128.04 74.00
  L 128.04 100.00"
/>
<path stroke="#aed21d" vector-effect="non-scaling-stroke" d="
  M 128.04 100.00
  L 128.04 128.00"
/>
<path stroke="#adce16" vector-effect="non-scaling-stroke" d="
  M 128.04 128.00
  L 128.04 136.00"
/>
<path stroke="#accb11" vector-effect="non-scaling-stroke" d="
  M 128.04 136.00
  L 128.00 148.71"
/>
<path stroke="#a69228" vector-effect="non-scaling-stroke" d="
  M 128.00 148.71
  Q 109.48 149.41 90.96 148.75"
/>
<path stroke="#ef9108" vector-effect="non-scaling-stroke" d="
  M 90.96 148.75
  L 90.96 67.25"
/>
<path stroke="#0e8cdc" vector-effect="non-scaling-stroke" d="
  M 201.96 114.75
  Q 201.30 113.62 201.40 115.44
  C 201.42 115.71 201.23 115.96 200.95 116.03
  Q 199.39 116.39 196.69 117.94
  Q 181.90 126.39 167.19 134.99
  C 166.96 135.12 166.63 135.16 166.27 135.10
  Q 165.68 134.99 165.04 135.25"
/>
<path stroke="#36a87c" vector-effect="non-scaling-stroke" d="
  M 165.04 135.25
  L 164.96 132.00"
/>
<path stroke="#37ab81" vector-effect="non-scaling-stroke" d="
  M 164.96 132.00
  L 164.96 117.50"
/>
<path stroke="#38ad85" vector-effect="non-scaling-stroke" d="
  M 164.96 117.50
  L 164.96 110.50"
/>
<path stroke="#39b18d" vector-effect="non-scaling-stroke" d="
  M 164.96 110.50
  L 164.96 86.75"
/>
<path stroke="#0680d7" vector-effect="non-scaling-stroke" d="
  M 201.96 136.75
  Q 202.15 133.81 200.38 135.28
  Q 199.57 135.95 199.14 136.20
  Q 189.91 141.54 180.75 147.00
  Q 179.61 147.68 177.75 147.74
  Q 177.48 147.75 177.26 147.81
  Q 175.18 148.40 177.35 148.49
  Q 177.82 148.51 177.37 148.59
  L 175.50 148.96"
/>
<path stroke="#30a079" vector-effect="non-scaling-stroke" d="
  M 165.25 148.96
  L 165.04 135.25"
/>
<path stroke="#387a9b" vector-effect="non-scaling-stroke" d="
  M 200.46 54.25
  Q 202.33 56.61 201.79 59.75"
/>
<path stroke="#1b9de3" vector-effect="non-scaling-stroke" d="
  M 201.79 59.75
  L 201.52 64.95
  Q 201.50 65.43 201.21 64.98
  Q 200.93 64.56 200.50 64.29
  C 200.25 64.13 199.91 64.14 199.62 64.31
  L 167.24 83.06
  C 167.01 83.19 166.69 83.23 166.34 83.17
  Q 165.20 82.97 165.51 84.75
  Q 165.61 85.34 165.04 85.25"
/>
<path stroke="#41c09b" vector-effect="non-scaling-stroke" d="
  M 165.04 85.25
  L 164.96 59.75"
/>
<path stroke="#59bf1e" vector-effect="non-scaling-stroke" d="
  M 164.96 132.00
  Q 164.54 124.47 164.50 130.96
  Q 164.50 131.27 164.46 131.54
  Q 164.05 134.15 163.60 132.24
  C 163.54 132.00 163.28 131.87 163.07 131.99
  Q 152.94 137.67 142.93 143.56
  Q 142.85 143.60 139.84 145.12
  Q 138.06 146.01 136.60 147.41
  C 136.36 147.64 136.28 147.96 136.40 148.22
  Q 136.79 149.04 138.00 148.96"
/>
<path stroke="#3bb797" vector-effect="non-scaling-stroke" d="
  M 165.04 85.25
  L 164.96 86.75"
/>
<path stroke="#5fd445" vector-effect="non-scaling-stroke" d="
  M 164.96 86.75
  Q 164.59 85.15 164.56 83.50
  Q 164.51 80.68 164.50 84.50
  Q 164.50 84.87 164.35 84.94
  Q 164.13 85.03 163.83 84.38
  C 163.71 84.13 163.40 84.02 163.16 84.16
  Q 146.81 93.37 130.86 102.89
  Q 129.89 103.46 130.50 103.94
  Q 130.86 104.22 130.44 104.26
  Q 128.37 104.47 128.50 102.25
  Q 128.59 100.64 128.04 100.00"
/>
<path stroke="#5ac427" vector-effect="non-scaling-stroke" d="
  M 164.96 117.50
  Q 164.17 118.58 164.44 120.01
  Q 164.70 121.41 164.06 120.81
  C 163.91 120.67 163.69 120.64 163.52 120.74
  L 130.06 139.95
  C 129.68 140.17 129.20 139.97 129.09 139.55
  Q 128.88 138.72 128.59 138.86
  C 128.47 138.92 128.33 138.87 128.32 138.76
  L 128.04 136.00"
/>
<path stroke="#43c5a4" vector-effect="non-scaling-stroke" d="
  M 165.25 53.04
  L 164.96 59.75"
/>
<path stroke="#63df58" vector-effect="non-scaling-stroke" d="
  M 164.96 59.75
  Q 164.66 55.03 164.52 57.53
  C 164.50 57.88 164.30 58.15 164.05 58.15
  Q 163.73 58.15 163.59 57.74
  C 163.51 57.50 163.26 57.39 163.06 57.49
  Q 141.56 69.47 132.50 75.00
  Q 130.68 76.11 129.19 76.01
  C 128.91 75.99 128.67 76.18 128.65 76.44
  Q 128.49 78.58 128.45 77.24
  Q 128.41 75.60 128.04 74.00"
/>
<path stroke="#5cca33" vector-effect="non-scaling-stroke" d="
  M 164.96 110.50
  Q 164.56 103.97 164.50 109.46
  Q 164.50 109.78 164.40 110.02
  Q 164.06 110.86 163.70 110.20
  C 163.56 109.96 163.27 109.86 163.06 109.99
  L 130.39 128.82
  C 129.98 129.05 129.47 128.94 129.22 128.57
  Q 128.30 127.26 128.04 128.00"
/>
<path stroke="#a6a193" vector-effect="non-scaling-stroke" d="
  M 54.04 184.75
  Q 53.78 193.21 54.25 199.00
  Q 54.38 200.58 56.00 201.29"
/>
<path stroke="#a29d90" vector-effect="non-scaling-stroke" d="
  M 56.00 201.29
  Q 57.87 202.00 60.50 202.00
  Q 74.40 202.01 82.00 201.81
  Q 85.36 201.72 85.75 198.75
  Q 86.31 194.46 85.96 183.50"
/>
<path stroke="#a6a193" vector-effect="non-scaling-stroke" d="
  M 85.96 183.50
  Q 86.48 177.42 85.06 171.54
  C 84.99 171.24 84.76 170.99 84.46 170.90
  Q 81.09 169.78 77.50 170.04"
/>
<path stroke="#aaa496" vector-effect="non-scaling-stroke" d="
  M 77.50 170.04
  Q 69.50 169.97 61.50 169.84
  Q 58.72 169.79 56.27 170.50
  Q 54.29 171.08 54.25 172.98
  L 54.04 184.75"
/>
<path stroke="#eadec3" vector-effect="non-scaling-stroke" d="
  M 77.50 170.04
  Q 78.03 170.41 78.26 171.19
  C 78.34 171.46 78.24 171.76 78.00 171.92
  Q 67.28 179.15 55.13 185.22
  C 54.85 185.36 54.51 185.16 54.50 184.85
  Q 54.47 183.87 54.04 184.75"
/>
<path stroke="#e2d7bd" vector-effect="non-scaling-stroke" d="
  M 85.96 183.50
  Q 85.45 184.34 84.55 184.20
  C 84.18 184.14 83.85 184.18 83.62 184.30
  Q 70.34 191.48 57.46 199.36
  Q 56.92 199.70 56.61 200.20
  Q 56.29 200.74 56.00 201.29"
/>
<path stroke="#a6a093" vector-effect="non-scaling-stroke" d="
  M 143.9187 174.1143
  C 143.91 171.83 142.05 169.98 139.7643 169.9888
  L 116.1044 170.0714
  C 113.82 170.08 111.97 171.94 111.9789 174.2258
  L 112.0613 197.8457
  C 112.07 200.13 113.93 201.98 116.2157 201.9712
  L 139.8756 201.8886
  C 142.16 201.88 144.01 200.02 144.0011 197.7342
  L 143.9187 174.1143"
/>
<path stroke="#a6a193" vector-effect="non-scaling-stroke" d="
  M 170.04 185.50
  Q 169.82 192.13 170.29 198.75
  Q 170.39 200.18 171.50 201.04"
/>
<path stroke="#a29d90" vector-effect="non-scaling-stroke" d="
  M 171.50 201.04
  Q 173.50 201.92 176.75 202.00
  Q 188.26 202.28 198.45 201.59
  Q 202.01 201.35 202.00 197.81
  L 201.96 183.50"
/>
<path stroke="#a6a193" vector-effect="non-scaling-stroke" d="
  M 201.96 183.50
  L 201.69 173.11
  Q 201.65 171.25 199.73 170.56
  Q 197.44 169.73 194.25 170.04"
/>
<path stroke="#aaa496" vector-effect="non-scaling-stroke" d="
  M 194.25 170.04
  Q 184.62 169.97 175.00 170.03
  Q 169.62 170.06 169.80 175.51
  Q 169.97 180.50 170.04 185.50"
/>
<path stroke="#eadec3" vector-effect="non-scaling-stroke" d="
  M 194.25 170.04
  Q 194.04 172.48 191.97 173.53
  Q 190.78 174.14 190.70 174.18
  Q 180.96 180.05 170.99 185.52
  C 170.83 185.61 170.68 185.78 170.56 186.00
  Q 170.26 186.53 170.04 185.50"
/>
<path stroke="#e2d7bd" vector-effect="non-scaling-stroke" d="
  M 201.96 183.50
  Q 201.61 185.00 200.63 184.32
  C 200.37 184.14 200.05 184.11 199.81 184.24
  Q 186.64 191.28 173.91 199.09
  Q 173.45 199.38 172.74 200.10
  Q 172.19 200.67 171.50 201.04"
/>
</g>
<path fill="#e6dbc0" d="
  M 239.96 140.00
  L 239.75 182.06
  C 239.75 182.19 239.69 182.30 239.59 182.38
  Q 239.22 182.66 239.37 182.32
  Q 239.44 182.17 239.43 182.03
  Q 238.93 173.50 239.00 182.81
  Q 239.00 183.30 238.92 183.67
  Q 238.51 185.45 238.49 180.59
  C 238.49 180.28 238.17 180.07 237.88 180.20
  Q 233.32 182.30 228.88 185.17
  Q 228.13 185.66 226.97 185.95
  Q 225.94 186.21 225.00 186.70
  C 224.77 186.82 224.51 186.70 224.46 186.46
  L 224.04 184.25
  L 223.94 32.70
  C 223.94 32.31 223.62 32.00 223.23 32.00
  L 32.37 32.00
  C 32.17 32.00 32.00 32.17 32.00 32.37
  L 32.00 223.31
  C 32.00 223.69 32.31 224.00 32.69 224.00
  L 170.50 224.04
  L 180.59 224.50
  Q 182.08 224.56 180.77 225.24
  Q 176.13 227.63 171.49 229.99
  Q 171.44 230.02 168.39 231.22
  Q 165.76 232.25 164.19 234.84
  C 163.89 235.35 164.12 236.02 164.67 236.23
  Q 168.87 237.85 173.50 237.83
  Q 179.39 237.79 172.65 238.00
  Q 171.57 238.03 172.64 238.13
  L 179.94 238.83
  Q 180.08 238.84 179.94 238.85
  Q 177.01 239.07 174.06 239.07
  Q 173.68 239.07 173.90 239.43
  Q 174.25 240.01 172.75 239.98
  Q 146.87 239.59 121.00 239.96
  Q 74.78 240.03 28.56 240.00
  Q 23.59 240.00 21.21 238.63
  Q 18.36 236.99 16.95 233.93
  Q 16.00 231.86 16.00 227.91
  Q 16.00 128.26 16.00 28.60
  Q 16.00 23.56 17.39 21.16
  Q 18.98 18.40 21.92 16.98
  Q 23.96 16.00 27.75 16.00
  Q 128.07 15.96 228.40 16.06
  Q 232.45 16.06 234.71 17.33
  Q 238.90 19.69 239.80 24.40
  Q 240.00 25.41 240.00 32.61
  Q 240.03 86.30 239.96 140.00
  Z"
/>
<path fill="#666666" d="
  M 224.04 184.25
  L 224.00 223.23
  C 224.00 223.62 223.69 223.94 223.30 223.94
  L 170.50 224.04
  L 32.69 224.00
  C 32.31 224.00 32.00 223.69 32.00 223.31
  L 32.00 32.37
  C 32.00 32.17 32.17 32.00 32.37 32.00
  L 223.23 32.00
  C 223.62 32.00 223.94 32.31 223.94 32.70
  L 224.04 184.25
  Z
  M 53.96 63.75
  Q 53.45 64.68 52.95 64.68
  C 52.70 64.69 52.50 64.82 52.50 64.99
  Q 52.60 103.04 52.50 141.10
  Q 52.50 141.14 52.40 142.91
  Q 52.21 146.31 54.69 149.31
  Q 59.24 154.83 66.00 154.89
  Q 127.12 155.45 188.25 155.26
  Q 194.04 155.24 199.17 152.69
  C 199.82 152.37 200.45 151.66 200.93 150.70
  L 202.97 146.65
  Q 203.26 146.07 203.28 145.74
  Q 203.69 138.68 203.68 131.62
  Q 203.66 119.02 203.68 117.51
  Q 204.21 82.03 203.25 56.25
  Q 203.13 53.15 200.46 54.25
  Q 198.74 53.01 195.75 53.00
  Q 180.50 52.97 165.25 53.04
  L 128.00 53.04
  L 91.25 53.04
  Q 75.32 52.80 59.39 53.20
  Q 56.89 53.26 55.80 54.06
  Q 54.12 55.28 54.01 57.74
  Q 53.89 60.74 53.96 63.75
  Z
  M 54.04 184.75
  Q 53.78 193.21 54.25 199.00
  Q 54.38 200.58 56.00 201.29
  Q 57.87 202.00 60.50 202.00
  Q 74.40 202.01 82.00 201.81
  Q 85.36 201.72 85.75 198.75
  Q 86.31 194.46 85.96 183.50
  Q 86.48 177.42 85.06 171.54
  C 84.99 171.24 84.76 170.99 84.46 170.90
  Q 81.09 169.78 77.50 170.04
  Q 69.50 169.97 61.50 169.84
  Q 58.72 169.79 56.27 170.50
  Q 54.29 171.08 54.25 172.98
  L 54.04 184.75
  Z
  M 143.9187 174.1143
  C 143.91 171.83 142.05 169.98 139.7643 169.9888
  L 116.1044 170.0714
  C 113.82 170.08 111.97 171.94 111.9789 174.2258
  L 112.0613 197.8457
  C 112.07 200.13 113.93 201.98 116.2157 201.9712
  L 139.8756 201.8886
  C 142.16 201.88 144.01 200.02 144.0011 197.7342
  L 143.9187 174.1143
  Z
  M 170.04 185.50
  Q 169.82 192.13 170.29 198.75
  Q 170.39 200.18 171.50 201.04
  Q 173.50 201.92 176.75 202.00
  Q 188.26 202.28 198.45 201.59
  Q 202.01 201.35 202.00 197.81
  L 201.96 183.50
  L 201.69 173.11
  Q 201.65 171.25 199.73 170.56
  Q 197.44 169.73 194.25 170.04
  Q 184.62 169.97 175.00 170.03
  Q 169.62 170.06 169.80 175.51
  Q 169.97 180.50 170.04 185.50
  Z"
/>
<path fill="#e9601f" d="
  M 91.25 53.04
  L 90.96 67.25
  Q 89.95 64.18 89.30 66.72
  C 89.24 66.93 88.99 67.03 88.78 66.93
  Q 88.54 66.82 88.29 66.80
  Q 87.91 66.75 87.40 67.06
  Q 72.04 76.14 56.43 84.76
  C 56.21 84.89 56.02 85.15 55.91 85.49
  Q 55.72 86.08 55.22 85.85
  C 55.00 85.75 54.87 85.43 54.90 85.07
  Q 54.96 84.10 54.04 84.00
  L 53.96 63.75
  Q 53.89 60.74 54.01 57.74
  Q 54.12 55.28 55.80 54.06
  Q 56.89 53.26 59.39 53.20
  Q 75.32 52.80 91.25 53.04
  Z"
/>
<path fill="#fed500" d="
  M 91.25 53.04
  L 128.00 53.04
  L 128.04 74.00
  L 128.04 100.00
  L 128.04 128.00
  L 128.04 136.00
  L 128.00 148.71
  Q 109.48 149.41 90.96 148.75
  L 90.96 67.25
  L 91.25 53.04
  Z"
/>
<path fill="#64e461" d="
  M 128.00 53.04
  L 165.25 53.04
  L 164.96 59.75
  Q 164.66 55.03 164.52 57.53
  C 164.50 57.88 164.30 58.15 164.05 58.15
  Q 163.73 58.15 163.59 57.74
  C 163.51 57.50 163.26 57.39 163.06 57.49
  Q 141.56 69.47 132.50 75.00
  Q 130.68 76.11 129.19 76.01
  C 128.91 75.99 128.67 76.18 128.65 76.44
  Q 128.49 78.58 128.45 77.24
  Q 128.41 75.60 128.04 74.00
  L 128.00 53.04
  Z"
/>
<path fill="#21a5e6" d="
  M 165.25 53.04
  Q 180.50 52.97 195.75 53.00
  Q 198.74 53.01 200.46 54.25
  Q 202.33 56.61 201.79 59.75
  L 201.52 64.95
  Q 201.50 65.43 201.21 64.98
  Q 200.93 64.56 200.50 64.29
  C 200.25 64.13 199.91 64.14 199.62 64.31
  L 167.24 83.06
  C 167.01 83.19 166.69 83.23 166.34 83.17
  Q 165.20 82.97 165.51 84.75
  Q 165.61 85.34 165.04 85.25
  L 164.96 59.75
  L 165.25 53.04
  Z"
/>
<path fill="#4e4e4f" d="
  M 53.96 63.75
  L 54.04 84.00
  Q 53.93 127.90 54.00 144.00
  Q 54.01 146.57 55.76 147.88
  Q 56.89 148.73 59.46 148.82
  Q 75.21 149.34 90.96 148.75
  Q 109.48 149.41 128.00 148.71
  L 138.00 148.96
  L 165.25 148.96
  L 175.50 148.96
  Q 185.88 149.03 196.25 149.01
  Q 202.27 149.00 202.11 143.00
  Q 202.03 139.87 201.96 136.75
  L 201.96 114.75
  L 201.79 59.75
  Q 202.33 56.61 200.46 54.25
  Q 203.13 53.15 203.25 56.25
  Q 204.21 82.03 203.68 117.51
  Q 203.66 119.02 203.68 131.62
  Q 203.69 138.68 203.28 145.74
  Q 203.26 146.07 202.97 146.65
  L 200.93 150.70
  C 200.45 151.66 199.82 152.37 199.17 152.69
  Q 194.04 155.24 188.25 155.26
  Q 127.12 155.45 66.00 154.89
  Q 59.24 154.83 54.69 149.31
  Q 52.21 146.31 52.40 142.91
  Q 52.50 141.14 52.50 141.10
  Q 52.60 103.04 52.50 64.99
  C 52.50 64.82 52.70 64.69 52.95 64.68
  Q 53.45 64.68 53.96 63.75
  Z"
/>
<path fill="#61da4f" d="
  M 164.96 59.75
  L 165.04 85.25
  L 164.96 86.75
  Q 164.59 85.15 164.56 83.50
  Q 164.51 80.68 164.50 84.50
  Q 164.50 84.87 164.35 84.94
  Q 164.13 85.03 163.83 84.38
  C 163.71 84.13 163.40 84.02 163.16 84.16
  Q 146.81 93.37 130.86 102.89
  Q 129.89 103.46 130.50 103.94
  Q 130.86 104.22 130.44 104.26
  Q 128.37 104.47 128.50 102.25
  Q 128.59 100.64 128.04 100.00
  L 128.04 74.00
  Q 128.41 75.60 128.45 77.24
  Q 128.49 78.58 128.65 76.44
  C 128.67 76.18 128.91 75.99 129.19 76.01
  Q 130.68 76.11 132.50 75.00
  Q 141.56 69.47 163.06 57.49
  C 163.26 57.39 163.51 57.50 163.59 57.74
  Q 163.73 58.15 164.05 58.15
  C 164.30 58.15 164.50 57.88 164.52 57.53
  Q 164.66 55.03 164.96 59.75
  Z"
/>
<path fill="#1494df" d="
  M 201.79 59.75
  L 201.96 114.75
  Q 201.30 113.62 201.40 115.44
  C 201.42 115.71 201.23 115.96 200.95 116.03
  Q 199.39 116.39 196.69 117.94
  Q 181.90 126.39 167.19 134.99
  C 166.96 135.12 166.63 135.16 166.27 135.10
  Q 165.68 134.99 165.04 135.25
  L 164.96 132.00
  L 164.96 117.50
  L 164.96 110.50
  L 164.96 86.75
  L 165.04 85.25
  Q 165.61 85.34 165.51 84.75
  Q 165.20 82.97 166.34 83.17
  C 166.69 83.23 167.01 83.19 167.24 83.06
  L 199.62 64.31
  C 199.91 64.14 200.25 64.13 200.50 64.29
  Q 200.93 64.56 201.21 64.98
  Q 201.50 65.43 201.52 64.95
  L 201.79 59.75
  Z"
/>
<path fill="#e04d10" d="
  M 90.96 67.25
  L 90.96 148.75
  Q 75.21 149.34 59.46 148.82
  Q 56.89 148.73 55.76 147.88
  Q 54.01 146.57 54.00 144.00
  Q 53.93 127.90 54.04 84.00
  Q 54.96 84.10 54.90 85.07
  C 54.87 85.43 55.00 85.75 55.22 85.85
  Q 55.72 86.08 55.91 85.49
  C 56.02 85.15 56.21 84.89 56.43 84.76
  Q 72.04 76.14 87.40 67.06
  Q 87.91 66.75 88.29 66.80
  Q 88.54 66.82 88.78 66.93
  C 88.99 67.03 89.24 66.93 89.30 66.72
  Q 89.95 64.18 90.96 67.25
  Z"
/>
<path fill="#5dce3a" d="
  M 164.96 86.75
  L 164.96 110.50
  Q 164.56 103.97 164.50 109.46
  Q 164.50 109.78 164.40 110.02
  Q 164.06 110.86 163.70 110.20
  C 163.56 109.96 163.27 109.86 163.06 109.99
  L 130.39 128.82
  C 129.98 129.05 129.47 128.94 129.22 128.57
  Q 128.30 127.26 128.04 128.00
  L 128.04 100.00
  Q 128.59 100.64 128.50 102.25
  Q 128.37 104.47 130.44 104.26
  Q 130.86 104.22 130.50 103.94
  Q 129.89 103.46 130.86 102.89
  Q 146.81 93.37 163.16 84.16
  C 163.40 84.02 163.71 84.13 163.83 84.38
  Q 164.13 85.03 164.35 84.94
  Q 164.50 84.87 164.50 84.50
  Q 164.51 80.68 164.56 83.50
  Q 164.59 85.15 164.96 86.75
  Z"
/>
<path fill="#5bc62b" d="
  M 164.96 110.50
  L 164.96 117.50
  Q 164.17 118.58 164.44 120.01
  Q 164.70 121.41 164.06 120.81
  C 163.91 120.67 163.69 120.64 163.52 120.74
  L 130.06 139.95
  C 129.68 140.17 129.20 139.97 129.09 139.55
  Q 128.88 138.72 128.59 138.86
  C 128.47 138.92 128.33 138.87 128.32 138.76
  L 128.04 136.00
  L 128.04 128.00
  Q 128.30 127.26 129.22 128.57
  C 129.47 128.94 129.98 129.05 130.39 128.82
  L 163.06 109.99
  C 163.27 109.86 163.56 109.96 163.70 110.20
  Q 164.06 110.86 164.40 110.02
  Q 164.50 109.78 164.50 109.46
  Q 164.56 103.97 164.96 110.50
  Z"
/>
<path fill="#0883d8" d="
  M 201.96 114.75
  L 201.96 136.75
  Q 202.15 133.81 200.38 135.28
  Q 199.57 135.95 199.14 136.20
  Q 189.91 141.54 180.75 147.00
  Q 179.61 147.68 177.75 147.74
  Q 177.48 147.75 177.26 147.81
  Q 175.18 148.40 177.35 148.49
  Q 177.82 148.51 177.37 148.59
  L 175.50 148.96
  L 165.25 148.96
  L 165.04 135.25
  Q 165.68 134.99 166.27 135.10
  C 166.63 135.16 166.96 135.12 167.19 134.99
  Q 181.90 126.39 196.69 117.94
  Q 199.39 116.39 200.95 116.03
  C 201.23 115.96 201.42 115.71 201.40 115.44
  Q 201.30 113.62 201.96 114.75
  Z"
/>
<path fill="#59c122" d="
  M 164.96 117.50
  L 164.96 132.00
  Q 164.54 124.47 164.50 130.96
  Q 164.50 131.27 164.46 131.54
  Q 164.05 134.15 163.60 132.24
  C 163.54 132.00 163.28 131.87 163.07 131.99
  Q 152.94 137.67 142.93 143.56
  Q 142.85 143.60 139.84 145.12
  Q 138.06 146.01 136.60 147.41
  C 136.36 147.64 136.28 147.96 136.40 148.22
  Q 136.79 149.04 138.00 148.96
  L 128.00 148.71
  L 128.04 136.00
  L 128.32 138.76
  C 128.33 138.87 128.47 138.92 128.59 138.86
  Q 128.88 138.72 129.09 139.55
  C 129.20 139.97 129.68 140.17 130.06 139.95
  L 163.52 120.74
  C 163.69 120.64 163.91 120.67 164.06 120.81
  Q 164.70 121.41 164.44 120.01
  Q 164.17 118.58 164.96 117.50
  Z"
/>
<path fill="#58bc19" d="
  M 164.96 132.00
  L 165.04 135.25
  L 165.25 148.96
  L 138.00 148.96
  Q 136.79 149.04 136.40 148.22
  C 136.28 147.96 136.36 147.64 136.60 147.41
  Q 138.06 146.01 139.84 145.12
  Q 142.85 143.60 142.93 143.56
  Q 152.94 137.67 163.07 131.99
  C 163.28 131.87 163.54 132.00 163.60 132.24
  Q 164.05 134.15 164.46 131.54
  Q 164.50 131.27 164.50 130.96
  Q 164.54 124.47 164.96 132.00
  Z"
/>
<path fill="#037cd6" d="
  M 201.96 136.75
  Q 202.03 139.87 202.11 143.00
  Q 202.27 149.00 196.25 149.01
  Q 185.88 149.03 175.50 148.96
  L 177.37 148.59
  Q 177.82 148.51 177.35 148.49
  Q 175.18 148.40 177.26 147.81
  Q 177.48 147.75 177.75 147.74
  Q 179.61 147.68 180.75 147.00
  Q 189.91 141.54 199.14 136.20
  Q 199.57 135.95 200.38 135.28
  Q 202.15 133.81 201.96 136.75
  Z"
/>
<path fill="#d9ceb5" d="
  M 239.96 140.00
  Q 240.07 184.21 239.95 228.42
  Q 239.94 232.43 238.66 234.69
  Q 236.23 238.98 231.42 239.85
  Q 230.60 240.00 223.05 240.00
  Q 172.02 240.03 121.00 239.96
  Q 146.87 239.59 172.75 239.98
  Q 174.25 240.01 173.90 239.43
  Q 173.68 239.07 174.06 239.07
  Q 177.01 239.07 179.94 238.85
  Q 180.08 238.84 179.94 238.83
  L 172.64 238.13
  Q 171.57 238.03 172.65 238.00
  Q 179.39 237.79 173.50 237.83
  Q 168.87 237.85 164.67 236.23
  C 164.12 236.02 163.89 235.35 164.19 234.84
  Q 165.76 232.25 168.39 231.22
  Q 171.44 230.02 171.49 229.99
  Q 176.13 227.63 180.77 225.24
  Q 182.08 224.56 180.59 224.50
  L 170.50 224.04
  L 223.30 223.94
  C 223.69 223.94 224.00 223.62 224.00 223.23
  L 224.04 184.25
  L 224.46 186.46
  C 224.51 186.70 224.77 186.82 225.00 186.70
  Q 225.94 186.21 226.97 185.95
  Q 228.13 185.66 228.88 185.17
  Q 233.32 182.30 237.88 180.20
  C 238.17 180.07 238.49 180.28 238.49 180.59
  Q 238.51 185.45 238.92 183.67
  Q 239.00 183.30 239.00 182.81
  Q 238.93 173.50 239.43 182.03
  Q 239.44 182.17 239.37 182.32
  Q 239.22 182.66 239.59 182.38
  C 239.69 182.30 239.75 182.19 239.75 182.06
  L 239.96 140.00
  Z"
/>
<path fill="#ede1c6" d="
  M 77.50 170.04
  Q 78.03 170.41 78.26 171.19
  C 78.34 171.46 78.24 171.76 78.00 171.92
  Q 67.28 179.15 55.13 185.22
  C 54.85 185.36 54.51 185.16 54.50 184.85
  Q 54.47 183.87 54.04 184.75
  L 54.25 172.98
  Q 54.29 171.08 56.27 170.50
  Q 58.72 169.79 61.50 169.84
  Q 69.50 169.97 77.50 170.04
  Z"
/>
<path fill="#e6dbc0" d="
  M 77.50 170.04
  Q 81.09 169.78 84.46 170.90
  C 84.76 170.99 84.99 171.24 85.06 171.54
  Q 86.48 177.42 85.96 183.50
  Q 85.45 184.34 84.55 184.20
  C 84.18 184.14 83.85 184.18 83.62 184.30
  Q 70.34 191.48 57.46 199.36
  Q 56.92 199.70 56.61 200.20
  Q 56.29 200.74 56.00 201.29
  Q 54.38 200.58 54.25 199.00
  Q 53.78 193.21 54.04 184.75
  Q 54.47 183.87 54.50 184.85
  C 54.51 185.16 54.85 185.36 55.13 185.22
  Q 67.28 179.15 78.00 171.92
  C 78.24 171.76 78.34 171.46 78.26 171.19
  Q 78.03 170.41 77.50 170.04
  Z"
/>
<rect fill="#e5d9bf" x="-15.97" y="-15.95" transform="translate(127.99,185.98) rotate(-0.2)" width="31.94" height="31.90" rx="4.14"/>
<path fill="#ede1c6" d="
  M 194.25 170.04
  Q 194.04 172.48 191.97 173.53
  Q 190.78 174.14 190.70 174.18
  Q 180.96 180.05 170.99 185.52
  C 170.83 185.61 170.68 185.78 170.56 186.00
  Q 170.26 186.53 170.04 185.50
  Q 169.97 180.50 169.80 175.51
  Q 169.62 170.06 175.00 170.03
  Q 184.62 169.97 194.25 170.04
  Z"
/>
<path fill="#e6dbc0" d="
  M 194.25 170.04
  Q 197.44 169.73 199.73 170.56
  Q 201.65 171.25 201.69 173.11
  L 201.96 183.50
  Q 201.61 185.00 200.63 184.32
  C 200.37 184.14 200.05 184.11 199.81 184.24
  Q 186.64 191.28 173.91 199.09
  Q 173.45 199.38 172.74 200.10
  Q 172.19 200.67 171.50 201.04
  Q 170.39 200.18 170.29 198.75
  Q 169.82 192.13 170.04 185.50
  Q 170.26 186.53 170.56 186.00
  C 170.68 185.78 170.83 185.61 170.99 185.52
  Q 180.96 180.05 190.70 174.18
  Q 190.78 174.14 191.97 173.53
  Q 194.04 172.48 194.25 170.04
  Z"
/>
<path fill="#ded3b9" d="
  M 85.96 183.50
  Q 86.31 194.46 85.75 198.75
  Q 85.36 201.72 82.00 201.81
  Q 74.40 202.01 60.50 202.00
  Q 57.87 202.00 56.00 201.29
  Q 56.29 200.74 56.61 200.20
  Q 56.92 199.70 57.46 199.36
  Q 70.34 191.48 83.62 184.30
  C 83.85 184.18 84.18 184.14 84.55 184.20
  Q 85.45 184.34 85.96 183.50
  Z"
/>
<path fill="#ded3b9" d="
  M 201.96 183.50
  L 202.00 197.81
  Q 202.01 201.35 198.45 201.59
  Q 188.26 202.28 176.75 202.00
  Q 173.50 201.92 171.50 201.04
  Q 172.19 200.67 172.74 200.10
  Q 173.45 199.38 173.91 199.09
  Q 186.64 191.28 199.81 184.24
  C 200.05 184.11 200.37 184.14 200.63 184.32
  Q 201.61 185.00 201.96 183.50
  Z"
/>
</svg>
