<?xml version="1.0" encoding="UTF-8" standalone="no"?>
<!DOCTYPE svg PUBLIC "-//W3C//DTD SVG 1.1//EN" "http://www.w3.org/Graphics/SVG/1.1/DTD/svg11.dtd">
<svg xmlns="http://www.w3.org/2000/svg" version="1.1" viewBox="0 0 128 128">
<g stroke-width="2.0" fill="none" stroke-linecap="butt">
<path stroke="#f5b683" vector-effect="non-scaling-stroke" d="
  M 73.19 62.46
  L 69.30 62.49
  C 68.72 62.50 68.19 62.70 67.82 63.07
  L 56.65 74.33
  Q 56.28 74.71 56.82 74.71
  L 74.75 74.71
  C 75.34 74.71 75.92 74.46 76.37 74.01
  L 87.39 62.99
  C 87.62 62.76 87.75 62.44 87.75 62.11
  L 87.75 48.82
  C 87.75 48.37 87.57 47.93 87.24 47.60
  L 74.32 34.43
  C 74.01 34.11 73.58 33.93 73.15 33.93
  L 55.07 34.06
  C 54.79 34.06 54.56 34.28 54.54 34.57
  Q 54.31 38.66 52.05 42.92
  C 51.90 43.20 51.94 43.55 52.15 43.76
  L 56.39 48.16
  C 56.59 48.38 56.91 48.50 57.25 48.49
  L 72.91 48.24
  C 73.37 48.23 73.75 48.60 73.75 49.06
  L 73.70 61.93
  C 73.69 62.22 73.47 62.46 73.19 62.46"
/>
<path stroke="#f5b683" vector-effect="non-scaling-stroke" d="
  M 40.88 81.81
  L 54.00 93.53
  Q 54.50 93.97 54.50 93.30
  L 54.50 49.50
  C 54.50 49.16 54.38 48.85 54.17 48.63
  L 50.79 45.19
  C 50.59 44.98 50.25 44.97 50.01 45.16
  Q 46.02 48.50 40.77 49.05
  C 40.48 49.08 40.25 49.33 40.25 49.62
  L 40.25 80.37
  C 40.25 80.93 40.48 81.45 40.88 81.81"
/>
</g>
<path fill="#ea6c06" d="
  M 0.00 0.00
  Q 64.00 0.00 128.00 0.00
  Q 128.00 64.00 128.00 128.00
  Q 64.00 128.00 0.00 128.00
  Q 0.00 64.00 0.00 0.00
  Z
  M 73.19 62.46
  L 69.30 62.49
  C 68.72 62.50 68.19 62.70 67.82 63.07
  L 56.65 74.33
  Q 56.28 74.71 56.82 74.71
  L 74.75 74.71
  C 75.34 74.71 75.92 74.46 76.37 74.01
  L 87.39 62.99
  C 87.62 62.76 87.75 62.44 87.75 62.11
  L 87.75 48.82
  C 87.75 48.37 87.57 47.93 87.24 47.60
  L 74.32 34.43
  C 74.01 34.11 73.58 33.93 73.15 33.93
  L 55.07 34.06
  C 54.79 34.06 54.56 34.28 54.54 34.57
  Q 54.31 38.66 52.05 42.92
  C 51.90 43.20 51.94 43.55 52.15 43.76
  L 56.39 48.16
  C 56.59 48.38 56.91 48.50 57.25 48.49
  L 72.91 48.24
  C 73.37 48.23 73.75 48.60 73.75 49.06
  L 73.70 61.93
  C 73.69 62.22 73.47 62.46 73.19 62.46
  Z
  M 40.88 81.81
  L 54.00 93.53
  Q 54.50 93.97 54.50 93.30
  L 54.50 49.50
  C 54.50 49.16 54.38 48.85 54.17 48.63
  L 50.79 45.19
  C 50.59 44.98 50.25 44.97 50.01 45.16
  Q 46.02 48.50 40.77 49.05
  C 40.48 49.08 40.25 49.33 40.25 49.62
  L 40.25 80.37
  C 40.25 80.93 40.48 81.45 40.88 81.81
  Z"
/>
<path fill="#ffffff" d="
  M 73.70 61.93
  L 73.75 49.06
  C 73.75 48.60 73.37 48.23 72.91 48.24
  L 57.25 48.49
  C 56.91 48.50 56.59 48.38 56.39 48.16
  L 52.15 43.76
  C 51.94 43.55 51.90 43.20 52.05 42.92
  Q 54.31 38.66 54.54 34.57
  C 54.56 34.28 54.79 34.06 55.07 34.06
  L 73.15 33.93
  C 73.58 33.93 74.01 34.11 74.32 34.43
  L 87.24 47.60
  C 87.57 47.93 87.75 48.37 87.75 48.82
  L 87.75 62.11
  C 87.75 62.44 87.62 62.76 87.39 62.99
  L 76.37 74.01
  C 75.92 74.46 75.34 74.71 74.75 74.71
  L 56.82 74.71
  Q 56.28 74.71 56.65 74.33
  L 67.82 63.07
  C 68.19 62.70 68.72 62.50 69.30 62.49
  L 73.19 62.46
  C 73.47 62.46 73.69 62.22 73.70 61.93
  Z"
/>
<path fill="#ffffff" d="
  M 40.88 81.81
  C 40.48 81.45 40.25 80.93 40.25 80.37
  L 40.25 49.62
  C 40.25 49.33 40.48 49.08 40.77 49.05
  Q 46.02 48.50 50.01 45.16
  C 50.25 44.97 50.59 44.98 50.79 45.19
  L 54.17 48.63
  C 54.38 48.85 54.50 49.16 54.50 49.50
  L 54.50 93.30
  Q 54.50 93.97 54.00 93.53
  L 40.88 81.81
  Z"
/>
</svg>
