<?xml version="1.0" encoding="UTF-8" standalone="no"?>
<!DOCTYPE svg PUBLIC "-//W3C//DTD SVG 1.1//EN" "http://www.w3.org/Graphics/SVG/1.1/DTD/svg11.dtd">
<svg xmlns="http://www.w3.org/2000/svg" version="1.1" viewBox="0 0 128 128">
<path fill="#027de3" d="
  M 57.07 77.80
  Q 49.00 67.01 40.79 56.32
  Q 39.32 54.41 37.38 53.68
  Q 28.24 50.23 23.68 57.28
  Q 20.65 61.96 21.89 66.79
  Q 23.26 72.12 29.25 74.75
  Q 31.76 75.85 34.09 75.69
  Q 35.87 75.56 38.44 73.88
  Q 42.15 71.45 45.96 68.97
  C 46.24 68.79 46.60 68.85 46.79 69.11
  L 53.76 78.51
  C 53.98 78.81 53.93 79.24 53.64 79.48
  Q 49.45 82.97 44.64 85.50
  Q 39.55 88.17 34.42 88.50
  Q 21.61 89.34 13.66 79.78
  Q 9.80 75.15 8.55 69.33
  Q 7.21 63.09 8.81 57.31
  Q 11.16 48.85 18.09 44.02
  Q 24.51 39.55 32.70 39.53
  Q 41.85 39.52 48.43 45.52
  Q 50.50 47.40 58.24 58.24
  Q 65.75 68.76 73.27 79.28
  Q 73.38 79.43 74.01 79.92
  L 74.92 80.63
  C 75.13 80.79 75.11 81.13 74.87 81.32
  Q 71.89 83.72 67.75 83.50
  Q 64.36 83.32 61.57 81.97
  Q 59.38 80.90 57.07 77.80
  Z"
/>
<path fill="#fec000" d="
  M 96.17 75.49
  Q 102.49 75.15 105.20 70.10
  Q 107.66 65.51 106.09 60.71
  Q 104.45 55.66 98.69 53.31
  Q 96.43 52.39 94.24 52.48
  Q 92.46 52.55 90.18 53.99
  Q 86.21 56.51 82.27 59.31
  C 82.04 59.48 81.71 59.42 81.54 59.19
  L 74.37 49.68
  C 74.18 49.43 74.22 49.08 74.46 48.88
  Q 78.68 45.29 83.38 42.77
  Q 88.56 40.00 93.55 39.59
  Q 104.74 38.68 113.28 46.98
  Q 117.79 51.36 119.27 57.10
  Q 120.70 62.61 119.82 68.46
  Q 118.89 74.72 114.59 79.84
  Q 107.17 88.66 95.50 88.75
  Q 86.58 88.82 80.29 83.29
  Q 78.13 81.40 70.85 71.16
  Q 63.01 60.14 55.18 49.10
  Q 54.39 47.99 53.87 47.77
  Q 52.29 47.12 53.80 46.32
  Q 58.45 43.85 63.36 45.07
  Q 65.91 45.69 67.26 46.32
  Q 69.18 47.21 70.48 49.03
  Q 78.55 60.31 86.87 71.40
  Q 88.58 73.68 91.07 74.73
  Q 93.24 75.64 96.17 75.49
  Z"
/>
</svg>
