<?xml version="1.0" encoding="UTF-8" standalone="no"?>
<!DOCTYPE svg PUBLIC "-//W3C//DTD SVG 1.1//EN" "http://www.w3.org/Graphics/SVG/1.1/DTD/svg11.dtd">
<svg xmlns="http://www.w3.org/2000/svg" version="1.1" viewBox="0 0 180 180">
<g stroke-width="2.0" fill="none" stroke-linecap="butt">
<path stroke="#80c8ee" vector-effect="non-scaling-stroke" d="
  M 108.56 61.44
  L 108.44 38.32
  C 108.44 38.04 108.22 37.81 107.94 37.81
  L 97.74 37.69
  C 97.33 37.68 97.00 38.01 97.00 38.42
  L 97.00 122.84
  C 97.00 123.20 97.30 123.50 97.66 123.50
  L 108.00 123.50
  C 108.28 123.50 108.50 123.28 108.50 123.00
  Q 108.50 106.20 108.50 89.40
  Q 108.50 80.93 109.86 77.26
  Q 112.21 70.88 118.18 67.53
  Q 122.90 64.89 128.20 64.97
  Q 133.88 65.05 138.44 68.31
  Q 143.27 71.77 145.28 77.38
  Q 146.48 80.74 146.60 88.27
  Q 146.89 105.24 146.74 122.83
  C 146.74 123.20 147.04 123.50 147.41 123.50
  L 157.00 123.50
  C 157.28 123.50 157.50 123.28 157.50 123.00
  Q 157.50 105.27 157.50 87.54
  Q 157.50 79.00 156.12 74.61
  Q 152.75 63.85 142.94 58.31
  Q 129.72 50.85 115.52 57.69
  Q 114.29 58.29 112.25 59.66
  Q 110.66 60.74 109.00 61.69
  C 108.80 61.80 108.56 61.66 108.56 61.44"
/>
<path stroke="#80c8ee" vector-effect="non-scaling-stroke" d="
  M 40.07 123.56
  Q 47.91 123.45 55.75 123.45
  Q 63.58 123.46 70.37 120.38
  Q 76.93 117.41 81.98 111.63
  Q 89.79 102.70 90.16 90.94
  Q 90.48 80.65 85.16 71.89
  Q 78.73 61.30 66.52 57.38
  Q 61.43 55.75 52.28 55.57
  Q 40.67 55.35 29.06 55.55
  C 28.78 55.56 28.56 55.79 28.56 56.07
  L 28.44 145.31
  C 28.44 145.60 28.66 145.84 28.94 145.85
  L 38.57 145.95
  C 39.06 145.96 39.45 145.53 39.42 145.02
  Q 38.89 134.73 39.53 124.05
  C 39.55 123.77 39.78 123.56 40.07 123.56"
/>
<path stroke="#80c8ee" vector-effect="non-scaling-stroke" d="
  M 69.81 71.94
  Q 63.94 67.10 56.00 66.69
  Q 55.86 66.68 48.00 66.69
  Q 44.00 66.70 40.00 66.97
  C 39.72 66.99 39.50 67.22 39.50 67.50
  L 39.32 112.70
  C 39.32 112.97 39.54 113.19 39.82 113.20
  Q 52.41 113.39 55.00 113.25
  Q 64.66 112.74 70.96 106.91
  Q 77.00 101.33 78.37 92.69
  Q 80.29 80.57 69.81 71.94"
/>
</g>
<path fill="#0091dc" d="
  M 0.00 0.00
  Q 90.00 0.00 180.00 0.00
  Q 180.00 90.00 180.00 180.00
  Q 90.00 180.00 0.00 180.00
  Q 0.00 90.00 0.00 0.00
  Z
  M 108.56 61.44
  L 108.44 38.32
  C 108.44 38.04 108.22 37.81 107.94 37.81
  L 97.74 37.69
  C 97.33 37.68 97.00 38.01 97.00 38.42
  L 97.00 122.84
  C 97.00 123.20 97.30 123.50 97.66 123.50
  L 108.00 123.50
  C 108.28 123.50 108.50 123.28 108.50 123.00
  Q 108.50 106.20 108.50 89.40
  Q 108.50 80.93 109.86 77.26
  Q 112.21 70.88 118.18 67.53
  Q 122.90 64.89 128.20 64.97
  Q 133.88 65.05 138.44 68.31
  Q 143.27 71.77 145.28 77.38
  Q 146.48 80.74 146.60 88.27
  Q 146.89 105.24 146.74 122.83
  C 146.74 123.20 147.04 123.50 147.41 123.50
  L 157.00 123.50
  C 157.28 123.50 157.50 123.28 157.50 123.00
  Q 157.50 105.27 157.50 87.54
  Q 157.50 79.00 156.12 74.61
  Q 152.75 63.85 142.94 58.31
  Q 129.72 50.85 115.52 57.69
  Q 114.29 58.29 112.25 59.66
  Q 110.66 60.74 109.00 61.69
  C 108.80 61.80 108.56 61.66 108.56 61.44
  Z
  M 40.07 123.56
  Q 47.91 123.45 55.75 123.45
  Q 63.58 123.46 70.37 120.38
  Q 76.93 117.41 81.98 111.63
  Q 89.79 102.70 90.16 90.94
  Q 90.48 80.65 85.16 71.89
  Q 78.73 61.30 66.52 57.38
  Q 61.43 55.75 52.28 55.57
  Q 40.67 55.35 29.06 55.55
  C 28.78 55.56 28.56 55.79 28.56 56.07
  L 28.44 145.31
  C 28.44 145.60 28.66 145.84 28.94 145.85
  L 38.57 145.95
  C 39.06 145.96 39.45 145.53 39.42 145.02
  Q 38.89 134.73 39.53 124.05
  C 39.55 123.77 39.78 123.56 40.07 123.56
  Z"
/>
<path fill="#ffffff" d="
  M 109.00 61.69
  Q 110.66 60.74 112.25 59.66
  Q 114.29 58.29 115.52 57.69
  Q 129.72 50.85 142.94 58.31
  Q 152.75 63.85 156.12 74.61
  Q 157.50 79.00 157.50 87.54
  Q 157.50 105.27 157.50 123.00
  C 157.50 123.28 157.28 123.50 157.00 123.50
  L 147.41 123.50
  C 147.04 123.50 146.74 123.20 146.74 122.83
  Q 146.89 105.24 146.60 88.27
  Q 146.48 80.74 145.28 77.38
  Q 143.27 71.77 138.44 68.31
  Q 133.88 65.05 128.20 64.97
  Q 122.90 64.89 118.18 67.53
  Q 112.21 70.88 109.86 77.26
  Q 108.50 80.93 108.50 89.40
  Q 108.50 106.20 108.50 123.00
  C 108.50 123.28 108.28 123.50 108.00 123.50
  L 97.66 123.50
  C 97.30 123.50 97.00 123.20 97.00 122.84
  L 97.00 38.42
  C 97.00 38.01 97.33 37.68 97.74 37.69
  L 107.94 37.81
  C 108.22 37.81 108.44 38.04 108.44 38.32
  L 108.56 61.44
  C 108.56 61.66 108.80 61.80 109.00 61.69
  Z"
/>
<path fill="#ffffff" d="
  M 39.53 124.05
  Q 38.89 134.73 39.42 145.02
  C 39.45 145.53 39.06 145.96 38.57 145.95
  L 28.94 145.85
  C 28.66 145.84 28.44 145.60 28.44 145.31
  L 28.56 56.07
  C 28.56 55.79 28.78 55.56 29.06 55.55
  Q 40.67 55.35 52.28 55.57
  Q 61.43 55.75 66.52 57.38
  Q 78.73 61.30 85.16 71.89
  Q 90.48 80.65 90.16 90.94
  Q 89.79 102.70 81.98 111.63
  Q 76.93 117.41 70.37 120.38
  Q 63.58 123.46 55.75 123.45
  Q 47.91 123.45 40.07 123.56
  C 39.78 123.56 39.55 123.77 39.53 124.05
  Z
  M 69.81 71.94
  Q 63.94 67.10 56.00 66.69
  Q 55.86 66.68 48.00 66.69
  Q 44.00 66.70 40.00 66.97
  C 39.72 66.99 39.50 67.22 39.50 67.50
  L 39.32 112.70
  C 39.32 112.97 39.54 113.19 39.82 113.20
  Q 52.41 113.39 55.00 113.25
  Q 64.66 112.74 70.96 106.91
  Q 77.00 101.33 78.37 92.69
  Q 80.29 80.57 69.81 71.94
  Z"
/>
<path fill="#0091dc" d="
  M 69.81 71.94
  Q 80.29 80.57 78.37 92.69
  Q 77.00 101.33 70.96 106.91
  Q 64.66 112.74 55.00 113.25
  Q 52.41 113.39 39.82 113.20
  C 39.54 113.19 39.32 112.97 39.32 112.70
  L 39.50 67.50
  C 39.50 67.22 39.72 66.99 40.00 66.97
  Q 44.00 66.70 48.00 66.69
  Q 55.86 66.68 56.00 66.69
  Q 63.94 67.10 69.81 71.94
  Z"
/>
</svg>
