<?xml version="1.0" encoding="UTF-8" standalone="no"?>
<!DOCTYPE svg PUBLIC "-//W3C//DTD SVG 1.1//EN" "http://www.w3.org/Graphics/SVG/1.1/DTD/svg11.dtd">
<svg xmlns="http://www.w3.org/2000/svg" version="1.1" viewBox="0 0 32 32">
<g stroke-width="2.0" fill="none" stroke-linecap="butt">
<path stroke="#8dafce" vector-effect="non-scaling-stroke" d="
  M 9.17 16.93
  Q 7.18 21.11 7.75 23.00
  Q 10.08 30.74 17.75 29.50
  Q 23.10 28.63 24.22 23.94
  Q 24.83 21.35 23.31 17.76
  Q 20.56 11.23 16.45 4.87
  C 16.32 4.67 16.02 4.67 15.89 4.87
  Q 12.06 10.85 9.17 16.93"
/>
<path stroke="#e8c094" vector-effect="non-scaling-stroke" d="
  M 15.06 20.19
  Q 11.67 17.87 9.74 21.07
  C 9.57 21.34 9.51 21.67 9.56 21.99
  Q 9.94 24.70 11.94 26.06
  Q 17.28 29.71 21.72 24.97
  Q 22.90 23.72 22.95 22.06
  C 22.96 21.71 22.74 21.42 22.46 21.40
  Q 22.13 21.38 21.83 21.63
  C 21.52 21.88 21.23 22.04 21.01 22.05
  Q 18.11 22.27 15.06 20.19"
/>
</g>
<path fill="#296e9c" d="
  M 11.05 9.36
  Q 13.26 5.58 15.72 1.89
  C 15.95 1.54 16.46 1.55 16.68 1.90
  Q 19.84 6.95 22.51 12.00
  Q 25.58 17.83 26.01 20.96
  Q 26.91 27.56 20.66 30.25
  Q 16.42 32.08 12.60 30.84
  Q 8.18 29.40 6.35 24.51
  Q 5.57 22.43 6.23 20.31
  Q 8.04 14.53 11.05 9.36
  Z
  M 9.17 16.93
  Q 7.18 21.11 7.75 23.00
  Q 10.08 30.74 17.75 29.50
  Q 23.10 28.63 24.22 23.94
  Q 24.83 21.35 23.31 17.76
  Q 20.56 11.23 16.45 4.87
  C 16.32 4.67 16.02 4.67 15.89 4.87
  Q 12.06 10.85 9.17 16.93
  Z"
/>
<path fill="#f0f0ff" d="
  M 9.17 16.93
  Q 12.06 10.85 15.89 4.87
  C 16.02 4.67 16.32 4.67 16.45 4.87
  Q 20.56 11.23 23.31 17.76
  Q 24.83 21.35 24.22 23.94
  Q 23.10 28.63 17.75 29.50
  Q 10.08 30.74 7.75 23.00
  Q 7.18 21.11 9.17 16.93
  Z
  M 15.06 20.19
  Q 11.67 17.87 9.74 21.07
  C 9.57 21.34 9.51 21.67 9.56 21.99
  Q 9.94 24.70 11.94 26.06
  Q 17.28 29.71 21.72 24.97
  Q 22.90 23.72 22.95 22.06
  C 22.96 21.71 22.74 21.42 22.46 21.40
  Q 22.13 21.38 21.83 21.63
  C 21.52 21.88 21.23 22.04 21.01 22.05
  Q 18.11 22.27 15.06 20.19
  Z"
/>
<path fill="#e09028" d="
  M 15.06 20.19
  Q 18.11 22.27 21.01 22.05
  C 21.23 22.04 21.52 21.88 21.83 21.63
  Q 22.13 21.38 22.46 21.40
  C 22.74 21.42 22.96 21.71 22.95 22.06
  Q 22.90 23.72 21.72 24.97
  Q 17.28 29.71 11.94 26.06
  Q 9.94 24.70 9.56 21.99
  C 9.51 21.67 9.57 21.34 9.74 21.07
  Q 11.67 17.87 15.06 20.19
  Z"
/>
</svg>
