<?xml version="1.0" encoding="UTF-8" standalone="no"?>
<!DOCTYPE svg PUBLIC "-//W3C//DTD SVG 1.1//EN" "http://www.w3.org/Graphics/SVG/1.1/DTD/svg11.dtd">
<svg xmlns="http://www.w3.org/2000/svg" version="1.1" viewBox="0 0 180 180">
<g stroke-width="2.0" fill="none" stroke-linecap="butt">
<path stroke="#a9b0b6" vector-effect="non-scaling-stroke" d="
  M 161.10 74.42
  Q 126.50 56.20 91.32 37.93
  C 90.46 37.48 89.44 37.48 88.58 37.93
  L 17.62 74.97
  C 16.99 75.30 16.48 75.84 16.20 76.49
  Q 15.16 78.89 17.87 80.32
  Q 49.67 97.08 81.50 113.75
  Q 83.53 114.81 89.36 117.48
  C 89.66 117.62 90.00 117.65 90.30 117.55
  Q 92.09 116.99 95.31 115.31
  Q 128.43 98.06 161.54 80.79
  Q 162.97 80.04 163.52 79.20
  Q 164.48 77.75 163.68 76.41
  Q 163.14 75.49 161.10 74.42"
/>
<path stroke="#dde0e2" vector-effect="non-scaling-stroke" d="
  M 162.81 100.19
  Q 159.26 97.68 150.95 93.72
  C 150.67 93.58 150.34 93.59 150.06 93.73
  Q 122.10 108.55 93.86 122.84
  Q 91.95 123.81 90.32 123.86
  Q 88.04 123.93 86.56 123.19
  Q 72.43 116.16 29.94 93.73
  C 29.66 93.58 29.33 93.58 29.06 93.72
  L 17.69 99.69
  Q 14.02 101.61 16.56 103.94
  Q 18.30 105.53 20.41 106.53
  Q 22.48 107.51 22.55 107.55
  Q 55.75 124.96 89.00 142.25
  C 89.55 142.53 90.19 142.54 90.74 142.26
  Q 126.47 123.92 161.94 105.10
  Q 163.49 104.28 163.90 103.22
  Q 164.59 101.44 162.81 100.19"
/>
</g>
<path fill="#ffffff" d="
  M 0.00 0.00
  Q 90.00 0.00 180.00 0.00
  Q 180.00 90.00 180.00 180.00
  Q 90.00 180.00 0.00 180.00
  Q 0.00 90.00 0.00 0.00
  Z
  M 161.10 74.42
  Q 126.50 56.20 91.32 37.93
  C 90.46 37.48 89.44 37.48 88.58 37.93
  L 17.62 74.97
  C 16.99 75.30 16.48 75.84 16.20 76.49
  Q 15.16 78.89 17.87 80.32
  Q 49.67 97.08 81.50 113.75
  Q 83.53 114.81 89.36 117.48
  C 89.66 117.62 90.00 117.65 90.30 117.55
  Q 92.09 116.99 95.31 115.31
  Q 128.43 98.06 161.54 80.79
  Q 162.97 80.04 163.52 79.20
  Q 164.48 77.75 163.68 76.41
  Q 163.14 75.49 161.10 74.42
  Z
  M 162.81 100.19
  Q 159.26 97.68 150.95 93.72
  C 150.67 93.58 150.34 93.59 150.06 93.73
  Q 122.10 108.55 93.86 122.84
  Q 91.95 123.81 90.32 123.86
  Q 88.04 123.93 86.56 123.19
  Q 72.43 116.16 29.94 93.73
  C 29.66 93.58 29.33 93.58 29.06 93.72
  L 17.69 99.69
  Q 14.02 101.61 16.56 103.94
  Q 18.30 105.53 20.41 106.53
  Q 22.48 107.51 22.55 107.55
  Q 55.75 124.96 89.00 142.25
  C 89.55 142.53 90.19 142.54 90.74 142.26
  Q 126.47 123.92 161.94 105.10
  Q 163.49 104.28 163.90 103.22
  Q 164.59 101.44 162.81 100.19
  Z"
/>
<path fill="#53616c" d="
  M 163.68 76.41
  Q 164.48 77.75 163.52 79.20
  Q 162.97 80.04 161.54 80.79
  Q 128.43 98.06 95.31 115.31
  Q 92.09 116.99 90.30 117.55
  C 90.00 117.65 89.66 117.62 89.36 117.48
  Q 83.53 114.81 81.50 113.75
  Q 49.67 97.08 17.87 80.32
  Q 15.16 78.89 16.20 76.49
  C 16.48 75.84 16.99 75.30 17.62 74.97
  L 88.58 37.93
  C 89.44 37.48 90.46 37.48 91.32 37.93
  Q 126.50 56.20 161.10 74.42
  Q 163.14 75.49 163.68 76.41
  Z"
/>
<path fill="#bbc1c5" d="
  M 162.81 100.19
  Q 164.59 101.44 163.90 103.22
  Q 163.49 104.28 161.94 105.10
  Q 126.47 123.92 90.74 142.26
  C 90.19 142.54 89.55 142.53 89.00 142.25
  Q 55.75 124.96 22.55 107.55
  Q 22.48 107.51 20.41 106.53
  Q 18.30 105.53 16.56 103.94
  Q 14.02 101.61 17.69 99.69
  L 29.06 93.72
  C 29.33 93.58 29.66 93.58 29.94 93.73
  Q 72.43 116.16 86.56 123.19
  Q 88.04 123.93 90.32 123.86
  Q 91.95 123.81 93.86 122.84
  Q 122.10 108.55 150.06 93.73
  C 150.34 93.59 150.67 93.58 150.95 93.72
  Q 159.26 97.68 162.81 100.19
  Z"
/>
</svg>
