<?xml version="1.0" encoding="UTF-8" standalone="no"?>
<!DOCTYPE svg PUBLIC "-//W3C//DTD SVG 1.1//EN" "http://www.w3.org/Graphics/SVG/1.1/DTD/svg11.dtd">
<svg xmlns="http://www.w3.org/2000/svg" version="1.1" viewBox="0 0 196 196">
<g stroke-width="2.0" fill="none" stroke-linecap="butt">
<path stroke="#303853" vector-effect="non-scaling-stroke" d="
  M 173.25 0.21
  Q 163.27 0.36 143.69 0.31
  Q 124.02 0.26 22.75 0.21"
/>
<path stroke="#9a9eab" vector-effect="non-scaling-stroke" d="
  M 88.32 127.58
  Q 88.32 126.58 89.07 127.24
  Q 94.10 131.67 100.25 132.76
  Q 105.72 133.74 111.25 133.22
  Q 120.26 132.36 126.60 127.08
  Q 132.18 122.44 135.42 114.02
  Q 138.48 106.10 139.00 96.50
  Q 139.87 80.61 136.11 68.04
  Q 131.67 53.20 116.56 49.96
  Q 100.33 46.48 86.74 56.75
  C 86.43 56.98 85.98 56.89 85.79 56.56
  L 82.44 50.77
  C 82.22 50.40 81.82 50.18 81.40 50.20
  L 67.90 51.04
  C 67.64 51.06 67.44 51.28 67.44 51.54
  Q 67.72 96.09 67.45 140.75
  Q 67.41 146.40 67.43 152.05
  C 67.44 152.34 67.66 152.58 67.93 152.58
  L 87.94 152.70
  C 88.22 152.70 88.45 152.47 88.45 152.19
  L 88.32 127.58"
/>
<path stroke="#9a9eab" vector-effect="non-scaling-stroke" d="
  M 108.33 68.60
  Q 98.86 65.45 90.50 71.98
  Q 88.50 73.54 88.50 76.50
  Q 88.50 91.50 88.32 106.50
  Q 88.29 109.53 91.06 111.94
  Q 94.49 114.91 98.30 115.73
  Q 102.23 116.57 106.20 115.78
  Q 111.53 114.72 114.26 109.35
  Q 116.76 104.43 117.25 97.50
  Q 117.97 87.23 116.56 79.19
  Q 115.88 75.29 113.93 72.52
  Q 112.04 69.83 108.33 68.60"
/>
</g>
<path fill="#2c334f" fill-opacity="0.996" d="
  M 22.81 0.00
  Q 98.06 0.00 173.31 0.00
  Q 173.28 0.10 173.25 0.21
  Q 163.27 0.36 143.69 0.31
  Q 124.02 0.26 22.75 0.21
  Q 22.78 0.10 22.81 0.00
  Z"
/>
<path fill="#343c56" d="
  M 22.75 0.21
  Q 124.02 0.26 143.69 0.31
  Q 163.27 0.36 173.25 0.21
  Q 193.22 3.04 196.00 23.06
  Q 196.00 98.31 196.00 173.56
  Q 192.71 193.04 173.19 196.00
  Q 98.06 196.00 22.94 196.00
  Q 3.17 193.15 0.00 173.44
  Q 0.00 97.94 0.00 22.44
  Q 3.23 2.98 22.75 0.21
  Z
  M 88.32 127.58
  Q 88.32 126.58 89.07 127.24
  Q 94.10 131.67 100.25 132.76
  Q 105.72 133.74 111.25 133.22
  Q 120.26 132.36 126.60 127.08
  Q 132.18 122.44 135.42 114.02
  Q 138.48 106.10 139.00 96.50
  Q 139.87 80.61 136.11 68.04
  Q 131.67 53.20 116.56 49.96
  Q 100.33 46.48 86.74 56.75
  C 86.43 56.98 85.98 56.89 85.79 56.56
  L 82.44 50.77
  C 82.22 50.40 81.82 50.18 81.40 50.20
  L 67.90 51.04
  C 67.64 51.06 67.44 51.28 67.44 51.54
  Q 67.72 96.09 67.45 140.75
  Q 67.41 146.40 67.43 152.05
  C 67.44 152.34 67.66 152.58 67.93 152.58
  L 87.94 152.70
  C 88.22 152.70 88.45 152.47 88.45 152.19
  L 88.32 127.58
  Z"
/>
<path fill="#ffffff" d="
  M 88.32 127.58
  L 88.45 152.19
  C 88.45 152.47 88.22 152.70 87.94 152.70
  L 67.93 152.58
  C 67.66 152.58 67.44 152.34 67.43 152.05
  Q 67.41 146.40 67.45 140.75
  Q 67.72 96.09 67.44 51.54
  C 67.44 51.28 67.64 51.06 67.90 51.04
  L 81.40 50.20
  C 81.82 50.18 82.22 50.40 82.44 50.77
  L 85.79 56.56
  C 85.98 56.89 86.43 56.98 86.74 56.75
  Q 100.33 46.48 116.56 49.96
  Q 131.67 53.20 136.11 68.04
  Q 139.87 80.61 139.00 96.50
  Q 138.48 106.10 135.42 114.02
  Q 132.18 122.44 126.60 127.08
  Q 120.26 132.36 111.25 133.22
  Q 105.72 133.74 100.25 132.76
  Q 94.10 131.67 89.07 127.24
  Q 88.32 126.58 88.32 127.58
  Z
  M 108.33 68.60
  Q 98.86 65.45 90.50 71.98
  Q 88.50 73.54 88.50 76.50
  Q 88.50 91.50 88.32 106.50
  Q 88.29 109.53 91.06 111.94
  Q 94.49 114.91 98.30 115.73
  Q 102.23 116.57 106.20 115.78
  Q 111.53 114.72 114.26 109.35
  Q 116.76 104.43 117.25 97.50
  Q 117.97 87.23 116.56 79.19
  Q 115.88 75.29 113.93 72.52
  Q 112.04 69.83 108.33 68.60
  Z"
/>
<path fill="#343c56" d="
  M 113.93 72.52
  Q 115.88 75.29 116.56 79.19
  Q 117.97 87.23 117.25 97.50
  Q 116.76 104.43 114.26 109.35
  Q 111.53 114.72 106.20 115.78
  Q 102.23 116.57 98.30 115.73
  Q 94.49 114.91 91.06 111.94
  Q 88.29 109.53 88.32 106.50
  Q 88.50 91.50 88.50 76.50
  Q 88.50 73.54 90.50 71.98
  Q 98.86 65.45 108.33 68.60
  Q 112.04 69.83 113.93 72.52
  Z"
/>
</svg>
