<?xml version="1.0" encoding="UTF-8" standalone="no"?>
<!DOCTYPE svg PUBLIC "-//W3C//DTD SVG 1.1//EN" "http://www.w3.org/Graphics/SVG/1.1/DTD/svg11.dtd">
<svg xmlns="http://www.w3.org/2000/svg" version="1.1" viewBox="0 0 200 200">
<g stroke-width="2.0" fill="none" stroke-linecap="butt">
<path stroke="#808080" vector-effect="non-scaling-stroke" d="
  M 110.55 115.99
  Q 121.75 114.19 129.44 109.44
  Q 147.51 98.26 148.49 75.76
  Q 148.95 65.16 145.94 55.02
  Q 143.55 46.97 137.97 41.32
  Q 133.38 36.67 126.03 33.62
  Q 119.10 30.74 112.00 30.25
  Q 99.69 29.39 76.75 29.73
  Q 71.22 29.81 72.83 34.50
  Q 73.44 36.29 75.34 36.27
  Q 87.57 36.16 98.06 36.40
  Q 98.19 36.40 105.44 36.38
  Q 117.42 36.33 126.44 41.06
  Q 137.53 46.88 140.39 59.17
  Q 141.88 65.61 141.75 73.75
  Q 141.62 81.67 138.87 88.44
  Q 136.09 95.24 130.41 100.30
  Q 120.46 109.18 106.22 109.49
  Q 103.85 109.55 102.84 109.96
  Q 100.54 110.92 100.87 113.18
  Q 101.06 114.45 102.76 116.94
  Q 127.78 153.60 134.25 163.25
  Q 135.75 165.48 136.95 166.94
  Q 138.07 168.30 139.39 168.47
  Q 141.27 168.71 142.37 167.14
  Q 143.57 165.43 142.39 163.68
  L 110.34 116.47
  C 110.21 116.28 110.32 116.03 110.55 115.99"
/>
<path stroke="#808080" vector-effect="non-scaling-stroke" d="
  M 122.18 52.35
  Q 115.98 47.01 107.77 46.05
  Q 103.02 45.50 95.75 45.50
  Q 77.38 45.50 59.02 45.50
  Q 56.68 45.50 55.76 46.39
  Q 54.50 47.60 54.50 50.00
  Q 54.50 106.64 54.50 163.28
  Q 54.50 165.96 55.12 167.10
  Q 56.43 169.53 59.69 168.05
  C 60.49 167.68 61.00 166.89 61.00 166.02
  L 61.19 52.57
  C 61.19 52.26 61.45 52.00 61.76 52.00
  Q 78.25 52.00 95.00 51.98
  Q 101.13 51.97 108.25 53.00
  Q 114.95 53.97 119.01 58.32
  Q 122.54 62.12 123.54 68.63
  Q 124.44 74.51 123.14 80.53
  Q 121.71 87.21 116.44 90.44
  Q 109.79 94.51 101.00 94.44
  Q 97.37 94.41 91.78 94.94
  C 90.95 95.02 90.21 95.53 89.83 96.28
  Q 88.30 99.34 91.75 101.00
  Q 93.06 101.63 96.76 101.29
  Q 99.30 101.07 101.74 101.04
  Q 110.67 100.96 117.69 97.44
  Q 127.47 92.53 129.67 80.93
  Q 130.57 76.14 130.25 69.50
  Q 129.73 58.86 122.18 52.35"
/>
<path stroke="#808080" vector-effect="non-scaling-stroke" d="
  M 77.4627 96.2991
  C 76.47 94.82 74.47 94.43 72.9957 95.4146
  L 72.9126 95.4703
  C 71.43 96.46 71.04 98.46 72.0281 99.9373
  L 110.6573 157.6409
  C 111.65 159.12 113.65 159.51 115.1243 158.5254
  L 115.2074 158.4697
  C 116.69 157.48 117.08 155.48 116.0919 154.0027
  L 77.4627 96.2991"
/>
<path stroke="#808080" vector-effect="non-scaling-stroke" d="
  M 78.73 130.41
  C 78.73 128.67 77.32 127.26 75.58 127.26
  L 75.40 127.26
  C 73.66 127.26 72.25 128.67 72.25 130.41
  L 72.25 165.35
  C 72.25 167.09 73.66 168.50 75.40 168.50
  L 75.58 168.50
  C 77.32 168.50 78.73 167.09 78.73 165.35
  L 78.73 130.41"
/>
<path stroke="#808080" vector-effect="non-scaling-stroke" d="
  M 123.15 164.95
  C 123.15 163.01 121.58 161.44 119.64 161.44
  C 117.70 161.44 116.13 163.01 116.13 164.95
  C 116.13 166.89 117.70 168.46 119.64 168.46
  C 121.58 168.46 123.15 166.89 123.15 164.95"
/>
</g>
<path fill="#000000" d="
  M 9.31 0.00
  Q 99.94 0.00 190.56 0.00
  Q 198.80 1.49 200.00 9.81
  Q 200.00 100.19 200.00 190.56
  Q 198.53 198.81 190.19 200.00
  Q 99.81 200.00 9.44 200.00
  Q 1.31 198.55 0.00 190.44
  Q 0.00 99.94 0.00 9.44
  Q 1.37 1.50 9.31 0.00
  Z
  M 110.55 115.99
  Q 121.75 114.19 129.44 109.44
  Q 147.51 98.26 148.49 75.76
  Q 148.95 65.16 145.94 55.02
  Q 143.55 46.97 137.97 41.32
  Q 133.38 36.67 126.03 33.62
  Q 119.10 30.74 112.00 30.25
  Q 99.69 29.39 76.75 29.73
  Q 71.22 29.81 72.83 34.50
  Q 73.44 36.29 75.34 36.27
  Q 87.57 36.16 98.06 36.40
  Q 98.19 36.40 105.44 36.38
  Q 117.42 36.33 126.44 41.06
  Q 137.53 46.88 140.39 59.17
  Q 141.88 65.61 141.75 73.75
  Q 141.62 81.67 138.87 88.44
  Q 136.09 95.24 130.41 100.30
  Q 120.46 109.18 106.22 109.49
  Q 103.85 109.55 102.84 109.96
  Q 100.54 110.92 100.87 113.18
  Q 101.06 114.45 102.76 116.94
  Q 127.78 153.60 134.25 163.25
  Q 135.75 165.48 136.95 166.94
  Q 138.07 168.30 139.39 168.47
  Q 141.27 168.71 142.37 167.14
  Q 143.57 165.43 142.39 163.68
  L 110.34 116.47
  C 110.21 116.28 110.32 116.03 110.55 115.99
  Z
  M 122.18 52.35
  Q 115.98 47.01 107.77 46.05
  Q 103.02 45.50 95.75 45.50
  Q 77.38 45.50 59.02 45.50
  Q 56.68 45.50 55.76 46.39
  Q 54.50 47.60 54.50 50.00
  Q 54.50 106.64 54.50 163.28
  Q 54.50 165.96 55.12 167.10
  Q 56.43 169.53 59.69 168.05
  C 60.49 167.68 61.00 166.89 61.00 166.02
  L 61.19 52.57
  C 61.19 52.26 61.45 52.00 61.76 52.00
  Q 78.25 52.00 95.00 51.98
  Q 101.13 51.97 108.25 53.00
  Q 114.95 53.97 119.01 58.32
  Q 122.54 62.12 123.54 68.63
  Q 124.44 74.51 123.14 80.53
  Q 121.71 87.21 116.44 90.44
  Q 109.79 94.51 101.00 94.44
  Q 97.37 94.41 91.78 94.94
  C 90.95 95.02 90.21 95.53 89.83 96.28
  Q 88.30 99.34 91.75 101.00
  Q 93.06 101.63 96.76 101.29
  Q 99.30 101.07 101.74 101.04
  Q 110.67 100.96 117.69 97.44
  Q 127.47 92.53 129.67 80.93
  Q 130.57 76.14 130.25 69.50
  Q 129.73 58.86 122.18 52.35
  Z
  M 77.4627 96.2991
  C 76.47 94.82 74.47 94.43 72.9957 95.4146
  L 72.9126 95.4703
  C 71.43 96.46 71.04 98.46 72.0281 99.9373
  L 110.6573 157.6409
  C 111.65 159.12 113.65 159.51 115.1243 158.5254
  L 115.2074 158.4697
  C 116.69 157.48 117.08 155.48 116.0919 154.0027
  L 77.4627 96.2991
  Z
  M 78.73 130.41
  C 78.73 128.67 77.32 127.26 75.58 127.26
  L 75.40 127.26
  C 73.66 127.26 72.25 128.67 72.25 130.41
  L 72.25 165.35
  C 72.25 167.09 73.66 168.50 75.40 168.50
  L 75.58 168.50
  C 77.32 168.50 78.73 167.09 78.73 165.35
  L 78.73 130.41
  Z
  M 123.15 164.95
  C 123.15 163.01 121.58 161.44 119.64 161.44
  C 117.70 161.44 116.13 163.01 116.13 164.95
  C 116.13 166.89 117.70 168.46 119.64 168.46
  C 121.58 168.46 123.15 166.89 123.15 164.95
  Z"
/>
<path fill="#ffffff" d="
  M 110.34 116.47
  L 142.39 163.68
  Q 143.57 165.43 142.37 167.14
  Q 141.27 168.71 139.39 168.47
  Q 138.07 168.30 136.95 166.94
  Q 135.75 165.48 134.25 163.25
  Q 127.78 153.60 102.76 116.94
  Q 101.06 114.45 100.87 113.18
  Q 100.54 110.92 102.84 109.96
  Q 103.85 109.55 106.22 109.49
  Q 120.46 109.18 130.41 100.30
  Q 136.09 95.24 138.87 88.44
  Q 141.62 81.67 141.75 73.75
  Q 141.88 65.61 140.39 59.17
  Q 137.53 46.88 126.44 41.06
  Q 117.42 36.33 105.44 36.38
  Q 98.19 36.40 98.06 36.40
  Q 87.57 36.16 75.34 36.27
  Q 73.44 36.29 72.83 34.50
  Q 71.22 29.81 76.75 29.73
  Q 99.69 29.39 112.00 30.25
  Q 119.10 30.74 126.03 33.62
  Q 133.38 36.67 137.97 41.32
  Q 143.55 46.97 145.94 55.02
  Q 148.95 65.16 148.49 75.76
  Q 147.51 98.26 129.44 109.44
  Q 121.75 114.19 110.55 115.99
  C 110.32 116.03 110.21 116.28 110.34 116.47
  Z"
/>
<path fill="#ffffff" d="
  M 122.18 52.35
  Q 129.73 58.86 130.25 69.50
  Q 130.57 76.14 129.67 80.93
  Q 127.47 92.53 117.69 97.44
  Q 110.67 100.96 101.74 101.04
  Q 99.30 101.07 96.76 101.29
  Q 93.06 101.63 91.75 101.00
  Q 88.30 99.34 89.83 96.28
  C 90.21 95.53 90.95 95.02 91.78 94.94
  Q 97.37 94.41 101.00 94.44
  Q 109.79 94.51 116.44 90.44
  Q 121.71 87.21 123.14 80.53
  Q 124.44 74.51 123.54 68.63
  Q 122.54 62.12 119.01 58.32
  Q 114.95 53.97 108.25 53.00
  Q 101.13 51.97 95.00 51.98
  Q 78.25 52.00 61.76 52.00
  C 61.45 52.00 61.19 52.26 61.19 52.57
  L 61.00 166.02
  C 61.00 166.89 60.49 167.68 59.69 168.05
  Q 56.43 169.53 55.12 167.10
  Q 54.50 165.96 54.50 163.28
  Q 54.50 106.64 54.50 50.00
  Q 54.50 47.60 55.76 46.39
  Q 56.68 45.50 59.02 45.50
  Q 77.38 45.50 95.75 45.50
  Q 103.02 45.50 107.77 46.05
  Q 115.98 47.01 122.18 52.35
  Z"
/>
<rect fill="#ffffff" x="-3.27" y="-37.94" transform="translate(94.06,126.97) rotate(-33.8)" width="6.54" height="75.88" rx="3.22"/>
<rect fill="#ffffff" x="72.25" y="127.26" width="6.48" height="41.24" rx="3.15"/>
<circle fill="#ffffff" cx="119.64" cy="164.95" r="3.51"/>
</svg>
