<?xml version="1.0" encoding="UTF-8" standalone="no"?>
<!DOCTYPE svg PUBLIC "-//W3C//DTD SVG 1.1//EN" "http://www.w3.org/Graphics/SVG/1.1/DTD/svg11.dtd">
<svg xmlns="http://www.w3.org/2000/svg" version="1.1" viewBox="0 0 36 36">
<path fill="#fbd001" d="
  M 26.56 0.00
  Q 26.69 0.00 26.81 0.00
  Q 27.12 0.50 26.69 1.19
  Q 17.01 16.67 7.55 32.17
  Q 7.03 33.03 6.78 32.08
  L 5.33 26.49
  C 5.25 26.21 5.32 25.88 5.51 25.57
  L 14.32 11.30
  Q 14.79 10.53 13.93 10.77
  L 2.65 13.85
  C 2.11 13.99 1.57 13.65 1.48 13.10
  Q 1.04 10.51 0.00 7.94
  Q 0.00 7.56 0.00 7.19
  Q 13.34 3.81 26.56 0.00
  Z"
/>
<path fill="#245fac" d="
  M 36.00 28.06
  Q 36.00 28.44 36.00 28.81
  Q 23.16 32.21 9.18 35.86
  Q 8.63 36.00 8.93 35.52
  L 28.48 3.93
  C 28.61 3.73 28.90 3.73 29.01 3.93
  Q 30.16 5.97 30.46 8.24
  Q 30.71 10.08 29.48 12.10
  Q 25.68 18.34 21.74 24.51
  Q 21.08 25.55 22.30 25.23
  L 33.57 22.29
  C 33.85 22.22 34.13 22.38 34.23 22.67
  Q 35.15 25.35 36.00 28.06
  Z"
/>
</svg>
