<?xml version="1.0" encoding="UTF-8" standalone="no"?>
<!DOCTYPE svg PUBLIC "-//W3C//DTD SVG 1.1//EN" "http://www.w3.org/Graphics/SVG/1.1/DTD/svg11.dtd">
<svg xmlns="http://www.w3.org/2000/svg" version="1.1" viewBox="0 0 128 128">
<path fill="#3b5998" d="
  M 18.30 51.35
  L 86.33 73.10
  C 86.86 73.27 87.09 73.88 86.78 74.30
  L 79.94 83.64
  C 79.71 83.96 79.27 84.08 78.85 83.95
  L 8.26 61.26
  C 7.79 61.11 7.42 60.73 7.28 60.25
  Q 1.84 41.27 2.97 22.74
  C 2.99 22.44 3.19 22.19 3.47 22.10
  L 62.78 3.15
  C 63.09 3.05 63.42 3.06 63.73 3.16
  L 122.97 22.16
  C 123.25 22.25 123.46 22.51 123.48 22.81
  Q 124.49 34.77 121.80 46.45
  C 121.74 46.72 121.47 46.88 121.21 46.80
  L 111.13 43.81
  C 110.59 43.65 110.25 43.09 110.31 42.49
  L 111.27 32.29
  C 111.31 31.84 111.01 31.42 110.55 31.27
  L 63.99 16.34
  C 63.44 16.16 62.85 16.16 62.31 16.34
  L 15.90 31.28
  C 15.62 31.37 15.43 31.63 15.42 31.93
  Q 15.14 41.48 17.68 50.71
  C 17.76 51.01 17.99 51.25 18.30 51.35
  Z"
/>
<path fill="#3b5998" d="
  M 42.90 96.35
  Q 51.76 105.26 62.24 111.50
  C 62.78 111.82 63.45 111.82 63.99 111.51
  Q 91.02 95.86 103.45 67.17
  C 103.61 66.80 103.41 66.38 103.03 66.26
  Q 67.03 54.95 30.99 43.23
  Q 30.87 43.19 27.97 42.44
  Q 25.98 41.93 24.23 40.84
  Q 23.69 40.50 24.29 40.31
  L 43.02 34.40
  C 43.33 34.30 43.67 34.30 43.98 34.40
  L 119.13 58.46
  C 119.39 58.54 119.53 58.82 119.45 59.08
  Q 106.00 104.28 64.15 125.33
  C 63.51 125.66 62.75 125.66 62.10 125.33
  Q 28.86 108.66 13.18 76.18
  Q 12.54 74.86 13.92 75.31
  L 29.31 80.27
  C 29.62 80.37 29.90 80.58 30.09 80.87
  Q 35.92 89.34 42.90 96.35
  Z"
/>
</svg>
