<?xml version="1.0" encoding="UTF-8" standalone="no"?>
<svg xmlns="http://www.w3.org/2000/svg" version="1.2" baseProfile="tiny" viewBox="0 0 310 310" width="310" height="310">
<g stroke-width="2.0" fill="none" stroke-linecap="butt">
<path stroke="#bababa" vector-effect="non-scaling-stroke" d="
  M 300.26 48.77
  C 300.26 48.62 300.14 48.50 299.99 48.50
  L 10.01 48.50
  C 9.86 48.50 9.74 48.62 9.74 48.77
  L 9.74 208.07
  C 9.74 208.22 9.86 208.34 10.01 208.34
  L 299.99 208.34
  C 300.14 208.34 300.26 208.22 300.26 208.07
  L 300.26 48.77"
/>
<path stroke="#b2b2b2" vector-effect="non-scaling-stroke" d="
  M 256.65 156.12
  Q 255.44 165.26 253.85 174.57
  Q 253.00 179.53 253.32 181.48
  Q 254.05 185.85 258.26 187.19
  Q 261.77 188.31 264.36 186.14
  Q 267.32 183.66 266.45 179.19
  Q 265.86 176.20 265.86 176.15
  Q 265.01 168.91 266.31 160.56
  Q 268.98 143.37 274.95 128.94
  Q 277.16 123.61 271.99 122.28
  Q 271.34 122.11 268.00 122.25
  Q 265.19 122.37 263.78 123.93
  Q 262.96 124.84 262.39 127.82
  Q 261.96 130.09 261.06 134.31
  Q 260.01 139.27 257.56 142.56
  Q 254.72 146.39 249.35 150.14
  Q 239.50 157.03 228.21 161.13
  Q 223.13 162.97 217.75 163.22
  Q 208.98 163.63 205.59 157.66
  Q 203.29 153.62 203.75 146.03
  Q 204.20 138.78 206.81 132.31
  Q 215.24 111.49 233.79 97.74
  Q 241.34 92.15 249.25 89.50
  Q 253.24 88.17 257.80 88.30
  Q 261.43 88.41 263.63 90.15
  Q 266.17 92.14 267.33 95.48
  Q 268.53 98.93 271.69 97.11
  Q 276.53 94.31 277.59 87.51
  Q 278.30 83.00 275.19 80.56
  Q 270.93 77.23 264.50 76.99
  Q 254.94 76.62 246.07 79.37
  Q 238.28 81.79 229.72 87.60
  Q 214.84 97.70 204.19 113.19
  Q 192.75 129.81 192.70 149.16
  Q 192.67 157.02 195.17 161.97
  Q 198.47 168.51 205.25 171.29
  Q 210.78 173.57 218.49 173.02
  Q 225.28 172.54 231.76 170.01
  Q 245.03 164.84 256.08 155.80
  Q 256.76 155.24 256.65 156.12"
/>
<path stroke="#b2b2b2" vector-effect="non-scaling-stroke" d="
  M 46.42 166.93
  Q 42.79 166.11 39.24 165.00
  C 38.49 164.76 37.67 165.06 37.25 165.73
  Q 30.48 176.65 43.75 178.25
  Q 53.24 179.39 63.30 177.13
  Q 71.93 175.18 79.16 172.00
  Q 86.56 168.74 93.56 163.31
  Q 98.68 159.34 101.63 154.45
  Q 104.05 150.44 104.00 146.65
  Q 103.93 141.95 100.56 138.69
  Q 96.23 134.49 90.67 132.09
  Q 86.93 130.48 83.11 129.09
  Q 81.19 128.39 75.31 126.67
  Q 67.71 124.45 60.50 121.19
  Q 54.43 118.44 51.99 115.43
  Q 47.73 110.19 51.09 104.08
  Q 53.04 100.53 57.74 97.81
  Q 69.31 91.12 82.77 90.99
  Q 90.33 90.92 93.29 91.93
  Q 99.38 94.03 99.73 101.99
  C 99.75 102.30 99.96 102.56 100.24 102.61
  Q 103.62 103.26 105.50 100.27
  Q 108.23 95.93 107.27 91.64
  Q 106.43 87.87 102.41 85.26
  Q 96.70 81.57 89.00 81.25
  Q 72.37 80.57 58.44 86.69
  Q 52.52 89.28 48.04 92.65
  Q 42.81 96.57 40.41 101.60
  Q 36.13 110.57 41.08 119.75
  Q 42.89 123.13 45.82 125.49
  Q 48.78 127.87 52.33 129.39
  Q 63.81 134.31 75.77 137.94
  Q 85.74 140.97 90.19 144.06
  Q 94.85 147.31 91.56 151.81
  Q 89.45 154.70 86.04 157.08
  Q 83.68 158.73 79.55 160.99
  Q 67.53 167.56 53.78 167.75
  Q 50.23 167.80 46.42 166.93"
/>
<path stroke="#b2b2b2" vector-effect="non-scaling-stroke" d="
  M 161.93 128.42
  Q 163.63 129.90 161.99 131.44
  Q 157.68 135.53 151.69 140.19
  Q 147.24 143.65 137.97 153.98
  Q 135.14 157.14 131.92 159.91
  Q 128.82 162.57 130.94 165.56
  Q 133.29 168.88 136.70 167.89
  Q 138.53 167.36 141.16 164.73
  Q 148.35 157.51 155.19 149.96
  Q 158.10 146.74 160.16 144.89
  Q 163.17 142.19 165.69 140.44
  Q 172.37 135.80 176.52 132.28
  Q 179.40 129.85 177.02 126.95
  Q 175.34 124.90 172.56 123.44
  Q 150.36 111.78 129.22 96.60
  Q 126.80 94.86 125.40 94.48
  Q 121.33 93.37 122.06 99.16
  Q 122.44 102.18 124.06 104.19
  Q 127.45 108.39 132.71 111.27
  Q 142.99 116.90 153.35 122.37
  Q 157.44 124.53 161.93 128.42"
/>
</g>
<path fill="#757575" d="
  M 310.00 39.06
  Q 310.00 128.44 310.00 217.81
  Q 309.84 217.81 309.73 217.88
  C 309.55 217.99 309.39 218.06 309.31 218.06
  L 194.32 218.06
  C 194.04 218.06 193.81 218.28 193.81 218.56
  L 193.75 256.07
  C 193.75 256.45 194.06 256.75 194.44 256.75
  L 231.62 256.75
  C 232.11 256.75 232.51 257.14 232.50 257.62
  L 232.45 270.68
  C 232.44 270.96 232.21 271.19 231.93 271.19
  L 78.42 271.25
  C 77.91 271.25 77.50 270.84 77.50 270.33
  L 77.50 257.60
  C 77.50 257.13 77.88 256.75 78.35 256.75
  L 115.55 256.69
  C 115.94 256.69 116.25 256.37 116.25 255.98
  L 116.25 218.66
  C 116.25 218.30 115.95 218.00 115.59 218.00
  Q 58.25 218.00 1.25 218.07
  Q 0.34 218.07 0.00 217.19
  Q 0.00 128.31 0.00 39.44
  Q 0.23 39.37 0.29 39.16
  C 0.36 38.95 0.52 38.81 0.67 38.81
  Q 154.46 38.70 308.25 38.75
  Q 309.52 38.75 310.00 39.06
  Z
  M 300.26 48.77
  C 300.26 48.62 300.14 48.50 299.99 48.50
  L 10.01 48.50
  C 9.86 48.50 9.74 48.62 9.74 48.77
  L 9.74 208.07
  C 9.74 208.22 9.86 208.34 10.01 208.34
  L 299.99 208.34
  C 300.14 208.34 300.26 208.22 300.26 208.07
  L 300.26 48.77
  Z"
/>
<path fill="#ffffff" d="
  M 300.26 208.07
  C 300.26 208.22 300.14 208.34 299.99 208.34
  L 10.01 208.34
  C 9.86 208.34 9.74 208.22 9.74 208.07
  L 9.74 48.77
  C 9.74 48.62 9.86 48.50 10.01 48.50
  L 299.99 48.50
  C 300.14 48.50 300.26 48.62 300.26 48.77
  L 300.26 208.07
  Z
  M 256.65 156.12
  Q 255.44 165.26 253.85 174.57
  Q 253.00 179.53 253.32 181.48
  Q 254.05 185.85 258.26 187.19
  Q 261.77 188.31 264.36 186.14
  Q 267.32 183.66 266.45 179.19
  Q 265.86 176.20 265.86 176.15
  Q 265.01 168.91 266.31 160.56
  Q 268.98 143.37 274.95 128.94
  Q 277.16 123.61 271.99 122.28
  Q 271.34 122.11 268.00 122.25
  Q 265.19 122.37 263.78 123.93
  Q 262.96 124.84 262.39 127.82
  Q 261.96 130.09 261.06 134.31
  Q 260.01 139.27 257.56 142.56
  Q 254.72 146.39 249.35 150.14
  Q 239.50 157.03 228.21 161.13
  Q 223.13 162.97 217.75 163.22
  Q 208.98 163.63 205.59 157.66
  Q 203.29 153.62 203.75 146.03
  Q 204.20 138.78 206.81 132.31
  Q 215.24 111.49 233.79 97.74
  Q 241.34 92.15 249.25 89.50
  Q 253.24 88.17 257.80 88.30
  Q 261.43 88.41 263.63 90.15
  Q 266.17 92.14 267.33 95.48
  Q 268.53 98.93 271.69 97.11
  Q 276.53 94.31 277.59 87.51
  Q 278.30 83.00 275.19 80.56
  Q 270.93 77.23 264.50 76.99
  Q 254.94 76.62 246.07 79.37
  Q 238.28 81.79 229.72 87.60
  Q 214.84 97.70 204.19 113.19
  Q 192.75 129.81 192.70 149.16
  Q 192.67 157.02 195.17 161.97
  Q 198.47 168.51 205.25 171.29
  Q 210.78 173.57 218.49 173.02
  Q 225.28 172.54 231.76 170.01
  Q 245.03 164.84 256.08 155.80
  Q 256.76 155.24 256.65 156.12
  Z
  M 46.42 166.93
  Q 42.79 166.11 39.24 165.00
  C 38.49 164.76 37.67 165.06 37.25 165.73
  Q 30.48 176.65 43.75 178.25
  Q 53.24 179.39 63.30 177.13
  Q 71.93 175.18 79.16 172.00
  Q 86.56 168.74 93.56 163.31
  Q 98.68 159.34 101.63 154.45
  Q 104.05 150.44 104.00 146.65
  Q 103.93 141.95 100.56 138.69
  Q 96.23 134.49 90.67 132.09
  Q 86.93 130.48 83.11 129.09
  Q 81.19 128.39 75.31 126.67
  Q 67.71 124.45 60.50 121.19
  Q 54.43 118.44 51.99 115.43
  Q 47.73 110.19 51.09 104.08
  Q 53.04 100.53 57.74 97.81
  Q 69.31 91.12 82.77 90.99
  Q 90.33 90.92 93.29 91.93
  Q 99.38 94.03 99.73 101.99
  C 99.75 102.30 99.96 102.56 100.24 102.61
  Q 103.62 103.26 105.50 100.27
  Q 108.23 95.93 107.27 91.64
  Q 106.43 87.87 102.41 85.26
  Q 96.70 81.57 89.00 81.25
  Q 72.37 80.57 58.44 86.69
  Q 52.52 89.28 48.04 92.65
  Q 42.81 96.57 40.41 101.60
  Q 36.13 110.57 41.08 119.75
  Q 42.89 123.13 45.82 125.49
  Q 48.78 127.87 52.33 129.39
  Q 63.81 134.31 75.77 137.94
  Q 85.74 140.97 90.19 144.06
  Q 94.85 147.31 91.56 151.81
  Q 89.45 154.70 86.04 157.08
  Q 83.68 158.73 79.55 160.99
  Q 67.53 167.56 53.78 167.75
  Q 50.23 167.80 46.42 166.93
  Z
  M 161.93 128.42
  Q 163.63 129.90 161.99 131.44
  Q 157.68 135.53 151.69 140.19
  Q 147.24 143.65 137.97 153.98
  Q 135.14 157.14 131.92 159.91
  Q 128.82 162.57 130.94 165.56
  Q 133.29 168.88 136.70 167.89
  Q 138.53 167.36 141.16 164.73
  Q 148.35 157.51 155.19 149.96
  Q 158.10 146.74 160.16 144.89
  Q 163.17 142.19 165.69 140.44
  Q 172.37 135.80 176.52 132.28
  Q 179.40 129.85 177.02 126.95
  Q 175.34 124.90 172.56 123.44
  Q 150.36 111.78 129.22 96.60
  Q 126.80 94.86 125.40 94.48
  Q 121.33 93.37 122.06 99.16
  Q 122.44 102.18 124.06 104.19
  Q 127.45 108.39 132.71 111.27
  Q 142.99 116.90 153.35 122.37
  Q 157.44 124.53 161.93 128.42
  Z"
/>
<path fill="#646464" d="
  M 256.65 156.12
  Q 256.76 155.24 256.08 155.80
  Q 245.03 164.84 231.76 170.01
  Q 225.28 172.54 218.49 173.02
  Q 210.78 173.57 205.25 171.29
  Q 198.47 168.51 195.17 161.97
  Q 192.67 157.02 192.70 149.16
  Q 192.75 129.81 204.19 113.19
  Q 214.84 97.70 229.72 87.60
  Q 238.28 81.79 246.07 79.37
  Q 254.94 76.62 264.50 76.99
  Q 270.93 77.23 275.19 80.56
  Q 278.30 83.00 277.59 87.51
  Q 276.53 94.31 271.69 97.11
  Q 268.53 98.93 267.33 95.48
  Q 266.17 92.14 263.63 90.15
  Q 261.43 88.41 257.80 88.30
  Q 253.24 88.17 249.25 89.50
  Q 241.34 92.15 233.79 97.74
  Q 215.24 111.49 206.81 132.31
  Q 204.20 138.78 203.75 146.03
  Q 203.29 153.62 205.59 157.66
  Q 208.98 163.63 217.75 163.22
  Q 223.13 162.97 228.21 161.13
  Q 239.50 157.03 249.35 150.14
  Q 254.72 146.39 257.56 142.56
  Q 260.01 139.27 261.06 134.31
  Q 261.96 130.09 262.39 127.82
  Q 262.96 124.84 263.78 123.93
  Q 265.19 122.37 268.00 122.25
  Q 271.34 122.11 271.99 122.28
  Q 277.16 123.61 274.95 128.94
  Q 268.98 143.37 266.31 160.56
  Q 265.01 168.91 265.86 176.15
  Q 265.86 176.20 266.45 179.19
  Q 267.32 183.66 264.36 186.14
  Q 261.77 188.31 258.26 187.19
  Q 254.05 185.85 253.32 181.48
  Q 253.00 179.53 253.85 174.57
  Q 255.44 165.26 256.65 156.12
  Z"
/>
<path fill="#646464" d="
  M 53.78 167.75
  Q 67.53 167.56 79.55 160.99
  Q 83.68 158.73 86.04 157.08
  Q 89.45 154.70 91.56 151.81
  Q 94.85 147.31 90.19 144.06
  Q 85.74 140.97 75.77 137.94
  Q 63.81 134.31 52.33 129.39
  Q 48.78 127.87 45.82 125.49
  Q 42.89 123.13 41.08 119.75
  Q 36.13 110.57 40.41 101.60
  Q 42.81 96.57 48.04 92.65
  Q 52.52 89.28 58.44 86.69
  Q 72.37 80.57 89.00 81.25
  Q 96.70 81.57 102.41 85.26
  Q 106.43 87.87 107.27 91.64
  Q 108.23 95.93 105.50 100.27
  Q 103.62 103.26 100.24 102.61
  C 99.96 102.56 99.75 102.30 99.73 101.99
  Q 99.38 94.03 93.29 91.93
  Q 90.33 90.92 82.77 90.99
  Q 69.31 91.12 57.74 97.81
  Q 53.04 100.53 51.09 104.08
  Q 47.73 110.19 51.99 115.43
  Q 54.43 118.44 60.50 121.19
  Q 67.71 124.45 75.31 126.67
  Q 81.19 128.39 83.11 129.09
  Q 86.93 130.48 90.67 132.09
  Q 96.23 134.49 100.56 138.69
  Q 103.93 141.95 104.00 146.65
  Q 104.05 150.44 101.63 154.45
  Q 98.68 159.34 93.56 163.31
  Q 86.56 168.74 79.16 172.00
  Q 71.93 175.18 63.30 177.13
  Q 53.24 179.39 43.75 178.25
  Q 30.48 176.65 37.25 165.73
  C 37.67 165.06 38.49 164.76 39.24 165.00
  Q 42.79 166.11 46.42 166.93
  Q 50.23 167.80 53.78 167.75
  Z"
/>
<path fill="#646464" d="
  M 161.93 128.42
  Q 157.44 124.53 153.35 122.37
  Q 142.99 116.90 132.71 111.27
  Q 127.45 108.39 124.06 104.19
  Q 122.44 102.18 122.06 99.16
  Q 121.33 93.37 125.40 94.48
  Q 126.80 94.86 129.22 96.60
  Q 150.36 111.78 172.56 123.44
  Q 175.34 124.90 177.02 126.95
  Q 179.40 129.85 176.52 132.28
  Q 172.37 135.80 165.69 140.44
  Q 163.17 142.19 160.16 144.89
  Q 158.10 146.74 155.19 149.96
  Q 148.35 157.51 141.16 164.73
  Q 138.53 167.36 136.70 167.89
  Q 133.29 168.88 130.94 165.56
  Q 128.82 162.57 131.92 159.91
  Q 135.14 157.14 137.97 153.98
  Q 147.24 143.65 151.69 140.19
  Q 157.68 135.53 161.99 131.44
  Q 163.63 129.90 161.93 128.42
  Z"
/>
</svg>
