<?xml version="1.0" standalone="no"?>
<!DOCTYPE svg PUBLIC "-//W3C//DTD SVG 20010904//EN"
 "http://www.w3.org/TR/2001/REC-SVG-20010904/DTD/svg10.dtd">
<svg version="1.0" xmlns="http://www.w3.org/2000/svg"
 width="976.000000pt" height="976.000000pt" viewBox="0 0 976.000000 976.000000"
 preserveAspectRatio="xMidYMid meet">
<metadata>
Created by potrace 1.14, written by Peter Selinger 2001-2017
</metadata>
<g transform="translate(0.000000,976.000000) scale(0.100000,-0.100000)"
fill="#000000" stroke="none">
<path d="M660 6194 l0 -3565 63 53 c34 29 64 55 67 58 3 3 27 24 55 45 27 22
57 47 66 55 9 8 37 33 64 55 26 22 61 52 79 67 17 14 65 55 106 90 41 34 77
65 80 68 3 3 32 27 65 55 33 27 65 54 71 60 7 5 29 24 49 40 20 17 45 37 54
45 9 8 44 37 76 65 33 27 65 54 71 60 6 5 89 75 184 155 95 80 210 176 254
214 45 38 103 87 130 110 27 22 57 49 67 59 11 9 23 17 28 17 5 0 11 4 13 9 3
9 61 59 235 204 23 19 48 41 56 48 7 8 28 25 46 39 18 14 47 39 65 55 19 17
42 37 53 45 44 35 139 114 148 124 6 6 31 28 57 49 26 21 53 43 60 50 7 7 54
46 103 87 96 80 140 117 161 137 7 7 15 13 19 13 3 0 20 15 38 33 18 17 49 44
68 59 18 15 46 37 61 50 33 29 56 48 143 121 85 71 174 147 191 165 7 6 15 12
19 12 3 0 16 10 29 23 12 12 44 40 71 62 57 47 185 156 201 170 6 5 25 21 43
35 17 14 47 39 66 57 20 17 49 42 66 55 16 12 42 34 58 48 15 14 38 34 52 45
53 44 144 120 149 125 3 3 61 53 130 110 69 58 139 117 155 132 17 16 35 28
40 28 6 0 26 -15 46 -33 20 -17 55 -48 78 -67 23 -19 54 -45 69 -58 15 -13 60
-51 101 -85 41 -33 86 -72 100 -85 14 -13 42 -36 60 -51 19 -14 46 -37 60 -50
15 -13 42 -35 61 -50 19 -14 48 -39 66 -56 17 -16 46 -41 63 -55 18 -13 43
-34 55 -45 12 -11 45 -39 72 -60 27 -22 56 -47 64 -55 8 -9 40 -36 70 -60 30
-25 60 -49 66 -55 6 -5 25 -21 43 -35 18 -14 47 -38 65 -55 18 -16 51 -46 75
-65 24 -19 53 -43 64 -53 12 -10 42 -36 67 -57 25 -21 55 -47 67 -57 11 -10
41 -34 64 -53 24 -19 56 -47 71 -61 15 -14 41 -36 59 -50 50 -38 101 -82 118
-101 9 -10 19 -18 24 -18 4 0 18 -10 30 -23 12 -12 49 -45 82 -72 33 -27 62
-52 65 -55 3 -3 32 -27 65 -55 33 -27 62 -52 65 -55 3 -3 19 -16 35 -29 29
-22 92 -75 179 -152 23 -19 63 -53 91 -75 27 -21 57 -46 65 -55 8 -9 40 -36
70 -60 30 -24 68 -56 85 -70 53 -46 250 -213 294 -249 24 -19 48 -39 55 -45 6
-5 40 -34 76 -64 36 -30 70 -60 75 -65 6 -6 30 -27 55 -47 25 -20 55 -45 66
-55 12 -11 41 -35 65 -55 49 -40 111 -93 147 -124 33 -28 59 -50 116 -98 28
-23 70 -59 95 -81 25 -21 55 -45 66 -55 44 -35 151 -126 166 -141 9 -8 25 -22
35 -30 42 -33 129 -106 144 -120 9 -8 38 -33 65 -55 27 -22 54 -44 60 -50 6
-5 23 -21 38 -34 l27 -24 0 3566 0 3567 -4225 0 -4225 0 0 -3566z"/>
<path d="M4735 5014 c-28 -25 -85 -78 -128 -116 -43 -39 -95 -87 -116 -107
-22 -20 -74 -67 -116 -106 -43 -38 -92 -83 -110 -100 -43 -41 -211 -194 -234
-214 -30 -26 -190 -173 -232 -213 -22 -21 -44 -38 -50 -38 -6 0 -7 -4 -4 -10
3 -5 2 -10 -2 -10 -5 0 -27 -17 -49 -37 -22 -21 -69 -64 -104 -96 -36 -32
-105 -96 -155 -142 -118 -110 -158 -145 -167 -145 -5 0 -8 -7 -8 -15 0 -8 -3
-15 -7 -15 -5 0 -24 -15 -44 -33 -38 -33 -199 -180 -255 -232 -17 -16 -64 -59
-104 -95 -40 -36 -89 -81 -110 -100 -20 -19 -77 -71 -125 -115 -49 -44 -102
-93 -120 -110 -17 -16 -66 -61 -108 -99 -42 -38 -96 -87 -121 -110 -24 -22
-81 -75 -126 -116 -45 -41 -102 -93 -126 -115 l-44 -41 0 -1237 c0 -680 3
-1237 8 -1237 4 0 30 22 58 48 28 26 82 74 119 107 37 33 82 74 100 90 18 17
52 47 76 69 133 118 239 213 300 268 48 44 193 174 249 223 25 22 56 51 70 65
14 14 41 38 60 54 19 15 73 64 120 107 47 43 96 87 109 99 33 27 180 160 203
182 10 10 20 18 22 18 2 0 22 17 44 37 21 21 72 67 112 103 40 36 85 76 100
90 15 14 62 57 105 95 43 39 90 81 105 95 15 14 55 49 88 79 34 29 74 65 90
80 16 14 64 58 107 96 43 39 88 79 101 90 12 11 54 49 94 85 40 36 85 76 100
90 15 14 61 54 101 90 40 36 89 80 108 99 69 66 75 67 118 26 21 -20 57 -52
79 -71 23 -19 61 -53 86 -77 24 -23 77 -71 117 -107 80 -71 78 -69 206 -185
136 -123 196 -177 239 -215 22 -19 51 -46 66 -60 15 -14 60 -54 101 -90 41
-36 83 -74 95 -85 25 -24 170 -156 203 -184 47 -41 165 -147 207 -187 24 -23
44 -40 44 -39 0 2 17 -13 39 -34 21 -20 66 -61 101 -91 34 -30 81 -73 105 -95
23 -22 68 -63 99 -90 32 -28 77 -68 100 -90 24 -22 74 -67 111 -100 38 -33 83
-74 101 -91 19 -17 66 -60 105 -95 40 -35 84 -75 98 -88 14 -13 52 -46 84 -75
33 -28 76 -67 96 -86 21 -19 73 -66 116 -105 43 -38 96 -87 119 -108 22 -20
43 -37 47 -37 3 0 6 557 6 1238 l0 1237 -37 35 c-21 19 -80 73 -131 120 -51
47 -109 101 -130 120 -21 19 -65 60 -99 90 -34 30 -82 75 -109 100 -40 38
-124 115 -261 240 -16 14 -69 63 -120 110 -51 47 -105 96 -120 110 -15 14 -74
68 -130 120 -57 52 -121 111 -143 130 -21 19 -58 53 -81 75 -23 22 -75 69
-115 105 -40 36 -104 95 -142 131 -38 36 -69 64 -69 62 0 -2 -15 11 -33 29
-18 18 -72 69 -121 113 -48 44 -103 94 -120 110 -18 17 -77 71 -131 120 -54
50 -110 101 -125 115 -129 119 -218 201 -236 217 -29 25 -214 195 -288 265
-34 32 -66 58 -71 58 -6 0 -33 -21 -60 -46z"/>
</g>
</svg>
