<?xml version="1.0" encoding="UTF-8" standalone="no"?>
<!DOCTYPE svg PUBLIC "-//W3C//DTD SVG 1.1//EN" "http://www.w3.org/Graphics/SVG/1.1/DTD/svg11.dtd">
<svg xmlns="http://www.w3.org/2000/svg" version="1.1" viewBox="0 0 32 32">
<path stroke="#a0a3a5" stroke-width="2.0" fill="none" stroke-linecap="butt" vector-effect="non-scaling-stroke" d="
  M 11.35 8.09
  Q 9.95 7.49 8.49 7.00
  Q 7.26 6.58 8.07 7.59
  Q 13.00 13.74 14.30 21.69
  Q 14.74 24.43 16.75 24.77
  Q 18.21 25.01 19.91 23.83
  Q 22.69 21.91 23.76 18.46
  Q 24.29 16.75 22.97 15.56
  Q 17.63 10.77 11.35 8.09"
/>
<path fill="#40464b" d="
  M 14.56 0.00
  Q 16.06 0.00 17.56 0.00
  Q 30.06 2.26 32.00 14.81
  Q 32.00 16.19 32.00 17.56
  Q 29.76 29.85 17.44 32.00
  Q 15.94 32.00 14.44 32.00
  Q 2.11 29.80 0.00 17.44
  Q 0.00 15.81 0.00 14.19
  Q 2.37 2.10 14.56 0.00
  Z
  M 11.35 8.09
  Q 9.95 7.49 8.49 7.00
  Q 7.26 6.58 8.07 7.59
  Q 13.00 13.74 14.30 21.69
  Q 14.74 24.43 16.75 24.77
  Q 18.21 25.01 19.91 23.83
  Q 22.69 21.91 23.76 18.46
  Q 24.29 16.75 22.97 15.56
  Q 17.63 10.77 11.35 8.09
  Z"
/>
<path fill="#ffffff" d="
  M 11.35 8.09
  Q 17.63 10.77 22.97 15.56
  Q 24.29 16.75 23.76 18.46
  Q 22.69 21.91 19.91 23.83
  Q 18.21 25.01 16.75 24.77
  Q 14.74 24.43 14.30 21.69
  Q 13.00 13.74 8.07 7.59
  Q 7.26 6.58 8.49 7.00
  Q 9.95 7.49 11.35 8.09
  Z"
/>
</svg>
