<svg width="21" height="21" viewBox="0 0 16 16" fill="none" xmlns="http://www.w3.org/2000/svg">
    <rect width="16" height="16" rx="1.5" fill="white"/>
    <path d="M5.63379 2.11926L7.72739 8.47495L7.72832 8.47458L7.7547 8.55152C7.85506 8.51008 7.96379 8.48499 8.07883 8.48331C8.20205 8.48127 8.32099 8.50561 8.43083 8.5504L8.4561 8.48034L8.46019 8.48183L10.4793 2.11926H10.3553L8.37731 8.3456L9.61005 2.11926H9.4898L8.2827 8.19915L8.86069 2.11926H8.74194L8.15205 8.37125C8.1435 8.37069 8.13533 8.36939 8.12678 8.36902L8.13942 8.36883L8.17659 2.11926H8.05783L8.02084 8.37069H8.02381C8.01861 8.37106 8.01359 8.37199 8.00839 8.37236L7.49118 2.11926H7.37205L7.87682 8.25732L6.55282 2.11926H6.43183L7.72143 8.09805L5.7585 2.11926H5.63379Z" fill="#C7C6C7"/>
    <path d="M8.72387 14.4557V10.6923H7.38965V14.4557L8.05666 13.7692L8.72387 14.4557Z" fill="#49AFD0"/>
    <path d="M12.3714 1.70007L10.7839 2.11935L8.4124 8.54436H7.75896L5.39737 2.08515L3.7998 1.70007L6.86112 10.0193L9.3411 10.0217L12.3714 1.70007Z" fill="#626062"/>
</svg>
