<?xml version="1.0" encoding="UTF-8" standalone="no"?>
<!DOCTYPE svg PUBLIC "-//W3C//DTD SVG 1.1//EN" "http://www.w3.org/Graphics/SVG/1.1/DTD/svg11.dtd">
<svg xmlns="http://www.w3.org/2000/svg" version="1.1" viewBox="0 0 256 256">
<g stroke-width="2.0" fill="none" stroke-linecap="butt">
<path stroke="#0c523d" vector-effect="non-scaling-stroke" d="
  M 184.54 51.97
  Q 180.42 48.82 175.52 48.12
  Q 174.68 48.00 165.97 48.00
  Q 124.49 48.00 83.00 48.00
  Q 70.11 48.00 65.52 59.10
  Q 64.26 62.17 64.22 67.10
  Q 63.84 113.39 63.98 159.69
  Q 64.01 169.24 64.55 171.25
  Q 66.20 177.38 72.57 180.67
  Q 99.00 194.28 125.53 207.68
  Q 127.94 208.90 130.56 207.56
  Q 154.68 195.31 178.71 182.89
  Q 178.78 182.85 181.97 181.37
  Q 191.71 176.86 191.75 164.75
  Q 191.93 116.53 191.54 68.31
  Q 191.49 62.26 190.30 59.36
  Q 188.51 55.00 184.54 51.97"
/>
<path stroke="#80bf30" vector-effect="non-scaling-stroke" d="
  M 114.45 99.28
  L 89.08 103.86
  Q 87.79 104.09 88.69 105.04
  L 106.78 124.16
  C 107.01 124.40 107.11 124.73 107.06 125.05
  L 103.29 150.48
  Q 103.17 151.31 103.92 150.94
  L 127.36 139.44
  C 127.83 139.21 128.38 139.20 128.84 139.43
  L 152.18 150.87
  Q 153.16 151.35 153.00 150.27
  L 149.35 124.94
  C 149.30 124.59 149.42 124.22 149.69 123.94
  L 167.85 104.69
  Q 168.21 104.30 167.70 104.21
  L 142.37 99.50
  C 141.77 99.39 141.27 99.02 140.98 98.50
  L 128.50 75.94
  Q 128.25 75.48 127.99 75.93
  L 115.17 98.75
  C 115.01 99.03 114.75 99.23 114.45 99.28"
/>
</g>
<path fill="#17191a" d="
  M 0.00 0.00
  Q 128.00 0.00 256.00 0.00
  Q 256.00 128.00 256.00 256.00
  Q 128.00 256.00 0.00 256.00
  Q 0.00 128.00 0.00 0.00
  Z
  M 184.54 51.97
  Q 180.42 48.82 175.52 48.12
  Q 174.68 48.00 165.97 48.00
  Q 124.49 48.00 83.00 48.00
  Q 70.11 48.00 65.52 59.10
  Q 64.26 62.17 64.22 67.10
  Q 63.84 113.39 63.98 159.69
  Q 64.01 169.24 64.55 171.25
  Q 66.20 177.38 72.57 180.67
  Q 99.00 194.28 125.53 207.68
  Q 127.94 208.90 130.56 207.56
  Q 154.68 195.31 178.71 182.89
  Q 178.78 182.85 181.97 181.37
  Q 191.71 176.86 191.75 164.75
  Q 191.93 116.53 191.54 68.31
  Q 191.49 62.26 190.30 59.36
  Q 188.51 55.00 184.54 51.97
  Z"
/>
<path fill="#008b60" d="
  M 184.54 51.97
  Q 188.51 55.00 190.30 59.36
  Q 191.49 62.26 191.54 68.31
  Q 191.93 116.53 191.75 164.75
  Q 191.71 176.86 181.97 181.37
  Q 178.78 182.85 178.71 182.89
  Q 154.68 195.31 130.56 207.56
  Q 127.94 208.90 125.53 207.68
  Q 99.00 194.28 72.57 180.67
  Q 66.20 177.38 64.55 171.25
  Q 64.01 169.24 63.98 159.69
  Q 63.84 113.39 64.22 67.10
  Q 64.26 62.17 65.52 59.10
  Q 70.11 48.00 83.00 48.00
  Q 124.49 48.00 165.97 48.00
  Q 174.68 48.00 175.52 48.12
  Q 180.42 48.82 184.54 51.97
  Z
  M 114.45 99.28
  L 89.08 103.86
  Q 87.79 104.09 88.69 105.04
  L 106.78 124.16
  C 107.01 124.40 107.11 124.73 107.06 125.05
  L 103.29 150.48
  Q 103.17 151.31 103.92 150.94
  L 127.36 139.44
  C 127.83 139.21 128.38 139.20 128.84 139.43
  L 152.18 150.87
  Q 153.16 151.35 153.00 150.27
  L 149.35 124.94
  C 149.30 124.59 149.42 124.22 149.69 123.94
  L 167.85 104.69
  Q 168.21 104.30 167.70 104.21
  L 142.37 99.50
  C 141.77 99.39 141.27 99.02 140.98 98.50
  L 128.50 75.94
  Q 128.25 75.48 127.99 75.93
  L 115.17 98.75
  C 115.01 99.03 114.75 99.23 114.45 99.28
  Z"
/>
<path fill="#fff300" d="
  M 115.17 98.75
  L 127.99 75.93
  Q 128.25 75.48 128.50 75.94
  L 140.98 98.50
  C 141.27 99.02 141.77 99.39 142.37 99.50
  L 167.70 104.21
  Q 168.21 104.30 167.85 104.69
  L 149.69 123.94
  C 149.42 124.22 149.30 124.59 149.35 124.94
  L 153.00 150.27
  Q 153.16 151.35 152.18 150.87
  L 128.84 139.43
  C 128.38 139.20 127.83 139.21 127.36 139.44
  L 103.92 150.94
  Q 103.17 151.31 103.29 150.48
  L 107.06 125.05
  C 107.11 124.73 107.01 124.40 106.78 124.16
  L 88.69 105.04
  Q 87.79 104.09 89.08 103.86
  L 114.45 99.28
  C 114.75 99.23 115.01 99.03 115.17 98.75
  Z"
/>
</svg>
