<?xml version="1.0" encoding="UTF-8" standalone="no"?>
<!DOCTYPE svg PUBLIC "-//W3C//DTD SVG 1.1//EN" "http://www.w3.org/Graphics/SVG/1.1/DTD/svg11.dtd">
<svg xmlns="http://www.w3.org/2000/svg" version="1.1" viewBox="0 0 96 96">
<path fill="#333333" d="
  M 96.00 28.31
  Q 96.00 54.06 96.00 79.81
  Q 93.55 85.73 88.18 87.12
  Q 86.72 87.50 78.29 87.50
  Q 48.40 87.50 18.51 87.50
  Q 9.08 87.50 8.02 87.25
  Q 2.09 85.85 0.00 78.94
  Q 0.00 54.06 0.00 29.19
  Q 1.30 24.09 5.38 21.83
  Q 7.77 20.51 12.86 20.51
  Q 17.52 20.52 22.18 20.44
  C 22.50 20.44 22.79 20.28 22.95 20.02
  L 29.40 9.42
  C 29.65 9.00 30.11 8.75 30.59 8.75
  L 65.50 8.75
  C 66.16 8.75 66.77 9.11 67.12 9.70
  L 73.29 20.01
  C 73.45 20.28 73.75 20.44 74.07 20.45
  Q 79.23 20.52 84.40 20.51
  Q 88.65 20.51 90.84 21.78
  Q 94.50 23.89 96.00 28.31
  Z
  M 27.44 28.72
  L 11.46 28.97
  Q 8.50 29.01 8.50 31.83
  L 8.50 76.77
  Q 8.50 78.75 10.48 78.75
  L 85.11 78.75
  Q 87.75 78.75 87.75 76.11
  L 87.75 31.49
  Q 87.75 29.06 85.34 29.05
  L 69.13 29.01
  C 68.69 29.00 68.28 28.76 68.05 28.37
  L 62.01 17.92
  C 61.85 17.65 61.57 17.49 61.25 17.48
  L 35.98 17.27
  C 35.30 17.26 34.66 17.62 34.30 18.21
  L 28.19 28.25
  C 28.02 28.54 27.73 28.71 27.44 28.72
  Z"
/>
<path fill="#333333" d="
  M 69.92 51.03
  C 69.92 63.08 60.16 72.84 48.11 72.84
  C 36.06 72.84 26.30 63.08 26.30 51.03
  C 26.30 38.98 36.06 29.22 48.11 29.22
  C 60.16 29.22 69.92 38.98 69.92 51.03
  Z
  M 61.26 51.02
  C 61.26 43.75 55.37 37.86 48.10 37.86
  C 40.83 37.86 34.94 43.75 34.94 51.02
  C 34.94 58.29 40.83 64.18 48.10 64.18
  C 55.37 64.18 61.26 58.29 61.26 51.02
  Z"
/>
</svg>
