<?xml version="1.0" encoding="UTF-8" standalone="no"?>
<!DOCTYPE svg PUBLIC "-//W3C//DTD SVG 1.1//EN" "http://www.w3.org/Graphics/SVG/1.1/DTD/svg11.dtd">
<svg xmlns="http://www.w3.org/2000/svg" version="1.1" viewBox="0 0 256 256">
<g stroke-width="2.0" fill="none" stroke-linecap="butt">
<path stroke="#f698a7" vector-effect="non-scaling-stroke" d="
  M 75.31 85.30
  C 75.31 77.54 69.02 71.25 61.26 71.25
  C 53.50 71.25 47.21 77.54 47.21 85.30
  C 47.21 93.06 53.50 99.35 61.26 99.35
  C 69.02 99.35 75.31 93.06 75.31 85.30"
/>
<path stroke="#f698a7" vector-effect="non-scaling-stroke" d="
  M 209.2201 122.8700
  C 206.30 91.43 177.88 68.35 145.7282 71.3345
  C 113.58 74.32 89.88 102.23 92.7999 133.6700
  C 95.72 165.11 124.14 188.19 156.2918 185.2055
  C 188.44 182.22 212.14 154.31 209.2201 122.8700"
/>
<path stroke="#f698a7" vector-effect="non-scaling-stroke" d="
  M 48.93 125.78
  L 48.93 182.06
  C 48.93 182.35 49.16 182.58 49.44 182.58
  L 73.31 182.58
  C 73.59 182.58 73.81 182.35 73.81 182.06
  L 73.75 118.83
  C 73.75 118.51 73.45 118.27 73.14 118.36
  L 49.57 124.94
  C 49.19 125.05 48.93 125.39 48.93 125.78"
/>
<path stroke="#f698a7" vector-effect="non-scaling-stroke" d="
  M 154.5419 163.6247
  C 172.93 161.79 186.26 144.50 184.3146 125.0168
  C 182.37 105.53 165.89 91.22 147.4981 93.0553
  C 129.11 94.89 115.78 112.18 117.7254 131.6632
  C 119.67 151.15 136.15 165.46 154.5419 163.6247"
/>
</g>
<path fill="#ec314e" d="
  M 0.00 0.00
  Q 128.00 0.00 256.00 0.00
  Q 256.00 128.00 256.00 256.00
  Q 128.00 256.00 0.00 256.00
  Q 0.00 128.00 0.00 0.00
  Z
  M 75.31 85.30
  C 75.31 77.54 69.02 71.25 61.26 71.25
  C 53.50 71.25 47.21 77.54 47.21 85.30
  C 47.21 93.06 53.50 99.35 61.26 99.35
  C 69.02 99.35 75.31 93.06 75.31 85.30
  Z
  M 209.2201 122.8700
  C 206.30 91.43 177.88 68.35 145.7282 71.3345
  C 113.58 74.32 89.88 102.23 92.7999 133.6700
  C 95.72 165.11 124.14 188.19 156.2918 185.2055
  C 188.44 182.22 212.14 154.31 209.2201 122.8700
  Z
  M 48.93 125.78
  L 48.93 182.06
  C 48.93 182.35 49.16 182.58 49.44 182.58
  L 73.31 182.58
  C 73.59 182.58 73.81 182.35 73.81 182.06
  L 73.75 118.83
  C 73.75 118.51 73.45 118.27 73.14 118.36
  L 49.57 124.94
  C 49.19 125.05 48.93 125.39 48.93 125.78
  Z"
/>
<circle fill="#ffffff" cx="61.26" cy="85.30" r="14.05"/>
<path fill="#ffffff" d="
  M 209.2201 122.8700
  C 212.14 154.31 188.44 182.22 156.2918 185.2055
  C 124.14 188.19 95.72 165.11 92.7999 133.6700
  C 89.88 102.23 113.58 74.32 145.7282 71.3345
  C 177.88 68.35 206.30 91.43 209.2201 122.8700
  Z
  M 154.5419 163.6247
  C 172.93 161.79 186.26 144.50 184.3146 125.0168
  C 182.37 105.53 165.89 91.22 147.4981 93.0553
  C 129.11 94.89 115.78 112.18 117.7254 131.6632
  C 119.67 151.15 136.15 165.46 154.5419 163.6247
  Z"
/>
<ellipse fill="#ec314e" cx="0.00" cy="0.00" transform="translate(151.02,128.34) rotate(84.3)" rx="35.46" ry="33.46"/>
<path fill="#ffffff" d="
  M 48.93 125.78
  C 48.93 125.39 49.19 125.05 49.57 124.94
  L 73.14 118.36
  C 73.45 118.27 73.75 118.51 73.75 118.83
  L 73.81 182.06
  C 73.81 182.35 73.59 182.58 73.31 182.58
  L 49.44 182.58
  C 49.16 182.58 48.93 182.35 48.93 182.06
  L 48.93 125.78
  Z"
/>
</svg>
