<svg xmlns:xlink="http://www.w3.org/1999/xlink" xmlns="http://www.w3.org/2000/svg" viewBox="0 0 138 121" fill="none"
    width="138" height="121">
    <path
        d="M137.256 72.9858C136.608 74.2919 135.628 75.4043 134.414 76.2109C133.2 77.0175 131.794 77.4898 130.34 77.5802C126.388 78.1279 125.66 79.4949 127.465 82.8827C128.021 83.7628 128.268 84.803 128.168 85.8392C128.067 86.8753 127.624 87.8485 126.909 88.6052C126.536 88.9727 126.286 89.4465 126.193 89.9616C126.1 90.4768 126.169 91.0081 126.389 91.4828C126.435 92.8138 126.174 94.1376 125.626 95.3513C125.14 96.5279 124.799 97.7595 124.612 99.0186C124.612 100.884 125.266 102.742 125.326 104.614C125.506 109.592 123.654 112.504 118.77 113.7C114.246 114.637 109.674 115.329 105.075 115.771C103.036 116.039 100.942 115.935 98.9226 116.276C97.5129 116.432 96.1672 116.948 95.0155 117.775C93.8637 118.603 92.945 119.714 92.3482 121H91.8314L90.0476 120.068C90.9306 118.305 92.2551 116.801 93.8921 115.702C95.529 114.603 97.4227 113.947 99.3886 113.798C104.598 113.258 109.82 112.84 115.024 112.262C116.383 112.057 117.713 111.697 118.989 111.188C120.211 110.858 121.277 110.105 121.997 109.064C122.717 108.022 123.045 106.76 122.923 105.5C122.804 103.28 122.186 101.067 122.231 98.8617C122.459 97.2404 122.868 95.65 123.451 94.1202C123.652 93.3419 124.131 92.3887 123.868 91.7821C123.475 91.1071 123.335 90.3145 123.472 89.5456C123.609 88.7767 124.014 88.0814 124.615 87.5834C124.918 87.3488 125.172 87.0561 125.36 86.7225C125.549 86.3889 125.669 86.0211 125.714 85.6405C125.759 85.2599 125.727 84.8742 125.621 84.5059C125.515 84.1377 125.336 83.7943 125.096 83.4958C122.97 79.5407 124.547 76.3556 128.888 75.3763C129.306 75.2814 129.728 75.2012 130.152 75.1326C134.403 74.4475 134.838 73.6774 132.951 69.8597C133.225 69.5666 133.522 69.2964 133.84 69.0519C134.152 68.8923 134.481 68.7689 134.821 68.6841L137.264 71.9541L137.256 72.9858Z"
        fill="black" />
    <path
        d="M90.7972 0C91.5777 0.277954 92.3586 0.554817 93.1402 0.830591C93.3233 3.34035 93.3233 3.34035 88.7256 2.39694V0H90.7972Z"
        fill="black" />
    <path
        d="M121.654 54.7112L122.414 48.2969L123.317 47.9962L124.895 49.7244C123.453 51.0291 125.797 54.3351 121.654 54.7112Z"
        fill="black" />
    <path d="M128.55 60.4255L126.54 61.9215L123.651 57.6949L125.703 56.2578L128.55 60.4255Z" fill="black" />
    <path d="M130.142 62.5659L133.139 66.5341L131.205 68.1691L128.244 64.1944L130.142 62.5659Z" fill="black" />
    <path d="M108.268 10.6016L109.828 8.68536L113.536 12.0666L111.911 13.9812L108.268 10.6016Z" fill="black" />
    <path d="M113.46 15.7634L115.31 14.1055L118.383 17.9428L116.464 19.5566L113.46 15.7634Z" fill="black" />
    <path d="M95.4531 3.8506L96.2461 1.46674L100.914 3.25381L99.866 5.48563L95.4531 3.8506Z" fill="black" />
    <path d="M117.876 21.5086L119.983 20.2006L122.501 24.2783L120.443 25.6828L117.876 21.5086Z" fill="black" />
    <path d="M125.639 31.5544L122.993 32.2542C123.32 30.3838 119.944 28.564 123.726 26.8129L125.639 31.5544Z"
        fill="black" />
    <path
        d="M126.363 46.7159L123.963 45.9769C124.146 44.6247 124.324 43.3118 124.537 41.7519L127.043 41.5361L126.363 46.7159Z"
        fill="black" />
    <path d="M103.339 4.40656L107.532 6.95065L106.282 9.08763L102.276 6.69723L103.339 4.40656Z" fill="black" />
    <path d="M123.467 34.6544L126.294 34.2178L127.051 38.9234C122.913 39.5447 124.925 36.1717 123.467 34.6544Z"
        fill="black" />
    <path
        d="M0 20.6421H14.5059C21.0994 20.6421 25.7696 22.3316 28.5165 25.7106C31.2633 29.0897 32.6367 33.9403 32.6367 40.2624V66.7923C32.6367 73.4413 31.3042 78.5377 28.6391 82.0814C25.974 85.625 21.4553 87.3957 15.0831 87.3936H0V20.6421ZM14.6694 82.7027C17.351 82.902 20.018 82.1589 22.2102 80.6017C23.9079 79.1636 25.0576 77.184 25.4655 74.9968C26.0204 71.9665 26.2691 68.8881 26.2078 65.808V40.9164C26.2862 37.9909 25.9817 35.0678 25.302 32.2213C24.7955 30.1923 23.5644 28.4186 21.8407 27.2345C19.5914 25.9419 17.0116 25.3398 14.4225 25.503H6.26378V82.7011L14.6694 82.7027Z"
        fill="black" />
    <path d="M59.5669 20.1434H65.8307V86.9014H59.5669V20.1434Z" fill="black" />
    <path
        d="M77.7034 20.1434H92.2093C98.8028 20.1434 103.473 21.833 106.22 25.212C108.967 28.5911 110.34 33.4416 110.34 39.7637V66.3018C110.34 72.9509 109.008 78.0473 106.342 81.5909C103.677 85.1345 99.1582 86.9064 92.7848 86.9064H77.7034V20.1434ZM92.3745 82.204C95.0561 82.4035 97.7231 81.6604 99.9152 80.103C101.613 78.665 102.763 76.6854 103.17 74.4981C103.725 71.4678 103.974 68.3894 103.913 65.3093V40.4177C103.991 37.4923 103.687 34.5692 103.007 31.7227C102.501 29.6937 101.269 27.92 99.5457 26.7358C97.2965 25.4431 94.7166 24.8409 92.1276 25.0043H83.9687V82.2024L92.3745 82.204Z"
        fill="black" />
    <path d="M38.8047 49.2093H52.2381V52.8815H38.8047V49.2093Z" fill="black" />
</svg>