<?xml version="1.0" encoding="UTF-8" standalone="no"?>
<!DOCTYPE svg PUBLIC "-//W3C//DTD SVG 1.1//EN" "http://www.w3.org/Graphics/SVG/1.1/DTD/svg11.dtd">
<svg xmlns="http://www.w3.org/2000/svg" version="1.1" viewBox="0 0 192 192">
<path fill="#fd971f" d="
  M 86.47 114.78
  Q 62.80 106.96 39.00 99.50
  Q 36.40 98.69 36.01 96.08
  Q 36.00 96.06 36.00 91.92
  Q 35.96 75.50 36.05 59.09
  Q 36.06 56.97 37.12 55.88
  Q 38.35 54.61 40.25 54.00
  Q 95.79 36.30 151.36 18.69
  Q 153.26 18.09 154.19 18.34
  Q 155.92 18.82 155.93 21.25
  Q 156.00 38.50 156.00 55.75
  Q 156.00 60.94 151.52 62.31
  Q 128.69 69.29 106.03 76.78
  Q 105.56 76.94 106.04 77.10
  Q 129.03 84.72 152.18 91.84
  Q 154.59 92.58 155.50 94.57
  Q 156.00 95.66 156.00 98.50
  Q 156.04 115.46 155.95 132.42
  Q 155.94 134.84 154.72 136.03
  Q 153.11 137.59 150.25 138.50
  Q 96.58 155.55 42.90 172.56
  Q 39.44 173.66 38.95 173.69
  Q 36.00 173.89 36.00 169.50
  Q 36.00 152.75 35.91 136.00
  Q 35.88 131.13 40.49 129.70
  Q 63.53 122.57 86.46 115.09
  Q 86.94 114.94 86.47 114.78
  Z"
/>
</svg>
