<?xml version="1.0" encoding="utf-8"?>
<!-- Generator: Adobe Illustrator 23.0.1, SVG Export Plug-In . SVG Version: 6.00 Build 0)  -->
<svg version="1.1" id="Layer_1" xmlns="http://www.w3.org/2000/svg" xmlns:xlink="http://www.w3.org/1999/xlink" x="0px" y="0px"
	 viewBox="0 0 101 101" style="enable-background:new 0 0 101 101;" xml:space="preserve">
<style type="text/css">
	.st0{fill:#FFFFFF;}
	.st1{fill:#2C282C;}
	.st2{fill:#173647;}
	.st3{fill:#50E4EA;}
	.st4{fill:#FCDC00;}
	.st5{fill:#85EA2D;}
	.st6{fill:#F4CF14;}
	.st7{fill:none;}
	.st8{fill:#04AADB;}
	.st9{fill:#07CED6;}
	.st10{fill:#63DB2A;}
	.st11{fill:#FF730B;}
	.st12{fill:#17D1FC;}
	.st13{fill:#00AADB;}
	.st14{fill:#758491;}
</style>
<g>
	<g>
		<g>
			<g>
				<g>
					<g>
						<path class="st5" d="M50.328,97.669c-26.27,0-47.643-21.371-47.643-47.642S24.058,2.385,50.328,2.385
							s47.643,21.373,47.643,47.643S76.598,97.669,50.328,97.669z"/>
					</g>
					<g>
						<g>
							<path class="st2" d="M50.328,4.769c24.996,0,45.258,20.262,45.258,45.258c0,24.995-20.262,45.258-45.258,45.258
								c-24.995,0-45.258-20.263-45.258-45.258C5.07,25.032,25.333,4.769,50.328,4.769 M50.328,0
								C22.743,0,0.301,22.442,0.301,50.027s22.442,50.027,50.027,50.027c27.585,0,50.028-22.442,50.028-50.027S77.913,0,50.328,0
								L50.328,0z"/>
						</g>
					</g>
				</g>
			</g>
		</g>
		<path class="st2" d="M31.802,33.854c-0.154,1.712,0.057,3.482-0.057,5.213c-0.135,1.732-0.347,3.444-0.693,5.156
			c-0.481,2.443-2.001,4.29-4.097,5.829c4.079,2.655,4.54,6.771,4.809,10.946c0.135,2.251,0.077,4.521,0.308,6.752
			c0.173,1.731,0.846,2.174,2.636,2.231c0.731,0.019,1.48,0,2.328,0v5.348c-5.29,0.904-9.657-0.596-10.735-5.078
			c-0.347-1.635-0.578-3.309-0.654-5.002c-0.116-1.789,0.076-3.578-0.058-5.367c-0.385-4.906-1.02-6.56-5.713-6.791v-6.098
			c0.346-0.077,0.673-0.135,1.019-0.173c2.578-0.135,3.674-0.924,4.232-3.463c0.27-1.423,0.424-2.866,0.481-4.328
			c0.193-2.789,0.116-5.636,0.596-8.406c0.673-3.982,3.136-5.906,7.234-6.137c1.154-0.058,2.328,0,3.655,0v5.464
			c-0.558,0.039-1.039,0.115-1.539,0.115C32.226,29.949,32.052,31.084,31.802,33.854z M38.208,46.512h-0.077
			c-1.924-0.096-3.578,1.404-3.675,3.328c-0.096,1.943,1.404,3.598,3.328,3.693h0.231c1.905,0.116,3.539-1.347,3.655-3.251V50.09
			C41.709,48.147,40.151,46.551,38.208,46.512z M50.27,46.512c-1.866-0.058-3.425,1.404-3.482,3.251c0,0.116,0,0.212,0.02,0.327
			c0,2.097,1.423,3.444,3.578,3.444c2.116,0,3.444-1.385,3.444-3.559C53.81,47.878,52.405,46.493,50.27,46.512z M62.621,46.512
			c-1.962-0.039-3.598,1.52-3.655,3.482c0,1.962,1.577,3.539,3.539,3.539h0.039c1.77,0.308,3.559-1.404,3.675-3.462
			C66.314,48.166,64.583,46.512,62.621,46.512z M79.569,46.8c-2.232-0.096-3.348-0.846-3.905-2.963
			c-0.347-1.346-0.558-2.751-0.635-4.136c-0.154-2.578-0.135-5.175-0.308-7.753c-0.404-6.117-4.828-8.252-11.254-7.195v5.31
			c1.019,0,1.808,0,2.597,0.019c1.366,0.019,2.405,0.539,2.539,2.059c0.135,1.385,0.135,2.789,0.27,4.194
			c0.27,2.79,0.423,5.617,0.904,8.368c0.424,2.27,1.982,3.963,3.924,5.348c-3.404,2.289-4.405,5.559-4.578,9.234
			c-0.096,2.52-0.154,5.059-0.288,7.599c-0.116,2.308-0.923,3.058-3.251,3.116c-0.654,0.019-1.289,0.077-2.02,0.116v5.444
			c1.366,0,2.616,0.077,3.866,0c3.886-0.231,6.233-2.116,7.003-5.887c0.327-2.078,0.519-4.174,0.577-6.271
			c0.134-1.924,0.116-3.867,0.308-5.771c0.288-2.982,1.654-4.213,4.636-4.405c0.289-0.039,0.558-0.096,0.828-0.192v-6.099
			C80.281,46.877,79.934,46.82,79.569,46.8z"/>
	</g>
</g>
</svg>
