<?xml version="1.0" encoding="UTF-8" standalone="no"?>
<!DOCTYPE svg PUBLIC "-//W3C//DTD SVG 1.1//EN" "http://www.w3.org/Graphics/SVG/1.1/DTD/svg11.dtd">
<svg xmlns="http://www.w3.org/2000/svg" version="1.1" viewBox="0 0 152 152">
<g stroke-width="2.0" fill="none" stroke-linecap="butt">
<path stroke="#8bcee9" vector-effect="non-scaling-stroke" d="
  M 42.02 125.44
  Q 72.07 145.28 104.88 129.09
  C 105.20 128.93 105.58 128.92 105.91 129.07
  Q 115.66 133.40 121.46 125.91
  Q 123.26 123.58 123.79 121.16
  Q 124.41 118.34 123.48 115.68
  Q 122.94 114.12 123.92 112.80
  Q 141.50 89.10 134.62 60.48
  C 134.55 60.19 134.63 59.87 134.85 59.63
  Q 140.44 53.54 137.19 46.31
  Q 133.80 38.81 125.06 39.64
  C 124.75 39.67 124.44 39.53 124.25 39.29
  Q 110.63 21.88 89.94 17.06
  Q 66.77 11.66 45.67 24.00
  Q 27.75 34.48 19.99 53.75
  Q 15.36 65.26 15.85 78.58
  C 15.87 79.13 15.63 79.66 15.20 80.00
  Q 9.34 84.72 10.14 91.11
  Q 10.63 95.02 13.15 97.73
  Q 15.83 100.61 20.06 101.22
  C 21.02 101.36 21.84 101.96 22.26 102.83
  Q 29.08 116.89 42.02 125.44"
/>
<path stroke="#8dd2ea" vector-effect="non-scaling-stroke" d="
  M 30.56 82.34
  Q 31.13 83.23 31.91 84.33
  C 32.16 84.68 32.57 84.86 33.00 84.82
  L 73.67 81.08
  Q 75.61 80.91 76.64 79.28
  Q 82.53 69.92 92.54 72.99
  C 93.31 73.23 94.16 73.06 94.79 72.54
  L 115.07 55.80
  C 115.46 55.48 115.63 54.96 115.49 54.47
  Q 113.86 48.91 117.17 44.21
  C 117.53 43.70 117.49 43.01 117.07 42.55
  Q 101.57 25.37 80.49 23.53
  Q 70.33 22.65 60.73 25.55
  Q 44.92 30.34 34.44 43.94
  Q 23.24 58.47 23.55 77.19
  C 23.56 77.50 23.73 77.78 24.01 77.92
  Q 26.52 79.20 28.92 80.67
  Q 29.88 81.26 30.56 82.34"
/>
<path stroke="#8acce8" vector-effect="non-scaling-stroke" d="
  M 126.70 63.25
  Q 123.71 61.85 120.57 61.81
  C 120.25 61.80 119.93 61.92 119.67 62.13
  L 99.28 78.95
  C 98.82 79.34 98.61 79.96 98.76 80.55
  Q 99.86 84.89 98.00 88.99
  Q 97.25 90.66 98.31 92.18
  L 108.48 106.79
  C 108.72 107.14 109.10 107.36 109.51 107.40
  L 117.06 108.15
  C 117.48 108.19 117.89 108.00 118.14 107.65
  Q 132.32 87.76 127.51 64.28
  C 127.42 63.83 127.12 63.45 126.70 63.25"
/>
<path stroke="#88c8e6" vector-effect="non-scaling-stroke" d="
  M 91.60 95.86
  Q 90.43 95.23 89.09 95.24
  Q 80.81 95.31 77.72 89.67
  C 77.32 88.95 76.54 88.54 75.72 88.61
  Q 56.50 90.41 38.75 92.00
  Q 35.80 92.26 34.04 92.69
  C 33.71 92.77 33.42 92.95 33.25 93.21
  L 29.87 98.11
  C 29.33 98.89 29.30 99.95 29.79 100.85
  Q 35.64 111.67 45.44 118.65
  Q 53.57 124.43 63.52 126.93
  Q 81.77 131.52 99.82 123.06
  C 100.47 122.76 100.84 122.07 100.76 121.36
  Q 100.24 116.97 102.21 113.15
  C 102.54 112.50 102.49 111.73 102.07 111.14
  Q 97.47 104.67 92.91 97.94
  Q 92.64 97.55 92.33 96.87
  Q 91.94 96.04 91.60 95.86"
/>
</g>
<path fill="#179cd2" d="
  M 71.81 0.00
  Q 76.69 0.00 81.56 0.00
  Q 108.28 2.71 127.19 19.81
  Q 149.13 39.65 152.00 70.31
  Q 152.00 76.31 152.00 82.31
  Q 147.65 121.70 114.69 141.69
  Q 100.25 150.44 81.94 152.00
  Q 76.19 152.00 70.44 152.00
  Q 50.57 150.34 35.25 140.25
  Q 3.10 119.07 0.00 79.44
  Q 0.00 76.44 0.00 73.44
  Q 2.11 39.62 26.69 18.44
  Q 45.48 2.24 71.81 0.00
  Z
  M 42.02 125.44
  Q 72.07 145.28 104.88 129.09
  C 105.20 128.93 105.58 128.92 105.91 129.07
  Q 115.66 133.40 121.46 125.91
  Q 123.26 123.58 123.79 121.16
  Q 124.41 118.34 123.48 115.68
  Q 122.94 114.12 123.92 112.80
  Q 141.50 89.10 134.62 60.48
  C 134.55 60.19 134.63 59.87 134.85 59.63
  Q 140.44 53.54 137.19 46.31
  Q 133.80 38.81 125.06 39.64
  C 124.75 39.67 124.44 39.53 124.25 39.29
  Q 110.63 21.88 89.94 17.06
  Q 66.77 11.66 45.67 24.00
  Q 27.75 34.48 19.99 53.75
  Q 15.36 65.26 15.85 78.58
  C 15.87 79.13 15.63 79.66 15.20 80.00
  Q 9.34 84.72 10.14 91.11
  Q 10.63 95.02 13.15 97.73
  Q 15.83 100.61 20.06 101.22
  C 21.02 101.36 21.84 101.96 22.26 102.83
  Q 29.08 116.89 42.02 125.44
  Z"
/>
<path fill="#ffffff" d="
  M 42.02 125.44
  Q 29.08 116.89 22.26 102.83
  C 21.84 101.96 21.02 101.36 20.06 101.22
  Q 15.83 100.61 13.15 97.73
  Q 10.63 95.02 10.14 91.11
  Q 9.34 84.72 15.20 80.00
  C 15.63 79.66 15.87 79.13 15.85 78.58
  Q 15.36 65.26 19.99 53.75
  Q 27.75 34.48 45.67 24.00
  Q 66.77 11.66 89.94 17.06
  Q 110.63 21.88 124.25 39.29
  C 124.44 39.53 124.75 39.67 125.06 39.64
  Q 133.80 38.81 137.19 46.31
  Q 140.44 53.54 134.85 59.63
  C 134.63 59.87 134.55 60.19 134.62 60.48
  Q 141.50 89.10 123.92 112.80
  Q 122.94 114.12 123.48 115.68
  Q 124.41 118.34 123.79 121.16
  Q 123.26 123.58 121.46 125.91
  Q 115.66 133.40 105.91 129.07
  C 105.58 128.92 105.20 128.93 104.88 129.09
  Q 72.07 145.28 42.02 125.44
  Z
  M 30.56 82.34
  Q 31.13 83.23 31.91 84.33
  C 32.16 84.68 32.57 84.86 33.00 84.82
  L 73.67 81.08
  Q 75.61 80.91 76.64 79.28
  Q 82.53 69.92 92.54 72.99
  C 93.31 73.23 94.16 73.06 94.79 72.54
  L 115.07 55.80
  C 115.46 55.48 115.63 54.96 115.49 54.47
  Q 113.86 48.91 117.17 44.21
  C 117.53 43.70 117.49 43.01 117.07 42.55
  Q 101.57 25.37 80.49 23.53
  Q 70.33 22.65 60.73 25.55
  Q 44.92 30.34 34.44 43.94
  Q 23.24 58.47 23.55 77.19
  C 23.56 77.50 23.73 77.78 24.01 77.92
  Q 26.52 79.20 28.92 80.67
  Q 29.88 81.26 30.56 82.34
  Z
  M 126.70 63.25
  Q 123.71 61.85 120.57 61.81
  C 120.25 61.80 119.93 61.92 119.67 62.13
  L 99.28 78.95
  C 98.82 79.34 98.61 79.96 98.76 80.55
  Q 99.86 84.89 98.00 88.99
  Q 97.25 90.66 98.31 92.18
  L 108.48 106.79
  C 108.72 107.14 109.10 107.36 109.51 107.40
  L 117.06 108.15
  C 117.48 108.19 117.89 108.00 118.14 107.65
  Q 132.32 87.76 127.51 64.28
  C 127.42 63.83 127.12 63.45 126.70 63.25
  Z
  M 91.60 95.86
  Q 90.43 95.23 89.09 95.24
  Q 80.81 95.31 77.72 89.67
  C 77.32 88.95 76.54 88.54 75.72 88.61
  Q 56.50 90.41 38.75 92.00
  Q 35.80 92.26 34.04 92.69
  C 33.71 92.77 33.42 92.95 33.25 93.21
  L 29.87 98.11
  C 29.33 98.89 29.30 99.95 29.79 100.85
  Q 35.64 111.67 45.44 118.65
  Q 53.57 124.43 63.52 126.93
  Q 81.77 131.52 99.82 123.06
  C 100.47 122.76 100.84 122.07 100.76 121.36
  Q 100.24 116.97 102.21 113.15
  C 102.54 112.50 102.49 111.73 102.07 111.14
  Q 97.47 104.67 92.91 97.94
  Q 92.64 97.55 92.33 96.87
  Q 91.94 96.04 91.60 95.86
  Z"
/>
<path fill="#1ba4d4" d="
  M 28.92 80.67
  Q 26.52 79.20 24.01 77.92
  C 23.73 77.78 23.56 77.50 23.55 77.19
  Q 23.24 58.47 34.44 43.94
  Q 44.92 30.34 60.73 25.55
  Q 70.33 22.65 80.49 23.53
  Q 101.57 25.37 117.07 42.55
  C 117.49 43.01 117.53 43.70 117.17 44.21
  Q 113.86 48.91 115.49 54.47
  C 115.63 54.96 115.46 55.48 115.07 55.80
  L 94.79 72.54
  C 94.16 73.06 93.31 73.23 92.54 72.99
  Q 82.53 69.92 76.64 79.28
  Q 75.61 80.91 73.67 81.08
  L 33.00 84.82
  C 32.57 84.86 32.16 84.68 31.91 84.33
  Q 31.13 83.23 30.56 82.34
  Q 29.88 81.26 28.92 80.67
  Z"
/>
<path fill="#1599d0" d="
  M 126.70 63.25
  C 127.12 63.45 127.42 63.83 127.51 64.28
  Q 132.32 87.76 118.14 107.65
  C 117.89 108.00 117.48 108.19 117.06 108.15
  L 109.51 107.40
  C 109.10 107.36 108.72 107.14 108.48 106.79
  L 98.31 92.18
  Q 97.25 90.66 98.00 88.99
  Q 99.86 84.89 98.76 80.55
  C 98.61 79.96 98.82 79.34 99.28 78.95
  L 119.67 62.13
  C 119.93 61.92 120.25 61.80 120.57 61.81
  Q 123.71 61.85 126.70 63.25
  Z"
/>
<path fill="#1191cd" d="
  M 91.60 95.86
  Q 91.94 96.04 92.33 96.87
  Q 92.64 97.55 92.91 97.94
  Q 97.47 104.67 102.07 111.14
  C 102.49 111.73 102.54 112.50 102.21 113.15
  Q 100.24 116.97 100.76 121.36
  C 100.84 122.07 100.47 122.76 99.82 123.06
  Q 81.77 131.52 63.52 126.93
  Q 53.57 124.43 45.44 118.65
  Q 35.64 111.67 29.79 100.85
  C 29.30 99.95 29.33 98.89 29.87 98.11
  L 33.25 93.21
  C 33.42 92.95 33.71 92.77 34.04 92.69
  Q 35.80 92.26 38.75 92.00
  Q 56.50 90.41 75.72 88.61
  C 76.54 88.54 77.32 88.95 77.72 89.67
  Q 80.81 95.31 89.09 95.24
  Q 90.43 95.23 91.60 95.86
  Z"
/>
</svg>
