<?xml version="1.0" encoding="UTF-8" standalone="no"?>
<!DOCTYPE svg PUBLIC "-//W3C//DTD SVG 1.1//EN" "http://www.w3.org/Graphics/SVG/1.1/DTD/svg11.dtd">
<svg xmlns="http://www.w3.org/2000/svg" version="1.1" viewBox="0 0 48 48">
<g stroke-width="2.0" fill="none" stroke-linecap="butt">
<path stroke="#90b5e2" vector-effect="non-scaling-stroke" d="
  M 34.56 21.43
  Q 35.96 23.24 38.74 20.35
  C 38.94 20.14 38.94 19.82 38.73 19.61
  L 29.52 10.39
  C 29.32 10.19 28.98 10.23 28.81 10.48
  L 27.29 12.78
  C 27.03 13.17 27.06 13.67 27.36 13.98
  Q 30.81 17.45 33.68 20.31
  Q 33.74 20.37 34.56 21.43"
/>
<path stroke="#90b5e2" vector-effect="non-scaling-stroke" d="
  M 21.47 28.93
  C 21.15 28.92 20.83 29.05 20.59 29.28
  L 14.14 35.46
  Q 13.39 36.18 14.39 36.42
  Q 15.54 36.69 17.17 36.34
  Q 23.80 34.89 30.45 33.54
  C 30.74 33.48 30.97 33.24 31.01 32.95
  L 32.37 23.05
  C 32.41 22.72 32.31 22.40 32.09 22.19
  L 26.90 17.32
  C 26.68 17.12 26.36 17.02 26.01 17.06
  L 15.50 18.21
  C 15.19 18.24 14.93 18.45 14.86 18.74
  L 11.48 32.35
  Q 10.59 35.93 13.26 33.41
  L 19.41 27.61
  C 19.61 27.42 19.68 27.10 19.61 26.78
  Q 19.15 24.82 20.81 23.81
  Q 22.54 22.77 24.05 23.62
  Q 25.36 24.36 25.50 26.00
  Q 25.74 29.02 21.47 28.93"
/>
</g>
<path fill="#206bc4" d="
  M 21.31 0.00
  Q 23.94 0.00 26.56 0.00
  Q 35.24 0.68 36.75 1.00
  Q 46.15 3.00 47.21 13.25
  Q 47.71 18.02 48.00 22.81
  Q 48.00 24.19 48.00 25.56
  Q 47.64 30.28 47.11 34.98
  Q 46.25 42.55 40.28 45.66
  Q 37.85 46.93 32.98 47.41
  Q 29.22 47.78 25.44 48.00
  Q 23.94 48.00 22.44 48.00
  Q 17.72 47.64 13.01 47.12
  Q 3.40 46.06 1.00 36.75
  Q 0.53 34.94 0.00 25.44
  Q 0.00 23.81 0.00 22.19
  Q 0.26 18.54 0.62 14.90
  Q 1.08 10.16 2.26 7.82
  Q 5.33 1.72 13.01 0.88
  Q 17.16 0.43 21.31 0.00
  Z
  M 34.56 21.43
  Q 35.96 23.24 38.74 20.35
  C 38.94 20.14 38.94 19.82 38.73 19.61
  L 29.52 10.39
  C 29.32 10.19 28.98 10.23 28.81 10.48
  L 27.29 12.78
  C 27.03 13.17 27.06 13.67 27.36 13.98
  Q 30.81 17.45 33.68 20.31
  Q 33.74 20.37 34.56 21.43
  Z
  M 21.47 28.93
  C 21.15 28.92 20.83 29.05 20.59 29.28
  L 14.14 35.46
  Q 13.39 36.18 14.39 36.42
  Q 15.54 36.69 17.17 36.34
  Q 23.80 34.89 30.45 33.54
  C 30.74 33.48 30.97 33.24 31.01 32.95
  L 32.37 23.05
  C 32.41 22.72 32.31 22.40 32.09 22.19
  L 26.90 17.32
  C 26.68 17.12 26.36 17.02 26.01 17.06
  L 15.50 18.21
  C 15.19 18.24 14.93 18.45 14.86 18.74
  L 11.48 32.35
  Q 10.59 35.93 13.26 33.41
  L 19.41 27.61
  C 19.61 27.42 19.68 27.10 19.61 26.78
  Q 19.15 24.82 20.81 23.81
  Q 22.54 22.77 24.05 23.62
  Q 25.36 24.36 25.50 26.00
  Q 25.74 29.02 21.47 28.93
  Z"
/>
<path fill="#ffffff" d="
  M 33.68 20.31
  Q 30.81 17.45 27.36 13.98
  C 27.06 13.67 27.03 13.17 27.29 12.78
  L 28.81 10.48
  C 28.98 10.23 29.32 10.19 29.52 10.39
  L 38.73 19.61
  C 38.94 19.82 38.94 20.14 38.74 20.35
  Q 35.96 23.24 34.56 21.43
  Q 33.74 20.37 33.68 20.31
  Z"
/>
<path fill="#ffffff" d="
  M 21.47 28.93
  Q 25.74 29.02 25.50 26.00
  Q 25.36 24.36 24.05 23.62
  Q 22.54 22.77 20.81 23.81
  Q 19.15 24.82 19.61 26.78
  C 19.68 27.10 19.61 27.42 19.41 27.61
  L 13.26 33.41
  Q 10.59 35.93 11.48 32.35
  L 14.86 18.74
  C 14.93 18.45 15.19 18.24 15.50 18.21
  L 26.01 17.06
  C 26.36 17.02 26.68 17.12 26.90 17.32
  L 32.09 22.19
  C 32.31 22.40 32.41 22.72 32.37 23.05
  L 31.01 32.95
  C 30.97 33.24 30.74 33.48 30.45 33.54
  Q 23.80 34.89 17.17 36.34
  Q 15.54 36.69 14.39 36.42
  Q 13.39 36.18 14.14 35.46
  L 20.59 29.28
  C 20.83 29.05 21.15 28.92 21.47 28.93
  Z"
/>
</svg>
