<?xml version="1.0" encoding="UTF-8" standalone="no"?>
<!DOCTYPE svg PUBLIC "-//W3C//DTD SVG 1.1//EN" "http://www.w3.org/Graphics/SVG/1.1/DTD/svg11.dtd">
<svg xmlns="http://www.w3.org/2000/svg" version="1.1" viewBox="0 0 180 180">
<g stroke-width="2.0" fill="none" stroke-linecap="butt">
<path stroke="#83dbea" vector-effect="non-scaling-stroke" d="
  M 136.55 71.48
  Q 132.19 70.34 128.66 67.59
  Q 128.36 67.36 122.25 61.49
  Q 117.15 56.60 115.81 55.44
  Q 108.73 49.30 99.38 47.49
  Q 90.64 45.81 81.61 47.39
  Q 63.06 50.63 56.11 70.08
  Q 55.49 71.82 54.75 73.50
  Q 53.86 75.53 55.31 73.81
  Q 58.01 70.63 61.37 68.15
  Q 70.61 61.33 80.66 64.88
  Q 84.08 66.08 87.70 69.08
  Q 90.90 71.72 93.72 74.78
  Q 110.96 93.51 136.39 87.72
  Q 145.76 85.59 151.56 79.31
  Q 157.94 72.41 160.63 62.22
  Q 160.82 61.49 160.29 61.65
  Q 160.05 61.73 159.81 62.06
  Q 154.27 70.03 145.11 71.74
  Q 140.70 72.56 136.55 71.48"
/>
<path stroke="#83dbea" vector-effect="non-scaling-stroke" d="
  M 124.90 104.44
  Q 122.63 106.88 120.37 108.89
  Q 117.76 111.21 115.17 112.48
  Q 104.91 117.50 95.31 111.61
  Q 93.20 110.32 90.11 107.40
  Q 86.92 104.41 85.31 102.69
  Q 70.37 86.75 48.23 89.56
  Q 29.79 91.91 22.15 108.67
  Q 20.51 112.28 19.35 116.08
  Q 19.03 117.12 19.56 116.94
  Q 19.77 116.87 19.98 116.58
  Q 24.86 109.73 32.06 107.31
  Q 38.62 105.11 44.81 107.26
  Q 48.60 108.57 54.23 113.64
  Q 57.89 116.94 61.49 120.31
  Q 65.91 124.45 69.23 126.34
  Q 82.27 133.75 96.95 131.24
  Q 105.63 129.76 111.54 125.74
  Q 118.24 121.19 121.95 113.38
  Q 123.82 109.45 125.18 104.60
  Q 125.37 103.94 124.90 104.44"
/>
</g>
<path fill="#ffffff" d="
  M 0.00 0.00
  Q 90.00 0.00 180.00 0.00
  Q 180.00 90.00 180.00 180.00
  Q 90.00 180.00 0.00 180.00
  Q 0.00 90.00 0.00 0.00
  Z
  M 136.55 71.48
  Q 132.19 70.34 128.66 67.59
  Q 128.36 67.36 122.25 61.49
  Q 117.15 56.60 115.81 55.44
  Q 108.73 49.30 99.38 47.49
  Q 90.64 45.81 81.61 47.39
  Q 63.06 50.63 56.11 70.08
  Q 55.49 71.82 54.75 73.50
  Q 53.86 75.53 55.31 73.81
  Q 58.01 70.63 61.37 68.15
  Q 70.61 61.33 80.66 64.88
  Q 84.08 66.08 87.70 69.08
  Q 90.90 71.72 93.72 74.78
  Q 110.96 93.51 136.39 87.72
  Q 145.76 85.59 151.56 79.31
  Q 157.94 72.41 160.63 62.22
  Q 160.82 61.49 160.29 61.65
  Q 160.05 61.73 159.81 62.06
  Q 154.27 70.03 145.11 71.74
  Q 140.70 72.56 136.55 71.48
  Z
  M 124.90 104.44
  Q 122.63 106.88 120.37 108.89
  Q 117.76 111.21 115.17 112.48
  Q 104.91 117.50 95.31 111.61
  Q 93.20 110.32 90.11 107.40
  Q 86.92 104.41 85.31 102.69
  Q 70.37 86.75 48.23 89.56
  Q 29.79 91.91 22.15 108.67
  Q 20.51 112.28 19.35 116.08
  Q 19.03 117.12 19.56 116.94
  Q 19.77 116.87 19.98 116.58
  Q 24.86 109.73 32.06 107.31
  Q 38.62 105.11 44.81 107.26
  Q 48.60 108.57 54.23 113.64
  Q 57.89 116.94 61.49 120.31
  Q 65.91 124.45 69.23 126.34
  Q 82.27 133.75 96.95 131.24
  Q 105.63 129.76 111.54 125.74
  Q 118.24 121.19 121.95 113.38
  Q 123.82 109.45 125.18 104.60
  Q 125.37 103.94 124.90 104.44
  Z"
/>
<path fill="#06b6d4" d="
  M 145.11 71.74
  Q 154.27 70.03 159.81 62.06
  Q 160.05 61.73 160.29 61.65
  Q 160.82 61.49 160.63 62.22
  Q 157.94 72.41 151.56 79.31
  Q 145.76 85.59 136.39 87.72
  Q 110.96 93.51 93.72 74.78
  Q 90.90 71.72 87.70 69.08
  Q 84.08 66.08 80.66 64.88
  Q 70.61 61.33 61.37 68.15
  Q 58.01 70.63 55.31 73.81
  Q 53.86 75.53 54.75 73.50
  Q 55.49 71.82 56.11 70.08
  Q 63.06 50.63 81.61 47.39
  Q 90.64 45.81 99.38 47.49
  Q 108.73 49.30 115.81 55.44
  Q 117.15 56.60 122.25 61.49
  Q 128.36 67.36 128.66 67.59
  Q 132.19 70.34 136.55 71.48
  Q 140.70 72.56 145.11 71.74
  Z"
/>
<path fill="#06b6d4" d="
  M 124.90 104.44
  Q 125.37 103.94 125.18 104.60
  Q 123.82 109.45 121.95 113.38
  Q 118.24 121.19 111.54 125.74
  Q 105.63 129.76 96.95 131.24
  Q 82.27 133.75 69.23 126.34
  Q 65.91 124.45 61.49 120.31
  Q 57.89 116.94 54.23 113.64
  Q 48.60 108.57 44.81 107.26
  Q 38.62 105.11 32.06 107.31
  Q 24.86 109.73 19.98 116.58
  Q 19.77 116.87 19.56 116.94
  Q 19.03 117.12 19.35 116.08
  Q 20.51 112.28 22.15 108.67
  Q 29.79 91.91 48.23 89.56
  Q 70.37 86.75 85.31 102.69
  Q 86.92 104.41 90.11 107.40
  Q 93.20 110.32 95.31 111.61
  Q 104.91 117.50 115.17 112.48
  Q 117.76 111.21 120.37 108.89
  Q 122.63 106.88 124.90 104.44
  Z"
/>
</svg>
