<?xml version="1.0" encoding="UTF-8" standalone="no"?>
<!DOCTYPE svg PUBLIC "-//W3C//DTD SVG 1.1//EN" "http://www.w3.org/Graphics/SVG/1.1/DTD/svg11.dtd">
<svg xmlns="http://www.w3.org/2000/svg" version="1.1" viewBox="0 0 264 180">
<g stroke-width="2.0" fill="none" stroke-linecap="butt">
<path stroke="#45a4ff" vector-effect="non-scaling-stroke" d="
  M 195.50 83.79
  L 148.87 83.75
  C 148.37 83.75 148.00 83.27 148.13 82.78
  L 159.46 41.50"
/>
<path stroke="#0b53da" vector-effect="non-scaling-stroke" d="
  M 131.25 41.46
  Q 129.41 41.46 127.57 41.59
  Q 126.59 41.66 123.91 41.66
  Q 115.76 41.65 113.56 49.56
  Q 106.94 73.42 100.21 97.25"
/>
</g>
<path fill="#74caff" d="
  M 178.06 0.00
  Q 220.06 0.00 262.06 0.00
  Q 262.36 0.54 262.15 1.01
  Q 261.95 1.44 261.92 1.53
  Q 250.66 42.31 239.31 83.06
  C 239.20 83.47 238.83 83.75 238.40 83.75
  L 195.50 83.79
  L 148.87 83.75
  C 148.37 83.75 148.00 83.27 148.13 82.78
  L 159.46 41.50
  Q 164.31 24.93 168.75 8.25
  Q 170.58 1.38 178.06 0.00
  Z"
/>
<path fill="#0028b4" d="
  M 131.25 41.46
  Q 129.41 41.46 127.57 41.59
  Q 126.59 41.66 123.91 41.66
  Q 115.76 41.65 113.56 49.56
  Q 106.94 73.42 100.21 97.25
  Q 99.38 97.00 97.25 97.00
  Q 49.00 97.00 0.94 97.00
  C 0.51 97.00 0.19 96.59 0.31 96.17
  Q 9.84 61.85 19.21 28.12
  Q 21.52 19.80 21.77 19.31
  Q 23.38 16.16 26.65 14.57
  Q 28.86 13.50 33.03 13.50
  Q 85.64 13.50 138.08 13.50
  C 138.56 13.50 138.90 13.96 138.77 14.43
  L 131.25 41.46
  Z"
/>
<path fill="#157eff" d="
  M 131.25 41.46
  L 159.46 41.50
  L 148.13 82.78
  C 148.00 83.27 148.37 83.75 148.87 83.75
  L 195.50 83.79
  L 195.31 84.07
  Q 195.00 84.53 194.97 84.64
  Q 186.72 114.81 178.20 144.90
  Q 178.18 144.97 173.60 161.79
  Q 171.10 170.95 168.19 180.00
  Q 122.94 180.00 77.69 180.00
  Q 77.62 179.58 77.56 179.16
  Q 77.50 178.76 77.61 178.35
  Q 89.01 137.83 100.21 97.25
  Q 106.94 73.42 113.56 49.56
  Q 115.76 41.65 123.91 41.66
  Q 126.59 41.66 127.57 41.59
  Q 129.41 41.46 131.25 41.46
  Z"
/>
</svg>
