<svg id="Component_111_2" data-name="Component 111 – 2" xmlns="http://www.w3.org/2000/svg" xmlns:xlink="http://www.w3.org/1999/xlink" width="46.716" height="42.467" viewBox="0 0 46.716 42.467">
  <defs>
    <clipPath id="clip-path">
      <path id="Path_1569" data-name="Path 1569" d="M430.009,256.607a4.184,4.184,0,0,1,1.82,3.034v4.854l-29.122,15.471h-7.28A4.749,4.749,0,0,1,393,277.791C395.528,275.263,429.1,256,429.1,256Z" transform="translate(-393 -256)" fill="none"/>
    </clipPath>
    <linearGradient id="linear-gradient" x1="0.5" y1="0.965" x2="0.5" y2="-0.187" gradientUnits="objectBoundingBox">
      <stop offset="0.191" stop-color="#dfe3e5"/>
      <stop offset="1" stop-color="#fff"/>
    </linearGradient>
    <clipPath id="clip-path-2">
      <path id="Path_1573" data-name="Path 1573" d="M394.82,257.3s-1.82.91-1.82,3.944v4.247l28.819,15.471h7.28a4.749,4.749,0,0,0,2.427-2.174C429,276.263,395.427,257,395.427,257Z" transform="translate(-393 -257)" fill="none"/>
    </clipPath>
    <linearGradient id="linear-gradient-2" x1="0.393" y1="0.946" x2="0.563" y2="0.238" gradientUnits="objectBoundingBox">
      <stop offset="0.119" stop-color="#d3d8db"/>
      <stop offset="1" stop-color="#fff"/>
    </linearGradient>
    <clipPath id="clip-path-3">
      <path id="Path_1576" data-name="Path 1576" d="M411.808,250.923H393V226.958h2.932v-8.292h19.819Z" transform="translate(-393 -218.667)" fill="none"/>
    </clipPath>
    <linearGradient id="linear-gradient-3" x1="0.665" y1="0.032" x2="0.354" y2="0.917" gradientUnits="objectBoundingBox">
      <stop offset="0" stop-color="#36bbff"/>
      <stop offset="0.309" stop-color="#28a0e7"/>
      <stop offset="0.969" stop-color="#045ba9"/>
      <stop offset="1" stop-color="#0358a7"/>
    </linearGradient>
    <linearGradient id="linear-gradient-4" x1="0.5" y1="0.987" x2="0.5" y2="0.053" gradientUnits="objectBoundingBox">
      <stop offset="0" stop-color="#e4e4e4"/>
      <stop offset="1" stop-color="#fff"/>
    </linearGradient>
  </defs>
  <path id="Path_1567" data-name="Path 1567" d="M423.639,234.306H400.98l-7.031,7.941a3.626,3.626,0,0,0-.949,2.445v16.823a3.651,3.651,0,0,0,3.64,3.64h31.549a3.651,3.651,0,0,0,3.64-3.64V244.692a2.591,2.591,0,0,0-.836-2.193l-6.606-7.517Z" transform="translate(-385.113 -222.704)" fill="#0a4fbf"/>
  <g id="Group_893" data-name="Group 893" transform="translate(10.921)">
    <rect id="Rectangle_1715" data-name="Rectangle 1715" width="32.762" height="36.384" rx="3" fill="#0a4fbf"/>
    <rect id="Rectangle_1716" data-name="Rectangle 1716" width="8.217" height="7.532" transform="translate(8.113 20.965)" fill="#0a4fbf"/>
    <rect id="Rectangle_1717" data-name="Rectangle 1717" width="8.217" height="8.217" transform="translate(0 12.749)" fill="#0a4fbf"/>
    <rect id="Rectangle_1718" data-name="Rectangle 1718" width="8.217" height="7.532" transform="translate(0 20.965)" fill="#0a4fbf"/>
    <rect id="Rectangle_1719" data-name="Rectangle 1719" width="8.191" height="8.191" transform="translate(24.572 4.532)" fill="#43d7ff"/>
    <rect id="Rectangle_1720" data-name="Rectangle 1720" width="8.191" height="8.191" transform="translate(16.381 4.532)" fill="#36bbff"/>
    <rect id="Rectangle_1721" data-name="Rectangle 1721" width="8.191" height="8.191" transform="translate(8.191 4.532)" fill="#13a4e5"/>
    <rect id="Rectangle_1722" data-name="Rectangle 1722" width="8.191" height="8.191" transform="translate(0 4.532)" fill="#0f77ea"/>
    <rect id="Rectangle_1723" data-name="Rectangle 1723" width="8.191" height="8.191" transform="translate(24.572 12.723)" fill="#36bbff"/>
    <rect id="Rectangle_1724" data-name="Rectangle 1724" width="8.191" height="8.191" transform="translate(16.381 12.723)" fill="#13a4e5"/>
    <rect id="Rectangle_1725" data-name="Rectangle 1725" width="8.191" height="8.191" transform="translate(8.191 12.723)" fill="#0f77ea"/>
    <rect id="Rectangle_1726" data-name="Rectangle 1726" width="8.191" height="8.191" transform="translate(0 12.723)" fill="#1159ea"/>
    <rect id="Rectangle_1727" data-name="Rectangle 1727" width="8.191" height="8.191" transform="translate(24.572 20.913)" fill="#13a4e5"/>
    <rect id="Rectangle_1728" data-name="Rectangle 1728" width="8.191" height="8.191" transform="translate(16.381 20.913)" fill="#0f77ea"/>
    <rect id="Rectangle_1729" data-name="Rectangle 1729" width="8.191" height="8.191" transform="translate(8.191 20.913)" fill="#1159ea"/>
    <rect id="Rectangle_1730" data-name="Rectangle 1730" width="8.191" height="8.191" transform="translate(0 20.913)" fill="#0a4fbf"/>
    <rect id="Rectangle_1731" data-name="Rectangle 1731" width="8.191" height="8.191" transform="translate(24.572 29.104)" fill="#0f77ea"/>
    <rect id="Rectangle_1732" data-name="Rectangle 1732" width="8.191" height="8.191" transform="translate(16.381 29.104)" fill="#1159ea"/>
    <rect id="Rectangle_1733" data-name="Rectangle 1733" width="8.191" height="8.191" transform="translate(8.191 29.104)" fill="#0a4fbf"/>
    <rect id="Rectangle_1734" data-name="Rectangle 1734" width="8.191" height="8.191" transform="translate(0 29.104)" fill="#063e8e"/>
  </g>
  <g id="Group_895" data-name="Group 895" transform="translate(7.887 18.183)">
    <g id="Group_894" data-name="Group 894" clip-path="url(#clip-path)">
      <path id="Path_1568" data-name="Path 1568" d="M400.877,290.444l38.412-23.294-2.729-3.85-37.806,23.9Z" transform="translate(-397.009 -261.086)" opacity="0.4"/>
    </g>
  </g>
  <path id="Path_1570" data-name="Path 1570" d="M405,287.006h31.549a3.651,3.651,0,0,0,3.64-3.64V266.543Z" transform="translate(-393.473 -245.162)" fill="#d0d8dd"/>
  <path id="Path_1571" data-name="Path 1571" d="M405,289.006h31.549a3.651,3.651,0,0,0,3.64-3.64V268.543Z" transform="translate(-393.473 -246.555)" fill="url(#linear-gradient)"/>
  <g id="Group_897" data-name="Group 897" transform="translate(7.887 18.486)">
    <g id="Group_896" data-name="Group 896" clip-path="url(#clip-path-2)">
      <path id="Path_1572" data-name="Path 1572" d="M420.035,288.748l-38.412-23.294,2.426-4.153,37.806,26.024Z" transform="translate(-385.074 -259.996)" opacity="0.5"/>
    </g>
  </g>
  <path id="Path_1574" data-name="Path 1574" d="M428.29,287.628l-31.65-.015a3.651,3.651,0,0,1-3.64-3.64v-17.43l36.057,20.98Z" transform="translate(-385.113 -245.162)" fill="#d0d8dd"/>
  <path id="Path_1575" data-name="Path 1575" d="M428.189,289.006H396.64a3.651,3.651,0,0,1-3.64-3.64V268.543Z" transform="translate(-385.113 -246.555)" fill="url(#linear-gradient-2)"/>
  <g id="Group_899" data-name="Group 899" transform="translate(7.887 6.858)">
    <g id="Group_898" data-name="Group 898" clip-path="url(#clip-path-3)">
      <rect id="Rectangle_1735" data-name="Rectangle 1735" width="22.448" height="22.448" rx="11.224" transform="translate(-6.977 4.651)" opacity="0.5"/>
    </g>
  </g>
  <g id="Group_902" data-name="Group 902" transform="translate(0 10.296)">
    <g id="Group_900" data-name="Group 900">
      <circle id="Ellipse_313" data-name="Ellipse 313" cx="11.376" cy="11.376" r="11.376" fill="url(#linear-gradient-3)"/>
      <circle id="Ellipse_314" data-name="Ellipse 314" cx="10.761" cy="10.761" r="10.761" transform="translate(0.615 0.615)" fill="#0f77ea"/>
    </g>
    <circle id="Ellipse_315" data-name="Ellipse 315" cx="8.609" cy="8.609" r="8.609" transform="translate(2.767 2.767)" fill="url(#linear-gradient-4)"/>
    <g id="Group_901" data-name="Group 901" transform="translate(9.531 3.689)">
      <circle id="Ellipse_316" data-name="Ellipse 316" cx="1.845" cy="1.845" r="1.845" transform="translate(0 5.842)" fill="#0f77ea"/>
      <rect id="Rectangle_1736" data-name="Rectangle 1736" width="1.845" height="8.609" rx="0.922" transform="translate(0.922)" fill="#0f77ea"/>
      <rect id="Rectangle_1737" data-name="Rectangle 1737" width="1.845" height="7.071" rx="0.922" transform="translate(6.905 4.044) rotate(60)" fill="#0f77ea"/>
      <circle id="Ellipse_317" data-name="Ellipse 317" cx="0.615" cy="0.615" r="0.615" transform="translate(1.23 7.071)" fill="#fff"/>
    </g>
  </g>
</svg>
