<?xml version="1.0" encoding="UTF-8" standalone="no"?>
<!DOCTYPE svg PUBLIC "-//W3C//DTD SVG 1.1//EN" "http://www.w3.org/Graphics/SVG/1.1/DTD/svg11.dtd">
<svg xmlns="http://www.w3.org/2000/svg" version="1.1" viewBox="0.00 0.00 50.00 50.00">
<g stroke-width="2.00" fill="none" stroke-linecap="butt">
<path stroke="#29654b" vector-effect="non-scaling-stroke" d="
  M 26.59 26.59
  Q 31.41 21.59 36.32 17.02
  A 0.44 0.44 0.0 0 0 36.02 16.25
  L 14.81 16.25
  A 0.36 0.36 0.0 0 0 14.56 16.87
  L 24.52 26.60
  Q 24.75 26.83 24.75 27.16
  L 24.75 27.77
  A 0.32 0.32 0.0 0 1 24.21 28.00
  L 13.59 17.72
  A 0.35 0.35 0.0 0 0 13.00 17.97
  L 13.00 33.02
  A 0.36 0.36 0.0 0 0 13.60 33.28
  Q 16.82 30.26 19.95 26.95
  Q 20.49 26.38 21.13 26.34
  A 0.57 0.56 20.5 0 1 21.57 27.30
  L 14.53 34.35
  A 0.39 0.38 22.2 0 0 14.81 35.00
  L 36.24 35.00
  A 0.47 0.47 0.0 0 0 36.57 34.20
  L 28.86 26.49
  Q 28.47 26.10 28.12 26.52
  L 27.04 27.79
  A 0.43 0.43 0.0 0 1 26.32 27.70
  Q 26.07 27.13 26.59 26.59"
/>
<path stroke="#29654b" vector-effect="non-scaling-stroke" d="
  M 37.67 33.55
  A 0.36 0.36 0.0 0 0 38.28 33.29
  L 38.22 17.71
  A 0.36 0.36 0.0 0 0 37.61 17.46
  L 29.58 25.27
  A 0.36 0.36 0.0 0 0 29.58 25.79
  L 37.67 33.55"
/>
</g>
<path fill="#2ca570" d="
  M 48.36 25.07
  A 23.28 23.28 0.0 0 1 25.08 48.35
  A 23.28 23.28 0.0 0 1 1.80 25.07
  A 23.28 23.28 0.0 0 1 25.08 1.79
  A 23.28 23.28 0.0 0 1 48.36 25.07
  Z
  M 26.59 26.59
  Q 31.41 21.59 36.32 17.02
  A 0.44 0.44 0.0 0 0 36.02 16.25
  L 14.81 16.25
  A 0.36 0.36 0.0 0 0 14.56 16.87
  L 24.52 26.60
  Q 24.75 26.83 24.75 27.16
  L 24.75 27.77
  A 0.32 0.32 0.0 0 1 24.21 28.00
  L 13.59 17.72
  A 0.35 0.35 0.0 0 0 13.00 17.97
  L 13.00 33.02
  A 0.36 0.36 0.0 0 0 13.60 33.28
  Q 16.82 30.26 19.95 26.95
  Q 20.49 26.38 21.13 26.34
  A 0.57 0.56 20.5 0 1 21.57 27.30
  L 14.53 34.35
  A 0.39 0.38 22.2 0 0 14.81 35.00
  L 36.24 35.00
  A 0.47 0.47 0.0 0 0 36.57 34.20
  L 28.86 26.49
  Q 28.47 26.10 28.12 26.52
  L 27.04 27.79
  A 0.43 0.43 0.0 0 1 26.32 27.70
  Q 26.07 27.13 26.59 26.59
  Z
  M 37.67 33.55
  A 0.36 0.36 0.0 0 0 38.28 33.29
  L 38.22 17.71
  A 0.36 0.36 0.0 0 0 37.61 17.46
  L 29.58 25.27
  A 0.36 0.36 0.0 0 0 29.58 25.79
  L 37.67 33.55
  Z"
/>
<path fill="#262526" d="
  M 26.59 26.59
  Q 26.07 27.13 26.32 27.70
  A 0.43 0.43 0.0 0 0 27.04 27.79
  L 28.12 26.52
  Q 28.47 26.10 28.86 26.49
  L 36.57 34.20
  A 0.47 0.47 0.0 0 1 36.24 35.00
  L 14.81 35.00
  A 0.39 0.38 22.2 0 1 14.53 34.35
  L 21.57 27.30
  A 0.57 0.56 20.5 0 0 21.13 26.34
  Q 20.49 26.38 19.95 26.95
  Q 16.82 30.26 13.60 33.28
  A 0.36 0.36 0.0 0 1 13.00 33.02
  L 13.00 17.97
  A 0.35 0.35 0.0 0 1 13.59 17.72
  L 24.21 28.00
  A 0.32 0.32 0.0 0 0 24.75 27.77
  L 24.75 27.16
  Q 24.75 26.83 24.52 26.60
  L 14.56 16.87
  A 0.36 0.36 0.0 0 1 14.81 16.25
  L 36.02 16.25
  A 0.44 0.44 0.0 0 1 36.32 17.02
  Q 31.41 21.59 26.59 26.59
  Z"
/>
<path fill="#262526" d="
  M 37.67 33.55
  L 29.58 25.79
  A 0.36 0.36 0.0 0 1 29.58 25.27
  L 37.61 17.46
  A 0.36 0.36 0.0 0 1 38.22 17.71
  L 38.28 33.29
  A 0.36 0.36 0.0 0 1 37.67 33.55
  Z"
/>
</svg>
