<?xml version="1.0" encoding="UTF-8" standalone="no"?>
<!DOCTYPE svg PUBLIC "-//W3C//DTD SVG 1.1//EN" "http://www.w3.org/Graphics/SVG/1.1/DTD/svg11.dtd">
<svg xmlns="http://www.w3.org/2000/svg" version="1.1" viewBox="0 0 231 231">
<g stroke-width="2.0" fill="none" stroke-linecap="butt">
<path stroke="#131721" vector-effect="non-scaling-stroke" d="
  M 24.13 86.89
  Q 24.63 87.74 25.47 86.66
  C 25.65 86.42 25.61 86.08 25.37 85.92
  Q 24.74 85.51 24.23 86.04
  C 24.01 86.26 23.97 86.61 24.13 86.89"
/>
<path stroke="#131721" vector-effect="non-scaling-stroke" d="
  M 195.81 85.94
  Q 195.03 85.65 191.94 86.11
  C 191.56 86.17 191.30 86.46 191.43 86.67
  Q 191.68 87.07 193.07 86.89
  Q 193.98 86.78 194.90 86.76
  Q 197.90 86.71 195.81 85.94"
/>
<path stroke="#131721" vector-effect="non-scaling-stroke" d="
  M 206.15 86.94
  C 206.38 87.35 206.97 87.37 207.21 86.97
  Q 208.01 85.69 206.76 85.58
  Q 205.33 85.46 206.15 86.94"
/>
<path stroke="#131721" vector-effect="non-scaling-stroke" d="
  M 39.09 86.19
  Q 21.99 85.96 38.80 86.74
  Q 39.01 86.75 39.19 86.71
  Q 40.03 86.53 39.51 86.27
  Q 39.34 86.19 39.09 86.19"
/>
<path stroke="#131721" vector-effect="non-scaling-stroke" d="
  M 50.47 87.04
  Q 46.74 86.52 43.00 86.00
  Q 42.38 85.91 41.89 86.33
  C 41.71 86.48 41.79 86.78 42.03 86.87
  Q 45.06 87.98 48.25 88.08
  Q 53.16 88.23 53.24 88.23
  Q 57.36 88.55 61.86 88.49
  Q 62.92 88.48 61.89 88.22
  Q 59.10 87.53 56.19 87.41
  Q 51.94 87.25 50.47 87.04"
/>
<path stroke="#131721" vector-effect="non-scaling-stroke" d="
  M 188.31 86.19
  Q 184.50 86.12 177.54 87.47
  Q 177.05 87.57 177.56 87.63
  Q 182.91 88.26 188.19 87.28
  C 188.56 87.21 188.86 87.03 188.99 86.79
  Q 189.32 86.21 188.31 86.19"
/>
<path stroke="#4d5465" vector-effect="non-scaling-stroke" d="
  M 45.25 99.21
  L 40.54 96.25"
/>
<path stroke="#7e7e7f" vector-effect="non-scaling-stroke" d="
  M 40.54 96.25
  Q 40.26 95.88 39.89 95.67
  Q 39.60 95.51 39.07 95.52
  Q 36.53 95.59 34.19 94.56
  C 33.87 94.42 33.52 94.64 33.50 94.98
  Q 33.32 97.95 33.52 100.89
  Q 33.78 104.71 33.72 106.75
  Q 33.38 117.91 33.46 129.08
  Q 33.46 129.12 33.32 136.42
  Q 33.24 140.46 33.69 144.50
  C 33.73 144.85 33.90 145.14 34.16 145.29
  Q 35.20 145.88 36.10 145.05
  C 36.32 144.85 36.44 144.54 36.43 144.19
  Q 36.18 123.79 36.25 103.40
  Q 36.25 103.29 36.13 101.61
  Q 35.97 99.19 37.97 99.37
  Q 38.92 99.45 40.51 100.40
  Q 52.04 107.26 63.38 114.42
  C 63.68 114.60 64.01 114.67 64.32 114.61
  Q 67.06 114.06 64.56 111.94
  Q 59.77 107.87 45.25 99.21"
/>
<path stroke="#cad2e4" vector-effect="non-scaling-stroke" d="
  M 40.54 96.25
  Q 38.94 96.69 39.90 97.42
  Q 40.39 97.80 40.64 98.05
  Q 42.45 99.87 45.25 99.21"
/>
<path stroke="#4d5465" vector-effect="non-scaling-stroke" d="
  M 190.96 96.25
  Q 187.64 97.41 185.04 99.75"
/>
<path stroke="#7e7e7f" vector-effect="non-scaling-stroke" d="
  M 185.04 99.75
  L 174.96 106.00"
/>
<path stroke="#4d5465" vector-effect="non-scaling-stroke" d="
  M 174.96 106.00
  Q 167.31 110.69 166.00 112.00
  Q 164.69 113.30 166.21 114.75"
/>
<path stroke="#7e7e7f" vector-effect="non-scaling-stroke" d="
  M 166.21 114.75
  Q 166.83 115.26 167.32 114.84
  Q 167.83 114.40 167.86 114.38
  Q 179.62 107.30 191.35 99.84
  Q 194.69 97.70 194.70 101.66
  L 194.75 144.49
  C 194.75 144.83 194.91 145.13 195.16 145.28
  Q 196.25 145.90 197.07 145.22
  Q 197.67 144.71 197.80 143.45
  Q 198.15 139.99 198.04 136.50"
/>
<path stroke="#131721" vector-effect="non-scaling-stroke" d="
  M 198.04 136.50
  Q 198.83 136.12 198.86 135.18
  Q 198.99 131.46 199.34 127.76
  Q 200.06 120.15 199.66 112.53
  Q 199.65 112.34 199.68 107.46
  Q 199.70 104.88 199.01 102.38
  Q 198.74 101.37 198.61 99.43
  Q 198.50 97.91 197.79 96.50"
/>
<path stroke="#7e7e7f" vector-effect="non-scaling-stroke" d="
  M 197.79 96.50
  Q 198.19 93.89 195.90 95.05
  Q 194.42 95.80 192.81 95.39
  Q 191.75 95.11 190.96 96.25"
/>
<path stroke="#9195a0" vector-effect="non-scaling-stroke" d="
  M 197.79 96.50
  Q 197.67 98.58 197.39 100.64
  Q 197.07 102.96 197.09 104.77
  Q 197.35 120.64 198.04 136.50"
/>
<path stroke="#cad2e4" vector-effect="non-scaling-stroke" d="
  M 166.21 114.75
  Q 166.13 112.54 167.77 111.96
  Q 169.99 111.17 170.07 111.12
  Q 173.11 109.17 174.96 106.00"
/>
<path stroke="#cad2e4" vector-effect="non-scaling-stroke" d="
  M 185.04 99.75
  Q 188.78 99.30 191.06 98.31
  Q 192.53 97.68 190.96 96.25"
/>
<path stroke="#131721" vector-effect="non-scaling-stroke" d="
  M 199.78 147.39
  Q 199.50 143.38 199.03 147.24
  Q 199.00 147.52 199.07 147.76
  Q 199.28 148.38 199.56 148.16
  C 199.72 148.03 199.80 147.74 199.78 147.39"
/>
</g>
<path fill="#000000" d="
  M 0.00 0.00
  Q 115.50 0.00 231.00 0.00
  Q 231.00 115.50 231.00 231.00
  Q 115.50 231.00 0.00 231.00
  Q 0.00 115.50 0.00 0.00
  Z
  M 24.13 86.89
  Q 24.63 87.74 25.47 86.66
  C 25.65 86.42 25.61 86.08 25.37 85.92
  Q 24.74 85.51 24.23 86.04
  C 24.01 86.26 23.97 86.61 24.13 86.89
  Z
  M 195.81 85.94
  Q 195.03 85.65 191.94 86.11
  C 191.56 86.17 191.30 86.46 191.43 86.67
  Q 191.68 87.07 193.07 86.89
  Q 193.98 86.78 194.90 86.76
  Q 197.90 86.71 195.81 85.94
  Z
  M 206.15 86.94
  C 206.38 87.35 206.97 87.37 207.21 86.97
  Q 208.01 85.69 206.76 85.58
  Q 205.33 85.46 206.15 86.94
  Z
  M 39.09 86.19
  Q 21.99 85.96 38.80 86.74
  Q 39.01 86.75 39.19 86.71
  Q 40.03 86.53 39.51 86.27
  Q 39.34 86.19 39.09 86.19
  Z
  M 50.47 87.04
  Q 46.74 86.52 43.00 86.00
  Q 42.38 85.91 41.89 86.33
  C 41.71 86.48 41.79 86.78 42.03 86.87
  Q 45.06 87.98 48.25 88.08
  Q 53.16 88.23 53.24 88.23
  Q 57.36 88.55 61.86 88.49
  Q 62.92 88.48 61.89 88.22
  Q 59.10 87.53 56.19 87.41
  Q 51.94 87.25 50.47 87.04
  Z
  M 188.31 86.19
  Q 184.50 86.12 177.54 87.47
  Q 177.05 87.57 177.56 87.63
  Q 182.91 88.26 188.19 87.28
  C 188.56 87.21 188.86 87.03 188.99 86.79
  Q 189.32 86.21 188.31 86.19
  Z
  M 45.25 99.21
  L 40.54 96.25
  Q 40.26 95.88 39.89 95.67
  Q 39.60 95.51 39.07 95.52
  Q 36.53 95.59 34.19 94.56
  C 33.87 94.42 33.52 94.64 33.50 94.98
  Q 33.32 97.95 33.52 100.89
  Q 33.78 104.71 33.72 106.75
  Q 33.38 117.91 33.46 129.08
  Q 33.46 129.12 33.32 136.42
  Q 33.24 140.46 33.69 144.50
  C 33.73 144.85 33.90 145.14 34.16 145.29
  Q 35.20 145.88 36.10 145.05
  C 36.32 144.85 36.44 144.54 36.43 144.19
  Q 36.18 123.79 36.25 103.40
  Q 36.25 103.29 36.13 101.61
  Q 35.97 99.19 37.97 99.37
  Q 38.92 99.45 40.51 100.40
  Q 52.04 107.26 63.38 114.42
  C 63.68 114.60 64.01 114.67 64.32 114.61
  Q 67.06 114.06 64.56 111.94
  Q 59.77 107.87 45.25 99.21
  Z
  M 190.96 96.25
  Q 187.64 97.41 185.04 99.75
  L 174.96 106.00
  Q 167.31 110.69 166.00 112.00
  Q 164.69 113.30 166.21 114.75
  Q 166.83 115.26 167.32 114.84
  Q 167.83 114.40 167.86 114.38
  Q 179.62 107.30 191.35 99.84
  Q 194.69 97.70 194.70 101.66
  L 194.75 144.49
  C 194.75 144.83 194.91 145.13 195.16 145.28
  Q 196.25 145.90 197.07 145.22
  Q 197.67 144.71 197.80 143.45
  Q 198.15 139.99 198.04 136.50
  Q 198.83 136.12 198.86 135.18
  Q 198.99 131.46 199.34 127.76
  Q 200.06 120.15 199.66 112.53
  Q 199.65 112.34 199.68 107.46
  Q 199.70 104.88 199.01 102.38
  Q 198.74 101.37 198.61 99.43
  Q 198.50 97.91 197.79 96.50
  Q 198.19 93.89 195.90 95.05
  Q 194.42 95.80 192.81 95.39
  Q 191.75 95.11 190.96 96.25
  Z
  M 199.78 147.39
  Q 199.50 143.38 199.03 147.24
  Q 199.00 147.52 199.07 147.76
  Q 199.28 148.38 199.56 148.16
  C 199.72 148.03 199.80 147.74 199.78 147.39
  Z"
/>
<path fill="#262d42" d="
  M 24.23 86.04
  Q 24.74 85.51 25.37 85.92
  C 25.61 86.08 25.65 86.42 25.47 86.66
  Q 24.63 87.74 24.13 86.89
  C 23.97 86.61 24.01 86.26 24.23 86.04
  Z"
/>
<path fill="#262d42" d="
  M 195.81 85.94
  Q 197.90 86.71 194.90 86.76
  Q 193.98 86.78 193.07 86.89
  Q 191.68 87.07 191.43 86.67
  C 191.30 86.46 191.56 86.17 191.94 86.11
  Q 195.03 85.65 195.81 85.94
  Z"
/>
<path fill="#262d42" d="
  M 206.15 86.94
  Q 205.33 85.46 206.76 85.58
  Q 208.01 85.69 207.21 86.97
  C 206.97 87.37 206.38 87.35 206.15 86.94
  Z"
/>
<path fill="#262d42" d="
  M 39.51 86.27
  Q 40.03 86.53 39.19 86.71
  Q 39.01 86.75 38.80 86.74
  Q 21.99 85.96 39.09 86.19
  Q 39.34 86.19 39.51 86.27
  Z"
/>
<path fill="#262d42" d="
  M 56.19 87.41
  Q 59.10 87.53 61.89 88.22
  Q 62.92 88.48 61.86 88.49
  Q 57.36 88.55 53.24 88.23
  Q 53.16 88.23 48.25 88.08
  Q 45.06 87.98 42.03 86.87
  C 41.79 86.78 41.71 86.48 41.89 86.33
  Q 42.38 85.91 43.00 86.00
  Q 46.74 86.52 50.47 87.04
  Q 51.94 87.25 56.19 87.41
  Z"
/>
<path fill="#262d42" d="
  M 188.31 86.19
  Q 189.32 86.21 188.99 86.79
  C 188.86 87.03 188.56 87.21 188.19 87.28
  Q 182.91 88.26 177.56 87.63
  Q 177.05 87.57 177.54 87.47
  Q 184.50 86.12 188.31 86.19
  Z"
/>
<path fill="#fbfcfe" d="
  M 40.54 96.25
  Q 38.94 96.69 39.90 97.42
  Q 40.39 97.80 40.64 98.05
  Q 42.45 99.87 45.25 99.21
  Q 59.77 107.87 64.56 111.94
  Q 67.06 114.06 64.32 114.61
  C 64.01 114.67 63.68 114.60 63.38 114.42
  Q 52.04 107.26 40.51 100.40
  Q 38.92 99.45 37.97 99.37
  Q 35.97 99.19 36.13 101.61
  Q 36.25 103.29 36.25 103.40
  Q 36.18 123.79 36.43 144.19
  C 36.44 144.54 36.32 144.85 36.10 145.05
  Q 35.20 145.88 34.16 145.29
  C 33.90 145.14 33.73 144.85 33.69 144.50
  Q 33.24 140.46 33.32 136.42
  Q 33.46 129.12 33.46 129.08
  Q 33.38 117.91 33.72 106.75
  Q 33.78 104.71 33.52 100.89
  Q 33.32 97.95 33.50 94.98
  C 33.52 94.64 33.87 94.42 34.19 94.56
  Q 36.53 95.59 39.07 95.52
  Q 39.60 95.51 39.89 95.67
  Q 40.26 95.88 40.54 96.25
  Z"
/>
<path fill="#fbfcfe" d="
  M 197.79 96.50
  Q 197.67 98.58 197.39 100.64
  Q 197.07 102.96 197.09 104.77
  Q 197.35 120.64 198.04 136.50
  Q 198.15 139.99 197.80 143.45
  Q 197.67 144.71 197.07 145.22
  Q 196.25 145.90 195.16 145.28
  C 194.91 145.13 194.75 144.83 194.75 144.49
  L 194.70 101.66
  Q 194.69 97.70 191.35 99.84
  Q 179.62 107.30 167.86 114.38
  Q 167.83 114.40 167.32 114.84
  Q 166.83 115.26 166.21 114.75
  Q 166.13 112.54 167.77 111.96
  Q 169.99 111.17 170.07 111.12
  Q 173.11 109.17 174.96 106.00
  L 185.04 99.75
  Q 188.78 99.30 191.06 98.31
  Q 192.53 97.68 190.96 96.25
  Q 191.75 95.11 192.81 95.39
  Q 194.42 95.80 195.90 95.05
  Q 198.19 93.89 197.79 96.50
  Z"
/>
<path fill="#99a8c9" d="
  M 40.54 96.25
  L 45.25 99.21
  Q 42.45 99.87 40.64 98.05
  Q 40.39 97.80 39.90 97.42
  Q 38.94 96.69 40.54 96.25
  Z"
/>
<path fill="#99a8c9" d="
  M 190.96 96.25
  Q 192.53 97.68 191.06 98.31
  Q 188.78 99.30 185.04 99.75
  Q 187.64 97.41 190.96 96.25
  Z"
/>
<path fill="#262d42" d="
  M 197.79 96.50
  Q 198.50 97.91 198.61 99.43
  Q 198.74 101.37 199.01 102.38
  Q 199.70 104.88 199.68 107.46
  Q 199.65 112.34 199.66 112.53
  Q 200.06 120.15 199.34 127.76
  Q 198.99 131.46 198.86 135.18
  Q 198.83 136.12 198.04 136.50
  Q 197.35 120.64 197.09 104.77
  Q 197.07 102.96 197.39 100.64
  Q 197.67 98.58 197.79 96.50
  Z"
/>
<path fill="#99a8c9" d="
  M 174.96 106.00
  Q 173.11 109.17 170.07 111.12
  Q 169.99 111.17 167.77 111.96
  Q 166.13 112.54 166.21 114.75
  Q 164.69 113.30 166.00 112.00
  Q 167.31 110.69 174.96 106.00
  Z"
/>
<path fill="#262d42" d="
  M 199.56 148.16
  Q 199.28 148.38 199.07 147.76
  Q 199.00 147.52 199.03 147.24
  Q 199.50 143.38 199.78 147.39
  C 199.80 147.74 199.72 148.03 199.56 148.16
  Z"
/>
</svg>
