<?xml version="1.0" encoding="UTF-8" standalone="no"?>
<!DOCTYPE svg PUBLIC "-//W3C//DTD SVG 1.1//EN" "http://www.w3.org/Graphics/SVG/1.1/DTD/svg11.dtd">
<svg xmlns="http://www.w3.org/2000/svg" version="1.1" viewBox="0 0 200 200">
<path fill="#31beec" d="
  M 32.28 79.40
  Q 26.63 76.00 20.97 73.11
  Q 19.28 72.25 20.92 71.29
  L 91.96 29.88
  Q 92.50 29.57 92.50 30.20
  L 92.50 67.22
  C 92.50 67.56 92.32 67.88 92.02 68.05
  L 52.49 90.94
  C 52.22 91.09 51.90 91.09 51.64 90.94
  Q 41.94 85.21 32.28 79.40
  Z"
/>
<path fill="#0095d5" d="
  M 112.99 70.72
  Q 110.61 69.34 108.24 67.94
  C 107.97 67.79 107.81 67.50 107.81 67.18
  Q 107.70 49.62 107.75 32.07
  Q 107.75 31.69 107.69 30.93
  Q 107.52 28.57 108.86 30.15
  Q 109.23 30.59 109.64 30.82
  Q 144.75 51.21 179.80 71.68
  Q 180.75 72.23 179.76 72.72
  Q 177.95 73.60 176.32 74.61
  Q 174.99 75.44 172.87 76.42
  Q 171.29 77.16 169.87 78.17
  Q 167.82 79.64 167.00 80.11
  Q 157.63 85.49 148.67 90.85
  C 148.24 91.11 147.70 91.11 147.27 90.85
  Q 129.81 80.53 112.99 70.72
  Z"
/>
<path fill="#aeadae" d="
  M 100.32 118.72
  C 100.05 118.88 99.71 118.88 99.43 118.71
  L 68.89 100.92
  C 68.20 100.52 68.20 99.52 68.89 99.11
  L 98.80 81.57
  C 99.52 81.15 100.39 81.15 101.09 81.56
  L 132.07 99.75
  C 132.27 99.87 132.27 100.15 132.08 100.26
  L 100.32 118.72
  Z"
/>
<path fill="#0095d5" d="
  M 91.90 132.00
  C 92.23 132.18 92.44 132.52 92.44 132.89
  L 92.50 169.05
  C 92.50 169.57 91.94 169.90 91.48 169.64
  Q 55.69 149.22 20.11 128.25
  Q 20.02 128.19 16.70 125.88
  Q 14.58 124.41 12.00 123.75
  C 11.71 123.67 11.50 123.41 11.50 123.11
  L 11.50 85.80
  Q 11.50 85.22 12.00 85.51
  Q 26.83 94.20 40.70 102.38
  Q 59.87 113.68 79.35 124.42
  Q 81.48 125.60 85.58 128.28
  Q 88.53 130.21 91.90 132.00
  Z"
/>
<path fill="#31beec" d="
  M 116.73 126.78
  Q 117.28 126.17 118.44 125.69
  Q 121.86 124.25 127.42 120.99
  Q 156.92 103.70 187.13 86.03
  Q 187.94 85.56 187.94 86.49
  L 188.00 122.60
  C 188.00 123.08 187.75 123.51 187.35 123.75
  L 108.64 169.68
  Q 107.75 170.20 107.75 169.17
  L 107.75 133.26
  C 107.75 132.70 108.04 132.18 108.52 131.89
  L 116.00 127.44
  Q 116.29 127.27 116.73 126.78
  Z"
/>
</svg>
