<?xml version="1.0" encoding="UTF-8" standalone="no"?>
<!DOCTYPE svg PUBLIC "-//W3C//DTD SVG 1.1//EN" "http://www.w3.org/Graphics/SVG/1.1/DTD/svg11.dtd">
<svg xmlns="http://www.w3.org/2000/svg" version="1.1" viewBox="0 0 180 180">
<g stroke-width="2.0" fill="none" stroke-linecap="butt">
<path stroke="#ffffff" vector-effect="non-scaling-stroke" d="
  M 123.19 180.00
  Q 123.54 179.74 123.40 179.59
  Q 123.32 179.50 123.08 179.50
  Q 88.89 179.31 54.71 179.75"
/>
<path stroke="#ffffff" vector-effect="non-scaling-stroke" d="
  M 122.21 0.37
  C 122.21 0.30 122.16 0.25 122.09 0.25
  L 25.67 0.25
  C 25.60 0.25 25.55 0.30 25.55 0.37
  L 25.55 0.39
  C 25.55 0.46 25.60 0.51 25.67 0.51
  L 122.09 0.51
  C 122.16 0.51 122.21 0.46 122.21 0.39
  L 122.21 0.37"
/>
<path stroke="#808080" vector-effect="non-scaling-stroke" d="
  M 54.94 125.31
  Q 60.32 128.79 68.33 130.35
  C 68.62 130.40 68.83 130.65 68.83 130.94
  L 68.83 155.82
  C 68.83 156.10 68.61 156.32 68.32 156.34
  Q 62.54 156.63 56.75 156.47
  Q 53.16 156.36 51.17 158.62
  Q 49.30 160.73 49.84 163.77
  Q 50.62 168.26 56.00 168.50
  Q 62.53 168.79 74.97 168.33
  Q 77.50 168.23 78.82 167.33
  Q 80.74 166.02 81.19 163.78
  Q 81.25 163.51 81.25 158.20
  Q 81.25 144.57 81.25 130.66
  C 81.25 130.30 81.55 130.00 81.91 130.00
  L 116.26 130.00
  C 116.50 130.00 116.69 130.19 116.69 130.42
  L 116.76 155.45
  C 116.76 156.06 116.26 156.55 115.66 156.53
  Q 109.34 156.39 103.96 156.62
  Q 100.90 156.75 99.35 157.93
  Q 97.00 159.70 97.06 162.69
  Q 97.12 165.51 99.40 167.15
  Q 100.90 168.24 103.87 168.34
  Q 113.06 168.66 122.25 168.56
  Q 125.99 168.51 127.81 166.03
  Q 129.00 164.40 128.98 160.69
  Q 128.89 145.44 129.18 130.19
  C 129.19 129.89 129.37 129.62 129.65 129.51
  Q 131.77 128.71 133.87 127.87
  Q 136.63 126.77 138.37 125.70
  Q 147.01 120.38 150.09 111.13
  Q 151.50 106.90 151.50 98.21
  Q 151.50 68.48 151.52 38.75
  Q 151.52 29.98 146.69 23.31
  Q 138.12 11.50 123.00 11.49
  Q 74.87 11.45 26.74 11.56
  Q 24.59 11.56 23.59 12.36
  Q 21.78 13.79 23.44 16.31
  Q 32.34 29.82 41.54 44.35
  C 41.84 44.83 42.00 45.38 42.00 45.95
  Q 42.00 73.87 42.15 101.00
  Q 42.24 117.10 54.94 125.31"
/>
<path stroke="#808080" vector-effect="non-scaling-stroke" d="
  M 73.91 35.55
  Q 73.54 34.66 73.28 33.73
  Q 72.75 31.89 72.10 31.12
  Q 69.64 28.20 66.65 31.43
  C 66.43 31.67 66.30 31.98 66.29 32.31
  Q 66.10 39.97 71.43 43.39
  Q 76.36 46.55 82.07 44.83
  Q 88.67 42.84 90.60 34.56
  Q 91.31 31.54 88.54 30.14
  Q 85.97 28.84 84.23 31.09
  Q 83.64 31.85 83.44 33.61
  Q 83.25 35.33 82.44 36.19
  Q 78.87 39.97 75.05 37.06
  Q 74.30 36.49 73.91 35.55"
/>
</g>
<path fill="#ffffff" d="
  M 24.06 0.00
  Q 74.94 0.00 125.81 0.00
  Q 138.43 0.87 148.06 8.44
  Q 162.94 20.12 163.02 39.50
  Q 163.13 68.59 163.03 97.69
  Q 163.00 107.59 161.57 112.66
  Q 157.06 128.76 141.10 137.31
  C 140.73 137.51 140.50 137.89 140.50 138.31
  Q 140.50 146.03 140.50 153.76
  Q 140.50 165.23 139.05 169.05
  Q 135.56 178.21 123.94 180.00
  Q 123.56 180.00 123.19 180.00
  Q 123.54 179.74 123.40 179.59
  Q 123.32 179.50 123.08 179.50
  Q 88.89 179.31 54.71 179.75
  Q 49.53 179.68 45.45 176.54
  Q 39.50 171.97 38.46 165.28
  Q 37.49 158.95 41.01 153.26
  Q 45.98 145.24 56.94 144.95
  C 57.24 144.94 57.47 144.71 57.47 144.43
  L 57.47 139.81
  C 57.47 139.52 57.27 139.25 56.97 139.12
  Q 34.16 129.64 31.15 106.98
  Q 30.75 103.99 30.75 87.00
  Q 30.75 68.42 30.75 49.99
  C 30.75 49.15 30.50 48.32 30.04 47.61
  Q 21.79 34.93 14.06 22.69
  Q 11.38 18.43 11.40 14.08
  Q 11.42 9.74 14.11 5.99
  Q 17.56 1.19 24.06 0.00
  Z
  M 122.21 0.37
  C 122.21 0.30 122.16 0.25 122.09 0.25
  L 25.67 0.25
  C 25.60 0.25 25.55 0.30 25.55 0.37
  L 25.55 0.39
  C 25.55 0.46 25.60 0.51 25.67 0.51
  L 122.09 0.51
  C 122.16 0.51 122.21 0.46 122.21 0.39
  L 122.21 0.37
  Z
  M 54.94 125.31
  Q 60.32 128.79 68.33 130.35
  C 68.62 130.40 68.83 130.65 68.83 130.94
  L 68.83 155.82
  C 68.83 156.10 68.61 156.32 68.32 156.34
  Q 62.54 156.63 56.75 156.47
  Q 53.16 156.36 51.17 158.62
  Q 49.30 160.73 49.84 163.77
  Q 50.62 168.26 56.00 168.50
  Q 62.53 168.79 74.97 168.33
  Q 77.50 168.23 78.82 167.33
  Q 80.74 166.02 81.19 163.78
  Q 81.25 163.51 81.25 158.20
  Q 81.25 144.57 81.25 130.66
  C 81.25 130.30 81.55 130.00 81.91 130.00
  L 116.26 130.00
  C 116.50 130.00 116.69 130.19 116.69 130.42
  L 116.76 155.45
  C 116.76 156.06 116.26 156.55 115.66 156.53
  Q 109.34 156.39 103.96 156.62
  Q 100.90 156.75 99.35 157.93
  Q 97.00 159.70 97.06 162.69
  Q 97.12 165.51 99.40 167.15
  Q 100.90 168.24 103.87 168.34
  Q 113.06 168.66 122.25 168.56
  Q 125.99 168.51 127.81 166.03
  Q 129.00 164.40 128.98 160.69
  Q 128.89 145.44 129.18 130.19
  C 129.19 129.89 129.37 129.62 129.65 129.51
  Q 131.77 128.71 133.87 127.87
  Q 136.63 126.77 138.37 125.70
  Q 147.01 120.38 150.09 111.13
  Q 151.50 106.90 151.50 98.21
  Q 151.50 68.48 151.52 38.75
  Q 151.52 29.98 146.69 23.31
  Q 138.12 11.50 123.00 11.49
  Q 74.87 11.45 26.74 11.56
  Q 24.59 11.56 23.59 12.36
  Q 21.78 13.79 23.44 16.31
  Q 32.34 29.82 41.54 44.35
  C 41.84 44.83 42.00 45.38 42.00 45.95
  Q 42.00 73.87 42.15 101.00
  Q 42.24 117.10 54.94 125.31
  Z"
/>
<rect fill="#ffffff" x="25.55" y="0.25" width="96.66" height="0.26" rx="0.12"/>
<path fill="#000000" d="
  M 54.94 125.31
  Q 42.24 117.10 42.15 101.00
  Q 42.00 73.87 42.00 45.95
  C 42.00 45.38 41.84 44.83 41.54 44.35
  Q 32.34 29.82 23.44 16.31
  Q 21.78 13.79 23.59 12.36
  Q 24.59 11.56 26.74 11.56
  Q 74.87 11.45 123.00 11.49
  Q 138.12 11.50 146.69 23.31
  Q 151.52 29.98 151.52 38.75
  Q 151.50 68.48 151.50 98.21
  Q 151.50 106.90 150.09 111.13
  Q 147.01 120.38 138.37 125.70
  Q 136.63 126.77 133.87 127.87
  Q 131.77 128.71 129.65 129.51
  C 129.37 129.62 129.19 129.89 129.18 130.19
  Q 128.89 145.44 128.98 160.69
  Q 129.00 164.40 127.81 166.03
  Q 125.99 168.51 122.25 168.56
  Q 113.06 168.66 103.87 168.34
  Q 100.90 168.24 99.40 167.15
  Q 97.12 165.51 97.06 162.69
  Q 97.00 159.70 99.35 157.93
  Q 100.90 156.75 103.96 156.62
  Q 109.34 156.39 115.66 156.53
  C 116.26 156.55 116.76 156.06 116.76 155.45
  L 116.69 130.42
  C 116.69 130.19 116.50 130.00 116.26 130.00
  L 81.91 130.00
  C 81.55 130.00 81.25 130.30 81.25 130.66
  Q 81.25 144.57 81.25 158.20
  Q 81.25 163.51 81.19 163.78
  Q 80.74 166.02 78.82 167.33
  Q 77.50 168.23 74.97 168.33
  Q 62.53 168.79 56.00 168.50
  Q 50.62 168.26 49.84 163.77
  Q 49.30 160.73 51.17 158.62
  Q 53.16 156.36 56.75 156.47
  Q 62.54 156.63 68.32 156.34
  C 68.61 156.32 68.83 156.10 68.83 155.82
  L 68.83 130.94
  C 68.83 130.65 68.62 130.40 68.33 130.35
  Q 60.32 128.79 54.94 125.31
  Z
  M 73.91 35.55
  Q 73.54 34.66 73.28 33.73
  Q 72.75 31.89 72.10 31.12
  Q 69.64 28.20 66.65 31.43
  C 66.43 31.67 66.30 31.98 66.29 32.31
  Q 66.10 39.97 71.43 43.39
  Q 76.36 46.55 82.07 44.83
  Q 88.67 42.84 90.60 34.56
  Q 91.31 31.54 88.54 30.14
  Q 85.97 28.84 84.23 31.09
  Q 83.64 31.85 83.44 33.61
  Q 83.25 35.33 82.44 36.19
  Q 78.87 39.97 75.05 37.06
  Q 74.30 36.49 73.91 35.55
  Z"
/>
<path fill="#ffffff" d="
  M 75.05 37.06
  Q 78.87 39.97 82.44 36.19
  Q 83.25 35.33 83.44 33.61
  Q 83.64 31.85 84.23 31.09
  Q 85.97 28.84 88.54 30.14
  Q 91.31 31.54 90.60 34.56
  Q 88.67 42.84 82.07 44.83
  Q 76.36 46.55 71.43 43.39
  Q 66.10 39.97 66.29 32.31
  C 66.30 31.98 66.43 31.67 66.65 31.43
  Q 69.64 28.20 72.10 31.12
  Q 72.75 31.89 73.28 33.73
  Q 73.54 34.66 73.91 35.55
  Q 74.30 36.49 75.05 37.06
  Z"
/>
<path fill="#ffffff" d="
  M 123.19 180.00
  Q 88.94 180.00 54.69 180.00
  Q 54.70 179.87 54.71 179.75
  Q 88.89 179.31 123.08 179.50
  Q 123.32 179.50 123.40 179.59
  Q 123.54 179.74 123.19 180.00
  Z"
/>
</svg>
