<?xml version="1.0" encoding="UTF-8" standalone="no"?>
<!DOCTYPE svg PUBLIC "-//W3C//DTD SVG 1.1//EN" "http://www.w3.org/Graphics/SVG/1.1/DTD/svg11.dtd">
<svg xmlns="http://www.w3.org/2000/svg" version="1.1" viewBox="0 0 180 180">
<g stroke-width="2.0" fill="none" stroke-linecap="butt">
<path stroke="#b6b1ff" vector-effect="non-scaling-stroke" d="
  M 65.75 119.54
  L 61.96 124.50"
/>
<path stroke="#4e49a0" vector-effect="non-scaling-stroke" d="
  M 61.96 124.50
  Q 53.62 121.15 44.72 120.43
  Q 40.39 120.09 37.31 120.76
  Q 33.62 121.58 30.31 123.56
  Q 26.96 125.56 23.54 127.78
  C 23.15 128.03 23.03 128.54 23.26 128.94
  Q 32.54 144.81 47.41 154.90
  Q 55.80 160.59 65.24 163.80
  Q 79.53 168.67 95.01 167.87
  Q 114.34 166.87 131.07 156.45
  C 131.54 156.15 131.79 155.61 131.70 155.06
  Q 130.71 148.83 127.46 144.50"
/>
<path stroke="#6159e6" vector-effect="non-scaling-stroke" d="
  M 127.46 144.50
  Q 129.67 135.09 133.06 128.31
  Q 134.67 125.09 138.14 121.61
  C 138.33 121.41 138.29 121.09 138.05 121.02
  Q 137.16 120.75 136.19 121.94
  Q 128.42 131.42 126.75 142.25
  Q 126.69 142.67 126.00 143.04"
/>
<path stroke="#4e49a0" vector-effect="non-scaling-stroke" d="
  M 126.00 143.04
  Q 118.49 137.86 110.21 134.00"
/>
<path stroke="#6159e6" vector-effect="non-scaling-stroke" d="
  M 110.21 134.00
  Q 111.38 128.50 111.49 122.87
  C 111.50 122.60 111.41 122.36 111.25 122.21
  Q 110.84 121.84 110.75 122.50
  Q 109.97 128.12 109.00 133.71"
/>
<path stroke="#4e49a0" vector-effect="non-scaling-stroke" d="
  M 109.00 133.71
  Q 106.22 133.14 103.54 134.00"
/>
<path stroke="#b6b1ff" vector-effect="non-scaling-stroke" d="
  M 103.54 134.00
  Q 99.38 128.21 99.54 121.00"
/>
<path stroke="#4e49a0" vector-effect="non-scaling-stroke" d="
  M 99.54 121.00
  L 117.54 121.00
  C 117.91 121.00 118.23 120.74 118.30 120.38
  L 121.18 105.21
  Q 121.42 103.97 121.81 105.18
  L 126.23 118.94
  C 126.34 119.28 126.69 119.48 127.03 119.40
  Q 133.33 118.05 137.50 114.21"
/>
<path stroke="#6159e6" vector-effect="non-scaling-stroke" d="
  M 137.50 114.21
  Q 138.44 114.38 138.82 115.18
  Q 139.30 116.20 139.34 116.25
  Q 142.11 120.19 146.09 119.41
  Q 149.54 118.73 151.17 115.51
  Q 152.84 112.23 150.67 109.04
  Q 149.09 106.72 146.46 106.19
  Q 143.80 105.65 141.04 106.75"
/>
<path stroke="#4e49a0" vector-effect="non-scaling-stroke" d="
  M 141.04 106.75
  Q 140.84 95.83 136.04 86.00"
/>
<path stroke="#6159e6" vector-effect="non-scaling-stroke" d="
  M 136.04 86.00
  Q 147.34 84.55 155.04 75.66
  Q 155.45 75.19 154.84 75.09
  Q 144.29 73.26 135.19 78.44
  Q 134.15 79.03 133.00 79.29"
/>
<path stroke="#4e49a0" vector-effect="non-scaling-stroke" d="
  M 133.00 79.29
  L 128.96 71.25"
/>
<path stroke="#6159e6" vector-effect="non-scaling-stroke" d="
  M 128.96 71.25
  Q 133.13 65.73 138.41 61.29
  Q 138.78 60.97 138.95 60.62
  Q 139.66 59.18 138.34 59.74
  Q 137.99 59.90 137.59 60.22
  Q 132.43 64.53 129.31 69.31
  Q 128.90 69.94 128.25 69.79"
/>
<path stroke="#4e49a0" vector-effect="non-scaling-stroke" d="
  M 128.25 69.79
  Q 125.51 64.51 122.89 59.18
  Q 117.82 48.84 108.88 41.60
  Q 102.53 36.46 94.92 35.12
  Q 88.19 33.92 80.05 35.94
  Q 66.19 39.38 57.62 50.45
  Q 52.66 56.85 50.27 65.56
  Q 47.97 73.96 48.25 82.50
  Q 48.88 101.84 48.98 107.85
  Q 48.98 107.94 48.87 110.15
  Q 48.69 113.96 51.81 115.69
  Q 57.59 118.88 65.75 119.54"
/>
<path stroke="#433f87" vector-effect="non-scaling-stroke" d="
  M 128.25 69.79
  Q 128.30 70.66 128.96 71.25"
/>
<path stroke="#433f87" vector-effect="non-scaling-stroke" d="
  M 133.00 79.29
  L 136.04 86.00"
/>
<path stroke="#433f87" vector-effect="non-scaling-stroke" d="
  M 141.04 106.75
  Q 140.44 111.06 137.50 114.21"
/>
<path stroke="#9797a0" vector-effect="non-scaling-stroke" d="
  M 99.54 121.00
  Q 99.18 113.00 100.95 105.13
  C 101.12 104.37 101.61 103.73 102.29 103.35
  Q 120.00 93.62 118.23 73.80
  C 118.21 73.52 117.98 73.31 117.69 73.29
  L 106.19 72.60
  C 105.88 72.58 105.60 72.39 105.47 72.11
  L 101.72 63.64
  Q 101.25 62.58 101.25 63.74
  L 101.25 71.96
  C 101.25 72.25 101.02 72.49 100.74 72.48
  L 94.55 72.25
  C 94.27 72.24 94.02 72.02 93.94 71.71
  L 90.13 57.23
  Q 89.99 56.70 89.90 57.25
  L 87.49 72.81
  C 87.45 73.07 87.24 73.26 86.99 73.25
  L 62.89 72.93
  C 62.55 72.92 62.25 73.18 62.22 73.52
  Q 60.33 91.76 75.54 101.88
  C 75.89 102.11 76.02 102.56 75.86 102.94
  Q 72.07 112.09 65.75 119.54"
/>
<path stroke="#9797a0" vector-effect="non-scaling-stroke" d="
  M 103.54 134.00
  Q 102.48 135.09 101.01 135.52
  Q 95.54 137.11 89.91 136.92
  Q 85.43 136.76 85.09 136.71
  Q 82.95 136.38 80.44 135.06
  Q 71.00 130.13 61.96 124.50"
/>
<path stroke="#433f87" vector-effect="non-scaling-stroke" d="
  M 109.00 133.71
  Q 109.52 134.13 110.21 134.00"
/>
<path stroke="#433f87" vector-effect="non-scaling-stroke" d="
  M 126.00 143.04
  Q 126.54 143.96 127.46 144.50"
/>
<path stroke="#6159e6" vector-effect="non-scaling-stroke" d="
  M 154.07 53.33
  C 154.07 49.59 151.03 46.55 147.29 46.55
  C 143.55 46.55 140.51 49.59 140.51 53.33
  C 140.51 57.07 143.55 60.11 147.29 60.11
  C 151.03 60.11 154.07 57.07 154.07 53.33"
/>
<path stroke="#6159e6" vector-effect="non-scaling-stroke" d="
  M 152.43 130.46
  Q 141.41 128.91 133.70 137.20
  Q 133.26 137.67 133.90 137.77
  Q 145.42 139.63 152.58 130.82
  Q 152.83 130.51 152.43 130.46"
/>
</g>
<path fill="#6c63ff" d="
  M 0.00 0.00
  Q 90.00 0.00 180.00 0.00
  Q 180.00 90.00 180.00 180.00
  Q 90.00 180.00 0.00 180.00
  Q 0.00 90.00 0.00 0.00
  Z
  M 65.75 119.54
  L 61.96 124.50
  Q 53.62 121.15 44.72 120.43
  Q 40.39 120.09 37.31 120.76
  Q 33.62 121.58 30.31 123.56
  Q 26.96 125.56 23.54 127.78
  C 23.15 128.03 23.03 128.54 23.26 128.94
  Q 32.54 144.81 47.41 154.90
  Q 55.80 160.59 65.24 163.80
  Q 79.53 168.67 95.01 167.87
  Q 114.34 166.87 131.07 156.45
  C 131.54 156.15 131.79 155.61 131.70 155.06
  Q 130.71 148.83 127.46 144.50
  Q 129.67 135.09 133.06 128.31
  Q 134.67 125.09 138.14 121.61
  C 138.33 121.41 138.29 121.09 138.05 121.02
  Q 137.16 120.75 136.19 121.94
  Q 128.42 131.42 126.75 142.25
  Q 126.69 142.67 126.00 143.04
  Q 118.49 137.86 110.21 134.00
  Q 111.38 128.50 111.49 122.87
  C 111.50 122.60 111.41 122.36 111.25 122.21
  Q 110.84 121.84 110.75 122.50
  Q 109.97 128.12 109.00 133.71
  Q 106.22 133.14 103.54 134.00
  Q 99.38 128.21 99.54 121.00
  L 117.54 121.00
  C 117.91 121.00 118.23 120.74 118.30 120.38
  L 121.18 105.21
  Q 121.42 103.97 121.81 105.18
  L 126.23 118.94
  C 126.34 119.28 126.69 119.48 127.03 119.40
  Q 133.33 118.05 137.50 114.21
  Q 138.44 114.38 138.82 115.18
  Q 139.30 116.20 139.34 116.25
  Q 142.11 120.19 146.09 119.41
  Q 149.54 118.73 151.17 115.51
  Q 152.84 112.23 150.67 109.04
  Q 149.09 106.72 146.46 106.19
  Q 143.80 105.65 141.04 106.75
  Q 140.84 95.83 136.04 86.00
  Q 147.34 84.55 155.04 75.66
  Q 155.45 75.19 154.84 75.09
  Q 144.29 73.26 135.19 78.44
  Q 134.15 79.03 133.00 79.29
  L 128.96 71.25
  Q 133.13 65.73 138.41 61.29
  Q 138.78 60.97 138.95 60.62
  Q 139.66 59.18 138.34 59.74
  Q 137.99 59.90 137.59 60.22
  Q 132.43 64.53 129.31 69.31
  Q 128.90 69.94 128.25 69.79
  Q 125.51 64.51 122.89 59.18
  Q 117.82 48.84 108.88 41.60
  Q 102.53 36.46 94.92 35.12
  Q 88.19 33.92 80.05 35.94
  Q 66.19 39.38 57.62 50.45
  Q 52.66 56.85 50.27 65.56
  Q 47.97 73.96 48.25 82.50
  Q 48.88 101.84 48.98 107.85
  Q 48.98 107.94 48.87 110.15
  Q 48.69 113.96 51.81 115.69
  Q 57.59 118.88 65.75 119.54
  Z
  M 154.07 53.33
  C 154.07 49.59 151.03 46.55 147.29 46.55
  C 143.55 46.55 140.51 49.59 140.51 53.33
  C 140.51 57.07 143.55 60.11 147.29 60.11
  C 151.03 60.11 154.07 57.07 154.07 53.33
  Z
  M 152.43 130.46
  Q 141.41 128.91 133.70 137.20
  Q 133.26 137.67 133.90 137.77
  Q 145.42 139.63 152.58 130.82
  Q 152.83 130.51 152.43 130.46
  Z"
/>
<path fill="#2f2e41" d="
  M 128.25 69.79
  Q 128.30 70.66 128.96 71.25
  L 133.00 79.29
  L 136.04 86.00
  Q 140.84 95.83 141.04 106.75
  Q 140.44 111.06 137.50 114.21
  Q 133.33 118.05 127.03 119.40
  C 126.69 119.48 126.34 119.28 126.23 118.94
  L 121.81 105.18
  Q 121.42 103.97 121.18 105.21
  L 118.30 120.38
  C 118.23 120.74 117.91 121.00 117.54 121.00
  L 99.54 121.00
  Q 99.18 113.00 100.95 105.13
  C 101.12 104.37 101.61 103.73 102.29 103.35
  Q 120.00 93.62 118.23 73.80
  C 118.21 73.52 117.98 73.31 117.69 73.29
  L 106.19 72.60
  C 105.88 72.58 105.60 72.39 105.47 72.11
  L 101.72 63.64
  Q 101.25 62.58 101.25 63.74
  L 101.25 71.96
  C 101.25 72.25 101.02 72.49 100.74 72.48
  L 94.55 72.25
  C 94.27 72.24 94.02 72.02 93.94 71.71
  L 90.13 57.23
  Q 89.99 56.70 89.90 57.25
  L 87.49 72.81
  C 87.45 73.07 87.24 73.26 86.99 73.25
  L 62.89 72.93
  C 62.55 72.92 62.25 73.18 62.22 73.52
  Q 60.33 91.76 75.54 101.88
  C 75.89 102.11 76.02 102.56 75.86 102.94
  Q 72.07 112.09 65.75 119.54
  Q 57.59 118.88 51.81 115.69
  Q 48.69 113.96 48.87 110.15
  Q 48.98 107.94 48.98 107.85
  Q 48.88 101.84 48.25 82.50
  Q 47.97 73.96 50.27 65.56
  Q 52.66 56.85 57.62 50.45
  Q 66.19 39.38 80.05 35.94
  Q 88.19 33.92 94.92 35.12
  Q 102.53 36.46 108.88 41.60
  Q 117.82 48.84 122.89 59.18
  Q 125.51 64.51 128.25 69.79
  Z"
/>
<circle fill="#564fcc" cx="147.29" cy="53.33" r="6.78"/>
<path fill="#ffffff" d="
  M 99.54 121.00
  Q 99.38 128.21 103.54 134.00
  Q 102.48 135.09 101.01 135.52
  Q 95.54 137.11 89.91 136.92
  Q 85.43 136.76 85.09 136.71
  Q 82.95 136.38 80.44 135.06
  Q 71.00 130.13 61.96 124.50
  L 65.75 119.54
  Q 72.07 112.09 75.86 102.94
  C 76.02 102.56 75.89 102.11 75.54 101.88
  Q 60.33 91.76 62.22 73.52
  C 62.25 73.18 62.55 72.92 62.89 72.93
  L 86.99 73.25
  C 87.24 73.26 87.45 73.07 87.49 72.81
  L 89.90 57.25
  Q 89.99 56.70 90.13 57.23
  L 93.94 71.71
  C 94.02 72.02 94.27 72.24 94.55 72.25
  L 100.74 72.48
  C 101.02 72.49 101.25 72.25 101.25 71.96
  L 101.25 63.74
  Q 101.25 62.58 101.72 63.64
  L 105.47 72.11
  C 105.60 72.39 105.88 72.58 106.19 72.60
  L 117.69 73.29
  C 117.98 73.31 118.21 73.52 118.23 73.80
  Q 120.00 93.62 102.29 103.35
  C 101.61 103.73 101.12 104.37 100.95 105.13
  Q 99.18 113.00 99.54 121.00
  Z"
/>
<path fill="#564fcc" d="
  M 128.96 71.25
  Q 128.30 70.66 128.25 69.79
  Q 128.90 69.94 129.31 69.31
  Q 132.43 64.53 137.59 60.22
  Q 137.99 59.90 138.34 59.74
  Q 139.66 59.18 138.95 60.62
  Q 138.78 60.97 138.41 61.29
  Q 133.13 65.73 128.96 71.25
  Z"
/>
<path fill="#564fcc" d="
  M 136.04 86.00
  L 133.00 79.29
  Q 134.15 79.03 135.19 78.44
  Q 144.29 73.26 154.84 75.09
  Q 155.45 75.19 155.04 75.66
  Q 147.34 84.55 136.04 86.00
  Z"
/>
<path fill="#564fcc" d="
  M 137.50 114.21
  Q 140.44 111.06 141.04 106.75
  Q 143.80 105.65 146.46 106.19
  Q 149.09 106.72 150.67 109.04
  Q 152.84 112.23 151.17 115.51
  Q 149.54 118.73 146.09 119.41
  Q 142.11 120.19 139.34 116.25
  Q 139.30 116.20 138.82 115.18
  Q 138.44 114.38 137.50 114.21
  Z"
/>
<path fill="#2f2e41" d="
  M 61.96 124.50
  Q 71.00 130.13 80.44 135.06
  Q 82.95 136.38 85.09 136.71
  Q 85.43 136.76 89.91 136.92
  Q 95.54 137.11 101.01 135.52
  Q 102.48 135.09 103.54 134.00
  Q 106.22 133.14 109.00 133.71
  Q 109.52 134.13 110.21 134.00
  Q 118.49 137.86 126.00 143.04
  Q 126.54 143.96 127.46 144.50
  Q 130.71 148.83 131.70 155.06
  C 131.79 155.61 131.54 156.15 131.07 156.45
  Q 114.34 166.87 95.01 167.87
  Q 79.53 168.67 65.24 163.80
  Q 55.80 160.59 47.41 154.90
  Q 32.54 144.81 23.26 128.94
  C 23.03 128.54 23.15 128.03 23.54 127.78
  Q 26.96 125.56 30.31 123.56
  Q 33.62 121.58 37.31 120.76
  Q 40.39 120.09 44.72 120.43
  Q 53.62 121.15 61.96 124.50
  Z"
/>
<path fill="#564fcc" d="
  M 127.46 144.50
  Q 126.54 143.96 126.00 143.04
  Q 126.69 142.67 126.75 142.25
  Q 128.42 131.42 136.19 121.94
  Q 137.16 120.75 138.05 121.02
  C 138.29 121.09 138.33 121.41 138.14 121.61
  Q 134.67 125.09 133.06 128.31
  Q 129.67 135.09 127.46 144.50
  Z"
/>
<path fill="#564fcc" d="
  M 110.21 134.00
  Q 109.52 134.13 109.00 133.71
  Q 109.97 128.12 110.75 122.50
  Q 110.84 121.84 111.25 122.21
  C 111.41 122.36 111.50 122.60 111.49 122.87
  Q 111.38 128.50 110.21 134.00
  Z"
/>
<path fill="#564fcc" d="
  M 152.43 130.46
  Q 152.83 130.51 152.58 130.82
  Q 145.42 139.63 133.90 137.77
  Q 133.26 137.67 133.70 137.20
  Q 141.41 128.91 152.43 130.46
  Z"
/>
</svg>
