<?xml version="1.0" encoding="UTF-8" standalone="no"?>
<!DOCTYPE svg PUBLIC "-//W3C//DTD SVG 1.1//EN" "http://www.w3.org/Graphics/SVG/1.1/DTD/svg11.dtd">
<svg xmlns="http://www.w3.org/2000/svg" version="1.1" viewBox="0 0 180 180">
<g stroke-width="2.0" fill="none" stroke-linecap="butt">
<path stroke="#34656b" vector-effect="non-scaling-stroke" d="
  M 70.67 71.36
  C 70.67 58.56 58.74 48.19 44.02 48.19
  C 29.30 48.19 17.37 58.56 17.37 71.36
  C 17.37 84.16 29.30 94.53 44.02 94.53
  C 58.74 94.53 70.67 84.16 70.67 71.36"
/>
<path stroke="#34656b" vector-effect="non-scaling-stroke" d="
  M 162.7198 71.2669
  C 162.68 58.48 150.70 48.15 135.9792 48.2001
  C 121.26 48.25 109.36 58.66 109.4002 71.4531
  C 109.44 84.24 121.42 94.57 136.1408 94.5199
  C 150.86 94.47 162.76 84.06 162.7198 71.2669"
/>
<path stroke="#34656b" vector-effect="non-scaling-stroke" d="
  M 32.30 82.66
  Q 43.99 91.00 55.81 82.81
  Q 58.28 81.11 59.71 78.07
  Q 60.76 75.85 60.91 72.24
  Q 61.10 67.59 60.97 62.17
  C 60.95 61.66 60.53 61.25 60.02 61.25
  L 53.24 61.25
  C 52.96 61.25 52.73 61.48 52.74 61.76
  Q 52.88 66.74 52.66 71.41
  Q 52.51 74.88 51.01 76.65
  Q 48.23 79.95 43.00 79.50
  Q 36.86 78.98 35.25 73.50
  Q 34.64 71.44 35.04 62.19
  C 35.05 61.89 34.86 61.63 34.58 61.56
  Q 31.60 60.86 27.33 61.82
  C 26.99 61.90 26.75 62.20 26.75 62.54
  Q 26.75 67.63 26.80 72.00
  Q 26.88 78.79 32.30 82.66"
/>
<path stroke="#34656b" vector-effect="non-scaling-stroke" d="
  M 137.21 63.50
  Q 132.26 63.42 129.26 66.44
  Q 126.42 69.30 126.72 73.37
  Q 127.06 77.95 131.56 80.19
  Q 138.34 83.56 143.72 79.14
  Q 146.33 76.99 147.04 74.41
  Q 147.88 71.39 146.21 68.25"
/>
<path stroke="#b3e5eb" vector-effect="non-scaling-stroke" d="
  M 146.21 68.25
  Q 148.26 64.37 145.74 62.19
  Q 143.90 60.59 141.44 60.91
  Q 138.96 61.23 137.21 63.50"
/>
<path stroke="#808080" vector-effect="non-scaling-stroke" d="
  M 146.21 68.25
  Q 143.22 70.42 140.31 69.44
  Q 136.30 68.09 137.21 63.50"
/>
</g>
<path fill="#000000" d="
  M 62.80 9.08
  C 63.68 9.44 64.25 10.29 64.25 11.24
  Q 64.26 15.55 63.19 19.19
  Q 62.38 21.95 59.31 20.82
  Q 58.14 20.39 58.03 20.36
  Q 47.87 17.15 37.84 13.55
  Q 37.75 13.52 36.13 13.06
  Q 32.76 12.11 33.22 8.28
  Q 33.45 6.35 33.72 4.42
  Q 34.09 1.76 35.01 0.86
  Q 36.40 -0.51 38.88 0.40
  Q 40.20 0.89 40.26 0.91
  Q 51.82 4.59 62.80 9.08
  Z"
/>
<path fill="#000000" d="
  M 140.12 0.39
  C 141.11 0.65 141.83 1.41 141.93 2.29
  L 142.75 9.87
  Q 142.97 11.90 140.82 12.64
  L 116.47 20.93
  Q 112.97 22.12 112.57 18.71
  L 111.73 11.62
  Q 111.49 9.57 113.64 8.77
  Q 124.77 4.63 136.44 0.57
  Q 138.35 -0.09 140.12 0.39
  Z"
/>
<path fill="#000000" d="
  M 0.00 71.94
  Q 0.00 71.56 0.00 71.19
  Q 1.68 49.95 20.03 39.56
  Q 31.82 32.88 45.44 33.29
  Q 68.46 33.98 81.44 51.56
  Q 85.93 57.64 87.34 65.39
  Q 88.67 72.65 86.70 80.03
  Q 82.71 94.96 68.50 103.07
  C 68.22 103.23 68.04 103.50 68.01 103.80
  Q 67.42 110.16 67.92 116.50
  Q 68.29 121.13 70.23 123.35
  Q 72.95 126.47 77.75 126.62
  Q 79.64 126.68 81.62 127.02
  C 82.47 127.17 83.12 127.86 83.22 128.71
  Q 83.74 133.23 83.41 137.54
  Q 83.24 139.84 82.47 140.77
  Q 81.45 142.00 79.55 141.86
  Q 78.01 141.75 77.93 141.75
  Q 69.11 141.67 62.81 138.94
  Q 58.13 136.90 55.10 132.53
  Q 52.64 129.00 51.58 123.50
  Q 50.34 117.07 50.96 110.66
  C 51.04 109.84 50.34 109.15 49.52 109.25
  Q 28.16 111.71 12.19 97.81
  Q 0.98 88.06 0.00 71.94
  Z
  M 70.67 71.36
  C 70.67 58.56 58.74 48.19 44.02 48.19
  C 29.30 48.19 17.37 58.56 17.37 71.36
  C 17.37 84.16 29.30 94.53 44.02 94.53
  C 58.74 94.53 70.67 84.16 70.67 71.36
  Z"
/>
<path fill="#000000" d="
  M 180.00 70.31
  Q 180.00 71.81 180.00 73.31
  Q 177.14 95.01 157.58 104.60
  Q 144.89 110.82 130.90 109.27
  C 129.97 109.16 129.16 109.92 129.20 110.87
  Q 129.53 118.30 127.96 124.84
  Q 126.38 131.37 122.64 135.10
  Q 118.34 139.40 111.84 140.72
  Q 104.85 142.13 98.65 141.36
  C 97.76 141.25 97.06 140.55 96.94 139.66
  Q 96.31 134.96 96.55 131.22
  Q 96.72 128.49 96.82 128.16
  Q 97.32 126.47 99.51 126.65
  Q 100.92 126.76 101.00 126.76
  Q 112.38 126.72 112.03 115.00
  Q 111.87 109.87 112.24 104.84
  C 112.30 104.02 111.90 103.24 111.20 102.82
  Q 98.06 94.91 93.67 81.13
  Q 91.34 73.83 92.67 66.21
  Q 94.63 54.93 102.34 46.89
  Q 108.80 40.17 119.08 36.28
  Q 140.82 28.05 161.94 40.56
  Q 178.32 50.27 180.00 70.31
  Z
  M 162.7198 71.2669
  C 162.68 58.48 150.70 48.15 135.9792 48.2001
  C 121.26 48.25 109.36 58.66 109.4002 71.4531
  C 109.44 84.24 121.42 94.57 136.1408 94.5199
  C 150.86 94.47 162.76 84.06 162.7198 71.2669
  Z"
/>
<path fill="#67cad6" d="
  M 70.67 71.36
  C 70.67 84.16 58.74 94.53 44.02 94.53
  C 29.30 94.53 17.37 84.16 17.37 71.36
  C 17.37 58.56 29.30 48.19 44.02 48.19
  C 58.74 48.19 70.67 58.56 70.67 71.36
  Z
  M 32.30 82.66
  Q 43.99 91.00 55.81 82.81
  Q 58.28 81.11 59.71 78.07
  Q 60.76 75.85 60.91 72.24
  Q 61.10 67.59 60.97 62.17
  C 60.95 61.66 60.53 61.25 60.02 61.25
  L 53.24 61.25
  C 52.96 61.25 52.73 61.48 52.74 61.76
  Q 52.88 66.74 52.66 71.41
  Q 52.51 74.88 51.01 76.65
  Q 48.23 79.95 43.00 79.50
  Q 36.86 78.98 35.25 73.50
  Q 34.64 71.44 35.04 62.19
  C 35.05 61.89 34.86 61.63 34.58 61.56
  Q 31.60 60.86 27.33 61.82
  C 26.99 61.90 26.75 62.20 26.75 62.54
  Q 26.75 67.63 26.80 72.00
  Q 26.88 78.79 32.30 82.66
  Z"
/>
<path fill="#67cad6" d="
  M 162.7198 71.2669
  C 162.76 84.06 150.86 94.47 136.1408 94.5199
  C 121.42 94.57 109.44 84.24 109.4002 71.4531
  C 109.36 58.66 121.26 48.25 135.9792 48.2001
  C 150.70 48.15 162.68 58.48 162.7198 71.2669
  Z
  M 137.21 63.50
  Q 132.26 63.42 129.26 66.44
  Q 126.42 69.30 126.72 73.37
  Q 127.06 77.95 131.56 80.19
  Q 138.34 83.56 143.72 79.14
  Q 146.33 76.99 147.04 74.41
  Q 147.88 71.39 146.21 68.25
  Q 148.26 64.37 145.74 62.19
  Q 143.90 60.59 141.44 60.91
  Q 138.96 61.23 137.21 63.50
  Z"
/>
<path fill="#ffffff" d="
  M 146.21 68.25
  Q 143.22 70.42 140.31 69.44
  Q 136.30 68.09 137.21 63.50
  Q 138.96 61.23 141.44 60.91
  Q 143.90 60.59 145.74 62.19
  Q 148.26 64.37 146.21 68.25
  Z"
/>
<path fill="#000000" d="
  M 32.30 82.66
  Q 26.88 78.79 26.80 72.00
  Q 26.75 67.63 26.75 62.54
  C 26.75 62.20 26.99 61.90 27.33 61.82
  Q 31.60 60.86 34.58 61.56
  C 34.86 61.63 35.05 61.89 35.04 62.19
  Q 34.64 71.44 35.25 73.50
  Q 36.86 78.98 43.00 79.50
  Q 48.23 79.95 51.01 76.65
  Q 52.51 74.88 52.66 71.41
  Q 52.88 66.74 52.74 61.76
  C 52.73 61.48 52.96 61.25 53.24 61.25
  L 60.02 61.25
  C 60.53 61.25 60.95 61.66 60.97 62.17
  Q 61.10 67.59 60.91 72.24
  Q 60.76 75.85 59.71 78.07
  Q 58.28 81.11 55.81 82.81
  Q 43.99 91.00 32.30 82.66
  Z"
/>
<path fill="#000000" d="
  M 137.21 63.50
  Q 136.30 68.09 140.31 69.44
  Q 143.22 70.42 146.21 68.25
  Q 147.88 71.39 147.04 74.41
  Q 146.33 76.99 143.72 79.14
  Q 138.34 83.56 131.56 80.19
  Q 127.06 77.95 126.72 73.37
  Q 126.42 69.30 129.26 66.44
  Q 132.26 63.42 137.21 63.50
  Z"
/>
<path fill="#000000" d="
  M 147.53 160.94
  Q 149.05 162.21 147.65 163.60
  Q 142.08 169.13 135.17 174.45
  C 134.67 174.84 133.96 174.80 133.49 174.37
  Q 130.36 171.50 126.86 168.92
  Q 123.77 166.65 120.67 168.96
  Q 113.92 174.00 107.84 179.55
  C 107.52 179.84 107.04 179.84 106.72 179.56
  Q 101.32 174.80 96.35 170.13
  Q 91.27 165.37 85.96 169.94
  Q 81.47 173.81 77.00 177.70
  Q 76.91 177.78 75.98 178.77
  Q 74.34 180.51 72.31 178.19
  Q 68.68 174.04 61.03 168.87
  Q 59.12 167.58 57.54 167.75
  Q 55.54 167.97 53.93 169.42
  Q 52.35 170.85 50.73 172.24
  Q 50.67 172.29 49.49 173.49
  Q 47.38 175.63 44.75 173.26
  Q 39.50 168.51 33.79 163.34
  C 33.25 162.85 33.23 162.02 33.74 161.50
  Q 40.21 154.93 48.56 149.56
  Q 49.97 148.66 52.47 147.98
  Q 54.51 147.42 56.60 147.44
  Q 65.78 147.49 73.38 153.55
  C 74.05 154.08 75.00 154.07 75.65 153.51
  Q 83.29 146.94 93.73 147.74
  Q 99.74 148.21 102.81 150.94
  Q 105.14 153.01 106.56 153.78
  C 106.82 153.92 107.15 153.90 107.41 153.72
  Q 109.83 152.05 112.41 150.63
  Q 126.36 142.95 138.16 153.07
  Q 142.21 156.54 147.53 160.94
  Z"
/>
</svg>
