<?xml version="1.0" encoding="UTF-8" standalone="no"?>
<!DOCTYPE svg PUBLIC "-//W3C//DTD SVG 1.1//EN" "http://www.w3.org/Graphics/SVG/1.1/DTD/svg11.dtd">
<svg xmlns="http://www.w3.org/2000/svg" version="1.1" viewBox="0 0 800 800">
<g stroke-width="2.0" fill="none" stroke-linecap="butt">
<path stroke="#808080" vector-effect="non-scaling-stroke" d="
  M 478.00 180.43
  C 478.00 180.19 477.81 180.00 477.57 180.00
  L 322.43 180.00
  C 322.19 180.00 322.00 180.19 322.00 180.43
  L 322.00 296.57
  C 322.00 296.81 322.19 297.00 322.43 297.00
  L 477.57 297.00
  C 477.81 297.00 478.00 296.81 478.00 296.57
  L 478.00 180.43"
/>
<path stroke="#808080" vector-effect="non-scaling-stroke" d="
  M 322.06 482.43
  L 322.00 366.67
  C 322.00 366.30 321.70 366.00 321.34 366.00
  L 190.52 366.00
  C 190.23 366.00 190.00 366.23 190.00 366.52
  L 190.00 599.48
  C 190.00 599.77 190.23 600.00 190.52 600.00
  L 609.48 600.00
  C 609.77 600.00 610.00 599.77 610.00 599.48
  L 610.00 366.66
  C 610.00 366.30 609.70 366.00 609.34 366.00
  L 478.52 366.00
  C 478.23 366.00 478.00 366.23 478.00 366.52
  L 477.94 482.43
  C 477.94 482.71 477.72 482.94 477.44 482.94
  L 322.56 482.94
  C 322.28 482.94 322.06 482.71 322.06 482.43"
/>
</g>
<path fill="#ffffff" d="
  M 0.00 0.00
  Q 400.00 0.00 800.00 0.00
  Q 800.00 400.00 800.00 800.00
  Q 400.00 800.00 0.00 800.00
  Q 0.00 400.00 0.00 0.00
  Z
  M 478.00 180.43
  C 478.00 180.19 477.81 180.00 477.57 180.00
  L 322.43 180.00
  C 322.19 180.00 322.00 180.19 322.00 180.43
  L 322.00 296.57
  C 322.00 296.81 322.19 297.00 322.43 297.00
  L 477.57 297.00
  C 477.81 297.00 478.00 296.81 478.00 296.57
  L 478.00 180.43
  Z
  M 322.06 482.43
  L 322.00 366.67
  C 322.00 366.30 321.70 366.00 321.34 366.00
  L 190.52 366.00
  C 190.23 366.00 190.00 366.23 190.00 366.52
  L 190.00 599.48
  C 190.00 599.77 190.23 600.00 190.52 600.00
  L 609.48 600.00
  C 609.77 600.00 610.00 599.77 610.00 599.48
  L 610.00 366.66
  C 610.00 366.30 609.70 366.00 609.34 366.00
  L 478.52 366.00
  C 478.23 366.00 478.00 366.23 478.00 366.52
  L 477.94 482.43
  C 477.94 482.71 477.72 482.94 477.44 482.94
  L 322.56 482.94
  C 322.28 482.94 322.06 482.71 322.06 482.43
  Z"
/>
<rect fill="#000000" x="322.00" y="180.00" width="156.00" height="117.00" rx="0.43"/>
<path fill="#000000" d="
  M 322.56 482.94
  L 477.44 482.94
  C 477.72 482.94 477.94 482.71 477.94 482.43
  L 478.00 366.52
  C 478.00 366.23 478.23 366.00 478.52 366.00
  L 609.34 366.00
  C 609.70 366.00 610.00 366.30 610.00 366.66
  L 610.00 599.48
  C 610.00 599.77 609.77 600.00 609.48 600.00
  L 190.52 600.00
  C 190.23 600.00 190.00 599.77 190.00 599.48
  L 190.00 366.52
  C 190.00 366.23 190.23 366.00 190.52 366.00
  L 321.34 366.00
  C 321.70 366.00 322.00 366.30 322.00 366.67
  L 322.06 482.43
  C 322.06 482.71 322.28 482.94 322.56 482.94
  Z"
/>
</svg>
