<?xml version="1.0" encoding="UTF-8" standalone="no"?>
<svg
   version="1.1"
   viewBox="0 0 512 512"
   id="svg18"
   sodipodi:docname="logo.svg"
   inkscape:version="1.1 (c68e22c387, 2021-05-23)"
   inkscape:export-filename="C:\work\yosoft\vm\vk_web\public\images\favicon-16x16.png"
   inkscape:export-xdpi="3"
   inkscape:export-ydpi="3"
   xmlns:inkscape="http://www.inkscape.org/namespaces/inkscape"
   xmlns:sodipodi="http://sodipodi.sourceforge.net/DTD/sodipodi-0.dtd"
   xmlns="http://www.w3.org/2000/svg"
   xmlns:svg="http://www.w3.org/2000/svg">
  <defs
     id="defs22" />
  <sodipodi:namedview
     id="namedview20"
     pagecolor="#ffffff"
     bordercolor="#666666"
     borderopacity="1.0"
     inkscape:pageshadow="2"
     inkscape:pageopacity="0.0"
     inkscape:pagecheckerboard="0"
     showgrid="false"
     inkscape:zoom="1.7050781"
     inkscape:cx="256"
     inkscape:cy="256"
     inkscape:window-width="3840"
     inkscape:window-height="2071"
     inkscape:window-x="-9"
     inkscape:window-y="-9"
     inkscape:window-maximized="1"
     inkscape:current-layer="svg18" />
  <path
     fill="#209fee"
     d="M 49.31 0.00 c 206.75 0.00 206.75 0.00 413.50 0.00 10.36 0.78 19.49 3.88 27.38 9.31 6.58 4.83 11.62 10.46 15.13 16.88 4.14 7.26 6.30 15.12 6.48 23.56 -0.07 137.58 -0.07 275.17 0.00 412.75 -0.47 13.85 -5.84 25.75 -16.10 35.69 -9.16 8.39 -20.24 13.00 -33.25 13.81 -206.38 0.00 -206.38 0.00 -412.75 0.00 -0.13 -0.27 -0.70 -0.35 -1.69 -0.25 -9.55 -0.60 -18.15 -3.58 -25.81 -8.94 -6.29 -4.29 -11.41 -9.83 -15.37 -16.62 -3.94 -6.98 -6.21 -14.81 -6.81 -23.50 0.00 -206.75 0.00 -206.75 0.00 -413.50 0.27 -0.11 0.35 -0.59 0.25 -1.44 0.82 -10.95 4.55 -20.47 11.19 -28.56 2.45 -3.07 5.24 -5.86 8.37 -8.37 8.33 -6.41 18.16 -10.02 29.50 -10.81 Z M 337.19 226.56 c -1.72 11.43 -3.68 21.85 -5.88 31.25 -4.03 18.68 -10.41 36.55 -19.12 53.62 -5.38 10.34 -12.00 19.80 -19.88 28.38 -5.20 5.45 -10.80 10.27 -16.81 14.44 -12.18 8.56 -25.75 12.95 -40.69 13.19 -4.79 -0.17 -9.06 -0.65 -12.81 -1.44 -4.22 -1.03 -7.95 -2.71 -11.19 -5.06 -5.71 -4.48 -8.98 -10.21 -9.81 -17.19 -0.90 -11.14 -0.65 -22.22 0.75 -33.25 1.83 -11.44 4.18 -23.50 7.06 -36.19 5.02 -21.69 10.08 -43.38 15.19 -65.06 4.05 -15.68 6.22 -31.59 6.50 -47.75 0.81 -16.84 -3.13 -32.07 -11.81 -45.69 -3.61 -5.70 -8.11 -10.62 -13.50 -14.75 -7.65 -5.18 -16.29 -8.12 -25.94 -8.81 -9.63 -0.40 -18.61 0.37 -26.94 2.31 -9.89 2.30 -18.93 6.26 -27.12 11.87 -6.11 3.92 -11.15 8.37 -15.13 13.38 -6.95 9.02 -10.05 19.42 -9.31 31.19 0.19 2.93 0.92 5.03 2.19 6.31 1.38 1.40 3.51 1.98 6.38 1.75 4.03 -0.26 7.84 -1.70 11.44 -4.31 6.27 -4.47 12.52 -8.97 18.75 -13.50 3.67 -2.70 7.83 -3.95 12.50 -3.75 3.92 0.14 7.32 1.83 10.19 5.06 3.80 5.69 5.90 12.17 6.31 19.44 1.13 11.61 0.38 23.94 -2.25 37.00 -1.56 8.30 -3.49 17.28 -5.81 26.94 -4.97 20.05 -10.06 40.38 -15.25 61.00 -4.13 15.31 -7.61 30.25 -10.44 44.81 -1.19 5.59 -1.52 10.92 -1.00 16.00 0.07 5.15 0.63 10.50 1.69 16.06 2.03 12.69 6.99 23.90 14.88 33.63 5.10 5.66 11.18 10.50 18.25 14.50 13.12 6.80 27.26 10.49 42.44 11.06 15.21 0.81 30.05 -0.28 44.50 -3.25 14.53 -2.88 28.09 -7.90 40.69 -15.06 10.29 -5.85 19.75 -13.31 28.37 -22.37 10.23 -11.05 18.48 -23.38 24.75 -37.00 6.90 -14.79 12.71 -30.14 17.44 -46.06 4.28 -16.89 7.38 -34.53 9.31 -52.94 0.97 -8.14 1.78 -16.32 2.44 -24.56 0.05 -0.64 0.49 -1.12 1.31 -1.44 6.73 -2.62 12.65 -6.12 17.75 -10.50 5.46 -4.71 9.38 -10.13 11.75 -16.25 1.67 -4.08 2.50 -8.58 2.50 -13.50 -0.02 -3.87 -0.98 -6.20 -2.88 -7.00 -3.80 -1.83 -8.03 -1.77 -12.69 0.19 -4.89 3.14 -9.91 6.04 -15.06 8.69 -0.84 0.43 -1.26 0.56 -1.25 0.38 0.34 -6.69 0.44 -13.54 0.31 -20.56 -0.07 -10.54 -1.24 -20.37 -3.50 -29.50 -2.60 -10.27 -6.96 -19.17 -13.06 -26.69 -3.67 -4.28 -8.09 -7.86 -13.25 -10.75 -7.71 -3.68 -16.10 -5.53 -25.19 -5.56 -6.72 -0.13 -13.22 0.62 -19.50 2.25 -8.01 2.03 -15.11 5.60 -21.31 10.69 -8.38 7.15 -14.34 15.77 -17.88 25.88 -2.54 7.96 -3.56 16.36 -3.06 25.19 0.28 11.64 2.63 22.54 7.06 32.69 2.80 6.33 6.72 12.25 11.75 17.75 4.47 4.71 9.31 8.63 14.50 11.75 12.44 6.73 25.90 10.44 40.37 11.12 Z"
     id="path4"
     style="fill:#3659ff;fill-opacity:1" />
  <path
     fill="rgba(40,161,236,0.999)"
     d="M 511.79 49.75 c 0.10 0.03 0.10 0.03 0.21 0.06 0.00 206.37 0.00 206.37 0.00 412.75 -0.10 -0.03 -0.10 -0.03 -0.21 -0.06 -0.07 -137.58 -0.07 -275.17 0.00 -412.75 Z"
     id="path8" />
  <path
     fill="#ffffff"
     d="M 325.25 89.25 c 9.09 0.03 17.48 1.88 25.19 5.56 5.16 2.89 9.58 6.47 13.25 10.75 6.11 7.52 10.46 16.42 13.06 26.69 2.26 9.13 3.43 18.96 3.50 29.50 0.13 7.02 0.03 13.87 -0.31 20.56 -0.01 0.18 0.41 0.06 1.25 -0.38 5.15 -2.65 10.17 -5.55 15.06 -8.69 4.65 -1.95 8.88 -2.02 12.69 -0.19 1.89 0.80 2.85 3.14 2.88 7.00 0.00 4.92 -0.83 9.42 -2.50 13.50 -2.37 6.12 -6.29 11.54 -11.75 16.25 -5.10 4.38 -11.02 7.88 -17.75 10.50 -0.82 0.31 -1.26 0.79 -1.31 1.44 -0.66 8.24 -1.47 16.43 -2.44 24.56 -1.93 18.40 -5.03 36.05 -9.31 52.94 -4.73 15.92 -10.54 31.28 -17.44 46.06 -6.27 13.62 -14.52 25.95 -24.75 37.00 -8.63 9.06 -18.08 16.52 -28.37 22.37 -12.60 7.16 -26.16 12.18 -40.69 15.06 -14.45 2.97 -29.29 4.06 -44.50 3.25 -15.17 -0.57 -29.32 -4.26 -42.44 -11.06 -7.07 -4.00 -13.15 -8.84 -18.25 -14.50 -7.89 -9.73 -12.84 -20.94 -14.88 -33.63 -1.06 -5.56 -1.62 -10.91 -1.69 -16.06 -0.52 -5.08 -0.19 -10.41 1.00 -16.00 2.83 -14.56 6.31 -29.50 10.44 -44.81 5.19 -20.62 10.28 -40.95 15.25 -61.00 2.32 -9.66 4.26 -18.64 5.81 -26.94 2.63 -13.06 3.38 -25.39 2.25 -37.00 -0.41 -7.27 -2.52 -13.75 -6.31 -19.44 -2.87 -3.23 -6.27 -4.92 -10.19 -5.06 -4.67 -0.20 -8.83 1.05 -12.50 3.75 -6.23 4.53 -12.48 9.03 -18.75 13.50 -3.60 2.61 -7.41 4.05 -11.44 4.31 -2.87 0.23 -4.99 -0.36 -6.38 -1.75 -1.26 -1.28 -1.99 -3.38 -2.19 -6.31 -0.74 -11.77 2.36 -22.17 9.31 -31.19 3.98 -5.00 9.02 -9.46 15.13 -13.38 8.19 -5.61 17.23 -9.57 27.12 -11.87 8.33 -1.94 17.31 -2.71 26.94 -2.31 9.65 0.70 18.29 3.63 25.94 8.81 5.39 4.13 9.89 9.05 13.50 14.75 8.69 13.62 12.62 28.85 11.81 45.69 -0.28 16.16 -2.45 32.07 -6.50 47.75 -5.10 21.68 -10.17 43.37 -15.19 65.06 -2.88 12.68 -5.24 24.75 -7.06 36.19 -1.40 11.03 -1.65 22.11 -0.75 33.25 0.83 6.97 4.10 12.70 9.81 17.19 3.24 2.35 6.96 4.04 11.19 5.06 3.75 0.79 8.02 1.27 12.81 1.44 14.94 -0.24 28.50 -4.63 40.69 -13.19 6.01 -4.17 11.61 -8.98 16.81 -14.44 7.88 -8.58 14.50 -18.04 19.88 -28.38 8.71 -17.07 15.09 -34.94 19.12 -53.62 2.20 -9.41 4.15 -19.82 5.88 -31.25 -14.48 -0.68 -27.93 -4.39 -40.37 -11.12 -5.19 -3.12 -10.03 -7.04 -14.50 -11.75 -5.03 -5.50 -8.95 -11.42 -11.75 -17.75 -4.43 -10.15 -6.79 -21.05 -7.06 -32.69 -0.50 -8.83 0.52 -17.22 3.06 -25.19 3.53 -10.10 9.49 -18.73 17.88 -25.88 6.20 -5.09 13.30 -8.65 21.31 -10.69 6.28 -1.63 12.78 -2.38 19.50 -2.25 Z M 322.19 130.94 c -1.83 3.22 -2.64 6.91 -2.44 11.06 0.01 4.33 0.40 8.18 1.19 11.56 1.48 8.38 5.23 15.38 11.25 21.00 2.84 2.78 5.84 4.99 9.00 6.63 0.41 -8.36 0.68 -16.76 0.81 -25.19 0.00 -6.78 -0.75 -12.95 -2.25 -18.50 -0.40 -1.53 -1.25 -3.26 -2.56 -5.19 -1.89 -2.84 -4.54 -4.36 -7.94 -4.56 -3.19 -0.27 -5.54 0.79 -7.06 3.19 Z"
     id="path10" />
  <path
     fill="#209cee"
     d="M 329.25 127.75 c 3.40 0.20 6.04 1.72 7.94 4.56 1.31 1.93 2.16 3.66 2.56 5.19 1.50 5.55 2.25 11.72 2.25 18.50 -0.13 8.43 -0.40 16.83 -0.81 25.19 -3.16 -1.64 -6.16 -3.85 -9.00 -6.63 -6.02 -5.62 -9.77 -12.62 -11.25 -21.00 -0.79 -3.38 -1.18 -7.23 -1.19 -11.56 -0.20 -4.16 0.61 -7.84 2.44 -11.06 1.52 -2.39 3.87 -3.45 7.06 -3.19 Z"
     id="path12"
     style="fill:#3659ff;fill-opacity:1" />
</svg>
