<?xml version="1.0" encoding="UTF-8" standalone="no"?>
<!DOCTYPE svg PUBLIC "-//W3C//DTD SVG 1.1//EN" "http://www.w3.org/Graphics/SVG/1.1/DTD/svg11.dtd">
<svg xmlns="http://www.w3.org/2000/svg" version="1.1" viewBox="0 0 300 300">
<g stroke-width="2.0" fill="none" stroke-linecap="butt">
<path stroke="#ff7b00" vector-effect="non-scaling-stroke" d="
  M 177.21 102.25
  Q 170.40 63.72 163.63 25.18
  Q 163.49 24.40 162.96 23.75"
/>
<path stroke="#80727b" vector-effect="non-scaling-stroke" d="
  M 0.00 209.69
  Q 0.82 208.82 1.46 207.83
  Q 2.31 206.53 2.83 205.93
  Q 51.55 149.94 64.81 135.06
  Q 66.49 133.18 66.79 132.25"
/>
</g>
<path fill="#ffb700" d="
  M 300.00 247.06
  Q 300.00 248.44 300.00 249.81
  Q 298.80 254.32 295.57 257.18
  Q 293.47 259.04 289.30 260.15
  Q 285.90 261.06 282.45 261.76
  Q 252.47 267.81 222.48 273.78
  Q 215.70 275.13 213.32 274.66
  Q 207.81 273.56 206.56 266.69
  Q 194.61 201.03 177.21 102.25
  Q 170.40 63.72 163.63 25.18
  Q 163.49 24.40 162.96 23.75
  Q 163.13 23.56 163.34 23.43
  Q 163.53 23.31 163.81 23.33
  Q 193.27 25.60 222.75 27.75
  Q 227.34 28.08 229.82 30.76
  Q 231.18 32.24 232.79 37.25
  Q 266.34 142.17 300.00 247.06
  Z"
/>
<path fill="#ff3e00" d="
  M 162.96 23.75
  Q 163.49 24.40 163.63 25.18
  Q 170.40 63.72 177.21 102.25
  L 176.88 102.24
  C 176.72 102.24 176.52 102.36 176.34 102.57
  Q 120.99 167.07 65.02 231.03
  Q 64.95 231.10 63.94 232.41
  Q 62.58 234.18 60.55 234.63
  Q 58.95 234.99 56.07 234.01
  Q 14.26 219.71 2.56 215.19
  Q 1.12 214.63 0.00 211.69
  Q 0.00 210.69 0.00 209.69
  Q 0.82 208.82 1.46 207.83
  Q 2.31 206.53 2.83 205.93
  Q 51.55 149.94 64.81 135.06
  Q 66.49 133.18 66.79 132.25
  Q 68.11 131.51 69.11 130.36
  Q 115.83 76.87 162.96 23.75
  Z"
/>
<path fill="#00a5f6" d="
  M 66.79 132.25
  Q 66.49 133.18 64.81 135.06
  Q 51.55 149.94 2.83 205.93
  Q 2.31 206.53 1.46 207.83
  Q 0.82 208.82 0.00 209.69
  Q 0.00 208.56 0.00 207.44
  Q 11.23 142.11 22.13 77.48
  Q 22.67 74.23 25.92 73.69
  Q 46.66 70.23 67.42 67.00
  Q 69.49 66.67 70.36 67.56
  Q 71.47 68.69 71.25 71.00
  Q 69.59 88.52 66.79 132.25
  Z"
/>
</svg>
