<?xml version="1.0" encoding="UTF-8" standalone="no"?>
<!DOCTYPE svg PUBLIC "-//W3C//DTD SVG 1.1//EN" "http://www.w3.org/Graphics/SVG/1.1/DTD/svg11.dtd">
<svg xmlns="http://www.w3.org/2000/svg" version="1.1" viewBox="0 0 300 300">
<g stroke-width="2.0" fill="none" stroke-linecap="butt">
<path stroke="#83c0f6" vector-effect="non-scaling-stroke" d="
  M 70.79 7.75
  Q 70.04 8.58 71.46 9.34
  Q 72.46 9.88 73.18 10.77
  Q 82.18 21.84 82.00 34.25
  Q 81.88 42.79 82.06 89.94
  Q 82.07 90.32 82.54 91.25"
/>
<path stroke="#5594e6" vector-effect="non-scaling-stroke" d="
  M 82.04 208.75
  Q 81.56 209.42 80.19 210.19
  Q 62.15 220.27 35.63 235.96
  Q 27.60 240.72 24.34 244.32
  Q 18.94 250.28 17.00 258.00
  Q 16.60 259.59 15.54 259.25"
/>
<path stroke="#819ae3" vector-effect="non-scaling-stroke" d="
  M 261.50 182.04
  Q 260.82 181.93 258.25 182.50
  Q 248.97 184.56 240.21 181.52
  Q 237.11 180.45 224.70 173.29
  Q 204.41 161.58 184.04 150.00"
/>
</g>
<path fill="#56baf9" d="
  M 45.81 0.00
  Q 48.94 0.00 52.06 0.00
  Q 62.36 1.63 70.79 7.75
  Q 70.04 8.58 71.46 9.34
  Q 72.46 9.88 73.18 10.77
  Q 82.18 21.84 82.00 34.25
  Q 81.88 42.79 82.06 89.94
  Q 82.07 90.32 82.54 91.25
  Q 82.24 92.13 82.25 94.25
  Q 82.51 135.46 82.04 208.75
  Q 81.56 209.42 80.19 210.19
  Q 62.15 220.27 35.63 235.96
  Q 27.60 240.72 24.34 244.32
  Q 18.94 250.28 17.00 258.00
  Q 16.60 259.59 15.54 259.25
  Q 15.47 147.84 15.50 36.43
  Q 15.50 29.15 16.77 24.70
  Q 22.72 3.86 45.81 0.00
  Z"
/>
<path fill="#afc5f3" d="
  M 70.79 7.75
  Q 217.51 92.30 267.69 121.31
  Q 277.87 127.20 282.06 138.44
  Q 285.07 146.50 283.78 154.90
  Q 282.54 162.95 277.63 169.66
  Q 271.58 177.92 261.50 182.04
  Q 260.82 181.93 258.25 182.50
  Q 248.97 184.56 240.21 181.52
  Q 237.11 180.45 224.70 173.29
  Q 204.41 161.58 184.04 150.00
  L 82.54 91.25
  Q 82.07 90.32 82.06 89.94
  Q 81.88 42.79 82.00 34.25
  Q 82.18 21.84 73.18 10.77
  Q 72.46 9.88 71.46 9.34
  Q 70.04 8.58 70.79 7.75
  Z"
/>
<path fill="#536ed3" d="
  M 184.04 150.00
  Q 204.41 161.58 224.70 173.29
  Q 237.11 180.45 240.21 181.52
  Q 248.97 184.56 258.25 182.50
  Q 260.82 181.93 261.50 182.04
  Q 170.14 235.20 78.48 287.84
  Q 63.30 296.55 60.97 297.46
  Q 46.63 303.03 32.96 295.44
  Q 25.41 291.25 21.18 284.79
  Q 16.67 277.93 15.82 269.24
  Q 15.33 264.26 15.54 259.25
  Q 16.60 259.59 17.00 258.00
  Q 18.94 250.28 24.34 244.32
  Q 27.60 240.72 35.63 235.96
  Q 62.15 220.27 80.19 210.19
  Q 81.56 209.42 82.04 208.75
  Q 82.89 208.56 85.06 207.31
  Q 134.63 178.79 184.04 150.00
  Z"
/>
</svg>
