<?xml version="1.0" encoding="UTF-8" standalone="no"?>
<!DOCTYPE svg PUBLIC "-//W3C//DTD SVG 1.1//EN" "http://www.w3.org/Graphics/SVG/1.1/DTD/svg11.dtd">
<svg xmlns="http://www.w3.org/2000/svg" version="1.1" viewBox="0.00 0.00 420.00 420.00">
<g stroke-width="2.00" fill="none" stroke-linecap="butt">
<path stroke="#c2d6e4" vector-effect="non-scaling-stroke" d="
  M 106.00 35.71
  A 0.71 0.71 0.0 0 0 105.29 35.00
  L 35.71 35.00
  A 0.71 0.71 0.0 0 0 35.00 35.71
  L 35.00 105.29
  A 0.71 0.71 0.0 0 0 35.71 106.00
  L 105.29 106.00
  A 0.71 0.71 0.0 0 0 106.00 105.29
  L 106.00 35.71"
/>
<path stroke="#c2d6e4" vector-effect="non-scaling-stroke" d="
  M 386.00 35.71
  A 0.71 0.71 0.0 0 0 385.29 35.00
  L 315.71 35.00
  A 0.71 0.71 0.0 0 0 315.00 35.71
  L 315.00 105.29
  A 0.71 0.71 0.0 0 0 315.71 106.00
  L 385.29 106.00
  A 0.71 0.71 0.0 0 0 386.00 105.29
  L 386.00 35.71"
/>
<path stroke="#c2d6e4" vector-effect="non-scaling-stroke" d="
  M 104.38 246.00
  A 0.62 0.62 0.0 0 1 105.00 246.62
  L 105.00 385.38
  A 0.62 0.62 0.0 0 0 105.62 386.00
  L 315.38 386.00
  A 0.62 0.62 0.0 0 0 316.00 385.38
  L 316.00 246.62
  A 0.62 0.62 0.0 0 1 316.62 246.00
  L 385.38 246.00
  A 0.62 0.62 0.0 0 0 386.00 245.38
  L 386.00 175.62
  A 0.62 0.62 0.0 0 0 385.38 175.00
  L 246.62 175.00
  A 0.62 0.62 0.0 0 1 246.00 174.38
  L 246.00 105.62
  A 0.62 0.62 0.0 0 0 245.38 105.00
  L 175.62 105.00
  A 0.62 0.62 0.0 0 0 175.00 105.62
  L 175.00 174.38
  A 0.62 0.62 0.0 0 1 174.38 175.00
  L 35.62 175.00
  A 0.62 0.62 0.0 0 0 35.00 175.62
  L 35.00 245.38
  A 0.62 0.62 0.0 0 0 35.62 246.00
  L 104.38 246.00"
/>
<path stroke="#c2d6e4" vector-effect="non-scaling-stroke" d="
  M 245.00 246.51
  A 0.51 0.51 0.0 0 0 244.49 246.00
  L 176.51 246.00
  A 0.51 0.51 0.0 0 0 176.00 246.51
  L 176.00 314.49
  A 0.51 0.51 0.0 0 0 176.51 315.00
  L 244.49 315.00
  A 0.51 0.51 0.0 0 0 245.00 314.49
  L 245.00 246.51"
/>
</g>
<path fill="#f0f0f0" d="
  M 0.00 0.00
  L 420.00 0.00
  L 420.00 420.00
  L 0.00 420.00
  L 0.00 0.00
  Z
  M 106.00 35.71
  A 0.71 0.71 0.0 0 0 105.29 35.00
  L 35.71 35.00
  A 0.71 0.71 0.0 0 0 35.00 35.71
  L 35.00 105.29
  A 0.71 0.71 0.0 0 0 35.71 106.00
  L 105.29 106.00
  A 0.71 0.71 0.0 0 0 106.00 105.29
  L 106.00 35.71
  Z
  M 386.00 35.71
  A 0.71 0.71 0.0 0 0 385.29 35.00
  L 315.71 35.00
  A 0.71 0.71 0.0 0 0 315.00 35.71
  L 315.00 105.29
  A 0.71 0.71 0.0 0 0 315.71 106.00
  L 385.29 106.00
  A 0.71 0.71 0.0 0 0 386.00 105.29
  L 386.00 35.71
  Z
  M 104.38 246.00
  A 0.62 0.62 0.0 0 1 105.00 246.62
  L 105.00 385.38
  A 0.62 0.62 0.0 0 0 105.62 386.00
  L 315.38 386.00
  A 0.62 0.62 0.0 0 0 316.00 385.38
  L 316.00 246.62
  A 0.62 0.62 0.0 0 1 316.62 246.00
  L 385.38 246.00
  A 0.62 0.62 0.0 0 0 386.00 245.38
  L 386.00 175.62
  A 0.62 0.62 0.0 0 0 385.38 175.00
  L 246.62 175.00
  A 0.62 0.62 0.0 0 1 246.00 174.38
  L 246.00 105.62
  A 0.62 0.62 0.0 0 0 245.38 105.00
  L 175.62 105.00
  A 0.62 0.62 0.0 0 0 175.00 105.62
  L 175.00 174.38
  A 0.62 0.62 0.0 0 1 174.38 175.00
  L 35.62 175.00
  A 0.62 0.62 0.0 0 0 35.00 175.62
  L 35.00 245.38
  A 0.62 0.62 0.0 0 0 35.62 246.00
  L 104.38 246.00
  Z"
/>
<rect fill="#93bbd7" x="35.00" y="35.00" width="71.00" height="71.00" rx="0.71"/>
<rect fill="#93bbd7" x="315.00" y="35.00" width="71.00" height="71.00" rx="0.71"/>
<path fill="#93bbd7" d="
  M 104.38 246.00
  L 35.62 246.00
  A 0.62 0.62 0.0 0 1 35.00 245.38
  L 35.00 175.62
  A 0.62 0.62 0.0 0 1 35.62 175.00
  L 174.38 175.00
  A 0.62 0.62 0.0 0 0 175.00 174.38
  L 175.00 105.62
  A 0.62 0.62 0.0 0 1 175.62 105.00
  L 245.38 105.00
  A 0.62 0.62 0.0 0 1 246.00 105.62
  L 246.00 174.38
  A 0.62 0.62 0.0 0 0 246.62 175.00
  L 385.38 175.00
  A 0.62 0.62 0.0 0 1 386.00 175.62
  L 386.00 245.38
  A 0.62 0.62 0.0 0 1 385.38 246.00
  L 316.62 246.00
  A 0.62 0.62 0.0 0 0 316.00 246.62
  L 316.00 385.38
  A 0.62 0.62 0.0 0 1 315.38 386.00
  L 105.62 386.00
  A 0.62 0.62 0.0 0 1 105.00 385.38
  L 105.00 246.62
  A 0.62 0.62 0.0 0 0 104.38 246.00
  Z
  M 245.00 246.51
  A 0.51 0.51 0.0 0 0 244.49 246.00
  L 176.51 246.00
  A 0.51 0.51 0.0 0 0 176.00 246.51
  L 176.00 314.49
  A 0.51 0.51 0.0 0 0 176.51 315.00
  L 244.49 315.00
  A 0.51 0.51 0.0 0 0 245.00 314.49
  L 245.00 246.51
  Z"
/>
<rect fill="#f0f0f0" x="176.00" y="246.00" width="69.00" height="69.00" rx="0.51"/>
</svg>
