<?xml version="1.0" encoding="UTF-8" standalone="no"?>
<!DOCTYPE svg PUBLIC "-//W3C//DTD SVG 1.1//EN" "http://www.w3.org/Graphics/SVG/1.1/DTD/svg11.dtd">
<svg xmlns="http://www.w3.org/2000/svg" version="1.1" viewBox="0 0 192 192">
<g stroke-width="2.0" fill="none" stroke-linecap="butt">
<path stroke="#cdcdcd" vector-effect="non-scaling-stroke" d="
  M 83.82 69.94
  Q 70.52 61.38 56.03 68.00
  Q 52.84 69.47 55.18 72.06
  Q 74.17 93.04 93.10 114.06
  C 93.27 114.25 93.58 114.24 93.72 114.03
  Q 97.78 108.12 100.31 105.06
  Q 116.97 84.95 133.31 64.56
  Q 136.25 60.89 137.54 58.20
  C 137.67 57.94 137.59 57.62 137.35 57.45
  Q 127.91 50.40 117.50 49.50
  Q 108.43 48.72 99.44 54.19
  Q 89.87 60.01 84.82 69.68
  C 84.63 70.04 84.17 70.16 83.82 69.94"
/>
<path stroke="#a0bbdf" vector-effect="non-scaling-stroke" d="
  M 159.81 92.69
  Q 155.40 88.90 148.06 87.53
  C 147.76 87.47 147.52 87.24 147.46 86.95
  Q 145.52 77.63 147.66 68.34
  Q 148.32 65.49 148.40 63.41
  Q 148.50 60.96 147.44 63.18
  L 107.93 146.08
  C 107.74 146.48 108.05 146.94 108.49 146.92
  Q 121.26 146.43 134.31 146.45
  Q 147.11 146.47 148.17 146.32
  Q 155.65 145.20 161.01 139.95
  Q 165.05 136.00 168.03 130.26
  Q 170.98 124.58 171.25 118.50
  Q 171.94 103.09 159.81 92.69"
/>
<path stroke="#a0bbdf" vector-effect="non-scaling-stroke" d="
  M 32.69 141.31
  Q 40.29 146.72 49.75 146.73
  Q 61.90 146.75 74.05 146.75
  Q 76.45 146.75 79.42 146.34
  Q 81.94 146.00 84.79 145.75
  C 85.04 145.73 85.19 145.47 85.09 145.24
  Q 66.74 105.71 47.29 66.77
  Q 47.18 66.54 47.01 66.42
  Q 46.36 65.93 46.61 66.97
  Q 47.77 71.72 48.75 76.51
  Q 49.07 78.06 48.22 79.72
  L 42.76 90.36
  C 42.61 90.66 42.36 90.88 42.09 90.96
  Q 36.33 92.76 35.06 93.31
  Q 30.23 95.41 26.44 100.19
  Q 19.38 109.08 20.34 119.99
  Q 20.51 121.91 20.63 123.84
  Q 20.78 125.99 21.40 127.55
  Q 24.61 135.57 32.69 141.31"
/>
</g>
<path fill="#ffffff" d="
  M 0.00 0.00
  Q 96.00 0.00 192.00 0.00
  Q 192.00 96.00 192.00 192.00
  Q 96.00 192.00 0.00 192.00
  Q 0.00 96.00 0.00 0.00
  Z
  M 83.82 69.94
  Q 70.52 61.38 56.03 68.00
  Q 52.84 69.47 55.18 72.06
  Q 74.17 93.04 93.10 114.06
  C 93.27 114.25 93.58 114.24 93.72 114.03
  Q 97.78 108.12 100.31 105.06
  Q 116.97 84.95 133.31 64.56
  Q 136.25 60.89 137.54 58.20
  C 137.67 57.94 137.59 57.62 137.35 57.45
  Q 127.91 50.40 117.50 49.50
  Q 108.43 48.72 99.44 54.19
  Q 89.87 60.01 84.82 69.68
  C 84.63 70.04 84.17 70.16 83.82 69.94
  Z
  M 159.81 92.69
  Q 155.40 88.90 148.06 87.53
  C 147.76 87.47 147.52 87.24 147.46 86.95
  Q 145.52 77.63 147.66 68.34
  Q 148.32 65.49 148.40 63.41
  Q 148.50 60.96 147.44 63.18
  L 107.93 146.08
  C 107.74 146.48 108.05 146.94 108.49 146.92
  Q 121.26 146.43 134.31 146.45
  Q 147.11 146.47 148.17 146.32
  Q 155.65 145.20 161.01 139.95
  Q 165.05 136.00 168.03 130.26
  Q 170.98 124.58 171.25 118.50
  Q 171.94 103.09 159.81 92.69
  Z
  M 32.69 141.31
  Q 40.29 146.72 49.75 146.73
  Q 61.90 146.75 74.05 146.75
  Q 76.45 146.75 79.42 146.34
  Q 81.94 146.00 84.79 145.75
  C 85.04 145.73 85.19 145.47 85.09 145.24
  Q 66.74 105.71 47.29 66.77
  Q 47.18 66.54 47.01 66.42
  Q 46.36 65.93 46.61 66.97
  Q 47.77 71.72 48.75 76.51
  Q 49.07 78.06 48.22 79.72
  L 42.76 90.36
  C 42.61 90.66 42.36 90.88 42.09 90.96
  Q 36.33 92.76 35.06 93.31
  Q 30.23 95.41 26.44 100.19
  Q 19.38 109.08 20.34 119.99
  Q 20.51 121.91 20.63 123.84
  Q 20.78 125.99 21.40 127.55
  Q 24.61 135.57 32.69 141.31
  Z"
/>
<path fill="#9b9b9b" d="
  M 83.82 69.94
  C 84.17 70.16 84.63 70.04 84.82 69.68
  Q 89.87 60.01 99.44 54.19
  Q 108.43 48.72 117.50 49.50
  Q 127.91 50.40 137.35 57.45
  C 137.59 57.62 137.67 57.94 137.54 58.20
  Q 136.25 60.89 133.31 64.56
  Q 116.97 84.95 100.31 105.06
  Q 97.78 108.12 93.72 114.03
  C 93.58 114.24 93.27 114.25 93.10 114.06
  Q 74.17 93.04 55.18 72.06
  Q 52.84 69.47 56.03 68.00
  Q 70.52 61.38 83.82 69.94
  Z"
/>
<path fill="#4076bf" d="
  M 159.81 92.69
  Q 171.94 103.09 171.25 118.50
  Q 170.98 124.58 168.03 130.26
  Q 165.05 136.00 161.01 139.95
  Q 155.65 145.20 148.17 146.32
  Q 147.11 146.47 134.31 146.45
  Q 121.26 146.43 108.49 146.92
  C 108.05 146.94 107.74 146.48 107.93 146.08
  L 147.44 63.18
  Q 148.50 60.96 148.40 63.41
  Q 148.32 65.49 147.66 68.34
  Q 145.52 77.63 147.46 86.95
  C 147.52 87.24 147.76 87.47 148.06 87.53
  Q 155.40 88.90 159.81 92.69
  Z"
/>
<path fill="#4076bf" d="
  M 32.69 141.31
  Q 24.61 135.57 21.40 127.55
  Q 20.78 125.99 20.63 123.84
  Q 20.51 121.91 20.34 119.99
  Q 19.38 109.08 26.44 100.19
  Q 30.23 95.41 35.06 93.31
  Q 36.33 92.76 42.09 90.96
  C 42.36 90.88 42.61 90.66 42.76 90.36
  L 48.22 79.72
  Q 49.07 78.06 48.75 76.51
  Q 47.77 71.72 46.61 66.97
  Q 46.36 65.93 47.01 66.42
  Q 47.18 66.54 47.29 66.77
  Q 66.74 105.71 85.09 145.24
  C 85.19 145.47 85.04 145.73 84.79 145.75
  Q 81.94 146.00 79.42 146.34
  Q 76.45 146.75 74.05 146.75
  Q 61.90 146.75 49.75 146.73
  Q 40.29 146.72 32.69 141.31
  Z"
/>
</svg>
