<?xml version="1.0" encoding="UTF-8" standalone="no"?>
<!DOCTYPE svg PUBLIC "-//W3C//DTD SVG 1.1//EN" "http://www.w3.org/Graphics/SVG/1.1/DTD/svg11.dtd">
<svg xmlns="http://www.w3.org/2000/svg" version="1.1" viewBox="0 0 150 150">
<g stroke-width="2.0" fill="none" stroke-linecap="butt">
<path stroke="#ca5c01" vector-effect="non-scaling-stroke" d="
  M 17.81 118.45
  Q 12.94 122.90 11.44 124.94
  Q 5.81 132.56 13.00 138.51
  Q 18.63 143.17 24.31 138.31
  Q 30.25 133.23 35.25 128.08
  Q 45.17 117.85 45.69 117.36
  Q 52.31 111.07 58.88 105.40
  Q 60.32 104.16 62.02 105.03
  Q 67.90 108.06 73.31 109.96
  Q 83.22 113.44 93.26 112.55
  Q 102.68 111.72 112.02 106.81
  Q 128.41 98.18 136.75 80.60
  Q 142.28 68.93 140.73 56.00
  Q 137.23 26.82 110.87 14.56
  Q 102.25 10.55 91.06 10.19
  Q 80.45 9.85 71.33 13.03
  Q 62.41 16.15 54.71 23.22
  Q 39.75 36.96 38.14 57.79
  Q 37.55 65.57 39.37 73.08
  Q 41.24 80.79 44.94 87.56
  Q 46.64 90.68 44.36 92.64
  Q 43.39 93.48 43.32 93.56
  Q 33.91 102.95 24.42 112.27
  Q 22.19 114.45 17.81 118.45"
/>
<path stroke="#ca5c01" vector-effect="non-scaling-stroke" d="
  M 121.77 61.01
  C 121.77 42.96 107.13 28.32 89.08 28.32
  C 71.03 28.32 56.39 42.96 56.39 61.01
  C 56.39 79.06 71.03 93.70 89.08 93.70
  C 107.13 93.70 121.77 79.06 121.77 61.01"
/>
</g>
<path fill="#953802" d="
  M 14.09 116.05
  Q 25.26 105.01 36.19 93.73
  Q 38.12 91.74 38.51 90.21
  Q 39.05 88.09 38.25 85.75
  Q 34.83 75.73 33.96 64.48
  Q 31.89 37.70 51.59 20.10
  Q 56.88 15.36 62.90 11.70
  Q 69.35 7.76 75.75 6.18
  Q 88.77 2.97 102.56 6.69
  Q 134.87 15.41 143.19 46.81
  Q 150.61 74.86 132.06 96.81
  Q 125.18 104.96 116.60 109.78
  Q 93.12 122.98 68.62 113.20
  Q 63.71 111.24 61.61 111.44
  Q 57.83 111.81 54.69 115.19
  Q 42.45 128.34 29.02 140.26
  Q 26.03 142.91 22.42 144.37
  Q 18.63 145.89 14.95 144.99
  Q 6.63 142.95 5.00 133.00
  Q 4.34 128.99 5.67 126.18
  Q 7.69 121.86 11.18 118.70
  Q 14.02 116.12 14.09 116.05
  Z
  M 17.81 118.45
  Q 12.94 122.90 11.44 124.94
  Q 5.81 132.56 13.00 138.51
  Q 18.63 143.17 24.31 138.31
  Q 30.25 133.23 35.25 128.08
  Q 45.17 117.85 45.69 117.36
  Q 52.31 111.07 58.88 105.40
  Q 60.32 104.16 62.02 105.03
  Q 67.90 108.06 73.31 109.96
  Q 83.22 113.44 93.26 112.55
  Q 102.68 111.72 112.02 106.81
  Q 128.41 98.18 136.75 80.60
  Q 142.28 68.93 140.73 56.00
  Q 137.23 26.82 110.87 14.56
  Q 102.25 10.55 91.06 10.19
  Q 80.45 9.85 71.33 13.03
  Q 62.41 16.15 54.71 23.22
  Q 39.75 36.96 38.14 57.79
  Q 37.55 65.57 39.37 73.08
  Q 41.24 80.79 44.94 87.56
  Q 46.64 90.68 44.36 92.64
  Q 43.39 93.48 43.32 93.56
  Q 33.91 102.95 24.42 112.27
  Q 22.19 114.45 17.81 118.45
  Z"
/>
<path fill="#ff8000" d="
  M 24.42 112.27
  Q 33.91 102.95 43.32 93.56
  Q 43.39 93.48 44.36 92.64
  Q 46.64 90.68 44.94 87.56
  Q 41.24 80.79 39.37 73.08
  Q 37.55 65.57 38.14 57.79
  Q 39.75 36.96 54.71 23.22
  Q 62.41 16.15 71.33 13.03
  Q 80.45 9.85 91.06 10.19
  Q 102.25 10.55 110.87 14.56
  Q 137.23 26.82 140.73 56.00
  Q 142.28 68.93 136.75 80.60
  Q 128.41 98.18 112.02 106.81
  Q 102.68 111.72 93.26 112.55
  Q 83.22 113.44 73.31 109.96
  Q 67.90 108.06 62.02 105.03
  Q 60.32 104.16 58.88 105.40
  Q 52.31 111.07 45.69 117.36
  Q 45.17 117.85 35.25 128.08
  Q 30.25 133.23 24.31 138.31
  Q 18.63 143.17 13.00 138.51
  Q 5.81 132.56 11.44 124.94
  Q 12.94 122.90 17.81 118.45
  Q 22.19 114.45 24.42 112.27
  Z
  M 121.77 61.01
  C 121.77 42.96 107.13 28.32 89.08 28.32
  C 71.03 28.32 56.39 42.96 56.39 61.01
  C 56.39 79.06 71.03 93.70 89.08 93.70
  C 107.13 93.70 121.77 79.06 121.77 61.01
  Z"
/>
<path fill="#953802" d="
  M 121.77 61.01
  C 121.77 79.06 107.13 93.70 89.08 93.70
  C 71.03 93.70 56.39 79.06 56.39 61.01
  C 56.39 42.96 71.03 28.32 89.08 28.32
  C 107.13 28.32 121.77 42.96 121.77 61.01
  Z
  M 117.16 61.06
  C 117.16 45.65 104.66 33.15 89.25 33.15
  C 73.84 33.15 61.34 45.65 61.34 61.06
  C 61.34 76.47 73.84 88.97 89.25 88.97
  C 104.66 88.97 117.16 76.47 117.16 61.06
  Z"
/>
</svg>
