<?xml version="1.0" encoding="UTF-8" standalone="no"?>
<!DOCTYPE svg PUBLIC "-//W3C//DTD SVG 1.1//EN" "http://www.w3.org/Graphics/SVG/1.1/DTD/svg11.dtd">
<svg xmlns="http://www.w3.org/2000/svg" version="1.1" viewBox="0 0 381 381">
<g stroke-width="2.0" fill="none" stroke-linecap="butt">
<path stroke="#47915a" vector-effect="non-scaling-stroke" d="
  M 161.50 377.21
  Q 161.63 377.05 161.81 376.98
  C 162.02 376.91 162.14 376.74 162.11 376.57
  Q 161.81 374.97 161.88 373.35
  Q 161.99 370.73 161.99 370.65
  Q 161.83 347.84 162.25 325.04"
/>
<path stroke="#3d8851" vector-effect="non-scaling-stroke" d="
  M 162.25 325.04
  Q 165.64 325.55 169.03 326.06
  Q 172.58 326.58 175.86 326.67
  Q 187.43 326.99 199.00 326.46
  Q 204.74 326.19 212.19 324.44
  Q 225.11 321.39 234.31 312.81
  Q 239.91 307.59 242.29 299.68
  Q 244.02 293.95 242.98 288.73
  Q 241.98 283.68 239.06 278.19
  Q 235.01 270.57 227.65 266.11
  Q 218.38 260.50 208.41 256.22
  Q 200.56 252.86 193.15 248.62
  Q 187.05 245.12 181.64 240.69
  Q 175.12 235.36 171.55 231.10
  Q 163.06 220.99 162.71 207.48
  Q 162.56 201.39 164.14 195.77
  Q 165.83 189.78 169.19 184.94
  Q 177.56 172.87 190.87 165.28
  Q 193.37 163.85 196.40 162.64
  Q 200.27 161.10 202.19 160.69
  Q 212.70 158.42 223.36 157.06
  Q 226.71 156.63 229.47 156.03
  Q 232.50 155.36 235.51 154.67
  Q 240.13 153.62 243.03 151.69
  Q 246.29 149.51 248.96 146.65
  Q 251.92 143.48 252.95 140.13
  Q 254.11 136.30 253.68 131.80
  C 253.62 131.15 253.37 130.53 252.95 130.02
  Q 246.49 122.12 243.85 113.41
  Q 242.38 108.54 241.21 106.51
  Q 235.15 96.06 224.31 90.94
  Q 211.14 84.71 195.66 84.05
  Q 194.30 83.99 192.87 83.76
  Q 191.48 83.53 190.07 83.37
  Q 186.64 82.99 186.09 79.90
  Q 185.79 78.19 185.78 78.13
  Q 183.17 67.65 182.77 56.86
  Q 182.74 56.06 182.44 55.74
  Q 181.92 55.17 181.00 55.79"
/>
<path stroke="#a2c5ab" vector-effect="non-scaling-stroke" d="
  M 181.00 55.79
  Q 180.68 55.50 180.25 55.46"
/>
<path stroke="#3d8851" vector-effect="non-scaling-stroke" d="
  M 180.25 55.46
  Q 181.43 55.18 180.75 54.50
  C 180.32 54.07 179.62 54.06 179.18 54.49
  Q 171.85 61.61 169.22 69.32
  Q 167.21 75.21 165.81 81.26
  Q 164.68 86.18 162.54 90.75"
/>
<path stroke="#47915a" vector-effect="non-scaling-stroke" d="
  M 162.54 90.75
  Q 161.93 90.01 161.94 88.69
  Q 162.07 67.33 162.00 3.79"
/>
<path stroke="#9bc2a5" vector-effect="non-scaling-stroke" d="
  M 180.25 55.46
  Q 170.13 64.00 168.25 77.25
  Q 167.51 82.49 163.22 94.70
  Q 161.47 99.68 160.23 104.42
  Q 158.94 109.35 157.56 114.25
  Q 156.31 118.73 154.96 121.57
  Q 153.21 125.28 151.06 128.31
  Q 145.66 135.93 137.41 145.94
  Q 126.35 159.36 115.18 172.68
  Q 102.34 187.99 93.31 205.81
  Q 87.90 216.49 85.21 228.66
  Q 82.95 238.82 83.41 248.49
  Q 84.73 276.57 104.32 296.07
  Q 110.85 302.56 120.25 308.05
  Q 141.75 320.61 166.55 324.05
  Q 176.28 325.40 184.98 325.47
  Q 193.32 325.53 203.50 324.50
  Q 217.51 323.08 227.19 316.69
  Q 234.67 311.75 238.69 304.44
  Q 243.31 296.03 241.06 286.19
  Q 238.43 274.66 227.33 267.41
  Q 222.37 264.17 216.95 261.77
  Q 205.93 256.89 195.32 251.17
  Q 184.98 245.59 176.21 237.79
  Q 167.19 229.78 163.56 220.19
  Q 159.17 208.58 163.31 195.52
  Q 166.23 186.30 171.69 179.69
  Q 187.55 160.46 212.91 157.00
  Q 232.79 154.29 237.25 152.75
  Q 241.66 151.23 245.32 148.33
  Q 253.53 141.82 252.49 131.32
  C 252.46 131.00 252.32 130.69 252.10 130.45
  Q 245.17 122.92 242.60 112.97
  Q 240.64 105.35 233.94 99.31
  Q 226.67 92.76 219.09 90.10
  Q 206.55 85.70 193.25 85.51
  Q 188.80 85.44 185.67 82.53
  C 185.44 82.32 185.28 82.03 185.20 81.70
  Q 182.22 68.89 181.00 55.79"
/>
<path stroke="#408e54" vector-effect="non-scaling-stroke" d="
  M 162.54 90.75
  Q 161.19 97.14 159.12 103.33
  Q 158.37 105.58 156.75 112.75
  Q 155.81 116.90 153.62 121.40
  Q 152.03 124.65 148.81 129.20
  Q 139.62 142.17 129.28 154.27
  Q 115.74 170.11 110.81 176.31
  Q 102.58 186.68 96.44 197.19
  Q 90.37 207.56 86.54 219.58
  Q 86.47 219.78 85.57 221.66
  Q 85.04 222.76 85.17 224.01
  C 85.21 224.34 85.16 224.67 85.03 224.95
  Q 84.26 226.58 83.69 229.19
  Q 78.94 250.77 86.56 270.94
  Q 94.37 291.59 113.22 305.01
  Q 127.09 314.88 142.81 319.94
  Q 151.62 322.77 162.25 325.04"
/>
<path stroke="#48945b" vector-effect="non-scaling-stroke" d="
  M 58.96 326.75
  L 58.85 326.27
  Q 58.72 325.63 59.29 326.12
  L 61.93 328.37
  C 62.12 328.54 62.44 328.64 62.81 328.66
  Q 63.71 328.72 64.05 329.59
  C 64.20 329.96 64.50 330.20 64.67 330.08
  Q 64.92 329.91 64.35 329.01
  C 64.11 328.64 64.06 328.18 64.21 327.76
  Q 65.20 325.01 64.49 323.43
  C 64.34 323.09 64.28 322.76 64.34 322.50
  L 64.87 320.23
  C 64.93 319.93 64.88 319.61 64.71 319.34
  Q 63.48 317.38 64.40 314.09
  C 64.67 313.13 64.55 312.10 64.07 311.22
  Q 63.62 310.41 64.28 308.95
  Q 64.44 308.59 64.44 308.01
  L 64.44 300.69
  Q 64.44 297.95 64.25 296.50
  Q 63.18 288.21 64.03 279.91
  Q 64.12 279.02 63.84 276.12
  Q 63.64 274.12 64.53 272.20
  C 64.65 271.93 64.68 271.60 64.61 271.26
  L 64.05 268.26
  C 64.00 267.98 64.09 267.65 64.29 267.34
  Q 65.16 266.06 64.83 265.43
  Q 64.14 264.10 64.12 262.76
  L 63.98 252.25
  Q 63.98 251.88 64.24 251.31
  Q 64.61 250.53 64.52 249.71
  Q 64.30 247.86 64.31 247.75
  Q 64.53 242.74 63.56 236.83
  Q 63.45 236.18 63.48 235.82
  L 64.22 227.43
  Q 64.27 226.87 64.11 226.48
  Q 63.38 224.72 63.56 223.31
  Q 63.83 221.23 63.41 219.73
  Q 63.26 219.21 63.34 218.77
  Q 64.03 214.83 64.03 210.86
  Q 64.03 210.68 63.51 207.73
  Q 63.25 206.24 63.69 204.44
  Q 64.13 202.62 63.21 200.45
  C 63.04 200.07 62.98 199.73 63.04 199.50
  L 64.30 194.46
  C 64.39 194.11 64.38 193.78 64.26 193.56
  Q 62.55 190.26 64.04 186.94
  C 64.17 186.66 64.15 186.33 64.00 186.06
  Q 62.88 183.97 63.06 182.81
  Q 64.01 176.87 64.21 170.85
  Q 64.26 169.25 63.70 166.71
  Q 63.22 164.54 63.25 162.50
  Q 63.27 160.87 63.51 156.70
  Q 63.58 155.49 63.50 150.92
  Q 63.44 148.08 63.91 145.24
  C 63.96 144.95 63.91 144.62 63.75 144.31
  Q 62.92 142.63 63.56 140.56
  Q 63.92 139.39 63.49 138.09
  Q 62.99 136.58 63.04 135.80
  Q 63.15 134.00 63.62 132.23
  C 63.70 131.93 63.69 131.60 63.60 131.27
  Q 63.05 129.31 63.80 127.45
  C 63.92 127.15 63.94 126.82 63.86 126.53
  Q 62.68 122.29 63.49 118.06
  Q 63.92 115.80 63.64 113.92
  Q 62.91 109.02 63.50 105.25
  Q 64.33 99.95 63.52 95.75
  Q 63.26 94.41 63.39 92.84
  Q 63.51 91.35 63.28 89.88
  Q 62.81 86.92 62.81 85.56
  Q 62.82 82.21 62.32 78.91
  Q 61.91 76.23 62.15 73.43
  Q 62.40 70.44 62.19 67.43
  Q 61.82 62.31 62.22 56.74
  Q 62.44 53.64 60.19 55.51
  L 57.62 57.64
  C 57.40 57.82 57.10 57.82 57.03 57.63
  Q 56.93 57.35 57.33 57.09
  Q 60.11 55.30 61.21 52.25"
/>
<path stroke="#86b492" vector-effect="non-scaling-stroke" d="
  M 245.94 258.81
  Q 252.48 264.38 256.15 272.25
  Q 259.65 279.76 259.98 288.29
  Q 260.47 300.95 253.81 312.36
  Q 251.76 315.87 251.25 317.25
  Q 249.80 321.14 252.83 321.14
  Q 253.99 321.14 255.95 320.36
  Q 268.38 315.44 278.06 305.06
  Q 291.00 291.19 295.81 273.65
  Q 301.04 254.58 295.31 235.69
  Q 290.18 218.78 278.17 205.82
  Q 256.11 182.00 223.74 177.58
  Q 213.40 176.17 202.00 179.00
  Q 192.65 181.32 186.61 187.49
  Q 180.35 193.88 179.06 202.42
  Q 177.90 210.02 181.59 216.83
  Q 184.28 221.78 191.04 227.16
  Q 198.44 233.03 206.93 237.33
  Q 217.85 242.85 228.91 248.12
  Q 239.09 252.98 245.94 258.81"
/>
</g>
<path fill="#448b57" d="
  M 161.50 377.21
  Q 161.63 377.05 161.81 376.98
  C 162.02 376.91 162.14 376.74 162.11 376.57
  Q 161.81 374.97 161.88 373.35
  Q 161.99 370.73 161.99 370.65
  Q 161.83 347.84 162.25 325.04
  Q 165.64 325.55 169.03 326.06
  Q 172.58 326.58 175.86 326.67
  Q 187.43 326.99 199.00 326.46
  Q 204.74 326.19 212.19 324.44
  Q 225.11 321.39 234.31 312.81
  Q 239.91 307.59 242.29 299.68
  Q 244.02 293.95 242.98 288.73
  Q 241.98 283.68 239.06 278.19
  Q 235.01 270.57 227.65 266.11
  Q 218.38 260.50 208.41 256.22
  Q 200.56 252.86 193.15 248.62
  Q 187.05 245.12 181.64 240.69
  Q 175.12 235.36 171.55 231.10
  Q 163.06 220.99 162.71 207.48
  Q 162.56 201.39 164.14 195.77
  Q 165.83 189.78 169.19 184.94
  Q 177.56 172.87 190.87 165.28
  Q 193.37 163.85 196.40 162.64
  Q 200.27 161.10 202.19 160.69
  Q 212.70 158.42 223.36 157.06
  Q 226.71 156.63 229.47 156.03
  Q 232.50 155.36 235.51 154.67
  Q 240.13 153.62 243.03 151.69
  Q 246.29 149.51 248.96 146.65
  Q 251.92 143.48 252.95 140.13
  Q 254.11 136.30 253.68 131.80
  C 253.62 131.15 253.37 130.53 252.95 130.02
  Q 246.49 122.12 243.85 113.41
  Q 242.38 108.54 241.21 106.51
  Q 235.15 96.06 224.31 90.94
  Q 211.14 84.71 195.66 84.05
  Q 194.30 83.99 192.87 83.76
  Q 191.48 83.53 190.07 83.37
  Q 186.64 82.99 186.09 79.90
  Q 185.79 78.19 185.78 78.13
  Q 183.17 67.65 182.77 56.86
  Q 182.74 56.06 182.44 55.74
  Q 181.92 55.17 181.00 55.79
  Q 180.68 55.50 180.25 55.46
  Q 181.43 55.18 180.75 54.50
  C 180.32 54.07 179.62 54.06 179.18 54.49
  Q 171.85 61.61 169.22 69.32
  Q 167.21 75.21 165.81 81.26
  Q 164.68 86.18 162.54 90.75
  Q 161.93 90.01 161.94 88.69
  Q 162.07 67.33 162.00 3.79
  Q 198.77 -1.79 234.80 7.24
  Q 291.34 21.41 329.78 63.86
  Q 336.46 71.24 342.37 79.40
  Q 377.94 128.53 378.62 189.75
  Q 378.73 199.79 377.66 209.71
  Q 371.57 266.38 335.81 310.31
  Q 311.07 340.71 274.75 358.95
  Q 221.22 385.84 161.50 377.21
  Z
  M 245.94 258.81
  Q 252.48 264.38 256.15 272.25
  Q 259.65 279.76 259.98 288.29
  Q 260.47 300.95 253.81 312.36
  Q 251.76 315.87 251.25 317.25
  Q 249.80 321.14 252.83 321.14
  Q 253.99 321.14 255.95 320.36
  Q 268.38 315.44 278.06 305.06
  Q 291.00 291.19 295.81 273.65
  Q 301.04 254.58 295.31 235.69
  Q 290.18 218.78 278.17 205.82
  Q 256.11 182.00 223.74 177.58
  Q 213.40 176.17 202.00 179.00
  Q 192.65 181.32 186.61 187.49
  Q 180.35 193.88 179.06 202.42
  Q 177.90 210.02 181.59 216.83
  Q 184.28 221.78 191.04 227.16
  Q 198.44 233.03 206.93 237.33
  Q 217.85 242.85 228.91 248.12
  Q 239.09 252.98 245.94 258.81
  Z"
/>
<path fill="#4a975d" d="
  M 162.00 3.79
  Q 162.07 67.33 161.94 88.69
  Q 161.93 90.01 162.54 90.75
  Q 161.19 97.14 159.12 103.33
  Q 158.37 105.58 156.75 112.75
  Q 155.81 116.90 153.62 121.40
  Q 152.03 124.65 148.81 129.20
  Q 139.62 142.17 129.28 154.27
  Q 115.74 170.11 110.81 176.31
  Q 102.58 186.68 96.44 197.19
  Q 90.37 207.56 86.54 219.58
  Q 86.47 219.78 85.57 221.66
  Q 85.04 222.76 85.17 224.01
  C 85.21 224.34 85.16 224.67 85.03 224.95
  Q 84.26 226.58 83.69 229.19
  Q 78.94 250.77 86.56 270.94
  Q 94.37 291.59 113.22 305.01
  Q 127.09 314.88 142.81 319.94
  Q 151.62 322.77 162.25 325.04
  Q 161.83 347.84 161.99 370.65
  Q 161.99 370.73 161.88 373.35
  Q 161.81 374.97 162.11 376.57
  C 162.14 376.74 162.02 376.91 161.81 376.98
  Q 161.63 377.05 161.50 377.21
  Q 102.28 367.84 58.96 326.75
  L 58.85 326.27
  Q 58.72 325.63 59.29 326.12
  L 61.93 328.37
  C 62.12 328.54 62.44 328.64 62.81 328.66
  Q 63.71 328.72 64.05 329.59
  C 64.20 329.96 64.50 330.20 64.67 330.08
  Q 64.92 329.91 64.35 329.01
  C 64.11 328.64 64.06 328.18 64.21 327.76
  Q 65.20 325.01 64.49 323.43
  C 64.34 323.09 64.28 322.76 64.34 322.50
  L 64.87 320.23
  C 64.93 319.93 64.88 319.61 64.71 319.34
  Q 63.48 317.38 64.40 314.09
  C 64.67 313.13 64.55 312.10 64.07 311.22
  Q 63.62 310.41 64.28 308.95
  Q 64.44 308.59 64.44 308.01
  L 64.44 300.69
  Q 64.44 297.95 64.25 296.50
  Q 63.18 288.21 64.03 279.91
  Q 64.12 279.02 63.84 276.12
  Q 63.64 274.12 64.53 272.20
  C 64.65 271.93 64.68 271.60 64.61 271.26
  L 64.05 268.26
  C 64.00 267.98 64.09 267.65 64.29 267.34
  Q 65.16 266.06 64.83 265.43
  Q 64.14 264.10 64.12 262.76
  L 63.98 252.25
  Q 63.98 251.88 64.24 251.31
  Q 64.61 250.53 64.52 249.71
  Q 64.30 247.86 64.31 247.75
  Q 64.53 242.74 63.56 236.83
  Q 63.45 236.18 63.48 235.82
  L 64.22 227.43
  Q 64.27 226.87 64.11 226.48
  Q 63.38 224.72 63.56 223.31
  Q 63.83 221.23 63.41 219.73
  Q 63.26 219.21 63.34 218.77
  Q 64.03 214.83 64.03 210.86
  Q 64.03 210.68 63.51 207.73
  Q 63.25 206.24 63.69 204.44
  Q 64.13 202.62 63.21 200.45
  C 63.04 200.07 62.98 199.73 63.04 199.50
  L 64.30 194.46
  C 64.39 194.11 64.38 193.78 64.26 193.56
  Q 62.55 190.26 64.04 186.94
  C 64.17 186.66 64.15 186.33 64.00 186.06
  Q 62.88 183.97 63.06 182.81
  Q 64.01 176.87 64.21 170.85
  Q 64.26 169.25 63.70 166.71
  Q 63.22 164.54 63.25 162.50
  Q 63.27 160.87 63.51 156.70
  Q 63.58 155.49 63.50 150.92
  Q 63.44 148.08 63.91 145.24
  C 63.96 144.95 63.91 144.62 63.75 144.31
  Q 62.92 142.63 63.56 140.56
  Q 63.92 139.39 63.49 138.09
  Q 62.99 136.58 63.04 135.80
  Q 63.15 134.00 63.62 132.23
  C 63.70 131.93 63.69 131.60 63.60 131.27
  Q 63.05 129.31 63.80 127.45
  C 63.92 127.15 63.94 126.82 63.86 126.53
  Q 62.68 122.29 63.49 118.06
  Q 63.92 115.80 63.64 113.92
  Q 62.91 109.02 63.50 105.25
  Q 64.33 99.95 63.52 95.75
  Q 63.26 94.41 63.39 92.84
  Q 63.51 91.35 63.28 89.88
  Q 62.81 86.92 62.81 85.56
  Q 62.82 82.21 62.32 78.91
  Q 61.91 76.23 62.15 73.43
  Q 62.40 70.44 62.19 67.43
  Q 61.82 62.31 62.22 56.74
  Q 62.44 53.64 60.19 55.51
  L 57.62 57.64
  C 57.40 57.82 57.10 57.82 57.03 57.63
  Q 56.93 57.35 57.33 57.09
  Q 60.11 55.30 61.21 52.25
  Q 104.03 12.59 162.00 3.79
  Z"
/>
<path fill="#469058" d="
  M 61.21 52.25
  Q 60.11 55.30 57.33 57.09
  Q 56.93 57.35 57.03 57.63
  C 57.10 57.82 57.40 57.82 57.62 57.64
  L 60.19 55.51
  Q 62.44 53.64 62.22 56.74
  Q 61.82 62.31 62.19 67.43
  Q 62.40 70.44 62.15 73.43
  Q 61.91 76.23 62.32 78.91
  Q 62.82 82.21 62.81 85.56
  Q 62.81 86.92 63.28 89.88
  Q 63.51 91.35 63.39 92.84
  Q 63.26 94.41 63.52 95.75
  Q 64.33 99.95 63.50 105.25
  Q 62.91 109.02 63.64 113.92
  Q 63.92 115.80 63.49 118.06
  Q 62.68 122.29 63.86 126.53
  C 63.94 126.82 63.92 127.15 63.80 127.45
  Q 63.05 129.31 63.60 131.27
  C 63.69 131.60 63.70 131.93 63.62 132.23
  Q 63.15 134.00 63.04 135.80
  Q 62.99 136.58 63.49 138.09
  Q 63.92 139.39 63.56 140.56
  Q 62.92 142.63 63.75 144.31
  C 63.91 144.62 63.96 144.95 63.91 145.24
  Q 63.44 148.08 63.50 150.92
  Q 63.58 155.49 63.51 156.70
  Q 63.27 160.87 63.25 162.50
  Q 63.22 164.54 63.70 166.71
  Q 64.26 169.25 64.21 170.85
  Q 64.01 176.87 63.06 182.81
  Q 62.88 183.97 64.00 186.06
  C 64.15 186.33 64.17 186.66 64.04 186.94
  Q 62.55 190.26 64.26 193.56
  C 64.38 193.78 64.39 194.11 64.30 194.46
  L 63.04 199.50
  C 62.98 199.73 63.04 200.07 63.21 200.45
  Q 64.13 202.62 63.69 204.44
  Q 63.25 206.24 63.51 207.73
  Q 64.03 210.68 64.03 210.86
  Q 64.03 214.83 63.34 218.77
  Q 63.26 219.21 63.41 219.73
  Q 63.83 221.23 63.56 223.31
  Q 63.38 224.72 64.11 226.48
  Q 64.27 226.87 64.22 227.43
  L 63.48 235.82
  Q 63.45 236.18 63.56 236.83
  Q 64.53 242.74 64.31 247.75
  Q 64.30 247.86 64.52 249.71
  Q 64.61 250.53 64.24 251.31
  Q 63.98 251.88 63.98 252.25
  L 64.12 262.76
  Q 64.14 264.10 64.83 265.43
  Q 65.16 266.06 64.29 267.34
  C 64.09 267.65 64.00 267.98 64.05 268.26
  L 64.61 271.26
  C 64.68 271.60 64.65 271.93 64.53 272.20
  Q 63.64 274.12 63.84 276.12
  Q 64.12 279.02 64.03 279.91
  Q 63.18 288.21 64.25 296.50
  Q 64.44 297.95 64.44 300.69
  L 64.44 308.01
  Q 64.44 308.59 64.28 308.95
  Q 63.62 310.41 64.07 311.22
  C 64.55 312.10 64.67 313.13 64.40 314.09
  Q 63.48 317.38 64.71 319.34
  C 64.88 319.61 64.93 319.93 64.87 320.23
  L 64.34 322.50
  C 64.28 322.76 64.34 323.09 64.49 323.43
  Q 65.20 325.01 64.21 327.76
  C 64.06 328.18 64.11 328.64 64.35 329.01
  Q 64.92 329.91 64.67 330.08
  C 64.50 330.20 64.20 329.96 64.05 329.59
  Q 63.71 328.72 62.81 328.66
  C 62.44 328.64 62.12 328.54 61.93 328.37
  L 59.29 326.12
  Q 58.72 325.63 58.85 326.27
  L 58.96 326.75
  Q 30.53 299.32 15.56 263.44
  Q -2.02 221.31 1.49 175.69
  Q 2.25 165.79 4.14 155.89
  Q 15.70 95.09 61.21 52.25
  Z"
/>
<path fill="#36844b" d="
  M 180.25 55.46
  Q 170.13 64.00 168.25 77.25
  Q 167.51 82.49 163.22 94.70
  Q 161.47 99.68 160.23 104.42
  Q 158.94 109.35 157.56 114.25
  Q 156.31 118.73 154.96 121.57
  Q 153.21 125.28 151.06 128.31
  Q 145.66 135.93 137.41 145.94
  Q 126.35 159.36 115.18 172.68
  Q 102.34 187.99 93.31 205.81
  Q 87.90 216.49 85.21 228.66
  Q 82.95 238.82 83.41 248.49
  Q 84.73 276.57 104.32 296.07
  Q 110.85 302.56 120.25 308.05
  Q 141.75 320.61 166.55 324.05
  Q 176.28 325.40 184.98 325.47
  Q 193.32 325.53 203.50 324.50
  Q 217.51 323.08 227.19 316.69
  Q 234.67 311.75 238.69 304.44
  Q 243.31 296.03 241.06 286.19
  Q 238.43 274.66 227.33 267.41
  Q 222.37 264.17 216.95 261.77
  Q 205.93 256.89 195.32 251.17
  Q 184.98 245.59 176.21 237.79
  Q 167.19 229.78 163.56 220.19
  Q 159.17 208.58 163.31 195.52
  Q 166.23 186.30 171.69 179.69
  Q 187.55 160.46 212.91 157.00
  Q 232.79 154.29 237.25 152.75
  Q 241.66 151.23 245.32 148.33
  Q 253.53 141.82 252.49 131.32
  C 252.46 131.00 252.32 130.69 252.10 130.45
  Q 245.17 122.92 242.60 112.97
  Q 240.64 105.35 233.94 99.31
  Q 226.67 92.76 219.09 90.10
  Q 206.55 85.70 193.25 85.51
  Q 188.80 85.44 185.67 82.53
  C 185.44 82.32 185.28 82.03 185.20 81.70
  Q 182.22 68.89 181.00 55.79
  Q 181.92 55.17 182.44 55.74
  Q 182.74 56.06 182.77 56.86
  Q 183.17 67.65 185.78 78.13
  Q 185.79 78.19 186.09 79.90
  Q 186.64 82.99 190.07 83.37
  Q 191.48 83.53 192.87 83.76
  Q 194.30 83.99 195.66 84.05
  Q 211.14 84.71 224.31 90.94
  Q 235.15 96.06 241.21 106.51
  Q 242.38 108.54 243.85 113.41
  Q 246.49 122.12 252.95 130.02
  C 253.37 130.53 253.62 131.15 253.68 131.80
  Q 254.11 136.30 252.95 140.13
  Q 251.92 143.48 248.96 146.65
  Q 246.29 149.51 243.03 151.69
  Q 240.13 153.62 235.51 154.67
  Q 232.50 155.36 229.47 156.03
  Q 226.71 156.63 223.36 157.06
  Q 212.70 158.42 202.19 160.69
  Q 200.27 161.10 196.40 162.64
  Q 193.37 163.85 190.87 165.28
  Q 177.56 172.87 169.19 184.94
  Q 165.83 189.78 164.14 195.77
  Q 162.56 201.39 162.71 207.48
  Q 163.06 220.99 171.55 231.10
  Q 175.12 235.36 181.64 240.69
  Q 187.05 245.12 193.15 248.62
  Q 200.56 252.86 208.41 256.22
  Q 218.38 260.50 227.65 266.11
  Q 235.01 270.57 239.06 278.19
  Q 241.98 283.68 242.98 288.73
  Q 244.02 293.95 242.29 299.68
  Q 239.91 307.59 234.31 312.81
  Q 225.11 321.39 212.19 324.44
  Q 204.74 326.19 199.00 326.46
  Q 187.43 326.99 175.86 326.67
  Q 172.58 326.58 169.03 326.06
  Q 165.64 325.55 162.25 325.04
  Q 151.62 322.77 142.81 319.94
  Q 127.09 314.88 113.22 305.01
  Q 94.37 291.59 86.56 270.94
  Q 78.94 250.77 83.69 229.19
  Q 84.26 226.58 85.03 224.95
  C 85.16 224.67 85.21 224.34 85.17 224.01
  Q 85.04 222.76 85.57 221.66
  Q 86.47 219.78 86.54 219.58
  Q 90.37 207.56 96.44 197.19
  Q 102.58 186.68 110.81 176.31
  Q 115.74 170.11 129.28 154.27
  Q 139.62 142.17 148.81 129.20
  Q 152.03 124.65 153.62 121.40
  Q 155.81 116.90 156.75 112.75
  Q 158.37 105.58 159.12 103.33
  Q 161.19 97.14 162.54 90.75
  Q 164.68 86.18 165.81 81.26
  Q 167.21 75.21 169.22 69.32
  Q 171.85 61.61 179.18 54.49
  C 179.62 54.06 180.32 54.07 180.75 54.50
  Q 181.43 55.18 180.25 55.46
  Z"
/>
<path fill="#ffffff" d="
  M 180.25 55.46
  Q 180.68 55.50 181.00 55.79
  Q 182.22 68.89 185.20 81.70
  C 185.28 82.03 185.44 82.32 185.67 82.53
  Q 188.80 85.44 193.25 85.51
  Q 206.55 85.70 219.09 90.10
  Q 226.67 92.76 233.94 99.31
  Q 240.64 105.35 242.60 112.97
  Q 245.17 122.92 252.10 130.45
  C 252.32 130.69 252.46 131.00 252.49 131.32
  Q 253.53 141.82 245.32 148.33
  Q 241.66 151.23 237.25 152.75
  Q 232.79 154.29 212.91 157.00
  Q 187.55 160.46 171.69 179.69
  Q 166.23 186.30 163.31 195.52
  Q 159.17 208.58 163.56 220.19
  Q 167.19 229.78 176.21 237.79
  Q 184.98 245.59 195.32 251.17
  Q 205.93 256.89 216.95 261.77
  Q 222.37 264.17 227.33 267.41
  Q 238.43 274.66 241.06 286.19
  Q 243.31 296.03 238.69 304.44
  Q 234.67 311.75 227.19 316.69
  Q 217.51 323.08 203.50 324.50
  Q 193.32 325.53 184.98 325.47
  Q 176.28 325.40 166.55 324.05
  Q 141.75 320.61 120.25 308.05
  Q 110.85 302.56 104.32 296.07
  Q 84.73 276.57 83.41 248.49
  Q 82.95 238.82 85.21 228.66
  Q 87.90 216.49 93.31 205.81
  Q 102.34 187.99 115.18 172.68
  Q 126.35 159.36 137.41 145.94
  Q 145.66 135.93 151.06 128.31
  Q 153.21 125.28 154.96 121.57
  Q 156.31 118.73 157.56 114.25
  Q 158.94 109.35 160.23 104.42
  Q 161.47 99.68 163.22 94.70
  Q 167.51 82.49 168.25 77.25
  Q 170.13 64.00 180.25 55.46
  Z"
/>
<path fill="#c7dccd" d="
  M 245.94 258.81
  Q 239.09 252.98 228.91 248.12
  Q 217.85 242.85 206.93 237.33
  Q 198.44 233.03 191.04 227.16
  Q 184.28 221.78 181.59 216.83
  Q 177.90 210.02 179.06 202.42
  Q 180.35 193.88 186.61 187.49
  Q 192.65 181.32 202.00 179.00
  Q 213.40 176.17 223.74 177.58
  Q 256.11 182.00 278.17 205.82
  Q 290.18 218.78 295.31 235.69
  Q 301.04 254.58 295.81 273.65
  Q 291.00 291.19 278.06 305.06
  Q 268.38 315.44 255.95 320.36
  Q 253.99 321.14 252.83 321.14
  Q 249.80 321.14 251.25 317.25
  Q 251.76 315.87 253.81 312.36
  Q 260.47 300.95 259.98 288.29
  Q 259.65 279.76 256.15 272.25
  Q 252.48 264.38 245.94 258.81
  Z"
/>
</svg>
