<?xml version="1.0" encoding="UTF-8" standalone="no"?>
<!DOCTYPE svg PUBLIC "-//W3C//DTD SVG 1.1//EN" "http://www.w3.org/Graphics/SVG/1.1/DTD/svg11.dtd">
<svg xmlns="http://www.w3.org/2000/svg" version="1.1" viewBox="0 0 80 80">
<path fill="#fcb327" d="
  M 14.76 30.33
  Q 9.96 27.82 9.19 26.81
  Q 7.27 24.33 8.47 22.15
  Q 9.13 20.95 11.63 19.51
  Q 24.64 12.01 37.99 4.52
  Q 39.85 3.47 41.73 4.49
  Q 54.72 11.54 68.17 19.38
  Q 70.88 20.96 71.62 22.41
  Q 72.65 24.43 71.14 26.31
  Q 70.39 27.22 68.24 28.48
  Q 55.04 36.18 41.95 43.54
  Q 40.08 44.59 38.20 43.57
  Q 29.24 38.71 20.50 33.50
  Q 18.13 32.09 14.76 30.33
  Z"
/>
<path fill="#e5e5e5" d="
  M 68.98 35.79
  Q 72.97 38.55 71.54 41.45
  Q 70.80 42.94 67.72 44.72
  Q 55.20 51.96 42.69 59.19
  Q 39.84 60.83 37.14 59.08
  Q 35.77 58.19 35.67 58.13
  Q 23.36 51.21 11.19 44.06
  Q 9.17 42.87 8.43 41.29
  Q 7.61 39.56 8.80 37.84
  Q 10.09 35.98 12.86 34.92
  C 13.30 34.76 13.80 34.80 14.22 35.04
  L 37.64 48.34
  Q 40.08 49.73 42.55 48.32
  L 64.77 35.63
  Q 66.96 34.38 68.98 35.79
  Z"
/>
<path fill="#e5e5e5" d="
  M 69.66 52.07
  Q 72.62 54.88 71.62 57.31
  Q 71.06 58.67 68.14 60.40
  Q 54.71 68.37 41.61 75.57
  Q 39.94 76.48 38.28 75.55
  Q 25.04 68.10 12.33 60.75
  Q 9.14 58.91 8.46 57.39
  Q 7.19 54.59 10.87 51.61
  Q 12.66 50.16 14.65 51.31
  Q 25.01 57.26 36.85 63.87
  Q 40.22 65.75 43.55 63.84
  Q 54.92 57.33 64.93 51.52
  Q 67.50 50.02 69.66 52.07
  Z"
/>
</svg>
