<?xml version="1.0" encoding="UTF-8" standalone="no"?>
<!DOCTYPE svg PUBLIC "-//W3C//DTD SVG 1.1//EN" "http://www.w3.org/Graphics/SVG/1.1/DTD/svg11.dtd">
<svg xmlns="http://www.w3.org/2000/svg" version="1.1" viewBox="0 0 180 180">
<g stroke-width="2.0" fill="none" stroke-linecap="butt">
<path stroke="#8ed29e" vector-effect="non-scaling-stroke" d="
  M 113.46 104.50
  L 110.21 95.25"
/>
<path stroke="#9dd8ab" vector-effect="non-scaling-stroke" d="
  M 110.21 95.25
  L 105.29 81.25"
/>
<path stroke="#a3dab0" vector-effect="non-scaling-stroke" d="
  M 105.29 81.25
  Q 105.41 80.00 104.50 80.00
  Q 90.50 80.00 76.50 80.00
  Q 75.12 80.00 74.96 80.75"
/>
<path stroke="#7ccb8f" vector-effect="non-scaling-stroke" d="
  M 74.96 80.75
  Q 74.08 81.81 74.00 83.21"
/>
<path stroke="#8cd19d" vector-effect="non-scaling-stroke" d="
  M 74.00 83.21
  L 66.46 104.25"
/>
<path stroke="#71c685" vector-effect="non-scaling-stroke" d="
  M 66.46 104.25
  Q 64.96 101.83 64.51 99.00
  Q 64.16 96.80 63.29 94.75"
/>
<path stroke="#84ce96" vector-effect="non-scaling-stroke" d="
  M 63.29 94.75
  L 50.09 50.49
  C 50.01 50.20 49.74 50.00 49.43 50.00
  L 10.69 50.00
  C 10.36 50.00 10.14 50.33 10.26 50.63
  L 49.96 149.50"
/>
<path stroke="#95d4a4" vector-effect="non-scaling-stroke" d="
  M 49.96 149.50
  Q 50.30 150.00 51.50 150.00
  Q 65.27 150.00 79.04 150.00
  Q 79.64 150.00 79.91 149.76
  Q 80.30 149.41 80.25 148.79"
/>
<path stroke="#8cd19d" vector-effect="non-scaling-stroke" d="
  M 80.25 148.79
  L 87.25 129.29"
/>
<path stroke="#7ccb8f" vector-effect="non-scaling-stroke" d="
  M 87.25 129.29
  Q 88.35 126.92 89.25 123.50
  Q 89.43 122.82 90.21 122.75"
/>
<path stroke="#9dd8ab" vector-effect="non-scaling-stroke" d="
  M 90.21 122.75
  L 99.96 149.25"
/>
<path stroke="#a9ddb5" vector-effect="non-scaling-stroke" d="
  M 99.96 149.25
  Q 100.09 150.00 101.25 150.00
  Q 115.25 150.00 129.42 150.00
  C 129.73 150.00 130.02 149.81 130.13 149.52
  L 169.62 50.86
  C 169.86 50.26 169.76 49.57 169.36 49.04
  L 155.37 30.47
  C 155.18 30.22 154.83 30.18 154.60 30.37
  L 130.33 49.87
  C 130.08 50.07 129.90 50.34 129.80 50.67
  L 113.46 104.50"
/>
<path stroke="#ebf7ee" vector-effect="non-scaling-stroke" d="
  M 99.96 149.25
  Q 100.87 148.02 101.04 146.50"
/>
<path stroke="#dcf1e1" vector-effect="non-scaling-stroke" d="
  M 101.04 146.50
  L 113.46 104.50"
/>
<path stroke="#d0ecd7" vector-effect="non-scaling-stroke" d="
  M 110.21 95.25
  Q 108.85 95.98 109.26 97.35
  Q 109.42 97.90 109.35 98.29
  Q 105.79 117.69 102.34 137.11
  Q 102.32 137.22 101.47 140.84
  Q 100.82 143.62 101.04 146.50"
/>
<path stroke="#bee5c8" vector-effect="non-scaling-stroke" d="
  M 89.54 120.75
  L 90.21 122.75"
/>
<path stroke="#addfba" vector-effect="non-scaling-stroke" d="
  M 87.25 129.29
  Q 86.59 128.93 86.50 128.50
  Q 81.86 107.23 76.19 86.21
  Q 76.18 86.16 75.98 84.75
  Q 75.76 83.22 74.00 83.21"
/>
<path stroke="#e5f5e9" vector-effect="non-scaling-stroke" d="
  M 105.29 81.25
  Q 105.14 82.00 104.55 82.22
  C 104.22 82.35 103.97 82.56 103.89 82.79
  Q 97.64 100.05 91.56 117.37
  Q 91.54 117.41 91.23 119.19
  Q 90.99 120.48 89.54 120.75"
/>
<path stroke="#c4e8cd" vector-effect="non-scaling-stroke" d="
  M 89.54 120.75
  Q 82.70 101.54 75.96 82.30
  Q 75.64 81.41 74.96 80.75"
/>
<path stroke="#c6e8ce" vector-effect="non-scaling-stroke" d="
  M 80.25 148.79
  Q 79.31 148.08 78.81 146.44
  Q 73.08 127.59 67.40 108.73
  Q 67.27 108.32 67.35 107.76
  Q 67.60 106.10 66.25 105.21"
/>
<path stroke="#a2daaf" vector-effect="non-scaling-stroke" d="
  M 66.25 105.21
  Q 66.21 104.70 66.46 104.25"
/>
<path stroke="#aaddb6" vector-effect="non-scaling-stroke" d="
  M 66.25 105.21
  L 51.04 146.75"
/>
<path stroke="#9ad6a8" vector-effect="non-scaling-stroke" d="
  M 63.29 94.75
  Q 56.86 123.14 51.25 144.75
  Q 50.93 145.99 51.04 146.75"
/>
<path stroke="#bee5c7" vector-effect="non-scaling-stroke" d="
  M 51.04 146.75
  Q 50.79 148.24 49.96 149.50"
/>
</g>
<path fill="#5bbd72" d="
  M 0.00 0.00
  Q 90.00 0.00 180.00 0.00
  Q 180.00 90.00 180.00 180.00
  Q 90.00 180.00 0.00 180.00
  Q 0.00 90.00 0.00 0.00
  Z
  M 113.46 104.50
  L 110.21 95.25
  L 105.29 81.25
  Q 105.41 80.00 104.50 80.00
  Q 90.50 80.00 76.50 80.00
  Q 75.12 80.00 74.96 80.75
  Q 74.08 81.81 74.00 83.21
  L 66.46 104.25
  Q 64.96 101.83 64.51 99.00
  Q 64.16 96.80 63.29 94.75
  L 50.09 50.49
  C 50.01 50.20 49.74 50.00 49.43 50.00
  L 10.69 50.00
  C 10.36 50.00 10.14 50.33 10.26 50.63
  L 49.96 149.50
  Q 50.30 150.00 51.50 150.00
  Q 65.27 150.00 79.04 150.00
  Q 79.64 150.00 79.91 149.76
  Q 80.30 149.41 80.25 148.79
  L 87.25 129.29
  Q 88.35 126.92 89.25 123.50
  Q 89.43 122.82 90.21 122.75
  L 99.96 149.25
  Q 100.09 150.00 101.25 150.00
  Q 115.25 150.00 129.42 150.00
  C 129.73 150.00 130.02 149.81 130.13 149.52
  L 169.62 50.86
  C 169.86 50.26 169.76 49.57 169.36 49.04
  L 155.37 30.47
  C 155.18 30.22 154.83 30.18 154.60 30.37
  L 130.33 49.87
  C 130.08 50.07 129.90 50.34 129.80 50.67
  L 113.46 104.50
  Z"
/>
<path fill="#f7fcf8" d="
  M 99.96 149.25
  Q 100.87 148.02 101.04 146.50
  L 113.46 104.50
  L 129.80 50.67
  C 129.90 50.34 130.08 50.07 130.33 49.87
  L 154.60 30.37
  C 154.83 30.18 155.18 30.22 155.37 30.47
  L 169.36 49.04
  C 169.76 49.57 169.86 50.26 169.62 50.86
  L 130.13 149.52
  C 130.02 149.81 129.73 150.00 129.42 150.00
  Q 115.25 150.00 101.25 150.00
  Q 100.09 150.00 99.96 149.25
  Z"
/>
<path fill="#addeb9" d="
  M 63.29 94.75
  Q 56.86 123.14 51.25 144.75
  Q 50.93 145.99 51.04 146.75
  Q 50.79 148.24 49.96 149.50
  L 10.26 50.63
  C 10.14 50.33 10.36 50.00 10.69 50.00
  L 49.43 50.00
  C 49.74 50.00 50.01 50.20 50.09 50.49
  L 63.29 94.75
  Z"
/>
<path fill="#ebf7ee" d="
  M 105.29 81.25
  Q 105.14 82.00 104.55 82.22
  C 104.22 82.35 103.97 82.56 103.89 82.79
  Q 97.64 100.05 91.56 117.37
  Q 91.54 117.41 91.23 119.19
  Q 90.99 120.48 89.54 120.75
  Q 82.70 101.54 75.96 82.30
  Q 75.64 81.41 74.96 80.75
  Q 75.12 80.00 76.50 80.00
  Q 90.50 80.00 104.50 80.00
  Q 105.41 80.00 105.29 81.25
  Z"
/>
<path fill="#9dd8ac" d="
  M 74.96 80.75
  Q 75.64 81.41 75.96 82.30
  Q 82.70 101.54 89.54 120.75
  L 90.21 122.75
  Q 89.43 122.82 89.25 123.50
  Q 88.35 126.92 87.25 129.29
  Q 86.59 128.93 86.50 128.50
  Q 81.86 107.23 76.19 86.21
  Q 76.18 86.16 75.98 84.75
  Q 75.76 83.22 74.00 83.21
  Q 74.08 81.81 74.96 80.75
  Z"
/>
<path fill="#def2e3" d="
  M 105.29 81.25
  L 110.21 95.25
  Q 108.85 95.98 109.26 97.35
  Q 109.42 97.90 109.35 98.29
  Q 105.79 117.69 102.34 137.11
  Q 102.32 137.22 101.47 140.84
  Q 100.82 143.62 101.04 146.50
  Q 100.87 148.02 99.96 149.25
  L 90.21 122.75
  L 89.54 120.75
  Q 90.99 120.48 91.23 119.19
  Q 91.54 117.41 91.56 117.37
  Q 97.64 100.05 103.89 82.79
  C 103.97 82.56 104.22 82.35 104.55 82.22
  Q 105.14 82.00 105.29 81.25
  Z"
/>
<path fill="#bde5c7" d="
  M 74.00 83.21
  Q 75.76 83.22 75.98 84.75
  Q 76.18 86.16 76.19 86.21
  Q 81.86 107.23 86.50 128.50
  Q 86.59 128.93 87.25 129.29
  L 80.25 148.79
  Q 79.31 148.08 78.81 146.44
  Q 73.08 127.59 67.40 108.73
  Q 67.27 108.32 67.35 107.76
  Q 67.60 106.10 66.25 105.21
  Q 66.21 104.70 66.46 104.25
  L 74.00 83.21
  Z"
/>
<path fill="#86ce97" d="
  M 63.29 94.75
  Q 64.16 96.80 64.51 99.00
  Q 64.96 101.83 66.46 104.25
  Q 66.21 104.70 66.25 105.21
  L 51.04 146.75
  Q 50.93 145.99 51.25 144.75
  Q 56.86 123.14 63.29 94.75
  Z"
/>
<path fill="#c1e6ca" d="
  M 110.21 95.25
  L 113.46 104.50
  L 101.04 146.50
  Q 100.82 143.62 101.47 140.84
  Q 102.32 137.22 102.34 137.11
  Q 105.79 117.69 109.35 98.29
  Q 109.42 97.90 109.26 97.35
  Q 108.85 95.98 110.21 95.25
  Z"
/>
<path fill="#ceebd5" d="
  M 66.25 105.21
  Q 67.60 106.10 67.35 107.76
  Q 67.27 108.32 67.40 108.73
  Q 73.08 127.59 78.81 146.44
  Q 79.31 148.08 80.25 148.79
  Q 80.30 149.41 79.91 149.76
  Q 79.64 150.00 79.04 150.00
  Q 65.27 150.00 51.50 150.00
  Q 50.30 150.00 49.96 149.50
  Q 50.79 148.24 51.04 146.75
  L 66.25 105.21
  Z"
/>
</svg>
