<?xml version="1.0" encoding="UTF-8" standalone="no"?>
<!DOCTYPE svg PUBLIC "-//W3C//DTD SVG 1.1//EN" "http://www.w3.org/Graphics/SVG/1.1/DTD/svg11.dtd">
<svg xmlns="http://www.w3.org/2000/svg" version="1.1" viewBox="0 0 120 120">
<g stroke-width="2.0" fill="none" stroke-linecap="butt">
<path stroke="#86bdfc" vector-effect="non-scaling-stroke" d="
  M 63.77 6.86
  Q 58.62 5.54 53.83 7.84
  Q 45.06 12.05 43.87 21.77
  Q 43.39 25.74 43.53 30.74
  C 43.55 31.65 44.05 32.49 44.84 32.95
  Q 60.65 42.05 76.51 32.69
  C 76.78 32.53 76.98 32.26 77.04 31.94
  Q 77.94 27.47 77.25 22.25
  Q 75.61 9.88 63.77 6.86"
/>
<path stroke="#86bdfc" vector-effect="non-scaling-stroke" d="
  M 31.71 86.47
  C 32.06 85.94 32.25 85.31 32.25 84.67
  Q 32.25 71.53 32.25 60.07
  Q 32.25 59.95 32.34 56.93
  Q 32.52 50.38 29.69 45.56
  Q 27.09 41.14 21.26 34.71
  Q 20.16 33.50 19.46 33.09
  Q 17.71 32.04 16.78 33.65
  Q 16.25 34.56 16.25 36.44
  Q 16.25 50.22 16.27 64.00
  Q 16.27 70.53 19.31 75.19
  Q 22.10 79.47 28.50 86.51
  Q 30.34 88.53 31.71 86.47"
/>
<path stroke="#86bdfc" vector-effect="non-scaling-stroke" d="
  M 90.20 87.32
  C 90.66 87.63 91.28 87.58 91.69 87.19
  Q 96.82 82.23 100.87 76.35
  Q 104.77 70.69 104.78 63.75
  Q 104.80 49.97 104.70 36.20
  Q 104.68 34.39 104.14 33.54
  Q 103.00 31.73 100.69 33.69
  Q 99.08 35.05 92.75 43.25
  Q 89.05 48.05 88.95 55.25
  Q 88.75 69.04 88.75 82.82
  Q 88.75 82.90 88.66 84.16
  Q 88.51 86.18 90.20 87.32"
/>
<path stroke="#86bdfc" vector-effect="non-scaling-stroke" d="
  M 58.06 45.19
  Q 51.58 44.84 44.02 41.52
  C 43.80 41.43 43.56 41.58 43.56 41.81
  Q 43.46 65.36 43.50 88.91
  Q 43.50 89.02 43.44 90.59
  Q 43.32 93.74 44.94 95.81
  Q 51.61 104.35 59.24 113.21
  Q 60.51 114.68 61.77 113.20
  Q 68.57 105.19 74.85 97.83
  Q 77.45 94.78 77.46 90.75
  Q 77.50 66.50 77.50 41.62
  C 77.50 41.35 77.22 41.17 76.98 41.29
  Q 67.89 45.72 58.06 45.19"
/>
</g>
<path fill="#0d7bf8" d="
  M 0.00 0.00
  Q 60.00 0.00 120.00 0.00
  Q 120.00 60.00 120.00 120.00
  Q 60.00 120.00 0.00 120.00
  Q 0.00 60.00 0.00 0.00
  Z
  M 63.77 6.86
  Q 58.62 5.54 53.83 7.84
  Q 45.06 12.05 43.87 21.77
  Q 43.39 25.74 43.53 30.74
  C 43.55 31.65 44.05 32.49 44.84 32.95
  Q 60.65 42.05 76.51 32.69
  C 76.78 32.53 76.98 32.26 77.04 31.94
  Q 77.94 27.47 77.25 22.25
  Q 75.61 9.88 63.77 6.86
  Z
  M 31.71 86.47
  C 32.06 85.94 32.25 85.31 32.25 84.67
  Q 32.25 71.53 32.25 60.07
  Q 32.25 59.95 32.34 56.93
  Q 32.52 50.38 29.69 45.56
  Q 27.09 41.14 21.26 34.71
  Q 20.16 33.50 19.46 33.09
  Q 17.71 32.04 16.78 33.65
  Q 16.25 34.56 16.25 36.44
  Q 16.25 50.22 16.27 64.00
  Q 16.27 70.53 19.31 75.19
  Q 22.10 79.47 28.50 86.51
  Q 30.34 88.53 31.71 86.47
  Z
  M 90.20 87.32
  C 90.66 87.63 91.28 87.58 91.69 87.19
  Q 96.82 82.23 100.87 76.35
  Q 104.77 70.69 104.78 63.75
  Q 104.80 49.97 104.70 36.20
  Q 104.68 34.39 104.14 33.54
  Q 103.00 31.73 100.69 33.69
  Q 99.08 35.05 92.75 43.25
  Q 89.05 48.05 88.95 55.25
  Q 88.75 69.04 88.75 82.82
  Q 88.75 82.90 88.66 84.16
  Q 88.51 86.18 90.20 87.32
  Z
  M 58.06 45.19
  Q 51.58 44.84 44.02 41.52
  C 43.80 41.43 43.56 41.58 43.56 41.81
  Q 43.46 65.36 43.50 88.91
  Q 43.50 89.02 43.44 90.59
  Q 43.32 93.74 44.94 95.81
  Q 51.61 104.35 59.24 113.21
  Q 60.51 114.68 61.77 113.20
  Q 68.57 105.19 74.85 97.83
  Q 77.45 94.78 77.46 90.75
  Q 77.50 66.50 77.50 41.62
  C 77.50 41.35 77.22 41.17 76.98 41.29
  Q 67.89 45.72 58.06 45.19
  Z"
/>
<path fill="#ffffff" d="
  M 63.77 6.86
  Q 75.61 9.88 77.25 22.25
  Q 77.94 27.47 77.04 31.94
  C 76.98 32.26 76.78 32.53 76.51 32.69
  Q 60.65 42.05 44.84 32.95
  C 44.05 32.49 43.55 31.65 43.53 30.74
  Q 43.39 25.74 43.87 21.77
  Q 45.06 12.05 53.83 7.84
  Q 58.62 5.54 63.77 6.86
  Z"
/>
<path fill="#ffffff" d="
  M 31.71 86.47
  Q 30.34 88.53 28.50 86.51
  Q 22.10 79.47 19.31 75.19
  Q 16.27 70.53 16.27 64.00
  Q 16.25 50.22 16.25 36.44
  Q 16.25 34.56 16.78 33.65
  Q 17.71 32.04 19.46 33.09
  Q 20.16 33.50 21.26 34.71
  Q 27.09 41.14 29.69 45.56
  Q 32.52 50.38 32.34 56.93
  Q 32.25 59.95 32.25 60.07
  Q 32.25 71.53 32.25 84.67
  C 32.25 85.31 32.06 85.94 31.71 86.47
  Z"
/>
<path fill="#ffffff" d="
  M 90.20 87.32
  Q 88.51 86.18 88.66 84.16
  Q 88.75 82.90 88.75 82.82
  Q 88.75 69.04 88.95 55.25
  Q 89.05 48.05 92.75 43.25
  Q 99.08 35.05 100.69 33.69
  Q 103.00 31.73 104.14 33.54
  Q 104.68 34.39 104.70 36.20
  Q 104.80 49.97 104.78 63.75
  Q 104.77 70.69 100.87 76.35
  Q 96.82 82.23 91.69 87.19
  C 91.28 87.58 90.66 87.63 90.20 87.32
  Z"
/>
<path fill="#ffffff" d="
  M 58.06 45.19
  Q 67.89 45.72 76.98 41.29
  C 77.22 41.17 77.50 41.35 77.50 41.62
  Q 77.50 66.50 77.46 90.75
  Q 77.45 94.78 74.85 97.83
  Q 68.57 105.19 61.77 113.20
  Q 60.51 114.68 59.24 113.21
  Q 51.61 104.35 44.94 95.81
  Q 43.32 93.74 43.44 90.59
  Q 43.50 89.02 43.50 88.91
  Q 43.46 65.36 43.56 41.81
  C 43.56 41.58 43.80 41.43 44.02 41.52
  Q 51.58 44.84 58.06 45.19
  Z"
/>
</svg>
