<?xml version="1.0" standalone="no"?><!DOCTYPE svg PUBLIC "-//W3C//DTD SVG 1.1//EN" "http://www.w3.org/Graphics/SVG/1.1/DTD/svg11.dtd"><svg t="1657853998261" class="icon" viewBox="0 0 1024 1024" version="1.1" xmlns="http://www.w3.org/2000/svg" p-id="1634" xmlns:xlink="http://www.w3.org/1999/xlink" width="200" height="200"><defs><style type="text/css"></style></defs><path d="M72.79 512c0 173.824 101.013 324.096 247.53 395.264L110.827 333.227A437.525 437.525 0 0 0 72.768 512z m735.7-22.187c0-54.272-19.498-91.861-36.202-121.109-22.272-36.203-43.157-66.816-43.157-103.019 0-40.362 30.613-77.952 73.77-77.952 1.942 0 3.798 0.235 5.696 0.363A437.547 437.547 0 0 0 512 72.746c-153.45 0-288.427 78.742-366.976 197.974 10.304 0.32 20.032 0.533 28.267 0.533 45.93 0 117.056-5.589 117.056-5.589 23.68-1.387 26.453 33.408 2.816 36.203 0 0-23.808 2.773-50.262 4.16l159.915 475.776 96.15-288.278-68.438-187.498c-23.68-1.387-46.08-4.16-46.08-4.16-23.659-1.408-20.885-37.59 2.795-36.203 0 0 72.533 5.59 115.69 5.59 45.91 0 117.056-5.59 117.056-5.59 23.68-1.387 26.454 33.408 2.795 36.203 0 0-23.83 2.773-50.261 4.16l158.72 472.149 43.84-146.368c18.965-60.8 33.408-104.405 33.408-141.995z" fill="#1296db" p-id="1635"></path><path d="M519.701 550.4L387.904 933.333a439.04 439.04 0 0 0 269.952-6.997 41.067 41.067 0 0 1-3.157-6.059L519.7 550.4z m377.707-249.13c1.877 13.994 2.944 29.013 2.944 45.162 0 44.565-8.32 94.656-33.387 157.312L732.8 891.627c130.56-76.139 218.39-217.6 218.39-379.648 0-76.374-19.52-148.139-53.803-210.71z" fill="#1296db" p-id="1636"></path><path d="M512 0C229.675 0 0 229.675 0 512s229.675 512 512 512c282.304 0 512-229.675 512-512S794.304 0 512 0z m0 1000.533c-269.376 0-488.533-219.2-488.533-488.533C23.467 242.603 242.645 23.467 512 23.467S1000.533 242.624 1000.533 512c0 269.355-219.178 488.533-488.533 488.533z" fill="#1296db" p-id="1637"></path></svg>