<?xml version="1.0" encoding="UTF-8" standalone="no"?>
<!DOCTYPE svg PUBLIC "-//W3C//DTD SVG 1.1//EN" "http://www.w3.org/Graphics/SVG/1.1/DTD/svg11.dtd">
<svg xmlns="http://www.w3.org/2000/svg" version="1.1" viewBox="0 0 512 444">
<g stroke-width="2.0" fill="none" stroke-linecap="butt">
<path stroke="#2e4153" stroke-opacity="0.569" vector-effect="non-scaling-stroke" d="
  M 102.06 0.00
  Q 102.03 0.10 102.00 0.21"
/>
<path stroke="#39a374" stroke-opacity="0.569" vector-effect="non-scaling-stroke" d="
  M 102.00 0.21
  L 0.75 0.21"
/>
<path stroke="#34495e" vector-effect="non-scaling-stroke" d="
  M 315.25 0.21
  Q 361.25 0.28 407.25 0.25
  Q 408.42 0.25 408.81 0.00"
/>
<path stroke="#2e4153" stroke-opacity="0.569" vector-effect="non-scaling-stroke" d="
  M 410.81 0.00
  Q 410.78 0.10 410.75 0.21"
/>
<path stroke="#3b8171" vector-effect="non-scaling-stroke" d="
  M 410.75 0.21
  L 409.80 0.26
  C 409.52 0.28 409.28 0.49 409.20 0.80
  Q 408.98 1.63 408.47 2.32
  Q 407.62 3.48 407.52 3.66
  Q 332.08 134.51 256.33 265.71
  C 256.18 265.97 255.81 265.97 255.66 265.71
  Q 178.90 132.92 102.81 0.69
  Q 103.03 -0.02 102.00 0.21"
/>
<path stroke="#39a374" stroke-opacity="0.569" vector-effect="non-scaling-stroke" d="
  M 510.81 0.00
  Q 510.33 0.25 509.00 0.25
  Q 459.88 0.28 410.75 0.21"
/>
</g>
<path fill="#010704" fill-opacity="0.137" d="
  M 0.81 0.00
  Q 51.44 0.00 102.06 0.00
  Q 102.03 0.10 102.00 0.21
  L 0.75 0.21
  Q 0.78 0.10 0.81 0.00
  Z"
/>
<path fill="#34495e" d="
  M 102.06 0.00
  Q 149.44 0.00 196.81 0.00
  Q 226.27 50.47 255.32 101.20
  Q 255.97 102.34 256.63 101.20
  Q 284.99 51.99 313.44 2.69
  Q 314.53 0.79 315.25 0.21
  Q 361.25 0.28 407.25 0.25
  Q 408.42 0.25 408.81 0.00
  Q 409.81 0.00 410.81 0.00
  Q 410.78 0.10 410.75 0.21
  L 409.80 0.26
  C 409.52 0.28 409.28 0.49 409.20 0.80
  Q 408.98 1.63 408.47 2.32
  Q 407.62 3.48 407.52 3.66
  Q 332.08 134.51 256.33 265.71
  C 256.18 265.97 255.81 265.97 255.66 265.71
  Q 178.90 132.92 102.81 0.69
  Q 103.03 -0.02 102.00 0.21
  Q 102.03 0.10 102.06 0.00
  Z"
/>
<path fill="#34495e" d="
  M 315.31 0.00
  Q 362.06 0.00 408.81 0.00
  Q 408.42 0.25 407.25 0.25
  Q 361.25 0.28 315.25 0.21
  Q 315.28 0.10 315.31 0.00
  Z"
/>
<path fill="#010704" fill-opacity="0.137" d="
  M 410.81 0.00
  Q 460.81 0.00 510.81 0.00
  Q 510.33 0.25 509.00 0.25
  Q 459.88 0.28 410.75 0.21
  Q 410.78 0.10 410.81 0.00
  Z"
/>
<path fill="#41b883" d="
  M 510.81 0.00
  Q 511.19 0.00 511.56 0.00
  Q 511.76 0.45 511.19 1.44
  Q 383.86 222.23 256.42 443.14
  Q 255.95 443.95 255.48 443.14
  Q 127.97 221.82 0.40 0.64
  Q 0.12 0.16 0.75 0.21
  L 102.00 0.21
  Q 103.03 -0.02 102.81 0.69
  Q 178.90 132.92 255.66 265.71
  C 255.81 265.97 256.18 265.97 256.33 265.71
  Q 332.08 134.51 407.52 3.66
  Q 407.62 3.48 408.47 2.32
  Q 408.98 1.63 409.20 0.80
  C 409.28 0.49 409.52 0.28 409.80 0.26
  L 410.75 0.21
  Q 459.88 0.28 509.00 0.25
  Q 510.33 0.25 510.81 0.00
  Z"
/>
</svg>
