<?xml version="1.0" encoding="UTF-8" standalone="no"?>
<!DOCTYPE svg PUBLIC "-//W3C//DTD SVG 1.1//EN" "http://www.w3.org/Graphics/SVG/1.1/DTD/svg11.dtd">
<svg xmlns="http://www.w3.org/2000/svg" version="1.1" viewBox="0 0 114 114">
<g stroke-width="2.0" fill="none" stroke-linecap="butt">
<path stroke="#e98785" vector-effect="non-scaling-stroke" d="
  M 38.57 36.06
  L 89.56 36.00
  C 90.08 36.00 90.50 35.58 90.49 35.07
  L 90.45 25.07
  C 90.44 24.79 90.22 24.56 89.94 24.56
  L 26.50 24.50
  C 26.22 24.50 26.00 24.72 26.00 25.00
  Q 26.00 36.79 26.00 48.57
  Q 26.00 58.45 25.11 67.89
  Q 24.20 77.44 23.21 87.16
  C 23.16 87.66 23.51 88.10 23.99 88.14
  L 34.86 89.10
  C 35.14 89.13 35.40 88.91 35.43 88.62
  Q 36.38 80.04 37.20 71.71
  Q 37.98 63.68 37.99 54.75
  Q 37.99 45.66 38.06 36.56
  C 38.06 36.28 38.29 36.06 38.57 36.06"
/>
<path stroke="#e98785" vector-effect="non-scaling-stroke" d="
  M 76.45 77.20
  L 70.44 77.24
  C 70.06 77.25 69.75 77.55 69.75 77.92
  L 69.75 88.69
  C 69.75 89.00 70.00 89.25 70.31 89.25
  L 87.20 89.25
  C 87.64 89.25 88.00 88.89 88.00 88.45
  L 88.06 55.32
  C 88.06 55.01 88.26 54.75 88.54 54.69
  L 90.26 54.33
  C 90.56 54.27 90.78 54.03 90.79 53.76
  L 90.98 43.59
  C 90.99 43.07 90.49 42.69 89.96 42.81
  Q 87.34 43.41 88.22 39.55
  Q 88.67 37.54 86.66 37.54
  L 77.57 37.55
  C 77.30 37.55 77.08 37.78 77.07 38.06
  L 76.87 42.06
  C 76.85 42.34 76.62 42.57 76.32 42.58
  L 67.94 42.92
  C 67.64 42.93 67.41 43.16 67.41 43.43
  L 67.29 53.69
  C 67.28 54.14 67.66 54.50 68.13 54.50
  Q 71.37 54.50 73.76 54.50
  Q 76.10 54.50 76.23 54.57
  Q 77.30 55.12 76.70 57.86
  C 76.60 58.29 76.26 58.62 75.83 58.67
  L 68.25 59.57
  C 67.77 59.63 67.44 60.06 67.55 60.50
  L 70.30 72.09
  C 70.37 72.40 70.66 72.61 70.95 72.56
  L 75.90 71.78
  C 76.48 71.69 77.00 72.07 77.00 72.58
  L 76.96 76.68
  C 76.96 76.97 76.73 77.20 76.45 77.20"
/>
<path stroke="#e98785" vector-effect="non-scaling-stroke" d="
  M 66.24 38.21
  C 66.24 37.96 66.03 37.75 65.78 37.75
  L 40.20 37.75
  C 39.95 37.75 39.74 37.96 39.74 38.21
  L 39.74 47.79
  C 39.74 48.04 39.95 48.25 40.20 48.25
  L 65.78 48.25
  C 66.03 48.25 66.24 48.04 66.24 47.79
  L 66.24 38.21"
/>
<path stroke="#e98785" vector-effect="non-scaling-stroke" d="
  M 64.33 76.27
  L 64.53 72.56
  C 64.55 72.31 64.78 72.12 65.05 72.14
  Q 66.25 72.23 66.25 71.25
  Q 66.25 61.25 66.25 51.17
  C 66.25 50.80 65.95 50.50 65.58 50.50
  L 41.20 50.50
  C 40.68 50.50 40.25 50.92 40.25 51.44
  L 40.31 71.19
  C 40.31 71.53 40.49 71.81 40.77 71.91
  L 41.32 72.09
  C 41.66 72.20 41.89 72.43 41.90 72.68
  L 42.10 77.31
  C 42.11 77.59 41.88 77.84 41.56 77.88
  L 39.68 78.12
  C 39.37 78.16 39.14 78.41 39.15 78.69
  L 39.37 88.34
  C 39.38 88.86 39.86 89.27 40.42 89.22
  L 66.94 86.98
  C 67.23 86.96 67.47 86.73 67.50 86.44
  Q 67.91 83.18 67.79 79.89
  Q 67.79 79.74 67.86 78.12
  Q 67.98 75.64 65.10 76.81
  C 64.72 76.96 64.31 76.67 64.33 76.27"
/>
<path stroke="#e98785" vector-effect="non-scaling-stroke" d="
  M 56.50 60.60
  C 56.50 60.27 56.23 60.00 55.90 60.00
  L 50.60 60.00
  C 50.27 60.00 50.00 60.27 50.00 60.60
  L 50.00 62.16
  C 50.00 62.49 50.27 62.76 50.60 62.76
  L 55.90 62.76
  C 56.23 62.76 56.50 62.49 56.50 62.16
  L 56.50 60.60"
/>
<path stroke="#e98785" vector-effect="non-scaling-stroke" d="
  M 54.83 72.40
  C 54.83 72.19 54.66 72.02 54.45 72.02
  L 52.29 72.02
  C 52.08 72.02 51.91 72.19 51.91 72.40
  L 51.91 76.82
  C 51.91 77.03 52.08 77.20 52.29 77.20
  L 54.45 77.20
  C 54.66 77.20 54.83 77.03 54.83 76.82
  L 54.83 72.40"
/>
</g>
<path fill="#ffffff" d="
  M 0.00 0.00
  Q 57.00 0.00 114.00 0.00
  Q 114.00 57.00 114.00 114.00
  Q 57.00 114.00 0.00 114.00
  Q 0.00 57.00 0.00 0.00
  Z
  M 38.57 36.06
  L 89.56 36.00
  C 90.08 36.00 90.50 35.58 90.49 35.07
  L 90.45 25.07
  C 90.44 24.79 90.22 24.56 89.94 24.56
  L 26.50 24.50
  C 26.22 24.50 26.00 24.72 26.00 25.00
  Q 26.00 36.79 26.00 48.57
  Q 26.00 58.45 25.11 67.89
  Q 24.20 77.44 23.21 87.16
  C 23.16 87.66 23.51 88.10 23.99 88.14
  L 34.86 89.10
  C 35.14 89.13 35.40 88.91 35.43 88.62
  Q 36.38 80.04 37.20 71.71
  Q 37.98 63.68 37.99 54.75
  Q 37.99 45.66 38.06 36.56
  C 38.06 36.28 38.29 36.06 38.57 36.06
  Z
  M 76.45 77.20
  L 70.44 77.24
  C 70.06 77.25 69.75 77.55 69.75 77.92
  L 69.75 88.69
  C 69.75 89.00 70.00 89.25 70.31 89.25
  L 87.20 89.25
  C 87.64 89.25 88.00 88.89 88.00 88.45
  L 88.06 55.32
  C 88.06 55.01 88.26 54.75 88.54 54.69
  L 90.26 54.33
  C 90.56 54.27 90.78 54.03 90.79 53.76
  L 90.98 43.59
  C 90.99 43.07 90.49 42.69 89.96 42.81
  Q 87.34 43.41 88.22 39.55
  Q 88.67 37.54 86.66 37.54
  L 77.57 37.55
  C 77.30 37.55 77.08 37.78 77.07 38.06
  L 76.87 42.06
  C 76.85 42.34 76.62 42.57 76.32 42.58
  L 67.94 42.92
  C 67.64 42.93 67.41 43.16 67.41 43.43
  L 67.29 53.69
  C 67.28 54.14 67.66 54.50 68.13 54.50
  Q 71.37 54.50 73.76 54.50
  Q 76.10 54.50 76.23 54.57
  Q 77.30 55.12 76.70 57.86
  C 76.60 58.29 76.26 58.62 75.83 58.67
  L 68.25 59.57
  C 67.77 59.63 67.44 60.06 67.55 60.50
  L 70.30 72.09
  C 70.37 72.40 70.66 72.61 70.95 72.56
  L 75.90 71.78
  C 76.48 71.69 77.00 72.07 77.00 72.58
  L 76.96 76.68
  C 76.96 76.97 76.73 77.20 76.45 77.20
  Z
  M 66.24 38.21
  C 66.24 37.96 66.03 37.75 65.78 37.75
  L 40.20 37.75
  C 39.95 37.75 39.74 37.96 39.74 38.21
  L 39.74 47.79
  C 39.74 48.04 39.95 48.25 40.20 48.25
  L 65.78 48.25
  C 66.03 48.25 66.24 48.04 66.24 47.79
  L 66.24 38.21
  Z
  M 64.33 76.27
  L 64.53 72.56
  C 64.55 72.31 64.78 72.12 65.05 72.14
  Q 66.25 72.23 66.25 71.25
  Q 66.25 61.25 66.25 51.17
  C 66.25 50.80 65.95 50.50 65.58 50.50
  L 41.20 50.50
  C 40.68 50.50 40.25 50.92 40.25 51.44
  L 40.31 71.19
  C 40.31 71.53 40.49 71.81 40.77 71.91
  L 41.32 72.09
  C 41.66 72.20 41.89 72.43 41.90 72.68
  L 42.10 77.31
  C 42.11 77.59 41.88 77.84 41.56 77.88
  L 39.68 78.12
  C 39.37 78.16 39.14 78.41 39.15 78.69
  L 39.37 88.34
  C 39.38 88.86 39.86 89.27 40.42 89.22
  L 66.94 86.98
  C 67.23 86.96 67.47 86.73 67.50 86.44
  Q 67.91 83.18 67.79 79.89
  Q 67.79 79.74 67.86 78.12
  Q 67.98 75.64 65.10 76.81
  C 64.72 76.96 64.31 76.67 64.33 76.27
  Z"
/>
<path fill="#d30e0b" d="
  M 38.06 36.56
  Q 37.99 45.66 37.99 54.75
  Q 37.98 63.68 37.20 71.71
  Q 36.38 80.04 35.43 88.62
  C 35.40 88.91 35.14 89.13 34.86 89.10
  L 23.99 88.14
  C 23.51 88.10 23.16 87.66 23.21 87.16
  Q 24.20 77.44 25.11 67.89
  Q 26.00 58.45 26.00 48.57
  Q 26.00 36.79 26.00 25.00
  C 26.00 24.72 26.22 24.50 26.50 24.50
  L 89.94 24.56
  C 90.22 24.56 90.44 24.79 90.45 25.07
  L 90.49 35.07
  C 90.50 35.58 90.08 36.00 89.56 36.00
  L 38.57 36.06
  C 38.29 36.06 38.06 36.28 38.06 36.56
  Z"
/>
<path fill="#d30e0b" d="
  M 76.96 76.68
  L 77.00 72.58
  C 77.00 72.07 76.48 71.69 75.90 71.78
  L 70.95 72.56
  C 70.66 72.61 70.37 72.40 70.30 72.09
  L 67.55 60.50
  C 67.44 60.06 67.77 59.63 68.25 59.57
  L 75.83 58.67
  C 76.26 58.62 76.60 58.29 76.70 57.86
  Q 77.30 55.12 76.23 54.57
  Q 76.10 54.50 73.76 54.50
  Q 71.37 54.50 68.13 54.50
  C 67.66 54.50 67.28 54.14 67.29 53.69
  L 67.41 43.43
  C 67.41 43.16 67.64 42.93 67.94 42.92
  L 76.32 42.58
  C 76.62 42.57 76.85 42.34 76.87 42.06
  L 77.07 38.06
  C 77.08 37.78 77.30 37.55 77.57 37.55
  L 86.66 37.54
  Q 88.67 37.54 88.22 39.55
  Q 87.34 43.41 89.96 42.81
  C 90.49 42.69 90.99 43.07 90.98 43.59
  L 90.79 53.76
  C 90.78 54.03 90.56 54.27 90.26 54.33
  L 88.54 54.69
  C 88.26 54.75 88.06 55.01 88.06 55.32
  L 88.00 88.45
  C 88.00 88.89 87.64 89.25 87.20 89.25
  L 70.31 89.25
  C 70.00 89.25 69.75 89.00 69.75 88.69
  L 69.75 77.92
  C 69.75 77.55 70.06 77.25 70.44 77.24
  L 76.45 77.20
  C 76.73 77.20 76.96 76.97 76.96 76.68
  Z"
/>
<rect fill="#d30e0b" x="39.74" y="37.75" width="26.50" height="10.50" rx="0.46"/>
<path fill="#d30e0b" d="
  M 64.33 76.27
  C 64.31 76.67 64.72 76.96 65.10 76.81
  Q 67.98 75.64 67.86 78.12
  Q 67.79 79.74 67.79 79.89
  Q 67.91 83.18 67.50 86.44
  C 67.47 86.73 67.23 86.96 66.94 86.98
  L 40.42 89.22
  C 39.86 89.27 39.38 88.86 39.37 88.34
  L 39.15 78.69
  C 39.14 78.41 39.37 78.16 39.68 78.12
  L 41.56 77.88
  C 41.88 77.84 42.11 77.59 42.10 77.31
  L 41.90 72.68
  C 41.89 72.43 41.66 72.20 41.32 72.09
  L 40.77 71.91
  C 40.49 71.81 40.31 71.53 40.31 71.19
  L 40.25 51.44
  C 40.25 50.92 40.68 50.50 41.20 50.50
  L 65.58 50.50
  C 65.95 50.50 66.25 50.80 66.25 51.17
  Q 66.25 61.25 66.25 71.25
  Q 66.25 72.23 65.05 72.14
  C 64.78 72.12 64.55 72.31 64.53 72.56
  L 64.33 76.27
  Z
  M 56.50 60.60
  C 56.50 60.27 56.23 60.00 55.90 60.00
  L 50.60 60.00
  C 50.27 60.00 50.00 60.27 50.00 60.60
  L 50.00 62.16
  C 50.00 62.49 50.27 62.76 50.60 62.76
  L 55.90 62.76
  C 56.23 62.76 56.50 62.49 56.50 62.16
  L 56.50 60.60
  Z
  M 54.83 72.40
  C 54.83 72.19 54.66 72.02 54.45 72.02
  L 52.29 72.02
  C 52.08 72.02 51.91 72.19 51.91 72.40
  L 51.91 76.82
  C 51.91 77.03 52.08 77.20 52.29 77.20
  L 54.45 77.20
  C 54.66 77.20 54.83 77.03 54.83 76.82
  L 54.83 72.40
  Z"
/>
<rect fill="#ffffff" x="50.00" y="60.00" width="6.50" height="2.76" rx="0.60"/>
<rect fill="#ffffff" x="51.91" y="72.02" width="2.92" height="5.18" rx="0.38"/>
</svg>
