<?xml version="1.0" encoding="UTF-8" standalone="no"?>
<!DOCTYPE svg PUBLIC "-//W3C//DTD SVG 1.1//EN" "http://www.w3.org/Graphics/SVG/1.1/DTD/svg11.dtd">
<svg xmlns="http://www.w3.org/2000/svg" version="1.1" viewBox="0 0 520 520">
<g stroke-width="2.0" fill="none" stroke-linecap="butt">
<path stroke="#9ab2f0" vector-effect="non-scaling-stroke" d="
  M 443.68 260.00
  C 443.68 158.56 361.44 76.32 260.00 76.32
  C 158.56 76.32 76.32 158.56 76.32 260.00
  C 76.32 361.44 158.56 443.68 260.00 443.68
  C 361.44 443.68 443.68 361.44 443.68 260.00"
/>
<path stroke="#9ab2f0" vector-effect="non-scaling-stroke" d="
  M 399.59 260.00
  C 399.59 182.91 337.09 120.41 260.00 120.41
  C 182.91 120.41 120.41 182.91 120.41 260.00
  C 120.41 337.09 182.91 399.59 260.00 399.59
  C 337.09 399.59 399.59 337.09 399.59 260.00"
/>
<path stroke="#9ab2f0" vector-effect="non-scaling-stroke" d="
  M 355.44 260.00
  C 355.44 243.82 342.33 230.71 326.15 230.71
  C 309.97 230.71 296.86 243.82 296.86 260.00
  C 296.86 276.18 309.97 289.29 326.15 289.29
  C 342.33 289.29 355.44 276.18 355.44 260.00"
/>
</g>
<path fill="#3464e0" d="
  M 256.31 0.00
  Q 260.19 0.00 264.06 0.00
  Q 326.14 1.31 378.94 28.81
  Q 433.43 57.20 468.94 105.31
  Q 518.46 172.42 520.00 257.56
  Q 520.00 259.94 520.00 262.31
  Q 518.18 352.75 463.04 422.21
  Q 456.79 430.08 449.98 437.35
  Q 402.28 488.31 335.75 508.75
  Q 301.17 519.38 262.69 520.00
  Q 259.69 520.00 256.69 520.00
  Q 230.60 519.40 208.81 514.94
  Q 135.04 499.83 80.45 447.96
  Q 73.24 441.10 66.55 433.58
  Q 2.69 361.65 0.00 263.44
  Q 0.00 260.31 0.00 257.19
  Q 1.92 168.34 55.53 99.59
  Q 61.69 91.68 68.45 84.34
  Q 118.13 30.35 188.50 10.00
  Q 220.43 0.76 256.31 0.00
  Z
  M 443.68 260.00
  C 443.68 158.56 361.44 76.32 260.00 76.32
  C 158.56 76.32 76.32 158.56 76.32 260.00
  C 76.32 361.44 158.56 443.68 260.00 443.68
  C 361.44 443.68 443.68 361.44 443.68 260.00
  Z"
/>
<path fill="#ffffff" d="
  M 443.68 260.00
  C 443.68 361.44 361.44 443.68 260.00 443.68
  C 158.56 443.68 76.32 361.44 76.32 260.00
  C 76.32 158.56 158.56 76.32 260.00 76.32
  C 361.44 76.32 443.68 158.56 443.68 260.00
  Z
  M 399.59 260.00
  C 399.59 182.91 337.09 120.41 260.00 120.41
  C 182.91 120.41 120.41 182.91 120.41 260.00
  C 120.41 337.09 182.91 399.59 260.00 399.59
  C 337.09 399.59 399.59 337.09 399.59 260.00
  Z"
/>
<path fill="#3464e0" d="
  M 399.59 260.00
  C 399.59 337.09 337.09 399.59 260.00 399.59
  C 182.91 399.59 120.41 337.09 120.41 260.00
  C 120.41 182.91 182.91 120.41 260.00 120.41
  C 337.09 120.41 399.59 182.91 399.59 260.00
  Z
  M 355.44 260.00
  C 355.44 243.82 342.33 230.71 326.15 230.71
  C 309.97 230.71 296.86 243.82 296.86 260.00
  C 296.86 276.18 309.97 289.29 326.15 289.29
  C 342.33 289.29 355.44 276.18 355.44 260.00
  Z"
/>
<circle fill="#ffffff" cx="326.15" cy="260.00" r="29.29"/>
</svg>
