<?xml version="1.0" encoding="UTF-8" standalone="no"?>
<!DOCTYPE svg PUBLIC "-//W3C//DTD SVG 1.1//EN" "http://www.w3.org/Graphics/SVG/1.1/DTD/svg11.dtd">
<svg xmlns="http://www.w3.org/2000/svg" version="1.1" viewBox="0 0 222 222">
<g stroke-width="2.0" fill="none" stroke-linecap="butt">
<path stroke="#acacac" vector-effect="non-scaling-stroke" d="
  M 82.29 34.00
  Q 81.74 34.70 82.75 35.99
  C 83.14 36.49 82.98 37.21 82.42 37.50
  Q 74.39 41.64 67.89 46.93
  Q 67.50 47.25 67.01 47.33
  Q 63.38 47.92 59.96 49.20
  Q 56.62 50.45 55.50 52.53
  Q 54.03 55.26 55.46 58.75"
/>
<path stroke="#8d8e91" stroke-opacity="0.996" vector-effect="non-scaling-stroke" d="
  M 52.46 32.00
  Q 52.63 32.39 52.89 32.14
  Q 56.25 28.96 60.60 27.41
  Q 62.29 26.80 60.75 26.46"
/>
<path stroke="#dbbd8f" stroke-opacity="0.984" vector-effect="non-scaling-stroke" d="
  M 156.00 56.04
  Q 156.08 56.57 155.75 56.96"
/>
<path stroke="#fac980" vector-effect="non-scaling-stroke" d="
  M 155.75 56.96
  Q 153.26 57.83 150.67 57.61
  C 150.38 57.59 150.12 57.40 149.96 57.11
  Q 148.16 53.82 144.75 53.00
  Q 128.67 49.14 110.75 48.84
  Q 85.67 48.42 61.25 54.00
  Q 58.26 54.68 57.62 57.59
  Q 56.86 61.01 56.80 61.18
  Q 55.98 63.59 55.47 66.16
  Q 54.81 69.46 58.01 68.42
  Q 59.92 67.79 61.98 67.25
  Q 63.87 66.76 66.06 66.53
  Q 88.29 64.28 115.50 64.75
  Q 132.40 65.04 146.41 67.80
  Q 151.05 68.71 153.16 68.47
  Q 156.33 68.12 159.81 66.56
  Q 166.75 63.46 168.50 63.25
  Q 180.40 61.84 187.31 71.94
  Q 188.52 73.70 188.46 75.00"
/>
<path stroke="#fac980" vector-effect="non-scaling-stroke" d="
  M 185.79 75.00
  L 180.04 69.63
  C 179.64 69.26 179.04 69.22 178.58 69.52
  Q 171.46 74.33 163.72 70.52
  C 163.16 70.25 162.52 70.21 161.93 70.42
  Q 158.46 71.66 155.70 72.53
  Q 155.26 72.67 154.28 72.75
  Q 152.68 72.89 153.49 74.33
  Q 153.66 74.64 153.72 75.24
  L 154.29 81.25"
/>
<path stroke="#e1e2e4" stroke-opacity="0.996" vector-effect="non-scaling-stroke" d="
  M 154.21 82.75
  L 153.41 84.12
  C 153.27 84.38 153.20 84.71 153.22 85.06
  Q 153.77 93.87 151.75 102.46"
/>
<path stroke="#acacac" vector-effect="non-scaling-stroke" d="
  M 151.75 102.46
  Q 150.86 103.10 150.25 104.50
  Q 143.58 119.71 128.98 128.93
  C 128.57 129.19 128.40 129.71 128.59 130.16
  Q 133.06 140.97 132.77 152.03
  Q 132.56 160.34 129.31 167.01
  Q 125.67 174.48 119.19 179.19
  Q 111.67 184.64 113.26 193.41
  Q 113.29 193.59 113.47 193.92
  Q 113.74 194.42 113.04 194.50"
/>
<path stroke="#acacac" vector-effect="non-scaling-stroke" d="
  M 94.25 194.54
  Q 97.17 185.49 90.44 180.31
  Q 75.34 168.71 75.50 150.50
  Q 75.58 140.16 79.24 130.52
  C 79.30 130.36 79.24 130.18 79.09 130.10
  Q 63.66 121.40 56.04 105.75"
/>
<path stroke="#9a9a9a" vector-effect="non-scaling-stroke" d="
  M 56.04 105.75
  Q 55.40 104.21 54.04 103.25"
/>
<path stroke="#d4d6d6" stroke-opacity="0.910" vector-effect="non-scaling-stroke" d="
  M 52.71 93.75
  L 53.21 68.25"
/>
<path stroke="#b36c0b" stroke-opacity="0.980" vector-effect="non-scaling-stroke" d="
  M 172.50 81.54
  L 159.75 81.54"
/>
<path stroke="#474747" vector-effect="non-scaling-stroke" d="
  M 56.04 105.75
  Q 53.63 105.67 52.19 107.69
  Q 42.92 120.64 40.03 135.73
  Q 39.31 139.50 39.10 145.83
  Q 38.94 150.91 38.71 156.00
  Q 38.66 157.09 37.79 157.50"
/>
<path stroke="#d6860e" stroke-opacity="0.984" vector-effect="non-scaling-stroke" d="
  M 155.75 56.96
  Q 159.48 58.35 161.96 55.50"
/>
<path stroke="#d6860e" stroke-opacity="0.984" vector-effect="non-scaling-stroke" d="
  M 179.75 54.79
  L 186.50 57.96"
/>
<path stroke="#fac980" vector-effect="non-scaling-stroke" d="
  M 186.50 57.96
  L 196.46 66.50"
/>
<path stroke="#8d8e91" stroke-opacity="0.996" vector-effect="non-scaling-stroke" d="
  M 153.04 103.00
  Q 152.34 103.07 151.75 102.46"
/>
<path stroke="#acacac" vector-effect="non-scaling-stroke" d="
  M 154.71 55.25
  Q 153.81 55.62 152.97 55.41
  C 152.69 55.34 152.47 55.09 152.39 54.76
  Q 151.65 51.66 149.38 49.86
  Q 147.93 48.72 144.32 47.89
  Q 141.79 47.31 139.27 46.71
  Q 137.17 46.22 135.31 44.76
  Q 129.98 40.57 123.80 37.68
  C 123.23 37.41 123.00 36.72 123.29 36.17
  Q 124.97 33.01 127.56 30.44
  C 127.71 30.29 127.78 30.12 127.76 29.98
  Q 127.73 29.80 127.54 29.75"
/>
<path stroke="#474747" vector-effect="non-scaling-stroke" d="
  M 38.75 203.71
  Q 38.99 202.71 38.25 202.50
  Q 33.14 201.07 29.25 198.15
  Q 28.30 197.44 27.44 196.19
  Q 26.67 195.08 25.83 194.01
  Q 24.43 192.20 23.88 190.54
  Q 18.35 173.78 32.74 164.02
  Q 32.79 163.98 34.99 162.83
  Q 36.54 162.02 37.46 160.50"
/>
<path stroke="#474747" vector-effect="non-scaling-stroke" d="
  M 169.29 159.75
  Q 168.83 160.08 168.87 160.48
  C 168.89 160.72 169.16 160.96 169.55 161.09
  Q 176.57 163.29 181.69 168.46
  Q 182.62 169.40 184.05 171.71
  Q 185.13 173.44 186.50 174.96"
/>
<path stroke="#dbbd8f" stroke-opacity="0.984" vector-effect="non-scaling-stroke" d="
  M 186.50 57.96
  Q 185.83 57.01 187.25 57.21"
/>
<path stroke="#b36c0b" stroke-opacity="0.980" vector-effect="non-scaling-stroke" d="
  M 205.79 51.75
  Q 202.82 55.81 199.91 59.92
  Q 199.51 60.49 200.04 61.00"
/>
<path stroke="#fac980" vector-effect="non-scaling-stroke" d="
  M 198.79 63.25
  Q 195.23 59.12 190.85 55.90
  C 190.61 55.72 190.47 55.51 190.49 55.35
  L 190.54 55.00"
/>
<path stroke="#d6860e" stroke-opacity="0.984" vector-effect="non-scaling-stroke" d="
  M 205.79 51.75
  L 205.74 50.80
  C 205.72 50.53 205.48 50.31 205.19 50.32
  Q 198.87 50.42 197.00 50.75
  Q 192.84 51.48 190.54 55.00"
/>
<path stroke="#dbbd8f" stroke-opacity="0.984" vector-effect="non-scaling-stroke" d="
  M 190.54 55.00
  L 190.46 54.25"
/>
<path stroke="#e1e2e4" stroke-opacity="0.996" vector-effect="non-scaling-stroke" d="
  M 53.7315 74.3389
  C 53.90 74.34 54.07 73.37 54.1098 72.1697
  C 54.15 70.97 54.04 69.99 53.8685 69.9811
  C 53.70 69.98 53.53 70.95 53.4902 72.1503
  C 53.45 73.35 53.56 74.33 53.7315 74.3389"
/>
<path stroke="#acacac" vector-effect="non-scaling-stroke" d="
  M 92.31 74.19
  Q 88.28 70.38 81.99 69.84
  Q 79.86 69.65 78.55 70.12
  Q 76.63 70.79 75.81 72.56
  Q 73.01 78.60 73.75 85.87
  Q 74.11 89.42 74.17 89.63
  Q 74.83 92.11 78.00 91.75
  Q 84.14 91.06 89.53 87.42
  Q 93.26 84.89 94.45 82.13
  Q 96.26 77.91 92.31 74.19"
/>
<path stroke="#acacac" vector-effect="non-scaling-stroke" d="
  M 129.80 70.68
  Q 128.30 69.66 126.48 69.75
  Q 121.36 70.00 117.15 72.60
  Q 114.52 74.23 113.35 76.39
  Q 111.81 79.23 112.89 82.10
  Q 113.95 84.90 117.76 87.37
  Q 121.89 90.06 126.74 91.21
  Q 129.48 91.86 130.13 91.89
  Q 132.60 92.02 133.19 89.44
  Q 134.70 82.78 132.51 74.50
  Q 131.86 72.07 129.80 70.68"
/>
<path stroke="#acacac" vector-effect="non-scaling-stroke" d="
  M 111.19 93.66
  Q 104.71 92.37 96.79 93.41
  Q 94.50 93.71 95.21 95.90
  Q 96.74 100.62 100.96 103.20
  Q 103.09 104.50 105.23 103.79
  Q 108.38 102.75 110.14 99.61
  Q 111.23 97.68 112.19 95.67
  C 112.59 94.83 112.10 93.84 111.19 93.66"
/>
</g>
<path fill="#595859" d="
  M 82.29 34.00
  Q 81.74 34.70 82.75 35.99
  C 83.14 36.49 82.98 37.21 82.42 37.50
  Q 74.39 41.64 67.89 46.93
  Q 67.50 47.25 67.01 47.33
  Q 63.38 47.92 59.96 49.20
  Q 56.62 50.45 55.50 52.53
  Q 54.03 55.26 55.46 58.75
  Q 53.86 57.58 52.87 55.95
  Q 52.24 54.92 50.84 52.97
  Q 49.77 51.48 49.44 49.51
  Q 49.33 48.79 49.12 48.94
  C 49.02 49.01 48.88 48.98 48.86 48.89
  Q 46.44 39.56 52.46 32.00
  Q 52.63 32.39 52.89 32.14
  Q 56.25 28.96 60.60 27.41
  Q 62.29 26.80 60.75 26.46
  Q 63.29 25.62 66.75 26.00
  Q 76.34 27.06 82.29 34.00
  Z"
/>
<path fill="#595859" d="
  M 154.71 55.25
  Q 153.81 55.62 152.97 55.41
  C 152.69 55.34 152.47 55.09 152.39 54.76
  Q 151.65 51.66 149.38 49.86
  Q 147.93 48.72 144.32 47.89
  Q 141.79 47.31 139.27 46.71
  Q 137.17 46.22 135.31 44.76
  Q 129.98 40.57 123.80 37.68
  C 123.23 37.41 123.00 36.72 123.29 36.17
  Q 124.97 33.01 127.56 30.44
  C 127.71 30.29 127.78 30.12 127.76 29.98
  Q 127.73 29.80 127.54 29.75
  Q 131.93 26.24 136.00 25.75
  Q 142.86 24.93 148.90 28.30
  Q 153.87 31.08 155.97 35.74
  Q 158.18 40.66 157.25 46.50
  Q 156.93 48.55 155.84 51.96
  C 155.76 52.22 155.57 52.49 155.29 52.74
  Q 154.24 53.70 154.71 55.25
  Z"
/>
<path fill="#c2c4c9" fill-opacity="0.988" d="
  M 60.75 26.46
  Q 62.29 26.80 60.60 27.41
  Q 56.25 28.96 52.89 32.14
  Q 52.63 32.39 52.46 32.00
  Q 55.31 27.32 60.75 26.46
  Z"
/>
<path fill="#ffffff" d="
  M 127.54 29.75
  Q 127.73 29.80 127.76 29.98
  C 127.78 30.12 127.71 30.29 127.56 30.44
  Q 124.97 33.01 123.29 36.17
  C 123.00 36.72 123.23 37.41 123.80 37.68
  Q 129.98 40.57 135.31 44.76
  Q 137.17 46.22 139.27 46.71
  Q 141.79 47.31 144.32 47.89
  Q 147.93 48.72 149.38 49.86
  Q 151.65 51.66 152.39 54.76
  C 152.47 55.09 152.69 55.34 152.97 55.41
  Q 153.81 55.62 154.71 55.25
  L 156.00 56.04
  Q 156.08 56.57 155.75 56.96
  Q 153.26 57.83 150.67 57.61
  C 150.38 57.59 150.12 57.40 149.96 57.11
  Q 148.16 53.82 144.75 53.00
  Q 128.67 49.14 110.75 48.84
  Q 85.67 48.42 61.25 54.00
  Q 58.26 54.68 57.62 57.59
  Q 56.86 61.01 56.80 61.18
  Q 55.98 63.59 55.47 66.16
  Q 54.81 69.46 58.01 68.42
  Q 59.92 67.79 61.98 67.25
  Q 63.87 66.76 66.06 66.53
  Q 88.29 64.28 115.50 64.75
  Q 132.40 65.04 146.41 67.80
  Q 151.05 68.71 153.16 68.47
  Q 156.33 68.12 159.81 66.56
  Q 166.75 63.46 168.50 63.25
  Q 180.40 61.84 187.31 71.94
  Q 188.52 73.70 188.46 75.00
  Q 187.12 74.44 185.79 75.00
  L 180.04 69.63
  C 179.64 69.26 179.04 69.22 178.58 69.52
  Q 171.46 74.33 163.72 70.52
  C 163.16 70.25 162.52 70.21 161.93 70.42
  Q 158.46 71.66 155.70 72.53
  Q 155.26 72.67 154.28 72.75
  Q 152.68 72.89 153.49 74.33
  Q 153.66 74.64 153.72 75.24
  L 154.29 81.25
  L 154.21 82.75
  L 153.41 84.12
  C 153.27 84.38 153.20 84.71 153.22 85.06
  Q 153.77 93.87 151.75 102.46
  Q 150.86 103.10 150.25 104.50
  Q 143.58 119.71 128.98 128.93
  C 128.57 129.19 128.40 129.71 128.59 130.16
  Q 133.06 140.97 132.77 152.03
  Q 132.56 160.34 129.31 167.01
  Q 125.67 174.48 119.19 179.19
  Q 111.67 184.64 113.26 193.41
  Q 113.29 193.59 113.47 193.92
  Q 113.74 194.42 113.04 194.50
  Q 111.16 193.06 109.75 192.75
  Q 101.64 190.95 94.25 194.54
  Q 97.17 185.49 90.44 180.31
  Q 75.34 168.71 75.50 150.50
  Q 75.58 140.16 79.24 130.52
  C 79.30 130.36 79.24 130.18 79.09 130.10
  Q 63.66 121.40 56.04 105.75
  Q 55.40 104.21 54.04 103.25
  L 52.71 93.75
  L 53.21 68.25
  L 55.46 58.75
  Q 54.03 55.26 55.50 52.53
  Q 56.62 50.45 59.96 49.20
  Q 63.38 47.92 67.01 47.33
  Q 67.50 47.25 67.89 46.93
  Q 74.39 41.64 82.42 37.50
  C 82.98 37.21 83.14 36.49 82.75 35.99
  Q 81.74 34.70 82.29 34.00
  Q 83.14 35.26 84.51 35.64
  C 84.79 35.72 85.13 35.70 85.46 35.57
  Q 103.51 28.58 121.47 35.75
  C 121.74 35.86 122.05 35.76 122.21 35.52
  Q 124.38 32.18 127.54 29.75
  Z
  M 53.7315 74.3389
  C 53.90 74.34 54.07 73.37 54.1098 72.1697
  C 54.15 70.97 54.04 69.99 53.8685 69.9811
  C 53.70 69.98 53.53 70.95 53.4902 72.1503
  C 53.45 73.35 53.56 74.33 53.7315 74.3389
  Z
  M 92.31 74.19
  Q 88.28 70.38 81.99 69.84
  Q 79.86 69.65 78.55 70.12
  Q 76.63 70.79 75.81 72.56
  Q 73.01 78.60 73.75 85.87
  Q 74.11 89.42 74.17 89.63
  Q 74.83 92.11 78.00 91.75
  Q 84.14 91.06 89.53 87.42
  Q 93.26 84.89 94.45 82.13
  Q 96.26 77.91 92.31 74.19
  Z
  M 129.80 70.68
  Q 128.30 69.66 126.48 69.75
  Q 121.36 70.00 117.15 72.60
  Q 114.52 74.23 113.35 76.39
  Q 111.81 79.23 112.89 82.10
  Q 113.95 84.90 117.76 87.37
  Q 121.89 90.06 126.74 91.21
  Q 129.48 91.86 130.13 91.89
  Q 132.60 92.02 133.19 89.44
  Q 134.70 82.78 132.51 74.50
  Q 131.86 72.07 129.80 70.68
  Z
  M 111.19 93.66
  Q 104.71 92.37 96.79 93.41
  Q 94.50 93.71 95.21 95.90
  Q 96.74 100.62 100.96 103.20
  Q 103.09 104.50 105.23 103.79
  Q 108.38 102.75 110.14 99.61
  Q 111.23 97.68 112.19 95.67
  C 112.59 94.83 112.10 93.84 111.19 93.66
  Z"
/>
<path fill="#b6781b" fill-opacity="0.965" d="
  M 206.46 51.75
  L 205.79 51.75
  L 205.74 50.80
  C 205.72 50.53 205.48 50.31 205.19 50.32
  Q 198.87 50.42 197.00 50.75
  Q 192.84 51.48 190.54 55.00
  L 190.46 54.25
  L 193.84 49.67
  C 194.19 49.20 194.75 48.95 195.32 49.02
  Q 202.07 49.84 208.50 47.84
  Q 209.73 47.46 208.97 48.46
  L 206.46 51.75
  Z"
/>
<path fill="#f49301" d="
  M 155.75 56.96
  Q 159.48 58.35 161.96 55.50
  Q 169.00 52.97 176.50 53.50
  Q 177.36 53.56 179.75 54.79
  L 186.50 57.96
  L 196.46 66.50
  Q 196.05 67.24 196.56 67.94
  Q 201.18 74.25 205.62 81.10
  Q 205.91 81.53 205.37 81.53
  L 193.31 81.41
  C 193.01 81.40 192.75 81.22 192.66 80.95
  Q 191.42 77.36 188.46 75.00
  Q 188.52 73.70 187.31 71.94
  Q 180.40 61.84 168.50 63.25
  Q 166.75 63.46 159.81 66.56
  Q 156.33 68.12 153.16 68.47
  Q 151.05 68.71 146.41 67.80
  Q 132.40 65.04 115.50 64.75
  Q 88.29 64.28 66.06 66.53
  Q 63.87 66.76 61.98 67.25
  Q 59.92 67.79 58.01 68.42
  Q 54.81 69.46 55.47 66.16
  Q 55.98 63.59 56.80 61.18
  Q 56.86 61.01 57.62 57.59
  Q 58.26 54.68 61.25 54.00
  Q 85.67 48.42 110.75 48.84
  Q 128.67 49.14 144.75 53.00
  Q 148.16 53.82 149.96 57.11
  C 150.12 57.40 150.38 57.59 150.67 57.61
  Q 153.26 57.83 155.75 56.96
  Z"
/>
<path fill="#f49301" d="
  M 205.79 51.75
  Q 202.82 55.81 199.91 59.92
  Q 199.51 60.49 200.04 61.00
  Q 199.65 62.25 198.79 63.25
  Q 195.23 59.12 190.85 55.90
  C 190.61 55.72 190.47 55.51 190.49 55.35
  L 190.54 55.00
  Q 192.84 51.48 197.00 50.75
  Q 198.87 50.42 205.19 50.32
  C 205.48 50.31 205.72 50.53 205.74 50.80
  L 205.79 51.75
  Z"
/>
<path fill="#6f4316" fill-opacity="0.961" d="
  M 205.79 51.75
  L 206.46 51.75
  L 200.04 61.00
  Q 199.51 60.49 199.91 59.92
  Q 202.82 55.81 205.79 51.75
  Z"
/>
<path fill="#ffffff" d="
  M 190.46 54.25
  L 190.54 55.00
  L 190.49 55.35
  C 190.47 55.51 190.61 55.72 190.85 55.90
  Q 195.23 59.12 198.79 63.25
  L 196.46 66.50
  L 186.50 57.96
  Q 185.83 57.01 187.25 57.21
  Q 188.43 57.23 188.81 56.31
  Q 189.43 54.84 190.46 54.25
  Z"
/>
<path fill="#b6781b" fill-opacity="0.965" d="
  M 179.75 54.79
  Q 182.68 54.59 184.75 56.50
  Q 185.20 56.91 187.25 57.21
  Q 185.83 57.01 186.50 57.96
  L 179.75 54.79
  Z"
/>
<path fill="#b6781b" fill-opacity="0.965" d="
  M 161.96 55.50
  Q 159.48 58.35 155.75 56.96
  Q 156.08 56.57 156.00 56.04
  L 161.96 55.50
  Z"
/>
<path fill="#a0a3a4" fill-opacity="0.820" d="
  M 53.21 68.25
  L 52.71 93.75
  Q 51.67 87.03 52.21 80.25
  L 52.45 73.49
  Q 52.46 73.27 52.82 72.62
  Q 53.14 72.03 52.71 71.25
  L 53.21 68.25
  Z"
/>
<path fill="#f49301" d="
  M 185.79 75.00
  Q 180.39 80.70 172.50 81.54
  L 159.75 81.54
  Q 156.62 81.41 155.56 80.94
  Q 154.64 80.53 154.29 81.25
  L 153.72 75.24
  Q 153.66 74.64 153.49 74.33
  Q 152.68 72.89 154.28 72.75
  Q 155.26 72.67 155.70 72.53
  Q 158.46 71.66 161.93 70.42
  C 162.52 70.21 163.16 70.25 163.72 70.52
  Q 171.46 74.33 178.58 69.52
  C 179.04 69.22 179.64 69.26 180.04 69.63
  L 185.79 75.00
  Z"
/>
<ellipse fill="#c2c4c9" fill-opacity="0.988" cx="0.00" cy="0.00" transform="translate(53.80,72.16) rotate(91.8)" rx="2.18" ry="0.31"/>
<path fill="#595859" d="
  M 92.31 74.19
  Q 96.26 77.91 94.45 82.13
  Q 93.26 84.89 89.53 87.42
  Q 84.14 91.06 78.00 91.75
  Q 74.83 92.11 74.17 89.63
  Q 74.11 89.42 73.75 85.87
  Q 73.01 78.60 75.81 72.56
  Q 76.63 70.79 78.55 70.12
  Q 79.86 69.65 81.99 69.84
  Q 88.28 70.38 92.31 74.19
  Z"
/>
<path fill="#595859" d="
  M 129.80 70.68
  Q 131.86 72.07 132.51 74.50
  Q 134.70 82.78 133.19 89.44
  Q 132.60 92.02 130.13 91.89
  Q 129.48 91.86 126.74 91.21
  Q 121.89 90.06 117.76 87.37
  Q 113.95 84.90 112.89 82.10
  Q 111.81 79.23 113.35 76.39
  Q 114.52 74.23 117.15 72.60
  Q 121.36 70.00 126.48 69.75
  Q 128.30 69.66 129.80 70.68
  Z"
/>
<path fill="#4f595d" fill-opacity="0.525" d="
  M 52.71 71.25
  Q 53.14 72.03 52.82 72.62
  Q 52.46 73.27 52.45 73.49
  L 52.21 80.25
  Q 50.79 75.57 52.71 71.25
  Z"
/>
<path fill="#6f4316" fill-opacity="0.961" d="
  M 172.50 81.54
  Q 166.13 83.11 159.75 81.54
  L 172.50 81.54
  Z"
/>
<path fill="#c2c4c9" fill-opacity="0.988" d="
  M 154.21 82.75
  Q 154.77 90.96 153.16 98.99
  Q 153.14 99.10 152.65 100.44
  Q 152.20 101.71 153.04 103.00
  Q 152.34 103.07 151.75 102.46
  Q 153.77 93.87 153.22 85.06
  C 153.20 84.71 153.27 84.38 153.41 84.12
  L 154.21 82.75
  Z"
/>
<path fill="#595859" d="
  M 111.19 93.66
  C 112.10 93.84 112.59 94.83 112.19 95.67
  Q 111.23 97.68 110.14 99.61
  Q 108.38 102.75 105.23 103.79
  Q 103.09 104.50 100.96 103.20
  Q 96.74 100.62 95.21 95.90
  Q 94.50 93.71 96.79 93.41
  Q 104.71 92.37 111.19 93.66
  Z"
/>
<path fill="#595859" d="
  M 151.75 102.46
  Q 152.34 103.07 153.04 103.00
  Q 161.93 112.40 165.81 124.44
  Q 171.14 140.96 169.05 158.60
  Q 169.03 158.77 169.19 159.36
  L 169.29 159.75
  Q 168.83 160.08 168.87 160.48
  C 168.89 160.72 169.16 160.96 169.55 161.09
  Q 176.57 163.29 181.69 168.46
  Q 182.62 169.40 184.05 171.71
  Q 185.13 173.44 186.50 174.96
  Q 189.10 184.07 186.02 193.18
  Q 185.55 194.57 184.57 195.67
  Q 177.21 203.90 166.25 204.99
  Q 156.65 205.94 147.55 201.53
  C 146.79 201.16 145.91 201.17 145.17 201.54
  Q 126.33 210.82 113.04 194.50
  Q 113.74 194.42 113.47 193.92
  Q 113.29 193.59 113.26 193.41
  Q 111.67 184.64 119.19 179.19
  Q 125.67 174.48 129.31 167.01
  Q 132.56 160.34 132.77 152.03
  Q 133.06 140.97 128.59 130.16
  C 128.40 129.71 128.57 129.19 128.98 128.93
  Q 143.58 119.71 150.25 104.50
  Q 150.86 103.10 151.75 102.46
  Z"
/>
<path fill="#353534" fill-opacity="0.996" d="
  M 54.04 103.25
  Q 55.40 104.21 56.04 105.75
  Q 53.63 105.67 52.19 107.69
  Q 42.92 120.64 40.03 135.73
  Q 39.31 139.50 39.10 145.83
  Q 38.94 150.91 38.71 156.00
  Q 38.66 157.09 37.79 157.50
  Q 36.86 142.49 40.69 127.98
  Q 43.59 117.00 50.61 108.10
  Q 52.45 105.76 54.04 103.25
  Z"
/>
<path fill="#595859" d="
  M 56.04 105.75
  Q 63.66 121.40 79.09 130.10
  C 79.24 130.18 79.30 130.36 79.24 130.52
  Q 75.58 140.16 75.50 150.50
  Q 75.34 168.71 90.44 180.31
  Q 97.17 185.49 94.25 194.54
  Q 92.46 195.23 91.16 196.54
  Q 89.08 198.63 89.04 198.66
  Q 77.51 207.94 63.21 202.19
  C 62.91 202.07 62.58 202.06 62.28 202.16
  Q 50.73 206.12 38.75 203.71
  Q 38.99 202.71 38.25 202.50
  Q 33.14 201.07 29.25 198.15
  Q 28.30 197.44 27.44 196.19
  Q 26.67 195.08 25.83 194.01
  Q 24.43 192.20 23.88 190.54
  Q 18.35 173.78 32.74 164.02
  Q 32.79 163.98 34.99 162.83
  Q 36.54 162.02 37.46 160.50
  L 37.79 157.50
  Q 38.66 157.09 38.71 156.00
  Q 38.94 150.91 39.10 145.83
  Q 39.31 139.50 40.03 135.73
  Q 42.92 120.64 52.19 107.69
  Q 53.63 105.67 56.04 105.75
  Z"
/>
<path fill="#353534" fill-opacity="0.996" d="
  M 169.29 159.75
  Q 169.93 160.26 170.76 160.47
  Q 182.65 163.42 186.50 174.96
  Q 185.13 173.44 184.05 171.71
  Q 182.62 169.40 181.69 168.46
  Q 176.57 163.29 169.55 161.09
  C 169.16 160.96 168.89 160.72 168.87 160.48
  Q 168.83 160.08 169.29 159.75
  Z"
/>
<path fill="#353534" fill-opacity="0.996" d="
  M 37.46 160.50
  Q 36.54 162.02 34.99 162.83
  Q 32.79 163.98 32.74 164.02
  Q 18.35 173.78 23.88 190.54
  Q 24.43 192.20 25.83 194.01
  Q 26.67 195.08 27.44 196.19
  Q 28.30 197.44 29.25 198.15
  Q 33.14 201.07 38.25 202.50
  Q 38.99 202.71 38.75 203.71
  Q 31.06 202.37 26.44 196.56
  Q 22.27 191.33 21.38 184.91
  Q 20.51 178.68 23.23 172.90
  Q 27.39 164.05 37.46 160.50
  Z"
/>
</svg>
