<?xml version="1.0" encoding="UTF-8" standalone="no"?>
<!DOCTYPE svg PUBLIC "-//W3C//DTD SVG 1.1//EN" "http://www.w3.org/Graphics/SVG/1.1/DTD/svg11.dtd">
<svg xmlns="http://www.w3.org/2000/svg" version="1.1" viewBox="0 0 401 327">
<g stroke-width="2.0" fill="none" stroke-linecap="butt">
<path stroke="#098bbb" vector-effect="non-scaling-stroke" d="
  M 67.00 156.46
  Q 77.20 159.02 87.44 161.37
  Q 87.55 161.40 88.47 161.83
  Q 89.21 162.18 89.71 161.25"
/>
<path stroke="#103e66" vector-effect="non-scaling-stroke" d="
  M 179.25 97.71
  Q 178.83 106.47 179.00 115.25
  Q 179.09 119.75 179.79 121.50"
/>
<path stroke="#115882" vector-effect="non-scaling-stroke" d="
  M 167.54 130.00
  L 167.27 110.99
  C 167.26 110.70 167.15 110.39 166.94 110.10
  L 165.75 108.46"
/>
<path stroke="#d64a22" vector-effect="non-scaling-stroke" d="
  M 335.21 100.75
  Q 334.76 100.68 334.68 100.30
  Q 334.61 100.00 334.38 100.21
  Q 333.79 100.77 332.80 100.21
  Q 322.92 94.64 312.79 88.58
  C 312.24 88.25 311.55 88.24 311.00 88.56
  Q 310.02 89.13 310.03 87.25
  Q 310.03 83.50 309.96 79.75"
/>
<path stroke="#d34922" vector-effect="non-scaling-stroke" d="
  M 270.79 65.50
  Q 271.09 64.54 269.85 65.35
  C 269.47 65.60 268.97 65.61 268.58 65.37
  Q 257.31 58.47 247.33 52.91
  Q 245.99 52.17 245.50 50.71"
/>
<path stroke="#af3c1c" vector-effect="non-scaling-stroke" d="
  M 247.79 73.00
  Q 248.10 72.55 247.68 72.32
  Q 237.73 66.77 227.95 60.92
  C 227.69 60.77 227.56 60.48 227.63 60.23
  L 227.75 59.79"
/>
<path stroke="#b43f1e" vector-effect="non-scaling-stroke" d="
  M 334.71 116.25
  Q 333.97 112.26 334.00 116.62
  Q 334.01 117.24 333.47 116.93
  L 311.94 104.56
  C 311.42 104.27 310.77 104.47 310.50 105.00
  Q 309.59 106.83 309.80 105.01
  Q 309.91 104.07 309.54 103.25"
/>
<path stroke="#9c3518" vector-effect="non-scaling-stroke" d="
  M 243.79 74.50
  Q 241.97 74.66 240.94 74.06
  Q 235.57 70.96 223.25 63.21"
/>
<path stroke="#9e381a" vector-effect="non-scaling-stroke" d="
  M 334.21 123.75
  Q 330.69 123.55 327.85 121.58
  Q 325.09 119.66 325.02 119.61
  Q 318.11 115.50 310.25 111.31
  C 309.79 111.06 309.50 110.57 309.49 110.03
  L 309.46 103.75"
/>
<path stroke="#882f14" vector-effect="non-scaling-stroke" d="
  M 235.00 78.29
  Q 228.70 73.60 224.75 71.75
  Q 220.69 69.85 218.46 67.75"
/>
<path stroke="#71250c" vector-effect="non-scaling-stroke" d="
  M 225.25 85.04
  Q 224.56 85.25 223.92 85.13
  Q 223.45 85.05 222.90 84.43
  Q 221.72 83.12 220.03 82.69
  Q 218.21 82.23 217.65 81.83
  Q 216.60 81.07 215.79 80.00"
/>
<path stroke="#c86c26" vector-effect="non-scaling-stroke" d="
  M 332.25 169.29
  L 309.04 164.25"
/>
<path stroke="#a63517" vector-effect="non-scaling-stroke" d="
  M 302.50 194.71
  Q 302.31 194.21 302.46 193.75
  C 302.57 193.40 302.57 193.08 302.45 192.87
  L 291.73 174.31
  C 291.57 174.04 291.58 173.70 291.76 173.45
  Q 292.41 172.51 292.00 171.79"
/>
<path stroke="#c4411e" vector-effect="non-scaling-stroke" d="
  M 296.00 196.71
  L 295.93 196.23
  Q 295.81 195.42 295.77 195.34
  L 284.40 175.40
  C 284.30 175.23 284.41 175.01 284.60 174.99
  Q 286.06 174.78 284.50 174.46"
/>
<path stroke="#df4b22" vector-effect="non-scaling-stroke" d="
  M 281.00 201.21
  Q 275.26 191.21 269.56 181.19
  Q 269.11 180.39 267.75 180.46"
/>
<path stroke="#e44e23" vector-effect="non-scaling-stroke" d="
  M 260.04 207.50
  Q 260.22 207.07 259.81 206.44
  Q 256.18 200.77 250.62 190.84
  Q 250.47 190.57 250.05 189.18
  Q 249.74 188.15 248.75 187.79"
/>
<path stroke="#ce4721" vector-effect="non-scaling-stroke" d="
  M 245.29 212.50
  Q 245.46 212.29 245.43 212.15
  C 245.40 212.07 245.22 212.05 245.02 212.12
  L 243.56 212.61
  C 243.29 212.70 242.99 212.54 242.83 212.25
  Q 238.25 203.46 232.71 195.25"
/>
<path stroke="#b23d1c" vector-effect="non-scaling-stroke" d="
  M 235.04 216.75
  L 233.96 216.16
  C 233.61 215.97 233.36 215.76 233.24 215.57
  Q 230.27 210.68 227.40 205.72
  Q 227.35 205.63 226.08 203.75
  Q 224.94 202.06 224.71 200.00"
/>
<path stroke="#963013" vector-effect="non-scaling-stroke" d="
  M 226.50 221.54
  Q 224.64 219.75 223.81 217.94
  Q 221.28 212.35 217.96 208.28
  Q 217.27 207.43 217.46 206.25"
/>
<path stroke="#13608b" vector-effect="non-scaling-stroke" d="
  M 151.25 252.96
  L 152.68 254.13
  C 152.88 254.29 152.99 254.61 152.98 254.99
  Q 152.66 265.24 153.50 275.46"
/>
<path stroke="#124972" vector-effect="non-scaling-stroke" d="
  M 170.75 266.46
  Q 170.31 265.56 170.31 265.31
  Q 170.38 255.40 170.00 245.50
  Q 169.99 245.17 169.50 244.71"
/>
</g>
<path fill="#00ade2" d="
  M 67.00 156.46
  Q 77.20 159.02 87.44 161.37
  Q 87.55 161.40 88.47 161.83
  Q 89.21 162.18 89.71 161.25
  Q 89.89 162.07 90.74 162.29
  Q 116.16 168.74 140.46 178.59
  Q 158.45 185.88 174.46 196.82
  Q 182.63 202.40 189.17 209.83
  Q 193.00 214.18 195.18 219.56
  Q 198.04 226.59 195.81 233.85
  Q 193.36 241.87 189.96 249.54
  Q 189.75 250.00 189.69 249.50
  Q 188.36 239.57 181.52 232.23
  Q 173.38 223.52 163.11 217.45
  Q 143.18 205.69 121.22 198.35
  Q 81.81 185.20 40.82 178.38
  Q 32.91 177.06 26.04 173.37
  Q 18.37 169.26 14.59 163.32
  Q 9.86 155.92 10.00 145.75
  Q 10.98 74.36 11.25 38.00
  Q 11.28 34.23 11.68 30.97
  Q 12.16 27.12 13.51 24.22
  Q 18.04 14.53 29.43 12.62
  Q 32.68 12.07 35.97 11.98
  Q 38.72 11.90 42.49 12.53
  Q 70.70 17.24 98.35 24.55
  Q 119.64 30.17 146.50 41.25
  Q 168.80 50.45 185.94 65.31
  Q 189.22 68.16 193.04 73.23
  Q 200.67 83.37 197.36 94.95
  Q 197.22 95.45 194.74 102.57
  Q 193.44 106.30 191.85 110.11
  Q 191.49 110.98 191.34 110.05
  Q 189.65 99.57 182.65 92.34
  Q 175.00 84.43 165.69 78.56
  Q 151.13 69.39 129.87 61.76
  Q 87.96 46.72 43.45 39.41
  C 42.96 39.33 42.52 39.70 42.51 40.19
  L 41.32 151.19
  C 41.31 151.48 41.52 151.73 41.80 151.78
  Q 53.91 154.08 66.00 156.50
  Q 66.52 156.96 67.00 156.46
  Z"
/>
<path fill="#ec5024" d="
  M 335.21 100.75
  Q 334.76 100.68 334.68 100.30
  Q 334.61 100.00 334.38 100.21
  Q 333.79 100.77 332.80 100.21
  Q 322.92 94.64 312.79 88.58
  C 312.24 88.25 311.55 88.24 311.00 88.56
  Q 310.02 89.13 310.03 87.25
  Q 310.03 83.50 309.96 79.75
  L 310.43 54.47
  C 310.43 54.02 310.00 53.69 309.57 53.82
  L 270.79 65.50
  Q 271.09 64.54 269.85 65.35
  C 269.47 65.60 268.97 65.61 268.58 65.37
  Q 257.31 58.47 247.33 52.91
  Q 245.99 52.17 245.50 50.71
  Q 249.85 48.54 253.06 47.31
  Q 277.85 37.87 306.05 28.13
  Q 314.38 25.25 318.75 25.33
  Q 328.39 25.49 332.50 33.71
  Q 334.63 37.98 335.34 48.13
  Q 337.19 74.42 335.21 100.75
  Z"
/>
<path fill="#ba411f" d="
  M 245.50 50.71
  Q 245.99 52.17 247.33 52.91
  Q 257.31 58.47 268.58 65.37
  C 268.97 65.61 269.47 65.60 269.85 65.35
  Q 271.09 64.54 270.79 65.50
  L 247.79 73.00
  Q 248.10 72.55 247.68 72.32
  Q 237.73 66.77 227.95 60.92
  C 227.69 60.77 227.56 60.48 227.63 60.23
  L 227.75 59.79
  Q 236.21 54.44 245.50 50.71
  Z"
/>
<path fill="#a43618" d="
  M 227.75 59.79
  L 227.63 60.23
  C 227.56 60.48 227.69 60.77 227.95 60.92
  Q 237.73 66.77 247.68 72.32
  Q 248.10 72.55 247.79 73.00
  L 243.79 74.50
  Q 241.97 74.66 240.94 74.06
  Q 235.57 70.96 223.25 63.21
  L 227.75 59.79
  Z"
/>
<path fill="#943418" d="
  M 223.25 63.21
  Q 235.57 70.96 240.94 74.06
  Q 241.97 74.66 243.79 74.50
  L 235.00 78.29
  Q 228.70 73.60 224.75 71.75
  Q 220.69 69.85 218.46 67.75
  Q 220.40 65.00 223.25 63.21
  Z"
/>
<path fill="#7c2a10" d="
  M 218.46 67.75
  Q 220.69 69.85 224.75 71.75
  Q 228.70 73.60 235.00 78.29
  Q 229.55 80.86 225.25 85.04
  Q 224.56 85.25 223.92 85.13
  Q 223.45 85.05 222.90 84.43
  Q 221.72 83.12 220.03 82.69
  Q 218.21 82.23 217.65 81.83
  Q 216.60 81.07 215.79 80.00
  Q 213.92 76.77 215.44 72.94
  Q 216.73 69.69 218.46 67.75
  Z"
/>
<path fill="#fbab3a" d="
  M 332.25 169.29
  L 309.04 164.25
  Q 308.87 163.89 308.06 163.69
  Q 283.97 157.51 260.83 148.40
  Q 242.70 141.27 226.44 130.56
  Q 216.50 124.03 209.44 115.81
  Q 205.94 111.74 203.71 105.88
  Q 201.10 99.02 203.75 90.75
  Q 205.93 83.93 208.53 77.18
  Q 208.96 76.06 209.22 77.23
  Q 211.54 87.68 218.03 94.47
  Q 226.10 102.91 236.12 108.92
  Q 246.42 115.10 257.48 119.81
  Q 280.63 129.67 304.98 136.07
  Q 332.94 143.42 357.50 147.50
  Q 365.87 148.89 372.86 152.59
  Q 380.59 156.68 384.56 162.69
  Q 389.07 169.52 389.00 178.25
  Q 388.77 205.73 387.58 289.65
  Q 387.48 296.95 386.04 300.64
  Q 382.15 310.66 370.69 313.19
  Q 364.79 314.49 358.46 313.81
  Q 357.60 313.71 346.53 311.69
  Q 321.39 307.10 296.73 300.32
  Q 274.05 294.09 252.40 284.91
  Q 230.30 275.53 213.31 260.94
  Q 209.37 257.55 205.30 251.70
  Q 198.52 241.93 201.56 231.04
  Q 201.71 230.52 204.31 223.34
  Q 205.73 219.40 207.17 215.67
  Q 207.52 214.77 207.65 215.72
  Q 208.52 222.36 211.56 227.44
  Q 216.54 235.73 227.17 243.04
  Q 245.74 255.81 266.90 263.65
  Q 291.11 272.63 316.23 278.57
  Q 336.00 283.25 355.41 286.65
  C 355.97 286.74 356.47 286.32 356.48 285.75
  L 357.68 174.81
  C 357.69 174.53 357.48 174.28 357.19 174.22
  L 332.25 169.29
  Z"
/>
<path fill="#c04320" d="
  M 309.96 79.75
  Q 310.03 83.50 310.03 87.25
  Q 310.02 89.13 311.00 88.56
  C 311.55 88.24 312.24 88.25 312.79 88.58
  Q 322.92 94.64 332.80 100.21
  Q 333.79 100.77 334.38 100.21
  Q 334.61 100.00 334.68 100.30
  Q 334.76 100.68 335.21 100.75
  L 334.71 116.25
  Q 333.97 112.26 334.00 116.62
  Q 334.01 117.24 333.47 116.93
  L 311.94 104.56
  C 311.42 104.27 310.77 104.47 310.50 105.00
  Q 309.59 106.83 309.80 105.01
  Q 309.91 104.07 309.54 103.25
  L 309.96 79.75
  Z"
/>
<path fill="#662007" d="
  M 215.79 80.00
  Q 216.60 81.07 217.65 81.83
  Q 218.21 82.23 220.03 82.69
  Q 221.72 83.12 222.90 84.43
  Q 223.45 85.05 223.92 85.13
  Q 224.56 85.25 225.25 85.04
  L 222.25 89.53
  C 222.11 89.75 221.79 89.75 221.63 89.54
  Q 218.21 85.08 215.79 80.00
  Z"
/>
<path fill="#10476f" d="
  M 179.25 97.71
  Q 178.83 106.47 179.00 115.25
  Q 179.09 119.75 179.79 121.50
  Q 174.40 126.79 167.54 130.00
  L 167.27 110.99
  C 167.26 110.70 167.15 110.39 166.94 110.10
  L 165.75 108.46
  Q 173.89 105.05 178.24 97.47
  Q 178.88 96.36 179.25 97.71
  Z"
/>
<path fill="#0f355c" d="
  M 179.25 97.71
  Q 183.15 102.52 185.66 108.63
  C 185.99 109.44 186.07 110.33 185.89 111.18
  Q 184.56 117.61 179.79 121.50
  Q 179.09 119.75 179.00 115.25
  Q 178.83 106.47 179.25 97.71
  Z"
/>
<path fill="#a83b1c" d="
  M 309.54 103.25
  Q 309.91 104.07 309.80 105.01
  Q 309.59 106.83 310.50 105.00
  C 310.77 104.47 311.42 104.27 311.94 104.56
  L 333.47 116.93
  Q 334.01 117.24 334.00 116.62
  Q 333.97 112.26 334.71 116.25
  L 334.21 123.75
  Q 330.69 123.55 327.85 121.58
  Q 325.09 119.66 325.02 119.61
  Q 318.11 115.50 310.25 111.31
  C 309.79 111.06 309.50 110.57 309.49 110.03
  L 309.46 103.75
  L 309.54 103.25
  Z"
/>
<path fill="#943418" d="
  M 309.46 103.75
  L 309.49 110.03
  C 309.50 110.57 309.79 111.06 310.25 111.31
  Q 318.11 115.50 325.02 119.61
  Q 325.09 119.66 327.85 121.58
  Q 330.69 123.55 334.21 123.75
  L 334.00 131.33
  C 333.99 131.61 333.72 131.81 333.45 131.73
  Q 321.36 128.23 309.65 123.50
  C 309.36 123.38 309.17 123.11 309.17 122.81
  L 309.46 103.75
  Z"
/>
<path fill="#126894" d="
  M 165.75 108.46
  L 166.94 110.10
  C 167.15 110.39 167.26 110.70 167.27 110.99
  L 167.54 130.00
  Q 153.96 137.40 137.56 143.31
  Q 106.14 154.65 90.74 159.92
  Q 90.25 160.09 90.04 160.41
  Q 89.80 160.79 89.71 161.25
  Q 89.21 162.18 88.47 161.83
  Q 87.55 161.40 87.44 161.37
  Q 77.20 159.02 67.00 156.46
  Q 72.82 138.62 90.82 133.09
  Q 116.66 125.16 142.50 117.25
  Q 153.01 114.03 165.75 108.46
  Z"
/>
<path fill="#942d12" d="
  M 309.04 164.25
  L 332.25 169.29
  Q 326.18 187.33 307.98 192.94
  Q 305.23 193.79 302.50 194.71
  Q 302.31 194.21 302.46 193.75
  C 302.57 193.40 302.57 193.08 302.45 192.87
  L 291.73 174.31
  C 291.57 174.04 291.58 173.70 291.76 173.45
  Q 292.41 172.51 292.00 171.79
  Q 299.52 169.09 307.07 166.48
  Q 307.17 166.45 308.06 166.23
  Q 309.55 165.88 309.04 164.25
  Z"
/>
<path fill="#b73c1c" d="
  M 292.00 171.79
  Q 292.41 172.51 291.76 173.45
  C 291.58 173.70 291.57 174.04 291.73 174.31
  L 302.45 192.87
  C 302.57 193.08 302.57 193.40 302.46 193.75
  Q 302.31 194.21 302.50 194.71
  L 296.00 196.71
  L 295.93 196.23
  Q 295.81 195.42 295.77 195.34
  L 284.40 175.40
  C 284.30 175.23 284.41 175.01 284.60 174.99
  Q 286.06 174.78 284.50 174.46
  L 292.00 171.79
  Z"
/>
<path fill="#d14620" d="
  M 284.50 174.46
  Q 286.06 174.78 284.60 174.99
  C 284.41 175.01 284.30 175.23 284.40 175.40
  L 295.77 195.34
  Q 295.81 195.42 295.93 196.23
  L 296.00 196.71
  L 281.00 201.21
  Q 275.26 191.21 269.56 181.19
  Q 269.11 180.39 267.75 180.46
  L 284.50 174.46
  Z"
/>
<path fill="#ec5024" d="
  M 267.75 180.46
  Q 269.11 180.39 269.56 181.19
  Q 275.26 191.21 281.00 201.21
  L 260.04 207.50
  Q 260.22 207.07 259.81 206.44
  Q 256.18 200.77 250.62 190.84
  Q 250.47 190.57 250.05 189.18
  Q 249.74 188.15 248.75 187.79
  Q 258.06 183.64 267.75 180.46
  Z"
/>
<path fill="#dc4b22" d="
  M 248.75 187.79
  Q 249.74 188.15 250.05 189.18
  Q 250.47 190.57 250.62 190.84
  Q 256.18 200.77 259.81 206.44
  Q 260.22 207.07 260.04 207.50
  L 245.29 212.50
  Q 245.46 212.29 245.43 212.15
  C 245.40 212.07 245.22 212.05 245.02 212.12
  L 243.56 212.61
  C 243.29 212.70 242.99 212.54 242.83 212.25
  Q 238.25 203.46 232.71 195.25
  Q 240.44 190.91 248.75 187.79
  Z"
/>
<path fill="#126a96" d="
  M 151.25 252.96
  L 152.68 254.13
  C 152.88 254.29 152.99 254.61 152.98 254.99
  Q 152.66 265.24 153.50 275.46
  Q 144.32 279.41 138.19 281.69
  Q 118.38 289.04 91.19 298.44
  Q 85.36 300.45 81.50 300.52
  Q 71.66 300.71 67.11 293.54
  Q 65.12 290.39 64.35 284.02
  Q 62.35 267.52 62.75 252.50
  Q 63.49 224.36 65.06 195.20
  C 65.09 194.57 65.70 194.14 66.29 194.34
  L 89.33 202.31
  C 89.74 202.45 90.01 202.85 90.00 203.30
  L 88.69 271.81
  C 88.69 272.06 88.92 272.24 89.16 272.17
  L 151.25 252.96
  Z"
/>
<path fill="#c04320" d="
  M 232.71 195.25
  Q 238.25 203.46 242.83 212.25
  C 242.99 212.54 243.29 212.70 243.56 212.61
  L 245.02 212.12
  C 245.22 212.05 245.40 212.07 245.43 212.15
  Q 245.46 212.29 245.29 212.50
  L 235.04 216.75
  L 233.96 216.16
  C 233.61 215.97 233.36 215.76 233.24 215.57
  Q 230.27 210.68 227.40 205.72
  Q 227.35 205.63 226.08 203.75
  Q 224.94 202.06 224.71 200.00
  L 232.71 195.25
  Z"
/>
<path fill="#a43618" d="
  M 224.71 200.00
  Q 224.94 202.06 226.08 203.75
  Q 227.35 205.63 227.40 205.72
  Q 230.27 210.68 233.24 215.57
  C 233.36 215.76 233.61 215.97 233.96 216.16
  L 235.04 216.75
  L 226.50 221.54
  Q 224.64 219.75 223.81 217.94
  Q 221.28 212.35 217.96 208.28
  Q 217.27 207.43 217.46 206.25
  Q 220.54 202.50 224.71 200.00
  Z"
/>
<path fill="#872a0d" d="
  M 217.46 206.25
  Q 217.27 207.43 217.96 208.28
  Q 221.28 212.35 223.81 217.94
  Q 224.64 219.75 226.50 221.54
  Q 222.77 224.58 220.78 228.74
  C 220.62 229.08 220.16 229.12 219.94 228.82
  Q 216.91 224.72 214.57 220.21
  Q 212.98 217.14 213.28 214.50
  Q 213.81 209.78 217.46 206.25
  Z"
/>
<path fill="#103d65" d="
  M 170.75 266.46
  Q 170.31 265.56 170.31 265.31
  Q 170.38 255.40 170.00 245.50
  Q 169.99 245.17 169.50 244.71
  Q 173.92 241.42 176.75 236.68
  C 176.87 236.47 177.17 236.44 177.33 236.63
  Q 182.36 242.58 183.94 247.81
  Q 184.57 249.91 183.78 252.53
  Q 183.21 254.43 181.66 256.62
  Q 177.35 262.71 170.75 266.46
  Z"
/>
<path fill="#13557f" d="
  M 169.50 244.71
  Q 169.99 245.17 170.00 245.50
  Q 170.38 255.40 170.31 265.31
  Q 170.31 265.56 170.75 266.46
  Q 162.48 271.62 153.50 275.46
  Q 152.66 265.24 152.98 254.99
  C 152.99 254.61 152.88 254.29 152.68 254.13
  L 151.25 252.96
  Q 160.68 249.50 169.50 244.71
  Z"
/>
</svg>
