<?xml version="1.0" encoding="UTF-8" standalone="no"?>
<!DOCTYPE svg PUBLIC "-//W3C//DTD SVG 1.1//EN" "http://www.w3.org/Graphics/SVG/1.1/DTD/svg11.dtd">
<svg xmlns="http://www.w3.org/2000/svg" version="1.1" viewBox="0 0 300 300">
<g stroke-width="2.0" fill="none" stroke-linecap="butt">
<path stroke="#408664" stroke-opacity="0.898" vector-effect="non-scaling-stroke" d="
  M 204.00 21.21
  L 202.75 20.79"
/>
<path stroke="#408664" stroke-opacity="0.898" vector-effect="non-scaling-stroke" d="
  M 197.25 19.29
  Q 196.49 18.61 195.50 18.54"
/>
<path stroke="#408664" stroke-opacity="0.898" vector-effect="non-scaling-stroke" d="
  M 101.50 273.96
  Q 101.02 272.73 99.54 272.75"
/>
<path stroke="#588c6a" stroke-opacity="0.953" vector-effect="non-scaling-stroke" d="
  M 26.50 215.21
  L 26.25 215.29"
/>
<path stroke="#408664" stroke-opacity="0.898" vector-effect="non-scaling-stroke" d="
  M 164.94 14.56
  Q 174.39 15.97 164.55 14.15
  Q 163.20 13.90 164.37 14.42
  Q 164.58 14.51 164.94 14.56"
/>
<path stroke="#519976" stroke-opacity="0.631" vector-effect="non-scaling-stroke" d="
  M 230.17 44.82
  Q 213.30 30.15 192.46 22.00
  Q 192.21 21.90 192.04 21.96
  Q 191.63 22.11 192.12 22.32
  Q 218.04 33.07 237.95 52.82
  Q 238.07 52.95 238.22 53.01
  Q 238.88 53.32 238.06 52.44
  Q 234.31 48.42 230.17 44.82"
/>
<path stroke="#408664" stroke-opacity="0.898" vector-effect="non-scaling-stroke" d="
  M 97.92 30.01
  Q 105.81 26.05 114.09 22.97
  C 114.17 22.94 114.23 22.89 114.24 22.84
  L 114.25 22.74
  C 114.26 22.64 114.13 22.58 114.00 22.63
  Q 105.58 25.76 97.56 29.81
  Q 95.45 30.88 97.70 30.10
  Q 97.81 30.06 97.92 30.01"
/>
<path stroke="#529371" stroke-opacity="0.957" vector-effect="non-scaling-stroke" d="
  M 280.50 172.29
  Q 278.73 174.48 279.54 177.25"
/>
<path stroke="#529371" stroke-opacity="0.957" vector-effect="non-scaling-stroke" d="
  M 279.46 177.75
  Q 278.72 179.06 278.07 180.42
  Q 277.50 181.62 278.71 182.00"
/>
<path stroke="#519976" stroke-opacity="0.631" vector-effect="non-scaling-stroke" d="
  M 278.71 134.50
  Q 277.86 126.90 277.25 123.50
  Q 275.76 115.16 276.56 123.44
  Q 276.94 127.39 277.79 131.25"
/>
<path stroke="#529371" stroke-opacity="0.957" vector-effect="non-scaling-stroke" d="
  M 277.79 131.25
  Q 278.10 133.40 277.00 132.29"
/>
<path stroke="#408664" stroke-opacity="0.898" vector-effect="non-scaling-stroke" d="
  M 250.00 66.50
  Q 248.92 64.63 247.70 63.34
  Q 246.64 62.22 247.43 63.54
  Q 248.45 65.27 250.00 66.50"
/>
<path stroke="#55a783" stroke-opacity="0.980" vector-effect="non-scaling-stroke" d="
  M 262.95 67.60
  Q 261.39 65.37 261.37 66.24
  Q 261.35 66.70 261.79 67.26
  Q 266.37 73.06 270.01 79.49
  Q 270.47 80.30 270.62 79.89
  C 270.68 79.72 270.64 79.49 270.51 79.27
  Q 266.94 73.30 262.95 67.60"
/>
<path stroke="#408664" stroke-opacity="0.898" vector-effect="non-scaling-stroke" d="
  M 277.69 182.94
  Q 276.22 188.63 273.42 196.29
  Q 273.25 196.76 273.48 196.30
  Q 276.75 189.92 278.13 182.87
  Q 278.23 182.36 277.89 182.57
  Q 277.76 182.66 277.69 182.94"
/>
<path stroke="#529371" stroke-opacity="0.957" vector-effect="non-scaling-stroke" d="
  M 267.00 211.50
  Q 265.88 212.47 265.80 213.82
  Q 265.77 214.52 266.03 213.86
  L 267.00 211.50"
/>
<path stroke="#529371" stroke-opacity="0.957" vector-effect="non-scaling-stroke" d="
  M 267.00 211.50
  Q 267.92 210.47 268.13 209.18
  Q 268.23 208.58 267.92 209.12
  Q 267.26 210.23 267.00 211.50"
/>
<path stroke="#519976" stroke-opacity="0.631" vector-effect="non-scaling-stroke" d="
  M 261.00 222.50
  Q 255.94 229.54 250.82 236.53
  Q 250.54 236.90 251.02 236.81
  C 251.16 236.78 251.30 236.70 251.40 236.57
  Q 256.95 230.04 261.00 222.50"
/>
<path stroke="#408664" stroke-opacity="0.898" vector-effect="non-scaling-stroke" d="
  M 261.00 222.50
  Q 262.32 221.26 262.72 219.56
  Q 262.93 218.65 262.52 219.46
  L 261.00 222.50"
/>
</g>
<path fill="#65be93" d="
  M 204.00 21.21
  L 202.75 20.79
  L 197.25 19.29
  Q 196.49 18.61 195.50 18.54
  Q 193.73 18.52 192.19 17.74
  C 191.90 17.59 191.57 17.53 191.26 17.56
  Q 188.74 17.81 186.43 16.93
  Q 185.94 16.74 185.54 16.67
  Q 179.01 15.52 184.63 17.61
  Q 184.99 17.75 185.40 17.83
  Q 234.31 28.38 263.67 67.14
  Q 269.91 75.38 274.25 84.08
  Q 281.74 99.12 284.81 115.44
  Q 286.02 121.82 287.52 131.46
  Q 288.97 140.72 288.86 147.62
  Q 288.37 178.00 274.25 204.85
  Q 272.75 207.72 268.26 214.80
  Q 265.14 219.72 262.31 224.81
  Q 260.38 228.30 255.82 234.03
  Q 255.64 234.25 255.65 234.39
  Q 255.66 234.63 256.29 234.03
  Q 262.40 228.16 267.53 221.43
  Q 267.90 220.96 268.20 220.83
  Q 268.80 220.59 268.95 221.35
  Q 269.02 221.67 268.89 222.14
  Q 267.83 226.18 268.33 231.03
  C 268.39 231.58 268.25 232.13 267.95 232.60
  Q 266.04 235.49 264.48 238.04
  Q 262.45 241.33 260.81 243.35
  Q 246.91 260.43 227.19 270.53
  C 226.93 270.66 226.60 270.68 226.29 270.57
  Q 223.84 269.77 221.44 271.69
  Q 220.18 272.69 218.25 272.75
  Q 217.72 272.77 217.32 272.99
  Q 203.71 280.54 188.48 283.30
  Q 179.66 284.89 179.56 284.91
  Q 168.44 287.15 160.25 288.25
  Q 154.33 289.04 146.95 288.47
  C 146.63 288.45 146.38 288.31 146.32 288.14
  Q 146.22 287.84 147.00 287.79
  Q 155.38 287.29 163.72 286.28
  Q 164.01 286.25 164.27 286.16
  Q 166.45 285.38 163.51 285.58
  Q 159.84 285.83 156.18 285.93
  Q 152.46 286.04 148.83 285.75
  Q 125.06 283.88 104.44 275.31
  Q 102.53 274.52 101.57 274.45
  C 101.37 274.43 101.22 274.31 101.25 274.19
  Q 101.28 274.05 101.50 273.96
  Q 101.02 272.73 99.54 272.75
  Q 91.82 268.75 84.36 264.30
  Q 77.85 260.42 72.50 255.59
  Q 64.15 248.05 56.67 239.67
  Q 49.67 231.84 44.48 223.86
  Q 34.38 208.34 28.08 190.77
  Q 24.34 180.33 23.25 167.50
  Q 22.31 156.41 22.12 152.51
  Q 21.37 136.83 24.50 123.00
  Q 26.91 112.36 27.31 110.06
  Q 27.89 106.77 32.01 98.33
  Q 32.63 97.04 33.12 94.35
  Q 33.56 91.91 35.08 89.83
  Q 43.62 78.12 52.19 66.44
  Q 55.95 61.30 61.38 55.80
  Q 67.33 49.78 71.41 45.98
  Q 81.55 36.54 93.94 30.06
  Q 94.21 29.92 94.34 29.71
  Q 94.83 28.88 93.49 29.48
  Q 68.56 40.65 50.23 60.37
  Q 43.43 67.68 37.85 76.04
  Q 16.15 108.52 15.50 149.25
  Q 15.49 150.07 15.04 149.76
  C 14.86 149.64 14.75 149.39 14.75 149.10
  Q 14.72 121.98 24.93 96.92
  Q 25.00 96.74 25.01 96.56
  Q 25.10 95.18 24.60 96.33
  Q 21.84 102.66 19.83 109.27
  Q 13.51 130.10 12.75 151.89
  Q 12.75 152.01 12.70 152.09
  Q 12.49 152.49 12.44 151.98
  Q 11.69 145.28 12.19 138.62
  Q 12.59 133.40 13.96 125.41
  Q 16.37 111.46 21.76 98.29
  Q 22.14 97.37 21.41 98.20
  Q 21.31 98.31 21.26 98.46
  Q 19.27 103.57 17.06 108.59
  Q 15.14 112.95 14.25 115.93
  Q 13.13 119.71 12.28 123.56
  Q 12.11 124.33 12.01 123.60
  Q 12.00 123.50 12.02 123.40
  Q 20.32 82.98 48.19 53.44
  Q 80.33 19.36 126.48 12.73
  Q 133.04 11.79 143.57 11.58
  Q 149.30 11.47 155.03 11.36
  Q 162.00 11.23 166.46 11.54
  Q 206.83 14.34 239.07 39.16
  Q 250.65 48.08 259.54 59.68
  Q 259.83 60.06 259.47 59.98
  C 259.38 59.96 259.28 59.90 259.20 59.81
  Q 246.74 45.56 231.08 34.92
  Q 218.42 26.32 204.00 21.21
  Z
  M 164.94 14.56
  Q 174.39 15.97 164.55 14.15
  Q 163.20 13.90 164.37 14.42
  Q 164.58 14.51 164.94 14.56
  Z
  M 233.95 241.25
  Q 231.78 242.93 233.68 240.95
  Q 262.88 210.35 269.20 168.33
  Q 274.97 129.98 260.19 96.06
  Q 252.28 77.92 237.74 60.85
  Q 236.76 59.70 234.63 57.81
  Q 233.33 56.66 231.44 54.81
  Q 207.18 31.11 173.44 22.56
  Q 164.28 20.24 155.37 19.54
  Q 146.74 18.86 137.23 20.66
  Q 118.46 24.22 102.75 32.50
  Q 61.47 54.26 41.35 97.76
  Q 29.92 122.47 29.00 148.25
  Q 27.69 184.82 45.58 216.42
  Q 50.55 225.20 56.82 232.92
  Q 80.80 262.46 117.83 273.63
  Q 121.23 274.66 125.78 275.35
  Q 129.80 275.96 133.81 276.63
  Q 136.51 277.08 140.34 276.89
  Q 145.16 276.65 152.25 277.25
  Q 160.89 277.98 177.95 276.24
  C 178.26 276.21 178.56 276.07 178.81 275.84
  Q 181.06 273.74 182.31 273.56
  Q 188.68 272.65 195.19 269.94
  Q 203.68 266.39 211.15 262.67
  Q 217.13 259.70 222.16 255.79
  Q 227.31 251.79 232.14 247.40
  Q 240.03 240.22 245.56 231.39
  Q 247.87 227.70 244.95 230.93
  Q 239.47 236.96 233.95 241.25
  Z
  M 230.17 44.82
  Q 213.30 30.15 192.46 22.00
  Q 192.21 21.90 192.04 21.96
  Q 191.63 22.11 192.12 22.32
  Q 218.04 33.07 237.95 52.82
  Q 238.07 52.95 238.22 53.01
  Q 238.88 53.32 238.06 52.44
  Q 234.31 48.42 230.17 44.82
  Z
  M 97.92 30.01
  Q 105.81 26.05 114.09 22.97
  C 114.17 22.94 114.23 22.89 114.24 22.84
  L 114.25 22.74
  C 114.26 22.64 114.13 22.58 114.00 22.63
  Q 105.58 25.76 97.56 29.81
  Q 95.45 30.88 97.70 30.10
  Q 97.81 30.06 97.92 30.01
  Z
  M 280.50 172.29
  Q 278.73 174.48 279.54 177.25
  L 279.46 177.75
  Q 278.72 179.06 278.07 180.42
  Q 277.50 181.62 278.71 182.00
  Q 278.78 183.01 277.94 186.31
  Q 276.32 192.65 274.57 198.95
  Q 274.44 199.44 274.65 198.98
  Q 290.78 164.75 285.25 127.05
  Q 279.69 89.12 254.56 60.44
  Q 238.00 41.53 214.45 30.46
  Q 214.00 30.25 214.42 30.51
  Q 249.11 51.86 267.81 87.32
  Q 272.48 96.20 275.47 105.76
  Q 284.92 136.12 281.29 168.25
  Q 281.06 170.31 280.50 172.29
  Z
  M 250.00 66.50
  Q 258.15 78.71 263.81 90.69
  Q 272.43 108.90 275.43 129.00
  Q 277.07 139.95 277.16 148.92
  Q 277.27 160.06 275.00 171.75
  Q 271.26 190.99 263.97 207.20
  Q 254.46 228.38 238.05 244.82
  Q 236.64 246.24 238.30 245.13
  Q 244.55 240.97 249.45 235.08
  Q 252.77 231.08 257.93 222.86
  Q 274.86 195.92 278.26 163.81
  Q 279.80 149.17 278.71 134.50
  Q 277.86 126.90 277.25 123.50
  Q 275.76 115.16 276.56 123.44
  Q 276.94 127.39 277.79 131.25
  Q 278.10 133.40 277.00 132.29
  Q 273.89 116.21 272.19 110.31
  Q 265.24 86.28 250.00 66.50
  Q 248.92 64.63 247.70 63.34
  Q 246.64 62.22 247.43 63.54
  Q 248.45 65.27 250.00 66.50
  Z
  M 262.95 67.60
  Q 261.39 65.37 261.37 66.24
  Q 261.35 66.70 261.79 67.26
  Q 266.37 73.06 270.01 79.49
  Q 270.47 80.30 270.62 79.89
  C 270.68 79.72 270.64 79.49 270.51 79.27
  Q 266.94 73.30 262.95 67.60
  Z
  M 277.69 182.94
  Q 276.22 188.63 273.42 196.29
  Q 273.25 196.76 273.48 196.30
  Q 276.75 189.92 278.13 182.87
  Q 278.23 182.36 277.89 182.57
  Q 277.76 182.66 277.69 182.94
  Z
  M 267.00 211.50
  Q 265.88 212.47 265.80 213.82
  Q 265.77 214.52 266.03 213.86
  L 267.00 211.50
  Q 267.92 210.47 268.13 209.18
  Q 268.23 208.58 267.92 209.12
  Q 267.26 210.23 267.00 211.50
  Z
  M 261.00 222.50
  Q 255.94 229.54 250.82 236.53
  Q 250.54 236.90 251.02 236.81
  C 251.16 236.78 251.30 236.70 251.40 236.57
  Q 256.95 230.04 261.00 222.50
  Q 262.32 221.26 262.72 219.56
  Q 262.93 218.65 262.52 219.46
  L 261.00 222.50
  Z"
/>
<path fill="#123f2a" fill-opacity="0.796" d="
  M 164.94 14.56
  Q 164.58 14.51 164.37 14.42
  Q 163.20 13.90 164.55 14.15
  Q 174.39 15.97 164.94 14.56
  Z"
/>
<path fill="#123f2a" fill-opacity="0.796" d="
  M 195.50 18.54
  Q 196.49 18.61 197.25 19.29
  Q 195.33 20.68 195.50 18.54
  Z"
/>
<path fill="#123f2a" fill-opacity="0.796" d="
  M 202.75 20.79
  L 204.00 21.21
  Q 200.40 22.57 202.75 20.79
  Z"
/>
<path fill="#040906" fill-opacity="0.259" d="
  M 230.17 44.82
  Q 234.31 48.42 238.06 52.44
  Q 238.88 53.32 238.22 53.01
  Q 238.07 52.95 237.95 52.82
  Q 218.04 33.07 192.12 22.32
  Q 191.63 22.11 192.04 21.96
  Q 192.21 21.90 192.46 22.00
  Q 213.30 30.15 230.17 44.82
  Z"
/>
<path fill="#123f2a" fill-opacity="0.796" d="
  M 97.70 30.10
  Q 95.45 30.88 97.56 29.81
  Q 105.58 25.76 114.00 22.63
  C 114.13 22.58 114.26 22.64 114.25 22.74
  L 114.24 22.84
  C 114.23 22.89 114.17 22.94 114.09 22.97
  Q 105.81 26.05 97.92 30.01
  Q 97.81 30.06 97.70 30.10
  Z"
/>
<path fill="#123f2a" fill-opacity="0.796" d="
  M 250.00 66.50
  Q 248.45 65.27 247.43 63.54
  Q 246.64 62.22 247.70 63.34
  Q 248.92 64.63 250.00 66.50
  Z"
/>
<path fill="#459072" fill-opacity="0.961" d="
  M 262.95 67.60
  Q 266.94 73.30 270.51 79.27
  C 270.64 79.49 270.68 79.72 270.62 79.89
  Q 270.47 80.30 270.01 79.49
  Q 266.37 73.06 261.79 67.26
  Q 261.35 66.70 261.37 66.24
  Q 261.39 65.37 262.95 67.60
  Z"
/>
<path fill="#65be93" d="
  M 66.31 115.62
  Q 64.60 115.72 65.68 117.31
  Q 73.85 129.35 82.37 140.04
  C 82.54 140.25 82.85 140.26 83.03 140.07
  Q 92.62 129.85 101.51 119.02
  Q 104.16 115.79 100.77 115.51
  Q 98.92 115.36 98.24 115.29
  Q 97.03 115.16 95.66 115.28
  C 95.21 115.32 94.83 114.88 94.86 114.35
  L 95.01 111.88
  C 95.04 111.48 95.32 111.17 95.65 111.18
  Q 105.60 111.29 114.92 111.25
  Q 114.98 111.25 116.07 111.15
  Q 117.49 111.01 117.39 112.45
  Q 117.33 113.23 117.39 114.04
  Q 117.48 115.47 116.05 115.39
  Q 114.51 115.29 114.44 115.30
  Q 110.29 115.70 107.73 118.84
  Q 106.06 120.89 106.01 120.94
  Q 96.13 131.65 85.93 143.00
  C 85.60 143.37 85.58 143.92 85.88 144.31
  Q 96.55 158.50 108.19 172.31
  Q 112.00 176.84 117.01 176.77
  C 117.33 176.76 117.61 176.93 117.73 177.20
  Q 118.38 178.66 117.87 180.22
  C 117.77 180.50 117.50 180.69 117.19 180.69
  L 91.98 180.75
  C 91.64 180.75 91.35 180.51 91.27 180.18
  Q 90.47 176.63 92.55 176.66
  Q 93.81 176.67 93.95 176.66
  Q 95.69 176.45 97.46 176.44
  Q 99.86 176.42 98.42 174.53
  L 80.19 150.74
  C 79.98 150.47 79.58 150.46 79.35 150.72
  Q 69.99 161.37 61.10 171.61
  Q 59.85 173.04 58.78 175.20
  C 58.51 175.74 58.87 176.39 59.46 176.42
  L 65.93 176.81
  C 66.23 176.83 66.47 177.05 66.47 177.31
  L 66.47 180.19
  C 66.47 180.47 66.23 180.69 65.93 180.69
  L 45.26 180.75
  C 44.91 180.75 44.59 180.51 44.50 180.17
  Q 43.47 176.40 46.30 176.66
  Q 50.73 177.06 53.58 173.82
  Q 64.81 161.05 76.61 147.70
  C 77.00 147.25 77.02 146.59 76.65 146.12
  Q 67.49 134.57 58.25 122.93
  Q 53.92 117.49 53.89 117.46
  Q 51.10 114.97 46.82 115.16
  C 46.51 115.17 46.23 114.99 46.15 114.72
  Q 45.70 113.26 46.14 111.79
  C 46.23 111.50 46.50 111.31 46.81 111.31
  L 71.93 111.25
  C 72.24 111.25 72.50 111.51 72.50 111.83
  L 72.50 114.70
  C 72.50 115.01 72.23 115.27 71.88 115.29
  L 66.31 115.62
  Z"
/>
<path fill="#65be93" d="
  M 146.00 115.49
  Q 143.87 116.07 145.16 117.81
  L 161.69 140.11
  C 161.85 140.32 162.16 140.33 162.35 140.13
  Q 172.65 129.24 181.41 118.11
  Q 183.33 115.67 180.27 115.50
  L 174.81 115.20
  C 174.51 115.18 174.27 114.96 174.27 114.69
  L 174.30 112.17
  C 174.31 111.66 174.73 111.25 175.26 111.25
  L 195.94 111.31
  C 196.29 111.31 196.57 111.52 196.58 111.78
  L 196.61 113.02
  Q 196.64 113.92 196.65 113.97
  Q 196.98 115.51 194.75 115.25
  Q 192.70 115.01 190.59 116.01
  Q 189.16 116.68 187.41 118.59
  Q 176.45 130.58 165.24 142.92
  C 164.89 143.31 164.86 143.89 165.17 144.31
  Q 176.37 159.07 187.44 172.31
  Q 191.23 176.85 196.44 176.82
  C 196.75 176.82 197.02 177.01 197.10 177.28
  Q 197.55 178.74 197.11 180.21
  C 197.02 180.50 196.75 180.69 196.44 180.69
  Q 184.97 180.79 173.50 180.75
  Q 171.15 180.75 171.03 180.69
  Q 169.94 180.15 170.54 177.41
  C 170.62 177.07 170.93 176.81 171.30 176.78
  L 176.66 176.34
  Q 178.92 176.15 177.54 174.25
  Q 168.74 162.08 159.32 150.88
  C 159.15 150.67 158.83 150.67 158.66 150.87
  L 138.43 174.35
  Q 136.79 176.26 139.29 176.42
  L 145.19 176.81
  C 145.49 176.83 145.72 177.05 145.72 177.31
  L 145.72 180.19
  C 145.72 180.47 145.48 180.69 145.19 180.69
  L 124.51 180.75
  C 124.18 180.75 123.89 180.58 123.76 180.31
  Q 122.87 178.51 123.95 176.89
  C 124.12 176.66 124.42 176.54 124.74 176.58
  Q 129.83 177.26 133.19 173.44
  Q 144.40 160.65 155.93 147.66
  C 156.28 147.27 156.30 146.68 155.98 146.26
  Q 144.51 131.52 133.30 117.70
  Q 130.86 114.69 127.69 115.31
  Q 124.50 115.93 125.46 111.85
  C 125.55 111.47 125.90 111.20 126.31 111.19
  L 150.94 111.08
  C 151.29 111.07 151.59 111.22 151.73 111.46
  Q 152.06 112.04 151.90 112.77
  Q 151.79 113.29 151.87 113.74
  Q 152.20 115.57 150.23 115.37
  Q 148.85 115.24 148.77 115.24
  Q 146.93 115.23 146.00 115.49
  Z"
/>
<path fill="#65be93" d="
  M 210.22 115.73
  Q 208.06 114.98 203.90 115.32
  C 203.60 115.34 203.33 115.15 203.26 114.86
  Q 202.74 112.65 203.30 111.48
  C 203.42 111.23 203.72 111.07 204.06 111.08
  L 228.61 111.20
  C 229.04 111.21 229.41 111.49 229.50 111.90
  Q 230.41 115.91 227.47 115.43
  Q 224.28 114.91 222.35 115.66
  Q 220.50 116.38 220.50 118.36
  Q 220.50 146.25 220.50 172.75
  Q 220.50 175.91 223.75 175.92
  Q 237.41 175.97 250.71 174.78
  C 251.47 174.71 252.09 174.22 252.23 173.57
  L 254.27 164.33
  C 254.36 163.95 254.61 163.66 254.93 163.58
  Q 258.63 162.65 258.09 164.97
  Q 256.44 172.09 254.89 179.80
  C 254.78 180.35 254.30 180.75 253.74 180.75
  L 205.06 180.69
  C 204.76 180.69 204.49 180.50 204.39 180.22
  Q 202.83 175.84 207.75 176.75
  Q 211.94 177.52 211.94 175.19
  L 212.00 118.21
  Q 212.00 116.34 210.22 115.73
  Z"
/>
<path fill="#040906" fill-opacity="0.259" d="
  M 278.71 134.50
  L 277.79 135.50
  L 277.79 131.25
  Q 276.94 127.39 276.56 123.44
  Q 275.76 115.16 277.25 123.50
  Q 277.86 126.90 278.71 134.50
  Z"
/>
<path fill="#3e634c" fill-opacity="0.910" d="
  M 277.79 131.25
  L 277.79 135.50
  L 277.71 138.44
  C 277.70 138.82 277.47 139.13 277.22 139.10
  Q 276.79 139.05 276.79 138.00
  Q 276.79 136.11 277.38 134.34
  Q 277.74 133.27 277.00 132.29
  Q 278.10 133.40 277.79 131.25
  Z"
/>
<path fill="#3e634c" fill-opacity="0.910" d="
  M 280.50 172.29
  Q 280.63 174.89 279.54 177.25
  Q 278.73 174.48 280.50 172.29
  Z"
/>
<path fill="#3e634c" fill-opacity="0.910" d="
  M 279.46 177.75
  Q 280.10 180.08 278.71 182.00
  Q 277.50 181.62 278.07 180.42
  Q 278.72 179.06 279.46 177.75
  Z"
/>
<path fill="#123f2a" fill-opacity="0.796" d="
  M 277.69 182.94
  Q 277.76 182.66 277.89 182.57
  Q 278.23 182.36 278.13 182.87
  Q 276.75 189.92 273.48 196.30
  Q 273.25 196.76 273.42 196.29
  Q 276.22 188.63 277.69 182.94
  Z"
/>
<path fill="#3e634c" fill-opacity="0.910" d="
  M 267.00 211.50
  Q 267.26 210.23 267.92 209.12
  Q 268.23 208.58 268.13 209.18
  Q 267.92 210.47 267.00 211.50
  Z"
/>
<path fill="#3e634c" fill-opacity="0.910" d="
  M 26.50 215.21
  L 26.25 215.29
  Q 24.50 212.79 23.33 209.96
  Q 23.24 209.73 23.29 209.53
  Q 23.45 208.89 23.90 209.90
  Q 25.12 212.59 26.50 215.21
  Z"
/>
<path fill="#3e634c" fill-opacity="0.910" d="
  M 267.00 211.50
  L 266.03 213.86
  Q 265.77 214.52 265.80 213.82
  Q 265.88 212.47 267.00 211.50
  Z"
/>
<path fill="#6fb185" fill-opacity="0.992" d="
  M 26.25 215.29
  L 26.50 215.21
  Q 45.15 247.95 77.03 267.99
  Q 78.51 268.92 76.78 267.90
  Q 44.15 248.67 26.25 215.29
  Z"
/>
<path fill="#123f2a" fill-opacity="0.796" d="
  M 261.00 222.50
  L 262.52 219.46
  Q 262.93 218.65 262.72 219.56
  Q 262.32 221.26 261.00 222.50
  Z"
/>
<path fill="#040906" fill-opacity="0.259" d="
  M 261.00 222.50
  Q 256.95 230.04 251.40 236.57
  C 251.30 236.70 251.16 236.78 251.02 236.81
  Q 250.54 236.90 250.82 236.53
  Q 255.94 229.54 261.00 222.50
  Z"
/>
<path fill="#3e634c" fill-opacity="0.910" d="
  M 228.84 243.91
  Q 229.46 243.27 230.24 242.81
  Q 230.74 242.51 230.37 242.95
  Q 228.62 245.03 226.42 246.66
  Q 224.21 248.30 225.81 246.56
  Q 226.27 246.06 227.36 245.27
  Q 227.90 244.88 228.84 243.91
  Z"
/>
<path fill="#123f2a" fill-opacity="0.796" d="
  M 78.46 263.07
  Q 77.64 262.84 77.86 262.55
  C 77.99 262.38 78.27 262.38 78.50 262.55
  Q 80.09 263.77 81.94 264.56
  Q 82.12 265.28 79.83 263.71
  Q 79.20 263.27 78.46 263.07
  Z"
/>
<path fill="#3e634c" fill-opacity="0.910" d="
  M 89.50 269.00
  Q 87.06 268.50 85.18 266.89
  Q 84.44 266.26 85.29 266.72
  L 89.50 269.00
  Z"
/>
<path fill="#3e634c" fill-opacity="0.910" d="
  M 89.50 269.00
  Q 90.94 269.23 92.21 270.02
  Q 94.98 271.73 91.58 270.39
  Q 90.36 269.92 89.50 269.00
  Z"
/>
<path fill="#3e634c" fill-opacity="0.910" d="
  M 94.67 271.88
  Q 93.25 271.45 94.02 271.17
  C 94.25 271.09 94.54 271.12 94.82 271.25
  Q 95.74 271.69 96.69 272.05
  Q 98.71 272.83 96.69 272.71
  Q 96.35 272.70 96.00 272.48
  Q 95.38 272.09 94.67 271.88
  Z"
/>
<path fill="#123f2a" fill-opacity="0.796" d="
  M 99.54 272.75
  Q 101.02 272.73 101.50 273.96
  Q 100.87 273.15 100.16 273.48
  Q 99.56 273.75 99.25 273.73
  Q 97.52 273.61 99.54 272.75
  Z"
/>
<path fill="#3e634c" fill-opacity="0.910" d="
  M 99.92 279.61
  Q 99.08 279.24 100.09 279.25
  Q 100.24 279.25 100.40 279.31
  Q 107.97 282.34 115.97 283.97
  Q 116.80 284.14 116.28 284.50
  Q 116.11 284.62 115.73 284.40
  Q 115.46 284.24 115.23 284.21
  Q 107.29 282.86 99.92 279.61
  Z"
/>
<path fill="#123f2a" fill-opacity="0.796" d="
  M 132.21 285.09
  Q 131.77 284.79 134.27 285.12
  Q 137.75 285.59 133.22 285.34
  Q 132.52 285.30 132.21 285.09
  Z"
/>
</svg>
