<?xml version="1.0" standalone="no"?><!DOCTYPE svg PUBLIC "-//W3C//DTD SVG 1.1//EN" "http://www.w3.org/Graphics/SVG/1.1/DTD/svg11.dtd"><svg t="1611465413165" class="icon" viewBox="0 0 1024 1024" version="1.1" xmlns="http://www.w3.org/2000/svg" p-id="2026" xmlns:xlink="http://www.w3.org/1999/xlink" width="512" height="512"><defs><style type="text/css"></style></defs><path d="M314.43 599m-29.58 0a29.58 29.58 0 1 0 59.16 0 29.58 29.58 0 1 0-59.16 0Z" fill="#1296db" p-id="2027"></path><path d="M380.5 816.46h-0.02c-91.42-0.01-162.67-28.59-211.77-84.96-89.41-102.65-68.98-258.86-68.07-265.46l4.1-29.62h521.93c-11.3-60-17.67-159.9 57.78-183.47 13.35-4.17 31.66-6.66 48.98-6.66 41.07 0 73.01 12.79 92.36 36.99 6.93 8.67 13.94 21.15 17.11 38.19 28.21 0.52 52.31 15.8 68.01 43.16 18.19 31.71 22.06 66.86 10.6 96.44-7.76 20.04-26.15 46.87-69.61 60.83-26.08 8.37-36.88 15.01-40.67 17.82l-0.32 0.68c-37.37 78.45-151.82 262.33-406.74 275.44-8 0.41-15.97 0.62-23.67 0.62zM166.81 505.07c-0.81 43.55 5.02 125.72 53.87 181.58 35.48 40.58 89.25 61.16 159.79 61.17h0.03a387 387 0 0 0 20.15-0.54C614.57 736.29 713.1 584.15 747.04 514.8c9.62-34.42 64.52-52.05 83.87-58.26 14.2-4.56 23.15-11.38 26.59-20.26 3.88-10.01 1.58-24.02-6.13-37.48-4.99-8.69-8.1-8.69-9.96-8.69-4.91 0-11.27 2.54-15.92 4.39-3.1 1.24-6.04 2.41-9.39 3.28l-54.47 14.11L774.01 357c1.88-8.32 4.13-23.38-1.83-30.84-5.53-6.92-20.38-11.22-38.74-11.22-13.57 0-24.31 2.22-28.52 3.54-25.21 7.88-17.95 89.52-1.89 142.27l13.5 44.33H166.81z" fill="#1296db" p-id="2028"></path><path d="M305.62 383.13c0 16.4-13.29 29.69-29.69 29.69h-28.34c-16.4 0-29.69-13.29-29.69-29.69v-29.65c0-16.4 13.29-29.69 29.69-29.69h28.34c16.4 0 29.69 13.29 29.69 29.69v29.65zM419.31 383.13c0 16.4-13.29 29.69-29.69 29.69h-28.34c-16.4 0-29.69-13.29-29.69-29.69v-29.65c0-16.4 13.29-29.69 29.69-29.69h28.34c16.4 0 29.69 13.29 29.69 29.69v29.65zM531.82 383.13c0 16.4-13.29 29.69-29.69 29.69h-28.34c-16.4 0-29.69-13.29-29.69-29.69v-29.65c0-16.4 13.29-29.69 29.69-29.69h28.34c16.4 0 29.69 13.29 29.69 29.69v29.65zM417.17 271.58c0 16.4-13.29 29.69-29.69 29.69h-28.34c-16.4 0-29.69-13.29-29.69-29.69v-29.65c0-16.4 13.29-29.69 29.69-29.69h28.34c16.4 0 29.69 13.29 29.69 29.69v29.65zM530.87 271.58c0 16.4-13.29 29.69-29.69 29.69h-28.34c-16.4 0-29.69-13.29-29.69-29.69v-29.65c0-16.4 13.29-29.69 29.69-29.69h28.34c16.4 0 29.69 13.29 29.69 29.69v29.65z" fill="#1296db" p-id="2029"></path></svg>