<?xml version="1.0" encoding="UTF-8" standalone="no"?>
<!DOCTYPE svg PUBLIC "-//W3C//DTD SVG 1.1//EN" "http://www.w3.org/Graphics/SVG/1.1/DTD/svg11.dtd">
<svg xmlns="http://www.w3.org/2000/svg" version="1.1" viewBox="0 0 152 152">
<g stroke-width="2.0" fill="none" stroke-linecap="butt">
<path stroke="#a4a8ab" vector-effect="non-scaling-stroke" d="
  M 40.22 92.51
  Q 44.18 95.35 48.70 95.32
  Q 53.02 95.28 56.73 92.67
  Q 62.42 88.66 62.80 80.74
  Q 63.00 76.75 63.08 72.75
  Q 63.23 65.98 58.75 61.00
  Q 55.61 57.51 50.97 56.82
  Q 46.70 56.19 42.68 57.94
  Q 38.37 59.82 36.18 63.96
  Q 34.65 66.84 34.06 72.15
  Q 33.23 79.51 34.75 84.75
  Q 36.16 89.60 40.22 92.51"
/>
<path stroke="#a4a8ab" vector-effect="non-scaling-stroke" d="
  M 92.06 82.19
  Q 88.50 80.46 86.16 83.94
  Q 84.13 86.93 81.01 86.56
  Q 78.61 86.27 77.14 84.38
  Q 75.67 82.48 75.81 79.74
  Q 76.00 76.13 75.80 72.51
  Q 75.64 69.61 77.18 67.59
  Q 78.74 65.56 81.30 65.39
  Q 84.41 65.18 86.43 68.11
  Q 88.91 71.70 92.44 69.69
  Q 94.16 68.71 94.44 66.75
  Q 94.65 65.27 93.64 63.59
  Q 90.34 58.09 84.37 56.99
  Q 79.92 56.17 75.77 57.84
  Q 71.21 59.68 69.06 64.06
  Q 66.71 68.87 66.78 74.97
  Q 66.85 81.79 68.02 85.46
  Q 69.21 89.22 72.24 91.83
  Q 74.99 94.20 78.90 94.95
  Q 87.67 96.64 93.09 89.32
  Q 94.50 87.42 94.47 85.75
  Q 94.43 83.33 92.06 82.19"
/>
<path stroke="#a4a8ab" vector-effect="non-scaling-stroke" d="
  M 118.5306 75.7766
  C 118.53 73.57 116.75 71.78 114.5476 71.7796
  L 103.5276 71.7604
  C 101.32 71.76 99.53 73.54 99.5306 75.7434
  L 99.5294 76.4634
  C 99.53 78.67 101.31 80.46 103.5124 80.4604
  L 114.5324 80.4796
  C 116.74 80.48 118.53 78.70 118.5294 76.4966
  L 118.5306 75.7766"
/>
<path stroke="#a4a8ab" vector-effect="non-scaling-stroke" d="
  M 53.9430 70.6820
  C 53.92 67.83 51.59 65.53 48.7370 65.5482
  L 48.1571 65.5523
  C 45.30 65.57 43.00 67.90 43.0233 70.7582
  L 43.0970 81.3180
  C 43.12 84.17 45.45 86.47 48.3030 86.4518
  L 48.8829 86.4477
  C 51.74 86.43 54.04 84.10 54.0167 81.2418
  L 53.9430 70.6820"
/>
</g>
<path fill="#ffffff" d="
  M 0.00 0.00
  Q 76.00 0.00 152.00 0.00
  Q 152.00 76.00 152.00 152.00
  Q 76.00 152.00 0.00 152.00
  Q 0.00 76.00 0.00 0.00
  Z
  M 40.22 92.51
  Q 44.18 95.35 48.70 95.32
  Q 53.02 95.28 56.73 92.67
  Q 62.42 88.66 62.80 80.74
  Q 63.00 76.75 63.08 72.75
  Q 63.23 65.98 58.75 61.00
  Q 55.61 57.51 50.97 56.82
  Q 46.70 56.19 42.68 57.94
  Q 38.37 59.82 36.18 63.96
  Q 34.65 66.84 34.06 72.15
  Q 33.23 79.51 34.75 84.75
  Q 36.16 89.60 40.22 92.51
  Z
  M 92.06 82.19
  Q 88.50 80.46 86.16 83.94
  Q 84.13 86.93 81.01 86.56
  Q 78.61 86.27 77.14 84.38
  Q 75.67 82.48 75.81 79.74
  Q 76.00 76.13 75.80 72.51
  Q 75.64 69.61 77.18 67.59
  Q 78.74 65.56 81.30 65.39
  Q 84.41 65.18 86.43 68.11
  Q 88.91 71.70 92.44 69.69
  Q 94.16 68.71 94.44 66.75
  Q 94.65 65.27 93.64 63.59
  Q 90.34 58.09 84.37 56.99
  Q 79.92 56.17 75.77 57.84
  Q 71.21 59.68 69.06 64.06
  Q 66.71 68.87 66.78 74.97
  Q 66.85 81.79 68.02 85.46
  Q 69.21 89.22 72.24 91.83
  Q 74.99 94.20 78.90 94.95
  Q 87.67 96.64 93.09 89.32
  Q 94.50 87.42 94.47 85.75
  Q 94.43 83.33 92.06 82.19
  Z
  M 118.5306 75.7766
  C 118.53 73.57 116.75 71.78 114.5476 71.7796
  L 103.5276 71.7604
  C 101.32 71.76 99.53 73.54 99.5306 75.7434
  L 99.5294 76.4634
  C 99.53 78.67 101.31 80.46 103.5124 80.4604
  L 114.5324 80.4796
  C 116.74 80.48 118.53 78.70 118.5294 76.4966
  L 118.5306 75.7766
  Z"
/>
<path fill="#495057" d="
  M 40.22 92.51
  Q 36.16 89.60 34.75 84.75
  Q 33.23 79.51 34.06 72.15
  Q 34.65 66.84 36.18 63.96
  Q 38.37 59.82 42.68 57.94
  Q 46.70 56.19 50.97 56.82
  Q 55.61 57.51 58.75 61.00
  Q 63.23 65.98 63.08 72.75
  Q 63.00 76.75 62.80 80.74
  Q 62.42 88.66 56.73 92.67
  Q 53.02 95.28 48.70 95.32
  Q 44.18 95.35 40.22 92.51
  Z
  M 53.9430 70.6820
  C 53.92 67.83 51.59 65.53 48.7370 65.5482
  L 48.1571 65.5523
  C 45.30 65.57 43.00 67.90 43.0233 70.7582
  L 43.0970 81.3180
  C 43.12 84.17 45.45 86.47 48.3030 86.4518
  L 48.8829 86.4477
  C 51.74 86.43 54.04 84.10 54.0167 81.2418
  L 53.9430 70.6820
  Z"
/>
<path fill="#495057" d="
  M 92.06 82.19
  Q 94.43 83.33 94.47 85.75
  Q 94.50 87.42 93.09 89.32
  Q 87.67 96.64 78.90 94.95
  Q 74.99 94.20 72.24 91.83
  Q 69.21 89.22 68.02 85.46
  Q 66.85 81.79 66.78 74.97
  Q 66.71 68.87 69.06 64.06
  Q 71.21 59.68 75.77 57.84
  Q 79.92 56.17 84.37 56.99
  Q 90.34 58.09 93.64 63.59
  Q 94.65 65.27 94.44 66.75
  Q 94.16 68.71 92.44 69.69
  Q 88.91 71.70 86.43 68.11
  Q 84.41 65.18 81.30 65.39
  Q 78.74 65.56 77.18 67.59
  Q 75.64 69.61 75.80 72.51
  Q 76.00 76.13 75.81 79.74
  Q 75.67 82.48 77.14 84.38
  Q 78.61 86.27 81.01 86.56
  Q 84.13 86.93 86.16 83.94
  Q 88.50 80.46 92.06 82.19
  Z"
/>
<rect fill="#ffffff" x="-5.46" y="-10.45" transform="translate(48.52,76.00) rotate(-0.4)" width="10.92" height="20.90" rx="5.17"/>
<rect fill="#495057" x="-9.50" y="-4.35" transform="translate(109.03,76.12) rotate(0.1)" width="19.00" height="8.70" rx="3.99"/>
</svg>
