<?xml version="1.0" encoding="UTF-8" standalone="no"?>
<!DOCTYPE svg PUBLIC "-//W3C//DTD SVG 1.1//EN" "http://www.w3.org/Graphics/SVG/1.1/DTD/svg11.dtd">
<svg xmlns="http://www.w3.org/2000/svg" version="1.1" viewBox="0.00 0.00 32.00 32.00">
<g stroke-width="2.00" fill="none" stroke-linecap="butt">
<path stroke="#92dfa4" vector-effect="non-scaling-stroke" d="
  M 12.96 10.11
  L 7.53 10.05
  Q 6.54 10.04 7.10 10.86
  L 11.54 17.45
  A 0.32 0.31 -45.6 0 0 12.06 17.44
  C 13.06 15.92 15.51 13.03 14.61 11.16
  A 1.85 1.85 0.0 0 0 12.96 10.11"
/>
<path stroke="#92dfa4" vector-effect="non-scaling-stroke" d="
  M 10.14 23.69
  A 0.36 0.36 0.0 0 0 10.47 24.24
  L 16.19 23.89
  A 0.36 0.36 0.0 0 0 16.48 23.72
  L 24.64 10.61
  A 0.36 0.36 0.0 0 0 24.31 10.06
  L 18.57 10.46
  A 0.36 0.36 0.0 0 0 18.29 10.63
  L 10.14 23.69"
/>
</g>
<path fill="#24be48" d="
  M 13.87 0.00
  L 18.23 0.00
  Q 29.58 2.56 32.00 13.86
  L 32.00 18.23
  Q 29.45 29.58 18.13 32.00
  L 13.76 32.00
  Q 2.44 29.49 0.00 18.12
  L 0.00 13.77
  Q 2.55 2.42 13.87 0.00
  Z
  M 12.96 10.11
  L 7.53 10.05
  Q 6.54 10.04 7.10 10.86
  L 11.54 17.45
  A 0.32 0.31 -45.6 0 0 12.06 17.44
  C 13.06 15.92 15.51 13.03 14.61 11.16
  A 1.85 1.85 0.0 0 0 12.96 10.11
  Z
  M 10.14 23.69
  A 0.36 0.36 0.0 0 0 10.47 24.24
  L 16.19 23.89
  A 0.36 0.36 0.0 0 0 16.48 23.72
  L 24.64 10.61
  A 0.36 0.36 0.0 0 0 24.31 10.06
  L 18.57 10.46
  A 0.36 0.36 0.0 0 0 18.29 10.63
  L 10.14 23.69
  Z"
/>
<path fill="#ffffff" d="
  M 12.96 10.11
  A 1.85 1.85 0.0 0 1 14.61 11.16
  C 15.51 13.03 13.06 15.92 12.06 17.44
  A 0.32 0.31 -45.6 0 1 11.54 17.45
  L 7.10 10.86
  Q 6.54 10.04 7.53 10.05
  L 12.96 10.11
  Z"
/>
<path fill="#ffffff" d="
  M 10.14 23.69
  L 18.29 10.63
  A 0.36 0.36 0.0 0 1 18.57 10.46
  L 24.31 10.06
  A 0.36 0.36 0.0 0 1 24.64 10.61
  L 16.48 23.72
  A 0.36 0.36 0.0 0 1 16.19 23.89
  L 10.47 24.24
  A 0.36 0.36 0.0 0 1 10.14 23.69
  Z"
/>
</svg>
