<?xml version="1.0" encoding="UTF-8" standalone="no"?>
<!DOCTYPE svg PUBLIC "-//W3C//DTD SVG 1.1//EN" "http://www.w3.org/Graphics/SVG/1.1/DTD/svg11.dtd">
<svg xmlns="http://www.w3.org/2000/svg" version="1.1" viewBox="0 0 256 256">
<path stroke="#808080" stroke-width="2.0" fill="none" stroke-linecap="butt" vector-effect="non-scaling-stroke" d="
  M 185.00 84.06
  L 172.53 60.09
  C 172.39 59.82 172.04 59.76 171.81 59.95
  L 148.75 79.00
  C 148.54 79.17 148.22 79.12 148.08 78.88
  Q 145.57 74.74 142.97 71.29
  Q 135.62 61.54 123.70 58.72
  Q 114.36 56.51 104.00 57.25
  Q 65.71 59.98 42.74 88.02
  Q 36.38 95.78 32.07 104.87
  Q 23.95 121.98 23.17 141.01
  Q 22.74 151.35 23.93 160.97
  Q 25.42 172.91 30.08 184.18
  Q 39.07 205.89 59.16 218.03
  Q 90.05 236.68 126.25 232.74
  Q 144.30 230.78 161.56 225.19
  Q 170.79 222.20 179.15 216.80
  C 179.69 216.45 180.01 215.85 180.01 215.21
  Q 179.83 186.37 180.23 158.75
  Q 180.29 154.41 182.22 150.83
  Q 183.83 147.83 187.27 146.26
  Q 191.49 144.33 196.26 144.03
  C 196.60 144.01 196.86 143.78 196.87 143.51
  L 196.92 140.07
  C 196.93 139.76 196.64 139.50 196.29 139.50
  L 132.56 139.56
  C 132.25 139.56 131.99 139.79 132.01 140.06
  L 132.15 143.50
  C 132.16 143.78 132.43 144.00 132.76 144.02
  Q 138.57 144.31 144.08 145.97
  Q 148.82 147.39 150.85 150.16
  Q 153.23 153.41 153.50 158.25
  Q 154.09 169.06 154.08 172.25
  Q 154.01 186.54 154.00 200.83
  Q 154.00 208.89 153.95 209.15
  Q 153.18 213.78 148.94 216.44
  Q 138.59 222.91 125.26 223.65
  Q 119.12 223.99 111.50 223.25
  Q 85.56 220.73 69.93 202.26
  Q 63.71 194.90 59.54 185.29
  Q 55.20 175.27 53.66 164.26
  Q 51.56 149.22 53.25 133.00
  Q 55.64 110.04 67.61 91.09
  Q 73.86 81.21 83.56 75.31
  Q 96.30 67.57 111.19 66.86
  Q 116.78 66.59 120.51 68.08
  Q 124.85 69.81 128.56 73.44
  Q 141.77 86.34 148.21 104.33
  C 148.31 104.61 148.68 104.69 148.90 104.48
  L 174.66 79.71
  C 174.86 79.52 175.20 79.58 175.33 79.83
  L 187.70 104.25
  C 187.81 104.47 188.12 104.51 188.30 104.33
  L 212.64 79.98
  C 213.01 79.61 213.63 79.71 213.87 80.18
  L 220.09 92.61
  C 220.22 92.88 220.54 92.98 220.78 92.83
  L 225.59 89.80
  C 225.83 89.65 225.91 89.32 225.77 89.04
  L 211.11 60.04
  C 210.98 59.79 210.64 59.73 210.44 59.93
  L 185.48 84.14
  C 185.34 84.28 185.09 84.24 185.00 84.06"
/>
<path fill="#ffffff" d="
  M 0.00 0.00
  Q 128.00 0.00 256.00 0.00
  Q 256.00 128.00 256.00 256.00
  Q 128.00 256.00 0.00 256.00
  Q 0.00 128.00 0.00 0.00
  Z
  M 185.00 84.06
  L 172.53 60.09
  C 172.39 59.82 172.04 59.76 171.81 59.95
  L 148.75 79.00
  C 148.54 79.17 148.22 79.12 148.08 78.88
  Q 145.57 74.74 142.97 71.29
  Q 135.62 61.54 123.70 58.72
  Q 114.36 56.51 104.00 57.25
  Q 65.71 59.98 42.74 88.02
  Q 36.38 95.78 32.07 104.87
  Q 23.95 121.98 23.17 141.01
  Q 22.74 151.35 23.93 160.97
  Q 25.42 172.91 30.08 184.18
  Q 39.07 205.89 59.16 218.03
  Q 90.05 236.68 126.25 232.74
  Q 144.30 230.78 161.56 225.19
  Q 170.79 222.20 179.15 216.80
  C 179.69 216.45 180.01 215.85 180.01 215.21
  Q 179.83 186.37 180.23 158.75
  Q 180.29 154.41 182.22 150.83
  Q 183.83 147.83 187.27 146.26
  Q 191.49 144.33 196.26 144.03
  C 196.60 144.01 196.86 143.78 196.87 143.51
  L 196.92 140.07
  C 196.93 139.76 196.64 139.50 196.29 139.50
  L 132.56 139.56
  C 132.25 139.56 131.99 139.79 132.01 140.06
  L 132.15 143.50
  C 132.16 143.78 132.43 144.00 132.76 144.02
  Q 138.57 144.31 144.08 145.97
  Q 148.82 147.39 150.85 150.16
  Q 153.23 153.41 153.50 158.25
  Q 154.09 169.06 154.08 172.25
  Q 154.01 186.54 154.00 200.83
  Q 154.00 208.89 153.95 209.15
  Q 153.18 213.78 148.94 216.44
  Q 138.59 222.91 125.26 223.65
  Q 119.12 223.99 111.50 223.25
  Q 85.56 220.73 69.93 202.26
  Q 63.71 194.90 59.54 185.29
  Q 55.20 175.27 53.66 164.26
  Q 51.56 149.22 53.25 133.00
  Q 55.64 110.04 67.61 91.09
  Q 73.86 81.21 83.56 75.31
  Q 96.30 67.57 111.19 66.86
  Q 116.78 66.59 120.51 68.08
  Q 124.85 69.81 128.56 73.44
  Q 141.77 86.34 148.21 104.33
  C 148.31 104.61 148.68 104.69 148.90 104.48
  L 174.66 79.71
  C 174.86 79.52 175.20 79.58 175.33 79.83
  L 187.70 104.25
  C 187.81 104.47 188.12 104.51 188.30 104.33
  L 212.64 79.98
  C 213.01 79.61 213.63 79.71 213.87 80.18
  L 220.09 92.61
  C 220.22 92.88 220.54 92.98 220.78 92.83
  L 225.59 89.80
  C 225.83 89.65 225.91 89.32 225.77 89.04
  L 211.11 60.04
  C 210.98 59.79 210.64 59.73 210.44 59.93
  L 185.48 84.14
  C 185.34 84.28 185.09 84.24 185.00 84.06
  Z"
/>
<path fill="#000000" d="
  M 185.00 84.06
  C 185.09 84.24 185.34 84.28 185.48 84.14
  L 210.44 59.93
  C 210.64 59.73 210.98 59.79 211.11 60.04
  L 225.77 89.04
  C 225.91 89.32 225.83 89.65 225.59 89.80
  L 220.78 92.83
  C 220.54 92.98 220.22 92.88 220.09 92.61
  L 213.87 80.18
  C 213.63 79.71 213.01 79.61 212.64 79.98
  L 188.30 104.33
  C 188.12 104.51 187.81 104.47 187.70 104.25
  L 175.33 79.83
  C 175.20 79.58 174.86 79.52 174.66 79.71
  L 148.90 104.48
  C 148.68 104.69 148.31 104.61 148.21 104.33
  Q 141.77 86.34 128.56 73.44
  Q 124.85 69.81 120.51 68.08
  Q 116.78 66.59 111.19 66.86
  Q 96.30 67.57 83.56 75.31
  Q 73.86 81.21 67.61 91.09
  Q 55.64 110.04 53.25 133.00
  Q 51.56 149.22 53.66 164.26
  Q 55.20 175.27 59.54 185.29
  Q 63.71 194.90 69.93 202.26
  Q 85.56 220.73 111.50 223.25
  Q 119.12 223.99 125.26 223.65
  Q 138.59 222.91 148.94 216.44
  Q 153.18 213.78 153.95 209.15
  Q 154.00 208.89 154.00 200.83
  Q 154.01 186.54 154.08 172.25
  Q 154.09 169.06 153.50 158.25
  Q 153.23 153.41 150.85 150.16
  Q 148.82 147.39 144.08 145.97
  Q 138.57 144.31 132.76 144.02
  C 132.43 144.00 132.16 143.78 132.15 143.50
  L 132.01 140.06
  C 131.99 139.79 132.25 139.56 132.56 139.56
  L 196.29 139.50
  C 196.64 139.50 196.93 139.76 196.92 140.07
  L 196.87 143.51
  C 196.86 143.78 196.60 144.01 196.26 144.03
  Q 191.49 144.33 187.27 146.26
  Q 183.83 147.83 182.22 150.83
  Q 180.29 154.41 180.23 158.75
  Q 179.83 186.37 180.01 215.21
  C 180.01 215.85 179.69 216.45 179.15 216.80
  Q 170.79 222.20 161.56 225.19
  Q 144.30 230.78 126.25 232.74
  Q 90.05 236.68 59.16 218.03
  Q 39.07 205.89 30.08 184.18
  Q 25.42 172.91 23.93 160.97
  Q 22.74 151.35 23.17 141.01
  Q 23.95 121.98 32.07 104.87
  Q 36.38 95.78 42.74 88.02
  Q 65.71 59.98 104.00 57.25
  Q 114.36 56.51 123.70 58.72
  Q 135.62 61.54 142.97 71.29
  Q 145.57 74.74 148.08 78.88
  C 148.22 79.12 148.54 79.17 148.75 79.00
  L 171.81 59.95
  C 172.04 59.76 172.39 59.82 172.53 60.09
  L 185.00 84.06
  Z"
/>
</svg>
