<?xml version="1.0" encoding="UTF-8" standalone="no"?>
<!DOCTYPE svg PUBLIC "-//W3C//DTD SVG 1.1//EN" "http://www.w3.org/Graphics/SVG/1.1/DTD/svg11.dtd">
<svg xmlns="http://www.w3.org/2000/svg" version="1.1" viewBox="0 0 96 96">
<g stroke-width="2.0" fill="none" stroke-linecap="butt">
<path stroke="#44d065" vector-effect="non-scaling-stroke" d="
  M 60.00 76.71
  Q 60.27 75.75 61.69 74.44
  Q 65.17 71.21 68.68 65.46
  Q 71.70 60.52 72.50 54.98
  Q 73.38 48.82 71.18 44.26
  Q 68.60 38.90 62.37 36.48
  Q 55.44 33.79 48.24 35.73
  Q 47.37 35.96 46.71 35.25"
/>
<path stroke="#79e05a" vector-effect="non-scaling-stroke" d="
  M 57.29 77.75
  Q 57.27 76.99 56.75 77.00
  Q 32.75 77.52 8.75 77.46"
/>
</g>
<path fill="#28c772" d="
  M 60.00 76.71
  Q 60.27 75.75 61.69 74.44
  Q 65.17 71.21 68.68 65.46
  Q 71.70 60.52 72.50 54.98
  Q 73.38 48.82 71.18 44.26
  Q 68.60 38.90 62.37 36.48
  Q 55.44 33.79 48.24 35.73
  Q 47.37 35.96 46.71 35.25
  Q 51.78 29.52 53.69 25.94
  Q 59.57 14.89 50.06 7.05
  Q 48.83 6.04 50.42 6.01
  Q 59.36 5.83 68.08 6.37
  Q 75.99 6.86 79.50 8.58
  Q 84.97 11.27 88.06 17.31
  C 88.20 17.58 88.49 17.75 88.81 17.75
  L 93.96 17.78
  Q 95.68 17.78 94.21 18.71
  Q 84.18 25.04 88.73 35.33
  Q 89.58 37.27 89.60 37.32
  Q 97.77 57.87 80.81 71.06
  Q 72.09 77.85 60.00 76.71
  Z"
/>
<path fill="#5fd957" d="
  M 60.00 76.71
  Q 58.52 76.96 57.29 77.75
  Q 57.27 76.99 56.75 77.00
  Q 32.75 77.52 8.75 77.46
  L 46.71 35.25
  Q 47.37 35.96 48.24 35.73
  Q 55.44 33.79 62.37 36.48
  Q 68.60 38.90 71.18 44.26
  Q 73.38 48.82 72.50 54.98
  Q 71.70 60.52 68.68 65.46
  Q 65.17 71.21 61.69 74.44
  Q 60.27 75.75 60.00 76.71
  Z"
/>
<path fill="#93e65c" d="
  M 57.29 77.75
  Q 41.19 90.35 20.50 89.99
  Q 11.10 89.82 0.82 87.20
  C 0.54 87.13 0.43 86.78 0.62 86.56
  L 8.75 77.46
  Q 32.75 77.52 56.75 77.00
  Q 57.27 76.99 57.29 77.75
  Z"
/>
</svg>
