<?xml version="1.0" encoding="UTF-8" standalone="no"?>
<!DOCTYPE svg PUBLIC "-//W3C//DTD SVG 1.1//EN" "http://www.w3.org/Graphics/SVG/1.1/DTD/svg11.dtd">
<svg xmlns="http://www.w3.org/2000/svg" version="1.1" viewBox="0 0 384 384">
<g stroke-width="2.0" fill="none" stroke-linecap="butt">
<path stroke="#ff94a8" vector-effect="non-scaling-stroke" d="
  M 128.71 52.00
  Q 128.00 51.99 128.00 53.25
  Q 128.00 171.25 128.00 289.25
  Q 128.00 290.41 128.25 290.79"
/>
<path stroke="#e62549" vector-effect="non-scaling-stroke" d="
  M 128.25 290.79
  Q 128.73 292.36 129.25 292.75
  Q 131.21 294.21 131.75 296.54"
/>
<path stroke="#ff94a8" vector-effect="non-scaling-stroke" d="
  M 131.75 296.54
  Q 130.82 298.05 129.44 299.19
  Q 127.04 301.16 129.75 301.25
  Q 130.71 301.28 131.54 301.75"
/>
<path stroke="#ef264b" vector-effect="non-scaling-stroke" d="
  M 131.54 301.75
  Q 131.07 302.53 131.23 303.30
  Q 131.35 303.90 132.09 304.47
  Q 135.15 306.83 138.87 307.74
  Q 141.90 308.49 141.97 308.51
  Q 149.12 310.60 156.32 312.49
  Q 156.34 312.49 162.23 313.79
  Q 164.98 314.39 168.06 315.44
  Q 170.66 316.32 173.69 316.70
  Q 177.27 317.14 179.32 317.72
  Q 188.11 320.20 196.95 322.46
  Q 200.59 323.39 215.25 327.00
  Q 228.79 330.33 242.38 333.47
  Q 242.46 333.49 247.41 334.94
  Q 250.36 335.81 253.46 335.84
  Q 256.23 335.87 257.87 334.89
  Q 260.17 333.52 260.50 330.75
  Q 261.18 325.07 261.20 295.25
  Q 261.20 288.48 260.50 281.75
  Q 260.04 277.46 257.20 275.07
  Q 255.48 273.62 250.76 272.51
  Q 213.31 263.70 175.93 254.60
  Q 173.52 254.02 173.50 256.46"
/>
<path stroke="#ff94a8" vector-effect="non-scaling-stroke" d="
  M 173.50 256.46
  Q 171.76 255.89 170.00 256.04"
/>
<path stroke="#e62549" vector-effect="non-scaling-stroke" d="
  M 170.00 256.04
  Q 167.88 255.46 168.33 252.75
  Q 168.69 250.67 168.70 248.56
  Q 168.80 235.22 168.75 220.25
  Q 168.72 211.89 169.44 206.69
  Q 169.55 205.90 170.74 204.53
  C 170.84 204.42 170.80 204.25 170.66 204.17
  Q 169.84 203.73 171.00 203.71"
/>
<path stroke="#ff94a8" vector-effect="non-scaling-stroke" d="
  M 171.00 203.71
  L 173.75 204.54"
/>
<path stroke="#e62549" vector-effect="non-scaling-stroke" d="
  M 173.75 204.54
  Q 173.95 207.71 176.25 208.50
  Q 183.17 210.89 196.42 213.22
  Q 197.72 213.45 199.47 214.17
  Q 200.97 214.78 202.55 215.15
  Q 206.33 216.02 206.42 216.05
  Q 213.30 217.98 220.28 219.50
  Q 223.29 220.15 226.76 221.26
  Q 230.60 222.49 233.25 223.00
  Q 238.25 223.96 241.74 225.13
  Q 243.47 225.70 244.97 225.91
  Q 247.66 226.29 248.25 226.50
  Q 251.80 227.75 256.26 226.85
  Q 257.92 226.51 258.75 225.03
  Q 260.23 222.39 260.23 219.75
  Q 260.25 205.25 260.25 190.75
  Q 260.25 185.75 258.90 182.27
  Q 258.86 182.16 258.19 179.50
  Q 257.71 177.60 255.49 177.03
  Q 232.70 171.14 209.79 165.75"
/>
<path stroke="#f1274c" vector-effect="non-scaling-stroke" d="
  M 209.79 165.75
  Q 209.32 164.77 208.90 163.77
  Q 208.50 162.80 208.48 161.65
  Q 207.98 139.41 208.25 128.50
  Q 208.39 122.88 212.85 124.43
  Q 215.22 125.25 215.35 125.28
  Q 232.59 129.86 249.95 133.96
  Q 252.71 134.61 254.59 134.35
  Q 256.73 134.06 259.19 133.19
  Q 260.59 132.69 260.78 131.56
  C 260.85 131.20 260.97 130.90 261.15 130.70
  Q 262.19 129.56 262.25 128.75
  Q 263.90 107.29 262.75 88.25
  Q 262.40 82.41 257.35 81.58
  Q 255.26 81.23 253.45 80.63
  Q 251.41 79.96 248.69 79.81
  Q 246.43 79.69 243.24 78.50
  Q 242.54 78.24 240.61 77.01
  Q 239.28 76.16 237.72 75.88
  Q 234.91 75.39 234.83 75.36
  Q 226.56 73.13 223.50 72.50
  Q 215.50 70.86 207.58 68.88
  Q 194.17 65.52 191.75 64.95
  Q 169.33 59.67 146.98 54.10
  Q 133.81 50.82 131.00 50.50
  Q 129.09 50.28 128.71 52.00"
/>
<path stroke="#d82244" vector-effect="non-scaling-stroke" d="
  M 209.79 165.75
  L 208.00 167.54"
/>
<path stroke="#f192a3" vector-effect="non-scaling-stroke" d="
  M 208.00 167.54
  L 205.04 167.25"
/>
<path stroke="#d82244" vector-effect="non-scaling-stroke" d="
  M 205.04 167.25
  Q 203.04 166.86 204.00 165.00
  Q 204.50 164.03 204.50 161.25
  Q 204.50 143.75 204.55 126.25
  Q 204.56 121.00 206.00 115.96"
/>
<path stroke="#f192a3" vector-effect="non-scaling-stroke" d="
  M 206.00 115.96
  L 254.81 127.96
  C 255.29 128.08 255.75 127.71 255.75 127.21
  L 255.69 84.30
  C 255.69 83.99 255.49 83.73 255.21 83.66
  L 247.59 81.76
  C 247.16 81.66 246.68 81.79 246.30 82.12
  L 240.75 86.79"
/>
<path stroke="#d82244" vector-effect="non-scaling-stroke" d="
  M 240.75 86.79
  L 239.70 84.20
  C 239.59 83.91 239.57 83.59 239.65 83.27
  Q 240.03 81.69 239.21 80.25"
/>
<path stroke="#f192a3" vector-effect="non-scaling-stroke" d="
  M 239.21 80.25
  Q 240.09 79.79 239.79 79.30
  Q 239.63 79.03 239.08 78.90
  Q 183.82 65.74 128.71 52.00"
/>
<path stroke="#e690a0" vector-effect="non-scaling-stroke" d="
  M 173.75 204.54
  L 254.94 224.60
  C 255.35 224.70 255.75 224.39 255.75 223.97
  L 255.75 180.04
  C 255.75 179.72 255.53 179.44 255.22 179.36
  L 208.00 167.54"
/>
<path stroke="#e690a0" vector-effect="non-scaling-stroke" d="
  M 240.75 86.79
  L 206.00 115.96"
/>
<path stroke="#e690a0" vector-effect="non-scaling-stroke" d="
  M 205.04 167.25
  L 170.83 202.78
  C 170.62 203.00 170.54 203.28 170.64 203.44
  Q 170.75 203.61 171.00 203.71"
/>
<path stroke="#e690a0" vector-effect="non-scaling-stroke" d="
  M 170.00 256.04
  L 131.75 296.54"
/>
<path stroke="#bb1d3a" vector-effect="non-scaling-stroke" d="
  M 132.21 287.00
  Q 133.50 287.58 135.19 286.44
  Q 136.80 285.34 138.17 283.92
  Q 150.01 271.63 162.26 259.74
  Q 164.93 257.15 166.67 253.86
  Q 167.15 252.95 167.14 249.25
  Q 167.10 229.12 166.71 209.00
  Q 166.56 201.20 172.18 195.92
  Q 179.73 188.83 186.44 180.94
  Q 191.03 175.54 201.38 166.33
  C 201.60 166.13 201.72 165.83 201.71 165.51
  Q 201.69 164.20 202.43 163.15
  C 202.64 162.86 202.75 162.54 202.75 162.24
  Q 202.60 139.85 202.97 117.46
  Q 203.00 115.35 204.07 113.86
  Q 205.22 112.26 206.65 110.89
  Q 212.48 105.29 219.00 100.50
  Q 222.61 97.84 228.97 91.41
  C 229.16 91.21 229.46 91.06 229.80 91.00
  Q 230.69 90.81 231.32 90.22
  Q 232.71 88.91 232.76 88.87
  Q 236.16 86.49 238.92 83.38
  C 239.13 83.14 239.19 82.81 239.07 82.52
  L 238.46 81.00"
/>
<path stroke="#e690a0" vector-effect="non-scaling-stroke" d="
  M 239.21 80.25
  Q 238.73 80.52 238.46 81.00"
/>
<path stroke="#d58d9a" vector-effect="non-scaling-stroke" d="
  M 238.46 81.00
  L 201.39 112.19
  C 201.14 112.40 201.00 112.71 201.00 113.04
  L 201.00 163.28
  C 201.00 163.74 200.82 164.17 200.50 164.50
  L 164.91 200.71
  C 164.69 200.93 164.56 201.24 164.56 201.57
  L 164.50 252.78
  C 164.50 253.46 164.23 254.12 163.75 254.61
  L 132.21 287.00"
/>
<path stroke="#e690a0" vector-effect="non-scaling-stroke" d="
  M 132.21 287.00
  L 128.25 290.79"
/>
<path stroke="#de8e9c" vector-effect="non-scaling-stroke" d="
  M 255.79 279.25
  L 255.75 331.04
  C 255.75 331.56 255.26 331.94 254.76 331.81
  L 135.75 302.79"
/>
<path stroke="#ef91a2" vector-effect="non-scaling-stroke" d="
  M 131.54 301.75
  L 135.75 302.79"
/>
<path stroke="#ce203f" vector-effect="non-scaling-stroke" d="
  M 135.75 302.79
  Q 135.94 304.70 137.61 304.97
  Q 139.24 305.23 139.34 305.26
  Q 147.63 307.80 156.17 309.28
  Q 157.20 309.45 158.72 310.05
  Q 159.99 310.55 161.33 310.77
  Q 164.42 311.27 165.22 311.51
  Q 170.22 312.98 173.56 313.69
  Q 179.37 314.92 183.71 316.26
  Q 184.17 316.40 186.85 316.79
  Q 188.53 317.03 189.88 318.17
  C 190.13 318.38 190.44 318.51 190.75 318.52
  Q 194.33 318.66 197.77 319.57
  Q 203.33 321.03 203.43 321.05
  Q 215.95 323.79 228.31 327.21
  Q 232.17 328.29 236.11 329.03
  Q 241.03 329.96 243.92 330.77
  Q 247.26 331.71 250.59 332.67
  Q 250.68 332.69 252.78 333.60
  Q 254.59 334.38 255.84 332.84
  Q 256.33 332.23 256.85 331.86
  Q 257.44 331.43 257.93 330.89
  C 258.14 330.66 258.25 330.34 258.25 330.00
  Q 258.25 306.00 258.25 282.00
  Q 258.25 280.24 255.79 279.25"
/>
<path stroke="#ef91a2" vector-effect="non-scaling-stroke" d="
  M 255.79 279.25
  Q 256.06 277.72 255.43 276.48
  C 255.30 276.22 255.03 276.03 254.71 275.95
  L 173.50 256.46"
/>
</g>
<path fill="#ff2951" d="
  M 0.00 0.00
  Q 192.00 0.00 384.00 0.00
  Q 384.00 192.00 384.00 384.00
  Q 192.00 384.00 0.00 384.00
  Q 0.00 192.00 0.00 0.00
  Z
  M 128.71 52.00
  Q 128.00 51.99 128.00 53.25
  Q 128.00 171.25 128.00 289.25
  Q 128.00 290.41 128.25 290.79
  Q 128.73 292.36 129.25 292.75
  Q 131.21 294.21 131.75 296.54
  Q 130.82 298.05 129.44 299.19
  Q 127.04 301.16 129.75 301.25
  Q 130.71 301.28 131.54 301.75
  Q 131.07 302.53 131.23 303.30
  Q 131.35 303.90 132.09 304.47
  Q 135.15 306.83 138.87 307.74
  Q 141.90 308.49 141.97 308.51
  Q 149.12 310.60 156.32 312.49
  Q 156.34 312.49 162.23 313.79
  Q 164.98 314.39 168.06 315.44
  Q 170.66 316.32 173.69 316.70
  Q 177.27 317.14 179.32 317.72
  Q 188.11 320.20 196.95 322.46
  Q 200.59 323.39 215.25 327.00
  Q 228.79 330.33 242.38 333.47
  Q 242.46 333.49 247.41 334.94
  Q 250.36 335.81 253.46 335.84
  Q 256.23 335.87 257.87 334.89
  Q 260.17 333.52 260.50 330.75
  Q 261.18 325.07 261.20 295.25
  Q 261.20 288.48 260.50 281.75
  Q 260.04 277.46 257.20 275.07
  Q 255.48 273.62 250.76 272.51
  Q 213.31 263.70 175.93 254.60
  Q 173.52 254.02 173.50 256.46
  Q 171.76 255.89 170.00 256.04
  Q 167.88 255.46 168.33 252.75
  Q 168.69 250.67 168.70 248.56
  Q 168.80 235.22 168.75 220.25
  Q 168.72 211.89 169.44 206.69
  Q 169.55 205.90 170.74 204.53
  C 170.84 204.42 170.80 204.25 170.66 204.17
  Q 169.84 203.73 171.00 203.71
  L 173.75 204.54
  Q 173.95 207.71 176.25 208.50
  Q 183.17 210.89 196.42 213.22
  Q 197.72 213.45 199.47 214.17
  Q 200.97 214.78 202.55 215.15
  Q 206.33 216.02 206.42 216.05
  Q 213.30 217.98 220.28 219.50
  Q 223.29 220.15 226.76 221.26
  Q 230.60 222.49 233.25 223.00
  Q 238.25 223.96 241.74 225.13
  Q 243.47 225.70 244.97 225.91
  Q 247.66 226.29 248.25 226.50
  Q 251.80 227.75 256.26 226.85
  Q 257.92 226.51 258.75 225.03
  Q 260.23 222.39 260.23 219.75
  Q 260.25 205.25 260.25 190.75
  Q 260.25 185.75 258.90 182.27
  Q 258.86 182.16 258.19 179.50
  Q 257.71 177.60 255.49 177.03
  Q 232.70 171.14 209.79 165.75
  Q 209.32 164.77 208.90 163.77
  Q 208.50 162.80 208.48 161.65
  Q 207.98 139.41 208.25 128.50
  Q 208.39 122.88 212.85 124.43
  Q 215.22 125.25 215.35 125.28
  Q 232.59 129.86 249.95 133.96
  Q 252.71 134.61 254.59 134.35
  Q 256.73 134.06 259.19 133.19
  Q 260.59 132.69 260.78 131.56
  C 260.85 131.20 260.97 130.90 261.15 130.70
  Q 262.19 129.56 262.25 128.75
  Q 263.90 107.29 262.75 88.25
  Q 262.40 82.41 257.35 81.58
  Q 255.26 81.23 253.45 80.63
  Q 251.41 79.96 248.69 79.81
  Q 246.43 79.69 243.24 78.50
  Q 242.54 78.24 240.61 77.01
  Q 239.28 76.16 237.72 75.88
  Q 234.91 75.39 234.83 75.36
  Q 226.56 73.13 223.50 72.50
  Q 215.50 70.86 207.58 68.88
  Q 194.17 65.52 191.75 64.95
  Q 169.33 59.67 146.98 54.10
  Q 133.81 50.82 131.00 50.50
  Q 129.09 50.28 128.71 52.00
  Z"
/>
<path fill="#e32447" d="
  M 209.79 165.75
  L 208.00 167.54
  L 205.04 167.25
  Q 203.04 166.86 204.00 165.00
  Q 204.50 164.03 204.50 161.25
  Q 204.50 143.75 204.55 126.25
  Q 204.56 121.00 206.00 115.96
  L 254.81 127.96
  C 255.29 128.08 255.75 127.71 255.75 127.21
  L 255.69 84.30
  C 255.69 83.99 255.49 83.73 255.21 83.66
  L 247.59 81.76
  C 247.16 81.66 246.68 81.79 246.30 82.12
  L 240.75 86.79
  L 239.70 84.20
  C 239.59 83.91 239.57 83.59 239.65 83.27
  Q 240.03 81.69 239.21 80.25
  Q 240.09 79.79 239.79 79.30
  Q 239.63 79.03 239.08 78.90
  Q 183.82 65.74 128.71 52.00
  Q 129.09 50.28 131.00 50.50
  Q 133.81 50.82 146.98 54.10
  Q 169.33 59.67 191.75 64.95
  Q 194.17 65.52 207.58 68.88
  Q 215.50 70.86 223.50 72.50
  Q 226.56 73.13 234.83 75.36
  Q 234.91 75.39 237.72 75.88
  Q 239.28 76.16 240.61 77.01
  Q 242.54 78.24 243.24 78.50
  Q 246.43 79.69 248.69 79.81
  Q 251.41 79.96 253.45 80.63
  Q 255.26 81.23 257.35 81.58
  Q 262.40 82.41 262.75 88.25
  Q 263.90 107.29 262.25 128.75
  Q 262.19 129.56 261.15 130.70
  C 260.97 130.90 260.85 131.20 260.78 131.56
  Q 260.59 132.69 259.19 133.19
  Q 256.73 134.06 254.59 134.35
  Q 252.71 134.61 249.95 133.96
  Q 232.59 129.86 215.35 125.28
  Q 215.22 125.25 212.85 124.43
  Q 208.39 122.88 208.25 128.50
  Q 207.98 139.41 208.48 161.65
  Q 208.50 162.80 208.90 163.77
  Q 209.32 164.77 209.79 165.75
  Z"
/>
<path fill="#ffffff" d="
  M 128.71 52.00
  Q 183.82 65.74 239.08 78.90
  Q 239.63 79.03 239.79 79.30
  Q 240.09 79.79 239.21 80.25
  Q 238.73 80.52 238.46 81.00
  L 201.39 112.19
  C 201.14 112.40 201.00 112.71 201.00 113.04
  L 201.00 163.28
  C 201.00 163.74 200.82 164.17 200.50 164.50
  L 164.91 200.71
  C 164.69 200.93 164.56 201.24 164.56 201.57
  L 164.50 252.78
  C 164.50 253.46 164.23 254.12 163.75 254.61
  L 132.21 287.00
  L 128.25 290.79
  Q 128.00 290.41 128.00 289.25
  Q 128.00 171.25 128.00 53.25
  Q 128.00 51.99 128.71 52.00
  Z"
/>
<path fill="#cc2040" d="
  M 239.21 80.25
  Q 240.03 81.69 239.65 83.27
  C 239.57 83.59 239.59 83.91 239.70 84.20
  L 240.75 86.79
  L 206.00 115.96
  Q 204.56 121.00 204.55 126.25
  Q 204.50 143.75 204.50 161.25
  Q 204.50 164.03 204.00 165.00
  Q 203.04 166.86 205.04 167.25
  L 170.83 202.78
  C 170.62 203.00 170.54 203.28 170.64 203.44
  Q 170.75 203.61 171.00 203.71
  Q 169.84 203.73 170.66 204.17
  C 170.80 204.25 170.84 204.42 170.74 204.53
  Q 169.55 205.90 169.44 206.69
  Q 168.72 211.89 168.75 220.25
  Q 168.80 235.22 168.70 248.56
  Q 168.69 250.67 168.33 252.75
  Q 167.88 255.46 170.00 256.04
  L 131.75 296.54
  Q 131.21 294.21 129.25 292.75
  Q 128.73 292.36 128.25 290.79
  L 132.21 287.00
  Q 133.50 287.58 135.19 286.44
  Q 136.80 285.34 138.17 283.92
  Q 150.01 271.63 162.26 259.74
  Q 164.93 257.15 166.67 253.86
  Q 167.15 252.95 167.14 249.25
  Q 167.10 229.12 166.71 209.00
  Q 166.56 201.20 172.18 195.92
  Q 179.73 188.83 186.44 180.94
  Q 191.03 175.54 201.38 166.33
  C 201.60 166.13 201.72 165.83 201.71 165.51
  Q 201.69 164.20 202.43 163.15
  C 202.64 162.86 202.75 162.54 202.75 162.24
  Q 202.60 139.85 202.97 117.46
  Q 203.00 115.35 204.07 113.86
  Q 205.22 112.26 206.65 110.89
  Q 212.48 105.29 219.00 100.50
  Q 222.61 97.84 228.97 91.41
  C 229.16 91.21 229.46 91.06 229.80 91.00
  Q 230.69 90.81 231.32 90.22
  Q 232.71 88.91 232.76 88.87
  Q 236.16 86.49 238.92 83.38
  C 239.13 83.14 239.19 82.81 239.07 82.52
  L 238.46 81.00
  Q 238.73 80.52 239.21 80.25
  Z"
/>
<path fill="#aa1a34" d="
  M 238.46 81.00
  L 239.07 82.52
  C 239.19 82.81 239.13 83.14 238.92 83.38
  Q 236.16 86.49 232.76 88.87
  Q 232.71 88.91 231.32 90.22
  Q 230.69 90.81 229.80 91.00
  C 229.46 91.06 229.16 91.21 228.97 91.41
  Q 222.61 97.84 219.00 100.50
  Q 212.48 105.29 206.65 110.89
  Q 205.22 112.26 204.07 113.86
  Q 203.00 115.35 202.97 117.46
  Q 202.60 139.85 202.75 162.24
  C 202.75 162.54 202.64 162.86 202.43 163.15
  Q 201.69 164.20 201.71 165.51
  C 201.72 165.83 201.60 166.13 201.38 166.33
  Q 191.03 175.54 186.44 180.94
  Q 179.73 188.83 172.18 195.92
  Q 166.56 201.20 166.71 209.00
  Q 167.10 229.12 167.14 249.25
  Q 167.15 252.95 166.67 253.86
  Q 164.93 257.15 162.26 259.74
  Q 150.01 271.63 138.17 283.92
  Q 136.80 285.34 135.19 286.44
  Q 133.50 287.58 132.21 287.00
  L 163.75 254.61
  C 164.23 254.12 164.50 253.46 164.50 252.78
  L 164.56 201.57
  C 164.56 201.24 164.69 200.93 164.91 200.71
  L 200.50 164.50
  C 200.82 164.17 201.00 163.74 201.00 163.28
  L 201.00 113.04
  C 201.00 112.71 201.14 112.40 201.39 112.19
  L 238.46 81.00
  Z"
/>
<path fill="#ffffff" d="
  M 206.00 115.96
  L 240.75 86.79
  L 246.30 82.12
  C 246.68 81.79 247.16 81.66 247.59 81.76
  L 255.21 83.66
  C 255.49 83.73 255.69 83.99 255.69 84.30
  L 255.75 127.21
  C 255.75 127.71 255.29 128.08 254.81 127.96
  L 206.00 115.96
  Z"
/>
<path fill="#cc2040" d="
  M 209.79 165.75
  Q 232.70 171.14 255.49 177.03
  Q 257.71 177.60 258.19 179.50
  Q 258.86 182.16 258.90 182.27
  Q 260.25 185.75 260.25 190.75
  Q 260.25 205.25 260.23 219.75
  Q 260.23 222.39 258.75 225.03
  Q 257.92 226.51 256.26 226.85
  Q 251.80 227.75 248.25 226.50
  Q 247.66 226.29 244.97 225.91
  Q 243.47 225.70 241.74 225.13
  Q 238.25 223.96 233.25 223.00
  Q 230.60 222.49 226.76 221.26
  Q 223.29 220.15 220.28 219.50
  Q 213.30 217.98 206.42 216.05
  Q 206.33 216.02 202.55 215.15
  Q 200.97 214.78 199.47 214.17
  Q 197.72 213.45 196.42 213.22
  Q 183.17 210.89 176.25 208.50
  Q 173.95 207.71 173.75 204.54
  L 254.94 224.60
  C 255.35 224.70 255.75 224.39 255.75 223.97
  L 255.75 180.04
  C 255.75 179.72 255.53 179.44 255.22 179.36
  L 208.00 167.54
  L 209.79 165.75
  Z"
/>
<path fill="#ffffff" d="
  M 208.00 167.54
  L 255.22 179.36
  C 255.53 179.44 255.75 179.72 255.75 180.04
  L 255.75 223.97
  C 255.75 224.39 255.35 224.70 254.94 224.60
  L 173.75 204.54
  L 171.00 203.71
  Q 170.75 203.61 170.64 203.44
  C 170.54 203.28 170.62 203.00 170.83 202.78
  L 205.04 167.25
  L 208.00 167.54
  Z"
/>
<path fill="#df2345" d="
  M 131.54 301.75
  L 135.75 302.79
  Q 135.94 304.70 137.61 304.97
  Q 139.24 305.23 139.34 305.26
  Q 147.63 307.80 156.17 309.28
  Q 157.20 309.45 158.72 310.05
  Q 159.99 310.55 161.33 310.77
  Q 164.42 311.27 165.22 311.51
  Q 170.22 312.98 173.56 313.69
  Q 179.37 314.92 183.71 316.26
  Q 184.17 316.40 186.85 316.79
  Q 188.53 317.03 189.88 318.17
  C 190.13 318.38 190.44 318.51 190.75 318.52
  Q 194.33 318.66 197.77 319.57
  Q 203.33 321.03 203.43 321.05
  Q 215.95 323.79 228.31 327.21
  Q 232.17 328.29 236.11 329.03
  Q 241.03 329.96 243.92 330.77
  Q 247.26 331.71 250.59 332.67
  Q 250.68 332.69 252.78 333.60
  Q 254.59 334.38 255.84 332.84
  Q 256.33 332.23 256.85 331.86
  Q 257.44 331.43 257.93 330.89
  C 258.14 330.66 258.25 330.34 258.25 330.00
  Q 258.25 306.00 258.25 282.00
  Q 258.25 280.24 255.79 279.25
  Q 256.06 277.72 255.43 276.48
  C 255.30 276.22 255.03 276.03 254.71 275.95
  L 173.50 256.46
  Q 173.52 254.02 175.93 254.60
  Q 213.31 263.70 250.76 272.51
  Q 255.48 273.62 257.20 275.07
  Q 260.04 277.46 260.50 281.75
  Q 261.20 288.48 261.20 295.25
  Q 261.18 325.07 260.50 330.75
  Q 260.17 333.52 257.87 334.89
  Q 256.23 335.87 253.46 335.84
  Q 250.36 335.81 247.41 334.94
  Q 242.46 333.49 242.38 333.47
  Q 228.79 330.33 215.25 327.00
  Q 200.59 323.39 196.95 322.46
  Q 188.11 320.20 179.32 317.72
  Q 177.27 317.14 173.69 316.70
  Q 170.66 316.32 168.06 315.44
  Q 164.98 314.39 162.23 313.79
  Q 156.34 312.49 156.32 312.49
  Q 149.12 310.60 141.97 308.51
  Q 141.90 308.49 138.87 307.74
  Q 135.15 306.83 132.09 304.47
  Q 131.35 303.90 131.23 303.30
  Q 131.07 302.53 131.54 301.75
  Z"
/>
<path fill="#ffffff" d="
  M 173.50 256.46
  L 254.71 275.95
  C 255.03 276.03 255.30 276.22 255.43 276.48
  Q 256.06 277.72 255.79 279.25
  L 255.75 331.04
  C 255.75 331.56 255.26 331.94 254.76 331.81
  L 135.75 302.79
  L 131.54 301.75
  Q 130.71 301.28 129.75 301.25
  Q 127.04 301.16 129.44 299.19
  Q 130.82 298.05 131.75 296.54
  L 170.00 256.04
  Q 171.76 255.89 173.50 256.46
  Z"
/>
<path fill="#bc1d39" d="
  M 255.79 279.25
  Q 258.25 280.24 258.25 282.00
  Q 258.25 306.00 258.25 330.00
  C 258.25 330.34 258.14 330.66 257.93 330.89
  Q 257.44 331.43 256.85 331.86
  Q 256.33 332.23 255.84 332.84
  Q 254.59 334.38 252.78 333.60
  Q 250.68 332.69 250.59 332.67
  Q 247.26 331.71 243.92 330.77
  Q 241.03 329.96 236.11 329.03
  Q 232.17 328.29 228.31 327.21
  Q 215.95 323.79 203.43 321.05
  Q 203.33 321.03 197.77 319.57
  Q 194.33 318.66 190.75 318.52
  C 190.44 318.51 190.13 318.38 189.88 318.17
  Q 188.53 317.03 186.85 316.79
  Q 184.17 316.40 183.71 316.26
  Q 179.37 314.92 173.56 313.69
  Q 170.22 312.98 165.22 311.51
  Q 164.42 311.27 161.33 310.77
  Q 159.99 310.55 158.72 310.05
  Q 157.20 309.45 156.17 309.28
  Q 147.63 307.80 139.34 305.26
  Q 139.24 305.23 137.61 304.97
  Q 135.94 304.70 135.75 302.79
  L 254.76 331.81
  C 255.26 331.94 255.75 331.56 255.75 331.04
  L 255.79 279.25
  Z"
/>
</svg>
