<?xml version="1.0" encoding="UTF-8" standalone="no"?>
<!DOCTYPE svg PUBLIC "-//W3C//DTD SVG 1.1//EN" "http://www.w3.org/Graphics/SVG/1.1/DTD/svg11.dtd">
<svg xmlns="http://www.w3.org/2000/svg" version="1.1" viewBox="0 0 192 192">
<g stroke-width="2.00" fill="none" stroke-linecap="butt">
<path stroke="#ffa77e" vector-effect="non-scaling-stroke" d="
  M 123.90 75.24
  A 5.20 5.20 0.0 0 0 118.70 70.04
  A 5.20 5.20 0.0 0 0 113.50 75.24
  A 5.20 5.20 0.0 0 0 118.70 80.44
  A 5.20 5.20 0.0 0 0 123.90 75.24"
/>
<path stroke="#ff3301" vector-effect="non-scaling-stroke" d="
  M 79.77 82.48
  Q 77.61 100.53 78.94 121.44
  Q 79.02 122.74 80.25 122.46"
/>
<path stroke="#ffa77e" vector-effect="non-scaling-stroke" d="
  M 80.25 122.46
  Q 84.52 123.07 88.81 122.62
  A 0.58 0.56 -2.8 0 0 89.33 122.06
  L 89.50 108.65
  Q 89.54 104.93 90.51 108.51
  Q 91.37 111.69 94.46 113.52
  Q 97.06 115.06 100.29 114.99
  Q 106.34 114.87 109.19 109.44
  Q 111.96 104.15 111.61 97.43
  Q 111.39 93.05 110.76 90.60
  Q 109.80 86.89 107.08 84.52
  Q 103.25 81.19 98.11 81.96
  Q 91.65 82.92 89.81 90.58
  Q 89.59 91.49 89.44 90.57
  L 88.22 83.01
  A 0.60 0.60 85.5 0 0 87.63 82.50
  L 79.77 82.48"
/>
<path stroke="#ff8a7e" vector-effect="non-scaling-stroke" d="
  M 80.25 122.46
  Q 80.61 102.54 79.77 82.48"
/>
<path stroke="#ffa77e" vector-effect="non-scaling-stroke" d="
  M 151.06 112.06
  Q 154.62 109.59 155.64 105.24
  A 0.55 0.53 -75.3 0 0 155.28 104.59
  L 148.80 102.68
  A 0.60 0.56 -70.2 0 0 148.12 103.03
  Q 146.64 106.47 143.30 106.85
  Q 140.38 107.19 138.28 106.15
  Q 135.91 104.98 135.09 101.59
  A 0.87 0.85 83.4 0 1 135.92 100.52
  L 155.68 100.67
  A 0.48 0.46 -1.7 0 0 156.16 100.18
  Q 156.06 98.03 156.02 95.89
  Q 155.97 92.99 155.39 91.19
  Q 151.94 80.49 139.49 81.91
  Q 127.22 83.31 125.94 95.69
  Q 124.71 107.55 133.39 112.59
  Q 137.56 115.01 142.08 114.97
  Q 146.94 114.93 151.06 112.06"
/>
<path stroke="#ffa77e" vector-effect="non-scaling-stroke" d="
  M 68.46 106.98
  Q 68.69 107.48 68.50 108.00
  Q 67.79 109.98 68.87 111.43
  A 1.26 1.18 31.9 0 1 69.10 112.30
  Q 68.90 114.01 70.19 113.94
  Q 73.25 113.76 76.32 113.59
  A 0.53 0.52 88.3 0 0 76.81 113.06
  Q 76.72 103.17 76.74 93.28
  Q 76.75 89.62 75.54 87.49
  Q 72.93 82.86 67.64 82.22
  Q 63.99 81.78 59.86 82.21
  Q 51.75 83.04 49.37 92.27
  A 0.73 0.73 11.9 0 0 49.96 93.17
  L 56.81 94.26
  A 0.88 0.88 -77.6 0 0 57.80 93.62
  Q 58.41 91.29 60.19 90.21
  Q 61.77 89.25 63.95 89.51
  Q 67.97 89.98 67.84 94.56
  A 0.56 0.56 -0.6 0 1 67.31 95.10
  Q 65.32 95.22 58.50 95.50
  Q 47.70 95.94 48.50 107.00
  Q 48.71 109.94 50.74 112.04
  Q 52.43 113.80 55.37 114.37
  Q 64.41 116.14 68.01 107.02
  Q 68.22 106.48 68.46 106.98"
/>
<path stroke="#ffa77e" vector-effect="non-scaling-stroke" d="
  M 34.33 90.90
  L 18.50 105.62
  A 1.86 1.26 -27.7 0 0 17.91 106.72
  L 17.51 113.24
  A 0.54 0.48 1.5 0 0 18.05 113.75
  L 45.95 113.69
  A 0.52 0.50 -0.5 0 0 46.47 113.18
  L 46.36 106.93
  A 0.55 0.52 -0.5 0 0 45.81 106.42
  L 30.13 106.29
  Q 28.65 106.27 29.74 105.28
  L 45.71 90.66
  A 1.26 0.90 -27.8 0 0 46.13 89.82
  L 46.02 83.06
  A 0.58 0.51 -0.5 0 0 45.44 82.56
  L 19.05 82.50
  A 0.61 0.56 -88.4 0 0 18.49 83.08
  L 18.28 89.24
  A 1.15 1.08 89.4 0 0 19.43 90.44
  Q 26.82 89.90 34.18 90.52
  Q 34.69 90.56 34.33 90.90"
/>
<path stroke="#ffa77e" vector-effect="non-scaling-stroke" d="
  M 123.41 83.01
  A 0.48 0.48 0.0 0 0 122.93 82.53
  L 114.73 82.53
  A 0.48 0.48 0.0 0 0 114.25 83.01
  L 114.25 113.27
  A 0.48 0.48 0.0 0 0 114.73 113.75
  L 122.93 113.75
  A 0.48 0.48 0.0 0 0 123.41 113.27
  L 123.41 83.01"
/>
<path stroke="#ffa77e" vector-effect="non-scaling-stroke" d="
  M 167.78 90.47
  L 166.53 83.30
  A 0.72 0.72 0.7 0 0 165.95 82.72
  Q 162.60 82.16 159.25 82.67
  A 0.60 0.58 -4.6 0 0 158.74 83.25
  L 158.68 113.06
  A 0.55 0.51 90.0 0 0 159.19 113.61
  L 167.31 113.61
  A 0.54 0.49 89.4 0 0 167.80 113.06
  Q 167.55 104.65 167.96 96.25
  Q 168.12 93.03 170.75 92.25
  Q 172.82 91.64 177.32 91.34
  A 0.58 0.53 -1.2 0 0 177.87 90.82
  L 177.88 83.81
  A 1.29 1.22 -0.7 0 0 176.55 82.58
  Q 169.41 82.81 168.20 90.49
  Q 168.16 90.75 168.02 90.76
  A 0.33 0.20 81.7 0 1 167.78 90.47"
/>
<path stroke="#ffa77e" vector-effect="non-scaling-stroke" d="
  M 96.0156 106.7299
  A 8.48 6.68 90.3 0 0 102.7399 98.2850
  A 8.48 6.68 90.3 0 0 96.1044 89.7701
  A 8.48 6.68 90.3 0 0 89.3801 98.2150
  A 8.48 6.68 90.3 0 0 96.0156 106.7299"
/>
<path stroke="#ffa77e" vector-effect="non-scaling-stroke" d="
  M 145.06 90.19
  Q 139.08 87.58 135.55 92.57
  Q 133.99 94.79 136.69 94.75
  L 147.06 94.58
  A 0.52 0.50 -1.1 0 0 147.57 94.07
  Q 147.52 91.26 145.06 90.19"
/>
<path stroke="#ffa77e" vector-effect="non-scaling-stroke" d="
  M 58.06 102.30
  Q 56.21 104.11 57.47 105.71
  Q 58.26 106.71 59.99 107.06
  Q 66.14 108.32 68.17 101.99
  A 0.38 0.37 9.0 0 0 67.81 101.50
  Q 63.52 101.50 59.72 101.50
  Q 59.19 101.50 58.82 101.72
  Q 58.40 101.97 58.06 102.30"
/>
</g>
<path fill="#ff4f01" d="
  M 0.00 0.00
  L 192.00 0.00
  L 192.00 192.00
  L 0.00 192.00
  L 0.00 0.00
  Z
  M 123.90 75.24
  A 5.20 5.20 0.0 0 0 118.70 70.04
  A 5.20 5.20 0.0 0 0 113.50 75.24
  A 5.20 5.20 0.0 0 0 118.70 80.44
  A 5.20 5.20 0.0 0 0 123.90 75.24
  Z
  M 79.77 82.48
  Q 77.61 100.53 78.94 121.44
  Q 79.02 122.74 80.25 122.46
  Q 84.52 123.07 88.81 122.62
  A 0.58 0.56 -2.8 0 0 89.33 122.06
  L 89.50 108.65
  Q 89.54 104.93 90.51 108.51
  Q 91.37 111.69 94.46 113.52
  Q 97.06 115.06 100.29 114.99
  Q 106.34 114.87 109.19 109.44
  Q 111.96 104.15 111.61 97.43
  Q 111.39 93.05 110.76 90.60
  Q 109.80 86.89 107.08 84.52
  Q 103.25 81.19 98.11 81.96
  Q 91.65 82.92 89.81 90.58
  Q 89.59 91.49 89.44 90.57
  L 88.22 83.01
  A 0.60 0.60 85.5 0 0 87.63 82.50
  L 79.77 82.48
  Z
  M 151.06 112.06
  Q 154.62 109.59 155.64 105.24
  A 0.55 0.53 -75.3 0 0 155.28 104.59
  L 148.80 102.68
  A 0.60 0.56 -70.2 0 0 148.12 103.03
  Q 146.64 106.47 143.30 106.85
  Q 140.38 107.19 138.28 106.15
  Q 135.91 104.98 135.09 101.59
  A 0.87 0.85 83.4 0 1 135.92 100.52
  L 155.68 100.67
  A 0.48 0.46 -1.7 0 0 156.16 100.18
  Q 156.06 98.03 156.02 95.89
  Q 155.97 92.99 155.39 91.19
  Q 151.94 80.49 139.49 81.91
  Q 127.22 83.31 125.94 95.69
  Q 124.71 107.55 133.39 112.59
  Q 137.56 115.01 142.08 114.97
  Q 146.94 114.93 151.06 112.06
  Z
  M 68.46 106.98
  Q 68.69 107.48 68.50 108.00
  Q 67.79 109.98 68.87 111.43
  A 1.26 1.18 31.9 0 1 69.10 112.30
  Q 68.90 114.01 70.19 113.94
  Q 73.25 113.76 76.32 113.59
  A 0.53 0.52 88.3 0 0 76.81 113.06
  Q 76.72 103.17 76.74 93.28
  Q 76.75 89.62 75.54 87.49
  Q 72.93 82.86 67.64 82.22
  Q 63.99 81.78 59.86 82.21
  Q 51.75 83.04 49.37 92.27
  A 0.73 0.73 11.9 0 0 49.96 93.17
  L 56.81 94.26
  A 0.88 0.88 -77.6 0 0 57.80 93.62
  Q 58.41 91.29 60.19 90.21
  Q 61.77 89.25 63.95 89.51
  Q 67.97 89.98 67.84 94.56
  A 0.56 0.56 -0.6 0 1 67.31 95.10
  Q 65.32 95.22 58.50 95.50
  Q 47.70 95.94 48.50 107.00
  Q 48.71 109.94 50.74 112.04
  Q 52.43 113.80 55.37 114.37
  Q 64.41 116.14 68.01 107.02
  Q 68.22 106.48 68.46 106.98
  Z
  M 34.33 90.90
  L 18.50 105.62
  A 1.86 1.26 -27.7 0 0 17.91 106.72
  L 17.51 113.24
  A 0.54 0.48 1.5 0 0 18.05 113.75
  L 45.95 113.69
  A 0.52 0.50 -0.5 0 0 46.47 113.18
  L 46.36 106.93
  A 0.55 0.52 -0.5 0 0 45.81 106.42
  L 30.13 106.29
  Q 28.65 106.27 29.74 105.28
  L 45.71 90.66
  A 1.26 0.90 -27.8 0 0 46.13 89.82
  L 46.02 83.06
  A 0.58 0.51 -0.5 0 0 45.44 82.56
  L 19.05 82.50
  A 0.61 0.56 -88.4 0 0 18.49 83.08
  L 18.28 89.24
  A 1.15 1.08 89.4 0 0 19.43 90.44
  Q 26.82 89.90 34.18 90.52
  Q 34.69 90.56 34.33 90.90
  Z
  M 123.41 83.01
  A 0.48 0.48 0.0 0 0 122.93 82.53
  L 114.73 82.53
  A 0.48 0.48 0.0 0 0 114.25 83.01
  L 114.25 113.27
  A 0.48 0.48 0.0 0 0 114.73 113.75
  L 122.93 113.75
  A 0.48 0.48 0.0 0 0 123.41 113.27
  L 123.41 83.01
  Z
  M 167.78 90.47
  L 166.53 83.30
  A 0.72 0.72 0.7 0 0 165.95 82.72
  Q 162.60 82.16 159.25 82.67
  A 0.60 0.58 -4.6 0 0 158.74 83.25
  L 158.68 113.06
  A 0.55 0.51 90.0 0 0 159.19 113.61
  L 167.31 113.61
  A 0.54 0.49 89.4 0 0 167.80 113.06
  Q 167.55 104.65 167.96 96.25
  Q 168.12 93.03 170.75 92.25
  Q 172.82 91.64 177.32 91.34
  A 0.58 0.53 -1.2 0 0 177.87 90.82
  L 177.88 83.81
  A 1.29 1.22 -0.7 0 0 176.55 82.58
  Q 169.41 82.81 168.20 90.49
  Q 168.16 90.75 168.02 90.76
  A 0.33 0.20 81.7 0 1 167.78 90.47
  Z"
/>
<circle fill="#fffefb" cx="118.70" cy="75.24" r="5.20"/>
<path fill="#fffefb" d="
  M 80.25 122.46
  Q 80.61 102.54 79.77 82.48
  L 87.63 82.50
  A 0.60 0.60 85.5 0 1 88.22 83.01
  L 89.44 90.57
  Q 89.59 91.49 89.81 90.58
  Q 91.65 82.92 98.11 81.96
  Q 103.25 81.19 107.08 84.52
  Q 109.80 86.89 110.76 90.60
  Q 111.39 93.05 111.61 97.43
  Q 111.96 104.15 109.19 109.44
  Q 106.34 114.87 100.29 114.99
  Q 97.06 115.06 94.46 113.52
  Q 91.37 111.69 90.51 108.51
  Q 89.54 104.93 89.50 108.65
  L 89.33 122.06
  A 0.58 0.56 -2.8 0 1 88.81 122.62
  Q 84.52 123.07 80.25 122.46
  Z
  M 96.0156 106.7299
  A 8.48 6.68 90.3 0 0 102.7399 98.2850
  A 8.48 6.68 90.3 0 0 96.1044 89.7701
  A 8.48 6.68 90.3 0 0 89.3801 98.2150
  A 8.48 6.68 90.3 0 0 96.0156 106.7299
  Z"
/>
<path fill="#fffefb" d="
  M 151.06 112.06
  Q 146.94 114.93 142.08 114.97
  Q 137.56 115.01 133.39 112.59
  Q 124.71 107.55 125.94 95.69
  Q 127.22 83.31 139.49 81.91
  Q 151.94 80.49 155.39 91.19
  Q 155.97 92.99 156.02 95.89
  Q 156.06 98.03 156.16 100.18
  A 0.48 0.46 -1.7 0 1 155.68 100.67
  L 135.92 100.52
  A 0.87 0.85 83.4 0 0 135.09 101.59
  Q 135.91 104.98 138.28 106.15
  Q 140.38 107.19 143.30 106.85
  Q 146.64 106.47 148.12 103.03
  A 0.60 0.56 -70.2 0 1 148.80 102.68
  L 155.28 104.59
  A 0.55 0.53 -75.3 0 1 155.64 105.24
  Q 154.62 109.59 151.06 112.06
  Z
  M 145.06 90.19
  Q 139.08 87.58 135.55 92.57
  Q 133.99 94.79 136.69 94.75
  L 147.06 94.58
  A 0.52 0.50 -1.1 0 0 147.57 94.07
  Q 147.52 91.26 145.06 90.19
  Z"
/>
<path fill="#fffefb" d="
  M 68.01 107.02
  Q 64.41 116.14 55.37 114.37
  Q 52.43 113.80 50.74 112.04
  Q 48.71 109.94 48.50 107.00
  Q 47.70 95.94 58.50 95.50
  Q 65.32 95.22 67.31 95.10
  A 0.56 0.56 -0.6 0 0 67.84 94.56
  Q 67.97 89.98 63.95 89.51
  Q 61.77 89.25 60.19 90.21
  Q 58.41 91.29 57.80 93.62
  A 0.88 0.88 -77.6 0 1 56.81 94.26
  L 49.96 93.17
  A 0.73 0.73 11.9 0 1 49.37 92.27
  Q 51.75 83.04 59.86 82.21
  Q 63.99 81.78 67.64 82.22
  Q 72.93 82.86 75.54 87.49
  Q 76.75 89.62 76.74 93.28
  Q 76.72 103.17 76.81 113.06
  A 0.53 0.52 88.3 0 1 76.32 113.59
  Q 73.25 113.76 70.19 113.94
  Q 68.90 114.01 69.10 112.30
  A 1.26 1.18 31.9 0 0 68.87 111.43
  Q 67.79 109.98 68.50 108.00
  Q 68.69 107.48 68.46 106.98
  Q 68.22 106.48 68.01 107.02
  Z
  M 58.06 102.30
  Q 56.21 104.11 57.47 105.71
  Q 58.26 106.71 59.99 107.06
  Q 66.14 108.32 68.17 101.99
  A 0.38 0.37 9.0 0 0 67.81 101.50
  Q 63.52 101.50 59.72 101.50
  Q 59.19 101.50 58.82 101.72
  Q 58.40 101.97 58.06 102.30
  Z"
/>
<path fill="#fffefb" d="
  M 34.18 90.52
  Q 26.82 89.90 19.43 90.44
  A 1.15 1.08 89.4 0 1 18.28 89.24
  L 18.49 83.08
  A 0.61 0.56 -88.4 0 1 19.05 82.50
  L 45.44 82.56
  A 0.58 0.51 -0.5 0 1 46.02 83.06
  L 46.13 89.82
  A 1.26 0.90 -27.8 0 1 45.71 90.66
  L 29.74 105.28
  Q 28.65 106.27 30.13 106.29
  L 45.81 106.42
  A 0.55 0.52 -0.5 0 1 46.36 106.93
  L 46.47 113.18
  A 0.52 0.50 -0.5 0 1 45.95 113.69
  L 18.05 113.75
  A 0.54 0.48 1.5 0 1 17.51 113.24
  L 17.91 106.72
  A 1.86 1.26 -27.7 0 1 18.50 105.62
  L 34.33 90.90
  Q 34.69 90.56 34.18 90.52
  Z"
/>
<path fill="#ff1600" d="
  M 79.77 82.48
  Q 80.61 102.54 80.25 122.46
  Q 79.02 122.74 78.94 121.44
  Q 77.61 100.53 79.77 82.48
  Z"
/>
<rect fill="#fffefb" x="114.25" y="82.53" width="9.16" height="31.22" rx="0.48"/>
<path fill="#fffefb" d="
  M 168.02 90.76
  Q 168.16 90.75 168.20 90.49
  Q 169.41 82.81 176.55 82.58
  A 1.29 1.22 -0.7 0 1 177.88 83.81
  L 177.87 90.82
  A 0.58 0.53 -1.2 0 1 177.32 91.34
  Q 172.82 91.64 170.75 92.25
  Q 168.12 93.03 167.96 96.25
  Q 167.55 104.65 167.80 113.06
  A 0.54 0.49 89.4 0 1 167.31 113.61
  L 159.19 113.61
  A 0.55 0.51 90.0 0 1 158.68 113.06
  L 158.74 83.25
  A 0.60 0.58 -4.6 0 1 159.25 82.67
  Q 162.60 82.16 165.95 82.72
  A 0.72 0.72 0.3 0 1 166.53 83.30
  L 167.78 90.47
  A 0.33 0.20 81.7 0 0 168.02 90.76
  Z"
/>
<path fill="#ff4f01" d="
  M 145.06 90.19
  Q 147.52 91.26 147.57 94.07
  A 0.52 0.50 -1.1 0 1 147.06 94.58
  L 136.69 94.75
  Q 133.99 94.79 135.55 92.57
  Q 139.08 87.58 145.06 90.19
  Z"
/>
<ellipse fill="#ff4f01" cx="0.00" cy="0.00" transform="translate(96.06,98.25) rotate(90.3)" rx="8.48" ry="6.68"/>
<path fill="#ff4f01" d="
  M 58.06 102.30
  Q 58.40 101.97 58.82 101.72
  Q 59.19 101.50 59.72 101.50
  Q 63.52 101.50 67.81 101.50
  A 0.38 0.37 9.0 0 1 68.17 101.99
  Q 66.14 108.32 59.99 107.06
  Q 58.26 106.71 57.47 105.71
  Q 56.21 104.11 58.06 102.30
  Z"
/>
</svg>
