<?xml version="1.0" encoding="UTF-8" standalone="no"?>
<!DOCTYPE svg PUBLIC "-//W3C//DTD SVG 1.1//EN" "http://www.w3.org/Graphics/SVG/1.1/DTD/svg11.dtd">
<svg xmlns="http://www.w3.org/2000/svg" version="1.1" viewBox="0 0 200 200">
<g stroke-width="2.0" fill="none" stroke-linecap="butt">
<path stroke="#ee828a" vector-effect="non-scaling-stroke" d="
  M 113.06 0.00
  Q 105.30 0.60 100.54 7.19
  C 100.06 7.85 99.15 8.00 98.49 7.53
  Q 96.34 6.01 93.56 5.14
  Q 91.01 4.34 88.48 5.22
  Q 85.08 6.40 81.60 8.75
  Q 79.53 10.15 81.64 11.50
  Q 82.79 12.23 84.33 11.98
  Q 86.09 11.69 86.18 11.68
  Q 91.90 11.22 97.52 10.10
  C 97.82 10.04 98.15 10.09 98.43 10.26
  Q 101.27 11.91 104.51 12.07
  Q 107.00 12.19 108.91 12.66
  Q 113.14 13.70 117.51 12.85
  C 117.80 12.80 118.09 12.93 118.23 13.18
  Q 119.79 16.04 119.92 13.56
  C 119.94 13.27 119.81 12.97 119.56 12.74
  Q 118.22 11.51 119.77 11.10
  C 120.04 11.02 120.37 11.09 120.67 11.28
  Q 123.90 13.28 127.44 10.55
  Q 129.93 8.63 132.00 10.99
  Q 133.03 12.17 135.09 12.43
  Q 136.24 12.58 138.36 12.10
  Q 142.00 11.27 145.75 11.24
  Q 157.00 11.15 168.25 11.41
  Q 169.19 11.44 170.10 11.17
  Q 171.00 10.90 171.90 10.64
  Q 173.25 10.25 174.64 10.44
  Q 177.54 10.85 180.77 11.33
  Q 184.62 11.90 183.29 8.24
  Q 182.37 5.71 178.25 5.70
  Q 175.39 5.68 172.55 5.43
  Q 172.37 5.42 169.08 4.56
  Q 166.64 3.91 163.69 5.19
  Q 162.20 5.83 160.07 5.54
  Q 159.19 5.43 156.80 4.22
  Q 154.22 2.93 151.23 3.63
  C 150.94 3.70 150.62 3.61 150.40 3.40
  Q 146.83 0.12 144.65 5.90
  Q 144.02 7.58 142.50 8.52
  Q 139.89 10.13 139.09 6.66
  C 138.94 6.00 139.41 5.35 140.08 5.29
  Q 143.00 5.01 142.31 2.69
  Q 141.64 0.39 138.00 1.25
  Q 134.69 2.04 131.44 1.46
  Q 128.11 0.87 126.34 0.89
  Q 120.80 0.93 115.31 0.00"
/>
<path stroke="#e9838b" vector-effect="non-scaling-stroke" d="
  M 60.31 5.69
  L 55.50 4.07
  C 55.27 3.99 54.91 4.04 54.54 4.21
  Q 48.63 6.90 44.06 7.31
  Q 40.39 7.64 41.82 10.49
  C 41.96 10.77 42.24 10.95 42.57 10.97
  Q 47.73 11.26 52.90 11.47
  Q 53.02 11.47 54.58 11.64
  Q 57.63 11.96 59.69 9.44
  Q 62.23 6.33 60.31 5.69"
/>
<path stroke="#e9838b" vector-effect="non-scaling-stroke" d="
  M 71.77 8.69
  C 71.77 7.80 71.04 7.07 70.15 7.07
  C 69.26 7.07 68.53 7.80 68.53 8.69
  C 68.53 9.58 69.26 10.31 70.15 10.31
  C 71.04 10.31 71.77 9.58 71.77 8.69"
/>
<path stroke="#e9838b" vector-effect="non-scaling-stroke" d="
  M 32.18 12.23
  Q 34.30 12.42 36.31 11.47
  Q 36.71 11.28 37.25 11.26
  Q 39.31 11.16 38.75 8.73
  C 38.59 8.06 37.81 7.78 37.25 8.18
  Q 34.13 10.46 30.61 8.33
  C 30.32 8.15 29.99 8.08 29.69 8.11
  Q 25.62 8.51 21.87 10.13
  Q 21.10 10.46 20.68 10.98
  Q 19.57 12.36 21.19 12.67
  Q 21.77 12.78 22.81 12.64
  Q 25.48 12.27 28.15 12.00
  Q 28.84 11.93 32.18 12.23"
/>
<path stroke="#f28089" vector-effect="non-scaling-stroke" d="
  M 12.74 98.30
  Q 13.08 101.95 12.97 105.61
  Q 12.77 112.45 12.77 112.89
  Q 12.84 128.50 12.78 144.10
  Q 12.75 151.68 11.80 156.33
  Q 10.56 162.39 8.19 168.14
  Q 7.32 170.25 7.15 171.48
  Q 6.92 173.10 7.00 175.00
  Q 7.07 176.55 5.88 177.67
  C 5.62 177.92 5.45 178.21 5.40 178.49
  Q 5.25 179.33 5.32 180.17
  Q 5.46 181.74 5.45 182.34
  Q 5.35 188.47 10.15 192.07
  C 10.93 192.65 12.05 192.27 12.31 191.33
  Q 14.65 182.90 13.37 174.26
  Q 13.23 173.31 13.30 172.73
  Q 13.57 170.36 15.44 172.81
  Q 19.62 178.26 25.82 179.15
  C 26.69 179.27 27.51 179.63 28.19 180.17
  Q 32.84 183.85 37.99 182.46
  Q 40.98 181.66 44.55 179.72
  Q 45.41 179.25 46.37 179.25
  L 140.93 179.31
  C 141.29 179.31 141.61 179.44 141.79 179.66
  L 144.80 183.37
  C 144.99 183.61 145.08 183.94 145.05 184.30
  Q 144.83 187.25 146.39 188.91
  C 146.63 189.16 146.78 189.45 146.82 189.74
  L 147.24 192.70
  C 147.29 193.01 147.51 193.26 147.79 193.33
  Q 150.62 194.00 151.31 190.29
  C 151.44 189.60 152.25 189.30 152.79 189.73
  Q 155.02 191.46 156.92 190.12
  C 157.24 189.90 157.55 189.77 157.81 189.76
  Q 159.44 189.70 159.69 191.31
  Q 160.34 195.67 164.75 194.75
  Q 166.81 194.32 168.15 191.89
  Q 168.76 190.79 169.32 190.58
  Q 170.27 190.22 171.29 191.03
  Q 172.72 192.17 174.16 191.04
  Q 179.73 186.68 186.77 184.24
  Q 187.89 183.86 188.38 183.27
  Q 189.35 182.11 188.43 181.16
  Q 187.77 180.49 186.36 180.40
  Q 180.94 180.04 177.56 182.31
  Q 171.98 186.07 169.69 186.69
  Q 167.84 187.18 166.43 186.05
  Q 165.07 184.97 163.51 185.75
  Q 159.63 187.68 155.94 185.75
  C 155.66 185.60 155.33 185.53 154.99 185.54
  Q 152.96 185.65 151.39 184.55
  C 151.18 184.40 151.16 184.09 151.34 183.89
  Q 153.14 181.90 153.71 179.31
  C 153.77 179.03 154.03 178.83 154.31 178.85
  Q 161.89 179.45 169.48 179.22
  Q 176.89 179.00 180.51 176.91
  Q 187.77 172.72 187.75 162.25
  Q 187.62 98.76 187.51 35.28
  Q 187.50 29.39 186.15 26.44
  Q 184.04 21.82 179.53 19.73
  Q 176.34 18.25 168.74 18.25
  Q 100.86 18.25 32.98 18.25
  Q 25.35 18.25 22.61 19.13
  Q 16.90 20.97 14.40 26.49
  Q 13.00 29.57 12.98 35.73
  Q 12.89 60.99 13.00 86.26
  Q 13.02 90.14 11.80 86.47
  L 8.00 74.99
  Q 7.34 73.00 9.16 71.86
  Q 11.59 70.35 10.88 68.27
  C 10.80 68.03 10.58 67.77 10.27 67.54
  Q 9.18 66.72 9.39 65.59
  Q 9.43 65.36 10.53 63.69
  Q 11.98 61.48 10.22 58.72
  C 9.70 57.91 9.68 56.88 10.16 56.05
  Q 12.41 52.18 10.79 48.11
  Q 9.71 45.42 9.60 44.05
  Q 8.91 35.52 10.57 27.11
  Q 10.58 27.06 11.00 25.41
  Q 11.73 22.56 10.45 20.28
  Q 9.50 18.59 7.74 19.42
  Q 4.56 20.94 1.99 24.02
  Q 0.67 25.62 1.04 27.30
  L 3.22 37.15
  C 3.32 37.61 3.32 38.04 3.20 38.40
  Q 2.70 39.92 2.58 41.24
  Q 2.49 42.14 2.96 44.07
  Q 4.05 48.54 2.34 52.59
  C 2.08 53.20 2.05 53.89 2.26 54.51
  Q 4.42 61.03 2.02 66.84
  Q 1.40 68.36 2.26 69.76
  Q 3.88 72.39 1.93 75.19
  Q 0.66 77.02 2.07 79.01
  L 4.21 82.02
  C 4.53 82.48 4.47 83.11 4.07 83.55
  Q 2.52 85.22 2.15 87.20
  Q 1.95 88.25 2.75 91.06
  Q 3.69 94.35 2.68 97.62
  Q 2.67 97.66 1.51 100.16
  Q 0.33 102.69 0.93 105.56
  Q 1.35 107.62 3.00 108.24
  Q 3.99 108.61 5.99 108.08
  Q 8.04 107.54 9.76 107.29
  C 10.77 107.14 11.52 106.27 11.51 105.24
  Q 11.47 101.11 12.50 98.28
  Q 12.69 97.78 12.74 98.30"
/>
<path stroke="#ee828a" vector-effect="non-scaling-stroke" d="
  M 195.81 97.44
  Q 194.16 96.06 194.01 93.49
  C 194.00 93.19 194.12 92.89 194.36 92.65
  Q 199.71 87.35 199.82 79.92
  Q 199.88 76.02 199.82 75.59
  Q 199.47 73.07 196.81 71.94
  Q 194.78 71.07 196.81 69.81
  Q 199.44 68.18 199.82 65.46
  Q 199.85 65.22 199.64 60.52
  Q 199.44 55.89 199.16 51.26
  Q 199.09 50.07 199.50 46.29
  Q 199.83 43.29 198.75 40.41
  C 198.65 40.13 198.42 39.89 198.11 39.74
  Q 196.17 38.78 197.06 36.81
  Q 199.37 31.72 196.72 27.00
  Q 195.60 24.99 195.51 24.82
  Q 194.76 23.42 193.80 22.15
  C 193.61 21.89 193.29 21.78 193.01 21.89
  Q 191.45 22.50 191.94 24.81
  Q 192.28 26.44 191.65 28.52
  Q 190.99 30.71 190.98 32.09
  Q 190.88 43.69 191.15 55.30
  Q 191.15 55.36 190.91 62.69
  Q 190.78 66.60 191.64 70.43
  Q 192.15 72.70 192.03 75.14
  Q 191.83 79.58 193.13 83.87
  Q 193.54 85.23 193.21 86.15
  Q 192.79 87.29 191.92 88.21
  C 191.67 88.47 191.51 88.76 191.45 89.05
  Q 190.18 94.78 193.07 100.87
  C 193.29 101.34 193.22 101.90 192.89 102.30
  Q 190.86 104.77 193.14 107.63
  Q 195.29 110.33 194.03 113.55
  Q 193.06 116.00 193.07 118.57
  Q 193.09 122.79 193.08 122.93
  Q 192.76 129.03 194.25 134.50
  Q 194.83 136.62 196.74 135.89
  C 197.02 135.78 197.23 135.52 197.30 135.19
  Q 198.00 131.74 197.57 128.25
  Q 197.51 127.81 197.18 127.36
  Q 196.28 126.15 196.38 124.68
  C 196.40 124.40 196.58 124.12 196.87 123.92
  Q 198.66 122.72 198.75 121.00
  Q 199.11 114.12 198.58 100.43
  C 198.57 100.10 198.44 99.79 198.22 99.57
  Q 197.52 98.86 195.81 97.44"
/>
<path stroke="#e9838b" vector-effect="non-scaling-stroke" d="
  M 7.6428 127.0883
  C 8.57 126.13 8.12 124.18 6.6271 122.7251
  C 5.13 121.27 3.17 120.87 2.2372 121.8317
  C 1.31 122.79 1.76 124.74 3.2529 126.1949
  C 4.75 127.65 6.71 128.05 7.6428 127.0883"
/>
<path stroke="#fab1b8" vector-effect="non-scaling-stroke" d="
  M 6.7938 136.5014
  C 7.16 135.76 6.78 134.82 5.9470 134.4064
  C 5.11 133.99 4.13 134.26 3.7662 134.9986
  C 3.40 135.74 3.78 136.68 4.6130 137.0936
  C 5.45 137.51 6.43 137.24 6.7938 136.5014"
/>
<path stroke="#e9838b" vector-effect="non-scaling-stroke" d="
  M 197.8746 144.1531
  C 198.01 143.38 197.49 142.63 196.7146 142.4965
  L 195.4147 142.2673
  C 194.64 142.13 193.90 142.65 193.7581 143.4273
  L 193.5254 144.7469
  C 193.39 145.52 193.91 146.27 194.6854 146.4035
  L 195.9853 146.6327
  C 196.76 146.77 197.50 146.25 197.6419 145.4727
  L 197.8746 144.1531"
/>
<path stroke="#e9838b" vector-effect="non-scaling-stroke" d="
  M 193.4955 155.0189
  C 194.41 154.91 194.98 153.41 194.7790 151.6692
  C 194.58 149.92 193.68 148.60 192.7645 148.7011
  C 191.85 148.81 191.28 150.31 191.4810 152.0508
  C 191.68 153.80 192.58 155.12 193.4955 155.0189"
/>
<path stroke="#e9838b" vector-effect="non-scaling-stroke" d="
  M 98.74 194.29
  Q 99.92 192.67 101.50 193.91
  Q 107.01 198.23 109.95 193.17
  C 110.32 192.53 110.03 191.71 109.34 191.44
  Q 107.45 190.70 105.38 190.42
  Q 102.77 190.05 101.74 189.60
  Q 99.90 188.80 98.52 187.60
  C 97.81 186.99 96.74 187.09 96.17 187.82
  Q 95.27 188.97 94.39 189.66
  Q 92.55 191.07 92.43 191.22
  Q 90.89 193.12 91.00 195.86
  C 91.04 196.75 91.96 197.40 92.99 197.27
  L 97.44 196.68
  C 97.75 196.64 97.99 196.45 98.05 196.21
  Q 98.42 194.72 98.74 194.29"
/>
<path stroke="#ee828a" vector-effect="non-scaling-stroke" d="
  M 49.87 193.66
  Q 48.40 191.74 46.90 191.01
  C 46.64 190.88 46.30 190.86 45.95 190.96
  Q 42.58 191.90 39.28 190.63
  C 39.02 190.53 38.77 190.30 38.60 189.98
  Q 37.67 188.32 36.00 190.00
  Q 33.70 192.31 30.82 191.35
  Q 28.32 190.51 27.37 190.44
  Q 25.29 190.29 23.22 190.10
  Q 23.17 190.09 20.02 189.32
  Q 17.45 188.70 16.06 191.31
  Q 13.90 195.38 18.47 196.00
  Q 21.55 196.41 24.62 196.93
  Q 25.78 197.12 28.41 197.10
  Q 30.81 197.08 32.19 198.06
  Q 35.08 200.12 38.24 198.41
  C 39.04 197.97 39.97 197.81 40.88 197.97
  Q 47.70 199.14 49.97 195.01
  C 50.21 194.58 50.17 194.06 49.87 193.66"
/>
<path stroke="#ee828a" vector-effect="non-scaling-stroke" d="
  M 88.73 190.93
  Q 85.73 190.00 80.57 190.15
  C 80.23 190.16 79.89 190.07 79.58 189.91
  Q 76.79 188.39 73.98 190.18
  Q 71.12 192.02 68.07 191.07
  Q 66.07 190.45 66.01 190.44
  Q 63.32 189.95 60.66 190.86
  Q 58.25 191.68 56.60 189.98
  Q 54.78 188.10 52.82 189.82
  Q 50.19 192.12 52.18 193.57
  Q 52.41 193.73 54.96 194.55
  Q 57.06 195.23 58.32 197.20
  C 58.83 197.99 59.69 198.48 60.62 198.51
  Q 64.06 198.63 67.74 198.71
  Q 67.83 198.72 71.18 199.26
  Q 73.16 199.59 75.50 198.75
  Q 77.69 197.97 80.77 198.64
  C 81.09 198.71 81.42 198.69 81.72 198.59
  Q 88.08 196.47 89.44 195.69
  Q 91.42 194.54 90.76 192.69
  Q 90.30 191.41 88.73 190.93"
/>
<path stroke="#e9838b" vector-effect="non-scaling-stroke" d="
  M 123.9562 190.3292
  C 123.93 189.61 123.34 189.05 122.6182 189.0683
  L 121.7786 189.0932
  C 121.06 189.11 120.50 189.71 120.5177 190.4312
  L 120.5438 191.3108
  C 120.57 192.03 121.16 192.59 121.8818 192.5717
  L 122.7214 192.5468
  C 123.44 192.53 124.00 191.93 123.9823 191.2088
  L 123.9562 190.3292"
/>
<path stroke="#e9838b" vector-effect="non-scaling-stroke" d="
  M 133.99 192.31
  C 133.99 191.47 133.31 190.79 132.47 190.79
  C 131.63 190.79 130.95 191.47 130.95 192.31
  C 130.95 193.15 131.63 193.83 132.47 193.83
  C 133.31 193.83 133.99 193.15 133.99 192.31"
/>
<path stroke="#f04f5a" vector-effect="non-scaling-stroke" d="
  M 20.96 87.50
  Q 19.44 101.72 20.09 115.96
  Q 20.35 121.78 20.19 129.04
  Q 19.98 138.16 21.04 147.25"
/>
<path stroke="#f28089" vector-effect="non-scaling-stroke" d="
  M 21.04 147.25
  L 21.25 173.01
  C 21.25 173.28 21.48 173.50 21.76 173.50
  L 96.94 173.44
  C 97.22 173.44 97.45 173.22 97.46 172.94
  L 98.04 152.25"
/>
<path stroke="#ed3241" vector-effect="non-scaling-stroke" d="
  M 98.04 152.25
  Q 99.39 148.68 99.17 144.94
  Q 98.99 141.62 98.99 141.54
  Q 98.87 129.18 98.61 116.83
  Q 98.61 116.74 98.77 112.32
  Q 98.88 109.25 98.04 106.25"
/>
<path stroke="#f28089" vector-effect="non-scaling-stroke" d="
  M 98.04 106.25
  L 97.82 26.70
  C 97.82 26.42 97.59 26.19 97.31 26.18
  Q 59.53 25.31 21.73 26.00
  C 21.33 26.01 21.01 26.33 21.00 26.73
  Q 20.43 57.12 20.96 87.50"
/>
<path stroke="#fab1b8" vector-effect="non-scaling-stroke" d="
  M 98.04 106.25
  Q 97.99 111.92 97.99 117.59
  Q 97.99 121.59 97.56 128.90
  Q 96.87 140.58 98.04 152.25"
/>
<path stroke="#fdced0" vector-effect="non-scaling-stroke" d="
  M 21.04 147.25
  Q 21.24 145.65 21.49 144.08
  Q 21.75 142.42 21.78 140.90
  Q 21.99 130.20 22.50 119.50
  Q 22.87 111.81 20.96 87.50"
/>
<path stroke="#f28089" vector-effect="non-scaling-stroke" d="
  M 133.46 42.85
  Q 131.52 43.46 128.56 43.56
  Q 123.15 43.76 124.38 49.02
  C 124.44 49.30 124.71 49.49 125.00 49.47
  L 134.17 48.65
  C 134.80 48.59 135.34 49.12 135.31 49.77
  L 135.06 55.11
  C 135.04 55.46 134.76 55.73 134.42 55.74
  Q 131.79 55.77 129.75 56.56
  Q 128.23 57.15 127.45 58.24
  Q 126.26 59.87 127.93 60.96
  Q 128.73 61.49 130.20 61.58
  Q 131.80 61.68 133.55 61.76
  C 134.49 61.81 135.29 62.44 135.56 63.33
  Q 137.44 69.62 132.00 69.50
  Q 129.94 69.46 120.41 71.38
  Q 117.58 71.96 117.02 73.48
  Q 116.37 75.27 117.44 78.18
  C 117.67 78.81 118.34 79.16 118.99 79.00
  Q 127.18 76.93 135.49 75.45
  Q 138.80 74.85 141.00 75.50
  Q 149.81 78.09 158.77 80.14
  C 159.08 80.21 159.42 80.19 159.73 80.09
  Q 166.27 77.91 171.64 74.15
  Q 173.36 72.94 171.27 72.75
  Q 164.90 72.18 158.75 70.50
  Q 151.90 68.62 139.75 68.50
  C 139.42 68.50 139.15 68.29 139.13 68.02
  L 138.82 62.58
  C 138.78 61.98 139.32 61.48 139.98 61.50
  Q 143.78 61.56 146.95 60.18
  Q 149.24 59.18 146.99 58.10
  Q 143.65 56.49 139.56 55.77
  C 139.22 55.71 138.97 55.47 138.96 55.20
  L 138.90 49.39
  C 138.89 48.92 139.34 48.56 139.85 48.62
  Q 145.65 49.28 150.46 48.83
  Q 151.44 48.74 151.95 48.35
  Q 152.84 47.67 152.46 46.67
  Q 152.15 45.88 150.99 45.45
  Q 145.81 43.53 140.47 43.02
  C 139.97 42.97 139.63 42.50 139.75 42.01
  Q 140.13 40.40 140.00 38.81
  Q 139.85 36.97 139.50 35.69
  Q 138.45 31.89 133.61 34.09
  Q 130.89 35.32 132.48 37.85
  Q 133.56 39.58 133.88 42.19
  C 133.92 42.48 133.74 42.76 133.46 42.85"
/>
<path stroke="#f28089" vector-effect="non-scaling-stroke" d="
  M 122.68 122.42
  Q 118.88 122.31 115.40 123.74
  C 115.10 123.86 114.85 124.09 114.70 124.38
  Q 113.15 127.35 113.24 130.57
  C 113.26 131.21 113.87 131.66 114.48 131.49
  Q 119.05 130.25 123.45 131.20
  C 123.75 131.27 123.97 131.51 123.99 131.81
  Q 124.31 135.78 121.94 138.44
  Q 116.12 144.96 107.29 151.03
  Q 105.73 152.10 105.86 153.81
  C 105.88 154.11 106.10 154.37 106.40 154.47
  Q 108.97 155.29 110.94 154.19
  Q 117.49 150.54 122.34 144.49
  Q 123.93 142.52 124.01 145.05
  Q 124.20 150.90 123.37 156.98
  Q 123.05 159.33 124.82 159.15
  C 125.12 159.12 125.41 158.93 125.59 158.64
  Q 127.35 155.86 127.50 153.00
  Q 127.83 146.79 127.81 141.35
  C 127.81 140.75 128.42 140.35 128.98 140.58
  Q 132.14 141.89 132.68 140.35
  Q 133.02 139.37 132.01 137.86
  Q 130.49 135.59 128.64 133.55
  C 128.40 133.29 128.26 132.98 128.25 132.69
  Q 128.17 131.23 129.74 131.79
  Q 132.37 132.72 134.35 131.23
  Q 135.45 130.40 136.25 129.37
  Q 137.37 127.93 136.54 126.54
  Q 135.91 125.47 133.91 124.65
  Q 131.42 123.63 129.60 123.31
  Q 127.24 122.90 127.25 120.50
  Q 127.26 115.94 124.94 115.90
  C 124.64 115.89 124.38 116.11 124.32 116.41
  L 123.26 121.94
  C 123.21 122.22 122.96 122.43 122.68 122.42"
/>
<path stroke="#f28089" vector-effect="non-scaling-stroke" d="
  M 183.19 153.48
  Q 172.29 152.39 163.15 147.13
  Q 160.59 145.66 160.20 143.08
  Q 160.18 142.97 160.18 138.42
  Q 160.17 133.83 161.24 129.39
  Q 161.94 126.51 161.82 125.56
  Q 161.52 123.31 159.31 122.19
  Q 152.31 118.64 144.90 122.48
  Q 142.08 123.94 142.70 127.26
  Q 143.07 129.21 143.64 131.12
  Q 144.25 133.17 144.00 134.96
  Q 142.97 142.28 140.49 150.74
  Q 139.94 152.60 141.56 153.69
  Q 142.24 154.15 143.16 153.27
  Q 143.65 152.81 143.98 151.96
  Q 147.76 142.24 147.32 131.75
  Q 147.18 128.59 150.75 128.25
  Q 153.76 127.96 155.20 128.20
  C 155.49 128.25 155.71 128.50 155.74 128.81
  Q 156.22 133.15 155.78 137.50
  Q 155.14 143.83 157.60 149.39
  Q 158.85 152.21 161.58 154.10
  Q 165.48 156.78 169.95 158.34
  Q 173.31 159.51 176.12 158.67
  Q 180.03 157.52 183.44 154.20
  Q 184.09 153.57 183.19 153.48"
/>
<path stroke="#e9838b" vector-effect="non-scaling-stroke" d="
  M 36.94 42.81
  Q 37.72 43.06 40.64 45.62
  Q 41.84 46.67 42.72 46.86
  Q 45.00 47.35 43.94 43.56
  Q 42.00 36.66 35.47 36.46
  Q 33.67 36.41 32.88 37.44
  Q 31.81 38.83 33.19 40.81
  Q 33.92 41.87 36.94 42.81"
/>
<path stroke="#e9838b" vector-effect="non-scaling-stroke" d="
  M 68.79 39.07
  Q 65.07 36.94 61.00 36.89
  Q 56.86 36.84 52.73 37.25
  C 51.93 37.33 51.30 37.97 51.22 38.77
  Q 50.52 46.36 50.93 54.24
  Q 51.33 61.84 51.57 69.67
  C 51.60 70.64 52.38 71.43 53.36 71.47
  Q 58.03 71.65 63.24 71.19
  Q 65.94 70.96 67.09 70.23
  Q 68.98 69.02 69.25 66.50
  Q 70.58 54.19 70.68 42.36
  Q 70.70 40.16 68.79 39.07"
/>
<path stroke="#e9838b" vector-effect="non-scaling-stroke" d="
  M 90.01 37.03
  Q 88.25 36.55 86.62 37.92
  C 86.39 38.11 86.29 38.42 86.35 38.73
  Q 87.45 44.42 87.50 51.75
  Q 87.60 64.75 87.10 73.86
  Q 86.98 76.02 86.54 77.07
  Q 85.86 78.72 84.44 79.69
  Q 82.36 81.10 76.49 84.28
  Q 74.97 85.10 75.95 85.90
  Q 76.38 86.25 77.16 86.30
  Q 86.63 86.91 90.34 79.71
  Q 91.92 76.64 92.10 70.38
  Q 92.52 55.49 92.02 39.60
  Q 91.96 37.57 90.01 37.03"
/>
<path stroke="#e9838b" vector-effect="non-scaling-stroke" d="
  M 79.30 47.18
  Q 78.07 46.35 77.98 47.83
  Q 77.35 58.00 78.51 68.44
  C 78.54 68.73 78.80 68.94 79.07 68.90
  Q 81.05 68.64 81.50 66.75
  Q 83.23 59.56 81.54 51.76
  Q 81.05 49.47 80.97 49.25
  Q 80.49 47.99 79.30 47.18"
/>
<path stroke="#e9838b" vector-effect="non-scaling-stroke" d="
  M 37.56 53.69
  Q 33.71 51.15 30.21 53.52
  C 29.94 53.71 29.75 53.99 29.70 54.30
  Q 29.28 56.87 32.50 57.50
  Q 37.06 58.40 39.69 58.02
  C 39.98 57.98 40.18 57.72 40.15 57.44
  Q 39.85 55.19 37.56 53.69"
/>
<path stroke="#e9838b" vector-effect="non-scaling-stroke" d="
  M 40.94 72.47
  Q 42.35 70.64 43.00 68.75
  Q 43.33 67.79 42.79 66.90
  C 42.65 66.66 42.32 66.58 42.03 66.71
  Q 37.44 68.77 33.75 72.16
  Q 32.05 73.72 31.61 75.06
  Q 31.00 76.93 31.87 78.91
  C 32.09 79.41 32.68 79.62 33.18 79.38
  Q 36.09 77.94 38.21 75.69
  Q 39.61 74.20 40.94 72.47"
/>
<path stroke="#e9838b" vector-effect="non-scaling-stroke" d="
  M 56.48 74.78
  C 55.85 74.44 55.08 74.68 54.82 75.30
  L 52.50 80.76
  Q 51.36 83.43 54.26 82.68
  Q 57.05 81.96 58.01 78.96
  Q 58.93 76.09 56.48 74.78"
/>
<path stroke="#e9838b" vector-effect="non-scaling-stroke" d="
  M 67.93 82.09
  Q 70.54 82.68 69.51 80.13
  Q 69.04 78.97 68.74 78.20
  Q 68.03 76.41 66.63 75.09
  C 66.38 74.86 66.05 74.77 65.77 74.87
  Q 63.75 75.58 65.14 79.59
  Q 65.84 81.62 67.93 82.09"
/>
<path stroke="#e9838b" vector-effect="non-scaling-stroke" d="
  M 32.91 123.53
  Q 37.85 124.06 42.50 123.46
  Q 44.18 123.25 45.70 121.97
  Q 47.30 120.62 45.45 119.63
  Q 42.33 117.95 38.84 117.20
  Q 36.10 116.61 34.38 117.53
  Q 32.17 118.72 31.49 121.53
  C 31.26 122.48 31.93 123.42 32.91 123.53"
/>
<path stroke="#ee828a" vector-effect="non-scaling-stroke" d="
  M 73.06 147.60
  Q 76.28 147.84 79.33 148.88
  Q 84.41 150.60 88.82 147.83
  Q 90.82 146.59 93.33 144.85
  Q 95.76 143.17 92.85 142.87
  L 73.92 140.89
  Q 72.09 140.70 71.92 138.93
  Q 71.39 133.49 72.42 126.04
  C 72.48 125.60 72.85 125.27 73.29 125.26
  Q 76.81 125.16 79.94 124.07
  Q 81.14 123.64 81.55 122.81
  Q 82.28 121.32 80.19 120.56
  Q 76.29 119.14 66.24 117.83
  Q 59.25 116.91 57.00 123.26
  Q 56.08 125.83 58.71 125.13
  Q 62.92 124.01 67.87 124.26
  C 68.23 124.28 68.51 124.59 68.50 124.96
  L 68.26 139.32
  C 68.25 139.88 67.88 140.36 67.36 140.48
  Q 63.20 141.43 59.04 142.02
  Q 56.76 142.34 55.80 143.34
  Q 54.34 144.87 54.84 147.12
  C 55.00 147.83 55.75 148.22 56.42 147.94
  Q 61.84 145.67 67.51 145.32
  C 68.05 145.29 68.51 145.71 68.50 146.24
  L 68.27 161.75
  C 68.26 162.09 68.39 162.39 68.62 162.57
  Q 70.36 163.94 71.00 161.50
  Q 72.02 157.57 72.54 148.06
  C 72.55 147.79 72.79 147.58 73.06 147.60"
/>
<path stroke="#ee828a" vector-effect="non-scaling-stroke" d="
  M 28.25 133.36
  C 28.44 133.50 28.67 133.56 28.90 133.55
  Q 38.17 133.03 47.61 132.32
  Q 48.69 132.24 49.25 131.80
  Q 50.35 130.96 49.65 129.86
  Q 49.16 129.10 47.89 128.80
  Q 40.27 127.00 32.47 128.03
  Q 29.81 128.37 27.99 130.23
  Q 26.29 131.95 28.25 133.36"
/>
<path stroke="#e9838b" vector-effect="non-scaling-stroke" d="
  M 64.46 130.34
  Q 63.01 129.92 62.08 131.57
  Q 60.38 134.60 61.21 137.83
  Q 61.60 139.37 62.68 138.20
  Q 64.66 136.04 65.69 132.61
  C 65.99 131.64 65.43 130.62 64.46 130.34"
/>
<path stroke="#e9838b" vector-effect="non-scaling-stroke" d="
  M 75.9963 138.1074
  C 77.09 138.50 78.42 137.61 78.9640 136.1082
  C 79.51 134.61 79.06 133.07 77.9637 132.6726
  C 76.87 132.28 75.54 133.17 74.9960 134.6718
  C 74.45 136.17 74.90 137.71 75.9963 138.1074"
/>
<path stroke="#e9838b" vector-effect="non-scaling-stroke" d="
  M 45.81 136.69
  Q 40.50 135.26 34.70 136.48
  Q 32.41 136.96 32.00 139.27
  C 31.92 139.69 32.28 140.06 32.72 140.03
  L 46.19 139.19
  C 46.53 139.17 46.80 138.99 46.90 138.75
  Q 47.56 137.16 45.81 136.69"
/>
<path stroke="#e9838b" vector-effect="non-scaling-stroke" d="
  M 31.35 144.66
  Q 29.54 147.82 32.72 147.32
  Q 38.72 146.36 44.77 145.81
  Q 44.87 145.81 46.22 145.78
  Q 48.12 145.75 47.30 144.19
  Q 46.89 143.41 45.99 143.11
  Q 44.50 142.62 42.96 142.75
  Q 40.70 142.93 40.01 142.91
  Q 35.71 142.77 31.91 144.18
  C 31.67 144.27 31.47 144.44 31.35 144.66"
/>
<path stroke="#ee828a" vector-effect="non-scaling-stroke" d="
  M 45.67 164.77
  L 48.16 155.56
  Q 48.76 153.36 46.70 152.07
  Q 39.46 147.52 32.23 151.81
  C 31.97 151.97 31.81 152.25 31.81 152.57
  Q 31.87 159.46 33.22 166.21
  C 33.27 166.48 33.52 166.67 33.80 166.64
  L 44.78 165.50
  C 45.21 165.45 45.56 165.16 45.67 164.77"
/>
<path stroke="#e9838b" vector-effect="non-scaling-stroke" d="
  M 66.7783 45.3124
  C 66.80 44.68 66.30 44.16 65.6706 44.1410
  L 55.6345 43.8607
  C 55.01 43.84 54.48 44.34 54.4631 44.9684
  L 54.4017 47.1676
  C 54.38 47.80 54.88 48.32 55.5094 48.3390
  L 65.5455 48.6193
  C 66.17 48.64 66.70 48.14 66.7169 47.5116
  L 66.7783 45.3124"
/>
<path stroke="#e9838b" vector-effect="non-scaling-stroke" d="
  M 66.4935 55.5022
  C 66.50 54.61 65.78 53.88 64.8877 53.8681
  L 56.1681 53.7920
  C 55.27 53.78 54.54 54.50 54.5340 55.3978
  L 54.5265 56.2578
  C 54.52 57.15 55.24 57.88 56.1323 57.8919
  L 64.8519 57.9680
  C 65.75 57.98 66.48 57.26 66.4860 56.3622
  L 66.4935 55.5022"
/>
<path stroke="#e9838b" vector-effect="non-scaling-stroke" d="
  M 65.6437 63.8301
  C 65.63 63.06 64.99 62.44 64.2171 62.4573
  L 56.5985 62.6035
  C 55.83 62.62 55.21 63.26 55.2256 64.0302
  L 55.2563 65.6299
  C 55.27 66.40 55.91 67.02 56.6829 67.0027
  L 64.3015 66.8565
  C 65.07 66.84 65.69 66.20 65.6744 65.4298
  L 65.6437 63.8301"
/>
<path stroke="#ee828a" vector-effect="non-scaling-stroke" d="
  M 45.4226 157.7930
  C 45.39 156.73 44.49 155.89 43.4264 155.9315
  L 37.1303 156.1514
  C 36.06 156.19 35.23 157.08 35.2688 158.1475
  L 35.2974 158.9670
  C 35.33 160.03 36.23 160.87 37.2936 160.8285
  L 43.5897 160.6086
  C 44.66 160.57 45.49 159.68 45.4512 158.6125
  L 45.4226 157.7930"
/>
</g>
<path fill="#ffffff" d="
  M 0.00 0.00
  Q 56.53 0.00 113.06 0.00
  Q 105.30 0.60 100.54 7.19
  C 100.06 7.85 99.15 8.00 98.49 7.53
  Q 96.34 6.01 93.56 5.14
  Q 91.01 4.34 88.48 5.22
  Q 85.08 6.40 81.60 8.75
  Q 79.53 10.15 81.64 11.50
  Q 82.79 12.23 84.33 11.98
  Q 86.09 11.69 86.18 11.68
  Q 91.90 11.22 97.52 10.10
  C 97.82 10.04 98.15 10.09 98.43 10.26
  Q 101.27 11.91 104.51 12.07
  Q 107.00 12.19 108.91 12.66
  Q 113.14 13.70 117.51 12.85
  C 117.80 12.80 118.09 12.93 118.23 13.18
  Q 119.79 16.04 119.92 13.56
  C 119.94 13.27 119.81 12.97 119.56 12.74
  Q 118.22 11.51 119.77 11.10
  C 120.04 11.02 120.37 11.09 120.67 11.28
  Q 123.90 13.28 127.44 10.55
  Q 129.93 8.63 132.00 10.99
  Q 133.03 12.17 135.09 12.43
  Q 136.24 12.58 138.36 12.10
  Q 142.00 11.27 145.75 11.24
  Q 157.00 11.15 168.25 11.41
  Q 169.19 11.44 170.10 11.17
  Q 171.00 10.90 171.90 10.64
  Q 173.25 10.25 174.64 10.44
  Q 177.54 10.85 180.77 11.33
  Q 184.62 11.90 183.29 8.24
  Q 182.37 5.71 178.25 5.70
  Q 175.39 5.68 172.55 5.43
  Q 172.37 5.42 169.08 4.56
  Q 166.64 3.91 163.69 5.19
  Q 162.20 5.83 160.07 5.54
  Q 159.19 5.43 156.80 4.22
  Q 154.22 2.93 151.23 3.63
  C 150.94 3.70 150.62 3.61 150.40 3.40
  Q 146.83 0.12 144.65 5.90
  Q 144.02 7.58 142.50 8.52
  Q 139.89 10.13 139.09 6.66
  C 138.94 6.00 139.41 5.35 140.08 5.29
  Q 143.00 5.01 142.31 2.69
  Q 141.64 0.39 138.00 1.25
  Q 134.69 2.04 131.44 1.46
  Q 128.11 0.87 126.34 0.89
  Q 120.80 0.93 115.31 0.00
  Q 157.66 0.00 200.00 0.00
  Q 200.00 100.00 200.00 200.00
  Q 100.00 200.00 0.00 200.00
  Q 0.00 100.00 0.00 0.00
  Z
  M 60.31 5.69
  L 55.50 4.07
  C 55.27 3.99 54.91 4.04 54.54 4.21
  Q 48.63 6.90 44.06 7.31
  Q 40.39 7.64 41.82 10.49
  C 41.96 10.77 42.24 10.95 42.57 10.97
  Q 47.73 11.26 52.90 11.47
  Q 53.02 11.47 54.58 11.64
  Q 57.63 11.96 59.69 9.44
  Q 62.23 6.33 60.31 5.69
  Z
  M 71.77 8.69
  C 71.77 7.80 71.04 7.07 70.15 7.07
  C 69.26 7.07 68.53 7.80 68.53 8.69
  C 68.53 9.58 69.26 10.31 70.15 10.31
  C 71.04 10.31 71.77 9.58 71.77 8.69
  Z
  M 32.18 12.23
  Q 34.30 12.42 36.31 11.47
  Q 36.71 11.28 37.25 11.26
  Q 39.31 11.16 38.75 8.73
  C 38.59 8.06 37.81 7.78 37.25 8.18
  Q 34.13 10.46 30.61 8.33
  C 30.32 8.15 29.99 8.08 29.69 8.11
  Q 25.62 8.51 21.87 10.13
  Q 21.10 10.46 20.68 10.98
  Q 19.57 12.36 21.19 12.67
  Q 21.77 12.78 22.81 12.64
  Q 25.48 12.27 28.15 12.00
  Q 28.84 11.93 32.18 12.23
  Z
  M 12.74 98.30
  Q 13.08 101.95 12.97 105.61
  Q 12.77 112.45 12.77 112.89
  Q 12.84 128.50 12.78 144.10
  Q 12.75 151.68 11.80 156.33
  Q 10.56 162.39 8.19 168.14
  Q 7.32 170.25 7.15 171.48
  Q 6.92 173.10 7.00 175.00
  Q 7.07 176.55 5.88 177.67
  C 5.62 177.92 5.45 178.21 5.40 178.49
  Q 5.25 179.33 5.32 180.17
  Q 5.46 181.74 5.45 182.34
  Q 5.35 188.47 10.15 192.07
  C 10.93 192.65 12.05 192.27 12.31 191.33
  Q 14.65 182.90 13.37 174.26
  Q 13.23 173.31 13.30 172.73
  Q 13.57 170.36 15.44 172.81
  Q 19.62 178.26 25.82 179.15
  C 26.69 179.27 27.51 179.63 28.19 180.17
  Q 32.84 183.85 37.99 182.46
  Q 40.98 181.66 44.55 179.72
  Q 45.41 179.25 46.37 179.25
  L 140.93 179.31
  C 141.29 179.31 141.61 179.44 141.79 179.66
  L 144.80 183.37
  C 144.99 183.61 145.08 183.94 145.05 184.30
  Q 144.83 187.25 146.39 188.91
  C 146.63 189.16 146.78 189.45 146.82 189.74
  L 147.24 192.70
  C 147.29 193.01 147.51 193.26 147.79 193.33
  Q 150.62 194.00 151.31 190.29
  C 151.44 189.60 152.25 189.30 152.79 189.73
  Q 155.02 191.46 156.92 190.12
  C 157.24 189.90 157.55 189.77 157.81 189.76
  Q 159.44 189.70 159.69 191.31
  Q 160.34 195.67 164.75 194.75
  Q 166.81 194.32 168.15 191.89
  Q 168.76 190.79 169.32 190.58
  Q 170.27 190.22 171.29 191.03
  Q 172.72 192.17 174.16 191.04
  Q 179.73 186.68 186.77 184.24
  Q 187.89 183.86 188.38 183.27
  Q 189.35 182.11 188.43 181.16
  Q 187.77 180.49 186.36 180.40
  Q 180.94 180.04 177.56 182.31
  Q 171.98 186.07 169.69 186.69
  Q 167.84 187.18 166.43 186.05
  Q 165.07 184.97 163.51 185.75
  Q 159.63 187.68 155.94 185.75
  C 155.66 185.60 155.33 185.53 154.99 185.54
  Q 152.96 185.65 151.39 184.55
  C 151.18 184.40 151.16 184.09 151.34 183.89
  Q 153.14 181.90 153.71 179.31
  C 153.77 179.03 154.03 178.83 154.31 178.85
  Q 161.89 179.45 169.48 179.22
  Q 176.89 179.00 180.51 176.91
  Q 187.77 172.72 187.75 162.25
  Q 187.62 98.76 187.51 35.28
  Q 187.50 29.39 186.15 26.44
  Q 184.04 21.82 179.53 19.73
  Q 176.34 18.25 168.74 18.25
  Q 100.86 18.25 32.98 18.25
  Q 25.35 18.25 22.61 19.13
  Q 16.90 20.97 14.40 26.49
  Q 13.00 29.57 12.98 35.73
  Q 12.89 60.99 13.00 86.26
  Q 13.02 90.14 11.80 86.47
  L 8.00 74.99
  Q 7.34 73.00 9.16 71.86
  Q 11.59 70.35 10.88 68.27
  C 10.80 68.03 10.58 67.77 10.27 67.54
  Q 9.18 66.72 9.39 65.59
  Q 9.43 65.36 10.53 63.69
  Q 11.98 61.48 10.22 58.72
  C 9.70 57.91 9.68 56.88 10.16 56.05
  Q 12.41 52.18 10.79 48.11
  Q 9.71 45.42 9.60 44.05
  Q 8.91 35.52 10.57 27.11
  Q 10.58 27.06 11.00 25.41
  Q 11.73 22.56 10.45 20.28
  Q 9.50 18.59 7.74 19.42
  Q 4.56 20.94 1.99 24.02
  Q 0.67 25.62 1.04 27.30
  L 3.22 37.15
  C 3.32 37.61 3.32 38.04 3.20 38.40
  Q 2.70 39.92 2.58 41.24
  Q 2.49 42.14 2.96 44.07
  Q 4.05 48.54 2.34 52.59
  C 2.08 53.20 2.05 53.89 2.26 54.51
  Q 4.42 61.03 2.02 66.84
  Q 1.40 68.36 2.26 69.76
  Q 3.88 72.39 1.93 75.19
  Q 0.66 77.02 2.07 79.01
  L 4.21 82.02
  C 4.53 82.48 4.47 83.11 4.07 83.55
  Q 2.52 85.22 2.15 87.20
  Q 1.95 88.25 2.75 91.06
  Q 3.69 94.35 2.68 97.62
  Q 2.67 97.66 1.51 100.16
  Q 0.33 102.69 0.93 105.56
  Q 1.35 107.62 3.00 108.24
  Q 3.99 108.61 5.99 108.08
  Q 8.04 107.54 9.76 107.29
  C 10.77 107.14 11.52 106.27 11.51 105.24
  Q 11.47 101.11 12.50 98.28
  Q 12.69 97.78 12.74 98.30
  Z
  M 195.81 97.44
  Q 194.16 96.06 194.01 93.49
  C 194.00 93.19 194.12 92.89 194.36 92.65
  Q 199.71 87.35 199.82 79.92
  Q 199.88 76.02 199.82 75.59
  Q 199.47 73.07 196.81 71.94
  Q 194.78 71.07 196.81 69.81
  Q 199.44 68.18 199.82 65.46
  Q 199.85 65.22 199.64 60.52
  Q 199.44 55.89 199.16 51.26
  Q 199.09 50.07 199.50 46.29
  Q 199.83 43.29 198.75 40.41
  C 198.65 40.13 198.42 39.89 198.11 39.74
  Q 196.17 38.78 197.06 36.81
  Q 199.37 31.72 196.72 27.00
  Q 195.60 24.99 195.51 24.82
  Q 194.76 23.42 193.80 22.15
  C 193.61 21.89 193.29 21.78 193.01 21.89
  Q 191.45 22.50 191.94 24.81
  Q 192.28 26.44 191.65 28.52
  Q 190.99 30.71 190.98 32.09
  Q 190.88 43.69 191.15 55.30
  Q 191.15 55.36 190.91 62.69
  Q 190.78 66.60 191.64 70.43
  Q 192.15 72.70 192.03 75.14
  Q 191.83 79.58 193.13 83.87
  Q 193.54 85.23 193.21 86.15
  Q 192.79 87.29 191.92 88.21
  C 191.67 88.47 191.51 88.76 191.45 89.05
  Q 190.18 94.78 193.07 100.87
  C 193.29 101.34 193.22 101.90 192.89 102.30
  Q 190.86 104.77 193.14 107.63
  Q 195.29 110.33 194.03 113.55
  Q 193.06 116.00 193.07 118.57
  Q 193.09 122.79 193.08 122.93
  Q 192.76 129.03 194.25 134.50
  Q 194.83 136.62 196.74 135.89
  C 197.02 135.78 197.23 135.52 197.30 135.19
  Q 198.00 131.74 197.57 128.25
  Q 197.51 127.81 197.18 127.36
  Q 196.28 126.15 196.38 124.68
  C 196.40 124.40 196.58 124.12 196.87 123.92
  Q 198.66 122.72 198.75 121.00
  Q 199.11 114.12 198.58 100.43
  C 198.57 100.10 198.44 99.79 198.22 99.57
  Q 197.52 98.86 195.81 97.44
  Z
  M 7.6428 127.0883
  C 8.57 126.13 8.12 124.18 6.6271 122.7251
  C 5.13 121.27 3.17 120.87 2.2372 121.8317
  C 1.31 122.79 1.76 124.74 3.2529 126.1949
  C 4.75 127.65 6.71 128.05 7.6428 127.0883
  Z
  M 6.7938 136.5014
  C 7.16 135.76 6.78 134.82 5.9470 134.4064
  C 5.11 133.99 4.13 134.26 3.7662 134.9986
  C 3.40 135.74 3.78 136.68 4.6130 137.0936
  C 5.45 137.51 6.43 137.24 6.7938 136.5014
  Z
  M 197.8746 144.1531
  C 198.01 143.38 197.49 142.63 196.7146 142.4965
  L 195.4147 142.2673
  C 194.64 142.13 193.90 142.65 193.7581 143.4273
  L 193.5254 144.7469
  C 193.39 145.52 193.91 146.27 194.6854 146.4035
  L 195.9853 146.6327
  C 196.76 146.77 197.50 146.25 197.6419 145.4727
  L 197.8746 144.1531
  Z
  M 193.4955 155.0189
  C 194.41 154.91 194.98 153.41 194.7790 151.6692
  C 194.58 149.92 193.68 148.60 192.7645 148.7011
  C 191.85 148.81 191.28 150.31 191.4810 152.0508
  C 191.68 153.80 192.58 155.12 193.4955 155.0189
  Z
  M 98.74 194.29
  Q 99.92 192.67 101.50 193.91
  Q 107.01 198.23 109.95 193.17
  C 110.32 192.53 110.03 191.71 109.34 191.44
  Q 107.45 190.70 105.38 190.42
  Q 102.77 190.05 101.74 189.60
  Q 99.90 188.80 98.52 187.60
  C 97.81 186.99 96.74 187.09 96.17 187.82
  Q 95.27 188.97 94.39 189.66
  Q 92.55 191.07 92.43 191.22
  Q 90.89 193.12 91.00 195.86
  C 91.04 196.75 91.96 197.40 92.99 197.27
  L 97.44 196.68
  C 97.75 196.64 97.99 196.45 98.05 196.21
  Q 98.42 194.72 98.74 194.29
  Z
  M 49.87 193.66
  Q 48.40 191.74 46.90 191.01
  C 46.64 190.88 46.30 190.86 45.95 190.96
  Q 42.58 191.90 39.28 190.63
  C 39.02 190.53 38.77 190.30 38.60 189.98
  Q 37.67 188.32 36.00 190.00
  Q 33.70 192.31 30.82 191.35
  Q 28.32 190.51 27.37 190.44
  Q 25.29 190.29 23.22 190.10
  Q 23.17 190.09 20.02 189.32
  Q 17.45 188.70 16.06 191.31
  Q 13.90 195.38 18.47 196.00
  Q 21.55 196.41 24.62 196.93
  Q 25.78 197.12 28.41 197.10
  Q 30.81 197.08 32.19 198.06
  Q 35.08 200.12 38.24 198.41
  C 39.04 197.97 39.97 197.81 40.88 197.97
  Q 47.70 199.14 49.97 195.01
  C 50.21 194.58 50.17 194.06 49.87 193.66
  Z
  M 88.73 190.93
  Q 85.73 190.00 80.57 190.15
  C 80.23 190.16 79.89 190.07 79.58 189.91
  Q 76.79 188.39 73.98 190.18
  Q 71.12 192.02 68.07 191.07
  Q 66.07 190.45 66.01 190.44
  Q 63.32 189.95 60.66 190.86
  Q 58.25 191.68 56.60 189.98
  Q 54.78 188.10 52.82 189.82
  Q 50.19 192.12 52.18 193.57
  Q 52.41 193.73 54.96 194.55
  Q 57.06 195.23 58.32 197.20
  C 58.83 197.99 59.69 198.48 60.62 198.51
  Q 64.06 198.63 67.74 198.71
  Q 67.83 198.72 71.18 199.26
  Q 73.16 199.59 75.50 198.75
  Q 77.69 197.97 80.77 198.64
  C 81.09 198.71 81.42 198.69 81.72 198.59
  Q 88.08 196.47 89.44 195.69
  Q 91.42 194.54 90.76 192.69
  Q 90.30 191.41 88.73 190.93
  Z
  M 123.9562 190.3292
  C 123.93 189.61 123.34 189.05 122.6182 189.0683
  L 121.7786 189.0932
  C 121.06 189.11 120.50 189.71 120.5177 190.4312
  L 120.5438 191.3108
  C 120.57 192.03 121.16 192.59 121.8818 192.5717
  L 122.7214 192.5468
  C 123.44 192.53 124.00 191.93 123.9823 191.2088
  L 123.9562 190.3292
  Z
  M 133.99 192.31
  C 133.99 191.47 133.31 190.79 132.47 190.79
  C 131.63 190.79 130.95 191.47 130.95 192.31
  C 130.95 193.15 131.63 193.83 132.47 193.83
  C 133.31 193.83 133.99 193.15 133.99 192.31
  Z"
/>
<path fill="#dc0415" d="
  M 113.06 0.00
  Q 114.19 0.00 115.31 0.00
  Q 120.80 0.93 126.34 0.89
  Q 128.11 0.87 131.44 1.46
  Q 134.69 2.04 138.00 1.25
  Q 141.64 0.39 142.31 2.69
  Q 143.00 5.01 140.08 5.29
  C 139.41 5.35 138.94 6.00 139.09 6.66
  Q 139.89 10.13 142.50 8.52
  Q 144.02 7.58 144.65 5.90
  Q 146.83 0.12 150.40 3.40
  C 150.62 3.61 150.94 3.70 151.23 3.63
  Q 154.22 2.93 156.80 4.22
  Q 159.19 5.43 160.07 5.54
  Q 162.20 5.83 163.69 5.19
  Q 166.64 3.91 169.08 4.56
  Q 172.37 5.42 172.55 5.43
  Q 175.39 5.68 178.25 5.70
  Q 182.37 5.71 183.29 8.24
  Q 184.62 11.90 180.77 11.33
  Q 177.54 10.85 174.64 10.44
  Q 173.25 10.25 171.90 10.64
  Q 171.00 10.90 170.10 11.17
  Q 169.19 11.44 168.25 11.41
  Q 157.00 11.15 145.75 11.24
  Q 142.00 11.27 138.36 12.10
  Q 136.24 12.58 135.09 12.43
  Q 133.03 12.17 132.00 10.99
  Q 129.93 8.63 127.44 10.55
  Q 123.90 13.28 120.67 11.28
  C 120.37 11.09 120.04 11.02 119.77 11.10
  Q 118.22 11.51 119.56 12.74
  C 119.81 12.97 119.94 13.27 119.92 13.56
  Q 119.79 16.04 118.23 13.18
  C 118.09 12.93 117.80 12.80 117.51 12.85
  Q 113.14 13.70 108.91 12.66
  Q 107.00 12.19 104.51 12.07
  Q 101.27 11.91 98.43 10.26
  C 98.15 10.09 97.82 10.04 97.52 10.10
  Q 91.90 11.22 86.18 11.68
  Q 86.09 11.69 84.33 11.98
  Q 82.79 12.23 81.64 11.50
  Q 79.53 10.15 81.60 8.75
  Q 85.08 6.40 88.48 5.22
  Q 91.01 4.34 93.56 5.14
  Q 96.34 6.01 98.49 7.53
  C 99.15 8.00 100.06 7.85 100.54 7.19
  Q 105.30 0.60 113.06 0.00
  Z"
/>
<path fill="#d20717" d="
  M 60.31 5.69
  Q 62.23 6.33 59.69 9.44
  Q 57.63 11.96 54.58 11.64
  Q 53.02 11.47 52.90 11.47
  Q 47.73 11.26 42.57 10.97
  C 42.24 10.95 41.96 10.77 41.82 10.49
  Q 40.39 7.64 44.06 7.31
  Q 48.63 6.90 54.54 4.21
  C 54.91 4.04 55.27 3.99 55.50 4.07
  L 60.31 5.69
  Z"
/>
<circle fill="#d20717" cx="70.15" cy="8.69" r="1.62"/>
<path fill="#d20717" d="
  M 28.15 12.00
  Q 25.48 12.27 22.81 12.64
  Q 21.77 12.78 21.19 12.67
  Q 19.57 12.36 20.68 10.98
  Q 21.10 10.46 21.87 10.13
  Q 25.62 8.51 29.69 8.11
  C 29.99 8.08 30.32 8.15 30.61 8.33
  Q 34.13 10.46 37.25 8.18
  C 37.81 7.78 38.59 8.06 38.75 8.73
  Q 39.31 11.16 37.25 11.26
  Q 36.71 11.28 36.31 11.47
  Q 34.30 12.42 32.18 12.23
  Q 28.84 11.93 28.15 12.00
  Z"
/>
<path fill="#e50112" d="
  M 12.50 98.28
  Q 11.47 101.11 11.51 105.24
  C 11.52 106.27 10.77 107.14 9.76 107.29
  Q 8.04 107.54 5.99 108.08
  Q 3.99 108.61 3.00 108.24
  Q 1.35 107.62 0.93 105.56
  Q 0.33 102.69 1.51 100.16
  Q 2.67 97.66 2.68 97.62
  Q 3.69 94.35 2.75 91.06
  Q 1.95 88.25 2.15 87.20
  Q 2.52 85.22 4.07 83.55
  C 4.47 83.11 4.53 82.48 4.21 82.02
  L 2.07 79.01
  Q 0.66 77.02 1.93 75.19
  Q 3.88 72.39 2.26 69.76
  Q 1.40 68.36 2.02 66.84
  Q 4.42 61.03 2.26 54.51
  C 2.05 53.89 2.08 53.20 2.34 52.59
  Q 4.05 48.54 2.96 44.07
  Q 2.49 42.14 2.58 41.24
  Q 2.70 39.92 3.20 38.40
  C 3.32 38.04 3.32 37.61 3.22 37.15
  L 1.04 27.30
  Q 0.67 25.62 1.99 24.02
  Q 4.56 20.94 7.74 19.42
  Q 9.50 18.59 10.45 20.28
  Q 11.73 22.56 11.00 25.41
  Q 10.58 27.06 10.57 27.11
  Q 8.91 35.52 9.60 44.05
  Q 9.71 45.42 10.79 48.11
  Q 12.41 52.18 10.16 56.05
  C 9.68 56.88 9.70 57.91 10.22 58.72
  Q 11.98 61.48 10.53 63.69
  Q 9.43 65.36 9.39 65.59
  Q 9.18 66.72 10.27 67.54
  C 10.58 67.77 10.80 68.03 10.88 68.27
  Q 11.59 70.35 9.16 71.86
  Q 7.34 73.00 8.00 74.99
  L 11.80 86.47
  Q 13.02 90.14 13.00 86.26
  Q 12.89 60.99 12.98 35.73
  Q 13.00 29.57 14.40 26.49
  Q 16.90 20.97 22.61 19.13
  Q 25.35 18.25 32.98 18.25
  Q 100.86 18.25 168.74 18.25
  Q 176.34 18.25 179.53 19.73
  Q 184.04 21.82 186.15 26.44
  Q 187.50 29.39 187.51 35.28
  Q 187.62 98.76 187.75 162.25
  Q 187.77 172.72 180.51 176.91
  Q 176.89 179.00 169.48 179.22
  Q 161.89 179.45 154.31 178.85
  C 154.03 178.83 153.77 179.03 153.71 179.31
  Q 153.14 181.90 151.34 183.89
  C 151.16 184.09 151.18 184.40 151.39 184.55
  Q 152.96 185.65 154.99 185.54
  C 155.33 185.53 155.66 185.60 155.94 185.75
  Q 159.63 187.68 163.51 185.75
  Q 165.07 184.97 166.43 186.05
  Q 167.84 187.18 169.69 186.69
  Q 171.98 186.07 177.56 182.31
  Q 180.94 180.04 186.36 180.40
  Q 187.77 180.49 188.43 181.16
  Q 189.35 182.11 188.38 183.27
  Q 187.89 183.86 186.77 184.24
  Q 179.73 186.68 174.16 191.04
  Q 172.72 192.17 171.29 191.03
  Q 170.27 190.22 169.32 190.58
  Q 168.76 190.79 168.15 191.89
  Q 166.81 194.32 164.75 194.75
  Q 160.34 195.67 159.69 191.31
  Q 159.44 189.70 157.81 189.76
  C 157.55 189.77 157.24 189.90 156.92 190.12
  Q 155.02 191.46 152.79 189.73
  C 152.25 189.30 151.44 189.60 151.31 190.29
  Q 150.62 194.00 147.79 193.33
  C 147.51 193.26 147.29 193.01 147.24 192.70
  L 146.82 189.74
  C 146.78 189.45 146.63 189.16 146.39 188.91
  Q 144.83 187.25 145.05 184.30
  C 145.08 183.94 144.99 183.61 144.80 183.37
  L 141.79 179.66
  C 141.61 179.44 141.29 179.31 140.93 179.31
  L 46.37 179.25
  Q 45.41 179.25 44.55 179.72
  Q 40.98 181.66 37.99 182.46
  Q 32.84 183.85 28.19 180.17
  C 27.51 179.63 26.69 179.27 25.82 179.15
  Q 19.62 178.26 15.44 172.81
  Q 13.57 170.36 13.30 172.73
  Q 13.23 173.31 13.37 174.26
  Q 14.65 182.90 12.31 191.33
  C 12.05 192.27 10.93 192.65 10.15 192.07
  Q 5.35 188.47 5.45 182.34
  Q 5.46 181.74 5.32 180.17
  Q 5.25 179.33 5.40 178.49
  C 5.45 178.21 5.62 177.92 5.88 177.67
  Q 7.07 176.55 7.00 175.00
  Q 6.92 173.10 7.15 171.48
  Q 7.32 170.25 8.19 168.14
  Q 10.56 162.39 11.80 156.33
  Q 12.75 151.68 12.78 144.10
  Q 12.84 128.50 12.77 112.89
  Q 12.77 112.45 12.97 105.61
  Q 13.08 101.95 12.74 98.30
  Q 12.69 97.78 12.50 98.28
  Z
  M 20.96 87.50
  Q 19.44 101.72 20.09 115.96
  Q 20.35 121.78 20.19 129.04
  Q 19.98 138.16 21.04 147.25
  L 21.25 173.01
  C 21.25 173.28 21.48 173.50 21.76 173.50
  L 96.94 173.44
  C 97.22 173.44 97.45 173.22 97.46 172.94
  L 98.04 152.25
  Q 99.39 148.68 99.17 144.94
  Q 98.99 141.62 98.99 141.54
  Q 98.87 129.18 98.61 116.83
  Q 98.61 116.74 98.77 112.32
  Q 98.88 109.25 98.04 106.25
  L 97.82 26.70
  C 97.82 26.42 97.59 26.19 97.31 26.18
  Q 59.53 25.31 21.73 26.00
  C 21.33 26.01 21.01 26.33 21.00 26.73
  Q 20.43 57.12 20.96 87.50
  Z
  M 133.46 42.85
  Q 131.52 43.46 128.56 43.56
  Q 123.15 43.76 124.38 49.02
  C 124.44 49.30 124.71 49.49 125.00 49.47
  L 134.17 48.65
  C 134.80 48.59 135.34 49.12 135.31 49.77
  L 135.06 55.11
  C 135.04 55.46 134.76 55.73 134.42 55.74
  Q 131.79 55.77 129.75 56.56
  Q 128.23 57.15 127.45 58.24
  Q 126.26 59.87 127.93 60.96
  Q 128.73 61.49 130.20 61.58
  Q 131.80 61.68 133.55 61.76
  C 134.49 61.81 135.29 62.44 135.56 63.33
  Q 137.44 69.62 132.00 69.50
  Q 129.94 69.46 120.41 71.38
  Q 117.58 71.96 117.02 73.48
  Q 116.37 75.27 117.44 78.18
  C 117.67 78.81 118.34 79.16 118.99 79.00
  Q 127.18 76.93 135.49 75.45
  Q 138.80 74.85 141.00 75.50
  Q 149.81 78.09 158.77 80.14
  C 159.08 80.21 159.42 80.19 159.73 80.09
  Q 166.27 77.91 171.64 74.15
  Q 173.36 72.94 171.27 72.75
  Q 164.90 72.18 158.75 70.50
  Q 151.90 68.62 139.75 68.50
  C 139.42 68.50 139.15 68.29 139.13 68.02
  L 138.82 62.58
  C 138.78 61.98 139.32 61.48 139.98 61.50
  Q 143.78 61.56 146.95 60.18
  Q 149.24 59.18 146.99 58.10
  Q 143.65 56.49 139.56 55.77
  C 139.22 55.71 138.97 55.47 138.96 55.20
  L 138.90 49.39
  C 138.89 48.92 139.34 48.56 139.85 48.62
  Q 145.65 49.28 150.46 48.83
  Q 151.44 48.74 151.95 48.35
  Q 152.84 47.67 152.46 46.67
  Q 152.15 45.88 150.99 45.45
  Q 145.81 43.53 140.47 43.02
  C 139.97 42.97 139.63 42.50 139.75 42.01
  Q 140.13 40.40 140.00 38.81
  Q 139.85 36.97 139.50 35.69
  Q 138.45 31.89 133.61 34.09
  Q 130.89 35.32 132.48 37.85
  Q 133.56 39.58 133.88 42.19
  C 133.92 42.48 133.74 42.76 133.46 42.85
  Z
  M 122.68 122.42
  Q 118.88 122.31 115.40 123.74
  C 115.10 123.86 114.85 124.09 114.70 124.38
  Q 113.15 127.35 113.24 130.57
  C 113.26 131.21 113.87 131.66 114.48 131.49
  Q 119.05 130.25 123.45 131.20
  C 123.75 131.27 123.97 131.51 123.99 131.81
  Q 124.31 135.78 121.94 138.44
  Q 116.12 144.96 107.29 151.03
  Q 105.73 152.10 105.86 153.81
  C 105.88 154.11 106.10 154.37 106.40 154.47
  Q 108.97 155.29 110.94 154.19
  Q 117.49 150.54 122.34 144.49
  Q 123.93 142.52 124.01 145.05
  Q 124.20 150.90 123.37 156.98
  Q 123.05 159.33 124.82 159.15
  C 125.12 159.12 125.41 158.93 125.59 158.64
  Q 127.35 155.86 127.50 153.00
  Q 127.83 146.79 127.81 141.35
  C 127.81 140.75 128.42 140.35 128.98 140.58
  Q 132.14 141.89 132.68 140.35
  Q 133.02 139.37 132.01 137.86
  Q 130.49 135.59 128.64 133.55
  C 128.40 133.29 128.26 132.98 128.25 132.69
  Q 128.17 131.23 129.74 131.79
  Q 132.37 132.72 134.35 131.23
  Q 135.45 130.40 136.25 129.37
  Q 137.37 127.93 136.54 126.54
  Q 135.91 125.47 133.91 124.65
  Q 131.42 123.63 129.60 123.31
  Q 127.24 122.90 127.25 120.50
  Q 127.26 115.94 124.94 115.90
  C 124.64 115.89 124.38 116.11 124.32 116.41
  L 123.26 121.94
  C 123.21 122.22 122.96 122.43 122.68 122.42
  Z
  M 183.19 153.48
  Q 172.29 152.39 163.15 147.13
  Q 160.59 145.66 160.20 143.08
  Q 160.18 142.97 160.18 138.42
  Q 160.17 133.83 161.24 129.39
  Q 161.94 126.51 161.82 125.56
  Q 161.52 123.31 159.31 122.19
  Q 152.31 118.64 144.90 122.48
  Q 142.08 123.94 142.70 127.26
  Q 143.07 129.21 143.64 131.12
  Q 144.25 133.17 144.00 134.96
  Q 142.97 142.28 140.49 150.74
  Q 139.94 152.60 141.56 153.69
  Q 142.24 154.15 143.16 153.27
  Q 143.65 152.81 143.98 151.96
  Q 147.76 142.24 147.32 131.75
  Q 147.18 128.59 150.75 128.25
  Q 153.76 127.96 155.20 128.20
  C 155.49 128.25 155.71 128.50 155.74 128.81
  Q 156.22 133.15 155.78 137.50
  Q 155.14 143.83 157.60 149.39
  Q 158.85 152.21 161.58 154.10
  Q 165.48 156.78 169.95 158.34
  Q 173.31 159.51 176.12 158.67
  Q 180.03 157.52 183.44 154.20
  Q 184.09 153.57 183.19 153.48
  Z"
/>
<path fill="#dc0415" d="
  M 195.81 97.44
  Q 197.52 98.86 198.22 99.57
  C 198.44 99.79 198.57 100.10 198.58 100.43
  Q 199.11 114.12 198.75 121.00
  Q 198.66 122.72 196.87 123.92
  C 196.58 124.12 196.40 124.40 196.38 124.68
  Q 196.28 126.15 197.18 127.36
  Q 197.51 127.81 197.57 128.25
  Q 198.00 131.74 197.30 135.19
  C 197.23 135.52 197.02 135.78 196.74 135.89
  Q 194.83 136.62 194.25 134.50
  Q 192.76 129.03 193.08 122.93
  Q 193.09 122.79 193.07 118.57
  Q 193.06 116.00 194.03 113.55
  Q 195.29 110.33 193.14 107.63
  Q 190.86 104.77 192.89 102.30
  C 193.22 101.90 193.29 101.34 193.07 100.87
  Q 190.18 94.78 191.45 89.05
  C 191.51 88.76 191.67 88.47 191.92 88.21
  Q 192.79 87.29 193.21 86.15
  Q 193.54 85.23 193.13 83.87
  Q 191.83 79.58 192.03 75.14
  Q 192.15 72.70 191.64 70.43
  Q 190.78 66.60 190.91 62.69
  Q 191.15 55.36 191.15 55.30
  Q 190.88 43.69 190.98 32.09
  Q 190.99 30.71 191.65 28.52
  Q 192.28 26.44 191.94 24.81
  Q 191.45 22.50 193.01 21.89
  C 193.29 21.78 193.61 21.89 193.80 22.15
  Q 194.76 23.42 195.51 24.82
  Q 195.60 24.99 196.72 27.00
  Q 199.37 31.72 197.06 36.81
  Q 196.17 38.78 198.11 39.74
  C 198.42 39.89 198.65 40.13 198.75 40.41
  Q 199.83 43.29 199.50 46.29
  Q 199.09 50.07 199.16 51.26
  Q 199.44 55.89 199.64 60.52
  Q 199.85 65.22 199.82 65.46
  Q 199.44 68.18 196.81 69.81
  Q 194.78 71.07 196.81 71.94
  Q 199.47 73.07 199.82 75.59
  Q 199.88 76.02 199.82 79.92
  Q 199.71 87.35 194.36 92.65
  C 194.12 92.89 194.00 93.19 194.01 93.49
  Q 194.16 96.06 195.81 97.44
  Z"
/>
<path fill="#ffffff" d="
  M 98.04 106.25
  Q 97.99 111.92 97.99 117.59
  Q 97.99 121.59 97.56 128.90
  Q 96.87 140.58 98.04 152.25
  L 97.46 172.94
  C 97.45 173.22 97.22 173.44 96.94 173.44
  L 21.76 173.50
  C 21.48 173.50 21.25 173.28 21.25 173.01
  L 21.04 147.25
  Q 21.24 145.65 21.49 144.08
  Q 21.75 142.42 21.78 140.90
  Q 21.99 130.20 22.50 119.50
  Q 22.87 111.81 20.96 87.50
  Q 20.43 57.12 21.00 26.73
  C 21.01 26.33 21.33 26.01 21.73 26.00
  Q 59.53 25.31 97.31 26.18
  C 97.59 26.19 97.82 26.42 97.82 26.70
  L 98.04 106.25
  Z
  M 36.94 42.81
  Q 37.72 43.06 40.64 45.62
  Q 41.84 46.67 42.72 46.86
  Q 45.00 47.35 43.94 43.56
  Q 42.00 36.66 35.47 36.46
  Q 33.67 36.41 32.88 37.44
  Q 31.81 38.83 33.19 40.81
  Q 33.92 41.87 36.94 42.81
  Z
  M 68.79 39.07
  Q 65.07 36.94 61.00 36.89
  Q 56.86 36.84 52.73 37.25
  C 51.93 37.33 51.30 37.97 51.22 38.77
  Q 50.52 46.36 50.93 54.24
  Q 51.33 61.84 51.57 69.67
  C 51.60 70.64 52.38 71.43 53.36 71.47
  Q 58.03 71.65 63.24 71.19
  Q 65.94 70.96 67.09 70.23
  Q 68.98 69.02 69.25 66.50
  Q 70.58 54.19 70.68 42.36
  Q 70.70 40.16 68.79 39.07
  Z
  M 90.01 37.03
  Q 88.25 36.55 86.62 37.92
  C 86.39 38.11 86.29 38.42 86.35 38.73
  Q 87.45 44.42 87.50 51.75
  Q 87.60 64.75 87.10 73.86
  Q 86.98 76.02 86.54 77.07
  Q 85.86 78.72 84.44 79.69
  Q 82.36 81.10 76.49 84.28
  Q 74.97 85.10 75.95 85.90
  Q 76.38 86.25 77.16 86.30
  Q 86.63 86.91 90.34 79.71
  Q 91.92 76.64 92.10 70.38
  Q 92.52 55.49 92.02 39.60
  Q 91.96 37.57 90.01 37.03
  Z
  M 79.30 47.18
  Q 78.07 46.35 77.98 47.83
  Q 77.35 58.00 78.51 68.44
  C 78.54 68.73 78.80 68.94 79.07 68.90
  Q 81.05 68.64 81.50 66.75
  Q 83.23 59.56 81.54 51.76
  Q 81.05 49.47 80.97 49.25
  Q 80.49 47.99 79.30 47.18
  Z
  M 37.56 53.69
  Q 33.71 51.15 30.21 53.52
  C 29.94 53.71 29.75 53.99 29.70 54.30
  Q 29.28 56.87 32.50 57.50
  Q 37.06 58.40 39.69 58.02
  C 39.98 57.98 40.18 57.72 40.15 57.44
  Q 39.85 55.19 37.56 53.69
  Z
  M 40.94 72.47
  Q 42.35 70.64 43.00 68.75
  Q 43.33 67.79 42.79 66.90
  C 42.65 66.66 42.32 66.58 42.03 66.71
  Q 37.44 68.77 33.75 72.16
  Q 32.05 73.72 31.61 75.06
  Q 31.00 76.93 31.87 78.91
  C 32.09 79.41 32.68 79.62 33.18 79.38
  Q 36.09 77.94 38.21 75.69
  Q 39.61 74.20 40.94 72.47
  Z
  M 56.48 74.78
  C 55.85 74.44 55.08 74.68 54.82 75.30
  L 52.50 80.76
  Q 51.36 83.43 54.26 82.68
  Q 57.05 81.96 58.01 78.96
  Q 58.93 76.09 56.48 74.78
  Z
  M 67.93 82.09
  Q 70.54 82.68 69.51 80.13
  Q 69.04 78.97 68.74 78.20
  Q 68.03 76.41 66.63 75.09
  C 66.38 74.86 66.05 74.77 65.77 74.87
  Q 63.75 75.58 65.14 79.59
  Q 65.84 81.62 67.93 82.09
  Z
  M 32.91 123.53
  Q 37.85 124.06 42.50 123.46
  Q 44.18 123.25 45.70 121.97
  Q 47.30 120.62 45.45 119.63
  Q 42.33 117.95 38.84 117.20
  Q 36.10 116.61 34.38 117.53
  Q 32.17 118.72 31.49 121.53
  C 31.26 122.48 31.93 123.42 32.91 123.53
  Z
  M 73.06 147.60
  Q 76.28 147.84 79.33 148.88
  Q 84.41 150.60 88.82 147.83
  Q 90.82 146.59 93.33 144.85
  Q 95.76 143.17 92.85 142.87
  L 73.92 140.89
  Q 72.09 140.70 71.92 138.93
  Q 71.39 133.49 72.42 126.04
  C 72.48 125.60 72.85 125.27 73.29 125.26
  Q 76.81 125.16 79.94 124.07
  Q 81.14 123.64 81.55 122.81
  Q 82.28 121.32 80.19 120.56
  Q 76.29 119.14 66.24 117.83
  Q 59.25 116.91 57.00 123.26
  Q 56.08 125.83 58.71 125.13
  Q 62.92 124.01 67.87 124.26
  C 68.23 124.28 68.51 124.59 68.50 124.96
  L 68.26 139.32
  C 68.25 139.88 67.88 140.36 67.36 140.48
  Q 63.20 141.43 59.04 142.02
  Q 56.76 142.34 55.80 143.34
  Q 54.34 144.87 54.84 147.12
  C 55.00 147.83 55.75 148.22 56.42 147.94
  Q 61.84 145.67 67.51 145.32
  C 68.05 145.29 68.51 145.71 68.50 146.24
  L 68.27 161.75
  C 68.26 162.09 68.39 162.39 68.62 162.57
  Q 70.36 163.94 71.00 161.50
  Q 72.02 157.57 72.54 148.06
  C 72.55 147.79 72.79 147.58 73.06 147.60
  Z
  M 28.25 133.36
  C 28.44 133.50 28.67 133.56 28.90 133.55
  Q 38.17 133.03 47.61 132.32
  Q 48.69 132.24 49.25 131.80
  Q 50.35 130.96 49.65 129.86
  Q 49.16 129.10 47.89 128.80
  Q 40.27 127.00 32.47 128.03
  Q 29.81 128.37 27.99 130.23
  Q 26.29 131.95 28.25 133.36
  Z
  M 64.46 130.34
  Q 63.01 129.92 62.08 131.57
  Q 60.38 134.60 61.21 137.83
  Q 61.60 139.37 62.68 138.20
  Q 64.66 136.04 65.69 132.61
  C 65.99 131.64 65.43 130.62 64.46 130.34
  Z
  M 75.9963 138.1074
  C 77.09 138.50 78.42 137.61 78.9640 136.1082
  C 79.51 134.61 79.06 133.07 77.9637 132.6726
  C 76.87 132.28 75.54 133.17 74.9960 134.6718
  C 74.45 136.17 74.90 137.71 75.9963 138.1074
  Z
  M 45.81 136.69
  Q 40.50 135.26 34.70 136.48
  Q 32.41 136.96 32.00 139.27
  C 31.92 139.69 32.28 140.06 32.72 140.03
  L 46.19 139.19
  C 46.53 139.17 46.80 138.99 46.90 138.75
  Q 47.56 137.16 45.81 136.69
  Z
  M 31.35 144.66
  Q 29.54 147.82 32.72 147.32
  Q 38.72 146.36 44.77 145.81
  Q 44.87 145.81 46.22 145.78
  Q 48.12 145.75 47.30 144.19
  Q 46.89 143.41 45.99 143.11
  Q 44.50 142.62 42.96 142.75
  Q 40.70 142.93 40.01 142.91
  Q 35.71 142.77 31.91 144.18
  C 31.67 144.27 31.47 144.44 31.35 144.66
  Z
  M 45.67 164.77
  L 48.16 155.56
  Q 48.76 153.36 46.70 152.07
  Q 39.46 147.52 32.23 151.81
  C 31.97 151.97 31.81 152.25 31.81 152.57
  Q 31.87 159.46 33.22 166.21
  C 33.27 166.48 33.52 166.67 33.80 166.64
  L 44.78 165.50
  C 45.21 165.45 45.56 165.16 45.67 164.77
  Z"
/>
<path fill="#ffffff" d="
  M 133.88 42.19
  Q 133.56 39.58 132.48 37.85
  Q 130.89 35.32 133.61 34.09
  Q 138.45 31.89 139.50 35.69
  Q 139.85 36.97 140.00 38.81
  Q 140.13 40.40 139.75 42.01
  C 139.63 42.50 139.97 42.97 140.47 43.02
  Q 145.81 43.53 150.99 45.45
  Q 152.15 45.88 152.46 46.67
  Q 152.84 47.67 151.95 48.35
  Q 151.44 48.74 150.46 48.83
  Q 145.65 49.28 139.85 48.62
  C 139.34 48.56 138.89 48.92 138.90 49.39
  L 138.96 55.20
  C 138.97 55.47 139.22 55.71 139.56 55.77
  Q 143.65 56.49 146.99 58.10
  Q 149.24 59.18 146.95 60.18
  Q 143.78 61.56 139.98 61.50
  C 139.32 61.48 138.78 61.98 138.82 62.58
  L 139.13 68.02
  C 139.15 68.29 139.42 68.50 139.75 68.50
  Q 151.90 68.62 158.75 70.50
  Q 164.90 72.18 171.27 72.75
  Q 173.36 72.94 171.64 74.15
  Q 166.27 77.91 159.73 80.09
  C 159.42 80.19 159.08 80.21 158.77 80.14
  Q 149.81 78.09 141.00 75.50
  Q 138.80 74.85 135.49 75.45
  Q 127.18 76.93 118.99 79.00
  C 118.34 79.16 117.67 78.81 117.44 78.18
  Q 116.37 75.27 117.02 73.48
  Q 117.58 71.96 120.41 71.38
  Q 129.94 69.46 132.00 69.50
  Q 137.44 69.62 135.56 63.33
  C 135.29 62.44 134.49 61.81 133.55 61.76
  Q 131.80 61.68 130.20 61.58
  Q 128.73 61.49 127.93 60.96
  Q 126.26 59.87 127.45 58.24
  Q 128.23 57.15 129.75 56.56
  Q 131.79 55.77 134.42 55.74
  C 134.76 55.73 135.04 55.46 135.06 55.11
  L 135.31 49.77
  C 135.34 49.12 134.80 48.59 134.17 48.65
  L 125.00 49.47
  C 124.71 49.49 124.44 49.30 124.38 49.02
  Q 123.15 43.76 128.56 43.56
  Q 131.52 43.46 133.46 42.85
  C 133.74 42.76 133.92 42.48 133.88 42.19
  Z"
/>
<path fill="#d20717" d="
  M 36.94 42.81
  Q 33.92 41.87 33.19 40.81
  Q 31.81 38.83 32.88 37.44
  Q 33.67 36.41 35.47 36.46
  Q 42.00 36.66 43.94 43.56
  Q 45.00 47.35 42.72 46.86
  Q 41.84 46.67 40.64 45.62
  Q 37.72 43.06 36.94 42.81
  Z"
/>
<path fill="#d20717" d="
  M 68.79 39.07
  Q 70.70 40.16 70.68 42.36
  Q 70.58 54.19 69.25 66.50
  Q 68.98 69.02 67.09 70.23
  Q 65.94 70.96 63.24 71.19
  Q 58.03 71.65 53.36 71.47
  C 52.38 71.43 51.60 70.64 51.57 69.67
  Q 51.33 61.84 50.93 54.24
  Q 50.52 46.36 51.22 38.77
  C 51.30 37.97 51.93 37.33 52.73 37.25
  Q 56.86 36.84 61.00 36.89
  Q 65.07 36.94 68.79 39.07
  Z
  M 66.7783 45.3124
  C 66.80 44.68 66.30 44.16 65.6706 44.1410
  L 55.6345 43.8607
  C 55.01 43.84 54.48 44.34 54.4631 44.9684
  L 54.4017 47.1676
  C 54.38 47.80 54.88 48.32 55.5094 48.3390
  L 65.5455 48.6193
  C 66.17 48.64 66.70 48.14 66.7169 47.5116
  L 66.7783 45.3124
  Z
  M 66.4935 55.5022
  C 66.50 54.61 65.78 53.88 64.8877 53.8681
  L 56.1681 53.7920
  C 55.27 53.78 54.54 54.50 54.5340 55.3978
  L 54.5265 56.2578
  C 54.52 57.15 55.24 57.88 56.1323 57.8919
  L 64.8519 57.9680
  C 65.75 57.98 66.48 57.26 66.4860 56.3622
  L 66.4935 55.5022
  Z
  M 65.6437 63.8301
  C 65.63 63.06 64.99 62.44 64.2171 62.4573
  L 56.5985 62.6035
  C 55.83 62.62 55.21 63.26 55.2256 64.0302
  L 55.2563 65.6299
  C 55.27 66.40 55.91 67.02 56.6829 67.0027
  L 64.3015 66.8565
  C 65.07 66.84 65.69 66.20 65.6744 65.4298
  L 65.6437 63.8301
  Z"
/>
<path fill="#d20717" d="
  M 90.01 37.03
  Q 91.96 37.57 92.02 39.60
  Q 92.52 55.49 92.10 70.38
  Q 91.92 76.64 90.34 79.71
  Q 86.63 86.91 77.16 86.30
  Q 76.38 86.25 75.95 85.90
  Q 74.97 85.10 76.49 84.28
  Q 82.36 81.10 84.44 79.69
  Q 85.86 78.72 86.54 77.07
  Q 86.98 76.02 87.10 73.86
  Q 87.60 64.75 87.50 51.75
  Q 87.45 44.42 86.35 38.73
  C 86.29 38.42 86.39 38.11 86.62 37.92
  Q 88.25 36.55 90.01 37.03
  Z"
/>
<rect fill="#ffffff" x="-6.16" y="-2.24" transform="translate(60.59,46.24) rotate(1.6)" width="12.32" height="4.48" rx="1.14"/>
<path fill="#d20717" d="
  M 79.30 47.18
  Q 80.49 47.99 80.97 49.25
  Q 81.05 49.47 81.54 51.76
  Q 83.23 59.56 81.50 66.75
  Q 81.05 68.64 79.07 68.90
  C 78.80 68.94 78.54 68.73 78.51 68.44
  Q 77.35 58.00 77.98 47.83
  Q 78.07 46.35 79.30 47.18
  Z"
/>
<path fill="#d20717" d="
  M 37.56 53.69
  Q 39.85 55.19 40.15 57.44
  C 40.18 57.72 39.98 57.98 39.69 58.02
  Q 37.06 58.40 32.50 57.50
  Q 29.28 56.87 29.70 54.30
  C 29.75 53.99 29.94 53.71 30.21 53.52
  Q 33.71 51.15 37.56 53.69
  Z"
/>
<rect fill="#ffffff" x="-5.98" y="-2.05" transform="translate(60.51,55.88) rotate(0.5)" width="11.96" height="4.10" rx="1.62"/>
<rect fill="#ffffff" x="-5.21" y="-2.20" transform="translate(60.45,64.73) rotate(-1.1)" width="10.42" height="4.40" rx="1.40"/>
<path fill="#d20717" d="
  M 38.21 75.69
  Q 36.09 77.94 33.18 79.38
  C 32.68 79.62 32.09 79.41 31.87 78.91
  Q 31.00 76.93 31.61 75.06
  Q 32.05 73.72 33.75 72.16
  Q 37.44 68.77 42.03 66.71
  C 42.32 66.58 42.65 66.66 42.79 66.90
  Q 43.33 67.79 43.00 68.75
  Q 42.35 70.64 40.94 72.47
  Q 39.61 74.20 38.21 75.69
  Z"
/>
<path fill="#d20717" d="
  M 56.48 74.78
  Q 58.93 76.09 58.01 78.96
  Q 57.05 81.96 54.26 82.68
  Q 51.36 83.43 52.50 80.76
  L 54.82 75.30
  C 55.08 74.68 55.85 74.44 56.48 74.78
  Z"
/>
<path fill="#d20717" d="
  M 67.93 82.09
  Q 65.84 81.62 65.14 79.59
  Q 63.75 75.58 65.77 74.87
  C 66.05 74.77 66.38 74.86 66.63 75.09
  Q 68.03 76.41 68.74 78.20
  Q 69.04 78.97 69.51 80.13
  Q 70.54 82.68 67.93 82.09
  Z"
/>
<path fill="#fa9da1" d="
  M 20.96 87.50
  Q 22.87 111.81 22.50 119.50
  Q 21.99 130.20 21.78 140.90
  Q 21.75 142.42 21.49 144.08
  Q 21.24 145.65 21.04 147.25
  Q 19.98 138.16 20.19 129.04
  Q 20.35 121.78 20.09 115.96
  Q 19.44 101.72 20.96 87.50
  Z"
/>
<path fill="#f46270" d="
  M 98.04 106.25
  Q 98.88 109.25 98.77 112.32
  Q 98.61 116.74 98.61 116.83
  Q 98.87 129.18 98.99 141.54
  Q 98.99 141.62 99.17 144.94
  Q 99.39 148.68 98.04 152.25
  Q 96.87 140.58 97.56 128.90
  Q 97.99 121.59 97.99 117.59
  Q 97.99 111.92 98.04 106.25
  Z"
/>
<path fill="#ffffff" d="
  M 123.26 121.94
  L 124.32 116.41
  C 124.38 116.11 124.64 115.89 124.94 115.90
  Q 127.26 115.94 127.25 120.50
  Q 127.24 122.90 129.60 123.31
  Q 131.42 123.63 133.91 124.65
  Q 135.91 125.47 136.54 126.54
  Q 137.37 127.93 136.25 129.37
  Q 135.45 130.40 134.35 131.23
  Q 132.37 132.72 129.74 131.79
  Q 128.17 131.23 128.25 132.69
  C 128.26 132.98 128.40 133.29 128.64 133.55
  Q 130.49 135.59 132.01 137.86
  Q 133.02 139.37 132.68 140.35
  Q 132.14 141.89 128.98 140.58
  C 128.42 140.35 127.81 140.75 127.81 141.35
  Q 127.83 146.79 127.50 153.00
  Q 127.35 155.86 125.59 158.64
  C 125.41 158.93 125.12 159.12 124.82 159.15
  Q 123.05 159.33 123.37 156.98
  Q 124.20 150.90 124.01 145.05
  Q 123.93 142.52 122.34 144.49
  Q 117.49 150.54 110.94 154.19
  Q 108.97 155.29 106.40 154.47
  C 106.10 154.37 105.88 154.11 105.86 153.81
  Q 105.73 152.10 107.29 151.03
  Q 116.12 144.96 121.94 138.44
  Q 124.31 135.78 123.99 131.81
  C 123.97 131.51 123.75 131.27 123.45 131.20
  Q 119.05 130.25 114.48 131.49
  C 113.87 131.66 113.26 131.21 113.24 130.57
  Q 113.15 127.35 114.70 124.38
  C 114.85 124.09 115.10 123.86 115.40 123.74
  Q 118.88 122.31 122.68 122.42
  C 122.96 122.43 123.21 122.22 123.26 121.94
  Z"
/>
<path fill="#d20717" d="
  M 32.91 123.53
  C 31.93 123.42 31.26 122.48 31.49 121.53
  Q 32.17 118.72 34.38 117.53
  Q 36.10 116.61 38.84 117.20
  Q 42.33 117.95 45.45 119.63
  Q 47.30 120.62 45.70 121.97
  Q 44.18 123.25 42.50 123.46
  Q 37.85 124.06 32.91 123.53
  Z"
/>
<path fill="#dc0415" d="
  M 72.54 148.06
  Q 72.02 157.57 71.00 161.50
  Q 70.36 163.94 68.62 162.57
  C 68.39 162.39 68.26 162.09 68.27 161.75
  L 68.50 146.24
  C 68.51 145.71 68.05 145.29 67.51 145.32
  Q 61.84 145.67 56.42 147.94
  C 55.75 148.22 55.00 147.83 54.84 147.12
  Q 54.34 144.87 55.80 143.34
  Q 56.76 142.34 59.04 142.02
  Q 63.20 141.43 67.36 140.48
  C 67.88 140.36 68.25 139.88 68.26 139.32
  L 68.50 124.96
  C 68.51 124.59 68.23 124.28 67.87 124.26
  Q 62.92 124.01 58.71 125.13
  Q 56.08 125.83 57.00 123.26
  Q 59.25 116.91 66.24 117.83
  Q 76.29 119.14 80.19 120.56
  Q 82.28 121.32 81.55 122.81
  Q 81.14 123.64 79.94 124.07
  Q 76.81 125.16 73.29 125.26
  C 72.85 125.27 72.48 125.60 72.42 126.04
  Q 71.39 133.49 71.92 138.93
  Q 72.09 140.70 73.92 140.89
  L 92.85 142.87
  Q 95.76 143.17 93.33 144.85
  Q 90.82 146.59 88.82 147.83
  Q 84.41 150.60 79.33 148.88
  Q 76.28 147.84 73.06 147.60
  C 72.79 147.58 72.55 147.79 72.54 148.06
  Z"
/>
<path fill="#ffffff" d="
  M 183.19 153.48
  Q 184.09 153.57 183.44 154.20
  Q 180.03 157.52 176.12 158.67
  Q 173.31 159.51 169.95 158.34
  Q 165.48 156.78 161.58 154.10
  Q 158.85 152.21 157.60 149.39
  Q 155.14 143.83 155.78 137.50
  Q 156.22 133.15 155.74 128.81
  C 155.71 128.50 155.49 128.25 155.20 128.20
  Q 153.76 127.96 150.75 128.25
  Q 147.18 128.59 147.32 131.75
  Q 147.76 142.24 143.98 151.96
  Q 143.65 152.81 143.16 153.27
  Q 142.24 154.15 141.56 153.69
  Q 139.94 152.60 140.49 150.74
  Q 142.97 142.28 144.00 134.96
  Q 144.25 133.17 143.64 131.12
  Q 143.07 129.21 142.70 127.26
  Q 142.08 123.94 144.90 122.48
  Q 152.31 118.64 159.31 122.19
  Q 161.52 123.31 161.82 125.56
  Q 161.94 126.51 161.24 129.39
  Q 160.17 133.83 160.18 138.42
  Q 160.18 142.97 160.20 143.08
  Q 160.59 145.66 163.15 147.13
  Q 172.29 152.39 183.19 153.48
  Z"
/>
<ellipse fill="#d20717" cx="0.00" cy="0.00" transform="translate(4.94,124.46) rotate(44.2)" rx="3.77" ry="2.42"/>
<path fill="#dc0415" d="
  M 28.25 133.36
  Q 26.29 131.95 27.99 130.23
  Q 29.81 128.37 32.47 128.03
  Q 40.27 127.00 47.89 128.80
  Q 49.16 129.10 49.65 129.86
  Q 50.35 130.96 49.25 131.80
  Q 48.69 132.24 47.61 132.32
  Q 38.17 133.03 28.90 133.55
  C 28.67 133.56 28.44 133.50 28.25 133.36
  Z"
/>
<path fill="#d20717" d="
  M 64.46 130.34
  C 65.43 130.62 65.99 131.64 65.69 132.61
  Q 64.66 136.04 62.68 138.20
  Q 61.60 139.37 61.21 137.83
  Q 60.38 134.60 62.08 131.57
  Q 63.01 129.92 64.46 130.34
  Z"
/>
<ellipse fill="#d20717" cx="0.00" cy="0.00" transform="translate(76.98,135.39) rotate(109.9)" rx="2.89" ry="2.11"/>
<ellipse fill="#f46270" cx="0.00" cy="0.00" transform="translate(5.28,135.75) rotate(26.4)" rx="1.69" ry="1.50"/>
<path fill="#d20717" d="
  M 45.81 136.69
  Q 47.56 137.16 46.90 138.75
  C 46.80 138.99 46.53 139.17 46.19 139.19
  L 32.72 140.03
  C 32.28 140.06 31.92 139.69 32.00 139.27
  Q 32.41 136.96 34.70 136.48
  Q 40.50 135.26 45.81 136.69
  Z"
/>
<rect fill="#d20717" x="-2.09" y="-2.10" transform="translate(195.70,144.45) rotate(10.0)" width="4.18" height="4.20" rx="1.43"/>
<path fill="#d20717" d="
  M 31.35 144.66
  C 31.47 144.44 31.67 144.27 31.91 144.18
  Q 35.71 142.77 40.01 142.91
  Q 40.70 142.93 42.96 142.75
  Q 44.50 142.62 45.99 143.11
  Q 46.89 143.41 47.30 144.19
  Q 48.12 145.75 46.22 145.78
  Q 44.87 145.81 44.77 145.81
  Q 38.72 146.36 32.72 147.32
  Q 29.54 147.82 31.35 144.66
  Z"
/>
<ellipse fill="#d20717" cx="0.00" cy="0.00" transform="translate(193.13,151.86) rotate(83.4)" rx="3.18" ry="1.66"/>
<path fill="#dc0415" d="
  M 45.67 164.77
  C 45.56 165.16 45.21 165.45 44.78 165.50
  L 33.80 166.64
  C 33.52 166.67 33.27 166.48 33.22 166.21
  Q 31.87 159.46 31.81 152.57
  C 31.81 152.25 31.97 151.97 32.23 151.81
  Q 39.46 147.52 46.70 152.07
  Q 48.76 153.36 48.16 155.56
  L 45.67 164.77
  Z
  M 45.4226 157.7930
  C 45.39 156.73 44.49 155.89 43.4264 155.9315
  L 37.1303 156.1514
  C 36.06 156.19 35.23 157.08 35.2688 158.1475
  L 35.2974 158.9670
  C 35.33 160.03 36.23 160.87 37.2936 160.8285
  L 43.5897 160.6086
  C 44.66 160.57 45.49 159.68 45.4512 158.6125
  L 45.4226 157.7930
  Z"
/>
<rect fill="#ffffff" x="-5.08" y="-2.34" transform="translate(40.36,158.38) rotate(-2.0)" width="10.16" height="4.68" rx="1.93"/>
<path fill="#d20717" d="
  M 98.74 194.29
  Q 98.42 194.72 98.05 196.21
  C 97.99 196.45 97.75 196.64 97.44 196.68
  L 92.99 197.27
  C 91.96 197.40 91.04 196.75 91.00 195.86
  Q 90.89 193.12 92.43 191.22
  Q 92.55 191.07 94.39 189.66
  Q 95.27 188.97 96.17 187.82
  C 96.74 187.09 97.81 186.99 98.52 187.60
  Q 99.90 188.80 101.74 189.60
  Q 102.77 190.05 105.38 190.42
  Q 107.45 190.70 109.34 191.44
  C 110.03 191.71 110.32 192.53 109.95 193.17
  Q 107.01 198.23 101.50 193.91
  Q 99.92 192.67 98.74 194.29
  Z"
/>
<path fill="#dc0415" d="
  M 49.87 193.66
  C 50.17 194.06 50.21 194.58 49.97 195.01
  Q 47.70 199.14 40.88 197.97
  C 39.97 197.81 39.04 197.97 38.24 198.41
  Q 35.08 200.12 32.19 198.06
  Q 30.81 197.08 28.41 197.10
  Q 25.78 197.12 24.62 196.93
  Q 21.55 196.41 18.47 196.00
  Q 13.90 195.38 16.06 191.31
  Q 17.45 188.70 20.02 189.32
  Q 23.17 190.09 23.22 190.10
  Q 25.29 190.29 27.37 190.44
  Q 28.32 190.51 30.82 191.35
  Q 33.70 192.31 36.00 190.00
  Q 37.67 188.32 38.60 189.98
  C 38.77 190.30 39.02 190.53 39.28 190.63
  Q 42.58 191.90 45.95 190.96
  C 46.30 190.86 46.64 190.88 46.90 191.01
  Q 48.40 191.74 49.87 193.66
  Z"
/>
<path fill="#dc0415" d="
  M 90.76 192.69
  Q 91.42 194.54 89.44 195.69
  Q 88.08 196.47 81.72 198.59
  C 81.42 198.69 81.09 198.71 80.77 198.64
  Q 77.69 197.97 75.50 198.75
  Q 73.16 199.59 71.18 199.26
  Q 67.83 198.72 67.74 198.71
  Q 64.06 198.63 60.62 198.51
  C 59.69 198.48 58.83 197.99 58.32 197.20
  Q 57.06 195.23 54.96 194.55
  Q 52.41 193.73 52.18 193.57
  Q 50.19 192.12 52.82 189.82
  Q 54.78 188.10 56.60 189.98
  Q 58.25 191.68 60.66 190.86
  Q 63.32 189.95 66.01 190.44
  Q 66.07 190.45 68.07 191.07
  Q 71.12 192.02 73.98 190.18
  Q 76.79 188.39 79.58 189.91
  C 79.89 190.07 80.23 190.16 80.57 190.15
  Q 85.73 190.00 88.73 190.93
  Q 90.30 191.41 90.76 192.69
  Z"
/>
<rect fill="#d20717" x="-1.72" y="-1.74" transform="translate(122.25,190.82) rotate(-1.7)" width="3.44" height="3.48" rx="1.30"/>
<circle fill="#d20717" cx="132.47" cy="192.31" r="1.52"/>
</svg>
