<?xml version="1.0" encoding="UTF-8" standalone="no"?>
<!DOCTYPE svg PUBLIC "-//W3C//DTD SVG 1.1//EN" "http://www.w3.org/Graphics/SVG/1.1/DTD/svg11.dtd">
<svg xmlns="http://www.w3.org/2000/svg" version="1.1" viewBox="0 0 150 150">
<path stroke="#7f5429" stroke-width="2.0" fill="none" stroke-linecap="butt" vector-effect="non-scaling-stroke" d="
  M 71.43 35.20
  Q 58.63 35.55 45.82 35.50
  Q 43.74 35.50 43.69 35.48
  Q 42.26 35.17 42.83 32.93
  Q 43.31 31.05 41.45 30.48
  L 34.49 28.34
  C 33.90 28.16 33.26 28.46 33.03 29.03
  Q 27.74 41.94 20.21 53.21
  C 19.88 53.71 20.04 54.38 20.55 54.67
  L 34.44 62.61
  C 34.84 62.84 35.35 62.65 35.52 62.22
  Q 38.71 54.03 40.79 45.08
  C 40.90 44.63 41.29 44.31 41.75 44.31
  L 104.55 44.25
  C 105.07 44.25 105.43 44.77 105.25 45.26
  L 103.47 50.05
  C 103.27 50.58 102.66 50.79 102.23 50.49
  L 99.92 48.86
  C 99.32 48.43 98.55 48.39 98.02 48.77
  L 91.24 53.54
  Q 89.53 54.75 87.80 54.75
  L 42.12 54.75
  C 41.60 54.75 41.21 55.20 41.33 55.67
  L 43.13 62.72
  C 43.19 63.00 43.48 63.19 43.82 63.20
  L 84.25 63.74
  Q 84.75 63.75 84.43 64.13
  Q 80.96 68.14 75.92 72.27
  C 75.52 72.60 74.99 72.76 74.47 72.70
  L 68.01 72.03
  C 67.46 71.97 66.99 72.42 66.98 72.99
  L 66.84 83.82
  C 66.84 84.10 66.60 84.32 66.31 84.32
  L 20.81 84.56
  C 20.54 84.57 20.33 84.80 20.36 85.06
  Q 20.79 89.05 22.37 92.74
  C 22.49 93.01 22.76 93.19 23.07 93.19
  L 65.92 93.25
  C 66.62 93.25 67.19 93.80 67.22 94.50
  Q 67.45 101.36 66.94 107.19
  Q 66.63 110.66 63.21 110.39
  Q 61.41 110.24 61.28 110.24
  Q 54.73 110.18 47.92 109.73
  C 47.49 109.70 47.11 110.01 47.08 110.42
  L 46.48 117.65
  C 46.46 117.83 46.61 117.99 46.81 118.00
  Q 49.67 118.07 52.54 118.51
  Q 60.97 119.79 62.92 127.40
  C 63.17 128.35 64.03 129.02 65.02 129.01
  Q 69.78 128.97 74.10 128.76
  Q 79.79 128.49 82.52 126.73
  Q 87.61 123.45 87.66 116.25
  Q 87.75 105.62 87.75 93.90
  C 87.75 93.58 88.01 93.32 88.33 93.31
  Q 101.96 93.21 115.81 93.24
  Q 121.78 93.25 122.66 93.03
  Q 125.95 92.20 128.58 88.87
  C 129.06 88.28 128.99 87.42 128.43 86.91
  L 119.32 78.75
  C 118.84 78.33 118.09 78.36 117.56 78.81
  L 111.60 83.90
  C 111.39 84.08 111.07 84.19 110.68 84.21
  Q 102.96 84.63 95.22 84.54
  Q 90.37 84.48 90.31 84.46
  Q 87.66 83.63 88.16 78.66
  Q 88.38 76.56 90.09 75.32
  Q 95.88 71.16 102.57 66.07
  Q 106.91 62.77 111.98 61.56
  Q 113.63 61.17 112.40 60.00
  L 104.93 52.91
  Q 104.60 52.61 104.96 52.86
  Q 110.53 56.93 115.06 51.31
  Q 120.42 44.66 129.81 39.73
  C 130.01 39.63 130.03 39.35 129.84 39.22
  L 115.11 29.39
  C 114.53 29.00 113.76 29.03 113.22 29.47
  L 106.27 35.10
  C 105.95 35.36 105.56 35.50 105.18 35.50
  L 82.40 35.44
  Q 81.13 35.44 81.95 34.44
  L 86.68 28.65
  C 87.08 28.16 86.95 27.43 86.40 27.09
  Q 77.81 21.82 67.26 18.52
  C 66.90 18.41 66.54 18.53 66.38 18.81
  L 62.35 26.02
  C 62.06 26.53 62.25 27.23 62.80 27.68
  L 71.56 34.84
  Q 71.98 35.19 71.43 35.20"
/>
<path fill="#000000" d="
  M 0.00 0.00
  Q 75.00 0.00 150.00 0.00
  Q 150.00 75.00 150.00 150.00
  Q 75.00 150.00 0.00 150.00
  Q 0.00 75.00 0.00 0.00
  Z
  M 71.43 35.20
  Q 58.63 35.55 45.82 35.50
  Q 43.74 35.50 43.69 35.48
  Q 42.26 35.17 42.83 32.93
  Q 43.31 31.05 41.45 30.48
  L 34.49 28.34
  C 33.90 28.16 33.26 28.46 33.03 29.03
  Q 27.74 41.94 20.21 53.21
  C 19.88 53.71 20.04 54.38 20.55 54.67
  L 34.44 62.61
  C 34.84 62.84 35.35 62.65 35.52 62.22
  Q 38.71 54.03 40.79 45.08
  C 40.90 44.63 41.29 44.31 41.75 44.31
  L 104.55 44.25
  C 105.07 44.25 105.43 44.77 105.25 45.26
  L 103.47 50.05
  C 103.27 50.58 102.66 50.79 102.23 50.49
  L 99.92 48.86
  C 99.32 48.43 98.55 48.39 98.02 48.77
  L 91.24 53.54
  Q 89.53 54.75 87.80 54.75
  L 42.12 54.75
  C 41.60 54.75 41.21 55.20 41.33 55.67
  L 43.13 62.72
  C 43.19 63.00 43.48 63.19 43.82 63.20
  L 84.25 63.74
  Q 84.75 63.75 84.43 64.13
  Q 80.96 68.14 75.92 72.27
  C 75.52 72.60 74.99 72.76 74.47 72.70
  L 68.01 72.03
  C 67.46 71.97 66.99 72.42 66.98 72.99
  L 66.84 83.82
  C 66.84 84.10 66.60 84.32 66.31 84.32
  L 20.81 84.56
  C 20.54 84.57 20.33 84.80 20.36 85.06
  Q 20.79 89.05 22.37 92.74
  C 22.49 93.01 22.76 93.19 23.07 93.19
  L 65.92 93.25
  C 66.62 93.25 67.19 93.80 67.22 94.50
  Q 67.45 101.36 66.94 107.19
  Q 66.63 110.66 63.21 110.39
  Q 61.41 110.24 61.28 110.24
  Q 54.73 110.18 47.92 109.73
  C 47.49 109.70 47.11 110.01 47.08 110.42
  L 46.48 117.65
  C 46.46 117.83 46.61 117.99 46.81 118.00
  Q 49.67 118.07 52.54 118.51
  Q 60.97 119.79 62.92 127.40
  C 63.17 128.35 64.03 129.02 65.02 129.01
  Q 69.78 128.97 74.10 128.76
  Q 79.79 128.49 82.52 126.73
  Q 87.61 123.45 87.66 116.25
  Q 87.75 105.62 87.75 93.90
  C 87.75 93.58 88.01 93.32 88.33 93.31
  Q 101.96 93.21 115.81 93.24
  Q 121.78 93.25 122.66 93.03
  Q 125.95 92.20 128.58 88.87
  C 129.06 88.28 128.99 87.42 128.43 86.91
  L 119.32 78.75
  C 118.84 78.33 118.09 78.36 117.56 78.81
  L 111.60 83.90
  C 111.39 84.08 111.07 84.19 110.68 84.21
  Q 102.96 84.63 95.22 84.54
  Q 90.37 84.48 90.31 84.46
  Q 87.66 83.63 88.16 78.66
  Q 88.38 76.56 90.09 75.32
  Q 95.88 71.16 102.57 66.07
  Q 106.91 62.77 111.98 61.56
  Q 113.63 61.17 112.40 60.00
  L 104.93 52.91
  Q 104.60 52.61 104.96 52.86
  Q 110.53 56.93 115.06 51.31
  Q 120.42 44.66 129.81 39.73
  C 130.01 39.63 130.03 39.35 129.84 39.22
  L 115.11 29.39
  C 114.53 29.00 113.76 29.03 113.22 29.47
  L 106.27 35.10
  C 105.95 35.36 105.56 35.50 105.18 35.50
  L 82.40 35.44
  Q 81.13 35.44 81.95 34.44
  L 86.68 28.65
  C 87.08 28.16 86.95 27.43 86.40 27.09
  Q 77.81 21.82 67.26 18.52
  C 66.90 18.41 66.54 18.53 66.38 18.81
  L 62.35 26.02
  C 62.06 26.53 62.25 27.23 62.80 27.68
  L 71.56 34.84
  Q 71.98 35.19 71.43 35.20
  Z"
/>
<path fill="#fea851" d="
  M 71.56 34.84
  L 62.80 27.68
  C 62.25 27.23 62.06 26.53 62.35 26.02
  L 66.38 18.81
  C 66.54 18.53 66.90 18.41 67.26 18.52
  Q 77.81 21.82 86.40 27.09
  C 86.95 27.43 87.08 28.16 86.68 28.65
  L 81.95 34.44
  Q 81.13 35.44 82.40 35.44
  L 105.18 35.50
  C 105.56 35.50 105.95 35.36 106.27 35.10
  L 113.22 29.47
  C 113.76 29.03 114.53 29.00 115.11 29.39
  L 129.84 39.22
  C 130.03 39.35 130.01 39.63 129.81 39.73
  Q 120.42 44.66 115.06 51.31
  Q 110.53 56.93 104.96 52.86
  Q 104.60 52.61 104.93 52.91
  L 112.40 60.00
  Q 113.63 61.17 111.98 61.56
  Q 106.91 62.77 102.57 66.07
  Q 95.88 71.16 90.09 75.32
  Q 88.38 76.56 88.16 78.66
  Q 87.66 83.63 90.31 84.46
  Q 90.37 84.48 95.22 84.54
  Q 102.96 84.63 110.68 84.21
  C 111.07 84.19 111.39 84.08 111.60 83.90
  L 117.56 78.81
  C 118.09 78.36 118.84 78.33 119.32 78.75
  L 128.43 86.91
  C 128.99 87.42 129.06 88.28 128.58 88.87
  Q 125.95 92.20 122.66 93.03
  Q 121.78 93.25 115.81 93.24
  Q 101.96 93.21 88.33 93.31
  C 88.01 93.32 87.75 93.58 87.75 93.90
  Q 87.75 105.62 87.66 116.25
  Q 87.61 123.45 82.52 126.73
  Q 79.79 128.49 74.10 128.76
  Q 69.78 128.97 65.02 129.01
  C 64.03 129.02 63.17 128.35 62.92 127.40
  Q 60.97 119.79 52.54 118.51
  Q 49.67 118.07 46.81 118.00
  C 46.61 117.99 46.46 117.83 46.48 117.65
  L 47.08 110.42
  C 47.11 110.01 47.49 109.70 47.92 109.73
  Q 54.73 110.18 61.28 110.24
  Q 61.41 110.24 63.21 110.39
  Q 66.63 110.66 66.94 107.19
  Q 67.45 101.36 67.22 94.50
  C 67.19 93.80 66.62 93.25 65.92 93.25
  L 23.07 93.19
  C 22.76 93.19 22.49 93.01 22.37 92.74
  Q 20.79 89.05 20.36 85.06
  C 20.33 84.80 20.54 84.57 20.81 84.56
  L 66.31 84.32
  C 66.60 84.32 66.84 84.10 66.84 83.82
  L 66.98 72.99
  C 66.99 72.42 67.46 71.97 68.01 72.03
  L 74.47 72.70
  C 74.99 72.76 75.52 72.60 75.92 72.27
  Q 80.96 68.14 84.43 64.13
  Q 84.75 63.75 84.25 63.74
  L 43.82 63.20
  C 43.48 63.19 43.19 63.00 43.13 62.72
  L 41.33 55.67
  C 41.21 55.20 41.60 54.75 42.12 54.75
  L 87.80 54.75
  Q 89.53 54.75 91.24 53.54
  L 98.02 48.77
  C 98.55 48.39 99.32 48.43 99.92 48.86
  L 102.23 50.49
  C 102.66 50.79 103.27 50.58 103.47 50.05
  L 105.25 45.26
  C 105.43 44.77 105.07 44.25 104.55 44.25
  L 41.75 44.31
  C 41.29 44.31 40.90 44.63 40.79 45.08
  Q 38.71 54.03 35.52 62.22
  C 35.35 62.65 34.84 62.84 34.44 62.61
  L 20.55 54.67
  C 20.04 54.38 19.88 53.71 20.21 53.21
  Q 27.74 41.94 33.03 29.03
  C 33.26 28.46 33.90 28.16 34.49 28.34
  L 41.45 30.48
  Q 43.31 31.05 42.83 32.93
  Q 42.26 35.17 43.69 35.48
  Q 43.74 35.50 45.82 35.50
  Q 58.63 35.55 71.43 35.20
  Q 71.98 35.19 71.56 34.84
  Z"
/>
</svg>
