<?xml version="1.0" encoding="UTF-8" standalone="no"?>
<!DOCTYPE svg PUBLIC "-//W3C//DTD SVG 1.1//EN" "http://www.w3.org/Graphics/SVG/1.1/DTD/svg11.dtd">
<svg xmlns="http://www.w3.org/2000/svg" version="1.1" viewBox="0 0 353 332">
<path stroke="#000000" stroke-width="2.0" fill="none" stroke-linecap="butt" vector-effect="non-scaling-stroke" d="
  M 0.21 279.00
  L 0.21 52.75"
/>
<path fill="#000000" d="
  M 52.81 0.00
  Q 176.31 0.00 299.81 0.00
  Q 314.63 0.50 325.69 7.06
  Q 352.32 22.87 352.35 55.25
  Q 352.45 183.63 352.83 312.00
  Q 352.86 322.27 352.19 324.19
  Q 349.08 333.05 341.19 330.80
  Q 337.92 329.87 336.28 327.38
  Q 334.53 324.73 334.52 321.25
  Q 334.50 305.38 334.50 289.51
  Q 334.50 289.44 334.59 288.00
  Q 334.77 285.29 332.10 285.44
  Q 330.95 285.50 330.90 285.50
  Q 327.83 285.50 324.75 285.50
  Q 324.63 285.50 323.25 285.42
  Q 319.72 285.22 319.92 288.72
  Q 320.00 290.20 320.00 290.29
  Q 320.00 306.02 320.06 321.75
  Q 320.07 325.95 318.19 327.94
  Q 313.04 333.36 306.94 330.17
  Q 305.25 329.30 304.06 327.77
  Q 302.54 325.81 302.50 324.25
  Q 301.96 303.29 302.11 235.50
  Q 302.12 230.65 304.56 228.06
  Q 308.96 223.40 314.57 225.89
  Q 316.88 226.92 318.24 228.92
  Q 319.66 231.01 320.01 233.52
  Q 320.02 233.57 319.97 240.48
  Q 319.86 254.11 320.25 267.70
  C 320.27 268.25 320.69 268.70 321.24 268.75
  Q 325.60 269.14 329.97 269.02
  Q 330.06 269.02 331.53 269.06
  Q 334.84 269.15 334.62 265.91
  Q 334.50 264.16 334.50 264.09
  Q 334.50 172.17 334.50 80.17
  C 334.50 79.66 334.09 79.25 333.58 79.25
  L 18.88 79.25
  C 18.39 79.25 18.00 79.64 18.00 80.13
  Q 18.00 176.15 18.00 272.52
  Q 18.00 283.42 19.43 288.34
  Q 21.78 296.42 27.56 302.44
  Q 38.18 313.49 54.50 313.49
  Q 113.87 313.50 173.45 313.50
  C 173.76 313.50 174.01 313.76 174.01 314.07
  L 174.18 330.52
  C 174.19 330.92 173.87 331.25 173.48 331.25
  Q 116.88 331.25 60.75 331.38
  Q 54.87 331.39 49.00 330.95
  Q 34.43 329.85 22.64 321.33
  Q 1.15 305.82 0.21 279.00
  L 0.21 52.75
  Q 0.48 33.50 12.06 19.56
  Q 27.54 0.95 52.81 0.00
  Z
  M 25.17 31.92
  Q 18.19 40.98 18.05 52.50
  Q 18.00 56.63 18.00 60.81
  C 18.00 61.19 18.31 61.50 18.69 61.50
  L 333.75 61.50
  C 334.22 61.50 334.59 61.12 334.58 60.65
  Q 334.50 57.12 334.49 53.89
  Q 334.48 49.55 334.06 47.15
  Q 332.67 39.04 328.19 32.81
  Q 321.00 22.82 309.44 19.43
  Q 304.76 18.06 295.78 18.06
  Q 178.86 17.96 61.94 18.00
  Q 47.87 18.00 42.71 19.55
  Q 32.29 22.67 25.17 31.92
  Z"
/>
<path fill="#000000" d="
  M 0.00 52.69
  Q 0.10 52.72 0.21 52.75
  L 0.21 279.00
  Q 0.10 278.97 0.00 278.94
  Q 0.00 165.81 0.00 52.69
  Z"
/>
<rect fill="#f15a24" x="-3.13" y="-45.25" transform="translate(64.64,134.20) rotate(40.0)" width="6.26" height="90.50" rx="0.45"/>
<path fill="#f15a24" d="
  M 67.09 115.08
  C 67.09 124.35 59.57 131.87 50.30 131.87
  C 41.03 131.87 33.51 124.35 33.51 115.08
  C 33.51 105.81 41.03 98.29 50.30 98.29
  C 59.57 98.29 67.09 105.81 67.09 115.08
  Z
  M 57.34 115.08
  C 57.34 111.20 54.19 108.05 50.31 108.05
  C 46.43 108.05 43.28 111.20 43.28 115.08
  C 43.28 118.96 46.43 122.11 50.31 122.11
  C 54.19 122.11 57.34 118.96 57.34 115.08
  Z"
/>
<path fill="#f15a24" d="
  M 95.58 153.35
  C 95.58 162.63 88.06 170.15 78.78 170.15
  C 69.50 170.15 61.98 162.63 61.98 153.35
  C 61.98 144.07 69.50 136.55 78.78 136.55
  C 88.06 136.55 95.58 144.07 95.58 153.35
  Z
  M 85.83 153.34
  C 85.83 149.45 82.68 146.30 78.79 146.30
  C 74.90 146.30 71.75 149.45 71.75 153.34
  C 71.75 157.23 74.90 160.38 78.79 160.38
  C 82.68 160.38 85.83 157.23 85.83 153.34
  Z"
/>
<rect fill="#f15a24" x="117.76" y="164.01" width="41.60" height="6.24" rx="0.49"/>
<path fill="#000000" d="
  M 239.69 227.10
  Q 244.67 231.02 242.22 237.13
  Q 227.27 274.22 212.31 311.33
  C 211.99 312.13 212.58 313.00 213.44 313.00
  Q 221.69 313.00 230.07 313.00
  Q 236.28 313.00 238.70 314.35
  Q 241.83 316.10 242.81 319.79
  Q 243.68 323.05 242.26 326.10
  Q 240.38 330.14 235.99 331.03
  Q 234.92 331.25 228.50 331.25
  Q 219.34 331.25 210.18 331.25
  Q 202.03 331.25 200.86 330.95
  Q 195.60 329.62 193.81 323.44
  Q 193.05 320.81 193.43 315.34
  Q 193.68 311.64 195.29 307.55
  Q 207.64 276.03 220.44 244.67
  C 220.77 243.87 220.18 243.00 219.32 243.00
  Q 211.50 243.00 203.25 242.92
  Q 197.98 242.87 195.42 239.32
  Q 193.13 236.16 194.00 231.79
  Q 195.36 225.00 203.50 225.00
  Q 217.75 225.00 232.00 225.00
  Q 237.03 225.00 239.69 227.10
  Z"
/>
<path fill="#000000" d="
  M 257.94 277.06
  Q 252.51 273.29 251.80 266.44
  Q 251.22 260.88 251.18 255.29
  Q 251.12 247.92 251.29 245.21
  Q 251.63 239.85 253.25 235.25
  Q 254.62 231.35 257.94 229.01
  Q 260.39 227.28 264.93 226.42
  Q 275.78 224.36 286.00 227.00
  Q 290.32 228.12 292.83 231.58
  Q 294.67 234.11 295.59 238.91
  Q 296.72 244.79 296.30 250.78
  Q 296.04 254.53 294.53 256.34
  Q 293.10 258.06 290.85 258.67
  Q 288.84 259.22 286.67 258.60
  Q 281.46 257.10 281.25 251.25
  Q 281.10 247.03 280.62 245.42
  Q 279.74 242.42 276.00 242.00
  Q 274.47 241.83 273.48 241.85
  Q 272.19 241.87 271.00 242.02
  Q 269.21 242.24 268.20 243.64
  Q 267.54 244.56 267.27 246.52
  Q 266.38 253.11 267.07 259.74
  Q 267.43 263.22 270.34 265.14
  Q 277.55 269.90 285.31 273.69
  Q 291.28 276.60 293.94 281.50
  Q 295.79 284.89 296.08 292.32
  Q 296.28 297.30 296.25 303.75
  Q 296.22 309.71 295.28 315.01
  Q 294.03 322.00 291.29 325.42
  Q 288.47 328.94 283.93 330.14
  Q 281.76 330.72 275.53 331.24
  Q 266.75 331.97 260.00 330.00
  Q 254.90 328.51 252.30 324.00
  Q 250.66 321.14 249.80 315.10
  Q 248.67 307.16 249.25 301.00
  Q 249.59 297.39 252.51 295.49
  Q 255.09 293.82 258.26 294.40
  Q 262.95 295.26 264.19 300.31
  Q 264.41 301.23 264.42 306.00
  Q 264.42 309.74 266.12 312.62
  Q 267.01 314.11 268.74 314.25
  Q 271.58 314.47 274.42 314.32
  Q 276.62 314.20 277.78 313.42
  Q 279.45 312.30 279.75 310.25
  Q 281.27 299.90 280.25 294.50
  Q 279.24 289.15 273.19 286.06
  Q 264.42 281.57 257.94 277.06
  Z"
/>
</svg>
