<?xml version="1.0" encoding="UTF-8" standalone="no"?>
<!DOCTYPE svg PUBLIC "-//W3C//DTD SVG 1.1//EN" "http://www.w3.org/Graphics/SVG/1.1/DTD/svg11.dtd">
<svg xmlns="http://www.w3.org/2000/svg" version="1.1" viewBox="0 0 64 61">
<g stroke-width="2.0" fill="none" stroke-linecap="butt">
<path stroke="#f8b291" vector-effect="non-scaling-stroke" d="
  M 16.53 28.40
  Q 19.25 27.44 21.92 26.39
  Q 26.76 24.47 23.07 21.37
  C 22.81 21.16 22.49 21.07 22.19 21.15
  L 16.78 22.53
  C 16.51 22.60 16.25 22.43 16.26 22.19
  L 16.58 16.16
  C 16.59 15.93 16.83 15.70 17.17 15.60
  L 25.96 12.93
  Q 28.04 12.30 27.13 10.07
  Q 26.59 8.73 24.09 7.44
  C 23.73 7.25 23.29 7.25 22.92 7.44
  Q 19.68 9.09 16.56 9.61
  C 16.28 9.66 15.95 9.58 15.66 9.39
  Q 14.06 8.35 12.91 10.15
  Q 11.98 11.59 11.69 13.28
  Q 9.74 24.62 11.49 36.70
  Q 11.55 37.13 11.40 37.65
  Q 10.82 39.67 12.47 41.02
  Q 14.86 42.98 17.16 41.68
  Q 19.52 40.34 19.65 40.28
  Q 23.70 38.51 25.44 35.69
  Q 26.69 33.65 24.73 32.90
  C 24.44 32.79 24.10 32.79 23.77 32.91
  L 17.04 35.26
  C 16.76 35.36 16.48 35.20 16.46 34.95
  L 16.03 29.05
  C 16.01 28.78 16.21 28.51 16.53 28.40"
/>
<path stroke="#f8b291" vector-effect="non-scaling-stroke" d="
  M 50.37 10.52
  C 49.78 10.17 49.06 10.13 48.44 10.44
  Q 43.12 13.07 37.20 13.82
  C 36.76 13.88 36.31 13.76 35.94 13.50
  Q 33.41 11.68 31.94 12.29
  Q 30.76 12.78 30.71 15.22
  Q 30.29 35.64 31.02 56.49
  Q 31.06 57.78 31.91 56.81
  Q 33.54 54.94 34.65 53.21
  Q 35.74 51.50 35.90 48.99
  Q 36.73 35.25 36.47 19.92
  C 36.46 19.33 36.80 18.79 37.33 18.59
  L 45.51 15.50
  C 46.31 15.20 47.19 15.75 47.29 16.62
  Q 48.09 23.39 45.82 30.19
  Q 44.20 35.01 39.18 33.06
  Q 36.89 32.17 38.46 34.05
  Q 39.79 35.65 40.69 38.31
  Q 41.41 40.46 43.94 38.69
  Q 45.69 37.46 49.08 36.70
  C 49.72 36.56 50.30 36.21 50.72 35.70
  Q 52.81 33.19 53.37 30.27
  Q 54.72 23.12 53.96 15.91
  Q 53.73 13.83 52.96 12.78
  Q 52.05 11.54 50.37 10.52"
/>
</g>
<path fill="#f06522" d="
  M 0.00 0.00
  Q 32.00 0.00 64.00 0.00
  Q 64.00 30.50 64.00 61.00
  Q 32.00 61.00 0.00 61.00
  Q 0.00 30.50 0.00 0.00
  Z
  M 16.53 28.40
  Q 19.25 27.44 21.92 26.39
  Q 26.76 24.47 23.07 21.37
  C 22.81 21.16 22.49 21.07 22.19 21.15
  L 16.78 22.53
  C 16.51 22.60 16.25 22.43 16.26 22.19
  L 16.58 16.16
  C 16.59 15.93 16.83 15.70 17.17 15.60
  L 25.96 12.93
  Q 28.04 12.30 27.13 10.07
  Q 26.59 8.73 24.09 7.44
  C 23.73 7.25 23.29 7.25 22.92 7.44
  Q 19.68 9.09 16.56 9.61
  C 16.28 9.66 15.95 9.58 15.66 9.39
  Q 14.06 8.35 12.91 10.15
  Q 11.98 11.59 11.69 13.28
  Q 9.74 24.62 11.49 36.70
  Q 11.55 37.13 11.40 37.65
  Q 10.82 39.67 12.47 41.02
  Q 14.86 42.98 17.16 41.68
  Q 19.52 40.34 19.65 40.28
  Q 23.70 38.51 25.44 35.69
  Q 26.69 33.65 24.73 32.90
  C 24.44 32.79 24.10 32.79 23.77 32.91
  L 17.04 35.26
  C 16.76 35.36 16.48 35.20 16.46 34.95
  L 16.03 29.05
  C 16.01 28.78 16.21 28.51 16.53 28.40
  Z
  M 50.37 10.52
  C 49.78 10.17 49.06 10.13 48.44 10.44
  Q 43.12 13.07 37.20 13.82
  C 36.76 13.88 36.31 13.76 35.94 13.50
  Q 33.41 11.68 31.94 12.29
  Q 30.76 12.78 30.71 15.22
  Q 30.29 35.64 31.02 56.49
  Q 31.06 57.78 31.91 56.81
  Q 33.54 54.94 34.65 53.21
  Q 35.74 51.50 35.90 48.99
  Q 36.73 35.25 36.47 19.92
  C 36.46 19.33 36.80 18.79 37.33 18.59
  L 45.51 15.50
  C 46.31 15.20 47.19 15.75 47.29 16.62
  Q 48.09 23.39 45.82 30.19
  Q 44.20 35.01 39.18 33.06
  Q 36.89 32.17 38.46 34.05
  Q 39.79 35.65 40.69 38.31
  Q 41.41 40.46 43.94 38.69
  Q 45.69 37.46 49.08 36.70
  C 49.72 36.56 50.30 36.21 50.72 35.70
  Q 52.81 33.19 53.37 30.27
  Q 54.72 23.12 53.96 15.91
  Q 53.73 13.83 52.96 12.78
  Q 52.05 11.54 50.37 10.52
  Z"
/>
<path fill="#ffffff" d="
  M 16.03 29.05
  L 16.46 34.95
  C 16.48 35.20 16.76 35.36 17.04 35.26
  L 23.77 32.91
  C 24.10 32.79 24.44 32.79 24.73 32.90
  Q 26.69 33.65 25.44 35.69
  Q 23.70 38.51 19.65 40.28
  Q 19.52 40.34 17.16 41.68
  Q 14.86 42.98 12.47 41.02
  Q 10.82 39.67 11.40 37.65
  Q 11.55 37.13 11.49 36.70
  Q 9.74 24.62 11.69 13.28
  Q 11.98 11.59 12.91 10.15
  Q 14.06 8.35 15.66 9.39
  C 15.95 9.58 16.28 9.66 16.56 9.61
  Q 19.68 9.09 22.92 7.44
  C 23.29 7.25 23.73 7.25 24.09 7.44
  Q 26.59 8.73 27.13 10.07
  Q 28.04 12.30 25.96 12.93
  L 17.17 15.60
  C 16.83 15.70 16.59 15.93 16.58 16.16
  L 16.26 22.19
  C 16.25 22.43 16.51 22.60 16.78 22.53
  L 22.19 21.15
  C 22.49 21.07 22.81 21.16 23.07 21.37
  Q 26.76 24.47 21.92 26.39
  Q 19.25 27.44 16.53 28.40
  C 16.21 28.51 16.01 28.78 16.03 29.05
  Z"
/>
<path fill="#ffffff" d="
  M 50.37 10.52
  Q 52.05 11.54 52.96 12.78
  Q 53.73 13.83 53.96 15.91
  Q 54.72 23.12 53.37 30.27
  Q 52.81 33.19 50.72 35.70
  C 50.30 36.21 49.72 36.56 49.08 36.70
  Q 45.69 37.46 43.94 38.69
  Q 41.41 40.46 40.69 38.31
  Q 39.79 35.65 38.46 34.05
  Q 36.89 32.17 39.18 33.06
  Q 44.20 35.01 45.82 30.19
  Q 48.09 23.39 47.29 16.62
  C 47.19 15.75 46.31 15.20 45.51 15.50
  L 37.33 18.59
  C 36.80 18.79 36.46 19.33 36.47 19.92
  Q 36.73 35.25 35.90 48.99
  Q 35.74 51.50 34.65 53.21
  Q 33.54 54.94 31.91 56.81
  Q 31.06 57.78 31.02 56.49
  Q 30.29 35.64 30.71 15.22
  Q 30.76 12.78 31.94 12.29
  Q 33.41 11.68 35.94 13.50
  C 36.31 13.76 36.76 13.88 37.20 13.82
  Q 43.12 13.07 48.44 10.44
  C 49.06 10.13 49.78 10.17 50.37 10.52
  Z"
/>
</svg>
